<svg width="112" height="57" viewBox="0 0 112 57" fill="none" xmlns="http://www.w3.org/2000/svg">
<g opacity="0.2">
<path d="M1 28.7676L16.8905 37.6678C18.336 38.4775 20.1642 37.962 20.9739 36.5164L28.4081 23.2434C29.2178 21.7978 31.046 21.2823 32.4915 22.092L45.7646 29.5262C47.2101 30.3359 49.0383 29.8204 49.848 28.3748L57.2822 15.1018C58.0919 13.6562 59.9201 13.1407 61.3656 13.9504L77.2561 22.8506" stroke="#1A73E8" stroke-width="2" stroke-linecap="round"/>
<path d="M34.6357 33.8301L50.5262 42.7303C51.9717 43.54 53.8 43.0245 54.6096 41.5789L62.0438 28.3059C62.8535 26.8603 64.6817 26.3448 66.1273 27.1545L79.4003 34.5887C80.8459 35.3984 82.6741 34.8829 83.4837 33.4373L90.918 20.1643C91.7276 18.7187 93.5558 18.2032 95.0014 19.0129L110.892 27.9131" stroke="#FF8934" stroke-width="2" stroke-linecap="round"/>
</g>
</svg>
