<svg width="53" height="54" viewBox="0 0 53 54" fill="none" xmlns="http://www.w3.org/2000/svg">
<g opacity="0.2">
<path d="M46.2319 14.9428C46.2319 14.9428 45.868 14.9428 46.2319 14.9428C46.5958 13.8438 46.2319 13.4775 45.5041 13.1112C42.2288 10.9132 38.9536 8.71533 35.6784 6.15109C35.3145 5.78477 35.3144 5.78477 34.9505 6.15109C33.4949 6.88373 32.4031 6.88373 30.9475 6.15109C30.5836 5.78477 30.5836 5.78477 30.2197 6.15109C27.3083 7.98269 24.397 9.44797 21.4857 11.2796C21.1218 11.6459 21.1218 11.6459 21.1218 12.0122C21.1218 13.8438 20.03 15.3091 18.2105 15.3091C16.7548 15.6754 14.9352 14.5764 14.5713 12.7449C14.5713 12.0122 13.8435 11.6459 13.1157 11.2796C10.5683 10.5469 8.38477 9.44796 5.83737 8.349C5.47346 8.349 5.10956 8.349 4.74564 8.349C3.6539 9.08164 2.19824 8.71533 1.1065 7.98269C0.014757 7.25005 -0.349174 5.41845 0.378655 4.31949C0.742569 2.85422 2.19823 2.12158 3.65389 2.12158C5.47346 2.12158 6.92913 3.58687 6.92913 5.41846C6.92913 5.78478 6.92911 6.15109 7.65694 6.5174C10.2043 7.61636 12.3878 8.34901 14.9352 9.44797C15.2991 9.44797 15.2992 9.44797 15.6631 9.44797C17.1187 8.34901 18.2105 8.34902 19.6661 9.08166C20.03 9.08166 20.03 9.08166 20.3939 9.08166C23.3053 7.25006 26.5805 5.41846 29.4918 3.95318C29.8557 3.58686 29.8557 3.22053 29.8557 2.85421C30.2197 0.289975 33.131 -0.808977 35.3145 0.6563C36.0423 1.38894 36.4062 2.12159 36.4062 3.22055C36.4062 3.58687 36.4062 3.95317 36.7701 4.31949C40.4092 6.88373 43.6845 9.08165 47.3237 11.6459C47.6876 12.0122 48.0514 12.0122 48.4153 11.6459C49.871 11.2796 50.9627 11.6459 52.0545 12.3785C53.1462 13.4775 53.1463 14.5765 52.7824 16.0417C52.0545 17.507 50.9628 18.2396 49.871 18.2396C47.6876 18.606 45.868 16.7744 46.2319 14.9428ZM17.4826 13.1112C18.2105 13.1112 18.5744 12.7448 18.5744 12.0122C18.5744 11.6459 18.2105 10.9133 17.4826 10.9133C16.7548 10.9133 16.3909 11.2796 16.3909 12.0122C16.3909 12.7448 16.7548 13.1112 17.4826 13.1112ZM50.5989 14.9428C50.5989 14.2101 50.2349 13.8438 49.5071 13.8438C49.1432 13.8438 48.4153 14.2101 48.4153 14.9428C48.4153 15.6754 48.7793 16.0417 49.5071 16.0417C49.871 16.0417 50.5989 15.6754 50.5989 14.9428ZM1.83432 5.78478C1.83432 6.51742 2.19824 6.88375 2.92607 6.88375C3.28999 6.88375 4.0178 6.51742 4.0178 5.78478C4.0178 5.05214 3.6539 4.68581 2.92607 4.68581C2.56216 5.05213 1.83432 5.41846 1.83432 5.78478ZM31.6753 3.58687C31.6753 4.31951 32.0392 4.68581 32.767 4.68581C33.4949 4.68581 33.8588 4.31951 33.8588 3.58687C33.8588 2.85423 33.4949 2.4879 32.767 2.4879C32.4031 2.4879 31.6753 2.85423 31.6753 3.58687Z" fill="#FF8934"/>
<path d="M38.9542 35.4566C38.9542 41.3177 38.9542 47.1788 38.9542 53.0399C38.9542 53.7726 38.9542 53.7726 38.2264 53.7726C34.9512 53.7726 31.6759 53.7726 28.4007 53.7726C27.6729 53.7726 27.6729 53.7726 27.6729 53.0399C27.6729 41.3177 27.6729 29.5955 27.6729 17.8733C27.6729 17.1406 27.6729 17.1406 28.4007 17.1406C31.6759 17.1406 34.9512 17.1406 38.2264 17.1406C38.9542 17.1406 38.9542 17.1406 38.9542 17.8733C38.9542 23.3681 38.9542 29.5955 38.9542 35.4566ZM36.4068 35.0903C36.4068 29.9618 36.4068 24.8333 36.4068 19.7049C36.4068 18.9722 36.4068 18.9722 35.679 18.9722C33.8594 18.9722 32.4038 18.9722 30.5842 18.9722C30.2203 18.9722 29.8564 18.9722 29.8564 19.7049C29.8564 21.9028 29.8564 24.1007 29.8564 26.6649C29.8564 34.7239 29.8564 42.4167 29.8564 50.4757C29.8564 51.2083 29.8563 51.2083 30.5842 51.2083C32.4038 51.2083 33.8594 51.2083 35.679 51.2083C36.4068 51.2083 36.4068 51.2083 36.4068 50.4757C36.4068 45.3472 36.4068 40.2188 36.4068 35.0903Z" fill="#FF8934"/>
<path d="M10.9321 36.9228C10.9321 42.0513 10.9321 47.5461 10.9321 52.6746C10.9321 53.4072 10.9322 53.4072 10.2043 53.4072C6.92909 53.4072 3.65387 53.4072 0.742555 53.4072C0.0147261 53.4072 0.0147095 53.4072 0.0147095 52.6746C0.0147095 42.0513 0.0147095 31.428 0.0147095 20.8048C0.0147095 20.4385 0.0147261 20.0721 0.742555 20.0721C4.01778 20.0721 7.293 20.0721 10.5682 20.0721C11.2961 20.0721 11.2961 20.4385 11.2961 20.8048C10.9321 26.2996 10.9321 31.7944 10.9321 36.9228ZM8.38475 36.9228C8.38475 32.527 8.38475 27.7649 8.38475 23.369C8.38475 22.6364 8.38474 22.6364 7.65691 22.6364C5.83733 22.6364 4.01778 22.6364 2.56213 22.6364C2.19821 22.6364 1.83428 22.6364 1.83428 23.369C1.83428 32.527 1.83428 41.685 1.83428 50.843C1.83428 51.2093 1.8343 51.5756 2.56213 51.5756C4.3817 51.5756 6.20125 51.5756 7.65691 51.5756C8.38474 51.5756 8.38475 51.5756 8.38475 50.843C8.38475 46.0808 8.38475 41.3187 8.38475 36.9228Z" fill="#FF8934"/>
<path d="M13.4795 43.5148C13.4795 40.2179 13.4795 37.2873 13.4795 33.9904C13.4795 33.6241 13.4795 33.2578 14.2073 33.2578C17.4825 33.2578 20.7578 33.2578 24.033 33.2578C24.3969 33.2578 24.7608 33.2578 24.7608 33.9904C24.7608 40.2179 24.7608 46.4453 24.7608 52.6728C24.7608 53.4054 24.3969 53.4054 24.033 53.4054C20.7578 53.4054 17.4825 53.4054 14.2073 53.4054C13.8434 53.4054 13.4795 53.0391 13.4795 52.6728C13.4795 49.7422 13.4795 46.8116 13.4795 43.5148ZM16.0269 43.5148C16.0269 45.7127 16.0269 48.2769 16.0269 50.4748C16.0269 50.8411 16.0269 51.2075 16.7547 51.2075C18.5743 51.2075 20.3938 51.2075 22.2134 51.2075C22.5773 51.2075 22.9413 51.2075 22.9413 50.4748C22.9413 45.7127 22.9413 40.9505 22.9413 36.1884C22.9413 35.8221 22.9412 35.4557 22.2134 35.4557C20.3938 35.4557 18.5743 35.4557 17.1186 35.4557C16.7547 35.4557 16.3908 35.4557 16.3908 36.1884C16.0269 38.7526 16.0269 41.3168 16.0269 43.5148Z" fill="#FF8934"/>
<path d="M41.501 47.5439C41.501 45.7123 41.501 43.8807 41.501 42.0491C41.501 41.6827 41.501 41.3164 42.2288 41.3164C45.504 41.3164 48.7792 41.3164 52.0545 41.3164C52.4184 41.3164 52.7823 41.3164 52.7823 42.0491C52.7823 45.7123 52.7823 49.3754 52.7823 53.0386C52.7823 53.7713 52.7823 53.7713 52.0545 53.7713C48.7792 53.7713 45.504 53.7713 42.2288 53.7713C41.501 53.7713 41.501 53.405 41.501 53.0386C41.501 51.207 41.501 49.3754 41.501 47.5439ZM43.6845 47.5439C43.6845 48.6428 43.6845 49.7418 43.6845 50.8407C43.6845 51.2071 43.6845 51.5734 44.4123 51.5734C46.2319 51.5734 48.0514 51.5734 49.871 51.5734C50.2349 51.5734 50.5988 51.5734 50.5988 50.8407C50.5988 48.6428 50.5988 46.4449 50.5988 44.247C50.5988 43.8807 50.5988 43.5143 49.871 43.5143C48.0514 43.5143 46.2319 43.5143 44.4123 43.5143C44.0484 43.5143 43.6845 43.5143 43.6845 44.247C44.0484 45.3459 43.6845 46.4449 43.6845 47.5439Z" fill="#FF8934"/>
</g>
</svg>
