<svg width="58" height="60" viewBox="0 0 58 60" fill="none" xmlns="http://www.w3.org/2000/svg">
<g opacity="0.2">
<path d="M51.2749 27.8608L51.2648 27.8L51.2648 27.7746C51.2637 27.7702 51.2621 27.7643 51.2598 27.7573C51.2592 27.7558 51.2587 27.7541 51.2581 27.7524L51.1395 27.7779L27.0267 32.9791L26.1053 33.1779L26.1187 32.2353L26.4631 7.96856V7.68366C12.4357 7.71579 1.08899 18.815 0.75005 32.9483C0.754799 47.0915 12.1293 58.5471 26.1887 58.8888C30.5515 58.8874 34.8985 57.8727 38.5617 55.862C41.5556 54.1872 44.2361 51.835 46.5983 49.1232C49.6199 44.7185 51.6093 39.6744 51.6093 33.9797V33.9267L51.6167 33.8743C51.9213 31.7282 51.661 30.1715 51.342 28.2634C51.3198 28.131 51.2974 27.9969 51.2749 27.8608Z" stroke="#FF8934" stroke-width="1.5"/>
<path d="M57.0197 21.1416C57.0722 21.1003 57.1157 21.0641 57.1515 21.0328L57.1352 20.9509C54.7985 9.19001 44.4624 0.778148 32.4405 0.750071L32.0967 26.3577C32.0967 26.3691 32.0968 26.3795 32.0968 26.3891C32.1024 26.3949 32.1084 26.4011 32.1149 26.4078C32.1447 26.4384 32.1795 26.4734 32.2233 26.5175L32.2806 26.5752L56.5394 21.4879C56.7357 21.3541 56.8941 21.2404 57.0197 21.1416ZM57.2913 20.8915C57.2931 20.889 57.2938 20.8877 57.2937 20.8877C57.2937 20.8878 57.2928 20.889 57.2913 20.8915Z" stroke="#FF8934" stroke-width="1.5"/>
</g>
</svg>
