<svg width="58" height="58" viewBox="0 0 58 58" fill="none" xmlns="http://www.w3.org/2000/svg">
<g opacity="0.2">
<path d="M26.416 57.9622C25.7991 57.7152 25.1822 57.5917 24.627 57.2829C22.838 56.2948 21.9127 54.6892 21.851 52.5896C21.851 51.4163 21.851 51.4163 20.7406 50.984C20.0621 50.6752 19.3218 50.4282 18.7049 50.0577C18.3348 49.8724 18.1497 49.8724 17.8413 50.1812C16.9777 51.1692 15.929 51.9103 14.5718 52.1573C12.9062 52.4661 11.4257 52.0956 10.1303 50.984C9.01989 49.9959 7.9712 48.9461 6.98418 47.8345C5.19523 45.7966 5.19523 42.709 7.16925 40.7328C7.90951 39.93 8.15626 39.3742 7.53938 38.4479C7.16925 37.8921 6.98418 37.2128 6.79912 36.5953C6.67574 36.2248 6.49068 36.1013 6.12055 36.1013C5.38029 36.1013 4.57835 36.1013 3.83809 35.8543C1.679 35.175 0.383552 33.6929 0.136799 31.4697C-0.0482653 29.7406 -0.0482653 28.0115 0.198487 26.2824C0.506928 23.7505 2.7277 21.8979 5.25692 21.8361C6.61406 21.7743 6.55237 21.7743 7.04587 20.601C7.29263 19.9835 7.53938 19.3042 7.90951 18.6866C8.09457 18.3161 8.03288 18.0691 7.72444 17.8221C6.79912 16.9575 6.05886 15.9695 5.81211 14.7344C5.44198 12.9435 5.8738 11.3379 7.10756 10.0411C8.03288 9.05302 8.95821 8.06495 10.0069 7.13864C12.1043 5.16252 15.2504 5.16252 17.2861 7.2004C18.0264 7.94145 18.5199 8.12671 19.4452 7.57092C20.0621 7.2004 20.7406 7.01514 21.4192 6.76812C21.7893 6.64461 21.9127 6.45935 21.9127 6.08883C21.851 4.85375 22.0361 3.61867 22.7147 2.56885C23.7634 0.963244 25.1822 0.0986876 27.0945 0.0369336C28.6984 -0.0248204 30.2406 -0.0248204 31.8445 0.160442C34.2504 0.469212 36.2244 2.69236 36.1627 5.10076C36.1627 6.27409 36.4711 6.82987 37.5815 7.07689C38.1984 7.2004 38.8153 7.57092 39.3705 7.87969C39.7406 8.06495 39.9257 8.06495 40.1724 7.75618C41.0361 6.76812 42.0848 6.02707 43.4419 5.78006C45.1075 5.47129 46.588 5.84181 47.8834 6.95338C48.9938 7.94145 50.1042 8.99126 51.0912 10.1646C52.9419 12.2025 52.7568 15.2902 50.8445 17.3281C49.9808 18.1926 49.9808 18.1926 50.4743 19.3659C50.7828 20.0452 51.0295 20.7863 51.338 21.5273C51.3997 21.7126 51.6464 21.8361 51.8315 21.8361C52.3867 21.8979 52.9419 21.8361 53.4354 21.8979C55.6561 22.2684 57.3834 23.8122 57.8769 26.0971C57.8769 26.2206 57.9386 26.2824 58.0003 26.4059C58.0003 28.135 58.0003 29.8641 58.0003 31.5932C57.9386 31.7167 57.9386 31.8402 57.8769 31.9638C57.5068 33.5694 56.5815 34.7427 55.1009 35.5455C54.1139 36.1013 53.0036 36.163 51.9549 36.1013C51.5847 36.1013 51.3997 36.163 51.338 36.5336C51.0912 37.2128 50.8445 37.8921 50.536 38.5097C50.351 38.8802 49.9808 39.3125 50.0425 39.683C50.1042 40.0535 50.5977 40.3005 50.8445 40.6093C52.8185 42.7089 52.8802 45.8584 50.9062 47.958C49.9808 48.9461 49.0555 49.8724 48.0685 50.7987C46.7114 52.0956 45.0458 52.4661 43.2568 52.0956C42.0231 51.972 41.0977 51.3545 40.3575 50.4899C39.9874 50.0577 39.6172 49.9342 39.062 50.2429C38.4451 50.6135 37.7049 50.8605 36.9646 51.1075C36.101 51.4163 36.101 51.4163 36.101 52.3426C36.1627 54.3805 35.3607 56.0478 33.6335 57.0976C33.0166 57.4682 32.2763 57.6534 31.5978 57.9622C29.8705 57.9622 28.1432 57.9622 26.416 57.9622ZM29.0069 3.49516C28.4517 3.49516 27.8348 3.49516 27.2796 3.49516C26.1075 3.49516 25.3056 4.29796 25.3056 5.47129C25.3056 6.27409 25.3056 7.07689 25.3056 7.81794C25.3056 8.74425 24.8121 9.30003 23.9484 9.54705C22.1595 10.0411 20.4939 10.7204 18.89 11.6467C18.0264 12.1407 17.3478 12.0172 16.6692 11.3379C16.114 10.7821 15.6205 10.2881 15.0653 9.73231C14.2017 8.86776 13.0913 8.86776 12.2277 9.73231C11.4257 10.5351 10.6238 11.3379 9.82184 12.1407C8.95821 13.0053 8.95821 14.1168 9.82184 14.9814C10.3153 15.5372 10.8705 16.0312 11.4257 16.587C12.166 17.3281 12.2277 18.0073 11.7342 18.8719C10.8705 20.4158 10.192 22.0831 9.69846 23.8122C9.45171 24.8003 8.83483 25.1708 7.84782 25.2326C7.04587 25.2326 6.30562 25.2326 5.50367 25.2326C4.39328 25.2326 3.59134 26.0354 3.59134 27.1469C3.59134 28.3203 3.59134 29.4936 3.59134 30.7287C3.59134 31.902 4.39328 32.7048 5.56536 32.7048C6.3673 32.7048 7.10756 32.7048 7.90951 32.7048C8.83483 32.7048 9.45171 33.1371 9.69846 34.0634C10.192 35.7925 10.8705 37.4599 11.7342 39.0655C12.2277 39.93 12.1043 40.6093 11.4257 41.3504C10.8705 41.9061 10.377 42.4002 9.82184 42.956C9.01989 43.8205 8.95821 44.9321 9.82184 45.7966C10.6238 46.6612 11.4874 47.464 12.2894 48.2668C13.153 49.0696 14.2634 49.0696 15.127 48.2668C15.6822 47.7728 16.1757 47.217 16.6692 46.723C17.4712 45.9202 18.0881 45.8584 19.0751 46.3524C20.6173 47.217 22.2212 47.8963 23.9484 48.3903C24.9354 48.6991 25.3673 49.2549 25.3673 50.3047C25.3673 51.0457 25.3673 51.7868 25.3673 52.5896C25.3673 53.7629 26.1692 54.504 27.3413 54.5657C28.5134 54.5657 29.6854 54.5657 30.8575 54.5657C32.0296 54.5657 32.8315 53.7629 32.8315 52.5896C32.8315 51.8485 32.8315 51.0457 32.8315 50.2429C32.8315 49.2549 33.2633 48.6991 34.1887 48.4521C35.9159 47.958 37.5815 47.2787 39.1237 46.4142C40.049 45.9202 40.7276 45.9819 41.4679 46.723C42.0231 47.2787 42.5166 47.7728 43.0718 48.3286C43.9354 49.1314 45.0458 49.1314 45.8477 48.3286C46.7114 47.5258 47.5133 46.6612 48.3769 45.7966C49.1789 44.9321 49.1789 43.8823 48.3769 43.0177C47.8218 42.4619 47.2666 41.9061 46.773 41.3504C46.0328 40.6093 45.9711 39.93 46.4646 39.0655C47.3282 37.5216 48.0068 35.916 48.5003 34.1869C48.8088 33.1371 49.364 32.7666 50.4127 32.7666C51.1529 32.7666 51.8932 32.7666 52.6334 32.7666C53.8055 32.7666 54.6074 31.9638 54.6074 30.7904C54.6074 29.6171 54.6074 28.5055 54.6074 27.3322C54.6074 26.0971 53.8055 25.2943 52.5717 25.2943C51.7698 25.2943 51.0295 25.2943 50.2276 25.2943C49.3023 25.2943 48.6854 24.862 48.4386 23.9357C47.9451 22.2066 47.2666 20.5393 46.4029 18.9337C45.9094 18.0691 46.0328 17.3898 46.7114 16.6488C47.2666 16.093 47.7601 15.5989 48.3153 15.0432C49.1172 14.1786 49.1172 13.067 48.3153 12.2025C47.5133 11.3379 46.6497 10.5351 45.8477 9.73231C44.9841 8.86776 43.8737 8.92951 43.0101 9.73231C42.4549 10.2263 41.9614 10.7821 41.4679 11.2762C40.6659 12.079 40.049 12.1407 39.062 11.5849C37.5198 10.7204 35.9159 10.0411 34.1887 9.54705C33.2017 9.36179 32.7698 8.74425 32.7698 7.75618C32.7698 6.95338 32.7698 6.21233 32.7698 5.40953C32.7698 4.23621 31.9679 3.49516 30.7958 3.4334C30.1789 3.49516 29.6237 3.49516 29.0069 3.49516Z" fill="#FF8934"/>
<path d="M41.5906 29.0581C41.5906 36.0363 35.977 41.5941 29.0063 41.6559C22.0355 41.6559 16.4219 35.9745 16.4219 29.0581C16.4219 22.0798 22.0972 16.522 29.0063 16.522C35.977 16.4602 41.5906 22.0798 41.5906 29.0581ZM38.1978 29.0581C38.1978 23.9942 34.1264 19.8567 29.0679 19.8567C24.0095 19.8567 19.8764 23.9325 19.8764 28.9963C19.8764 34.0601 23.9478 38.1976 29.0063 38.1976C34.0647 38.2594 38.1978 34.1219 38.1978 29.0581Z" fill="#FF8934"/>
</g>
</svg>
