<svg width="61" height="60" viewBox="0 0 61 60" fill="none" xmlns="http://www.w3.org/2000/svg">
<path opacity="0.2" fill-rule="evenodd" clip-rule="evenodd" d="M11.1196 25.5047L10.4652 25.4085C10.4893 25.2853 10.5122 25.1602 10.5333 25.0425C10.6044 24.6922 10.6724 24.3426 10.7402 23.9938L10.7422 23.9837C10.9236 23.0507 11.1039 22.1234 11.3384 21.2046C11.8692 19.1786 12.6721 17.2247 13.7276 15.4186C18.836 6.49449 29.7881 2.04648 39.593 4.88906C49.5459 7.1602 56.9632 16.3656 57.0991 26.6475C57.147 28.7393 56.899 30.8385 56.3804 32.866C56.1412 33.7808 55.8495 34.6762 55.5558 35.5774L55.5551 35.5796C55.4434 35.9226 55.3313 36.2664 55.2218 36.6124C55.2011 36.6731 55.1804 36.7356 55.1595 36.7985C55.1418 36.8518 55.1241 36.9055 55.1061 36.9585L54.4982 36.7291C53.6208 36.398 52.6726 36.6011 52.0066 37.1769C51.698 37.4421 51.4495 37.7872 51.2961 38.1963L51.2256 38.384L50.6453 38.165C50.2026 37.998 49.7079 38.2243 49.5403 38.6706L45.9336 48.2764C45.766 48.7227 45.9891 49.2199 46.4318 49.3869L47.0124 49.6059L46.8957 49.9169C46.4118 51.209 47.0567 52.6461 48.3383 53.13L51.7151 54.4033C52.4809 54.6931 53.2998 54.5745 53.9381 54.1565C54.3706 53.8757 54.7209 53.4579 54.9167 52.9363L55.1983 52.1865L55.2003 52.1872C56.6386 52.7299 58.7192 50.7338 59.8474 47.7289C60.9757 44.724 60.7244 41.8482 59.2861 41.3055L59.2841 41.3047L59.2854 41.3014L59.3172 41.2164C59.7726 40.0035 59.2307 38.6606 58.1015 38.1016C58.1705 37.889 58.2279 37.7153 58.2681 37.5959C58.3735 37.2674 58.4816 36.938 58.59 36.6077L58.5907 36.6056C58.9097 35.6336 59.2316 34.6531 59.4939 33.6625C60.093 31.3486 60.3827 28.9546 60.3357 26.5621C60.2196 14.8252 51.7806 4.27834 40.4362 1.62633C29.2301 -1.55999 16.7328 3.56807 10.9362 13.7726C9.73398 15.8417 8.82558 18.0755 8.2265 20.3894C7.97469 21.3801 7.78114 22.3911 7.58925 23.3934C7.52326 23.7382 7.45745 24.0819 7.38956 24.4234C7.36542 24.547 7.3311 24.7282 7.28821 24.9546L7.29113 24.9554L7.31652 24.9568C6.05247 24.8904 4.91958 25.8036 4.72852 27.0897L4.71631 27.1718L4.71323 27.1713C3.3621 26.9728 1.9364 28.839 1.30429 31.4841L1.30434 31.4815C1.22414 31.8155 1.15677 32.1607 1.10406 32.5161C0.632515 35.6913 1.48161 38.4467 3.00212 38.6693L3.008 38.6701L2.88878 39.4725C2.87911 39.5377 2.87201 39.6026 2.86744 39.6672L2.8655 39.6663C2.78118 40.8556 3.54704 41.9353 4.68117 42.2419C4.77647 42.2679 4.87431 42.2884 4.97451 42.3032L8.54055 42.827L8.5459 42.8279C9.90047 43.027 11.1629 42.0824 11.3656 40.7181L11.4152 40.3842L11.9949 40.4693C12.4631 40.5381 12.8994 40.2117 12.9694 39.7402L14.4773 29.591C14.5473 29.1195 14.2246 28.6815 13.7565 28.6127L13.1768 28.5275L13.2053 28.3353C13.408 26.971 12.4742 25.7037 11.1196 25.5047ZM59.288 41.3024C59.3333 41.3194 59.3764 41.3411 59.4193 41.3627L59.4447 41.3754C59.4198 41.3622 59.3948 41.3493 59.3694 41.3373C59.3428 41.3246 59.3157 41.3128 59.288 41.3024ZM48.5158 54.9264L49.2015 53.4616L49.203 53.462L51.2694 54.2472L50.5101 55.8687C49.2711 58.5111 46.3382 59.9008 43.5348 59.1751L33.7047 56.63C32.9884 57.029 31.8892 57.134 30.7431 56.8373C28.9562 56.3746 27.7368 55.1166 28.0193 54.0257C28.3017 52.9348 29.9784 52.4266 31.7653 52.8892C32.8922 53.181 33.7925 53.7894 34.2336 54.4721L44.0916 57.0244C45.8697 57.4847 47.73 56.6012 48.5158 54.9264Z" fill="#1A73E8"/>
</svg>
