<svg width="68" height="53" viewBox="0 0 68 53" fill="none" xmlns="http://www.w3.org/2000/svg">
<path opacity="0.2" d="M30.0879 37.8696C40.0552 35.6258 56.678 30.2242 65.6518 27.1574C66.5045 26.866 66.5607 25.6937 65.7373 25.3273C48.7521 17.7697 22.9537 8.44875 8.29265 3.38875C7.2585 3.03184 6.40955 4.45358 7.16852 5.2415C18.877 17.3966 32.0084 39.2802 38.5952 51.4653C39.0458 52.2989 40.2859 52.1094 40.4325 51.1732C42.8068 36.0087 42.716 14.0266 42.2976 2.87498C42.2676 2.07352 41.3656 1.6475 40.7431 2.15329C29.8565 11 11.5064 32.8761 1.45646 45.5092C0.809229 46.3228 1.69551 47.4661 2.65661 47.0697C9.60595 44.2034 21.0298 39.9087 30.0879 37.8696Z" stroke="#1A73E8" stroke-width="2"/>
</svg>
