<svg width="44" height="31" viewBox="0 0 44 31" fill="none" xmlns="http://www.w3.org/2000/svg">
<path fill-rule="evenodd" clip-rule="evenodd" d="M0 22L0.000167847 22.086L0 22.1719C0 22.7889 0.500183 23.2891 1.11719 23.2891H9.28125C9.89825 23.2891 10.3984 22.7889 10.3984 22.1719L10.3984 22.086L10.398 22C10.398 18.7879 11.7034 15.8807 13.8126 13.7799L6.40369 6.48376C2.44595 10.4617 0 15.9453 0 22Z" fill="#EF2E2E"/>
<path fill-rule="evenodd" clip-rule="evenodd" d="M43.9999 22.086L44.0001 22C44.0001 15.9453 41.5542 10.4617 37.5964 6.48376L30.1875 13.7799C32.2967 15.8807 33.6021 18.7879 33.6021 22L33.6018 22.086L33.6017 22.1719C33.6017 22.7889 34.1019 23.2891 34.7189 23.2891H42.8829C43.4999 23.2891 44.0001 22.7889 44.0001 22.1719L43.9999 22.086Z" fill="#10BB67"/>
<path fill-rule="evenodd" clip-rule="evenodd" d="M37.5963 6.48375C33.612 2.47893 28.0955 0 22 0V10.3981C25.1954 10.3981 28.0891 11.69 30.1874 13.7799L37.5963 6.48375Z" fill="#58C8F5"/>
<circle cx="22" cy="23.2891" r="5.15625" fill="#D9D9D9"/>
<path fill-rule="evenodd" clip-rule="evenodd" d="M26.7178 25.3235C26.4671 25.9011 26.1056 26.442 25.6334 26.9143C23.6198 28.9279 20.355 28.9279 18.3413 26.9143C16.3277 24.9007 16.3277 21.6358 18.3413 19.6222C18.8136 19.15 19.3546 18.7885 19.9321 18.5378L31.2848 12.7554C31.742 12.5413 32.1646 12.4199 32.5002 12.7554C32.8357 13.091 32.7143 13.5136 32.5002 13.9708L26.7178 25.3235Z" fill="#42516D"/>
<path fill-rule="evenodd" clip-rule="evenodd" d="M13.8127 13.7799L6.40381 6.48375C10.3882 2.47893 15.9046 0 22.0001 0V10.3981C18.8047 10.3981 15.911 11.69 13.8127 13.7799Z" fill="#FEDB41"/>
</svg>
