<svg width="18" height="18" viewBox="0 0 18 18" fill="none" xmlns="http://www.w3.org/2000/svg">
<path d="M0.000244141 9C0.000244141 4.02944 4.02968 0 9.00024 0H18.0002V9C18.0002 13.9706 13.9708 18 9.00024 18C4.02968 18 0.000244141 13.9706 0.000244141 9Z" fill="#A37CFC"/>
<path d="M8.93575 12.9717C8.32211 12.9717 7.77559 12.8662 7.29619 12.6553C6.81952 12.4416 6.44285 12.1485 6.16616 11.7759C5.89222 11.4006 5.75114 10.9678 5.74292 10.4774H7.53452C7.54548 10.6829 7.61259 10.8637 7.73587 11.0198C7.86188 11.1732 8.02899 11.2924 8.23719 11.3773C8.44539 11.4623 8.67961 11.5047 8.93986 11.5047C9.21106 11.5047 9.45076 11.4568 9.65896 11.3609C9.86716 11.265 10.0302 11.1321 10.148 10.9623C10.2657 10.7925 10.3246 10.5966 10.3246 10.3747C10.3246 10.1501 10.2616 9.95145 10.1356 9.77886C10.0123 9.60354 9.83429 9.46656 9.60143 9.36794C9.37132 9.26932 9.09737 9.22001 8.7796 9.22001H7.99475V7.9133H8.7796C9.04806 7.9133 9.28503 7.86672 9.49049 7.77358C9.69868 7.68044 9.86031 7.55169 9.97537 7.38732C10.0904 7.22022 10.148 7.02571 10.148 6.80382C10.148 6.59288 10.0973 6.40797 9.99591 6.24908C9.89729 6.08745 9.75758 5.96144 9.57678 5.87104C9.39871 5.78064 9.19052 5.73544 8.95218 5.73544C8.71111 5.73544 8.49059 5.77927 8.29061 5.86693C8.09063 5.95185 7.93037 6.07376 7.80983 6.23265C7.6893 6.39153 7.62492 6.57781 7.6167 6.79149H5.9114C5.91961 6.30661 6.05796 5.87926 6.32642 5.50943C6.59489 5.13961 6.9565 4.85059 7.41124 4.6424C7.86873 4.43146 8.38512 4.32599 8.9604 4.32599C9.54116 4.32599 10.0493 4.43146 10.4849 4.6424C10.9205 4.85333 11.2588 5.13823 11.4999 5.4971C11.7437 5.85323 11.8642 6.25319 11.8615 6.69698C11.8642 7.16817 11.7177 7.56128 11.4218 7.87631C11.1287 8.19135 10.7465 8.39133 10.2753 8.47625V8.542C10.8945 8.62144 11.3656 8.83649 11.6889 9.18714C12.0149 9.53505 12.1765 9.97062 12.1738 10.4939C12.1765 10.9733 12.0382 11.3992 11.7587 11.7718C11.4821 12.1444 11.0999 12.4375 10.6123 12.6512C10.1247 12.8648 9.56582 12.9717 8.93575 12.9717Z" fill="white"/>
</svg>
