<svg width="45" height="45" viewBox="0 0 45 45" fill="none" xmlns="http://www.w3.org/2000/svg">
<path d="M43.2386 44.5089C42.9374 44.2888 42.613 44.0919 42.3466 43.837C37.0406 38.5426 31.7347 33.2367 26.4287 27.9423C25.9769 27.4905 25.7684 27.0039 25.7684 26.3668C25.7799 22.4394 25.7799 18.5237 25.7799 14.5963C25.7799 13.4147 26.2897 12.8933 27.4714 12.8933C28.514 12.8933 29.5567 12.8933 30.5993 12.8818C30.6225 12.8818 30.6457 12.8586 30.7152 12.8238C28.1433 9.74221 25.583 6.67218 22.9995 3.56738C20.4045 6.67218 17.8442 9.74221 15.2144 12.8933C15.4577 12.8933 15.5967 12.8933 15.7357 12.8933C16.7089 12.8933 17.6704 12.8933 18.6436 12.8933C19.6399 12.9049 20.2075 13.461 20.2075 14.4689C20.2075 18.4889 20.2075 22.5205 20.2075 26.5405C20.2075 27.0503 20.0338 27.4557 19.6746 27.8149C14.276 33.2135 8.87737 38.6006 3.47874 43.9992C3.27021 44.2077 2.99216 44.3467 2.74888 44.5205C2.48242 44.5205 2.22755 44.5205 1.9611 44.5205C1.46294 44.2309 1.03429 43.8833 0.999537 43.2462C0.964782 42.7364 1.19648 42.3657 1.54403 42.0182C4.99638 38.5774 8.44872 35.125 11.9011 31.6727C13.6504 29.9234 15.3997 28.174 17.1491 26.4131C17.2881 26.2741 17.4155 26.054 17.4155 25.8686C17.4271 22.5553 17.4271 19.242 17.4271 15.9286C17.4271 15.8707 17.4155 15.8128 17.404 15.6853C17.2534 15.6853 17.1027 15.6853 16.9521 15.6853C15.4345 15.6853 13.9169 15.6738 12.3876 15.6853C11.7505 15.6853 11.2523 15.4652 10.9858 14.8744C10.7194 14.2951 10.87 13.7854 11.2639 13.3104C14.7857 9.09345 18.3076 4.86491 21.841 0.647953C22.5477 -0.197755 23.4629 -0.197755 24.1696 0.647953C27.7031 4.86491 31.2133 9.09345 34.7468 13.322C35.1522 13.8086 35.3029 14.3415 35.0016 14.9323C34.7236 15.5 34.237 15.7085 33.6114 15.7085C32.1054 15.6969 30.5993 15.7085 29.0933 15.7085C28.9427 15.7085 28.7805 15.7085 28.5719 15.7085C28.5719 15.9055 28.5719 16.0561 28.5719 16.2067C28.5719 19.381 28.5719 22.5437 28.5604 25.718C28.5604 26.0308 28.653 26.2509 28.8732 26.471C34.0748 31.6495 39.2534 36.8512 44.4435 42.0413C45.0459 42.6437 45.1733 43.3736 44.7331 43.9413C44.5477 44.1846 44.2581 44.3467 44.0148 44.5437C43.7599 44.5089 43.4935 44.5089 43.2386 44.5089Z" fill="#A37CFC"/>
<path d="M13.7781 44.5093C13.5811 44.3703 13.3726 44.2429 13.1988 44.0807C12.6543 43.5246 12.6891 42.7021 13.2799 42.0997C14.2183 41.1497 15.1567 40.2113 16.1067 39.2729C18.0182 37.3614 19.9297 35.4498 21.8413 33.5383C22.6059 32.7737 23.3705 32.7737 24.1351 33.5383C26.9039 36.3071 29.6843 39.076 32.4532 41.8564C33.4958 42.899 33.4147 43.6984 32.1983 44.5209C31.9318 44.5209 31.677 44.5209 31.4105 44.5209C31.1093 44.3008 30.7733 44.1154 30.5185 43.849C28.1088 41.4625 25.7222 39.0644 23.3241 36.6663C23.2199 36.562 23.104 36.4577 22.9418 36.3071C22.8144 36.4577 22.7217 36.5852 22.6059 36.701C20.2193 39.0875 17.8444 41.4741 15.4463 43.849C15.1799 44.1039 14.8555 44.3008 14.5543 44.5209C14.2994 44.5093 14.0445 44.5093 13.7781 44.5093Z" fill="#A37CFC"/>
</svg>
