<svg width="44" height="42" viewBox="0 0 44 42" fill="none" xmlns="http://www.w3.org/2000/svg">
<path d="M20.8509 16C20.2538 16.1495 19.6835 16.3397 19.2005 16.7541C18.496 17.352 18.1472 18.1332 18.0264 19.0368C17.852 20.382 18.2143 21.6524 18.5967 22.916C18.8248 23.6837 19.0529 24.4514 19.1535 25.2531C19.1535 25.2667 19.1602 25.2871 19.1669 25.3007C19.234 25.7151 19.2005 25.749 18.7979 25.6607C17.3891 25.3482 15.9668 25.1648 14.5243 25.2327C13.7394 25.2667 12.9679 25.3958 12.2366 25.7355C10.774 26.408 10.13 27.8755 10.6265 29.4109C10.6801 29.5739 10.66 29.6894 10.5728 29.8321C9.82138 31.0346 9.78783 32.2439 10.5996 33.4396C10.707 33.6026 10.7338 33.7385 10.6801 33.9287C10.3111 35.2603 10.6264 36.4153 11.5724 37.4003C11.6932 37.5294 11.7401 37.6449 11.7267 37.8216C11.6328 39.3434 12.4714 40.6274 13.9675 41.3C15.0074 41.7619 16.1076 41.9793 17.228 41.9929C19.0998 42.0201 20.9716 41.9658 22.8367 41.8842C24.5676 41.8095 26.2985 41.6464 28.016 41.4019C28.1301 41.3883 28.224 41.4155 28.3246 41.4766C28.6869 41.694 29.076 41.7959 29.492 41.7959C30.552 41.7959 31.612 41.8027 32.672 41.7959C34.0272 41.7891 34.9933 40.8108 35 39.4385C35 36.5851 35 33.7385 35 30.8851C35 29.3973 34.1211 28.4326 32.6519 28.3918C31.5114 28.3646 30.3641 28.3375 29.2236 28.419C29.0022 28.4326 28.8009 28.5005 28.593 28.582C28.499 28.616 28.4118 28.65 28.3582 28.5277C27.9959 27.7464 27.4256 27.1418 26.8285 26.5439C26.171 25.8849 25.7215 25.0629 25.272 24.2476C24.3798 22.6375 23.6485 20.9527 22.991 19.227C22.944 19.098 22.9306 18.9689 22.9508 18.833C23.0044 18.3167 22.991 17.8003 22.8703 17.2976C22.7159 16.6726 22.3805 16.2174 21.7633 16C21.448 16 21.1461 16 20.8509 16ZM18.1673 40.5051C17.4696 40.4983 16.9328 40.4711 16.4028 40.3964C15.6514 40.3013 14.9202 40.1382 14.2627 39.7442C13.3905 39.2279 13.0886 38.5485 13.2832 37.543C13.357 37.1626 13.2496 36.8704 12.9544 36.6259C11.9951 35.8242 11.8072 35.0633 12.2836 33.9084C12.4244 33.5619 12.3842 33.2697 12.1494 32.9912C12.0756 32.9029 12.0018 32.8078 11.928 32.7194C11.398 32.0469 11.3846 31.2656 11.8877 30.5726C11.9749 30.4503 12.0756 30.3348 12.1695 30.2193C12.3506 29.9884 12.3842 29.7302 12.2701 29.4584C12.2232 29.3497 12.1695 29.2478 12.1225 29.1391C11.7401 28.2763 12.0286 27.4882 12.8739 27.101C12.9746 27.0534 13.0752 27.0195 13.1758 26.9855C13.7729 26.7953 14.3902 26.7477 15.0074 26.7409C16.3961 26.7138 17.7446 26.9787 19.0931 27.2776C19.7841 27.4339 20.3544 27.1146 20.5624 26.4352C20.6764 26.0684 20.7033 25.6947 20.6697 25.3075C20.5758 24.2544 20.2806 23.2489 19.972 22.2503C19.6835 21.3263 19.4487 20.4024 19.4957 19.4173C19.5426 18.3778 20.0659 17.7256 21.0521 17.5286C21.3406 17.4675 21.401 17.515 21.4278 17.8275C21.4547 18.2012 21.4614 18.5748 21.4144 18.9417C21.3876 19.1591 21.4211 19.3629 21.4949 19.5599C22.1926 21.4214 22.9776 23.2354 23.937 24.9746C24.5206 26.0412 25.1513 27.0806 26.0503 27.9163C26.5333 28.3646 26.8822 28.9014 27.1304 29.5128C27.2378 29.7845 27.325 30.0495 27.2378 30.3484C27.1841 30.5251 27.1908 30.7153 27.1908 30.9055C27.1908 33.7249 27.1908 36.5375 27.1908 39.357C27.1908 39.4996 27.1908 39.6491 27.2109 39.785C27.2378 39.948 27.1774 39.9888 27.0298 40.0092C25.4532 40.1994 23.8766 40.342 22.2933 40.4032C20.8777 40.444 19.4353 40.3828 18.1673 40.5051ZM28.7271 35.0973C28.7271 33.6434 28.7271 32.1895 28.7271 30.7357C28.7271 30.2669 28.9955 29.934 29.4182 29.9272C30.5453 29.9136 31.6724 29.9136 32.7995 29.9272C33.1349 29.9272 33.3966 30.1718 33.4704 30.5047C33.5039 30.6609 33.5106 30.824 33.5106 30.9802C33.5106 32.9301 33.5106 34.8867 33.5106 36.8365C33.5106 37.6789 33.5173 38.5281 33.5106 39.3705C33.5039 39.9752 33.2221 40.2537 32.6317 40.2537C31.6321 40.2537 30.6258 40.2537 29.6261 40.2537C28.9821 40.2537 28.7271 39.9956 28.7271 39.3502C28.7204 37.9371 28.7271 36.5172 28.7271 35.0973Z" fill="#27AE60"/>
<path d="M20.9874 0.732607C21.3048 -0.244204 22.6867 -0.244202 23.0041 0.73261L23.8406 3.30695C23.9825 3.74379 24.3896 4.03956 24.8489 4.03956L27.5557 4.03956C28.5828 4.03956 29.0099 5.35385 28.1789 5.95755L25.9891 7.54858C25.6175 7.81856 25.462 8.29712 25.6039 8.73396L26.4404 11.3083C26.7578 12.2851 25.6398 13.0974 24.8088 12.4937L22.619 10.9027C22.2474 10.6327 21.7442 10.6327 21.3726 10.9027L19.1827 12.4937C18.3518 13.0974 17.2338 12.2851 17.5512 11.3083L18.3876 8.73396C18.5296 8.29712 18.3741 7.81856 18.0025 7.54858L15.8126 5.95755C14.9817 5.35385 15.4087 4.03956 16.4358 4.03956L19.1426 4.03956C19.602 4.03956 20.009 3.74379 20.151 3.30695L20.9874 0.732607Z" fill="#27AE60"/>
<path d="M5.61222 10.1045C5.66597 9.07884 7.00081 8.72118 7.5602 9.58256L9.03444 11.8527C9.28461 12.2379 9.75437 12.4182 10.198 12.2994L12.8126 11.5988C13.8047 11.3329 14.5574 12.4919 13.911 13.2901L12.2075 15.3937C11.9185 15.7507 11.8921 16.2532 12.1423 16.6384L13.6166 18.9085C14.1759 19.7699 13.3063 20.8439 12.3474 20.4758L9.82037 19.5058C9.39155 19.3411 8.90551 19.4714 8.61645 19.8283L6.913 21.9319C6.26663 22.7301 4.97649 22.2349 5.03025 21.2092L5.17191 18.5061C5.19595 18.0474 4.9219 17.6254 4.49308 17.4608L1.96604 16.4908C1.00718 16.1227 1.07951 14.7427 2.07159 14.4768L4.68618 13.7763C5.12985 13.6574 5.44652 13.2663 5.47056 12.8076L5.61222 10.1045Z" fill="#27AE60"/>
<path d="M38.3878 10.1045C38.334 9.07884 36.9992 8.72118 36.4398 9.58256L34.9656 11.8527C34.7154 12.2379 34.2456 12.4182 33.802 12.2994L31.1874 11.5988C30.1953 11.3329 29.4426 12.4919 30.089 13.2901L31.7925 15.3937C32.0815 15.7507 32.1079 16.2532 31.8577 16.6384L30.3834 18.9085C29.8241 19.7699 30.6937 20.8439 31.6526 20.4758L34.1796 19.5058C34.6084 19.3411 35.0945 19.4714 35.3835 19.8283L37.087 21.9319C37.7334 22.7301 39.0235 22.2349 38.9698 21.2092L38.8281 18.5061C38.8041 18.0474 39.0781 17.6254 39.5069 17.4608L42.034 16.4908C42.9928 16.1227 42.9205 14.7427 41.9284 14.4768L39.3138 13.7763C38.8701 13.6574 38.5535 13.2663 38.5294 12.8076L38.3878 10.1045Z" fill="#27AE60"/>
</svg>
