<svg width="18" height="18" viewBox="0 0 18 18" fill="none" xmlns="http://www.w3.org/2000/svg">
<path d="M0.000244141 9C0.000244141 4.02944 4.02968 0 9.00024 0H18.0002V9C18.0002 13.9706 13.9708 18 9.00024 18C4.02968 18 0.000244141 13.9706 0.000244141 9Z" fill="#FF50A3"/>
<path d="M5.8251 12.8566V11.5746L8.82069 8.80088C9.07546 8.55433 9.28914 8.33243 9.46172 8.13519C9.63705 7.93795 9.76991 7.74482 9.86031 7.5558C9.95071 7.36404 9.99591 7.15721 9.99591 6.93531C9.99591 6.68876 9.93975 6.47646 9.82744 6.29839C9.71512 6.11759 9.56171 5.97925 9.36721 5.88337C9.17271 5.78475 8.95218 5.73544 8.70563 5.73544C8.44812 5.73544 8.22349 5.78748 8.03173 5.89158C7.83997 5.99568 7.69204 6.14498 7.58794 6.33948C7.48384 6.53398 7.43179 6.76547 7.43179 7.03393H5.74292C5.74292 6.4833 5.86756 6.00527 6.11685 5.59983C6.36614 5.19439 6.71542 4.88073 7.16469 4.65883C7.61396 4.43694 8.13172 4.32599 8.71796 4.32599C9.32064 4.32599 9.84524 4.43283 10.2918 4.6465C10.741 4.85744 11.0903 5.15056 11.3396 5.52587C11.5889 5.90117 11.7135 6.33126 11.7135 6.81615C11.7135 7.13392 11.6505 7.44759 11.5245 7.75715C11.4012 8.0667 11.1807 8.41051 10.8629 8.78855C10.5452 9.16385 10.0973 9.61449 9.51925 10.1405L8.29061 11.3445V11.402H11.8245V12.8566H5.8251Z" fill="white"/>
</svg>
