<svg width="47" height="44" viewBox="0 0 47 44" fill="none" xmlns="http://www.w3.org/2000/svg">
<path d="M5.69128 5.97863C6.13408 7.3096 6.93114 8.24127 8.23742 8.24127C9.52156 8.24127 10.3187 7.3096 10.7836 5.97863C11.1821 6.00081 11.4478 5.55715 11.6471 4.98041C11.9128 4.0709 11.625 3.76035 11.2264 3.64944V3.62725C11.2264 3.62725 11.4036 2.31847 11.1379 1.63079C11.005 1.25369 10.7836 1.14278 10.5844 1.1206C10.6729 -0.565297 8.61381 0.055822 6.73188 0.410747C4.0086 0.943134 5.27061 3.60507 5.27061 3.60507V3.62725C4.87208 3.73817 4.58425 4.0709 4.84994 4.95822C5.02707 5.57934 5.29274 6.023 5.69128 5.97863Z" fill="#A37CFC"/>
<path d="M0.266892 24.4345C0.399734 24.4345 0.488296 24.5454 0.488296 24.6563V25.0778C0.488296 25.2775 0.621138 25.4549 0.798261 25.4549H2.12668C2.30381 25.4549 2.43665 25.2775 2.43665 25.0778V24.6563C2.43665 24.5232 2.54735 24.4345 2.65805 24.4345H2.70234C2.83518 24.4345 2.92375 24.3235 2.92375 24.2127L3.38869 14.186C3.38869 14.0751 3.38869 13.1213 3.38869 13.1213C3.38869 13.2544 3.41083 13.2765 3.41083 13.4096V15.9384V24.612V26.1647V42.3803C3.41083 42.5135 3.52153 42.6022 3.63223 42.6022H3.67652C3.80936 42.6022 3.89792 42.713 3.89792 42.824V43.4673C3.89792 43.7557 4.14146 43.9997 4.45143 43.9997H6.8426C7.15256 43.9997 7.37397 43.7557 7.37397 43.4673V42.824C7.37397 42.691 7.48467 42.6022 7.59537 42.6022H7.63964C7.7725 42.6022 7.86105 42.4913 7.86105 42.3803V26.3644C7.86105 26.2313 7.97176 26.1425 8.08246 26.1425H8.43671C8.56954 26.1425 8.65811 26.2535 8.65811 26.3644V42.3803C8.65811 42.5135 8.76881 42.6022 8.87951 42.6022H8.90165C9.0345 42.6022 9.12305 42.713 9.12305 42.824V43.4673C9.12305 43.7557 9.3666 43.9997 9.65442 43.9997H12.0456C12.3556 43.9997 12.577 43.7557 12.577 43.4673V42.824C12.577 42.691 12.6877 42.6022 12.7984 42.6022H12.8426C12.9755 42.6022 13.0641 42.4913 13.0641 42.3803V26.1425V24.5897V15.9163V14.8516H13.2855L14.7025 19.6429C14.7246 19.7317 14.8131 19.7982 14.9239 19.7982H21.411C21.5438 19.7982 21.6324 19.6874 21.6324 19.5764C21.6324 19.4434 21.7431 19.3546 21.8537 19.3546H22.053C22.2523 19.3546 22.4072 19.1994 22.4072 19.0219V17.8241C22.4072 17.6466 22.2523 17.4913 22.0753 17.4913H21.8537C21.7209 17.4913 21.6324 17.3804 21.6324 17.2694V17.2473C21.6324 17.1141 21.5217 17.0254 21.411 17.0254L16.54 17.0033C16.4515 17.0033 16.363 16.6483 16.3408 16.5596L14.6802 10.659C14.6581 10.5924 14.6138 10.548 14.5474 10.5259L13.1083 9.92692L11.005 9.15051C10.8721 9.10616 10.7393 9.17271 10.7172 9.30581L9.61014 13.0991C9.54372 13.3209 9.21161 13.3209 9.16734 13.0769L8.68025 10.548C8.68025 10.5037 8.68025 10.4593 8.70238 10.4149L9.16734 9.39454C9.23375 9.23926 9.12305 9.08398 8.96807 9.08398H8.25958H7.52894C7.37397 9.08398 7.26326 9.26144 7.32968 9.39454L7.79463 10.4149C7.81677 10.4593 7.81677 10.5037 7.81677 10.548L7.30754 13.0547C7.26326 13.2765 6.93116 13.2987 6.86473 13.0769L5.75772 9.28362C5.71343 9.15052 5.60273 9.08397 5.46989 9.12834L1.77244 10.06C0.311173 10.4593 0.576857 12.4114 0.444014 13.3653C0.266892 14.7628 -0.020934 22.5712 0.00120594 24.1905C0.00120594 24.3235 0.111909 24.4123 0.22261 24.4123H0.266892V24.4345Z" fill="#A37CFC"/>
<path d="M0.488189 24.6561C0.488189 24.6561 0.355348 26.6971 1.21882 26.7414C2.08229 26.7858 2.32585 25.8319 2.4144 25.0776C2.5251 24.3013 0.488189 24.6561 0.488189 24.6561Z" fill="#A37CFC"/>
<path d="M21.7651 19.333C21.7651 19.333 23.8021 19.4662 23.8463 18.6232C23.8906 17.7802 22.9386 17.5584 22.1858 17.4697C21.4109 17.3809 21.7651 19.333 21.7651 19.333Z" fill="#A37CFC"/>
<path d="M19.0642 4.18201V15.6061H20.3704V4.40383H44.8356V21.8395H20.3704V20.8634H19.0642V22.0392C18.7762 22.2387 18.5771 22.5493 18.5771 22.9264C18.5771 23.5475 19.0641 24.0355 19.6841 24.0355H45.5219C46.1418 24.0355 46.629 23.5475 46.629 22.9264C46.629 22.5493 46.4296 22.2387 46.1418 22.0392V4.18201C46.4296 3.98236 46.629 3.6718 46.629 3.29469C46.629 2.67358 46.1418 2.18555 45.5219 2.18555H19.6841C19.0641 2.18555 18.5771 2.67358 18.5771 3.29469C18.5771 3.6718 18.7762 3.98236 19.0642 4.18201Z" fill="#A37CFC"/>
<path d="M24.9313 19.8872H27.8317V14.6299H24.9313V19.8872Z" fill="#A37CFC"/>
<path d="M29.2488 19.8875H32.1271V10.0605L29.2488 10.0827V19.8875Z" fill="#A37CFC"/>
<path d="M33.2782 19.8877H36.1786V7.50977L33.2782 7.53195V19.8877Z" fill="#A37CFC"/>
<path d="M37.4185 19.8871H40.3189V9.4834H37.4185V19.8871Z" fill="#A37CFC"/>
<path d="M27.0792 34.5503H25.3301C24.6217 34.5503 24.0238 33.9735 24.0238 33.2415L23.5811 29.5149C23.5811 28.805 24.1567 28.2061 24.8872 28.2061H27.522C28.2305 28.2061 28.8283 28.7829 28.8283 29.5149L28.3854 33.2415C28.3854 33.9735 27.8098 34.5503 27.0792 34.5503Z" fill="#A37CFC"/>
<path d="M29.0717 35.127H23.3374C22.6288 35.127 21.6989 35.9257 21.3668 36.8795L20.2598 41.8928C20.2598 42.8688 20.8354 43.6453 21.5661 43.6453H30.843C31.5514 43.6453 32.1491 42.8688 32.1491 41.8928L31.0421 36.8795C30.7322 35.9477 29.8023 35.127 29.0717 35.127Z" fill="#A37CFC"/>
<path d="M41.116 34.5503H39.3669C38.6585 34.5503 38.0606 33.9735 38.0606 33.2415L37.6177 29.5149C37.6177 28.805 38.1935 28.2061 38.924 28.2061H41.5589C42.2673 28.2061 42.8651 28.7829 42.8651 29.5149L42.4222 33.2415C42.4222 33.9735 41.8466 34.5503 41.116 34.5503Z" fill="#A37CFC"/>
<path d="M43.1085 35.127H37.3742C36.6656 35.127 35.7357 35.9257 35.4036 36.8795L34.2966 41.8928C34.2966 42.8688 34.8722 43.6453 35.6029 43.6453H44.8796C45.5882 43.6453 46.1859 42.8688 46.1859 41.8928L45.0789 36.8795C44.769 35.9477 43.8391 35.127 43.1085 35.127Z" fill="#A37CFC"/>
</svg>
