<svg width="50" height="41" viewBox="0 0 50 41" fill="none" xmlns="http://www.w3.org/2000/svg">
<path d="M49.9397 31.544C49.6381 32.509 49.0953 33.2931 48.0097 33.5947C47.7081 33.655 47.3462 33.7153 47.0446 33.7153C43.9686 33.7153 40.953 33.7153 37.877 33.7153C37.7563 33.7153 37.5754 33.7153 37.4548 33.7153C37.0929 33.655 36.9119 33.4138 36.9119 33.1122C36.8516 32.7503 37.0326 32.4487 37.3945 32.3884C37.5754 32.3281 37.8167 32.3281 37.9976 32.3281C40.953 32.3281 43.9686 32.3281 46.924 32.3281C48.0097 32.3281 48.4318 31.9059 48.4318 30.8203C48.4318 29.9759 48.4318 29.1918 48.4318 28.2871C32.8106 28.2871 17.1894 28.2871 1.50784 28.2871C1.50784 29.3124 1.44753 30.2774 1.50784 31.3028C1.50784 31.8456 1.99035 32.2678 2.59349 32.3281C2.77443 32.3281 3.01568 32.3281 3.19662 32.3281C13.5103 32.3281 23.7636 32.3281 34.0772 32.3281C34.2581 32.3281 34.4391 32.3281 34.6803 32.3281C35.1025 32.3884 35.4041 32.69 35.3438 33.0519C35.3438 33.4138 35.0422 33.7153 34.62 33.7153C33.655 33.7153 32.6297 33.7153 31.6647 33.7153C31.4837 33.7153 31.3028 33.7153 31.0615 33.7153C31.1821 34.6803 31.3028 35.585 31.4234 36.4294C31.544 37.2738 31.6647 38.1182 31.7853 38.9626C31.8456 39.3245 31.9059 39.4451 32.2678 39.4451C32.8106 39.4451 33.4138 39.4451 33.9566 39.4451C34.5597 39.4451 34.9216 39.6864 34.9216 40.1689C34.9216 40.6514 34.62 40.8926 33.9566 40.8926C29.6743 40.8926 25.392 40.8926 21.1098 40.8926C19.421 40.8926 17.7322 40.8926 15.9831 40.8926C15.7419 40.8926 15.4403 40.8323 15.2594 40.6514C15.0784 40.4705 14.9578 40.1086 15.0784 39.9276C15.199 39.6864 15.5006 39.4451 15.7419 39.4451C16.5259 39.3848 17.2497 39.4451 18.0941 39.4451C18.3353 37.5754 18.6369 35.7057 18.8782 33.7153C18.6369 33.7153 18.456 33.7153 18.2147 33.7153C13.2087 33.7153 8.26297 33.7153 3.25694 33.7153C1.3269 33.7153 0.66345 33.2931 0 31.544C0.120627 21.7732 0.120627 11.9421 0.120627 2.17129C0.180941 2.05066 0.241255 1.99035 0.241255 1.86972C0.66345 0.784077 1.56815 0.0603136 2.77443 0.0603136C4.4029 0.0603136 6.09168 0.0603136 7.72015 0.0603136C8.26297 0 8.56454 0.301568 8.56454 0.723764C8.56454 1.20627 8.26297 1.44753 7.65983 1.44753C6.09168 1.44753 4.52352 1.44753 3.01568 1.44753C1.99035 1.44753 1.56815 1.93004 1.56815 2.89505C1.56815 10.6755 1.56815 18.3957 1.56815 26.1761C1.56815 26.3571 1.56815 26.4777 1.56815 26.6586C17.2497 26.6586 32.8106 26.6586 48.4922 26.6586C48.4922 26.4777 48.4922 26.2967 48.4922 26.1158C48.4922 18.456 48.4922 10.7358 48.4922 3.076C48.4922 1.93004 48.07 1.50784 46.924 1.50784C35.0422 1.50784 23.1604 1.50784 11.2787 1.50784C11.0977 1.50784 10.9168 1.50784 10.7358 1.50784C10.3136 1.44753 10.1327 1.20627 10.0724 0.844391C10.0724 0.482509 10.2533 0.180941 10.6152 0.120627C10.8565 0 11.0374 0 11.2787 0C23.0398 0 34.801 0 46.5621 0C48.2509 0 49.3969 0.482509 50 2.17129C49.9397 11.9421 49.9397 21.7732 49.9397 31.544ZM20.4463 33.7153C20.2051 35.6454 19.9035 37.5151 19.6622 39.3848C23.2811 39.3848 26.8396 39.3848 30.3981 39.3848C30.3981 39.2039 30.3981 39.0229 30.3378 38.9023C30.0965 37.3341 29.9156 35.766 29.6743 34.2581C29.614 33.8359 29.4934 33.7756 29.1315 33.7756C26.4174 33.7756 23.6429 33.7756 20.9288 33.7756C20.8082 33.7153 20.6273 33.7153 20.4463 33.7153Z" fill="#16B9FF"/>
<path d="M29.252 5.66939C29.5536 5.79002 29.7949 5.85033 30.0361 5.97096C30.6996 6.33284 31.363 6.75504 32.0265 7.11692C32.4487 7.35817 33.1724 7.0566 33.2931 6.57409C33.474 5.85033 33.6549 5.12657 33.8359 4.4028C34.0168 3.61873 34.3787 3.37747 35.2231 3.37747C35.585 3.37747 35.8865 3.37747 36.2484 3.37747C37.0325 3.37747 37.3944 3.67904 37.5753 4.4028C37.7563 5.12657 37.9372 5.85033 38.1181 6.63441C38.2388 7.0566 39.0228 7.41849 39.3847 7.17723C40.0482 6.81535 40.7116 6.39315 41.3751 6.03127C42.0385 5.66939 42.4607 5.7297 43.0035 6.21221C43.2448 6.45347 43.4861 6.69472 43.7273 6.93598C44.2701 7.53911 44.3304 8.02162 43.9686 8.68507C43.6067 9.28821 43.1845 9.95166 42.8226 10.5548C42.521 11.0373 42.8829 11.7611 43.3654 11.8817C44.0892 12.0626 44.813 12.2436 45.5367 12.4245C46.2002 12.6055 46.5017 12.9673 46.5017 13.6911C46.5017 14.053 46.5017 14.4149 46.5017 14.8371C46.5017 15.6211 46.2002 15.983 45.4764 16.164C44.7526 16.3449 44.0289 16.5258 43.3051 16.7068C42.8226 16.8274 42.521 17.5512 42.7623 17.9734C43.1242 18.6368 43.5464 19.24 43.9083 19.9034C44.2701 20.5669 44.2701 21.0494 43.7273 21.5922C43.4861 21.8938 43.1845 22.135 42.8829 22.4366C42.4004 22.8588 41.9179 22.9191 41.3751 22.6175C40.7116 22.2556 40.0482 21.8334 39.3847 21.4112C38.9625 21.17 38.1785 21.4716 38.0578 21.9541C37.8769 22.6778 37.6959 23.4016 37.4547 24.1857C37.2738 24.9094 36.9119 25.1507 36.1278 25.1507C35.7659 25.1507 35.404 25.1507 35.0421 25.1507C34.3184 25.1507 33.8962 24.8491 33.7152 24.1254C33.5343 23.4016 33.3534 22.7381 33.1724 22.0144C33.0518 21.4716 32.2677 21.17 31.7852 21.4716C31.1218 21.8334 30.5186 22.2556 29.8552 22.6175C29.252 22.9794 28.7695 22.9191 28.287 22.4366C27.9855 22.1953 27.7442 21.8938 27.4426 21.5922C26.9601 21.1097 26.8998 20.6272 27.2617 20.024C27.6236 19.3606 28.0458 18.7574 28.4076 18.094C28.7092 17.5512 28.4076 16.8274 27.8648 16.7068C27.1411 16.5258 26.4776 16.3449 25.7538 16.164C25.0301 15.983 24.7285 15.5608 24.7285 14.8371C24.7285 14.4752 24.7285 14.1133 24.7285 13.7514C24.7285 13.0277 25.0301 12.6658 25.7538 12.4848C26.4776 12.3039 27.2014 12.1229 27.9251 11.942C28.468 11.8214 28.7695 11.0976 28.468 10.5548C28.1061 9.95166 27.7442 9.28821 27.3823 8.68507C27.0204 8.02162 27.0807 7.53911 27.6236 6.99629C27.9251 6.69472 28.1664 6.39315 28.468 6.21221C28.7092 5.91064 28.9505 5.79002 29.252 5.66939ZM36.1278 4.88531C35.2231 4.825 35.2231 4.825 35.0421 5.60908C34.9818 5.85033 34.9215 6.09159 34.8612 6.33284C34.3184 8.32319 34.4993 7.901 32.9312 8.62476C32.3883 8.86601 31.9662 8.86601 31.4836 8.50413C30.8805 8.14225 30.2774 7.78037 29.6742 7.41849C29.4933 7.29786 29.3124 7.29786 29.1314 7.4788C28.7695 7.78037 28.7092 8.02162 29.0108 8.3835C29.1917 8.62476 29.3124 8.92633 29.4933 9.16758C30.2774 10.1326 30.398 11.0976 29.7949 12.1833C29.5536 12.6658 29.252 13.0277 28.7092 13.1483C27.9251 13.3292 27.1411 13.5705 26.2967 13.7514C26.2967 14.053 26.2967 14.3546 26.2967 14.6561C26.7792 14.7767 27.2617 14.9577 27.7442 15.018C28.9505 15.1386 29.7345 15.7418 30.0361 16.948C30.1567 17.4909 30.2171 17.9131 29.9155 18.3956C29.4933 19.1193 29.0711 19.7828 28.7092 20.4462C28.9505 20.6875 29.1314 20.9287 29.3124 21.17C29.8552 20.8684 30.3377 20.6272 30.8202 20.2653C31.6646 19.6622 32.509 19.4209 33.4137 20.024C33.5343 20.0843 33.6549 20.1447 33.7756 20.1447C34.1978 20.3256 34.439 20.5669 34.5596 20.9891C34.7406 21.5922 34.8612 22.1953 35.0421 22.7985C35.2231 23.5825 35.2231 23.5825 36.0675 23.5825C36.0675 23.5825 36.1278 23.5825 36.1881 23.5222C36.3087 23.0397 36.4897 22.5572 36.55 22.0747C36.7309 20.9287 37.2134 20.1447 38.4197 19.8431C39.0228 19.6622 39.5054 19.6018 40.0482 19.9637C40.7116 20.3859 41.3751 20.7478 42.0385 21.17C42.2798 20.9287 42.521 20.7478 42.702 20.5669C42.4607 20.0843 42.2195 19.7225 41.9782 19.3003C41.0735 17.7924 41.0735 17.7924 41.737 16.164C41.9179 15.7418 42.2195 15.4402 42.702 15.3196C43.4257 15.1386 44.1495 14.9577 44.8733 14.7767C45.2352 14.7164 45.1748 14.4752 45.1748 14.2339C45.1748 13.9927 45.2352 13.7514 44.8733 13.6911C44.4511 13.6308 44.0892 13.4498 43.667 13.3895C42.521 13.2689 41.737 12.7261 41.3751 11.5198C41.1941 10.9167 41.1941 10.4945 41.4957 9.95166C41.9179 9.28821 42.3401 8.62476 42.702 7.90099C42.4607 7.65974 42.2798 7.4788 42.0385 7.23754C41.6163 7.4788 41.1338 7.65974 40.7719 7.96131C39.8069 8.74539 38.8419 8.86601 37.7563 8.20256C37.2738 7.90099 36.9722 7.65974 36.7912 7.11692C36.55 6.45347 36.369 5.66939 36.1278 4.88531Z" fill="#16B9FF"/>
<path d="M8.32327 3.49835C8.74546 3.49835 9.10734 3.49835 9.52954 3.49835C10.3739 3.55867 11.0374 4.1618 11.0977 5.00619C11.158 5.9109 11.158 6.8156 11.0977 7.72031C11.0374 8.5647 10.3739 9.16783 9.58985 9.16783C8.74546 9.22815 7.90107 9.22815 6.99637 9.16783C6.15198 9.16783 5.48853 8.44407 5.48853 7.53937C5.48853 6.75529 5.48853 5.9109 5.48853 5.12682C5.48853 4.22212 6.21229 3.55867 7.11699 3.49835C7.47888 3.49835 7.90107 3.49835 8.32327 3.49835ZM6.93605 6.33309C6.93605 6.69497 6.87574 6.99654 6.93605 7.35842C6.93605 7.47905 7.11699 7.72031 7.23762 7.72031C7.96138 7.78062 8.62483 7.78062 9.3486 7.72031C9.46923 7.72031 9.65017 7.53937 9.71048 7.35842C9.77079 6.99654 9.71048 6.69497 9.71048 6.33309C9.71048 4.94588 9.71048 4.94588 8.32327 4.94588C6.93605 4.94588 6.93605 4.94588 6.93605 6.33309Z" fill="#16B9FF"/>
<path d="M5.48854 14.2945C5.48854 13.9326 5.48854 13.5104 5.48854 13.1485C5.48854 12.1835 6.2123 11.4597 7.117 11.4597C7.90108 11.4597 8.68516 11.4597 9.46924 11.4597C10.4343 11.4597 11.0977 12.1232 11.0977 13.0882C11.158 13.8723 11.158 14.7167 11.0977 15.5007C11.0374 16.4657 10.3739 17.1292 9.40892 17.1292C8.62484 17.1292 7.90108 17.1292 7.117 17.1292C6.09167 17.1292 5.42822 16.4054 5.42822 15.3801C5.48854 15.0182 5.48854 14.6563 5.48854 14.2945ZM9.71049 14.2341C9.71049 13.9326 9.71049 13.631 9.71049 13.3294C9.71049 13.0279 9.58986 12.9072 9.28829 12.9072C8.62484 12.9072 7.9614 12.9072 7.35826 12.9072C7.05669 12.9072 6.93606 12.9676 6.93606 13.2691C6.93606 13.9326 6.93606 14.6563 6.93606 15.3198C6.93606 15.6214 7.05669 15.6817 7.29794 15.6817C7.96139 15.6817 8.62484 15.6817 9.28829 15.6817C9.58986 15.6817 9.71049 15.561 9.71049 15.2595C9.71049 14.8976 9.71049 14.596 9.71049 14.2341Z" fill="#16B9FF"/>
<path d="M8.26295 25.0304C7.84076 25.0304 7.47888 25.0304 7.05668 25.0304C6.21229 24.9701 5.48853 24.3066 5.48853 23.4623C5.48853 22.6179 5.48853 21.7735 5.48853 20.9291C5.48853 20.0847 6.15198 19.4212 6.99637 19.3609C7.90107 19.3006 8.80578 19.3006 9.65017 19.3609C10.4342 19.4212 11.0977 20.0244 11.0977 20.8085C11.158 21.7735 11.158 22.6782 11.0977 23.6432C11.0374 24.4273 10.3739 25.0304 9.58985 25.0907C9.16766 25.0304 8.74546 25.0304 8.26295 25.0304ZM9.71048 22.1354C9.71048 21.8338 9.71048 21.4719 9.71048 21.1703C9.71048 20.9291 9.58985 20.8085 9.3486 20.8085C8.68515 20.8085 7.96138 20.8085 7.29793 20.8085C7.05668 20.8085 6.93605 20.9291 6.93605 21.1703C6.93605 21.8338 6.93605 22.4972 6.93605 23.1607C6.93605 23.4623 7.05668 23.5829 7.29793 23.5829C7.96138 23.5829 8.62483 23.5829 9.28828 23.5829C9.58985 23.5829 9.71048 23.4623 9.71048 23.1607C9.71048 22.8591 9.71048 22.4972 9.71048 22.1354Z" fill="#16B9FF"/>
<path d="M18.2749 3.8604C19.5415 3.8604 20.8684 3.8604 22.135 3.8604C22.7381 3.8604 23.1 4.10165 23.1 4.58416C23.1 5.06667 22.7984 5.30792 22.135 5.30792C19.5415 5.30792 16.8877 5.30792 14.2942 5.30792C13.5704 5.30792 13.1482 4.7651 13.5101 4.28259C13.6307 4.10165 13.9926 3.92071 14.2942 3.92071C15.5608 3.8604 16.948 3.8604 18.2749 3.8604Z" fill="#16B9FF"/>
<path d="M18.2147 19.7224C19.602 19.7224 20.9892 19.7224 22.3161 19.7224C22.7383 19.7224 23.0398 19.9637 23.0398 20.3858C23.1001 20.808 22.7986 21.1096 22.3161 21.1699C22.1954 21.1699 22.0748 21.1699 21.9542 21.1699C21.1701 21.1699 20.3257 21.1699 19.5416 21.1699C17.8529 21.1699 16.1641 21.1699 14.4753 21.1699C14.2944 21.1699 14.1737 21.1699 13.9928 21.1699C13.6309 21.1096 13.3896 20.8684 13.3896 20.4462C13.3896 20.0843 13.6912 19.7224 14.1134 19.7224C14.7769 19.7224 15.38 19.7224 16.0434 19.7224C16.7672 19.7224 17.491 19.7224 18.2147 19.7224Z" fill="#16B9FF"/>
<path d="M18.2751 13.2687C16.9482 13.2687 15.6213 13.2687 14.2944 13.2687C13.7515 13.2687 13.3896 12.9671 13.3896 12.5449C13.3896 12.1227 13.7515 11.8212 14.2944 11.8212C16.9482 11.8212 19.602 11.8212 22.1954 11.8212C22.7986 11.8212 23.1001 12.0624 23.1001 12.5449C23.1001 13.0274 22.7986 13.2687 22.1954 13.2687C20.9289 13.2687 19.602 13.2687 18.2751 13.2687Z" fill="#16B9FF"/>
<path d="M15.7419 16.2847C15.2594 16.2847 14.7165 16.2847 14.234 16.2847C13.6912 16.2847 13.3896 15.9832 13.3896 15.561C13.3896 15.1388 13.6912 14.8372 14.234 14.8372C15.2594 14.8372 16.2847 14.8372 17.31 14.8372C17.8529 14.8372 18.1544 15.1388 18.1544 15.561C18.1544 15.9832 17.7925 16.2847 17.31 16.2847C16.7672 16.2847 16.2244 16.2847 15.7419 16.2847Z" fill="#16B9FF"/>
<path d="M15.7419 24.1859C15.1991 24.1859 14.7165 24.1859 14.1737 24.1859C13.6912 24.1859 13.3896 23.8844 13.3896 23.5225C13.3896 23.1003 13.6912 22.7987 14.1737 22.7384C15.1991 22.7384 16.2847 22.7384 17.31 22.7384C17.7925 22.7384 18.0941 23.1003 18.0941 23.4622C18.0941 23.8844 17.7925 24.1859 17.2497 24.1859C16.7672 24.1859 16.2244 24.1859 15.7419 24.1859Z" fill="#16B9FF"/>
<path d="M15.8022 6.87584C16.2847 6.87584 16.8275 6.87584 17.31 6.87584C17.7925 6.87584 18.0941 7.17741 18.0941 7.5996C18.0941 8.0218 17.7925 8.32337 17.31 8.32337C16.2847 8.32337 15.2594 8.32337 14.1737 8.32337C13.6912 8.32337 13.3896 8.0218 13.3896 7.5996C13.3896 7.17741 13.6912 6.87584 14.1737 6.87584C14.7165 6.87584 15.2594 6.87584 15.8022 6.87584Z" fill="#16B9FF"/>
<path d="M35.6453 18.2147C33.4136 18.2147 31.6646 16.4656 31.6646 14.234C31.6646 12.0024 33.474 10.2533 35.6453 10.2533C37.8165 10.2533 39.626 12.0627 39.626 14.234C39.626 16.4656 37.8165 18.275 35.6453 18.2147ZM33.1121 14.234C33.1121 15.6815 34.1977 16.7672 35.5849 16.7672C36.9722 16.7672 38.1181 15.6815 38.1181 14.2943C38.1181 12.9071 36.9722 11.7612 35.5849 11.7612C34.258 11.7008 33.1121 12.8468 33.1121 14.234Z" fill="#16B9FF"/>
</svg>
