<svg width="51" height="44" viewBox="0 0 51 44" fill="none" xmlns="http://www.w3.org/2000/svg">
<path fill-rule="evenodd" clip-rule="evenodd" d="M13.5993 22.4991H8.4391V27.6638H13.5993V22.4991ZM7.14905 21.208V28.9549H14.8894V21.208H7.14905Z" fill="#1A73E8"/>
<path fill-rule="evenodd" clip-rule="evenodd" d="M27.8439 22.4991H22.6836V27.6638H27.8439V22.4991ZM21.3936 21.208V28.9549H29.1339V21.208H21.3936Z" fill="#1A73E8"/>
<path fill-rule="evenodd" clip-rule="evenodd" d="M42.0074 22.4991H36.8471V27.6638H42.0074V22.4991ZM35.5571 21.208V28.9549H43.2974V21.208H35.5571Z" fill="#1A73E8"/>
<path fill-rule="evenodd" clip-rule="evenodd" d="M10.4282 13.1055H27.4138V14.3966H11.7182V21.6389H10.4282V13.1055ZM38.8095 14.3966H27.4138V13.1055H40.0995V21.6389H38.8095V14.3966Z" fill="#1A73E8"/>
<path fill-rule="evenodd" clip-rule="evenodd" d="M25.2098 6.75741C26.5755 6.75741 27.6825 5.65729 27.6825 4.30018C27.6825 2.94306 26.5755 1.84294 25.2098 1.84294C23.8442 1.84294 22.7372 2.94306 22.7372 4.30018C22.7372 5.65729 23.8442 6.75741 25.2098 6.75741ZM25.2098 8.60029C27.5997 8.60029 29.5369 6.67509 29.5369 4.30018C29.5369 1.92527 27.5997 0 25.2098 0C22.8202 0 20.8828 1.92527 20.8828 4.30018C20.8828 6.67509 22.8202 8.60029 25.2098 8.60029Z" fill="#1A73E8"/>
<path d="M24.6454 7.85254H25.9624V21.1269H24.6454V7.85254Z" fill="#1A73E8"/>
<path fill-rule="evenodd" clip-rule="evenodd" d="M6.45028 37.5441H1.29006V42.7087H6.45028V37.5441ZM0 36.2529V44.0001H7.74036V36.2529H0Z" fill="#1A73E8"/>
<path fill-rule="evenodd" clip-rule="evenodd" d="M34.8585 37.5441H29.6982V42.7087H34.8585V37.5441ZM28.4081 36.2529V44.0001H36.1485V36.2529H28.4081Z" fill="#1A73E8"/>
<path fill-rule="evenodd" clip-rule="evenodd" d="M21.0711 37.5441H15.9108V42.7087H21.0711V37.5441ZM14.6207 36.2529V44.0001H22.3611V36.2529H14.6207Z" fill="#1A73E8"/>
<path fill-rule="evenodd" clip-rule="evenodd" d="M49.4792 37.5441H44.3189V42.7087H49.4792V37.5441ZM43.0289 36.2529V44.0001H50.7692V36.2529H43.0289Z" fill="#1A73E8"/>
<path fill-rule="evenodd" clip-rule="evenodd" d="M3.65527 32.1572H17.8994V33.4484H4.94532V36.8133H3.65527V32.1572ZM17.8994 33.4484V32.1572H19.1895V36.8133H17.8994V33.4484Z" fill="#1A73E8"/>
<path fill-rule="evenodd" clip-rule="evenodd" d="M32.0635 32.1572H46.3076V33.4484H33.3535V36.8133H32.0635V32.1572ZM46.3076 33.4484V32.1572H47.5977V36.8133H46.3076V33.4484Z" fill="#1A73E8"/>
<path d="M10.5355 28.9795H11.8524V33.0927H10.5355V28.9795Z" fill="#1A73E8"/>
<path d="M38.9435 28.9795H40.2605V33.0927H38.9435V28.9795Z" fill="#1A73E8"/>
</svg>
