<svg width="47" height="44" viewBox="0 0 47 44" fill="none" xmlns="http://www.w3.org/2000/svg">
<path d="M5.58344 29.1809C5.58344 26.2823 5.58344 23.4199 5.58344 20.5213C5.58344 19.5793 5.51097 19.5068 4.56892 19.5068C3.66311 19.5068 2.72107 19.5068 1.81525 19.5068C1.0906 19.4706 0.402185 19.3619 0.112325 18.601C-0.213768 17.8039 0.221023 17.1879 0.76451 16.7169C2.10511 15.5575 3.44572 14.4705 4.82255 13.3473C5.36604 12.9125 5.58344 12.4415 5.5472 11.7893C5.51097 9.65157 5.51097 7.51385 5.5472 5.37613C5.5472 4.18046 5.7646 3.9993 6.96027 3.9993C8.26464 3.9993 9.56901 3.9993 10.8734 3.9993C11.8879 3.9993 12.1415 4.28916 12.1053 5.30367C12.1053 5.666 12.0691 6.02832 12.0691 6.35441C12.0691 6.57181 12.0328 6.86167 12.2502 6.97037C12.5038 7.1153 12.6488 6.82544 12.8299 6.68051C15.4387 4.57902 18.0112 2.47753 20.5837 0.339816C21.1272 -0.131207 21.562 -0.0949748 22.1055 0.339816C25.8736 3.45581 29.6418 6.57181 33.41 9.6878C33.6274 9.86897 34.2071 10.0501 33.8086 10.4849C33.4825 10.8472 33.0477 11.3183 32.4317 10.7748C31.3085 9.83273 30.1853 8.92692 29.0621 7.98488C26.6345 5.99209 24.2069 3.9993 21.8156 1.97028C21.417 1.64419 21.1634 1.64419 20.7649 1.97028C17.975 4.28916 15.1851 6.57181 12.3951 8.85446C12.2865 8.96315 12.1778 9.03562 12.0328 9.14432C11.7067 9.36171 11.4169 9.61534 10.9821 9.43418C10.5835 9.21678 10.5473 8.81822 10.5473 8.4559C10.5473 7.73125 10.5111 7.04283 10.5473 6.31818C10.5835 5.66599 10.3299 5.37613 9.67771 5.41237C9.09799 5.4486 8.51827 5.4486 7.90232 5.41237C7.2139 5.37613 6.9965 5.70223 6.9965 6.31818C7.03274 8.27474 6.96027 10.2313 6.9965 12.2241C6.9965 13.0212 6.74288 13.6009 6.09069 14.1082C4.75009 15.1227 3.48195 16.2459 2.17758 17.2966C1.99642 17.4416 1.63409 17.5865 1.70656 17.8401C1.81525 18.1662 2.21381 17.985 2.46744 18.0213C3.59065 18.0213 4.71385 18.0213 5.83706 18.0213C6.70664 18.0213 6.92404 18.2387 6.96027 19.1083C6.9965 19.5793 6.96027 20.0865 6.96027 20.5576C6.96027 25.8837 6.96027 31.2099 6.96027 36.5361C6.96027 37.7318 6.9965 37.7318 8.15594 37.7318C10.6198 37.7318 13.0473 37.7318 15.5111 37.7318C16.4894 37.7318 16.5619 37.6955 16.5619 36.7173C16.5619 32.4418 16.5619 28.1664 16.5619 23.8547C16.5619 22.659 16.743 22.4779 17.9025 22.4779C20.1489 22.4779 22.3953 22.4779 24.6417 22.4779C25.62 22.4779 25.8736 22.6953 25.9099 23.6736C25.9461 24.9779 25.9099 26.2823 25.9099 27.5867C25.9099 28.3475 25.3302 28.5649 24.8229 28.7823C24.3881 28.9635 24.4243 28.4925 24.4243 28.2389C24.3881 27.1519 24.4243 26.1011 24.4243 25.0142C24.4243 23.9634 24.3881 23.9272 23.3374 23.9272C21.8881 23.9272 20.4388 23.9634 18.9895 23.9272C18.2648 23.891 18.0112 24.1808 18.0112 24.9055C18.0474 29.1084 18.0112 33.3114 18.0112 37.5144C18.0112 39.0724 17.8663 39.2173 16.3083 39.2173C13.156 39.2173 10.04 39.2173 6.88781 39.2173C5.69213 39.2173 5.4385 38.9999 5.4385 37.8042C5.58344 34.9419 5.58344 32.0795 5.58344 29.1809Z" fill="#27AE60"/>
<path d="M30.149 14.4708C29.823 14.3984 29.6418 14.2172 29.4606 14.0723C27.0331 12.0433 24.5692 10.0867 22.1779 8.02146C21.5619 7.51421 21.1634 7.51421 20.5474 8.02146C16.9966 10.9925 13.4096 13.8911 9.85884 16.826C9.56898 17.0796 9.27912 17.3332 8.95303 17.5144C8.5907 17.7318 8.26461 17.6593 8.01098 17.3332C7.75735 17.0071 7.86605 16.7173 8.08345 16.4274C8.22838 16.2825 8.37331 16.1375 8.51824 16.0288C12.3951 12.8404 16.272 9.61569 20.1126 6.42723C21.2721 5.48519 21.3445 5.48519 22.504 6.42723C25.1127 8.60118 27.7215 10.7389 30.3302 12.9129C30.5476 13.094 30.9099 13.2752 30.6925 13.6375C30.5838 13.9636 30.4389 14.3259 30.149 14.4708Z" fill="#27AE60"/>
<path fill-rule="evenodd" clip-rule="evenodd" d="M46.309 32.7322C46.309 31.3554 45.9466 30.9568 44.6423 30.993C43.8089 31.0293 43.2292 30.8119 42.6857 30.1234C41.9446 29.1971 40.8614 28.7707 39.7949 28.3509H39.7947C39.6099 28.2781 39.4256 28.2056 39.2436 28.1307C38.7364 27.9133 38.3016 27.6596 38.1204 27.1162C37.9393 26.6089 37.9393 26.2828 38.4827 25.9205C40.6929 24.4712 41.9973 22.4784 41.7799 19.6885C41.7074 18.7102 41.9973 17.8044 42.3234 16.8261C42.9756 15.0145 42.5046 13.0217 40.2944 11.8985C38.789 11.1458 37.1907 10.7092 35.5794 10.269C34.9412 10.0947 34.3011 9.91982 33.6638 9.72453C33.4464 9.65207 33.229 9.58866 33.0116 9.52525C32.7942 9.46185 32.5768 9.39844 32.3594 9.32597C31.671 9.10858 31.1275 9.07235 31.2362 10.0869C31.2981 10.6433 30.8852 10.8305 30.4925 11.0085C30.425 11.0391 30.358 11.0695 30.2942 11.1014C28.3739 12.1521 27.2869 13.7464 27.142 15.9565C27.142 16.2102 27.142 16.6812 27.2507 16.7174C28.323 17.0238 28.1777 17.7447 28.0415 18.4201C28.0166 18.5434 27.9921 18.6652 27.9753 18.7827C27.5768 21.6813 28.9174 23.7828 31.0188 25.5582C32.0334 26.3915 31.8884 27.5147 30.6203 28.022C30.2569 28.1761 29.8867 28.3169 29.5171 28.4576H29.517C28.6704 28.7796 27.8261 29.1008 27.0695 29.58C26.8166 29.7392 26.5831 29.9226 26.3514 30.1046C25.6869 30.6266 25.0375 31.1367 23.9897 31.0293C23.3013 30.9568 23.1202 31.7539 23.1202 32.4061C23.1202 32.7795 23.118 33.5544 23.1152 34.5338C23.1067 37.5453 23.0928 42.4898 23.1202 43.6382V44.0005H31.2H33.374H35.6928H36.5262H46.2365V43.8193C46.3452 42.37 46.3452 34.2177 46.309 32.7322ZM28.7724 19.4711C28.7724 19.33 28.7877 19.1736 28.8083 18.9624C28.8195 18.8482 28.8322 18.7179 28.8449 18.5653C28.8087 17.6957 28.8087 16.5725 29.642 15.6667C29.8956 15.3768 30.0768 15.1957 30.4754 15.3406C33.0922 16.2129 35.8434 16.2116 38.5673 16.2103L38.8813 16.2102C40.5842 16.2102 41.0915 16.7899 41.1277 18.4928C41.1639 20.4856 41.1639 22.4422 39.606 24.0364C37.6856 26.0292 35.2218 26.7901 32.9754 25.8118C30.3304 24.761 28.5913 22.1161 28.7724 19.4711ZM37.3233 28.5654C36.5624 29.1814 35.6928 29.3988 34.787 29.4713C34.7204 29.4629 34.6528 29.4551 34.5846 29.4472L34.5841 29.4471C34.059 29.3861 33.4967 29.3208 33.0479 29.0002C32.9416 28.9294 32.8094 28.8759 32.6756 28.8217C32.2617 28.6541 31.832 28.4802 32.1058 27.7683C32.3957 27.0075 32.7218 26.5002 33.7363 26.8625C34.5696 27.1524 35.5479 27.0437 36.4537 26.7901C36.7798 26.6814 37.2508 26.5364 37.3595 27.1162C37.3799 27.2487 37.4376 27.3784 37.4955 27.5084C37.6432 27.8405 37.792 28.1749 37.3233 28.5654ZM26.7434 30.8843C27.7728 29.9121 28.9602 29.4815 30.1275 29.0582C30.4393 28.9451 30.7496 28.8326 31.0551 28.7104C31.273 28.6287 31.4295 28.7927 31.5707 28.9407C31.6173 28.9896 31.6623 29.0367 31.7073 29.0727C33.6638 30.5582 36.0552 30.5945 37.903 29.0002C38.3016 28.6741 38.5914 28.6379 38.99 28.8191C39.2297 28.9351 39.4744 29.0412 39.7198 29.1476H39.7199C40.6243 29.5397 41.5385 29.9361 42.2509 30.8481C37.0699 30.8843 31.9977 30.8843 26.7442 30.8843H26.7434ZM32.5406 19.8334C32.3957 20.2682 32.1783 20.5581 31.6348 20.5581C31.1275 20.5219 30.8739 20.232 30.9101 19.7247C30.9464 19.2175 31.2362 18.9276 31.7435 18.9639C32.2145 19.0001 32.4681 19.3624 32.5406 19.8334ZM34.5677 23.8088C34.421 23.8117 34.2709 23.8146 34.1349 23.7466C34.0447 23.7056 33.9342 23.6702 33.8189 23.6332C33.424 23.5067 32.972 23.3619 33.0841 22.9132C33.2405 22.418 33.5469 22.6166 33.8415 22.8075C33.9564 22.8819 34.0694 22.9552 34.1711 22.9857C34.7508 23.1669 35.2943 23.0944 35.8016 22.8045C36.0552 22.6596 36.3088 22.5147 36.49 22.8045C36.669 23.0731 36.4548 23.2188 36.2725 23.3428C36.2334 23.3694 36.1958 23.3949 36.1639 23.4205C35.8016 23.7466 35.3305 23.8553 34.8233 23.819C34.7419 23.8055 34.6554 23.8071 34.5677 23.8088ZM38.1204 20.5581C38.6639 20.5219 38.8089 20.1958 38.8451 19.761C38.7726 19.2175 38.4828 18.9276 38.0117 18.9639C37.5407 19.0001 37.2509 19.3262 37.2871 19.7972C37.3233 20.2682 37.5769 20.5943 38.1204 20.5581ZM36.4175 37.8048C36.4175 38.7253 35.6713 39.4715 34.7508 39.4715C33.8303 39.4715 33.0841 38.7253 33.0841 37.8048C33.0841 36.8843 33.8303 36.1381 34.7508 36.1381C35.6713 36.1381 36.4175 36.8843 36.4175 37.8048Z" fill="#27AE60"/>
</svg>
