<svg width="45" height="45" viewBox="0 0 45 45" fill="none" xmlns="http://www.w3.org/2000/svg">
<path d="M28.6308 2.92767L29.437 2.33591L28.6308 2.92768L30.119 4.95491L30.9251 4.36315L30.119 4.95492C30.7827 5.85891 31.8105 6.42506 32.9293 6.50279L35.438 6.67711C36.2858 6.73602 36.9791 7.37561 37.106 8.21585L37.4816 10.7025V10.7026C37.6492 11.8113 38.2961 12.7903 39.2506 13.3791L41.391 14.6993C42.1143 15.1454 42.431 16.034 42.1529 16.8371L41.3299 19.2133V19.2134C40.9629 20.2731 41.0809 21.4406 41.6524 22.4054L42.5128 21.8958L41.6524 22.4054L42.9341 24.5691C43.3672 25.3003 43.2347 26.2342 42.6152 26.8161L40.7822 28.5376L40.7821 28.5377C39.9648 29.3055 39.5266 30.394 39.5843 31.514L39.7137 34.0255C39.7574 34.8742 39.206 35.6396 38.3871 35.8669L35.964 36.5394L36.2314 37.503L35.964 36.5394C34.8834 36.8394 33.9895 37.5996 33.5201 38.6181L32.4675 40.9021C32.1118 41.6739 31.2679 42.0953 30.4372 41.916L30.2262 42.8935L30.4372 41.916L27.979 41.3855L27.768 42.363L27.979 41.3855C26.8827 41.1489 25.738 41.4068 24.8491 42.0904L22.8557 43.6236C22.1819 44.1417 21.2389 44.1227 20.5868 43.5779L19.9457 44.3454L20.5868 43.5779L18.6567 41.9657C17.796 41.2468 16.6625 40.943 15.5576 41.1353L13.0801 41.5664H13.08C12.2428 41.7122 11.4166 41.2571 11.0922 40.4716L10.1679 40.8532L11.0922 40.4715L10.1324 38.1471L9.20813 38.5288L10.1324 38.1471C9.7044 37.1106 8.84198 36.3149 7.77433 35.9717L5.38016 35.202H5.38012C4.57109 34.9419 4.05101 34.1551 4.12886 33.3088L4.35924 30.8045L3.36344 30.7129L4.35924 30.8045C4.46197 29.6878 4.06804 28.5824 3.2822 27.7824L1.51995 25.9883L1.51992 25.9882C0.924425 25.382 0.829587 24.4435 1.29181 23.7304L2.65959 21.6201C3.26953 20.679 3.43439 19.5172 3.11037 18.4436L2.38373 16.036C2.13819 15.2225 2.49032 14.3474 3.23106 13.9307L5.42286 12.6978C6.40028 12.1479 7.08618 11.1958 7.29819 10.0946L7.77364 7.62511C7.93431 6.79058 8.65279 6.17945 9.50224 6.15473L12.016 6.08158L11.987 5.082L12.0161 6.08158C13.137 6.04895 14.1868 5.52465 14.8863 4.64816L14.8864 4.6481L16.4549 2.68244C16.985 2.01817 17.9052 1.81095 18.6688 2.18382L19.1071 1.28613L18.6688 2.18383L20.9287 3.28725C21.9364 3.7793 23.1096 3.80294 24.1363 3.35185L26.4387 2.34032C27.2168 1.99848 28.128 2.24263 28.6308 2.92767Z" stroke="#FF50A3" stroke-width="2"/>
<path fill-rule="evenodd" clip-rule="evenodd" d="M36.7413 22.8634C36.7413 31.0808 30.08 37.7424 21.8628 37.7424C13.6455 37.7424 6.98413 31.0808 6.98413 22.8634C6.98413 14.646 13.6455 7.98438 21.8628 7.98438C30.08 7.98438 36.7413 14.646 36.7413 22.8634ZM21.8628 35.9964C29.1157 35.9964 34.9953 30.1165 34.9953 22.8634C34.9953 15.6102 29.1157 9.7304 21.8628 9.7304C14.6099 9.7304 8.73016 15.6102 8.73016 22.8634C8.73016 30.1165 14.6099 35.9964 21.8628 35.9964Z" fill="#FF50A3"/>
<path fill-rule="evenodd" clip-rule="evenodd" d="M30.0901 18.3167C29.257 19.0496 20.2931 30.1 20.2931 30.1C20.2931 30.1 14.8977 23.9255 14.1447 22.7734C13.3916 21.6213 15.2272 20.41 16.3096 21.2767C17.3922 22.1434 20.2931 24.8513 20.2931 24.8513C20.2931 24.8513 27.2608 17.4115 27.898 16.8509C28.5351 16.2903 30.9232 17.5838 30.0901 18.3167Z" fill="#FF50A3"/>
</svg>
