<svg width="44" height="35" viewBox="0 0 44 35" fill="none" xmlns="http://www.w3.org/2000/svg">
<path d="M5.64658 32.889C4.1894 32.889 2.73222 32.889 1.36611 32.889C0.455369 32.889 0 32.5247 0 31.5229C0 30.2478 0 28.9728 0 27.6978C0 26.787 0.364295 26.3317 1.36611 26.3317C2.73222 26.3317 4.1894 26.3317 5.5555 26.3317C6.01087 24.328 6.01087 24.328 8.0145 24.328C10.4735 24.328 13.0236 24.328 15.4826 24.328C16.5754 24.328 17.0308 24.7834 16.9397 25.7852C16.9397 26.6049 16.9397 27.3335 16.9397 28.1531C17.1219 28.2442 17.304 28.3353 17.3951 28.3353C22.6774 28.3353 28.0507 28.3353 33.333 28.3353C35.792 28.3353 37.7956 26.4227 38.1599 24.0548C38.5242 21.4137 37.0671 19.1368 34.6081 18.4993C33.8795 18.3172 33.1509 18.3172 32.4223 18.3172C25.6828 18.3172 18.8523 18.3172 12.1128 18.3172C11.2021 18.3172 10.2003 18.2261 9.28953 17.9529C5.82873 17.0421 3.8251 13.7635 4.28047 10.2116C4.73584 6.84187 7.6502 4.20073 11.111 4.20073C15.9379 4.10965 20.6738 4.20073 25.5007 4.20073C25.956 4.20073 26.4114 4.20073 27.0489 4.20073C27.0489 3.19892 27.0489 2.28818 27.0489 1.46851C27.0489 0.375627 27.4132 -0.0797418 28.5061 0.0113321C31.1473 0.0113321 33.7884 0.0113321 36.3385 0.0113321C38.0689 0.0113321 38.1599 0.102406 38.3421 1.92388C39.7082 1.92388 41.0743 1.92388 42.5315 1.92388C43.6244 1.92388 44.0797 2.37925 43.9887 3.38106C43.9887 4.6561 43.9887 5.84006 43.9887 7.11509C43.9887 8.02583 43.6244 8.4812 42.6226 8.4812C41.2565 8.4812 39.7993 8.4812 38.4332 8.4812C37.9778 10.3938 37.9778 10.3938 35.9742 10.3938C33.5152 10.3938 31.0562 10.3938 28.5972 10.3938C27.4132 10.3938 26.9579 9.93838 26.9579 8.75442C27.0489 7.93476 26.9579 7.11509 26.9579 6.3865C26.7757 6.29543 26.6846 6.20435 26.6846 6.20435C21.4934 6.20435 16.3022 6.11328 11.111 6.20435C8.65202 6.20435 6.64839 8.02583 6.2841 10.3938C5.9198 12.9438 7.28591 15.2207 9.65383 15.9493C10.4735 16.2225 11.2932 16.2225 12.1128 16.2225C19.1255 16.2225 26.0471 16.2225 33.0598 16.2225C37.2492 16.2225 40.2546 19.2279 40.3457 23.1441C40.3457 26.9692 37.3403 30.2478 33.5152 30.2478C28.5972 30.3389 23.6792 30.2478 18.7612 30.2478C18.3058 30.2478 17.7594 30.2478 17.0308 30.2478C17.0308 31.2497 17.0308 32.2515 17.0308 33.2533C17.0308 34.3462 16.5754 34.8015 15.5736 34.7105C12.9325 34.7105 10.2913 34.7105 7.74128 34.7105C5.9198 34.8926 5.82873 34.8015 5.64658 32.889ZM29.0526 2.01496C29.0526 4.20073 29.0526 6.29543 29.0526 8.39013C31.4205 8.39013 33.7884 8.39013 36.1563 8.39013C36.1563 6.20435 36.1563 4.10965 36.1563 2.01496C33.7884 2.01496 31.4205 2.01496 29.0526 2.01496ZM7.83235 26.4227C7.83235 28.6085 7.83235 30.7032 7.83235 32.7979C10.2913 32.7979 12.5682 32.7979 14.9361 32.7979C14.9361 30.6121 14.9361 28.5174 14.9361 26.4227C12.4771 26.4227 10.2003 26.4227 7.83235 26.4227ZM41.8029 6.47757C41.8029 5.65791 41.8029 4.83825 41.8029 4.01858C40.5279 4.01858 39.435 4.01858 38.251 4.01858C38.251 4.92932 38.251 5.65791 38.251 6.47757C39.5261 6.47757 40.6189 6.47757 41.8029 6.47757ZM2.00362 30.7943C3.27866 30.7943 4.46262 30.7943 5.64658 30.7943C5.64658 29.9746 5.64658 29.155 5.64658 28.4264C4.37154 28.4264 3.18758 28.4264 2.00362 28.4264C2.00362 29.246 2.00362 29.9746 2.00362 30.7943Z" fill="#FDB703"/>
</svg>
