<svg width="455" height="281" viewBox="0 0 455 281" fill="none" xmlns="http://www.w3.org/2000/svg">
<g clip-path="url(#clip0_1731_1817)">
<g filter="url(#filter0_d_1731_1817)">
<path d="M0 22H27V281H4.16C1.8625 281 0 279.138 0 276.84V22Z" fill="#1A2334"/>
<path fill-rule="evenodd" clip-rule="evenodd" d="M11.9742 34.8032L8.92065 39.0324H11.8449L13.4198 36.8777L11.9742 34.8032ZM14.5093 35.3871L12.8386 33.6059L15.6882 29.6592H18.6959L14.5093 35.3871Z" fill="#1A73E8"/>
<path d="M7 26.5645L15.6891 39.0342H18.6969L7 26.5645Z" fill="#1A73E8"/>
<rect x="0.00170898" y="46.4717" width="27" height="21.8569" fill="#29354A"/>
<rect opacity="0.3" x="9.5647" y="53.3018" width="8.19634" height="8.19634" rx="4.09817" fill="white"/>
<rect opacity="0.15" x="9.00024" y="75.1592" width="8.19634" height="8.19634" rx="4.09817" fill="white"/>
<rect opacity="0.15" x="9.00024" y="97.0137" width="8.19634" height="8.19634" rx="4.09817" fill="white"/>
<rect opacity="0.15" x="9.00024" y="118.873" width="8.19634" height="8.19634" rx="4.09817" fill="white"/>
<rect opacity="0.15" x="9.00024" y="140.729" width="8.19634" height="8.19634" rx="4.09817" fill="white"/>
<rect opacity="0.15" x="9.00024" y="162.587" width="8.19634" height="8.19634" rx="4.09817" fill="white"/>
<rect opacity="0.15" x="9.00024" y="184.442" width="8.19634" height="8.19634" rx="4.09817" fill="white"/>
<rect opacity="0.15" x="9.00024" y="206.3" width="8.19634" height="8.19634" rx="4.09817" fill="white"/>
<path d="M27 22H455V276.84C455 279.138 453.138 281 450.84 281H27V22Z" fill="white"/>
<rect x="27" y="22" width="428" height="12" fill="#F6F6F6"/>
<rect x="424" y="25" width="6" height="6" rx="2" fill="#CCCCCC"/>
<rect x="434" y="25" width="6" height="6" rx="2" fill="#CCCCCC"/>
<rect x="41" y="45" width="58" height="13" rx="6.5" fill="#DDEBFF"/>
<rect opacity="0.5" x="48" y="50" width="44" height="3" rx="1.5" fill="#629FF0"/>
<rect x="107" y="45" width="77" height="13" rx="6.5" fill="#DDEBFF"/>
<rect opacity="0.5" x="114" y="50" width="64" height="3" rx="1.5" fill="#629FF0"/>
<rect x="44.5216" y="69.5218" width="186.956" height="12.9563" rx="2.47817" fill="white" stroke="#D4E7FF" stroke-width="1.04367"/>
<circle cx="225" cy="76" r="3" fill="#D4E7FF"/>
<rect opacity="0.3" x="50.9998" y="75" width="35" height="3" rx="1.5" fill="#629FF0"/>
<rect x="400.157" y="68.1572" width="40.6856" height="12.6856" rx="6.34282" fill="#E2ECFF" stroke="#C0DAFC" stroke-width="0.314353"/>
<rect opacity="0.5" x="410" y="73" width="21.1294" height="3" rx="1.5" fill="#629FF0"/>
<rect x="291" y="239" width="42" height="15" rx="2" fill="#1A73E8"/>
<rect x="300" y="245" width="24" height="3" rx="1.5" fill="white" fill-opacity="0.5"/>
<rect x="244" y="239" width="42" height="15" rx="2" fill="#DDEBFF"/>
<rect opacity="0.5" x="253" y="245" width="24" height="3" rx="1.5" fill="#629FF0"/>
<rect opacity="0.5" x="244.05" y="94" width="44.3732" height="3" rx="1.5" fill="#629FF0"/>
<rect x="244.522" y="101.522" width="195.956" height="13.9563" rx="2.47817" fill="white" stroke="#D4E7FF" stroke-width="1.04367"/>
<rect opacity="0.3" x="248" y="107" width="100" height="3" rx="1.5" fill="#629FF0"/>
<rect opacity="0.5" x="244.05" y="205" width="44.3732" height="3" rx="1.5" fill="#629FF0"/>
<rect x="244.522" y="212.522" width="195.956" height="13.9563" rx="2.47817" fill="white" stroke="#D4E7FF" stroke-width="1.04367"/>
<rect opacity="0.3" x="248" y="218" width="100" height="3" rx="1.5" fill="#629FF0"/>
<rect opacity="0.5" x="244.05" y="128" width="44.3732" height="3" rx="1.5" fill="#629FF0"/>
<rect x="244.522" y="135.522" width="195.956" height="55.9563" rx="2.47817" fill="white" stroke="#D4E7FF" stroke-width="1.04367"/>
<rect opacity="0.2" x="248" y="141" width="148" height="3" rx="1.5" fill="#629FF0"/>
<rect opacity="0.2" x="248" y="155" width="148" height="3" rx="1.5" fill="#629FF0"/>
<rect opacity="0.2" x="248" y="169" width="148" height="3" rx="1.5" fill="#629FF0"/>
<rect opacity="0.2" x="248" y="148" width="100" height="3" rx="1.5" fill="#629FF0"/>
<rect opacity="0.2" x="248" y="162" width="100" height="3" rx="1.5" fill="#629FF0"/>
<rect opacity="0.2" x="248" y="176" width="100" height="3" rx="1.5" fill="#629FF0"/>
<rect x="399" y="45" width="42" height="15" rx="2" fill="#1A73E8"/>
<rect x="408" y="51" width="24" height="3" rx="1.5" fill="white" fill-opacity="0.5"/>
<rect x="352" y="45" width="42" height="15" rx="2" fill="#DDEBFF"/>
<rect opacity="0.5" x="361" y="51" width="24" height="3" rx="1.5" fill="#629FF0"/>
<rect x="44.0002" y="89" width="188" height="18" fill="#D4E7FF"/>
<rect x="51.0002" y="96.1035" width="123" height="4" rx="2" fill="white" fill-opacity="0.5"/>
<g opacity="0.4">
<ellipse cx="225.314" cy="95.5509" rx="0.636956" ry="0.636835" fill="black"/>
<ellipse cx="225.314" cy="98.0978" rx="0.636956" ry="0.636835" fill="black"/>
<ellipse cx="225.314" cy="100.646" rx="0.636956" ry="0.636835" fill="black"/>
</g>
<line x1="44.1572" y1="108" x2="44.1572" y2="195" stroke="#78B2FF" stroke-width="0.314353" stroke-dasharray="1.26 1.26"/>
<line x1="54.1572" y1="157" x2="54.1572" y2="219" stroke="#94D3A6" stroke-width="0.314353" stroke-dasharray="1.26 1.26"/>
<line x1="64.1572" y1="229" x2="64.1572" y2="245" stroke="#FF9292" stroke-width="0.314353" stroke-dasharray="1.26 1.26"/>
<rect x="54" y="113" width="178" height="18" fill="#DAF5E2"/>
<rect opacity="0.4" x="61" y="120" width="80" height="4" rx="2" fill="#8BCD9E"/>
<g opacity="0.4">
<ellipse cx="225.314" cy="119.494" rx="0.636956" ry="0.636835" fill="black"/>
<ellipse cx="225.314" cy="122.041" rx="0.636956" ry="0.636835" fill="black"/>
<ellipse cx="225.314" cy="124.589" rx="0.636956" ry="0.636835" fill="black"/>
</g>
<line x1="45" y1="121.843" x2="50" y2="121.843" stroke="#78B2FF" stroke-width="0.314353" stroke-dasharray="1.26 0.63"/>
<circle cx="54" cy="122" r="3.31435" fill="#94D3A6" stroke="white" stroke-width="0.628705"/>
<circle cx="44.458" cy="98" r="3.31435" fill="#78B2FF" stroke="white" stroke-width="0.628705"/>
<rect x="54" y="138" width="178" height="18" fill="#DAF5E2"/>
<rect opacity="0.4" x="61" y="145" width="80" height="4" rx="2" fill="#8BCD9E"/>
<g opacity="0.4">
<ellipse cx="225.314" cy="144.494" rx="0.636956" ry="0.636835" fill="black"/>
<ellipse cx="225.314" cy="147.041" rx="0.636956" ry="0.636835" fill="black"/>
<ellipse cx="225.314" cy="149.589" rx="0.636956" ry="0.636835" fill="black"/>
</g>
<line x1="45" y1="146.843" x2="50" y2="146.843" stroke="#78B2FF" stroke-width="0.314353" stroke-dasharray="1.26 0.63"/>
<rect x="64" y="162" width="168" height="18" fill="#FFE4E4"/>
<circle cx="64" cy="171" r="3.31435" fill="#FF9292" stroke="white" stroke-width="0.628705"/>
<rect opacity="0.3" x="71" y="169" width="105" height="5" rx="2.5" fill="#FFB8B8"/>
<rect x="209.5" y="160.5" width="20" height="21" rx="10" fill="white" stroke="#FFB8B8"/>
<ellipse cx="219.255" cy="166.954" rx="0.93032" ry="0.930143" fill="#222222"/>
<ellipse cx="219.255" cy="170.673" rx="0.93032" ry="0.930143" fill="#222222"/>
<ellipse cx="219.255" cy="174.394" rx="0.93032" ry="0.930143" fill="#222222"/>
<line x1="54" y1="170.843" x2="60" y2="170.843" stroke="#94D3A6" stroke-width="0.314353" stroke-dasharray="1.26 0.63"/>
<line x1="64" y1="244.843" x2="70" y2="244.843" stroke="#FF9292" stroke-width="0.314353" stroke-dasharray="1.26 0.63"/>
<g opacity="0.2">
<ellipse cx="225.314" cy="191.769" rx="0.636956" ry="0.636835" fill="black"/>
<ellipse cx="225.314" cy="194.316" rx="0.636956" ry="0.636835" fill="black"/>
<ellipse cx="225.314" cy="196.863" rx="0.636956" ry="0.636835" fill="black"/>
</g>
<circle cx="54" cy="147" r="3.31435" fill="#94D3A6" stroke="white" stroke-width="0.628705"/>
<rect x="54" y="186" width="178" height="18" fill="#DAF5E2"/>
<rect opacity="0.4" x="61" y="193" width="80" height="4" rx="2" fill="#8BCD9E"/>
<g opacity="0.2">
<ellipse cx="225.314" cy="192.494" rx="0.636956" ry="0.636835" fill="black"/>
<ellipse cx="225.314" cy="195.041" rx="0.636956" ry="0.636835" fill="black"/>
<ellipse cx="225.314" cy="197.589" rx="0.636956" ry="0.636835" fill="black"/>
</g>
<g opacity="0.2">
<ellipse cx="225.314" cy="217.118" rx="0.636956" ry="0.636835" fill="black"/>
<ellipse cx="225.314" cy="219.665" rx="0.636956" ry="0.636835" fill="black"/>
<ellipse cx="225.314" cy="222.213" rx="0.636956" ry="0.636835" fill="black"/>
</g>
<line x1="45" y1="194.843" x2="50" y2="194.843" stroke="#78B2FF" stroke-width="0.314353" stroke-dasharray="1.26 0.63"/>
<rect x="64" y="210" width="168" height="18" fill="#FFE4E4"/>
<circle cx="64" cy="219" r="3.31435" fill="#FF9292" stroke="white" stroke-width="0.628705"/>
<rect opacity="0.3" x="71" y="217" width="105" height="5" rx="2.5" fill="#FFB8B8"/>
<g opacity="0.2">
<ellipse cx="225.314" cy="216.185" rx="0.636956" ry="0.636835" fill="black"/>
<ellipse cx="225.314" cy="218.732" rx="0.636956" ry="0.636835" fill="black"/>
<ellipse cx="225.314" cy="221.279" rx="0.636956" ry="0.636835" fill="black"/>
</g>
<line x1="54" y1="218.843" x2="60" y2="218.843" stroke="#94D3A6" stroke-width="0.314353" stroke-dasharray="1.26 0.63"/>
<rect x="74" y="235" width="158" height="19" fill="#FFF4D7"/>
<rect opacity="0.3" x="81" y="242" width="102" height="5" rx="2.5" fill="#FFCC49"/>
<g opacity="0.4">
<ellipse cx="225.733" cy="242.185" rx="0.636956" ry="0.636835" fill="black"/>
<ellipse cx="225.733" cy="244.732" rx="0.636956" ry="0.636835" fill="black"/>
<ellipse cx="225.733" cy="247.279" rx="0.636956" ry="0.636835" fill="black"/>
</g>
<circle cx="74" cy="245" r="3.31435" fill="#FFCC49" stroke="white" stroke-width="0.628705"/>
<circle cx="54" cy="195" r="3.31435" fill="#94D3A6" stroke="white" stroke-width="0.628705"/>
<rect x="244.157" y="69.1572" width="40.6856" height="12.6856" rx="6.34282" fill="#E2ECFF" stroke="#C0DAFC" stroke-width="0.314353"/>
<rect opacity="0.5" x="254" y="74" width="21.1294" height="3" rx="1.5" fill="#629FF0"/>
<rect x="289.157" y="69.1572" width="40.6856" height="12.6856" rx="6.34282" fill="white" stroke="#C0DAFC" stroke-width="0.314353"/>
<rect opacity="0.5" x="299" y="74" width="21.1294" height="3" rx="1.5" fill="#629FF0"/>
<g filter="url(#filter1_d_1731_1817)">
<rect x="163" y="183" width="70" height="31" rx="6" fill="white"/>
</g>
<circle cx="173.5" cy="192.5" r="3.5" fill="#4BCB9B"/>
<circle cx="173.5" cy="204.5" r="3.5" fill="#FF7963"/>
<rect opacity="0.5" x="181.05" y="191" width="44.3732" height="3" rx="1.5" fill="#629FF0"/>
<rect opacity="0.5" x="181.05" y="203" width="44.3732" height="3" rx="1.5" fill="#629FF0"/>
<g filter="url(#filter2_d_1731_1817)">
<rect x="330" y="134" width="114" height="129" rx="6" fill="white"/>
</g>
<path d="M345 145.5C345 147.437 343.437 149 341.5 149C339.563 149 338 147.437 338 145.5C338 143.562 339.563 142 341.5 142C343.437 142 345 143.562 345 145.5Z" fill="#B1D0F8"/>
<rect x="338" y="151" width="75" height="18" rx="2" fill="#EEF6FF"/>
<rect opacity="0.2" x="342" y="155" width="67" height="2" rx="1" fill="#629FF0"/>
<rect opacity="0.2" x="342" y="159" width="62.6774" height="2" rx="1" fill="#629FF0"/>
<rect opacity="0.2" x="342" y="163" width="42.1452" height="2" rx="1" fill="#629FF0"/>
<path d="M436 177.5C436 179.437 434.437 181 432.5 181C430.563 181 429 179.437 429 177.5C429 175.562 430.563 174 432.5 174C434.437 174 436 175.562 436 177.5Z" fill="#FFB8B8"/>
<rect x="361" y="183" width="75" height="18" rx="2" fill="#FFF0F0"/>
<rect opacity="0.2" x="365" y="187" width="67" height="2" rx="1" fill="#EBA2A2"/>
<rect opacity="0.2" x="365" y="191" width="62.6774" height="2" rx="1" fill="#EBA2A2"/>
<rect opacity="0.2" x="365" y="195" width="42.1452" height="2" rx="1" fill="#EBA2A2"/>
<path d="M345 209.5C345 211.437 343.437 213 341.5 213C339.563 213 338 211.437 338 209.5C338 207.562 339.563 206 341.5 206C343.437 206 345 207.562 345 209.5Z" fill="#B1D0F8"/>
<rect x="338" y="215" width="75" height="18" rx="2" fill="#EEF6FF"/>
<rect opacity="0.2" x="342" y="219" width="67" height="2" rx="1" fill="#629FF0"/>
<rect opacity="0.2" x="342" y="223" width="62.6774" height="2" rx="1" fill="#629FF0"/>
<rect opacity="0.2" x="342" y="227" width="42.1452" height="2" rx="1" fill="#629FF0"/>
<rect x="338" y="243" width="86" height="11" rx="5.5" fill="#EAF3FF"/>
<rect x="426" y="243" width="10" height="10" rx="5" fill="#1A73E8"/>
<rect opacity="0.3" x="345" y="247" width="31" height="3" rx="1.5" fill="#629FF0"/>
<path d="M455 22V4.21456C455 1.85441 453.169 0 450.839 0H4.16057C1.83065 0 0 1.85441 0 4.21456V22H455Z" fill="#DDEBFF"/>
<path d="M413.566 10.8114C413.566 13.3894 411.487 15.4685 408.909 15.4685C406.331 15.4685 404.252 13.3894 404.252 10.8114C404.252 8.23335 406.331 6.1543 408.909 6.1543C411.487 6.1543 413.566 8.23335 413.566 10.8114Z" fill="#70B44A"/>
<path d="M429.367 10.8114C429.367 13.3894 427.288 15.4685 424.71 15.4685C422.132 15.4685 420.053 13.3894 420.053 10.8114C420.053 8.23335 422.132 6.1543 424.71 6.1543C427.288 6.1543 429.367 8.23335 429.367 10.8114Z" fill="#DDAB54"/>
<path d="M445.25 10.8114C445.25 13.3894 443.171 15.4685 440.593 15.4685C438.015 15.4685 435.936 13.3894 435.936 10.8114C435.936 8.23335 438.015 6.1543 440.593 6.1543C443.171 6.1543 445.25 8.23335 445.25 10.8114Z" fill="#D6655D"/>
</g>
</g>
<defs>
<filter id="filter0_d_1731_1817" x="-120" y="-115.615" width="695" height="521" filterUnits="userSpaceOnUse" color-interpolation-filters="sRGB">
<feFlood flood-opacity="0" result="BackgroundImageFix"/>
<feColorMatrix in="SourceAlpha" type="matrix" values="0 0 0 0 0 0 0 0 0 0 0 0 0 0 0 0 0 0 127 0" result="hardAlpha"/>
<feOffset dy="4.38455"/>
<feGaussianBlur stdDeviation="60"/>
<feComposite in2="hardAlpha" operator="out"/>
<feColorMatrix type="matrix" values="0 0 0 0 0 0 0 0 0 0 0 0 0 0 0 0 0 0 0.15 0"/>
<feBlend mode="normal" in2="BackgroundImageFix" result="effect1_dropShadow_1731_1817"/>
<feBlend mode="normal" in="SourceGraphic" in2="effect1_dropShadow_1731_1817" result="shape"/>
</filter>
<filter id="filter1_d_1731_1817" x="143" y="167.385" width="110" height="71" filterUnits="userSpaceOnUse" color-interpolation-filters="sRGB">
<feFlood flood-opacity="0" result="BackgroundImageFix"/>
<feColorMatrix in="SourceAlpha" type="matrix" values="0 0 0 0 0 0 0 0 0 0 0 0 0 0 0 0 0 0 127 0" result="hardAlpha"/>
<feOffset dy="4.38455"/>
<feGaussianBlur stdDeviation="10"/>
<feComposite in2="hardAlpha" operator="out"/>
<feColorMatrix type="matrix" values="0 0 0 0 0 0 0 0 0 0 0 0 0 0 0 0 0 0 0.15 0"/>
<feBlend mode="normal" in2="BackgroundImageFix" result="effect1_dropShadow_1731_1817"/>
<feBlend mode="normal" in="SourceGraphic" in2="effect1_dropShadow_1731_1817" result="shape"/>
</filter>
<filter id="filter2_d_1731_1817" x="310" y="118.385" width="154" height="169" filterUnits="userSpaceOnUse" color-interpolation-filters="sRGB">
<feFlood flood-opacity="0" result="BackgroundImageFix"/>
<feColorMatrix in="SourceAlpha" type="matrix" values="0 0 0 0 0 0 0 0 0 0 0 0 0 0 0 0 0 0 127 0" result="hardAlpha"/>
<feOffset dy="4.38455"/>
<feGaussianBlur stdDeviation="10"/>
<feComposite in2="hardAlpha" operator="out"/>
<feColorMatrix type="matrix" values="0 0 0 0 0 0 0 0 0 0 0 0 0 0 0 0 0 0 0.15 0"/>
<feBlend mode="normal" in2="BackgroundImageFix" result="effect1_dropShadow_1731_1817"/>
<feBlend mode="normal" in="SourceGraphic" in2="effect1_dropShadow_1731_1817" result="shape"/>
</filter>
<clipPath id="clip0_1731_1817">
<rect width="455" height="281" fill="white"/>
</clipPath>
</defs>
</svg>
