<svg width="455" height="281" viewBox="0 0 455 281" fill="none" xmlns="http://www.w3.org/2000/svg">
<g clip-path="url(#clip0_1731_1818)">
<path d="M27 22H455V276.84C455 279.138 453.138 281 450.84 281H27V22Z" fill="white"/>
<rect y="22" width="455" height="12" fill="#F6F6F6"/>
<rect x="424" y="25" width="6" height="6" rx="2" fill="#CCCCCC"/>
<rect x="434" y="25" width="6" height="6" rx="2" fill="#CCCCCC"/>
<path d="M0 22H27V281H4.16C1.8625 281 0 279.138 0 276.84V22Z" fill="#1A2334"/>
<path fill-rule="evenodd" clip-rule="evenodd" d="M11.9742 34.8032L8.92065 39.0324H11.8449L13.4198 36.8777L11.9742 34.8032ZM14.5093 35.3871L12.8386 33.6059L15.6882 29.6592H18.6959L14.5093 35.3871Z" fill="#1A73E8"/>
<path d="M7 26.5645L15.6891 39.0342H18.6969L7 26.5645Z" fill="#1A73E8"/>
<rect x="0.00170898" y="46.4717" width="27" height="21.8569" fill="#29354A"/>
<rect opacity="0.3" x="9.5647" y="53.3018" width="8.19634" height="8.19634" rx="4.09817" fill="white"/>
<rect opacity="0.15" x="9.00024" y="75.1592" width="8.19634" height="8.19634" rx="4.09817" fill="white"/>
<rect opacity="0.15" x="9.00024" y="97.0137" width="8.19634" height="8.19634" rx="4.09817" fill="white"/>
<rect opacity="0.15" x="9.00024" y="118.873" width="8.19634" height="8.19634" rx="4.09817" fill="white"/>
<rect opacity="0.15" x="9.00024" y="140.729" width="8.19634" height="8.19634" rx="4.09817" fill="white"/>
<rect opacity="0.15" x="9.00024" y="162.587" width="8.19634" height="8.19634" rx="4.09817" fill="white"/>
<rect opacity="0.15" x="9.00024" y="184.442" width="8.19634" height="8.19634" rx="4.09817" fill="white"/>
<rect opacity="0.15" x="9.00024" y="206.3" width="8.19634" height="8.19634" rx="4.09817" fill="white"/>
<rect x="41.5218" y="79.5218" width="398.956" height="54.9563" fill="#F9FBFF" stroke="#D5E7FF" stroke-width="1.04367"/>
<rect x="41.5218" y="79.5218" width="398.956" height="13.9563" stroke="#D5E7FF" stroke-width="1.04367"/>
<rect x="0.521834" y="-0.521834" width="398.956" height="15.9563" transform="matrix(1 0 0 -1 41 108.956)" stroke="#D5E7FF" stroke-width="1.04367"/>
<rect opacity="0.5" x="46.0503" y="116" width="44.3732" height="3" rx="1.5" fill="#629FF0"/>
<rect opacity="0.2" x="46" y="123" width="319" height="3" rx="1.5" fill="#629FF0"/>
<rect x="394" y="115" width="42" height="13" rx="2" fill="#1A73E8"/>
<rect x="403" y="120" width="24" height="3" rx="1.5" fill="white" fill-opacity="0.5"/>
<rect opacity="0.5" x="164" y="85" width="21.1294" height="3" rx="1.5" fill="#629FF0"/>
<rect opacity="0.5" x="233" y="85" width="21.1294" height="3" rx="1.5" fill="#629FF0"/>
<rect opacity="0.5" x="302" y="85" width="21.1294" height="3" rx="1.5" fill="#629FF0"/>
<rect opacity="0.5" x="371" y="85" width="21.1294" height="3" rx="1.5" fill="#629FF0"/>
<rect opacity="0.5" x="46.05" y="85" width="44.3732" height="3" rx="1.5" fill="#629FF0"/>
<rect opacity="0.2" x="164" y="100" width="47" height="3" rx="1.5" fill="#629FF0"/>
<rect opacity="0.2" x="233" y="100" width="47" height="3" rx="1.5" fill="#629FF0"/>
<rect opacity="0.2" x="302" y="100" width="47" height="3" rx="1.5" fill="#629FF0"/>
<rect opacity="0.2" x="371" y="100" width="47" height="3" rx="1.5" fill="#629FF0"/>
<rect opacity="0.2" x="45.9998" y="100" width="89" height="3" rx="1.5" fill="#629FF0"/>
<rect x="41.5218" y="150.522" width="398.956" height="54.9563" fill="#F9FBFF" stroke="#D5E7FF" stroke-width="1.04367"/>
<rect x="41.5218" y="150.522" width="398.956" height="13.9563" stroke="#D5E7FF" stroke-width="1.04367"/>
<rect x="0.521834" y="-0.521834" width="398.956" height="15.9563" transform="matrix(1 0 0 -1 41 179.956)" stroke="#D5E7FF" stroke-width="1.04367"/>
<rect opacity="0.5" x="46.0503" y="187" width="44.3732" height="3" rx="1.5" fill="#629FF0"/>
<rect opacity="0.2" x="46" y="194" width="319" height="3" rx="1.5" fill="#629FF0"/>
<rect x="394" y="186" width="42" height="13" rx="2" fill="#1A73E8"/>
<rect x="403" y="191" width="24" height="3" rx="1.5" fill="white" fill-opacity="0.5"/>
<rect opacity="0.5" x="164" y="156" width="21.1294" height="3" rx="1.5" fill="#629FF0"/>
<rect opacity="0.5" x="233" y="156" width="21.1294" height="3" rx="1.5" fill="#629FF0"/>
<rect opacity="0.5" x="302" y="156" width="21.1294" height="3" rx="1.5" fill="#629FF0"/>
<rect opacity="0.5" x="371" y="156" width="21.1294" height="3" rx="1.5" fill="#629FF0"/>
<rect opacity="0.5" x="46.05" y="156" width="44.3732" height="3" rx="1.5" fill="#629FF0"/>
<rect opacity="0.2" x="164" y="171" width="47" height="3" rx="1.5" fill="#629FF0"/>
<rect opacity="0.2" x="233" y="171" width="47" height="3" rx="1.5" fill="#629FF0"/>
<rect opacity="0.2" x="302" y="171" width="47" height="3" rx="1.5" fill="#629FF0"/>
<rect opacity="0.2" x="371" y="171" width="47" height="3" rx="1.5" fill="#629FF0"/>
<rect opacity="0.2" x="45.9998" y="171" width="89" height="3" rx="1.5" fill="#629FF0"/>
<rect x="140.522" y="49.5218" width="124.956" height="13.9563" rx="2.47817" fill="white" stroke="#D4E7FF" stroke-width="1.04367"/>
<rect opacity="0.3" x="143" y="55" width="68" height="3" rx="1.5" fill="#629FF0"/>
<rect x="273" y="49" width="42" height="15" rx="2" fill="#DDEBFF"/>
<rect opacity="0.5" x="282" y="55" width="24" height="3" rx="1.5" fill="#629FF0"/>
<g filter="url(#filter0_d_1731_1818)">
<rect x="338" y="185" width="103" height="58" rx="6" fill="white"/>
</g>
<mask id="path-56-inside-1_1731_1818" fill="white">
<path d="M338 191C338 187.686 340.686 185 344 185H435C438.314 185 441 187.686 441 191V206H338V191Z"/>
</mask>
<path d="M338 191C338 187.686 340.686 185 344 185H435C438.314 185 441 187.686 441 191V206H338V191Z" fill="white"/>
<path d="M338 185H441H338ZM441 207H338V205H441V207ZM338 206V185V206ZM441 185V206V185Z" fill="#E8F2FF" mask="url(#path-56-inside-1_1731_1818)"/>
<rect opacity="0.5" x="346" y="193" width="44" height="4" rx="2" fill="#FFB8B8"/>
<rect x="346.05" y="216" width="44.3732" height="3" rx="1.5" fill="#FFDCDC"/>
<rect x="346.05" y="229" width="44.3732" height="3" rx="1.5" fill="#FFDCDC"/>
<path d="M419 216.5L423 220.5L429.5 214" stroke="#FFDCDC" stroke-width="2" stroke-linecap="round"/>
<path d="M455 22V4.21456C455 1.85441 453.169 0 450.839 0H4.16057C1.83065 0 0 1.85441 0 4.21456V22H455Z" fill="#DDEBFF"/>
<path d="M413.566 10.8114C413.566 13.3894 411.487 15.4685 408.909 15.4685C406.331 15.4685 404.252 13.3894 404.252 10.8114C404.252 8.23335 406.331 6.1543 408.909 6.1543C411.487 6.1543 413.566 8.23335 413.566 10.8114Z" fill="#70B44A"/>
<path d="M429.367 10.8114C429.367 13.3894 427.288 15.4685 424.71 15.4685C422.132 15.4685 420.053 13.3894 420.053 10.8114C420.053 8.23335 422.132 6.1543 424.71 6.1543C427.288 6.1543 429.367 8.23335 429.367 10.8114Z" fill="#DDAB54"/>
<path d="M445.25 10.8114C445.25 13.3894 443.171 15.4685 440.593 15.4685C438.015 15.4685 435.936 13.3894 435.936 10.8114C435.936 8.23335 438.015 6.1543 440.593 6.1543C443.171 6.1543 445.25 8.23335 445.25 10.8114Z" fill="#D6655D"/>
<circle cx="45" cy="216" r="4" fill="#D4E7FF"/>
<circle cx="57" cy="216" r="4" fill="#D4E7FF"/>
<circle cx="69" cy="216" r="4" fill="#D4E7FF"/>
<circle cx="81" cy="216" r="4" fill="#D4E7FF"/>
<circle cx="93" cy="216" r="4" fill="#D4E7FF"/>
<circle cx="105" cy="216" r="4" fill="#D4E7FF"/>
</g>
<defs>
<filter id="filter0_d_1731_1818" x="308" y="155" width="163" height="118" filterUnits="userSpaceOnUse" color-interpolation-filters="sRGB">
<feFlood flood-opacity="0" result="BackgroundImageFix"/>
<feColorMatrix in="SourceAlpha" type="matrix" values="0 0 0 0 0 0 0 0 0 0 0 0 0 0 0 0 0 0 127 0" result="hardAlpha"/>
<feOffset/>
<feGaussianBlur stdDeviation="15"/>
<feComposite in2="hardAlpha" operator="out"/>
<feColorMatrix type="matrix" values="0 0 0 0 0 0 0 0 0 0 0 0 0 0 0 0 0 0 0.18 0"/>
<feBlend mode="normal" in2="BackgroundImageFix" result="effect1_dropShadow_1731_1818"/>
<feBlend mode="normal" in="SourceGraphic" in2="effect1_dropShadow_1731_1818" result="shape"/>
</filter>
<clipPath id="clip0_1731_1818">
<rect width="455" height="281" fill="white"/>
</clipPath>
</defs>
</svg>
