<svg width="455" height="281" viewBox="0 0 455 281" fill="none" xmlns="http://www.w3.org/2000/svg">
<path d="M0 22H27V281H4.16C1.8625 281 0 279.138 0 276.84V22Z" fill="#1A2334"/>
<path fill-rule="evenodd" clip-rule="evenodd" d="M11.9742 34.8032L8.92065 39.0324H11.8449L13.4198 36.8777L11.9742 34.8032ZM14.5093 35.3871L12.8386 33.6059L15.6882 29.6592H18.6959L14.5093 35.3871Z" fill="#1A73E8"/>
<path d="M7 26.5645L15.6891 39.0342H18.6969L7 26.5645Z" fill="#1A73E8"/>
<rect x="0.00170898" y="46.4717" width="27" height="21.8569" fill="#29354A"/>
<rect opacity="0.3" x="9.5647" y="53.3018" width="8.19634" height="8.19634" rx="4.09817" fill="white"/>
<rect opacity="0.15" x="9.00024" y="75.1592" width="8.19634" height="8.19634" rx="4.09817" fill="white"/>
<rect opacity="0.15" x="9.00024" y="97.0137" width="8.19634" height="8.19634" rx="4.09817" fill="white"/>
<rect opacity="0.15" x="9.00024" y="118.873" width="8.19634" height="8.19634" rx="4.09817" fill="white"/>
<rect opacity="0.15" x="9.00024" y="140.729" width="8.19634" height="8.19634" rx="4.09817" fill="white"/>
<rect opacity="0.15" x="9.00024" y="162.587" width="8.19634" height="8.19634" rx="4.09817" fill="white"/>
<rect opacity="0.15" x="9.00024" y="184.442" width="8.19634" height="8.19634" rx="4.09817" fill="white"/>
<rect opacity="0.15" x="9.00024" y="206.3" width="8.19634" height="8.19634" rx="4.09817" fill="white"/>
<path d="M27 22H455V276.84C455 279.138 453.138 281 450.84 281H27V22Z" fill="white"/>
<rect x="27" y="22" width="428" height="12" fill="#F6F6F6"/>
<rect x="424" y="25" width="6" height="6" rx="2" fill="#CCCCCC"/>
<rect x="434" y="25" width="6" height="6" rx="2" fill="#CCCCCC"/>
<rect x="42.5218" y="150.522" width="124.588" height="50.9563" rx="3.47817" fill="white" stroke="#D5E7FF" stroke-width="1.04367"/>
<path d="M42.5218 154C42.5218 152.079 44.0791 150.522 46 150.522H163.631C165.552 150.522 167.11 152.079 167.11 154V163.478H42.5218V154Z" fill="#00A5FF" stroke="#00A5FF" stroke-width="1.04367"/>
<rect opacity="0.403" x="142.188" y="155.291" width="21.0238" height="4.85257" rx="2.42629" fill="white"/>
<rect opacity="0.403" x="47.0249" y="155" width="44.1514" height="4" rx="2" fill="white"/>
<rect opacity="0.2" x="151.502" y="170.664" width="11.7104" height="2.99995" rx="1.49998" fill="#629FF0"/>
<rect opacity="0.2" x="47.3125" y="170.664" width="44.1514" height="2.99995" rx="1.49998" fill="#629FF0"/>
<rect opacity="0.2" x="151.502" y="180.664" width="11.7104" height="3" rx="1.5" fill="#629FF0"/>
<rect opacity="0.2" x="47.3125" y="180.664" width="44.1514" height="3" rx="1.5" fill="#629FF0"/>
<rect opacity="0.2" x="151.502" y="190.664" width="11.7104" height="3" rx="1.5" fill="#629FF0"/>
<rect opacity="0.2" x="47.3125" y="190.664" width="44.1514" height="3" rx="1.5" fill="#629FF0"/>
<rect x="42.5218" y="210.522" width="124.588" height="50.9563" rx="3.47817" fill="white" stroke="#D5E7FF" stroke-width="1.04367"/>
<path d="M42.5218 214C42.5218 212.079 44.0791 210.522 46 210.522H163.631C165.552 210.522 167.11 212.079 167.11 214V223.478H42.5218V214Z" fill="#CF3737" stroke="#CF3737" stroke-width="1.04367"/>
<rect opacity="0.403" x="142.188" y="215.291" width="21.0238" height="4.85257" rx="2.42629" fill="white"/>
<rect opacity="0.403" x="47.0249" y="215" width="44.1514" height="4" rx="2" fill="white"/>
<rect opacity="0.2" x="151.502" y="230.664" width="11.7104" height="2.99995" rx="1.49998" fill="#629FF0"/>
<rect opacity="0.2" x="47.3125" y="230.664" width="44.1514" height="2.99995" rx="1.49998" fill="#629FF0"/>
<rect opacity="0.2" x="151.502" y="240.664" width="11.7104" height="3" rx="1.5" fill="#629FF0"/>
<rect opacity="0.2" x="47.3125" y="240.664" width="44.1514" height="3" rx="1.5" fill="#629FF0"/>
<rect opacity="0.2" x="151.502" y="250.664" width="11.7104" height="3" rx="1.5" fill="#629FF0"/>
<rect opacity="0.2" x="47.3125" y="250.664" width="44.1514" height="3" rx="1.5" fill="#629FF0"/>
<rect x="178.204" y="150.522" width="124.588" height="50.9563" rx="3.47817" fill="white" stroke="#D5E7FF" stroke-width="1.04367"/>
<path d="M178.204 154C178.204 152.079 179.761 150.522 181.682 150.522H299.313C301.234 150.522 302.792 152.079 302.792 154V163.478H178.204V154Z" fill="#4BCB9B" stroke="#4BCB9B" stroke-width="1.04367"/>
<rect opacity="0.403" x="277.87" y="155.291" width="21.0238" height="4.85257" rx="2.42629" fill="white"/>
<rect opacity="0.403" x="182.707" y="155" width="44.1514" height="4" rx="2" fill="white"/>
<rect opacity="0.2" x="287.183" y="170.664" width="11.7104" height="2.99995" rx="1.49998" fill="#629FF0"/>
<rect opacity="0.2" x="182.994" y="170.664" width="44.1514" height="2.99995" rx="1.49998" fill="#629FF0"/>
<rect opacity="0.2" x="287.183" y="180.664" width="11.7104" height="3" rx="1.5" fill="#629FF0"/>
<rect opacity="0.2" x="182.994" y="180.664" width="44.1514" height="3" rx="1.5" fill="#629FF0"/>
<rect opacity="0.2" x="287.183" y="190.664" width="11.7104" height="3" rx="1.5" fill="#629FF0"/>
<rect opacity="0.2" x="182.994" y="190.664" width="44.1514" height="3" rx="1.5" fill="#629FF0"/>
<rect x="178.204" y="210.522" width="124.588" height="50.9563" rx="3.47817" fill="white" stroke="#D5E7FF" stroke-width="1.04367"/>
<path d="M178.204 214C178.204 212.079 179.761 210.522 181.682 210.522H299.313C301.234 210.522 302.792 212.079 302.792 214V223.478H178.204V214Z" fill="#FFBE07" stroke="#FFBE07" stroke-width="1.04367"/>
<rect opacity="0.403" x="277.87" y="215.291" width="21.0238" height="4.85257" rx="2.42629" fill="white"/>
<rect opacity="0.403" x="182.707" y="215" width="44.1514" height="4" rx="2" fill="white"/>
<rect opacity="0.2" x="287.183" y="230.664" width="11.7104" height="2.99995" rx="1.49998" fill="#629FF0"/>
<rect opacity="0.2" x="182.994" y="230.664" width="44.1514" height="2.99995" rx="1.49998" fill="#629FF0"/>
<rect opacity="0.2" x="287.183" y="240.664" width="11.7104" height="3" rx="1.5" fill="#629FF0"/>
<rect opacity="0.2" x="182.994" y="240.664" width="44.1514" height="3" rx="1.5" fill="#629FF0"/>
<rect opacity="0.2" x="287.183" y="250.664" width="11.7104" height="3" rx="1.5" fill="#629FF0"/>
<rect opacity="0.2" x="182.994" y="250.664" width="44.1514" height="3" rx="1.5" fill="#629FF0"/>
<rect x="314.891" y="150.522" width="124.588" height="50.9563" rx="3.47817" fill="white" stroke="#D5E7FF" stroke-width="1.04367"/>
<path d="M314.891 154C314.891 152.079 316.448 150.522 318.369 150.522H436C437.921 150.522 439.479 152.079 439.479 154V163.478H314.891V154Z" fill="#FF7963" stroke="#FF7963" stroke-width="1.04367"/>
<rect opacity="0.403" x="414.557" y="155.291" width="21.0238" height="4.85257" rx="2.42629" fill="white"/>
<rect opacity="0.403" x="319.394" y="155" width="44.1514" height="4" rx="2" fill="white"/>
<rect opacity="0.2" x="423.87" y="170.664" width="11.7104" height="2.99995" rx="1.49998" fill="#629FF0"/>
<rect opacity="0.2" x="319.682" y="170.664" width="44.1514" height="2.99995" rx="1.49998" fill="#629FF0"/>
<rect opacity="0.2" x="423.87" y="180.664" width="11.7104" height="3" rx="1.5" fill="#629FF0"/>
<rect opacity="0.2" x="319.682" y="180.664" width="44.1514" height="3" rx="1.5" fill="#629FF0"/>
<rect opacity="0.2" x="423.87" y="190.664" width="11.7104" height="3" rx="1.5" fill="#629FF0"/>
<rect opacity="0.2" x="319.682" y="190.664" width="44.1514" height="3" rx="1.5" fill="#629FF0"/>
<rect x="314.891" y="210.522" width="124.588" height="50.9563" rx="3.47817" fill="white" stroke="#D5E7FF" stroke-width="1.04367"/>
<path d="M314.891 214C314.891 212.079 316.448 210.522 318.369 210.522H436C437.921 210.522 439.479 212.079 439.479 214V223.478H314.891V214Z" fill="#B060B9" stroke="#B060B9" stroke-width="1.04367"/>
<rect opacity="0.403" x="414.557" y="215.291" width="21.0238" height="4.85257" rx="2.42629" fill="white"/>
<rect opacity="0.403" x="319.394" y="215" width="44.1514" height="4" rx="2" fill="white"/>
<rect opacity="0.2" x="423.87" y="230.664" width="11.7104" height="2.99995" rx="1.49998" fill="#629FF0"/>
<rect opacity="0.2" x="319.682" y="230.664" width="44.1514" height="2.99995" rx="1.49998" fill="#629FF0"/>
<rect opacity="0.2" x="423.87" y="240.664" width="11.7104" height="3" rx="1.5" fill="#629FF0"/>
<rect opacity="0.2" x="319.682" y="240.664" width="44.1514" height="3" rx="1.5" fill="#629FF0"/>
<rect opacity="0.2" x="423.87" y="250.664" width="11.7104" height="3" rx="1.5" fill="#629FF0"/>
<rect opacity="0.2" x="319.682" y="250.664" width="44.1514" height="3" rx="1.5" fill="#629FF0"/>
<rect x="42.5218" y="49.5218" width="70.5963" height="36.9563" rx="2.47817" fill="#F7FAFF" stroke="#DEECFF" stroke-width="1.04367"/>
<rect x="71.8501" y="56" width="11.94" height="12" rx="5.97" fill="#349C7C"/>
<rect opacity="0.3" x="69.8601" y="72" width="15.92" height="3" rx="1.5" fill="#0A58BE"/>
<rect opacity="0.3" x="57.9202" y="77" width="39.8" height="3" rx="1.5" fill="#629FF0"/>
<rect x="124.112" y="49.5218" width="70.5963" height="36.9563" rx="2.47817" fill="#F7FAFF" stroke="#DEECFF" stroke-width="1.04367"/>
<rect x="153.44" y="56" width="11.94" height="12" rx="5.97" fill="#A37CFC"/>
<rect opacity="0.3" x="151.45" y="72" width="15.92" height="3" rx="1.5" fill="#0A58BE"/>
<rect opacity="0.3" x="139.51" y="77" width="39.8" height="3" rx="1.5" fill="#629FF0"/>
<rect x="205.702" y="49.5218" width="70.5963" height="36.9563" rx="2.47817" fill="#F7FAFF" stroke="#DEECFF" stroke-width="1.04367"/>
<rect x="235.03" y="56" width="11.94" height="12" rx="5.97" fill="#4BCB9B"/>
<rect opacity="0.3" x="233.04" y="72" width="15.92" height="3" rx="1.5" fill="#0A58BE"/>
<rect opacity="0.3" x="221.1" y="77" width="39.8" height="3" rx="1.5" fill="#629FF0"/>
<rect x="287.292" y="49.5218" width="70.5963" height="36.9563" rx="2.47817" fill="#F7FAFF" stroke="#DEECFF" stroke-width="1.04367"/>
<rect x="316.62" y="56" width="11.94" height="12" rx="5.97" fill="#FF9B63"/>
<rect opacity="0.3" x="314.63" y="72" width="15.92" height="3" rx="1.5" fill="#0A58BE"/>
<rect opacity="0.3" x="302.69" y="77" width="39.8" height="3" rx="1.5" fill="#629FF0"/>
<rect x="368.882" y="49.5218" width="70.5963" height="36.9563" rx="2.47817" fill="#F7FAFF" stroke="#DEECFF" stroke-width="1.04367"/>
<rect x="398.21" y="56" width="11.94" height="12" rx="5.97" fill="#00A5FF"/>
<rect opacity="0.3" x="396.22" y="72" width="15.92" height="3" rx="1.5" fill="#0A58BE"/>
<rect opacity="0.3" x="384.28" y="77" width="39.8" height="3" rx="1.5" fill="#629FF0"/>
<rect x="42.5218" y="101.522" width="90.6302" height="12.9563" rx="2.47817" fill="white" stroke="#D4E7FF" stroke-width="1.04367"/>
<rect opacity="0.3" x="45.4734" y="107" width="34.7171" height="3" rx="1.5" fill="#629FF0"/>
<rect x="144.63" y="101.522" width="90.6302" height="12.9563" rx="2.47817" fill="white" stroke="#D4E7FF" stroke-width="1.04367"/>
<rect opacity="0.3" x="147.582" y="107" width="34.7171" height="3" rx="1.5" fill="#629FF0"/>
<rect x="246.739" y="101.522" width="90.6302" height="12.9563" rx="2.47817" fill="white" stroke="#D4E7FF" stroke-width="1.04367"/>
<rect opacity="0.3" x="249.691" y="107" width="34.7171" height="3" rx="1.5" fill="#629FF0"/>
<rect x="348.848" y="101.522" width="90.6302" height="12.9563" rx="2.47817" fill="white" stroke="#D4E7FF" stroke-width="1.04367"/>
<rect opacity="0.3" x="351.799" y="107" width="34.7171" height="3" rx="1.5" fill="#629FF0"/>
<rect x="42" y="130" width="114.425" height="12" rx="1" fill="#E0ECFC"/>
<rect opacity="0.5" x="75.22" y="134.8" width="19.686" height="2.4" rx="1.2" fill="#629FF0"/>
<rect opacity="0.5" x="104.749" y="134.8" width="19.686" height="2.4" rx="1.2" fill="#629FF0"/>
<rect opacity="0.5" x="133.048" y="134.8" width="19.686" height="2.4" rx="1.2" fill="#629FF0"/>
<path d="M42 131C42 130.448 42.4477 130 43 130H70.2987V142H43C42.4477 142 42 141.552 42 141V131Z" fill="#1A73E8"/>
<rect x="46.9214" y="134.8" width="18.4556" height="2.4" rx="1.2" fill="white" fill-opacity="0.5"/>
<line x1="100.078" y1="130" x2="100.078" y2="142" stroke="#BFCFE4" stroke-width="0.5"/>
<line x1="128.376" y1="130" x2="128.376" y2="142" stroke="#BFCFE4" stroke-width="0.5"/>
<path d="M455 22V4.21456C455 1.85441 453.169 0 450.839 0H4.16057C1.83065 0 0 1.85441 0 4.21456V22H455Z" fill="#DDEBFF"/>
<path d="M413.566 10.8114C413.566 13.3894 411.487 15.4685 408.909 15.4685C406.331 15.4685 404.252 13.3894 404.252 10.8114C404.252 8.23335 406.331 6.1543 408.909 6.1543C411.487 6.1543 413.566 8.23335 413.566 10.8114Z" fill="#70B44A"/>
<path d="M429.367 10.8114C429.367 13.3894 427.288 15.4685 424.71 15.4685C422.132 15.4685 420.053 13.3894 420.053 10.8114C420.053 8.23335 422.132 6.1543 424.71 6.1543C427.288 6.1543 429.367 8.23335 429.367 10.8114Z" fill="#DDAB54"/>
<path d="M445.25 10.8114C445.25 13.3894 443.171 15.4685 440.593 15.4685C438.015 15.4685 435.936 13.3894 435.936 10.8114C435.936 8.23335 438.015 6.1543 440.593 6.1543C443.171 6.1543 445.25 8.23335 445.25 10.8114Z" fill="#D6655D"/>
<g filter="url(#filter0_d_1636_3958)">
<circle cx="432.5" cy="261.5" r="10.25" fill="white" fill-opacity="0.7" stroke="#B6D5FF" stroke-width="0.5"/>
<circle cx="432.5" cy="261.5" r="8.4" fill="#2F80ED"/>
<path fill-rule="evenodd" clip-rule="evenodd" d="M431.395 261.486L428.98 264.712H431.293L432.539 263.069L431.395 261.486Z" fill="white"/>
<path d="M427.46 255.199L434.333 264.711H436.712L427.46 255.199Z" fill="white"/>
<path fill-rule="evenodd" clip-rule="evenodd" d="M433.4 261.931L432.079 260.572L434.333 257.562H436.712L433.4 261.931Z" fill="white"/>
</g>
<defs>
<filter id="filter0_d_1636_3958" x="415" y="244" width="35" height="35" filterUnits="userSpaceOnUse" color-interpolation-filters="sRGB">
<feFlood flood-opacity="0" result="BackgroundImageFix"/>
<feColorMatrix in="SourceAlpha" type="matrix" values="0 0 0 0 0 0 0 0 0 0 0 0 0 0 0 0 0 0 127 0" result="hardAlpha"/>
<feOffset/>
<feGaussianBlur stdDeviation="3.5"/>
<feComposite in2="hardAlpha" operator="out"/>
<feColorMatrix type="matrix" values="0 0 0 0 0 0 0 0 0 0 0 0 0 0 0 0 0 0 0.3 0"/>
<feBlend mode="normal" in2="BackgroundImageFix" result="effect1_dropShadow_1636_3958"/>
<feBlend mode="normal" in="SourceGraphic" in2="effect1_dropShadow_1636_3958" result="shape"/>
</filter>
</defs>
</svg>
