<svg width="455" height="281" viewBox="0 0 455 281" fill="none" xmlns="http://www.w3.org/2000/svg">
<path d="M0 22H27V281H4.16C1.8625 281 0 279.138 0 276.84V22Z" fill="#1A2334"/>
<path fill-rule="evenodd" clip-rule="evenodd" d="M11.9742 34.8032L8.92065 39.0324H11.8449L13.4198 36.8777L11.9742 34.8032ZM14.5093 35.3871L12.8386 33.6059L15.6882 29.6592H18.6959L14.5093 35.3871Z" fill="#1A73E8"/>
<path d="M7 26.5645L15.6891 39.0342H18.6969L7 26.5645Z" fill="#1A73E8"/>
<rect x="0.00170898" y="46.4717" width="27" height="21.8569" fill="#29354A"/>
<rect opacity="0.3" x="9.5647" y="53.3018" width="8.19634" height="8.19634" rx="4.09817" fill="white"/>
<rect opacity="0.15" x="9.00024" y="75.1592" width="8.19634" height="8.19634" rx="4.09817" fill="white"/>
<rect opacity="0.15" x="9.00024" y="97.0137" width="8.19634" height="8.19634" rx="4.09817" fill="white"/>
<rect opacity="0.15" x="9.00024" y="118.873" width="8.19634" height="8.19634" rx="4.09817" fill="white"/>
<rect opacity="0.15" x="9.00024" y="140.729" width="8.19634" height="8.19634" rx="4.09817" fill="white"/>
<rect opacity="0.15" x="9.00024" y="162.587" width="8.19634" height="8.19634" rx="4.09817" fill="white"/>
<rect opacity="0.15" x="9.00024" y="184.442" width="8.19634" height="8.19634" rx="4.09817" fill="white"/>
<rect opacity="0.15" x="9.00024" y="206.3" width="8.19634" height="8.19634" rx="4.09817" fill="white"/>
<path d="M27 22H455V276.84C455 279.138 453.138 281 450.84 281H27V22Z" fill="white"/>
<rect x="27" y="22" width="428" height="12" fill="#F6F6F6"/>
<rect x="424" y="25" width="6" height="6" rx="2" fill="#CCCCCC"/>
<rect x="434" y="25" width="6" height="6" rx="2" fill="#CCCCCC"/>
<rect x="41.5218" y="69.5218" width="128.469" height="13.9563" rx="2.47817" fill="white" stroke="#D4E7FF" stroke-width="1.04367"/>
<rect opacity="0.3" x="46" y="75" width="40.1146" height="3" rx="1.5" fill="#629FF0"/>
<rect x="176.765" y="69.5218" width="128.469" height="13.9563" rx="2.47817" fill="white" stroke="#D4E7FF" stroke-width="1.04367"/>
<rect opacity="0.3" x="181.243" y="75" width="40.1146" height="3" rx="1.5" fill="#629FF0"/>
<rect x="312.009" y="69.5218" width="128.469" height="13.9563" rx="2.47817" fill="white" stroke="#D4E7FF" stroke-width="1.04367"/>
<rect opacity="0.3" x="316.487" y="75" width="40.1146" height="3" rx="1.5" fill="#629FF0"/>
<path d="M41 96C41 94.8954 41.8954 94 43 94H141V271H43C41.8954 271 41 270.105 41 269V96Z" fill="#FAFCFF" stroke="#D4E7FF"/>
<path d="M341 94H439C440.105 94 441 94.8954 441 96V269C441 270.105 440.105 271 439 271H341V94Z" fill="#FAFCFF" stroke="#D4E7FF"/>
<rect x="399" y="45" width="42" height="15" rx="2" fill="#1A73E8"/>
<rect x="408" y="51" width="24" height="3" rx="1.5" fill="white" fill-opacity="0.5"/>
<rect x="352" y="45" width="42" height="15" rx="2" fill="#DDEBFF"/>
<rect opacity="0.5" x="361" y="51" width="24" height="3" rx="1.5" fill="#629FF0"/>
<rect x="305" y="45" width="42" height="15" rx="2" fill="#DDEBFF"/>
<rect opacity="0.5" x="314" y="51" width="24" height="3" rx="1.5" fill="#629FF0"/>
<rect x="56.3848" y="101" width="66.6345" height="8" rx="4" fill="#F5CCCC"/>
<rect opacity="0.5" x="62.4421" y="104" width="55.3845" height="2" rx="1" fill="white"/>
<rect x="61.2307" y="115" width="29.423" height="8" rx="4" fill="#DDEBFF"/>
<rect x="64.6924" y="118" width="22.5" height="2" rx="1" fill="#9ABFF1"/>
<rect x="93.2495" y="115" width="27.7654" height="8" rx="4" fill="#DDEBFF"/>
<rect x="96.5164" y="118" width="21.2324" height="2" rx="1" fill="#9ABFF1"/>
<rect x="61.2307" y="157" width="29.423" height="8" rx="4" fill="#DDEBFF"/>
<rect x="64.6924" y="160" width="22.5" height="2" rx="1" fill="#9ABFF1"/>
<rect x="93.2495" y="157" width="27.7654" height="8" rx="4" fill="#DDEBFF"/>
<rect x="96.5164" y="160" width="21.2324" height="2" rx="1" fill="#9ABFF1"/>
<rect x="70" y="143" width="41.7693" height="8" rx="4" fill="#DDEBFF"/>
<rect x="74.9143" y="146" width="31.9412" height="2" rx="1" fill="#9ABFF1"/>
<rect x="61.2307" y="185" width="29.423" height="8" rx="4" fill="#DDEBFF"/>
<rect x="64.6924" y="188" width="22.5" height="2" rx="1" fill="#9ABFF1"/>
<rect x="93.2495" y="185" width="27.7654" height="8" rx="4" fill="#DDEBFF"/>
<rect x="96.5164" y="188" width="21.2324" height="2" rx="1" fill="#9ABFF1"/>
<rect x="46" y="129" width="29.423" height="8" rx="4" fill="#DDEBFF"/>
<rect x="49.4617" y="132" width="22.5" height="2" rx="1" fill="#9ABFF1"/>
<rect x="78.019" y="129" width="27.7654" height="8" rx="4" fill="#DDEBFF"/>
<rect x="81.2854" y="132" width="21.2324" height="2" rx="1" fill="#9ABFF1"/>
<rect x="108.235" y="129" width="27.7654" height="8" rx="4" fill="#DDEBFF"/>
<rect x="111.501" y="132" width="21.2324" height="2" rx="1" fill="#9ABFF1"/>
<rect x="46" y="171" width="29.423" height="8" rx="4" fill="#DDEBFF"/>
<rect x="49.4617" y="174" width="22.5" height="2" rx="1" fill="#9ABFF1"/>
<rect x="78.019" y="171" width="27.7654" height="8" rx="4" fill="#DDEBFF"/>
<rect x="81.2854" y="174" width="21.2324" height="2" rx="1" fill="#9ABFF1"/>
<rect x="108.235" y="171" width="27.7654" height="8" rx="4" fill="#DDEBFF"/>
<rect x="111.501" y="174" width="21.2324" height="2" rx="1" fill="#9ABFF1"/>
<rect x="141" y="94" width="200" height="177" fill="white" stroke="#D4E7FF"/>
<rect opacity="0.3" x="273.154" y="121" width="57.8462" height="4" rx="2" fill="#0A58BE"/>
<rect opacity="0.2" x="151" y="129" width="162.692" height="4" rx="2" fill="#629FF0"/>
<rect opacity="0.3" x="151" y="121" width="37.9615" height="4" rx="2" fill="#0A58BE"/>
<rect opacity="0.2" x="151" y="137" width="113.301" height="4" rx="2" fill="#629FF0"/>
<rect opacity="0.2" x="151" y="160" width="162.692" height="4" rx="2" fill="#629FF0"/>
<rect opacity="0.2" x="151" y="176" width="162.692" height="4" rx="2" fill="#629FF0"/>
<rect opacity="0.2" x="151" y="192" width="162.692" height="4" rx="2" fill="#629FF0"/>
<rect opacity="0.3" x="151" y="152" width="37.9615" height="4" rx="2" fill="#0A58BE"/>
<rect opacity="0.2" x="151" y="168" width="113.301" height="4" rx="2" fill="#629FF0"/>
<rect opacity="0.2" x="151" y="184" width="113.301" height="4" rx="2" fill="#629FF0"/>
<rect opacity="0.2" x="151" y="200" width="113.301" height="4" rx="2" fill="#629FF0"/>
<path d="M331 104.5C331 106.437 329.437 108 327.5 108C325.563 108 324 106.437 324 104.5C324 102.562 325.563 101 327.5 101C329.437 101 331 102.562 331 104.5Z" fill="#00A5FF"/>
<path d="M321 104.5C321 106.437 319.437 108 317.5 108C315.563 108 314 106.437 314 104.5C314 102.562 315.563 101 317.5 101C319.437 101 321 102.562 321 104.5Z" fill="#4BCB9B"/>
<path d="M311 104.5C311 106.437 309.437 108 307.5 108C305.563 108 304 106.437 304 104.5C304 102.562 305.563 101 307.5 101C309.437 101 311 102.562 311 104.5Z" fill="#FFBE07"/>
<path d="M355 104.5C355 106.437 353.437 108 351.5 108C349.563 108 348 106.437 348 104.5C348 102.562 349.563 101 351.5 101C353.437 101 355 102.562 355 104.5Z" fill="#A0C6F8"/>
<mask id="path-75-outside-1_1636_4827" maskUnits="userSpaceOnUse" x="347" y="109" width="77" height="25" fill="black">
<rect fill="white" x="347" y="109" width="77" height="25"/>
<path d="M348 112C348 110.895 348.895 110 350 110H421C422.105 110 423 110.895 423 112V130C423 131.105 422.105 132 421 132H350C348.895 132 348 131.105 348 130V112Z"/>
</mask>
<path d="M348 112C348 110.895 348.895 110 350 110H421C422.105 110 423 110.895 423 112V130C423 131.105 422.105 132 421 132H350C348.895 132 348 131.105 348 130V112Z" fill="#EEF5FF"/>
<path d="M347.5 112C347.5 110.619 348.619 109.5 350 109.5H421C422.381 109.5 423.5 110.619 423.5 112H422.5C422.5 111.172 421.828 110.5 421 110.5H350C349.172 110.5 348.5 111.172 348.5 112H347.5ZM423.5 131.5C423.5 132.881 422.381 134 421 134H350C348.619 134 347.5 132.881 347.5 131.5L348.5 130C348.5 130 349.172 130 350 130H421C421.828 130 422.5 130 422.5 130L423.5 131.5ZM350 134C348.619 134 347.5 132.881 347.5 131.5V112C347.5 110.619 348.619 109.5 350 109.5V110.5C349.172 110.5 348.5 111.172 348.5 112V130C348.5 130 349.172 130 350 130V134ZM421 109.5C422.381 109.5 423.5 110.619 423.5 112V131.5C423.5 132.881 422.381 134 421 134V130C421.828 130 422.5 130 422.5 130V112C422.5 111.172 421.828 110.5 421 110.5V109.5Z" fill="#CFE1FC" mask="url(#path-75-outside-1_1636_4827)"/>
<rect opacity="0.5" x="352" y="115" width="67" height="2" rx="1" fill="#629FF0"/>
<rect opacity="0.5" x="352" y="120" width="62.6774" height="2" rx="1" fill="#629FF0"/>
<rect opacity="0.5" x="352" y="125" width="42.1452" height="2" rx="1" fill="#629FF0"/>
<path d="M435 141.5C435 143.437 433.437 145 431.5 145C429.563 145 428 143.437 428 141.5C428 139.562 429.563 138 431.5 138C433.437 138 435 139.562 435 141.5Z" fill="#F3C7C7"/>
<mask id="path-81-outside-2_1636_4827" maskUnits="userSpaceOnUse" x="359" y="146" width="77" height="25" fill="black">
<rect fill="white" x="359" y="146" width="77" height="25"/>
<path d="M360 149C360 147.895 360.895 147 362 147H433C434.105 147 435 147.895 435 149V167C435 168.105 434.105 169 433 169H362C360.895 169 360 168.105 360 167V149Z"/>
</mask>
<path d="M360 149C360 147.895 360.895 147 362 147H433C434.105 147 435 147.895 435 149V167C435 168.105 434.105 169 433 169H362C360.895 169 360 168.105 360 167V149Z" fill="#FFF5F5"/>
<path d="M359.5 149C359.5 147.619 360.619 146.5 362 146.5H433C434.381 146.5 435.5 147.619 435.5 149H434.5C434.5 148.172 433.828 147.5 433 147.5H362C361.172 147.5 360.5 148.172 360.5 149H359.5ZM435.5 168.5C435.5 169.881 434.381 171 433 171H362C360.619 171 359.5 169.881 359.5 168.5L360.5 167C360.5 167 361.172 167 362 167H433C433.828 167 434.5 167 434.5 167L435.5 168.5ZM362 171C360.619 171 359.5 169.881 359.5 168.5V149C359.5 147.619 360.619 146.5 362 146.5V147.5C361.172 147.5 360.5 148.172 360.5 149V167C360.5 167 361.172 167 362 167V171ZM433 146.5C434.381 146.5 435.5 147.619 435.5 149V168.5C435.5 169.881 434.381 171 433 171V167C433.828 167 434.5 167 434.5 167V149C434.5 148.172 433.828 147.5 433 147.5V146.5Z" fill="#FCD7D7" mask="url(#path-81-outside-2_1636_4827)"/>
<rect opacity="0.5" x="364" y="152" width="67" height="2" rx="1" fill="#EBA2A2"/>
<rect opacity="0.5" x="364" y="157" width="62.6774" height="2" rx="1" fill="#EBA2A2"/>
<rect opacity="0.5" x="364" y="162" width="42.1452" height="2" rx="1" fill="#EBA2A2"/>
<path d="M435 215.5C435 217.437 433.437 219 431.5 219C429.563 219 428 217.437 428 215.5C428 213.562 429.563 212 431.5 212C433.437 212 435 213.562 435 215.5Z" fill="#F3C7C7"/>
<mask id="path-87-outside-3_1636_4827" maskUnits="userSpaceOnUse" x="359" y="220" width="77" height="25" fill="black">
<rect fill="white" x="359" y="220" width="77" height="25"/>
<path d="M360 223C360 221.895 360.895 221 362 221H433C434.105 221 435 221.895 435 223V241C435 242.105 434.105 243 433 243H362C360.895 243 360 242.105 360 241V223Z"/>
</mask>
<path d="M360 223C360 221.895 360.895 221 362 221H433C434.105 221 435 221.895 435 223V241C435 242.105 434.105 243 433 243H362C360.895 243 360 242.105 360 241V223Z" fill="#FFF5F5"/>
<path d="M359.5 223C359.5 221.619 360.619 220.5 362 220.5H433C434.381 220.5 435.5 221.619 435.5 223H434.5C434.5 222.172 433.828 221.5 433 221.5H362C361.172 221.5 360.5 222.172 360.5 223H359.5ZM435.5 242.5C435.5 243.881 434.381 245 433 245H362C360.619 245 359.5 243.881 359.5 242.5L360.5 241C360.5 241 361.172 241 362 241H433C433.828 241 434.5 241 434.5 241L435.5 242.5ZM362 245C360.619 245 359.5 243.881 359.5 242.5V223C359.5 221.619 360.619 220.5 362 220.5V221.5C361.172 221.5 360.5 222.172 360.5 223V241C360.5 241 361.172 241 362 241V245ZM433 220.5C434.381 220.5 435.5 221.619 435.5 223V242.5C435.5 243.881 434.381 245 433 245V241C433.828 241 434.5 241 434.5 241V223C434.5 222.172 433.828 221.5 433 221.5V220.5Z" fill="#FCD7D7" mask="url(#path-87-outside-3_1636_4827)"/>
<rect opacity="0.5" x="364" y="226" width="67" height="2" rx="1" fill="#EBA2A2"/>
<rect opacity="0.5" x="364" y="231" width="62.6774" height="2" rx="1" fill="#EBA2A2"/>
<rect opacity="0.5" x="364" y="236" width="42.1452" height="2" rx="1" fill="#EBA2A2"/>
<path d="M355 178.5C355 180.437 353.437 182 351.5 182C349.563 182 348 180.437 348 178.5C348 176.562 349.563 175 351.5 175C353.437 175 355 176.562 355 178.5Z" fill="#A0C6F8"/>
<mask id="path-93-outside-4_1636_4827" maskUnits="userSpaceOnUse" x="347" y="183" width="77" height="25" fill="black">
<rect fill="white" x="347" y="183" width="77" height="25"/>
<path d="M348 186C348 184.895 348.895 184 350 184H421C422.105 184 423 184.895 423 186V204C423 205.105 422.105 206 421 206H350C348.895 206 348 205.105 348 204V186Z"/>
</mask>
<path d="M348 186C348 184.895 348.895 184 350 184H421C422.105 184 423 184.895 423 186V204C423 205.105 422.105 206 421 206H350C348.895 206 348 205.105 348 204V186Z" fill="#EEF5FF"/>
<path d="M347.5 186C347.5 184.619 348.619 183.5 350 183.5H421C422.381 183.5 423.5 184.619 423.5 186H422.5C422.5 185.172 421.828 184.5 421 184.5H350C349.172 184.5 348.5 185.172 348.5 186H347.5ZM423.5 205.5C423.5 206.881 422.381 208 421 208H350C348.619 208 347.5 206.881 347.5 205.5L348.5 204C348.5 204 349.172 204 350 204H421C421.828 204 422.5 204 422.5 204L423.5 205.5ZM350 208C348.619 208 347.5 206.881 347.5 205.5V186C347.5 184.619 348.619 183.5 350 183.5V184.5C349.172 184.5 348.5 185.172 348.5 186V204C348.5 204 349.172 204 350 204V208ZM421 183.5C422.381 183.5 423.5 184.619 423.5 186V205.5C423.5 206.881 422.381 208 421 208V204C421.828 204 422.5 204 422.5 204V186C422.5 185.172 421.828 184.5 421 184.5V183.5Z" fill="#CFE1FC" mask="url(#path-93-outside-4_1636_4827)"/>
<rect opacity="0.5" x="352" y="189" width="67" height="2" rx="1" fill="#629FF0"/>
<rect opacity="0.5" x="352" y="194" width="62.6774" height="2" rx="1" fill="#629FF0"/>
<rect opacity="0.5" x="352" y="199" width="42.1452" height="2" rx="1" fill="#629FF0"/>
<rect x="347.25" y="255.25" width="74.5" height="10.5" rx="5.25" fill="#DDEBFF" stroke="#C8DDFB" stroke-width="0.5"/>
<rect x="425" y="255" width="10" height="10" rx="5" fill="#1A73E8"/>
<rect opacity="0.5" x="352" y="259" width="31" height="3" rx="1.5" fill="#629FF0"/>
<path d="M455 22V4.21456C455 1.85441 453.169 0 450.839 0H4.16057C1.83065 0 0 1.85441 0 4.21456V22H455Z" fill="#DDEBFF"/>
<path d="M413.566 10.8114C413.566 13.3894 411.487 15.4685 408.909 15.4685C406.331 15.4685 404.252 13.3894 404.252 10.8114C404.252 8.23335 406.331 6.1543 408.909 6.1543C411.487 6.1543 413.566 8.23335 413.566 10.8114Z" fill="#70B44A"/>
<path d="M429.367 10.8114C429.367 13.3894 427.288 15.4685 424.71 15.4685C422.132 15.4685 420.053 13.3894 420.053 10.8114C420.053 8.23335 422.132 6.1543 424.71 6.1543C427.288 6.1543 429.367 8.23335 429.367 10.8114Z" fill="#DDAB54"/>
<path d="M445.25 10.8114C445.25 13.3894 443.171 15.4685 440.593 15.4685C438.015 15.4685 435.936 13.3894 435.936 10.8114C435.936 8.23335 438.015 6.1543 440.593 6.1543C443.171 6.1543 445.25 8.23335 445.25 10.8114Z" fill="#D6655D"/>
<rect x="280.5" y="101.5" width="20" height="6" rx="3" fill="#A0C6F8" stroke="#A0C6F8"/>
<path d="M290.5 102H297.8C299.181 102 300.3 103.119 300.3 104.5C300.3 105.881 299.181 107 297.8 107H290.5V102Z" fill="white"/>
</svg>
