<svg width="455" height="281" viewBox="0 0 455 281" fill="none" xmlns="http://www.w3.org/2000/svg">
<path d="M27 22H455V276.84C455 279.138 453.138 281 450.84 281H27V22Z" fill="white"/>
<path d="M41 44H441V71H41V44Z" fill="#FAFCFF" stroke="#D4E7FF"/>
<rect y="22" width="455" height="12" fill="#F6F6F6"/>
<rect x="424" y="25" width="6" height="6" rx="2" fill="#CCCCCC"/>
<rect x="434" y="25" width="6" height="6" rx="2" fill="#CCCCCC"/>
<path d="M0 22H27V281H4.16C1.8625 281 0 279.138 0 276.84V22Z" fill="#1A2334"/>
<path fill-rule="evenodd" clip-rule="evenodd" d="M11.9739 34.8032L8.92041 39.0324H11.8446L13.4195 36.8777L11.9739 34.8032ZM14.5091 35.3871L12.8383 33.6059L15.6879 29.6592H18.6957L14.5091 35.3871Z" fill="#1A73E8"/>
<path d="M7 26.5645L15.6891 39.0342H18.6969L7 26.5645Z" fill="#1A73E8"/>
<rect x="0.00146484" y="46.4717" width="27" height="21.8569" fill="#29354A"/>
<rect opacity="0.3" x="9.56445" y="53.3018" width="8.19634" height="8.19634" rx="4.09817" fill="white"/>
<rect opacity="0.15" x="9" y="75.1592" width="8.19634" height="8.19634" rx="4.09817" fill="white"/>
<rect opacity="0.15" x="9" y="97.0137" width="8.19634" height="8.19634" rx="4.09817" fill="white"/>
<rect opacity="0.15" x="9" y="118.873" width="8.19634" height="8.19634" rx="4.09817" fill="white"/>
<rect opacity="0.15" x="9" y="140.729" width="8.19634" height="8.19634" rx="4.09817" fill="white"/>
<rect opacity="0.15" x="9" y="162.587" width="8.19634" height="8.19634" rx="4.09817" fill="white"/>
<rect opacity="0.15" x="9" y="184.442" width="8.19634" height="8.19634" rx="4.09817" fill="white"/>
<rect opacity="0.15" x="9" y="206.3" width="8.19634" height="8.19634" rx="4.09817" fill="white"/>
<path d="M41 81H141V272H41V81Z" fill="#FAFCFF" stroke="#D4E7FF"/>
<path d="M55 89.5C55 91.4375 53.4375 93 51.5 93C49.5625 93 48 91.4375 48 89.5C48 87.5625 49.5625 86 51.5 86C53.4375 86 55 87.5625 55 89.5Z" fill="#A0C6F8"/>
<mask id="path-20-outside-1_1685_2066" maskUnits="userSpaceOnUse" x="47" y="94" width="77" height="25" fill="black">
<rect fill="white" x="47" y="94" width="77" height="25"/>
<path d="M48 97C48 95.8954 48.8954 95 50 95H121C122.105 95 123 95.8954 123 97V115C123 116.105 122.105 117 121 117H50C48.8954 117 48 116.105 48 115V97Z"/>
</mask>
<path d="M48 97C48 95.8954 48.8954 95 50 95H121C122.105 95 123 95.8954 123 97V115C123 116.105 122.105 117 121 117H50C48.8954 117 48 116.105 48 115V97Z" fill="#EEF5FF"/>
<path d="M47.5 97C47.5 95.6193 48.6193 94.5 50 94.5H121C122.381 94.5 123.5 95.6193 123.5 97H122.5C122.5 96.1716 121.828 95.5 121 95.5H50C49.1716 95.5 48.5 96.1716 48.5 97H47.5ZM123.5 116.5C123.5 117.881 122.381 119 121 119H50C48.6193 119 47.5 117.881 47.5 116.5L48.5 115C48.5 115 49.1716 115 50 115H121C121.828 115 122.5 115 122.5 115L123.5 116.5ZM50 119C48.6193 119 47.5 117.881 47.5 116.5V97C47.5 95.6193 48.6193 94.5 50 94.5V95.5C49.1716 95.5 48.5 96.1716 48.5 97V115C48.5 115 49.1716 115 50 115V119ZM121 94.5C122.381 94.5 123.5 95.6193 123.5 97V116.5C123.5 117.881 122.381 119 121 119V115C121.828 115 122.5 115 122.5 115V97C122.5 96.1716 121.828 95.5 121 95.5V94.5Z" fill="#CFE1FC" mask="url(#path-20-outside-1_1685_2066)"/>
<rect opacity="0.5" x="52" y="100" width="67" height="2" rx="1" fill="#629FF0"/>
<rect opacity="0.5" x="52" y="105" width="62.6774" height="2" rx="1" fill="#629FF0"/>
<rect opacity="0.5" x="52" y="110" width="42.1452" height="2" rx="1" fill="#629FF0"/>
<path d="M135 126.5C135 128.437 133.437 130 131.5 130C129.563 130 128 128.437 128 126.5C128 124.562 129.563 123 131.5 123C133.437 123 135 124.562 135 126.5Z" fill="#F3C7C7"/>
<mask id="path-26-outside-2_1685_2066" maskUnits="userSpaceOnUse" x="59" y="131" width="77" height="25" fill="black">
<rect fill="white" x="59" y="131" width="77" height="25"/>
<path d="M60 134C60 132.895 60.8954 132 62 132H133C134.105 132 135 132.895 135 134V152C135 153.105 134.105 154 133 154H62C60.8954 154 60 153.105 60 152V134Z"/>
</mask>
<path d="M60 134C60 132.895 60.8954 132 62 132H133C134.105 132 135 132.895 135 134V152C135 153.105 134.105 154 133 154H62C60.8954 154 60 153.105 60 152V134Z" fill="#FFF5F5"/>
<path d="M59.5 134C59.5 132.619 60.6193 131.5 62 131.5H133C134.381 131.5 135.5 132.619 135.5 134H134.5C134.5 133.172 133.828 132.5 133 132.5H62C61.1716 132.5 60.5 133.172 60.5 134H59.5ZM135.5 153.5C135.5 154.881 134.381 156 133 156H62C60.6193 156 59.5 154.881 59.5 153.5L60.5 152C60.5 152 61.1716 152 62 152H133C133.828 152 134.5 152 134.5 152L135.5 153.5ZM62 156C60.6193 156 59.5 154.881 59.5 153.5V134C59.5 132.619 60.6193 131.5 62 131.5V132.5C61.1716 132.5 60.5 133.172 60.5 134V152C60.5 152 61.1716 152 62 152V156ZM133 131.5C134.381 131.5 135.5 132.619 135.5 134V153.5C135.5 154.881 134.381 156 133 156V152C133.828 152 134.5 152 134.5 152V134C134.5 133.172 133.828 132.5 133 132.5V131.5Z" fill="#FCD7D7" mask="url(#path-26-outside-2_1685_2066)"/>
<rect opacity="0.5" x="64" y="137" width="67" height="2" rx="1" fill="#EBA2A2"/>
<rect opacity="0.5" x="64" y="142" width="62.6774" height="2" rx="1" fill="#EBA2A2"/>
<rect opacity="0.5" x="64" y="147" width="42.1452" height="2" rx="1" fill="#EBA2A2"/>
<path d="M135 200.5C135 202.437 133.437 204 131.5 204C129.563 204 128 202.437 128 200.5C128 198.562 129.563 197 131.5 197C133.437 197 135 198.562 135 200.5Z" fill="#F3C7C7"/>
<mask id="path-32-outside-3_1685_2066" maskUnits="userSpaceOnUse" x="59" y="205" width="77" height="25" fill="black">
<rect fill="white" x="59" y="205" width="77" height="25"/>
<path d="M60 208C60 206.895 60.8954 206 62 206H133C134.105 206 135 206.895 135 208V226C135 227.105 134.105 228 133 228H62C60.8954 228 60 227.105 60 226V208Z"/>
</mask>
<path d="M60 208C60 206.895 60.8954 206 62 206H133C134.105 206 135 206.895 135 208V226C135 227.105 134.105 228 133 228H62C60.8954 228 60 227.105 60 226V208Z" fill="#FFF5F5"/>
<path d="M59.5 208C59.5 206.619 60.6193 205.5 62 205.5H133C134.381 205.5 135.5 206.619 135.5 208H134.5C134.5 207.172 133.828 206.5 133 206.5H62C61.1716 206.5 60.5 207.172 60.5 208H59.5ZM135.5 227.5C135.5 228.881 134.381 230 133 230H62C60.6193 230 59.5 228.881 59.5 227.5L60.5 226C60.5 226 61.1716 226 62 226H133C133.828 226 134.5 226 134.5 226L135.5 227.5ZM62 230C60.6193 230 59.5 228.881 59.5 227.5V208C59.5 206.619 60.6193 205.5 62 205.5V206.5C61.1716 206.5 60.5 207.172 60.5 208V226C60.5 226 61.1716 226 62 226V230ZM133 205.5C134.381 205.5 135.5 206.619 135.5 208V227.5C135.5 228.881 134.381 230 133 230V226C133.828 226 134.5 226 134.5 226V208C134.5 207.172 133.828 206.5 133 206.5V205.5Z" fill="#FCD7D7" mask="url(#path-32-outside-3_1685_2066)"/>
<rect opacity="0.5" x="64" y="211" width="67" height="2" rx="1" fill="#EBA2A2"/>
<rect opacity="0.5" x="64" y="216" width="62.6774" height="2" rx="1" fill="#EBA2A2"/>
<rect opacity="0.5" x="64" y="221" width="42.1452" height="2" rx="1" fill="#EBA2A2"/>
<path d="M55 163.5C55 165.437 53.4375 167 51.5 167C49.5625 167 48 165.437 48 163.5C48 161.562 49.5625 160 51.5 160C53.4375 160 55 161.562 55 163.5Z" fill="#A0C6F8"/>
<mask id="path-38-outside-4_1685_2066" maskUnits="userSpaceOnUse" x="47" y="168" width="77" height="25" fill="black">
<rect fill="white" x="47" y="168" width="77" height="25"/>
<path d="M48 171C48 169.895 48.8954 169 50 169H121C122.105 169 123 169.895 123 171V189C123 190.105 122.105 191 121 191H50C48.8954 191 48 190.105 48 189V171Z"/>
</mask>
<path d="M48 171C48 169.895 48.8954 169 50 169H121C122.105 169 123 169.895 123 171V189C123 190.105 122.105 191 121 191H50C48.8954 191 48 190.105 48 189V171Z" fill="#EEF5FF"/>
<path d="M47.5 171C47.5 169.619 48.6193 168.5 50 168.5H121C122.381 168.5 123.5 169.619 123.5 171H122.5C122.5 170.172 121.828 169.5 121 169.5H50C49.1716 169.5 48.5 170.172 48.5 171H47.5ZM123.5 190.5C123.5 191.881 122.381 193 121 193H50C48.6193 193 47.5 191.881 47.5 190.5L48.5 189C48.5 189 49.1716 189 50 189H121C121.828 189 122.5 189 122.5 189L123.5 190.5ZM50 193C48.6193 193 47.5 191.881 47.5 190.5V171C47.5 169.619 48.6193 168.5 50 168.5V169.5C49.1716 169.5 48.5 170.172 48.5 171V189C48.5 189 49.1716 189 50 189V193ZM121 168.5C122.381 168.5 123.5 169.619 123.5 171V190.5C123.5 191.881 122.381 193 121 193V189C121.828 189 122.5 189 122.5 189V171C122.5 170.172 121.828 169.5 121 169.5V168.5Z" fill="#CFE1FC" mask="url(#path-38-outside-4_1685_2066)"/>
<rect opacity="0.5" x="52" y="174" width="67" height="2" rx="1" fill="#629FF0"/>
<rect opacity="0.5" x="52" y="179" width="62.6774" height="2" rx="1" fill="#629FF0"/>
<rect opacity="0.5" x="52" y="184" width="42.1452" height="2" rx="1" fill="#629FF0"/>
<path d="M55 237.5C55 239.437 53.4375 241 51.5 241C49.5625 241 48 239.437 48 237.5C48 235.562 49.5625 234 51.5 234C53.4375 234 55 235.562 55 237.5Z" fill="#A0C6F8"/>
<mask id="path-44-outside-5_1685_2066" maskUnits="userSpaceOnUse" x="47" y="242" width="77" height="25" fill="black">
<rect fill="white" x="47" y="242" width="77" height="25"/>
<path d="M48 245C48 243.895 48.8954 243 50 243H121C122.105 243 123 243.895 123 245V263C123 264.105 122.105 265 121 265H50C48.8954 265 48 264.105 48 263V245Z"/>
</mask>
<path d="M48 245C48 243.895 48.8954 243 50 243H121C122.105 243 123 243.895 123 245V263C123 264.105 122.105 265 121 265H50C48.8954 265 48 264.105 48 263V245Z" fill="#EEF5FF"/>
<path d="M47.5 245C47.5 243.619 48.6193 242.5 50 242.5H121C122.381 242.5 123.5 243.619 123.5 245H122.5C122.5 244.172 121.828 243.5 121 243.5H50C49.1716 243.5 48.5 244.172 48.5 245H47.5ZM123.5 264.5C123.5 265.881 122.381 267 121 267H50C48.6193 267 47.5 265.881 47.5 264.5L48.5 263C48.5 263 49.1716 263 50 263H121C121.828 263 122.5 263 122.5 263L123.5 264.5ZM50 267C48.6193 267 47.5 265.881 47.5 264.5V245C47.5 243.619 48.6193 242.5 50 242.5V243.5C49.1716 243.5 48.5 244.172 48.5 245V263C48.5 263 49.1716 263 50 263V267ZM121 242.5C122.381 242.5 123.5 243.619 123.5 245V264.5C123.5 265.881 122.381 267 121 267V263C121.828 263 122.5 263 122.5 263V245C122.5 244.172 121.828 243.5 121 243.5V242.5Z" fill="#CFE1FC" mask="url(#path-44-outside-5_1685_2066)"/>
<rect opacity="0.5" x="52" y="248" width="67" height="2" rx="1" fill="#629FF0"/>
<rect opacity="0.5" x="52" y="253" width="62.6774" height="2" rx="1" fill="#629FF0"/>
<rect opacity="0.5" x="52" y="258" width="42.1452" height="2" rx="1" fill="#629FF0"/>
<path d="M151 81H441V96H151V81Z" fill="#FAFCFF" stroke="#D4E7FF"/>
<rect opacity="0.5" x="157" y="87" width="41" height="3" rx="1.5" fill="#629FF0"/>
<rect opacity="0.5" x="410" y="87" width="25" height="3" rx="1.5" fill="#629FF0"/>
<rect opacity="0.5" x="379" y="87" width="25" height="3" rx="1.5" fill="#629FF0"/>
<path d="M151 104H441V117H151V104Z" fill="#F4F9FF" stroke="#D4E7FF"/>
<path d="M151 116.742H441V155.742H151V116.742Z" fill="white"/>
<path d="M151 116.742V116.242H150.5V116.742H151ZM441 116.742H441.5V116.242H441V116.742ZM441 155.742V156.742H441.5V155.742H441ZM151 155.742H150.5V156.742H151V155.742ZM151 117.242H441V116.242H151V117.242ZM440.5 116.742V155.742H441.5V116.742H440.5ZM441 154.742H151V156.742H441V154.742ZM151.5 155.742V116.742H150.5V155.742H151.5Z" fill="#D4E7FF"/>
<rect opacity="0.3" x="157" y="126.736" width="113" height="2.7486" rx="1.3743" fill="#629FF0"/>
<rect x="282.522" y="122.675" width="55.9563" height="10.8669" rx="2.47817" fill="#F4F9FF" stroke="#D4E7FF" stroke-width="1.04367"/>
<rect opacity="0.3" x="288" y="126.734" width="46" height="2.7486" rx="1.3743" fill="#629FF0"/>
<rect x="344.522" y="122.675" width="55.9563" height="10.8669" rx="2.47817" fill="#F4F9FF" stroke="#D4E7FF" stroke-width="1.04367"/>
<rect opacity="0.3" x="350" y="126.734" width="46" height="2.7486" rx="1.3743" fill="#629FF0"/>
<rect x="406" y="122.153" width="29" height="11.9106" rx="2" fill="#DDEBFF"/>
<rect x="412.214" y="126.734" width="16.5714" height="2.7486" rx="1.3743" fill="#A0C6F8"/>
<rect opacity="0.3" x="157" y="142.646" width="113" height="2.7486" rx="1.3743" fill="#629FF0"/>
<rect x="282.522" y="138.675" width="55.9563" height="10.8669" rx="2.47817" fill="#F4F9FF" stroke="#D4E7FF" stroke-width="1.04367"/>
<rect opacity="0.3" x="288" y="142.734" width="46" height="2.7486" rx="1.3743" fill="#629FF0"/>
<rect x="344.522" y="138.675" width="55.9563" height="10.8669" rx="2.47817" fill="#F4F9FF" stroke="#D4E7FF" stroke-width="1.04367"/>
<rect opacity="0.3" x="350" y="142.734" width="46" height="2.7486" rx="1.3743" fill="#629FF0"/>
<rect x="406" y="138.064" width="29" height="11.9106" rx="2" fill="#DDEBFF"/>
<rect x="412.214" y="142.646" width="16.5714" height="2.7486" rx="1.3743" fill="#A0C6F8"/>
<rect opacity="0.5" x="157" y="109" width="41" height="3" rx="1.5" fill="#629FF0"/>
<rect opacity="0.5" x="410" y="109" width="25" height="3" rx="1.5" fill="#629FF0"/>
<path d="M151 163.742H441V176.742H151V163.742Z" fill="#F4F9FF" stroke="#D4E7FF"/>
<path d="M151 176.484H441V215.484H151V176.484Z" fill="white"/>
<path d="M151 176.484V175.984H150.5V176.484H151ZM441 176.484H441.5V175.984H441V176.484ZM441 215.484V216.484H441.5V215.484H441ZM151 215.484H150.5V216.484H151V215.484ZM151 176.984H441V175.984H151V176.984ZM440.5 176.484V215.484H441.5V176.484H440.5ZM441 214.484H151V216.484H441V214.484ZM151.5 215.484V176.484H150.5V215.484H151.5Z" fill="#D4E7FF"/>
<rect opacity="0.3" x="157" y="186.479" width="113" height="2.7486" rx="1.3743" fill="#629FF0"/>
<rect x="282.522" y="182.675" width="55.9563" height="10.8669" rx="2.47817" fill="#F4F9FF" stroke="#D4E7FF" stroke-width="1.04367"/>
<rect opacity="0.3" x="288" y="186.734" width="46" height="2.7486" rx="1.3743" fill="#629FF0"/>
<rect x="344.522" y="182.675" width="55.9563" height="10.8669" rx="2.47817" fill="#F4F9FF" stroke="#D4E7FF" stroke-width="1.04367"/>
<rect opacity="0.3" x="350" y="186.734" width="46" height="2.7486" rx="1.3743" fill="#629FF0"/>
<rect x="406" y="181.896" width="29" height="11.9106" rx="2" fill="#DDEBFF"/>
<rect x="412.214" y="186.477" width="16.5714" height="2.7486" rx="1.3743" fill="#A0C6F8"/>
<rect opacity="0.3" x="157" y="202.389" width="113" height="2.7486" rx="1.3743" fill="#629FF0"/>
<rect x="282.522" y="198.675" width="55.9563" height="10.8669" rx="2.47817" fill="#F4F9FF" stroke="#D4E7FF" stroke-width="1.04367"/>
<rect opacity="0.3" x="288" y="202.734" width="46" height="2.7486" rx="1.3743" fill="#629FF0"/>
<rect x="344.522" y="198.675" width="55.9563" height="10.8669" rx="2.47817" fill="#F4F9FF" stroke="#D4E7FF" stroke-width="1.04367"/>
<rect opacity="0.3" x="350" y="202.734" width="46" height="2.7486" rx="1.3743" fill="#629FF0"/>
<rect x="406" y="197.807" width="29" height="11.9106" rx="2" fill="#DDEBFF"/>
<rect x="412.214" y="202.388" width="16.5714" height="2.7486" rx="1.3743" fill="#A0C6F8"/>
<rect opacity="0.5" x="157" y="168.742" width="41" height="3" rx="1.5" fill="#629FF0"/>
<rect opacity="0.5" x="410" y="168.742" width="25" height="3" rx="1.5" fill="#629FF0"/>
<path d="M151 223.484H441V236.484H151V223.484Z" fill="#FAFCFF" stroke="#D4E7FF"/>
<path d="M151 236H441V272H151V236Z" fill="white"/>
<path d="M151 236V235.5H150.5V236H151ZM441 236H441.5V235.5H441V236ZM441 272V273H441.5V272H441ZM151 272H150.5V273H151V272ZM151 236.5H441V235.5H151V236.5ZM440.5 236V272H441.5V236H440.5ZM441 271H151V273H441V271ZM151.5 272V236H150.5V272H151.5Z" fill="#D4E7FF"/>
<path d="M164 248.5C164 250.437 162.437 252 160.5 252C158.563 252 157 250.437 157 248.5C157 246.562 158.563 245 160.5 245C162.437 245 164 246.562 164 248.5Z" fill="#A0C6F8"/>
<mask id="path-95-outside-6_1685_2066" maskUnits="userSpaceOnUse" x="166" y="244" width="126" height="21" fill="black">
<rect fill="white" x="166" y="244" width="126" height="21"/>
<path d="M167 247C167 245.895 167.895 245 169 245H289C290.105 245 291 245.895 291 247V261C291 262.105 290.105 263 289 263H169C167.895 263 167 262.105 167 261V247Z"/>
</mask>
<path d="M167 247C167 245.895 167.895 245 169 245H289C290.105 245 291 245.895 291 247V261C291 262.105 290.105 263 289 263H169C167.895 263 167 262.105 167 261V247Z" fill="#EEF5FF"/>
<path d="M166.5 247C166.5 245.619 167.619 244.5 169 244.5H289C290.381 244.5 291.5 245.619 291.5 247H290.5C290.5 246.172 289.828 245.5 289 245.5H169C168.172 245.5 167.5 246.172 167.5 247H166.5ZM291.5 262.5C291.5 263.881 290.381 265 289 265H169C167.619 265 166.5 263.881 166.5 262.5L167.5 261C167.5 261 168.172 261 169 261H289C289.828 261 290.5 261 290.5 261L291.5 262.5ZM169 265C167.619 265 166.5 263.881 166.5 262.5V247C166.5 245.619 167.619 244.5 169 244.5V245.5C168.172 245.5 167.5 246.172 167.5 247V261C167.5 261 168.172 261 169 261V265ZM289 244.5C290.381 244.5 291.5 245.619 291.5 247V262.5C291.5 263.881 290.381 265 289 265V261C289.828 261 290.5 261 290.5 261V247C290.5 246.172 289.828 245.5 289 245.5V244.5Z" fill="#CFE1FC" mask="url(#path-95-outside-6_1685_2066)"/>
<rect opacity="0.5" x="171" y="251" width="116" height="2" rx="1" fill="#629FF0"/>
<rect opacity="0.5" x="171" y="256" width="67" height="2" rx="1" fill="#629FF0"/>
<path d="M435 248.5C435 250.437 433.437 252 431.5 252C429.563 252 428 250.437 428 248.5C428 246.562 429.563 245 431.5 245C433.437 245 435 246.562 435 248.5Z" fill="#F3C7C7"/>
<mask id="path-100-outside-7_1685_2066" maskUnits="userSpaceOnUse" x="300" y="244.516" width="126" height="21" fill="black">
<rect fill="white" x="300" y="244.516" width="126" height="21"/>
<path d="M301 247.516C301 246.411 301.895 245.516 303 245.516H423C424.105 245.516 425 246.411 425 247.516V261.516C425 262.62 424.105 263.516 423 263.516H303C301.895 263.516 301 262.62 301 261.516V247.516Z"/>
</mask>
<path d="M301 247.516C301 246.411 301.895 245.516 303 245.516H423C424.105 245.516 425 246.411 425 247.516V261.516C425 262.62 424.105 263.516 423 263.516H303C301.895 263.516 301 262.62 301 261.516V247.516Z" fill="#FFF5F5"/>
<path d="M300.5 247.516C300.5 246.135 301.619 245.016 303 245.016H423C424.381 245.016 425.5 246.135 425.5 247.516H424.5C424.5 246.687 423.828 246.016 423 246.016H303C302.172 246.016 301.5 246.687 301.5 247.516H300.5ZM425.5 263.016C425.5 264.396 424.381 265.516 423 265.516H303C301.619 265.516 300.5 264.396 300.5 263.016L301.5 261.516C301.5 261.516 302.172 261.516 303 261.516H423C423.828 261.516 424.5 261.516 424.5 261.516L425.5 263.016ZM303 265.516C301.619 265.516 300.5 264.396 300.5 263.016V247.516C300.5 246.135 301.619 245.016 303 245.016V246.016C302.172 246.016 301.5 246.687 301.5 247.516V261.516C301.5 261.516 302.172 261.516 303 261.516V265.516ZM423 245.016C424.381 245.016 425.5 246.135 425.5 247.516V263.016C425.5 264.396 424.381 265.516 423 265.516V261.516C423.828 261.516 424.5 261.516 424.5 261.516V247.516C424.5 246.687 423.828 246.016 423 246.016V245.016Z" fill="#FCD7D7" mask="url(#path-100-outside-7_1685_2066)"/>
<rect opacity="0.5" x="305" y="251" width="116" height="2" rx="1" fill="#EBA2A2"/>
<rect opacity="0.5" x="305" y="256" width="85" height="2" rx="1" fill="#EBA2A2"/>
<rect opacity="0.5" x="157" y="228.484" width="41" height="3" rx="1.5" fill="#629FF0"/>
<rect opacity="0.5" x="410" y="228.484" width="25" height="3" rx="1.5" fill="#629FF0"/>
<rect opacity="0.5" x="47" y="53" width="25.22" height="3" rx="1.5" fill="#629FF0"/>
<rect opacity="0.3" x="47" y="60" width="48.5" height="3" rx="1.5" fill="#629FF0"/>
<rect opacity="0.5" x="114.9" y="53" width="25.22" height="3" rx="1.5" fill="#629FF0"/>
<rect opacity="0.3" x="114.9" y="60" width="48.5" height="3" rx="1.5" fill="#629FF0"/>
<rect opacity="0.5" x="182.8" y="53" width="25.22" height="3" rx="1.5" fill="#629FF0"/>
<rect opacity="0.3" x="182.8" y="60" width="48.5" height="3" rx="1.5" fill="#629FF0"/>
<rect opacity="0.5" x="250.7" y="53" width="25.22" height="3" rx="1.5" fill="#629FF0"/>
<rect opacity="0.3" x="250.7" y="60" width="48.5" height="3" rx="1.5" fill="#629FF0"/>
<rect opacity="0.5" x="318.6" y="53" width="25.22" height="3" rx="1.5" fill="#629FF0"/>
<rect opacity="0.3" x="318.6" y="60" width="48.5" height="3" rx="1.5" fill="#629FF0"/>
<rect opacity="0.5" x="386.5" y="53" width="25.22" height="3" rx="1.5" fill="#629FF0"/>
<rect opacity="0.3" x="386.5" y="60" width="48.5" height="3" rx="1.5" fill="#629FF0"/>
<path d="M455 22V4.21456C455 1.85441 453.169 0 450.839 0H4.16057C1.83065 0 0 1.85441 0 4.21456V22H455Z" fill="#DDEBFF"/>
<path d="M413.566 10.8114C413.566 13.3894 411.487 15.4685 408.909 15.4685C406.331 15.4685 404.252 13.3894 404.252 10.8114C404.252 8.23335 406.331 6.1543 408.909 6.1543C411.487 6.1543 413.566 8.23335 413.566 10.8114Z" fill="#70B44A"/>
<path d="M429.367 10.8114C429.367 13.3894 427.288 15.4685 424.71 15.4685C422.132 15.4685 420.053 13.3894 420.053 10.8114C420.053 8.23335 422.132 6.1543 424.71 6.1543C427.288 6.1543 429.367 8.23335 429.367 10.8114Z" fill="#DDAB54"/>
<path d="M445.25 10.8114C445.25 13.3894 443.171 15.4685 440.593 15.4685C438.015 15.4685 435.936 13.3894 435.936 10.8114C435.936 8.23335 438.015 6.1543 440.593 6.1543C443.171 6.1543 445.25 8.23335 445.25 10.8114Z" fill="#D6655D"/>
</svg>
