<svg width="455" height="281" viewBox="0 0 455 281" fill="none" xmlns="http://www.w3.org/2000/svg">
<g clip-path="url(#clip0_1742_1817)">
<g filter="url(#filter0_d_1742_1817)">
<path d="M27 22H455V281H27V22Z" fill="white"/>
<rect y="22" width="455" height="12" fill="#F6F6F6"/>
<rect x="424" y="25" width="6" height="6" rx="2" fill="#CCCCCC"/>
<rect x="434" y="25" width="6" height="6" rx="2" fill="#CCCCCC"/>
<path d="M0 22H27V281H4.16C1.8625 281 0 279.138 0 276.84V22Z" fill="#1A2334"/>
<path fill-rule="evenodd" clip-rule="evenodd" d="M11.9739 34.8032L8.92041 39.0324H11.8446L13.4195 36.8777L11.9739 34.8032ZM14.5091 35.3871L12.8383 33.6059L15.6879 29.6592H18.6957L14.5091 35.3871Z" fill="#1A73E8"/>
<path d="M7 26.5645L15.6891 39.0342H18.6969L7 26.5645Z" fill="#1A73E8"/>
<rect x="0.00146484" y="46.4717" width="27" height="21.8569" fill="#29354A"/>
<rect opacity="0.3" x="9.56445" y="53.3018" width="8.19634" height="8.19634" rx="4.09817" fill="white"/>
<rect opacity="0.15" x="9" y="75.1592" width="8.19634" height="8.19634" rx="4.09817" fill="white"/>
<rect opacity="0.15" x="9" y="97.0137" width="8.19634" height="8.19634" rx="4.09817" fill="white"/>
<rect opacity="0.15" x="9" y="118.873" width="8.19634" height="8.19634" rx="4.09817" fill="white"/>
<rect opacity="0.15" x="9" y="140.729" width="8.19634" height="8.19634" rx="4.09817" fill="white"/>
<rect opacity="0.15" x="9" y="162.587" width="8.19634" height="8.19634" rx="4.09817" fill="white"/>
<rect opacity="0.15" x="9" y="184.442" width="8.19634" height="8.19634" rx="4.09817" fill="white"/>
<rect opacity="0.15" x="9" y="206.3" width="8.19634" height="8.19634" rx="4.09817" fill="white"/>
<rect x="41" y="95" width="143" height="34" fill="#EEF5FF" stroke="#D5E7FF" stroke-width="1.04367"/>
<rect opacity="0.5" x="46.0503" y="111" width="44.3732" height="3" rx="1.5" fill="#629FF0"/>
<rect width="143" height="23" transform="matrix(1 0 0 -1 41 152)" stroke="#D5E7FF"/>
<rect x="175" y="136" width="2" height="2" rx="1" fill="#1A73E8"/>
<rect x="175" y="140" width="2" height="2" rx="1" fill="#1A73E8"/>
<rect x="175" y="144" width="2" height="2" rx="1" fill="#1A73E8"/>
<rect opacity="0.3" x="46" y="135" width="69" height="3" rx="1.5" fill="#629FF0"/>
<rect opacity="0.3" x="46" y="143" width="19" height="3" rx="1.5" fill="#629FF0"/>
<rect width="143" height="23" transform="matrix(1 0 0 -1 41 175)" stroke="#D5E7FF"/>
<rect x="175" y="159" width="2" height="2" rx="1" fill="#1A73E8"/>
<rect x="175" y="163" width="2" height="2" rx="1" fill="#1A73E8"/>
<rect x="175" y="167" width="2" height="2" rx="1" fill="#1A73E8"/>
<rect opacity="0.3" x="46" y="158" width="69" height="3" rx="1.5" fill="#629FF0"/>
<rect opacity="0.3" x="46" y="166" width="19" height="3" rx="1.5" fill="#629FF0"/>
<rect width="143" height="23" transform="matrix(1 0 0 -1 41 198)" stroke="#D5E7FF"/>
<rect x="175" y="182" width="2" height="2" rx="1" fill="#1A73E8"/>
<rect x="175" y="186" width="2" height="2" rx="1" fill="#1A73E8"/>
<rect x="175" y="190" width="2" height="2" rx="1" fill="#1A73E8"/>
<rect opacity="0.3" x="46" y="181" width="69" height="3" rx="1.5" fill="#629FF0"/>
<rect opacity="0.3" x="46" y="189" width="19" height="3" rx="1.5" fill="#629FF0"/>
<rect width="143" height="23" transform="matrix(1 0 0 -1 41 221)" stroke="#D5E7FF"/>
<rect x="175" y="205" width="2" height="2" rx="1" fill="#1A73E8"/>
<rect x="175" y="209" width="2" height="2" rx="1" fill="#1A73E8"/>
<rect x="175" y="213" width="2" height="2" rx="1" fill="#1A73E8"/>
<rect opacity="0.3" x="46" y="204" width="69" height="3" rx="1.5" fill="#629FF0"/>
<rect opacity="0.3" x="46" y="212" width="19" height="3" rx="1.5" fill="#629FF0"/>
<rect x="184" y="95" width="170" height="34" fill="#EEF5FF" stroke="#D5E7FF" stroke-width="1.04367"/>
<rect opacity="0.5" x="189.05" y="102" width="44.3732" height="3" rx="1.5" fill="#629FF0"/>
<rect x="189.522" y="109.522" width="158.956" height="12.9563" rx="2.47817" fill="white" stroke="#D4E7FF" stroke-width="1.04367"/>
<rect opacity="0.3" x="193.615" y="115" width="46.8942" height="3" rx="1.5" fill="#629FF0"/>
<rect width="170" height="23" transform="matrix(1 0 0 -1 184 152)" stroke="#D5E7FF"/>
<rect x="338" y="138" width="11" height="5" rx="2.5" fill="#C6DEFD"/>
<rect x="333.5" y="136.5" width="8" height="8" rx="4" fill="white" stroke="#C6DEFD"/>
<rect opacity="0.3" x="189" y="135" width="69" height="3" rx="1.5" fill="#629FF0"/>
<rect opacity="0.3" x="189" y="143" width="19" height="3" rx="1.5" fill="#629FF0"/>
<rect width="170" height="23" transform="matrix(1 0 0 -1 184 175)" stroke="#D5E7FF"/>
<rect width="11" height="5" rx="2.5" transform="matrix(-1 0 0 1 344 161)" fill="#FEC80E"/>
<rect x="-0.5" y="0.5" width="8" height="8" rx="4" transform="matrix(-1 0 0 1 348 159)" fill="#FE9E0E" stroke="#F29220"/>
<rect opacity="0.3" x="189" y="158" width="69" height="3" rx="1.5" fill="#629FF0"/>
<rect opacity="0.3" x="189" y="166" width="19" height="3" rx="1.5" fill="#629FF0"/>
<rect width="170" height="23" transform="matrix(1 0 0 -1 184 198)" stroke="#D5E7FF"/>
<rect x="338" y="184" width="11" height="5" rx="2.5" fill="#C6DEFD"/>
<rect x="333.5" y="182.5" width="8" height="8" rx="4" fill="white" stroke="#C6DEFD"/>
<rect opacity="0.3" x="189" y="181" width="69" height="3" rx="1.5" fill="#629FF0"/>
<rect opacity="0.3" x="189" y="189" width="19" height="3" rx="1.5" fill="#629FF0"/>
<rect width="170" height="23" transform="matrix(1 0 0 -1 184 221)" stroke="#D5E7FF"/>
<rect x="338" y="207" width="11" height="5" rx="2.5" fill="#C6DEFD"/>
<rect x="333.5" y="205.5" width="8" height="8" rx="4" fill="white" stroke="#C6DEFD"/>
<rect opacity="0.3" x="189" y="204" width="69" height="3" rx="1.5" fill="#629FF0"/>
<rect opacity="0.3" x="189" y="212" width="19" height="3" rx="1.5" fill="#629FF0"/>
<rect width="170" height="23" transform="matrix(1 0 0 -1 184 244)" stroke="#D5E7FF"/>
<rect x="338" y="230" width="11" height="5" rx="2.5" fill="#C6DEFD"/>
<rect x="333.5" y="228.5" width="8" height="8" rx="4" fill="white" stroke="#C6DEFD"/>
<rect opacity="0.3" x="189" y="227" width="69" height="3" rx="1.5" fill="#629FF0"/>
<rect opacity="0.3" x="189" y="235" width="19" height="3" rx="1.5" fill="#629FF0"/>
<rect width="170" height="23" transform="matrix(1 0 0 -1 184 267)" stroke="#D5E7FF"/>
<rect x="338" y="253" width="11" height="5" rx="2.5" fill="#C6DEFD"/>
<rect x="333.5" y="251.5" width="8" height="8" rx="4" fill="white" stroke="#C6DEFD"/>
<rect opacity="0.3" x="189" y="250" width="69" height="3" rx="1.5" fill="#629FF0"/>
<rect opacity="0.3" x="189" y="258" width="19" height="3" rx="1.5" fill="#629FF0"/>
<g filter="url(#filter1_d_1742_1817)">
<rect x="259" y="194" width="174" height="68" rx="6" fill="white"/>
</g>
<path d="M259 201C259 197.134 262.134 194 266 194H426C429.866 194 433 197.134 433 201V211H259V201Z" fill="#D4E7FF"/>
<path d="M423 202.5C423 203.884 421.884 205 420.5 205C419.116 205 418 203.884 418 202.5C418 201.116 419.116 200 420.5 200C421.884 200 423 201.116 423 202.5Z" fill="#B1D0F8"/>
<rect opacity="0.5" x="269" y="201" width="44.3732" height="3" rx="1.5" fill="#629FF0"/>
<rect x="269.522" y="218.522" width="104.956" height="12.9563" rx="2.47817" fill="white" stroke="#D4E7FF" stroke-width="1.04367"/>
<rect opacity="0.3" x="274.817" y="224" width="28.1515" height="3" rx="1.5" fill="#629FF0"/>
<rect width="11" height="5" rx="2.5" transform="matrix(-1 0 0 1 365 223)" fill="#FEC80E"/>
<rect x="-0.5" y="0.5" width="8" height="8" rx="4" transform="matrix(-1 0 0 1 369 221)" fill="#FE9E0E" stroke="#F29220"/>
<rect x="383.522" y="218.522" width="38.9563" height="12.9563" rx="2.47817" fill="white" stroke="#D4E7FF" stroke-width="1.04367"/>
<rect opacity="0.3" x="388.816" y="224" width="28.1515" height="3" rx="1.5" fill="#629FF0"/>
<rect width="42" height="13" rx="6.5" transform="matrix(-1 0 0 1 344 240)" fill="#1A73E8"/>
<rect width="24" height="3" rx="1.5" transform="matrix(-1 0 0 1 335 245)" fill="white" fill-opacity="0.5"/>
<rect width="42" height="13" rx="6.5" transform="matrix(-1 0 0 1 391 240)" fill="#DDEBFF"/>
<rect opacity="0.5" width="24" height="3" rx="1.5" transform="matrix(-1 0 0 1 382 245)" fill="#629FF0"/>
<rect opacity="0.5" x="41" y="76" width="148" height="3" rx="1.5" fill="#EDB4B4"/>
<rect x="41.5218" y="49.5218" width="122.785" height="12.9563" rx="2.47817" fill="white" stroke="#D4E7FF" stroke-width="1.04367"/>
<rect opacity="0.3" x="45.6919" y="55" width="46.8942" height="3" rx="1.5" fill="#629FF0"/>
<rect x="179.446" y="49.5218" width="122.785" height="12.9563" rx="2.47817" fill="white" stroke="#D4E7FF" stroke-width="1.04367"/>
<rect opacity="0.3" x="183.615" y="55" width="46.8942" height="3" rx="1.5" fill="#629FF0"/>
<rect x="317.693" y="49.5218" width="122.785" height="12.9563" rx="2.47817" fill="white" stroke="#D4E7FF" stroke-width="1.04367"/>
<rect opacity="0.3" x="321.863" y="55" width="46.8942" height="3" rx="1.5" fill="#629FF0"/>
<path d="M455 22V4.21456C455 1.85441 453.169 0 450.839 0H4.16057C1.83065 0 0 1.85441 0 4.21456V22H455Z" fill="#DDEBFF"/>
<path d="M413.566 10.8114C413.566 13.3894 411.487 15.4685 408.909 15.4685C406.331 15.4685 404.252 13.3894 404.252 10.8114C404.252 8.23335 406.331 6.1543 408.909 6.1543C411.487 6.1543 413.566 8.23335 413.566 10.8114Z" fill="#70B44A"/>
<path d="M429.367 10.8114C429.367 13.3894 427.288 15.4685 424.71 15.4685C422.132 15.4685 420.053 13.3894 420.053 10.8114C420.053 8.23335 422.132 6.1543 424.71 6.1543C427.288 6.1543 429.367 8.23335 429.367 10.8114Z" fill="#DDAB54"/>
<path d="M445.25 10.8114C445.25 13.3894 443.171 15.4685 440.593 15.4685C438.015 15.4685 435.936 13.3894 435.936 10.8114C435.936 8.23335 438.015 6.1543 440.593 6.1543C443.171 6.1543 445.25 8.23335 445.25 10.8114Z" fill="#D6655D"/>
</g>
</g>
<defs>
<filter id="filter0_d_1742_1817" x="-120" y="-115.615" width="695" height="521" filterUnits="userSpaceOnUse" color-interpolation-filters="sRGB">
<feFlood flood-opacity="0" result="BackgroundImageFix"/>
<feColorMatrix in="SourceAlpha" type="matrix" values="0 0 0 0 0 0 0 0 0 0 0 0 0 0 0 0 0 0 127 0" result="hardAlpha"/>
<feOffset dy="4.38455"/>
<feGaussianBlur stdDeviation="60"/>
<feComposite in2="hardAlpha" operator="out"/>
<feColorMatrix type="matrix" values="0 0 0 0 0 0 0 0 0 0 0 0 0 0 0 0 0 0 0.15 0"/>
<feBlend mode="normal" in2="BackgroundImageFix" result="effect1_dropShadow_1742_1817"/>
<feBlend mode="normal" in="SourceGraphic" in2="effect1_dropShadow_1742_1817" result="shape"/>
</filter>
<filter id="filter1_d_1742_1817" x="229" y="168.385" width="234" height="128" filterUnits="userSpaceOnUse" color-interpolation-filters="sRGB">
<feFlood flood-opacity="0" result="BackgroundImageFix"/>
<feColorMatrix in="SourceAlpha" type="matrix" values="0 0 0 0 0 0 0 0 0 0 0 0 0 0 0 0 0 0 127 0" result="hardAlpha"/>
<feOffset dy="4.38455"/>
<feGaussianBlur stdDeviation="15"/>
<feComposite in2="hardAlpha" operator="out"/>
<feColorMatrix type="matrix" values="0 0 0 0 0 0 0 0 0 0 0 0 0 0 0 0 0 0 0.25 0"/>
<feBlend mode="normal" in2="BackgroundImageFix" result="effect1_dropShadow_1742_1817"/>
<feBlend mode="normal" in="SourceGraphic" in2="effect1_dropShadow_1742_1817" result="shape"/>
</filter>
<clipPath id="clip0_1742_1817">
<rect width="455" height="281" fill="white"/>
</clipPath>
</defs>
</svg>
