<svg width="455" height="281" viewBox="0 0 455 281" fill="none" xmlns="http://www.w3.org/2000/svg">
<path d="M0 22H27V281H4.16C1.8625 281 0 279.138 0 276.84V22Z" fill="#1A2334"/>
<path fill-rule="evenodd" clip-rule="evenodd" d="M11.9739 34.8032L8.92041 39.0324H11.8446L13.4195 36.8777L11.9739 34.8032ZM14.5091 35.3871L12.8383 33.6059L15.6879 29.6592H18.6957L14.5091 35.3871Z" fill="#1A73E8"/>
<path d="M7 26.5645L15.6891 39.0342H18.6969L7 26.5645Z" fill="#1A73E8"/>
<rect x="0.00146484" y="46.4717" width="27" height="21.8569" fill="#29354A"/>
<rect opacity="0.3" x="9.56445" y="53.3018" width="8.19634" height="8.19634" rx="4.09817" fill="white"/>
<rect opacity="0.15" x="9" y="75.1592" width="8.19634" height="8.19634" rx="4.09817" fill="white"/>
<rect opacity="0.15" x="9" y="97.0137" width="8.19634" height="8.19634" rx="4.09817" fill="white"/>
<rect opacity="0.15" x="9" y="118.873" width="8.19634" height="8.19634" rx="4.09817" fill="white"/>
<rect opacity="0.15" x="9" y="140.729" width="8.19634" height="8.19634" rx="4.09817" fill="white"/>
<rect opacity="0.15" x="9" y="162.587" width="8.19634" height="8.19634" rx="4.09817" fill="white"/>
<rect opacity="0.15" x="9" y="184.442" width="8.19634" height="8.19634" rx="4.09817" fill="white"/>
<rect opacity="0.15" x="9" y="206.3" width="8.19634" height="8.19634" rx="4.09817" fill="white"/>
<path d="M27 22H455V276.84C455 279.138 453.138 281 450.84 281H27V22Z" fill="white"/>
<rect x="27" y="22" width="428" height="12" fill="#F6F6F6"/>
<rect x="424" y="25" width="6" height="6" rx="2" fill="#CCCCCC"/>
<rect x="434" y="25" width="6" height="6" rx="2" fill="#CCCCCC"/>
<path d="M42 87.8469C42 87.3382 42.4134 86.9258 42.9234 86.9258H439.077C439.587 86.9258 440 87.3382 440 87.8469V95.2158C440 95.7245 439.587 96.1369 439.077 96.1369H42.9234C42.4134 96.1369 42 95.7245 42 95.2158V87.8469Z" fill="url(#paint0_linear_1685_1866)"/>
<rect opacity="0.3" x="42" y="77" width="37.9615" height="4" rx="2" fill="#0A58BE"/>
<rect opacity="0.3" x="74" y="99" width="30" height="3" rx="1.5" fill="#629FF0"/>
<rect opacity="0.3" x="177" y="99" width="30" height="3" rx="1.5" fill="#629FF0"/>
<rect opacity="0.3" x="273" y="99" width="30" height="3" rx="1.5" fill="#629FF0"/>
<rect opacity="0.3" x="345" y="99" width="30" height="3" rx="1.5" fill="#629FF0"/>
<rect opacity="0.3" x="395" y="99" width="30" height="3" rx="1.5" fill="#629FF0"/>
<path fill-rule="evenodd" clip-rule="evenodd" d="M364 96.1369L364 86.9258L367 86.9258L367 96.1369L364 96.1369Z" fill="white"/>
<path d="M371 82.5C371 85.5376 368.538 88 365.5 88C362.462 88 360 85.5376 360 82.5C360 79.4624 362.462 77 365.5 77C368.538 77 371 79.4624 371 82.5Z" fill="#1A73E8"/>
<rect x="42.5218" y="124.522" width="70.5963" height="36.9563" rx="2.47817" fill="#F7FAFF" stroke="#DEECFF" stroke-width="1.04367"/>
<rect x="71.8501" y="131" width="11.94" height="12" rx="5.97" fill="#349C7C"/>
<rect opacity="0.3" x="69.8599" y="147" width="15.92" height="3" rx="1.5" fill="#0A58BE"/>
<rect opacity="0.3" x="57.9204" y="152" width="39.8" height="3" rx="1.5" fill="#629FF0"/>
<rect x="124.112" y="124.522" width="70.5963" height="36.9563" rx="2.47817" fill="#F7FAFF" stroke="#DEECFF" stroke-width="1.04367"/>
<rect x="153.44" y="131" width="11.94" height="12" rx="5.97" fill="#A37CFC"/>
<rect opacity="0.3" x="151.45" y="147" width="15.92" height="3" rx="1.5" fill="#0A58BE"/>
<rect opacity="0.3" x="139.51" y="152" width="39.8" height="3" rx="1.5" fill="#629FF0"/>
<rect x="205.702" y="124.522" width="70.5963" height="36.9563" rx="2.47817" fill="#F7FAFF" stroke="#DEECFF" stroke-width="1.04367"/>
<rect x="235.03" y="131" width="11.94" height="12" rx="5.97" fill="#4BCB9B"/>
<rect opacity="0.3" x="233.04" y="147" width="15.92" height="3" rx="1.5" fill="#0A58BE"/>
<rect opacity="0.3" x="221.1" y="152" width="39.8" height="3" rx="1.5" fill="#629FF0"/>
<rect x="287.292" y="124.522" width="70.5963" height="36.9563" rx="2.47817" fill="#F7FAFF" stroke="#DEECFF" stroke-width="1.04367"/>
<rect x="316.62" y="131" width="11.94" height="12" rx="5.97" fill="#FF9B63"/>
<rect opacity="0.3" x="314.63" y="147" width="15.92" height="3" rx="1.5" fill="#0A58BE"/>
<rect opacity="0.3" x="302.69" y="152" width="39.8" height="3" rx="1.5" fill="#629FF0"/>
<rect x="368.882" y="124.522" width="70.5963" height="36.9563" rx="2.47817" fill="#F7FAFF" stroke="#DEECFF" stroke-width="1.04367"/>
<rect x="398.21" y="131" width="11.94" height="12" rx="5.97" fill="#00A5FF"/>
<rect opacity="0.3" x="396.22" y="147" width="15.92" height="3" rx="1.5" fill="#0A58BE"/>
<rect opacity="0.3" x="384.28" y="152" width="39.8" height="3" rx="1.5" fill="#629FF0"/>
<rect opacity="0.3" x="42" y="115" width="37.9615" height="4" rx="2" fill="#0A58BE"/>
<rect x="42.5218" y="49.5218" width="110.602" height="12.9563" rx="2.47817" fill="white" stroke="#D4E7FF" stroke-width="1.04367"/>
<rect opacity="0.3" x="46.2305" y="55" width="42.2805" height="3" rx="1.5" fill="#629FF0"/>
<rect x="166.876" y="49.5218" width="110.602" height="12.9563" rx="2.47817" fill="white" stroke="#D4E7FF" stroke-width="1.04367"/>
<rect opacity="0.3" x="170.584" y="55" width="42.2805" height="3" rx="1.5" fill="#629FF0"/>
<rect x="288" y="49" width="152" height="14" rx="1" fill="#E0ECFC"/>
<rect opacity="0.5" x="332.129" y="54.5996" width="26.1505" height="2.8" rx="1.4" fill="#629FF0"/>
<rect opacity="0.5" x="371.354" y="54.5996" width="26.1505" height="2.8" rx="1.4" fill="#629FF0"/>
<rect opacity="0.5" x="408.946" y="54.5996" width="26.1505" height="2.8" rx="1.4" fill="#629FF0"/>
<path d="M288 50C288 49.4477 288.448 49 289 49H325.591V63H289C288.448 63 288 62.5523 288 62V50Z" fill="#1A73E8"/>
<rect x="294.538" y="54.5996" width="24.5161" height="2.8" rx="1.4" fill="white" fill-opacity="0.5"/>
<line x1="365.067" y1="49" x2="365.067" y2="63" stroke="#BFCFE4" stroke-width="0.5"/>
<line x1="402.658" y1="49" x2="402.658" y2="63" stroke="#BFCFE4" stroke-width="0.5"/>
<path d="M455 22V4.21456C455 1.85441 453.169 0 450.839 0H4.16057C1.83065 0 0 1.85441 0 4.21456V22H455Z" fill="#DDEBFF"/>
<path d="M413.566 10.8114C413.566 13.3894 411.487 15.4685 408.909 15.4685C406.331 15.4685 404.252 13.3894 404.252 10.8114C404.252 8.23335 406.331 6.1543 408.909 6.1543C411.487 6.1543 413.566 8.23335 413.566 10.8114Z" fill="#70B44A"/>
<path d="M429.367 10.8114C429.367 13.3894 427.288 15.4685 424.71 15.4685C422.132 15.4685 420.053 13.3894 420.053 10.8114C420.053 8.23335 422.132 6.1543 424.71 6.1543C427.288 6.1543 429.367 8.23335 429.367 10.8114Z" fill="#DDAB54"/>
<path d="M445.25 10.8114C445.25 13.3894 443.171 15.4685 440.593 15.4685C438.015 15.4685 435.936 13.3894 435.936 10.8114C435.936 8.23335 438.015 6.1543 440.593 6.1543C443.171 6.1543 445.25 8.23335 445.25 10.8114Z" fill="#D6655D"/>
<rect x="287.522" y="174.522" width="151.956" height="87.9563" rx="2.47817" fill="#F7FAFF" stroke="#DEECFF" stroke-width="1.04367"/>
<rect x="386" y="193" width="15.92" height="3" rx="1.5" fill="#00A2FB"/>
<rect opacity="0.3" x="386" y="202" width="39.8" height="3" rx="1.5" fill="#629FF0"/>
<rect opacity="0.3" x="386" y="210" width="26" height="3" rx="1.5" fill="#629FF0"/>
<rect opacity="0.3" x="386" y="218" width="39.8" height="3" rx="1.5" fill="#629FF0"/>
<rect opacity="0.3" x="386" y="226" width="26" height="3" rx="1.5" fill="#629FF0"/>
<rect opacity="0.3" x="386" y="234" width="39.8" height="3" rx="1.5" fill="#629FF0"/>
<rect opacity="0.3" x="386" y="242" width="26" height="3" rx="1.5" fill="#629FF0"/>
<g filter="url(#filter0_d_1685_1866)">
<circle cx="335" cy="219" r="31" fill="white"/>
</g>
<rect x="329" y="211" width="11.94" height="12" rx="5.97" fill="#D0E3FB"/>
<rect opacity="0.3" x="326" y="225" width="18" height="3" rx="1.5" fill="#0A58BE"/>
<path d="M317.5 245.795C308.768 240.081 303 230.214 303 219C303 201.327 317.327 187 335 187C352.673 187 367 201.327 367 219C367 230.845 360.565 241.186 351 246.719" stroke="#00A2FB" stroke-width="3" stroke-linecap="round"/>
<rect x="42.5218" y="174.522" width="233.956" height="87.9563" rx="2.47817" fill="#F7FAFF" stroke="#DEECFF" stroke-width="1.04367"/>
<rect x="50" y="181" width="8" height="8" rx="4" fill="#CADFFB"/>
<rect x="61" y="183" width="19" height="3" rx="1.5" fill="#CADFFB"/>
<rect x="58.4463" y="226.326" width="14.7752" height="21.4912" fill="#82E9C2"/>
<rect x="161.069" y="226.326" width="14.7752" height="21.4912" fill="#82E9C2"/>
<rect x="76.2217" y="218.267" width="13.432" height="29.5504" fill="#FDD446"/>
<rect x="179" y="203" width="13" height="45" fill="#FDD446"/>
<rect x="93" y="199" width="14" height="49" fill="#CDBBB9"/>
<rect x="195" y="214" width="15" height="34" fill="#CDBBB9"/>
<rect x="110" y="211" width="14" height="37" fill="#71CDFF"/>
<rect x="213" y="187" width="13" height="61" fill="#71CDFF"/>
<rect x="126.861" y="194.089" width="14.7752" height="53.7281" fill="#46CB99"/>
<rect x="229" y="204" width="15" height="44" fill="#46CB99"/>
<rect x="144.637" y="182" width="13.432" height="65.8169" fill="#CFBAFF"/>
<rect x="247" y="193" width="14" height="55" fill="#CFBAFF"/>
<rect x="58" y="253" width="33" height="3" rx="1.5" fill="#CADFFB"/>
<rect x="98" y="253" width="33" height="3" rx="1.5" fill="#CADFFB"/>
<rect x="236" y="253" width="25" height="3" rx="1.5" fill="#CADFFB"/>
<path d="M65.6491 229.337C65.283 229.531 65.1434 229.985 65.3372 230.351C65.531 230.717 65.9848 230.857 66.3509 230.663L65.6491 229.337ZM83 221L83.3509 221.663L83.469 221.6L83.5582 221.501L83 221ZM100.5 201.5L100.941 200.893L100.394 200.495L99.9418 200.999L100.5 201.5ZM117 213.5L116.559 214.107L117.069 214.478L117.522 214.038L117 213.5ZM134 197L133.564 196.39L133.518 196.423L133.478 196.462L134 197ZM151.5 184.5L152.201 184.232L151.854 183.325L151.064 183.89L151.5 184.5ZM168.5 229L167.799 229.268L168.286 230.543L169.102 229.448L168.5 229ZM186 205.5L186.429 204.885L185.833 204.469L185.398 205.052L186 205.5ZM202.5 217L202.071 217.615L202.721 218.068L203.138 217.394L202.5 217ZM219.5 189.5L220.038 188.977L219.368 188.288L218.862 189.106L219.5 189.5ZM236.5 207L235.962 207.523L236.388 207.961L236.904 207.632L236.5 207ZM66.3509 230.663L83.3509 221.663L82.6491 220.337L65.6491 229.337L66.3509 230.663ZM83.5582 221.501L101.058 202.001L99.9418 200.999L82.4418 220.499L83.5582 221.501ZM100.059 202.107L116.559 214.107L117.441 212.893L100.941 200.893L100.059 202.107ZM117.522 214.038L134.522 197.538L133.478 196.462L116.478 212.962L117.522 214.038ZM134.436 197.61L151.936 185.11L151.064 183.89L133.564 196.39L134.436 197.61ZM150.799 184.768L167.799 229.268L169.201 228.732L152.201 184.232L150.799 184.768ZM169.102 229.448L186.602 205.948L185.398 205.052L167.898 228.552L169.102 229.448ZM185.571 206.115L202.071 217.615L202.929 216.385L186.429 204.885L185.571 206.115ZM203.138 217.394L220.138 189.894L218.862 189.106L201.862 216.606L203.138 217.394ZM218.962 190.023L235.962 207.523L237.038 206.477L220.038 188.977L218.962 190.023ZM236.904 207.632L254.904 196.132L254.096 194.868L236.096 206.368L236.904 207.632Z" fill="#FF5134"/>
<circle cx="66" cy="230" r="2" fill="#FF5134"/>
<circle cx="83" cy="221" r="2" fill="#FF5134"/>
<circle cx="100" cy="202" r="2" fill="#FF5134"/>
<circle cx="117" cy="213" r="2" fill="#FF5134"/>
<circle cx="134" cy="197" r="2" fill="#FF5134"/>
<circle cx="151" cy="184" r="2" fill="#FF5134"/>
<circle cx="168" cy="229" r="2" fill="#FF5134"/>
<circle cx="186" cy="206" r="2" fill="#FF5134"/>
<circle cx="203" cy="217" r="2" fill="#FF5134"/>
<circle cx="219" cy="190" r="2" fill="#FF5134"/>
<circle cx="236" cy="207" r="2" fill="#FF5134"/>
<circle cx="254" cy="196" r="2" fill="#FF5134"/>
<defs>
<filter id="filter0_d_1685_1866" x="294" y="178" width="82" height="82" filterUnits="userSpaceOnUse" color-interpolation-filters="sRGB">
<feFlood flood-opacity="0" result="BackgroundImageFix"/>
<feColorMatrix in="SourceAlpha" type="matrix" values="0 0 0 0 0 0 0 0 0 0 0 0 0 0 0 0 0 0 127 0" result="hardAlpha"/>
<feOffset/>
<feGaussianBlur stdDeviation="5"/>
<feComposite in2="hardAlpha" operator="out"/>
<feColorMatrix type="matrix" values="0 0 0 0 0 0 0 0 0 0 0 0 0 0 0 0 0 0 0.25 0"/>
<feBlend mode="normal" in2="BackgroundImageFix" result="effect1_dropShadow_1685_1866"/>
<feBlend mode="normal" in="SourceGraphic" in2="effect1_dropShadow_1685_1866" result="shape"/>
</filter>
<linearGradient id="paint0_linear_1685_1866" x1="440" y1="86.9258" x2="42" y2="86.9258" gradientUnits="userSpaceOnUse">
<stop stop-color="#179734"/>
<stop offset="0.150225" stop-color="#179734"/>
<stop offset="0.150293" stop-color="#59C972"/>
<stop offset="0.249724" stop-color="#59C972"/>
<stop offset="0.249859" stop-color="#FFCA0F"/>
<stop offset="0.499756" stop-color="#FFCA0F"/>
<stop offset="0.500643" stop-color="#FF818D"/>
<stop offset="0.749641" stop-color="#FF818D"/>
<stop offset="0.750849" stop-color="#F42424"/>
<stop offset="1" stop-color="#E70000"/>
</linearGradient>
</defs>
</svg>
