<svg width="455" height="281" viewBox="0 0 455 281" fill="none" xmlns="http://www.w3.org/2000/svg">
<path d="M113 22H455V276.84C455 279.138 453.138 281 450.84 281H113V22Z" fill="white"/>
<g filter="url(#filter0_i_1699_2703)">
<rect x="123" y="42" width="259" height="5" rx="2.5" fill="#EEEEEE"/>
</g>
<g filter="url(#filter1_i_1699_2703)">
<rect x="123" y="42" width="50" height="5" rx="2.5" fill="#1A73E8"/>
</g>
<rect opacity="0.3" x="123" y="33" width="21" height="4" rx="2" fill="#629FF0"/>
<rect x="-0.5" y="0.5" width="41" height="14" rx="7" transform="matrix(-1 0 0 1 444 32)" fill="#FFE8EA" stroke="#FFDADD"/>
<rect opacity="0.5" width="24" height="3" rx="1.5" transform="matrix(-1 0 0 1 436 38)" fill="#E88C94"/>
<rect x="290.5" y="65.5" width="153" height="94" rx="7.5" stroke="#DDEBFF" stroke-width="3"/>
<path d="M393.208 115L369.496 96C365.515 92.9815 363.328 93.1763 359.47 96L290.872 150.5" stroke="#DDEBFF" stroke-width="3" stroke-linecap="round" stroke-linejoin="round"/>
<path d="M369.496 134.5L442.735 75.8145" stroke="#DDEBFF" stroke-width="3" stroke-linecap="round" stroke-linejoin="round"/>
<circle cx="318.5" cy="88.5" r="9" stroke="#DDEBFF" stroke-width="3"/>
<rect opacity="0.5" x="123.05" y="64" width="44.3732" height="3" rx="1.5" fill="#629FF0"/>
<rect opacity="0.3" x="123" y="72" width="155" height="3" rx="1.5" fill="#629FF0"/>
<rect opacity="0.3" x="123" y="80" width="155" height="3" rx="1.5" fill="#629FF0"/>
<rect opacity="0.3" x="123" y="88" width="106" height="3" rx="1.5" fill="#629FF0"/>
<rect opacity="0.5" x="123" y="101" width="32" height="3" rx="1.5" fill="#629FF0"/>
<rect opacity="0.3" x="123" y="117" width="155" height="3" rx="1.5" fill="#629FF0"/>
<rect opacity="0.3" x="123" y="109" width="155" height="3" rx="1.5" fill="#629FF0"/>
<rect opacity="0.3" x="123" y="125" width="155" height="3" rx="1.5" fill="#629FF0"/>
<rect opacity="0.3" x="123" y="133" width="106" height="3" rx="1.5" fill="#629FF0"/>
<rect width="42" height="15" rx="2" transform="matrix(-1 0 0 1 165 150)" fill="#1A73E8"/>
<rect width="24" height="3" rx="1.5" transform="matrix(-1 0 0 1 156 156)" fill="white" fill-opacity="0.5"/>
<rect opacity="0.5" x="123.05" y="179" width="44.3732" height="3" rx="1.5" fill="#629FF0"/>
<rect x="123.522" y="187.522" width="194.956" height="13.9563" rx="2.47817" fill="#F4F9FF" stroke="#D4E7FF" stroke-width="1.04367"/>
<rect opacity="0.3" x="140" y="193" width="171" height="3" rx="1.5" fill="#629FF0"/>
<circle cx="132" cy="194.5" r="3.5" fill="white" stroke="#D0E3FB"/>
<rect x="123.522" y="209.522" width="194.956" height="13.9563" rx="2.47817" fill="#F4F9FF" stroke="#D4E7FF" stroke-width="1.04367"/>
<rect opacity="0.3" x="140" y="215" width="154" height="3" rx="1.5" fill="#629FF0"/>
<circle cx="132" cy="216.5" r="3.5" fill="white" stroke="#D0E3FB"/>
<rect x="123.522" y="231.522" width="194.956" height="13.9563" rx="2.47817" fill="#F4F9FF" stroke="#D4E7FF" stroke-width="1.04367"/>
<rect opacity="0.3" x="140" y="237" width="139" height="3" rx="1.5" fill="#629FF0"/>
<circle cx="132" cy="238.5" r="3.5" fill="white" stroke="#D0E3FB"/>
<rect width="42" height="15" rx="2" transform="matrix(-1 0 0 1 445 254)" fill="#1A73E8"/>
<rect width="24" height="3" rx="1.5" transform="matrix(-1 0 0 1 436 260)" fill="white" fill-opacity="0.5"/>
<rect y="22" width="113" height="259" fill="#EAF3FF"/>
<path d="M19.8353 42.8716C19.0877 42.8716 18.414 42.7195 17.8141 42.4152C17.223 42.1023 16.7579 41.6719 16.4189 41.1243C16.0885 40.5766 15.9233 39.955 15.9233 39.2595C15.9233 38.5641 16.0885 37.9425 16.4189 37.3948C16.7579 36.8471 17.223 36.4212 17.8141 36.1169C18.414 35.8039 19.0877 35.6475 19.8353 35.6475C20.5743 35.6475 21.2176 35.8039 21.7653 36.1169C22.3216 36.4212 22.7259 36.8602 22.978 37.4339L21.4001 38.2815C21.035 37.6382 20.5091 37.3166 19.8223 37.3166C19.292 37.3166 18.853 37.4904 18.5053 37.8382C18.1575 38.1859 17.9837 38.6597 17.9837 39.2595C17.9837 39.8594 18.1575 40.3332 18.5053 40.6809C18.853 41.0286 19.292 41.2025 19.8223 41.2025C20.5178 41.2025 21.0437 40.8808 21.4001 40.2375L22.978 41.0982C22.7259 41.6545 22.3216 42.0892 21.7653 42.4022C21.2176 42.7151 20.5743 42.8716 19.8353 42.8716Z" fill="#1A2334"/>
<path d="M37.2006 35.9083H39.0001V37.4731H37.2528V42.7674H35.2185V37.4731H34.1362V35.9083H35.2185V35.5954C35.2185 34.7956 35.4533 34.161 35.9227 33.6915C36.4008 33.2221 37.0702 32.9874 37.9309 32.9874C38.2351 32.9874 38.522 33.0221 38.7915 33.0917C39.0697 33.1525 39.3001 33.2438 39.4826 33.3655L38.948 34.839C38.7133 34.6739 38.4394 34.5913 38.1265 34.5913C37.5092 34.5913 37.2006 34.9303 37.2006 35.6084V35.9083ZM41.0605 35.7518H43.0947V42.7674H41.0605V35.7518ZM42.0776 34.7738C41.7038 34.7738 41.3995 34.6652 41.1648 34.4478C40.9301 34.2305 40.8127 33.961 40.8127 33.6394C40.8127 33.3177 40.9301 33.0482 41.1648 32.8309C41.3995 32.6135 41.7038 32.5049 42.0776 32.5049C42.4514 32.5049 42.7557 32.6092 42.9904 32.8178C43.2251 33.0265 43.3425 33.2873 43.3425 33.6002C43.3425 33.9393 43.2251 34.2218 42.9904 34.4478C42.7557 34.6652 42.4514 34.7738 42.0776 34.7738Z" fill="#1A2334"/>
<path d="M46.923 36.6777C47.1664 36.3386 47.4924 36.0822 47.901 35.9083C48.3182 35.7345 48.7964 35.6475 49.3354 35.6475V37.5253C49.1093 37.5079 48.9572 37.4992 48.879 37.4992C48.2965 37.4992 47.8401 37.6644 47.5098 37.9947C47.1794 38.3164 47.0142 38.8032 47.0142 39.4552V42.7674H44.98V35.7518H46.923V36.6777Z" fill="#1A2334"/>
<path d="M52.9306 42.8717C52.3482 42.8717 51.7788 42.8021 51.2224 42.663C50.666 42.5152 50.2226 42.3327 49.8923 42.1154L50.5704 40.6549C50.8833 40.8548 51.2615 41.02 51.7049 41.1504C52.1482 41.2721 52.5829 41.333 53.0089 41.333C53.8695 41.333 54.2998 41.12 54.2998 40.694C54.2998 40.494 54.1825 40.3506 53.9477 40.2637C53.713 40.1767 53.3522 40.1028 52.8654 40.042C52.2917 39.9551 51.8179 39.8551 51.4441 39.7421C51.0702 39.6291 50.7442 39.4291 50.4661 39.1422C50.1966 38.8554 50.0618 38.4468 50.0618 37.9165C50.0618 37.4731 50.1879 37.0819 50.44 36.7429C50.7008 36.3951 51.0746 36.1257 51.5614 35.9344C52.0569 35.7431 52.6394 35.6475 53.3088 35.6475C53.8043 35.6475 54.2955 35.704 54.7823 35.817C55.2778 35.9214 55.6864 36.0691 56.0081 36.2604L55.33 37.7078C54.7127 37.3601 54.039 37.1862 53.3088 37.1862C52.8741 37.1862 52.5481 37.2471 52.3308 37.3688C52.1134 37.4905 52.0048 37.647 52.0048 37.8382C52.0048 38.0556 52.1221 38.2077 52.3569 38.2946C52.5916 38.3816 52.9654 38.4642 53.4783 38.5424C54.0521 38.638 54.5215 38.7423 54.8866 38.8554C55.2517 38.9597 55.569 39.1553 55.8385 39.4422C56.108 39.729 56.2428 40.1289 56.2428 40.6418C56.2428 41.0765 56.1124 41.4634 55.8516 41.8024C55.5908 42.1414 55.2083 42.4066 54.7041 42.5978C54.2085 42.7804 53.6174 42.8717 52.9306 42.8717Z" fill="#1A2334"/>
<path d="M62.0228 42.4283C61.8228 42.5761 61.575 42.6891 61.2795 42.7674C60.9926 42.8369 60.6883 42.8717 60.3667 42.8717C59.5321 42.8717 58.8845 42.6587 58.4237 42.2327C57.9717 41.8067 57.7456 41.1808 57.7456 40.355V37.4731H56.6633V35.9083H57.7456V34.2001H59.7799V35.9083H61.5272V37.4731H59.7799V40.3289C59.7799 40.6244 59.8538 40.8548 60.0016 41.02C60.158 41.1765 60.3754 41.2547 60.6535 41.2547C60.9752 41.2547 61.249 41.1678 61.4751 40.9939L62.0228 42.4283Z" fill="#1A2334"/>
<path d="M62.1814 34.9481V33.65H61.7178V33.3857H62.9594V33.65H62.4968V34.9481H62.1814Z" fill="#1A2334"/>
<path d="M63.1597 34.9481V33.3857H63.6318L63.9153 34.4515L64.1956 33.3857H64.6688V34.9481H64.3757V33.7183L64.0656 34.9481H63.7619L63.4528 33.7183V34.9481H63.1597Z" fill="#1A2334"/>
<path fill-rule="evenodd" clip-rule="evenodd" d="M25.5065 39.4992L22.0327 44.3106H25.3597L27.1512 41.8595L25.5065 39.4992ZM28.391 40.1633L26.4901 38.1369L29.7322 33.6465H33.1542L28.391 40.1633Z" fill="#1A73E8"/>
<path d="M19.8467 30.124L29.7325 44.3111H33.1545L19.8467 30.124Z" fill="#1A73E8"/>
<path d="M43.1609 279.05C39.8007 280.717 35.6324 280.922 31.7193 280.865C28.1209 280.812 24.4885 280.596 21.0858 279.52C17.6831 278.443 14.3442 278.81 12.7874 275.915C11.1201 272.788 9.86533 257.445 9.54207 252.875C9.33365 249.923 9.26985 246.865 10.5076 244.118C11.9282 240.991 14.9269 238.6 18.3168 237.084C21.7068 235.569 25.4881 234.936 29.2438 234.546C33.8885 234.057 38.6778 233.962 43.1609 235.152C47.644 236.342 51.8123 238.979 53.7434 242.769C54.794 244.838 55.1427 247.138 55.2236 249.408C55.4405 255.266 53.9773 261.049 52.0505 266.615C50.4257 271.292 49.2178 274.999 44.6113 278.178C44.1537 278.501 43.6688 278.793 43.1609 279.05Z" fill="#24285B"/>
<path d="M65.1487 230.308C65.1487 230.308 70.4945 241.439 65.6052 255.053C60.7158 268.667 71.3777 275.566 50.7281 277.392C30.0785 279.218 65.1487 230.308 65.1487 230.308Z" fill="#1A73E8"/>
<path opacity="0.46" d="M65.1487 230.308C65.1487 230.308 70.4945 241.439 65.6052 255.053C60.7158 268.667 71.3777 275.566 50.7281 277.392C30.0785 279.218 65.1487 230.308 65.1487 230.308Z" fill="white"/>
<path d="M54.6874 208.544C54.6874 208.544 54.2266 211.958 53.1557 214.091C53.0518 214.295 52.9086 214.477 52.7344 214.626C52.5601 214.774 52.3581 214.887 52.1401 214.958C51.9221 215.028 51.6923 215.055 51.4639 215.037C51.2355 215.018 51.013 214.955 50.8092 214.85C49.7511 214.296 48.4839 213.238 48.5095 211.369L48.1597 208.186C48.1567 207.542 48.3537 206.913 48.7236 206.385C49.0935 205.858 49.618 205.459 50.2247 205.242C52.4389 204.304 55.0756 206.467 54.6874 208.544Z" fill="#F4A28C"/>
<path d="M48.4879 209.082L41.6445 218.148L46.9136 221.561L49.7038 213.796L48.4879 209.082Z" fill="#F4A28C"/>
<path d="M54.2864 210.694L54.9349 212.209C54.9715 212.295 54.9859 212.388 54.9768 212.481C54.9676 212.574 54.9351 212.663 54.8824 212.74C54.8296 212.817 54.7583 212.88 54.675 212.922C54.5917 212.964 54.4991 212.984 54.4058 212.981L53.0576 212.934L54.2864 210.694Z" fill="#F4A28C"/>
<path opacity="0.31" d="M49.6186 214.014C49.6186 214.014 48.0614 212.307 47.8694 211.271C47.8694 211.271 46.197 215.486 48.2534 217.802L49.6186 214.014Z" fill="#CE8172"/>
<path d="M50.2841 210.075C50.2841 210.075 50.5486 208.769 49.5503 208.65C48.5519 208.531 48.1509 210.416 49.4436 210.89L50.2841 210.075Z" fill="#F4A28C"/>
<path d="M47.255 206.962L47.4299 208.395C47.4299 208.395 46.9692 211.685 48.2832 214.048C49.5973 216.412 52.4857 217.278 53.612 215.307C54.892 213.046 53.0616 212.935 50.9754 211.923C48.8891 210.912 50.4335 208.195 50.4335 208.195C50.8291 208.366 51.2606 208.438 51.6903 208.405C52.1201 208.371 52.5352 208.233 52.8995 208.003L54.4226 207.9C54.7685 207.878 55.1054 207.782 55.4105 207.617C55.7155 207.453 55.9815 207.224 56.1901 206.948C56.3988 206.671 56.5452 206.352 56.6193 206.014C56.6935 205.675 56.6937 205.325 56.6199 204.986C56.5489 204.566 56.3955 204.165 56.1685 203.804C55.9415 203.444 55.6454 203.132 55.2973 202.887C53.2536 201.56 46.6321 202.657 47.255 206.962Z" fill="#24285B"/>
<path d="M48.9832 208.05C48.9832 208.05 47.827 206.471 46.722 207.457C45.617 208.442 46.9353 210.144 48.4286 209.897C48.3849 209.235 48.5818 208.579 48.9832 208.05Z" fill="#F4A28C"/>
<path d="M51.2531 217.372L45.071 216.306C45.071 216.306 24.4983 216.336 20.8974 223.379C17.2965 230.423 18.0559 256.658 29.9508 278.173L54.3121 278.877C54.3121 278.877 52.9597 263.066 57.4992 254.456C62.0387 245.846 76.1563 227.543 51.2531 217.372Z" fill="#1A73E8"/>
<path opacity="0.08" d="M32.0407 225.904C32.0407 225.904 38.7945 231.826 37.4377 238.362C37.2201 239.42 37.0111 240.696 36.7636 242.095C35.8839 247.517 36.2128 253.067 37.727 258.347C39.2412 263.627 41.9031 268.507 45.5226 272.639L49.7891 277.503L29.9629 278.172L28.2563 274.849L19.0024 259.49L32.0407 225.904Z" fill="black"/>
<path d="M20.556 224.028C16.0421 230.381 12.0231 244.409 15.513 264.171C16.0352 267.095 17.5245 269.758 19.7419 271.734C21.9593 273.71 24.7762 274.884 27.7407 275.068L46.3551 276.245V270.174L32.2076 268.126C31.4337 268.014 30.6931 267.736 30.0367 267.312C29.3802 266.887 28.8233 266.325 28.4043 265.665C27.9853 265.005 27.714 264.262 27.609 263.487C27.504 262.712 27.5679 261.924 27.7961 261.176C30.2877 252.972 34.1488 238.107 33.1505 227.51C32.5532 221.076 24.2976 218.759 20.556 224.028Z" fill="#1A73E8"/>
<path opacity="0.46" d="M20.556 224.028C16.0421 230.381 12.0231 244.409 15.513 264.171C16.0352 267.095 17.5245 269.758 19.7419 271.734C21.9593 273.71 24.7762 274.884 27.7407 275.068L46.3551 276.245V270.174L32.2076 268.126C31.4337 268.014 30.6931 267.736 30.0367 267.312C29.3802 266.887 28.8233 266.325 28.4043 265.665C27.9853 265.005 27.714 264.262 27.609 263.487C27.504 262.712 27.5679 261.924 27.7961 261.176C30.2877 252.972 34.1488 238.107 33.1505 227.51C32.5532 221.076 24.2976 218.759 20.556 224.028Z" fill="white"/>
<path d="M46.7603 271.299C46.7603 271.299 54.8665 271.095 53.7274 275.327C52.5882 279.559 46.7603 276.244 46.7603 276.244V271.299Z" fill="#F4A28C"/>
<path d="M82.3338 278.386L86.9672 252.203H54.1156L51.2656 274.525L36.2051 274.734V278.386H82.3338Z" fill="#FFD200"/>
<path d="M69.2533 268.049C71.07 268.049 72.5427 266.576 72.5427 264.759C72.5427 262.942 71.07 261.47 69.2533 261.47C67.4366 261.47 65.9639 262.942 65.9639 264.759C65.9639 266.576 67.4366 268.049 69.2533 268.049Z" fill="white"/>
<path d="M0.000236511 281H113.739V277.75H0.000236511V281Z" fill="#1A73E8"/>
<path opacity="0.09" d="M26.3225 277.75H0V281H26.3225V277.75Z" fill="black"/>
<path opacity="0.58" d="M97.2278 274.116C97.2278 274.116 93.8574 273.195 93.1235 270.059C93.1235 270.059 98.3457 269.005 98.495 274.394L97.2278 274.116Z" fill="#1A73E8"/>
<path opacity="0.73" d="M97.6417 273.783C97.6417 273.783 95.2867 270.058 97.3602 266.581C97.3602 266.581 101.328 269.103 99.5659 273.791L97.6417 273.783Z" fill="#1A73E8"/>
<path d="M98.2563 273.783C98.2563 273.783 99.5022 269.854 103.261 269.111C103.261 269.111 103.965 271.671 100.825 273.804L98.2563 273.783Z" fill="#1A73E8"/>
<path d="M95.8032 273.697L96.4859 278.369L100.791 278.386L101.422 273.719L95.8032 273.697Z" fill="#24285B"/>
<path d="M67.5933 221.111C67.5933 219.524 68.8297 218.211 70.4142 218.116L80.3377 217.523C82.0619 217.42 83.5167 218.79 83.5167 220.518V225.19C83.5167 226.926 82.0476 228.3 80.3154 228.183L70.392 227.516C68.8168 227.41 67.5933 226.101 67.5933 224.523V221.111Z" fill="white"/>
<path d="M75.728 220.756H75.2958C75.345 219.87 75.4539 219.139 75.6226 218.563C75.7983 217.98 76.1568 217.171 76.6979 216.138C77.1196 215.344 77.3937 214.736 77.5203 214.314C77.6468 213.886 77.71 213.453 77.71 213.018C77.71 212.125 77.4711 211.415 76.9931 210.888C76.5222 210.361 75.9424 210.097 75.2536 210.097C74.6421 210.097 74.1607 210.241 73.8093 210.529C73.4579 210.818 73.2822 211.13 73.2822 211.468C73.2822 211.728 73.3876 212.048 73.5984 212.427C73.8093 212.807 73.9147 213.095 73.9147 213.292C73.9147 213.545 73.8339 213.759 73.6722 213.935C73.5106 214.103 73.3138 214.188 73.0818 214.188C72.7867 214.188 72.5161 214.044 72.2701 213.755C72.0311 213.46 71.9116 213.053 71.9116 212.533C71.9116 211.738 72.2525 211.036 72.9342 210.424C73.616 209.813 74.5402 209.507 75.7069 209.507C77.1548 209.507 78.2196 209.929 78.9013 210.772C79.4074 211.39 79.6604 212.076 79.6604 212.828C79.6604 213.341 79.5444 213.868 79.3125 214.409C79.0876 214.95 78.6553 215.586 78.0158 216.317C76.9966 217.47 76.3711 218.289 76.1392 218.774C75.9143 219.252 75.7772 219.912 75.728 220.756ZM75.5804 222.063C75.9108 222.063 76.1884 222.179 76.4133 222.411C76.6452 222.636 76.7612 222.913 76.7612 223.244C76.7612 223.567 76.6452 223.845 76.4133 224.077C76.1814 224.302 75.9037 224.414 75.5804 224.414C75.2571 224.414 74.9795 224.302 74.7476 224.077C74.5227 223.845 74.4102 223.567 74.4102 223.244C74.4102 222.913 74.5227 222.636 74.7476 222.411C74.9795 222.179 75.2571 222.063 75.5804 222.063Z" fill="#83B3F3"/>
<path d="M90.0025 215.287C91.121 214.16 92.9233 214.1 94.1143 215.15L97.9311 218.512C99.2272 219.654 99.2938 221.651 98.0767 222.877L97.1573 223.803C95.934 225.035 93.9236 224.974 92.7766 223.671L89.4143 219.851C88.3713 218.666 88.4252 216.875 89.5376 215.755L90.0025 215.287Z" fill="white"/>
<path d="M94.7984 218.489L94.585 218.277C95.0434 217.864 95.4555 217.557 95.8213 217.355C96.194 217.153 96.7671 216.93 97.5407 216.685C98.1382 216.5 98.5715 216.334 98.8407 216.188C99.1133 216.038 99.3564 215.856 99.57 215.641C100.008 215.2 100.238 214.733 100.26 214.238C100.286 213.747 100.129 213.333 99.789 212.995C99.4872 212.695 99.1789 212.53 98.8642 212.5C98.5494 212.47 98.3094 212.539 98.144 212.705C98.0165 212.834 97.9118 213.043 97.8298 213.334C97.7479 213.625 97.6587 213.818 97.5622 213.916C97.4382 214.041 97.2932 214.107 97.1272 214.114C96.9648 214.118 96.8263 214.063 96.7118 213.95C96.5661 213.805 96.5031 213.601 96.523 213.338C96.5497 213.076 96.6905 212.816 96.9455 212.559C97.3348 212.167 97.8476 211.987 98.4839 212.019C99.1202 212.052 99.7263 212.354 100.302 212.926C101.017 213.636 101.336 214.366 101.259 215.116C101.206 215.67 100.994 216.132 100.626 216.503C100.374 216.756 100.059 216.96 99.6789 217.113C99.3026 217.27 98.7774 217.372 98.1034 217.42C97.0353 217.489 96.3251 217.587 95.9729 217.712C95.6276 217.838 95.2361 218.097 94.7984 218.489ZM94.0847 219.062C94.2477 219.224 94.3279 219.417 94.3253 219.642C94.3295 219.867 94.2507 220.061 94.0887 220.224C93.9302 220.383 93.7369 220.463 93.5087 220.464C93.284 220.462 93.0918 220.381 92.9322 220.223C92.7726 220.064 92.6907 219.872 92.6865 219.648C92.6891 219.423 92.7697 219.231 92.9282 219.071C93.0901 218.908 93.2817 218.826 93.503 218.825C93.7312 218.825 93.9251 218.904 94.0847 219.062Z" fill="#83B3F3"/>
<path d="M75.6254 235.07C76.0204 233.532 77.5446 232.569 79.1029 232.871L87.111 234.426C88.8066 234.756 89.8746 236.445 89.4447 238.118L88.5898 241.445C88.1578 243.126 86.393 244.091 84.7443 243.547L76.9936 240.99C75.4944 240.496 74.635 238.924 75.0279 237.395L75.6254 235.07Z" fill="white"/>
<path d="M82.7805 236.256L82.4086 236.16C82.6467 235.409 82.902 234.805 83.1745 234.346C83.4546 233.883 83.9416 233.267 84.6355 232.498C85.1739 231.908 85.5441 231.445 85.7461 231.111C85.9497 230.77 86.0997 230.412 86.196 230.037C86.3933 229.269 86.3446 228.606 86.05 228.047C85.7614 227.489 85.3209 227.134 84.7283 226.982C84.2023 226.847 83.7563 226.864 83.3903 227.035C83.0243 227.205 82.804 227.435 82.7294 227.725C82.672 227.949 82.692 228.247 82.7895 228.62C82.887 228.993 82.914 229.265 82.8705 229.434C82.8145 229.652 82.6976 229.818 82.5197 229.934C82.3434 230.043 82.1554 230.072 81.9559 230.021C81.702 229.956 81.501 229.772 81.3531 229.469C81.2128 229.163 81.2001 228.786 81.3151 228.338C81.4906 227.655 81.9392 227.126 82.6609 226.75C83.3825 226.375 84.2452 226.316 85.2488 226.574C86.4943 226.894 87.3171 227.492 87.7172 228.369C88.0158 229.013 88.082 229.658 87.9157 230.305C87.8023 230.746 87.586 231.174 87.2669 231.588C86.9538 232.004 86.4414 232.456 85.7296 232.943C84.5981 233.71 83.879 234.276 83.5723 234.642C83.2732 235.003 83.0092 235.541 82.7805 236.256ZM82.3646 237.348C82.6487 237.421 82.8619 237.582 83.0041 237.831C83.1539 238.076 83.1923 238.34 83.1193 238.625C83.0478 238.903 82.8867 239.116 82.6359 239.264C82.3867 239.406 82.123 239.442 81.8449 239.37C81.5668 239.299 81.3528 239.141 81.203 238.896C81.0608 238.647 81.0254 238.383 81.0969 238.105C81.1699 237.821 81.328 237.607 81.5712 237.463C81.822 237.315 82.0864 237.276 82.3646 237.348Z" fill="#83B3F3"/>
<path d="M455 22V4.21456C455 1.85441 453.169 0 450.839 0H4.16057C1.83065 0 0 1.85441 0 4.21456V22H455Z" fill="#DDEBFF"/>
<path d="M413.566 10.8114C413.566 13.3894 411.487 15.4685 408.909 15.4685C406.331 15.4685 404.252 13.3894 404.252 10.8114C404.252 8.23335 406.331 6.1543 408.909 6.1543C411.487 6.1543 413.566 8.23335 413.566 10.8114Z" fill="#70B44A"/>
<path d="M429.367 10.8114C429.367 13.3894 427.288 15.4685 424.71 15.4685C422.132 15.4685 420.053 13.3894 420.053 10.8114C420.053 8.23335 422.132 6.1543 424.71 6.1543C427.288 6.1543 429.367 8.23335 429.367 10.8114Z" fill="#DDAB54"/>
<path d="M445.25 10.8114C445.25 13.3894 443.171 15.4685 440.593 15.4685C438.015 15.4685 435.936 13.3894 435.936 10.8114C435.936 8.23335 438.015 6.1543 440.593 6.1543C443.171 6.1543 445.25 8.23335 445.25 10.8114Z" fill="#D6655D"/>
<defs>
<filter id="filter0_i_1699_2703" x="123" y="42" width="259" height="7" filterUnits="userSpaceOnUse" color-interpolation-filters="sRGB">
<feFlood flood-opacity="0" result="BackgroundImageFix"/>
<feBlend mode="normal" in="SourceGraphic" in2="BackgroundImageFix" result="shape"/>
<feColorMatrix in="SourceAlpha" type="matrix" values="0 0 0 0 0 0 0 0 0 0 0 0 0 0 0 0 0 0 127 0" result="hardAlpha"/>
<feOffset dy="2"/>
<feGaussianBlur stdDeviation="1"/>
<feComposite in2="hardAlpha" operator="arithmetic" k2="-1" k3="1"/>
<feColorMatrix type="matrix" values="0 0 0 0 0 0 0 0 0 0 0 0 0 0 0 0 0 0 0.1 0"/>
<feBlend mode="normal" in2="shape" result="effect1_innerShadow_1699_2703"/>
</filter>
<filter id="filter1_i_1699_2703" x="123" y="42" width="50" height="9" filterUnits="userSpaceOnUse" color-interpolation-filters="sRGB">
<feFlood flood-opacity="0" result="BackgroundImageFix"/>
<feBlend mode="normal" in="SourceGraphic" in2="BackgroundImageFix" result="shape"/>
<feColorMatrix in="SourceAlpha" type="matrix" values="0 0 0 0 0 0 0 0 0 0 0 0 0 0 0 0 0 0 127 0" result="hardAlpha"/>
<feOffset dy="4"/>
<feGaussianBlur stdDeviation="2"/>
<feComposite in2="hardAlpha" operator="arithmetic" k2="-1" k3="1"/>
<feColorMatrix type="matrix" values="0 0 0 0 1 0 0 0 0 1 0 0 0 0 1 0 0 0 0.25 0"/>
<feBlend mode="normal" in2="shape" result="effect1_innerShadow_1699_2703"/>
</filter>
</defs>
</svg>
