<svg width="455" height="281" viewBox="0 0 455 281" fill="none" xmlns="http://www.w3.org/2000/svg">
<path d="M27 22H455V276.84C455 279.138 453.138 281 450.84 281H27V22Z" fill="white"/>
<rect y="22" width="455" height="12" fill="#F6F6F6"/>
<rect x="424" y="25" width="6" height="6" rx="2" fill="#CCCCCC"/>
<rect x="434" y="25" width="6" height="6" rx="2" fill="#CCCCCC"/>
<path d="M0 22H27V281H4.16C1.8625 281 0 279.138 0 276.84V22Z" fill="#1A2334"/>
<path fill-rule="evenodd" clip-rule="evenodd" d="M11.9739 34.8032L8.92041 39.0324H11.8446L13.4195 36.8777L11.9739 34.8032ZM14.5091 35.3871L12.8383 33.6059L15.6879 29.6592H18.6957L14.5091 35.3871Z" fill="#1A73E8"/>
<path d="M7 26.5645L15.6891 39.0342H18.6969L7 26.5645Z" fill="#1A73E8"/>
<rect x="0.00146484" y="46.4717" width="27" height="21.8569" fill="#29354A"/>
<rect opacity="0.3" x="9.56445" y="53.3018" width="8.19634" height="8.19634" rx="4.09817" fill="white"/>
<rect opacity="0.15" x="9" y="75.1592" width="8.19634" height="8.19634" rx="4.09817" fill="white"/>
<rect opacity="0.15" x="9" y="97.0137" width="8.19634" height="8.19634" rx="4.09817" fill="white"/>
<rect opacity="0.15" x="9" y="118.873" width="8.19634" height="8.19634" rx="4.09817" fill="white"/>
<rect opacity="0.15" x="9" y="140.729" width="8.19634" height="8.19634" rx="4.09817" fill="white"/>
<rect opacity="0.15" x="9" y="162.587" width="8.19634" height="8.19634" rx="4.09817" fill="white"/>
<rect opacity="0.15" x="9" y="184.442" width="8.19634" height="8.19634" rx="4.09817" fill="white"/>
<rect opacity="0.15" x="9" y="206.3" width="8.19634" height="8.19634" rx="4.09817" fill="white"/>
<rect x="41" y="87" width="400" height="15" fill="#EEF5FF" stroke="#D5E7FF" stroke-width="1.04367"/>
<rect opacity="0.5" x="168" y="93" width="21.1294" height="3" rx="1.5" fill="#629FF0"/>
<rect opacity="0.5" x="247" y="93" width="21.1294" height="3" rx="1.5" fill="#629FF0"/>
<rect opacity="0.5" x="325" y="93" width="21.1294" height="3" rx="1.5" fill="#629FF0"/>
<rect opacity="0.5" x="404" y="93" width="21.1294" height="3" rx="1.5" fill="#629FF0"/>
<rect opacity="0.5" x="46.0503" y="93" width="44.3732" height="3" rx="1.5" fill="#629FF0"/>
<rect width="400" height="22" transform="matrix(1 0 0 -1 41 124)" stroke="#D5E7FF"/>
<rect opacity="0.3" x="168" y="112" width="47" height="3" rx="1.5" fill="#629FF0"/>
<rect opacity="0.3" x="247" y="112" width="47" height="3" rx="1.5" fill="#629FF0"/>
<rect opacity="0.3" x="325" y="112" width="47" height="3" rx="1.5" fill="#629FF0"/>
<rect x="395" y="107" width="40" height="13" rx="6.5" fill="#BFE8C3"/>
<rect opacity="0.5" x="402" y="112" width="26" height="3" rx="1.5" fill="white"/>
<rect opacity="0.3" x="46" y="112" width="89" height="3" rx="1.5" fill="#629FF0"/>
<rect width="400" height="22" transform="matrix(1 0 0 -1 41 146)" stroke="#D5E7FF"/>
<rect opacity="0.3" x="168" y="134" width="47" height="3" rx="1.5" fill="#629FF0"/>
<rect opacity="0.3" x="247" y="134" width="47" height="3" rx="1.5" fill="#629FF0"/>
<rect opacity="0.3" x="325" y="134" width="47" height="3" rx="1.5" fill="#629FF0"/>
<rect x="395" y="129" width="40" height="13" rx="6.5" fill="#BFE8C3"/>
<rect opacity="0.5" x="402" y="134" width="26" height="3" rx="1.5" fill="white"/>
<rect opacity="0.3" x="46" y="134" width="89" height="3" rx="1.5" fill="#629FF0"/>
<rect width="400" height="22" transform="matrix(1 0 0 -1 41 168)" stroke="#D5E7FF"/>
<rect opacity="0.3" x="168" y="156" width="47" height="3" rx="1.5" fill="#629FF0"/>
<rect opacity="0.3" x="247" y="156" width="47" height="3" rx="1.5" fill="#629FF0"/>
<rect opacity="0.3" x="325" y="156" width="47" height="3" rx="1.5" fill="#629FF0"/>
<rect x="395" y="151" width="40" height="13" rx="6.5" fill="#BFE8C3"/>
<rect opacity="0.5" x="402" y="156" width="26" height="3" rx="1.5" fill="white"/>
<rect opacity="0.3" x="46" y="156" width="89" height="3" rx="1.5" fill="#629FF0"/>
<rect width="400" height="22" transform="matrix(1 0 0 -1 41 190)" stroke="#D5E7FF"/>
<rect opacity="0.3" x="168" y="178" width="47" height="3" rx="1.5" fill="#629FF0"/>
<rect opacity="0.3" x="247" y="178" width="47" height="3" rx="1.5" fill="#629FF0"/>
<rect opacity="0.3" x="325" y="178" width="47" height="3" rx="1.5" fill="#629FF0"/>
<rect x="395" y="173" width="40" height="13" rx="6.5" fill="#BFE8C3"/>
<rect opacity="0.5" x="402" y="178" width="26" height="3" rx="1.5" fill="white"/>
<rect opacity="0.3" x="46" y="178" width="89" height="3" rx="1.5" fill="#629FF0"/>
<rect width="400" height="22" transform="matrix(1 0 0 -1 41 212)" stroke="#D5E7FF"/>
<rect opacity="0.3" x="168" y="200" width="47" height="3" rx="1.5" fill="#629FF0"/>
<rect opacity="0.3" x="247" y="200" width="47" height="3" rx="1.5" fill="#629FF0"/>
<rect opacity="0.3" x="325" y="200" width="47" height="3" rx="1.5" fill="#629FF0"/>
<rect x="395" y="195" width="40" height="13" rx="6.5" fill="#BFE8C3"/>
<rect opacity="0.5" x="402" y="200" width="26" height="3" rx="1.5" fill="white"/>
<rect opacity="0.3" x="46" y="200" width="89" height="3" rx="1.5" fill="#629FF0"/>
<rect width="400" height="22" transform="matrix(1 0 0 -1 41 234)" stroke="#D5E7FF"/>
<rect opacity="0.3" x="168" y="222" width="47" height="3" rx="1.5" fill="#629FF0"/>
<rect opacity="0.3" x="247" y="222" width="47" height="3" rx="1.5" fill="#629FF0"/>
<rect opacity="0.3" x="325" y="222" width="47" height="3" rx="1.5" fill="#629FF0"/>
<rect x="395" y="217" width="40" height="13" rx="6.5" fill="#BFE8C3"/>
<rect opacity="0.5" x="402" y="222" width="26" height="3" rx="1.5" fill="white"/>
<rect opacity="0.3" x="46" y="222" width="89" height="3" rx="1.5" fill="#629FF0"/>
<rect opacity="0.5" x="41" y="76" width="148" height="3" rx="1.5" fill="#EDB4B4"/>
<rect x="318.706" y="49.5218" width="82.9307" height="13.9563" rx="2.47817" fill="white" stroke="#D4E7FF" stroke-width="1.04367"/>
<rect opacity="0.3" x="324.394" y="55" width="45.3195" height="3" rx="1.5" fill="#629FF0"/>
<rect x="226.311" y="49.5218" width="82.9307" height="13.9563" rx="2.47817" fill="white" stroke="#D4E7FF" stroke-width="1.04367"/>
<rect opacity="0.3" x="231.999" y="55" width="45.3195" height="3" rx="1.5" fill="#629FF0"/>
<rect x="133.917" y="49.5218" width="82.9307" height="13.9563" rx="2.47817" fill="white" stroke="#D4E7FF" stroke-width="1.04367"/>
<rect opacity="0.3" x="139.605" y="55" width="45.3195" height="3" rx="1.5" fill="#629FF0"/>
<rect x="41.5218" y="49.5218" width="82.9307" height="13.9563" rx="2.47817" fill="white" stroke="#D4E7FF" stroke-width="1.04367"/>
<rect opacity="0.3" x="47.2095" y="55" width="45.3195" height="3" rx="1.5" fill="#629FF0"/>
<rect x="410.58" y="49" width="30.4205" height="15" rx="2" fill="#DDEBFF"/>
<rect opacity="0.5" x="417.098" y="55" width="17.3832" height="3" rx="1.5" fill="#629FF0"/>
<path d="M455 22V4.21456C455 1.85441 453.169 0 450.839 0H4.16057C1.83065 0 0 1.85441 0 4.21456V22H455Z" fill="#DDEBFF"/>
<path d="M413.566 10.8114C413.566 13.3894 411.487 15.4685 408.909 15.4685C406.331 15.4685 404.252 13.3894 404.252 10.8114C404.252 8.23335 406.331 6.1543 408.909 6.1543C411.487 6.1543 413.566 8.23335 413.566 10.8114Z" fill="#70B44A"/>
<path d="M429.367 10.8114C429.367 13.3894 427.288 15.4685 424.71 15.4685C422.132 15.4685 420.053 13.3894 420.053 10.8114C420.053 8.23335 422.132 6.1543 424.71 6.1543C427.288 6.1543 429.367 8.23335 429.367 10.8114Z" fill="#DDAB54"/>
<path d="M445.25 10.8114C445.25 13.3894 443.171 15.4685 440.593 15.4685C438.015 15.4685 435.936 13.3894 435.936 10.8114C435.936 8.23335 438.015 6.1543 440.593 6.1543C443.171 6.1543 445.25 8.23335 445.25 10.8114Z" fill="#D6655D"/>
</svg>
