<svg width="455" height="281" viewBox="0 0 455 281" fill="none" xmlns="http://www.w3.org/2000/svg">
<path d="M27 22H455V276.84C455 279.138 453.138 281 450.84 281H27V22Z" fill="white"/>
<rect y="22" width="455" height="12" fill="#F6F6F6"/>
<rect x="424" y="25" width="6" height="6" rx="2" fill="#CCCCCC"/>
<rect x="434" y="25" width="6" height="6" rx="2" fill="#CCCCCC"/>
<path d="M0 22H27V281H4.16C1.8625 281 0 279.138 0 276.84V22Z" fill="#1A2334"/>
<path fill-rule="evenodd" clip-rule="evenodd" d="M11.9739 34.8032L8.92041 39.0324H11.8446L13.4195 36.8777L11.9739 34.8032ZM14.5091 35.3871L12.8383 33.6059L15.6879 29.6592H18.6957L14.5091 35.3871Z" fill="#1A73E8"/>
<path d="M7 26.5645L15.6891 39.0342H18.6969L7 26.5645Z" fill="#1A73E8"/>
<rect x="0.00146484" y="46.4717" width="27" height="21.8569" fill="#29354A"/>
<rect opacity="0.3" x="9.56445" y="53.3018" width="8.19634" height="8.19634" rx="4.09817" fill="white"/>
<rect opacity="0.15" x="9" y="75.1592" width="8.19634" height="8.19634" rx="4.09817" fill="white"/>
<rect opacity="0.15" x="9" y="97.0137" width="8.19634" height="8.19634" rx="4.09817" fill="white"/>
<rect opacity="0.15" x="9" y="118.873" width="8.19634" height="8.19634" rx="4.09817" fill="white"/>
<rect opacity="0.15" x="9" y="140.729" width="8.19634" height="8.19634" rx="4.09817" fill="white"/>
<rect opacity="0.15" x="9" y="162.587" width="8.19634" height="8.19634" rx="4.09817" fill="white"/>
<rect opacity="0.15" x="9" y="184.442" width="8.19634" height="8.19634" rx="4.09817" fill="white"/>
<rect opacity="0.15" x="9" y="206.3" width="8.19634" height="8.19634" rx="4.09817" fill="white"/>
<rect x="41" y="68" width="400" height="21" fill="#EEF5FF" stroke="#D5E7FF" stroke-width="1.04367"/>
<rect x="357.522" y="72.5218" width="21.9563" height="11.9563" rx="2.47817" fill="white" stroke="#D4E7FF" stroke-width="1.04367"/>
<rect opacity="0.5" x="364" y="77" width="9" height="3" rx="1.5" fill="#629FF0"/>
<rect x="387" y="72" width="46" height="13" rx="2" fill="#FFCA0F"/>
<rect x="396.857" y="77" width="26.2857" height="3.46154" rx="1.73077" fill="white" fill-opacity="0.5"/>
<rect opacity="0.5" x="46.0503" y="77" width="44.3732" height="3" rx="1.5" fill="#629FF0"/>
<rect width="400" height="16" transform="matrix(1 0 0 -1 41 105)" fill="white" stroke="#E2EFFF" stroke-width="1.04367"/>
<rect x="52" y="96" width="34.0114" height="3" rx="1.5" fill="#D0E3FB"/>
<rect x="94.7886" y="96" width="34.0114" height="3" rx="1.5" fill="#D0E3FB"/>
<rect x="139.771" y="96" width="34.0114" height="3" rx="1.5" fill="#D0E3FB"/>
<rect x="182.56" y="96" width="34.0114" height="3" rx="1.5" fill="#D0E3FB"/>
<rect x="244.486" y="96" width="34.0114" height="3" rx="1.5" fill="#D0E3FB"/>
<rect x="287.274" y="96" width="34.0114" height="3" rx="1.5" fill="#D0E3FB"/>
<rect x="354.2" y="96" width="34.0114" height="3" rx="1.5" fill="#D0E3FB"/>
<rect x="396.988" y="96" width="34.0114" height="3" rx="1.5" fill="#D0E3FB"/>
<rect x="41" y="105" width="400" height="21.5" fill="white" stroke="#E2EFFF"/>
<rect x="1" y="-1" width="98" height="17.7083" transform="matrix(1 0 0 -1 340 123.604)" fill="#EAF9F8" stroke="white" stroke-width="2"/>
<rect x="1" y="-1" width="186" height="17.7083" transform="matrix(1 0 0 -1 42 123.604)" fill="#EAF9EC" stroke="white" stroke-width="2"/>
<rect x="339" y="124.604" width="108" height="17.7083" transform="rotate(-180 339 124.604)" fill="#FADEDE" stroke="white" stroke-width="2"/>
<g opacity="0.12">
<rect x="53" y="114.854" width="34.0114" height="2.6875" rx="1.34375" fill="black"/>
<rect x="95.7886" y="114.854" width="34.0114" height="2.6875" rx="1.34375" fill="black"/>
<rect x="140.771" y="114.854" width="34.0114" height="2.6875" rx="1.34375" fill="black"/>
<rect x="183.56" y="114.854" width="34.0114" height="2.6875" rx="1.34375" fill="black"/>
<rect x="245.486" y="114.854" width="34.0114" height="2.6875" rx="1.34375" fill="black"/>
<rect x="288.274" y="114.854" width="34.0114" height="2.6875" rx="1.34375" fill="black"/>
<rect x="355.2" y="114.854" width="34.0114" height="2.6875" rx="1.34375" fill="black"/>
<rect x="397.988" y="114.854" width="34.0114" height="2.6875" rx="1.34375" fill="black"/>
</g>
<rect x="41" y="126.5" width="400" height="21.5" fill="white" stroke="#E2EFFF"/>
<rect x="1" y="-1" width="98" height="17.7083" transform="matrix(1 0 0 -1 340 145.104)" fill="#EAF9F8" stroke="white" stroke-width="2"/>
<rect x="1" y="-1" width="186" height="17.7083" transform="matrix(1 0 0 -1 42 145.104)" fill="#EAF9EC" stroke="white" stroke-width="2"/>
<rect x="339" y="146.104" width="108" height="17.7083" transform="rotate(-180 339 146.104)" fill="#FADEDE" stroke="white" stroke-width="2"/>
<g opacity="0.12">
<rect x="53" y="136.354" width="34.0114" height="2.6875" rx="1.34375" fill="black"/>
<rect x="95.7886" y="136.354" width="34.0114" height="2.6875" rx="1.34375" fill="black"/>
<rect x="140.771" y="136.354" width="34.0114" height="2.6875" rx="1.34375" fill="black"/>
<rect x="183.56" y="136.354" width="34.0114" height="2.6875" rx="1.34375" fill="black"/>
<rect x="245.486" y="136.354" width="34.0114" height="2.6875" rx="1.34375" fill="black"/>
<rect x="288.274" y="136.354" width="34.0114" height="2.6875" rx="1.34375" fill="black"/>
<rect x="355.2" y="136.354" width="34.0114" height="2.6875" rx="1.34375" fill="black"/>
<rect x="397.988" y="136.354" width="34.0114" height="2.6875" rx="1.34375" fill="black"/>
</g>
<rect x="41" y="161" width="400" height="21" fill="#EEF5FF" stroke="#D5E7FF" stroke-width="1.04367"/>
<rect x="357.522" y="165.522" width="21.9563" height="11.9563" rx="2.47817" fill="white" stroke="#D4E7FF" stroke-width="1.04367"/>
<rect opacity="0.5" x="364" y="170" width="9" height="3" rx="1.5" fill="#629FF0"/>
<rect x="387" y="165" width="46" height="13" rx="2" fill="#FFCA0F"/>
<rect x="396.857" y="170" width="26.2857" height="3.46154" rx="1.73077" fill="white" fill-opacity="0.5"/>
<rect opacity="0.5" x="46.0503" y="170" width="44.3732" height="3" rx="1.5" fill="#629FF0"/>
<rect width="400" height="16" transform="matrix(1 0 0 -1 41 198)" fill="white" stroke="#E2EFFF" stroke-width="1.04367"/>
<rect x="52" y="189" width="34.0114" height="3" rx="1.5" fill="#D0E3FB"/>
<rect x="94.7886" y="189" width="34.0114" height="3" rx="1.5" fill="#D0E3FB"/>
<rect x="139.771" y="189" width="34.0114" height="3" rx="1.5" fill="#D0E3FB"/>
<rect x="182.56" y="189" width="34.0114" height="3" rx="1.5" fill="#D0E3FB"/>
<rect x="244.486" y="189" width="34.0114" height="3" rx="1.5" fill="#D0E3FB"/>
<rect x="287.274" y="189" width="34.0114" height="3" rx="1.5" fill="#D0E3FB"/>
<rect x="354.2" y="189" width="34.0114" height="3" rx="1.5" fill="#D0E3FB"/>
<rect x="396.988" y="189" width="34.0114" height="3" rx="1.5" fill="#D0E3FB"/>
<rect x="41" y="198" width="400" height="21.5" fill="white" stroke="#E2EFFF"/>
<rect x="1" y="-1" width="98" height="17.7083" transform="matrix(1 0 0 -1 340 216.604)" fill="#EAF9F8" stroke="white" stroke-width="2"/>
<rect x="1" y="-1" width="186" height="17.7083" transform="matrix(1 0 0 -1 42 216.604)" fill="#EAF9EC" stroke="white" stroke-width="2"/>
<rect x="339" y="217.604" width="108" height="17.7083" transform="rotate(-180 339 217.604)" fill="#FADEDE" stroke="white" stroke-width="2"/>
<g opacity="0.12">
<rect x="53" y="207.854" width="34.0114" height="2.6875" rx="1.34375" fill="black"/>
<rect x="95.7886" y="207.854" width="34.0114" height="2.6875" rx="1.34375" fill="black"/>
<rect x="140.771" y="207.854" width="34.0114" height="2.6875" rx="1.34375" fill="black"/>
<rect x="183.56" y="207.854" width="34.0114" height="2.6875" rx="1.34375" fill="black"/>
<rect x="245.486" y="207.854" width="34.0114" height="2.6875" rx="1.34375" fill="black"/>
<rect x="288.274" y="207.854" width="34.0114" height="2.6875" rx="1.34375" fill="black"/>
<rect x="355.2" y="207.854" width="34.0114" height="2.6875" rx="1.34375" fill="black"/>
<rect x="397.988" y="207.854" width="34.0114" height="2.6875" rx="1.34375" fill="black"/>
</g>
<rect x="41" y="219.5" width="400" height="21.5" fill="white" stroke="#E2EFFF"/>
<rect x="1" y="-1" width="98" height="17.7083" transform="matrix(1 0 0 -1 340 238.104)" fill="#EAF9F8" stroke="white" stroke-width="2"/>
<rect x="1" y="-1" width="186" height="17.7083" transform="matrix(1 0 0 -1 42 238.104)" fill="#EAF9EC" stroke="white" stroke-width="2"/>
<rect x="339" y="239.104" width="108" height="17.7083" transform="rotate(-180 339 239.104)" fill="#FADEDE" stroke="white" stroke-width="2"/>
<g opacity="0.12">
<rect x="53" y="229.354" width="34.0114" height="2.6875" rx="1.34375" fill="black"/>
<rect x="95.7886" y="229.354" width="34.0114" height="2.6875" rx="1.34375" fill="black"/>
<rect x="140.771" y="229.354" width="34.0114" height="2.6875" rx="1.34375" fill="black"/>
<rect x="183.56" y="229.354" width="34.0114" height="2.6875" rx="1.34375" fill="black"/>
<rect x="245.486" y="229.354" width="34.0114" height="2.6875" rx="1.34375" fill="black"/>
<rect x="288.274" y="229.354" width="34.0114" height="2.6875" rx="1.34375" fill="black"/>
<rect x="355.2" y="229.354" width="34.0114" height="2.6875" rx="1.34375" fill="black"/>
<rect x="397.988" y="229.354" width="34.0114" height="2.6875" rx="1.34375" fill="black"/>
</g>
<rect x="218" y="253" width="46" height="15" rx="2" fill="#FF8934"/>
<rect x="227.857" y="259" width="26.2857" height="3.46154" rx="1.73077" fill="white" fill-opacity="0.5"/>
<rect x="270" y="253" width="46" height="15" rx="2" fill="#1A73E8"/>
<rect x="279.857" y="259" width="26.2857" height="3.46154" rx="1.73077" fill="white" fill-opacity="0.5"/>
<rect x="166" y="253" width="46" height="15" rx="2" fill="#FF8585"/>
<rect x="175.857" y="259" width="26.2857" height="3.46154" rx="1.73077" fill="white" fill-opacity="0.5"/>
<rect x="316.543" y="44.5218" width="123.935" height="13.9563" rx="2.47817" fill="white" stroke="#D4E7FF" stroke-width="1.04367"/>
<rect opacity="0.3" x="325.262" y="50" width="67.4487" height="3" rx="1.5" fill="#629FF0"/>
<rect x="179.033" y="44.5218" width="123.935" height="13.9563" rx="2.47817" fill="white" stroke="#D4E7FF" stroke-width="1.04367"/>
<rect opacity="0.3" x="187.753" y="50" width="67.4487" height="3" rx="1.5" fill="#629FF0"/>
<rect x="41.5218" y="44.5218" width="123.935" height="13.9563" rx="2.47817" fill="white" stroke="#D4E7FF" stroke-width="1.04367"/>
<rect opacity="0.3" x="50.2417" y="50" width="67.4487" height="3" rx="1.5" fill="#629FF0"/>
<path d="M455 22V4.21456C455 1.85441 453.169 0 450.839 0H4.16057C1.83065 0 0 1.85441 0 4.21456V22H455Z" fill="#DDEBFF"/>
<path d="M413.566 10.8114C413.566 13.3894 411.487 15.4685 408.909 15.4685C406.331 15.4685 404.252 13.3894 404.252 10.8114C404.252 8.23335 406.331 6.1543 408.909 6.1543C411.487 6.1543 413.566 8.23335 413.566 10.8114Z" fill="#70B44A"/>
<path d="M429.367 10.8114C429.367 13.3894 427.288 15.4685 424.71 15.4685C422.132 15.4685 420.053 13.3894 420.053 10.8114C420.053 8.23335 422.132 6.1543 424.71 6.1543C427.288 6.1543 429.367 8.23335 429.367 10.8114Z" fill="#DDAB54"/>
<path d="M445.25 10.8114C445.25 13.3894 443.171 15.4685 440.593 15.4685C438.015 15.4685 435.936 13.3894 435.936 10.8114C435.936 8.23335 438.015 6.1543 440.593 6.1543C443.171 6.1543 445.25 8.23335 445.25 10.8114Z" fill="#D6655D"/>
</svg>
