<svg width="455" height="281" viewBox="0 0 455 281" fill="none" xmlns="http://www.w3.org/2000/svg">
<path d="M27 22H455V276.84C455 279.138 453.138 281 450.84 281H27V22Z" fill="white"/>
<rect y="22" width="455" height="12" fill="#F6F6F6"/>
<rect x="424" y="25" width="6" height="6" rx="2" fill="#CCCCCC"/>
<rect x="434" y="25" width="6" height="6" rx="2" fill="#CCCCCC"/>
<path d="M0 22H27V281H4.16C1.8625 281 0 279.138 0 276.84V22Z" fill="#1A2334"/>
<path fill-rule="evenodd" clip-rule="evenodd" d="M11.9739 34.8032L8.92041 39.0324H11.8446L13.4195 36.8777L11.9739 34.8032ZM14.5091 35.3871L12.8383 33.6059L15.6879 29.6592H18.6957L14.5091 35.3871Z" fill="#1A73E8"/>
<path d="M7 26.5645L15.6891 39.0342H18.6969L7 26.5645Z" fill="#1A73E8"/>
<rect x="0.00146484" y="46.4717" width="27" height="21.8569" fill="#29354A"/>
<rect opacity="0.3" x="9.56445" y="53.3018" width="8.19634" height="8.19634" rx="4.09817" fill="white"/>
<rect opacity="0.15" x="9" y="75.1592" width="8.19634" height="8.19634" rx="4.09817" fill="white"/>
<rect opacity="0.15" x="9" y="97.0137" width="8.19634" height="8.19634" rx="4.09817" fill="white"/>
<rect opacity="0.15" x="9" y="118.873" width="8.19634" height="8.19634" rx="4.09817" fill="white"/>
<rect opacity="0.15" x="9" y="140.729" width="8.19634" height="8.19634" rx="4.09817" fill="white"/>
<rect opacity="0.15" x="9" y="162.587" width="8.19634" height="8.19634" rx="4.09817" fill="white"/>
<rect opacity="0.15" x="9" y="184.442" width="8.19634" height="8.19634" rx="4.09817" fill="white"/>
<rect opacity="0.15" x="9" y="206.3" width="8.19634" height="8.19634" rx="4.09817" fill="white"/>
<rect opacity="0.5" x="41" y="51" width="57.8723" height="3" rx="1.5" fill="#629FF0"/>
<rect x="41" y="60" width="46" height="11" rx="2" fill="#4BCB9B"/>
<rect x="50.8574" y="64" width="26.2857" height="3" rx="1.5" fill="white" fill-opacity="0.5"/>
<rect x="41.5" y="78.5" width="398" height="191" rx="2.5" stroke="#D4E7FF"/>
<rect opacity="0.5" x="53" y="86" width="34" height="3" rx="1.5" fill="#629FF0"/>
<rect opacity="0.5" x="100" y="86" width="34" height="3" rx="1.5" fill="#629FF0"/>
<rect opacity="0.5" x="146" y="86" width="34" height="3" rx="1.5" fill="#629FF0"/>
<rect opacity="0.5" x="193" y="86" width="34" height="3" rx="1.5" fill="#629FF0"/>
<rect x="384" y="87" width="46" height="15" rx="2" fill="#4BCB9B"/>
<rect x="393.857" y="93" width="26.2857" height="3.46154" rx="1.73077" fill="white" fill-opacity="0.5"/>
<rect opacity="0.5" x="396" y="107" width="34" height="3" rx="1.5" fill="#629FF0"/>
<rect x="332" y="87" width="46" height="15" rx="2" fill="#FFCA0F"/>
<rect x="341.857" y="93" width="26.2857" height="3.46154" rx="1.73077" fill="white" fill-opacity="0.5"/>
<rect x="53" y="97" width="46" height="11" rx="2" fill="#FF8934"/>
<rect x="62.8574" y="101" width="26.2857" height="3.46154" rx="1.73077" fill="white" fill-opacity="0.5"/>
<rect opacity="0.5" x="410" y="66" width="30.6383" height="3" rx="1.5" fill="#46CB99"/>
<rect x="53" y="117" width="377" height="14.1375" fill="#EEF5FF" stroke="#D5E7FF" stroke-width="1.04367"/>
<rect opacity="0.5" x="84.2363" y="122.654" width="25.6681" height="2.8275" rx="1.41375" fill="#629FF0"/>
<rect x="60.5" y="120.5" width="6" height="6" fill="#C8E0FF" stroke="#A8CBF8"/>
<rect opacity="0.5" x="171.528" y="122.654" width="25.6681" height="2.8275" rx="1.41375" fill="#629FF0"/>
<rect opacity="0.5" x="245.985" y="122.654" width="25.6681" height="2.8275" rx="1.41375" fill="#629FF0"/>
<rect opacity="0.5" x="318.558" y="122.654" width="25.6681" height="2.8275" rx="1.41375" fill="#629FF0"/>
<rect opacity="0.5" x="397" y="122.654" width="25.6681" height="2.8275" rx="1.41375" fill="#629FF0"/>
<rect width="377" height="16.0225" transform="matrix(1 0 0 -1 53 147)" stroke="#D5E7FF"/>
<rect opacity="0.3" x="84.2368" y="137.736" width="59.3574" height="2.8275" rx="1.41375" fill="#629FF0"/>
<rect x="60.5" y="136" width="6" height="6" stroke="#D0E3FB"/>
<rect x="60.5" y="152" width="6" height="6" stroke="#D0E3FB"/>
<rect x="60.5" y="168" width="6" height="6" stroke="#D0E3FB"/>
<rect x="60.5" y="184" width="6" height="6" stroke="#D0E3FB"/>
<rect x="60.5" y="200" width="6" height="6" stroke="#D0E3FB"/>
<rect x="60.5" y="216" width="6" height="6" stroke="#D0E3FB"/>
<rect x="60.5" y="232" width="6" height="6" stroke="#D0E3FB"/>
<rect x="60.5" y="248" width="6" height="6" stroke="#D0E3FB"/>
<rect opacity="0.3" x="171.308" y="137.736" width="43.355" height="2.8275" rx="1.41375" fill="#629FF0"/>
<rect opacity="0.3" x="245.765" y="137.736" width="43.355" height="2.8275" rx="1.41375" fill="#629FF0"/>
<rect opacity="0.3" x="318.337" y="137.736" width="43.355" height="2.8275" rx="1.41375" fill="#629FF0"/>
<rect x="395.583" y="135.409" width="27.2231" height="7.4825" rx="3.74125" fill="#FFE8EA" stroke="#FFDADD"/>
<rect opacity="0.5" x="401.247" y="138.208" width="16.4392" height="1.885" rx="0.9425" fill="#E88C94"/>
<rect width="377" height="16.0225" transform="matrix(1 0 0 -1 53 163.184)" stroke="#D5E7FF"/>
<rect opacity="0.3" x="84.2363" y="153.758" width="59.3574" height="2.8275" rx="1.41375" fill="#629FF0"/>
<rect opacity="0.3" x="171.307" y="153.758" width="43.355" height="2.8275" rx="1.41375" fill="#629FF0"/>
<rect opacity="0.3" x="245.765" y="153.758" width="43.355" height="2.8275" rx="1.41375" fill="#629FF0"/>
<rect opacity="0.3" x="318.337" y="153.758" width="43.355" height="2.8275" rx="1.41375" fill="#629FF0"/>
<rect x="395.582" y="151.433" width="27.2231" height="7.4825" rx="3.74125" fill="#FFE8EA" stroke="#FFDADD"/>
<rect opacity="0.5" x="401.247" y="154.231" width="16.4392" height="1.885" rx="0.9425" fill="#E88C94"/>
<rect width="377" height="16.0225" transform="matrix(1 0 0 -1 53 179.205)" stroke="#D5E7FF"/>
<rect opacity="0.3" x="84.2368" y="169.781" width="59.3574" height="2.8275" rx="1.41375" fill="#629FF0"/>
<rect opacity="0.3" x="171.308" y="169.781" width="43.355" height="2.8275" rx="1.41375" fill="#629FF0"/>
<rect opacity="0.3" x="245.765" y="169.781" width="43.355" height="2.8275" rx="1.41375" fill="#629FF0"/>
<rect opacity="0.3" x="318.337" y="169.781" width="43.355" height="2.8275" rx="1.41375" fill="#629FF0"/>
<rect x="395.583" y="167.455" width="27.2231" height="7.4825" rx="3.74125" fill="#FFE8EA" stroke="#FFDADD"/>
<rect opacity="0.5" x="401.247" y="170.254" width="16.4392" height="1.885" rx="0.9425" fill="#E88C94"/>
<rect width="377" height="16.0225" transform="matrix(1 0 0 -1 53 195.228)" stroke="#D5E7FF"/>
<rect opacity="0.3" x="84.2363" y="185.803" width="59.3574" height="2.8275" rx="1.41375" fill="#629FF0"/>
<rect opacity="0.3" x="171.307" y="185.803" width="43.355" height="2.8275" rx="1.41375" fill="#629FF0"/>
<rect opacity="0.3" x="245.765" y="185.803" width="43.355" height="2.8275" rx="1.41375" fill="#629FF0"/>
<rect opacity="0.3" x="318.337" y="185.803" width="43.355" height="2.8275" rx="1.41375" fill="#629FF0"/>
<rect x="395.582" y="183.476" width="27.2231" height="7.4825" rx="3.74125" fill="#FFE8EA" stroke="#FFDADD"/>
<rect opacity="0.5" x="401.247" y="186.274" width="16.4392" height="1.885" rx="0.9425" fill="#E88C94"/>
<rect width="377" height="16.0225" transform="matrix(1 0 0 -1 53 211.25)" stroke="#D5E7FF"/>
<rect opacity="0.3" x="84.2368" y="201.823" width="59.3574" height="2.8275" rx="1.41375" fill="#629FF0"/>
<rect opacity="0.3" x="171.308" y="201.823" width="43.355" height="2.8275" rx="1.41375" fill="#629FF0"/>
<rect opacity="0.3" x="245.765" y="201.823" width="43.355" height="2.8275" rx="1.41375" fill="#629FF0"/>
<rect opacity="0.3" x="318.337" y="201.823" width="43.355" height="2.8275" rx="1.41375" fill="#629FF0"/>
<rect x="395.583" y="199.494" width="27.2231" height="7.4825" rx="3.74125" fill="#FFE8EA" stroke="#FFDADD"/>
<rect opacity="0.5" x="401.247" y="202.293" width="16.4392" height="1.885" rx="0.9425" fill="#E88C94"/>
<rect width="377" height="16.0225" transform="matrix(1 0 0 -1 53 227.272)" stroke="#D5E7FF"/>
<rect opacity="0.3" x="84.2363" y="217.848" width="59.3574" height="2.8275" rx="1.41375" fill="#629FF0"/>
<rect opacity="0.3" x="171.307" y="217.848" width="43.355" height="2.8275" rx="1.41375" fill="#629FF0"/>
<rect opacity="0.3" x="245.765" y="217.848" width="43.355" height="2.8275" rx="1.41375" fill="#629FF0"/>
<rect opacity="0.3" x="318.337" y="217.848" width="43.355" height="2.8275" rx="1.41375" fill="#629FF0"/>
<rect x="395.582" y="215.521" width="27.2231" height="7.4825" rx="3.74125" fill="#FFE8EA" stroke="#FFDADD"/>
<rect opacity="0.5" x="401.247" y="218.319" width="16.4392" height="1.885" rx="0.9425" fill="#E88C94"/>
<rect width="377" height="16.0225" transform="matrix(1 0 0 -1 53 243.296)" stroke="#D5E7FF"/>
<rect opacity="0.3" x="84.2368" y="233.869" width="59.3574" height="2.8275" rx="1.41375" fill="#629FF0"/>
<rect opacity="0.3" x="171.308" y="233.869" width="43.355" height="2.8275" rx="1.41375" fill="#629FF0"/>
<rect opacity="0.3" x="245.765" y="233.869" width="43.355" height="2.8275" rx="1.41375" fill="#629FF0"/>
<rect opacity="0.3" x="318.337" y="233.869" width="43.355" height="2.8275" rx="1.41375" fill="#629FF0"/>
<rect x="395.583" y="231.541" width="27.2231" height="7.4825" rx="3.74125" fill="#FFE8EA" stroke="#FFDADD"/>
<rect opacity="0.5" x="401.247" y="234.34" width="16.4392" height="1.885" rx="0.9425" fill="#E88C94"/>
<rect width="377" height="16.0225" transform="matrix(1 0 0 -1 53 259.317)" stroke="#D5E7FF"/>
<rect opacity="0.3" x="84.2368" y="248.951" width="59.3574" height="2.8275" rx="1.41375" fill="#629FF0"/>
<rect opacity="0.3" x="171.308" y="248.951" width="43.355" height="2.8275" rx="1.41375" fill="#629FF0"/>
<rect opacity="0.3" x="245.765" y="248.951" width="43.355" height="2.8275" rx="1.41375" fill="#629FF0"/>
<rect opacity="0.3" x="318.337" y="248.951" width="43.355" height="2.8275" rx="1.41375" fill="#629FF0"/>
<rect x="395.583" y="246.625" width="27.2231" height="7.4825" rx="3.74125" fill="#FFE8EA" stroke="#FFDADD"/>
<rect opacity="0.5" x="401.247" y="249.424" width="16.4392" height="1.885" rx="0.9425" fill="#E88C94"/>
<rect x="294.522" y="44.5218" width="74.9563" height="13.9563" rx="2.47817" fill="white" stroke="#D4E7FF" stroke-width="1.04367"/>
<rect opacity="0.3" x="300" y="50" width="30" height="3" rx="1.5" fill="#629FF0"/>
<rect x="395" y="44" width="46" height="15" rx="2" fill="#1A73E8"/>
<rect x="404.857" y="50" width="26.2857" height="3.46154" rx="1.73077" fill="white" fill-opacity="0.5"/>
<rect x="375" y="44" width="15" height="15" rx="2" fill="#DDEBFF"/>
<rect opacity="0.5" x="378.214" y="50" width="8.57143" height="3" rx="1.5" fill="#629FF0"/>
<path d="M455 22V4.21456C455 1.85441 453.169 0 450.839 0H4.16057C1.83065 0 0 1.85441 0 4.21456V22H455Z" fill="#DDEBFF"/>
<path d="M413.566 10.8114C413.566 13.3894 411.487 15.4685 408.909 15.4685C406.331 15.4685 404.252 13.3894 404.252 10.8114C404.252 8.23335 406.331 6.1543 408.909 6.1543C411.487 6.1543 413.566 8.23335 413.566 10.8114Z" fill="#70B44A"/>
<path d="M429.367 10.8114C429.367 13.3894 427.288 15.4685 424.71 15.4685C422.132 15.4685 420.053 13.3894 420.053 10.8114C420.053 8.23335 422.132 6.1543 424.71 6.1543C427.288 6.1543 429.367 8.23335 429.367 10.8114Z" fill="#DDAB54"/>
<path d="M445.25 10.8114C445.25 13.3894 443.171 15.4685 440.593 15.4685C438.015 15.4685 435.936 13.3894 435.936 10.8114C435.936 8.23335 438.015 6.1543 440.593 6.1543C443.171 6.1543 445.25 8.23335 445.25 10.8114Z" fill="#D6655D"/>
</svg>
