<svg width="455" height="281" viewBox="0 0 455 281" fill="none" xmlns="http://www.w3.org/2000/svg">
<path d="M27 22H455V276.84C455 279.138 453.138 281 450.84 281H27V22Z" fill="white"/>
<rect y="22" width="455" height="12" fill="#F6F6F6"/>
<rect x="424" y="25" width="6" height="6" rx="2" fill="#CCCCCC"/>
<rect x="434" y="25" width="6" height="6" rx="2" fill="#CCCCCC"/>
<path d="M0 22H27V281H4.16C1.8625 281 0 279.138 0 276.84V22Z" fill="#1A2334"/>
<path fill-rule="evenodd" clip-rule="evenodd" d="M11.9739 34.8032L8.92041 39.0324H11.8446L13.4195 36.8777L11.9739 34.8032ZM14.5091 35.3871L12.8383 33.6059L15.6879 29.6592H18.6957L14.5091 35.3871Z" fill="#1A73E8"/>
<path d="M7 26.5645L15.6891 39.0342H18.6969L7 26.5645Z" fill="#1A73E8"/>
<rect x="0.00146484" y="46.4717" width="27" height="21.8569" fill="#29354A"/>
<rect opacity="0.3" x="9.56445" y="53.3018" width="8.19634" height="8.19634" rx="4.09817" fill="white"/>
<rect opacity="0.15" x="9" y="75.1592" width="8.19634" height="8.19634" rx="4.09817" fill="white"/>
<rect opacity="0.15" x="9" y="97.0137" width="8.19634" height="8.19634" rx="4.09817" fill="white"/>
<rect opacity="0.15" x="9" y="118.873" width="8.19634" height="8.19634" rx="4.09817" fill="white"/>
<rect opacity="0.15" x="9" y="140.729" width="8.19634" height="8.19634" rx="4.09817" fill="white"/>
<rect opacity="0.15" x="9" y="162.587" width="8.19634" height="8.19634" rx="4.09817" fill="white"/>
<rect opacity="0.15" x="9" y="184.442" width="8.19634" height="8.19634" rx="4.09817" fill="white"/>
<rect opacity="0.15" x="9" y="206.3" width="8.19634" height="8.19634" rx="4.09817" fill="white"/>
<rect width="400" height="15" transform="matrix(1 0 0 -1 41 79)" fill="white" stroke="#D5E7FF" stroke-width="1.04367"/>
<rect opacity="0.5" x="47.6172" y="70" width="57.8723" height="3" rx="1.5" fill="#629FF0"/>
<rect opacity="0.5" x="395.042" y="70" width="30.6383" height="3" rx="1.5" fill="#629FF0"/>
<rect x="41" y="89" width="400" height="15" fill="#EEF5FF" stroke="#D5E7FF" stroke-width="1.04367"/>
<rect opacity="0.5" x="47.6172" y="95" width="27.234" height="3" rx="1.5" fill="#629FF0"/>
<rect opacity="0.5" x="140.234" y="95" width="27.234" height="3" rx="1.5" fill="#629FF0"/>
<rect opacity="0.5" x="219.234" y="95" width="27.234" height="3" rx="1.5" fill="#629FF0"/>
<rect opacity="0.5" x="296.234" y="95" width="27.234" height="3" rx="1.5" fill="#629FF0"/>
<rect opacity="0.5" x="385" y="95" width="37.5634" height="3" rx="1.5" fill="#629FF0"/>
<rect width="400" height="17" transform="matrix(1 0 0 -1 41 121)" stroke="#D5E7FF"/>
<rect opacity="0.3" x="47.6172" y="111" width="62.9787" height="3" rx="1.5" fill="#629FF0"/>
<rect opacity="0.3" x="140" y="111" width="46" height="3" rx="1.5" fill="#629FF0"/>
<rect opacity="0.3" x="219" y="111" width="46" height="3" rx="1.5" fill="#629FF0"/>
<rect opacity="0.3" x="296" y="111" width="46" height="3" rx="1.5" fill="#629FF0"/>
<rect x="405.236" y="108.5" width="28.9449" height="8" rx="4" fill="#DDEBFF" stroke="#A0C6F8"/>
<rect x="410.698" y="111.5" width="17.4421" height="2" rx="1" fill="#A0C6F8"/>
<rect x="370.5" y="108.5" width="28.9449" height="8" rx="4" fill="#FFE8EA" stroke="#FFDADD"/>
<rect opacity="0.5" x="376.541" y="111.5" width="17.4421" height="2" rx="1" fill="#E88C94"/>
<rect width="400" height="17" transform="matrix(1 0 0 -1 41 138)" stroke="#D5E7FF"/>
<rect opacity="0.3" x="47.6172" y="128" width="62.9787" height="3" rx="1.5" fill="#629FF0"/>
<rect opacity="0.3" x="140" y="128" width="46" height="3" rx="1.5" fill="#629FF0"/>
<rect opacity="0.3" x="219" y="128" width="46" height="3" rx="1.5" fill="#629FF0"/>
<rect opacity="0.3" x="296" y="128" width="46" height="3" rx="1.5" fill="#629FF0"/>
<rect x="405.236" y="125.5" width="28.9449" height="8" rx="4" fill="#DDEBFF" stroke="#A0C6F8"/>
<rect x="410.698" y="128.5" width="17.4421" height="2" rx="1" fill="#A0C6F8"/>
<rect x="370.5" y="125.5" width="28.9449" height="8" rx="4" fill="#FFE8EA" stroke="#FFDADD"/>
<rect opacity="0.5" x="376.541" y="128.5" width="17.4421" height="2" rx="1" fill="#E88C94"/>
<rect width="400" height="17" transform="matrix(1 0 0 -1 41 155)" stroke="#D5E7FF"/>
<rect opacity="0.3" x="47.6172" y="145" width="62.9787" height="3" rx="1.5" fill="#629FF0"/>
<rect opacity="0.3" x="140" y="145" width="46" height="3" rx="1.5" fill="#629FF0"/>
<rect opacity="0.3" x="219" y="145" width="46" height="3" rx="1.5" fill="#629FF0"/>
<rect opacity="0.3" x="296" y="145" width="46" height="3" rx="1.5" fill="#629FF0"/>
<rect x="405.236" y="142.5" width="28.9449" height="8" rx="4" fill="#DDEBFF" stroke="#A0C6F8"/>
<rect x="410.698" y="145.5" width="17.4421" height="2" rx="1" fill="#A0C6F8"/>
<rect x="370.5" y="142.5" width="28.9449" height="8" rx="4" fill="#FFE8EA" stroke="#FFDADD"/>
<rect opacity="0.5" x="376.541" y="145.5" width="17.4421" height="2" rx="1" fill="#E88C94"/>
<rect width="400" height="17" transform="matrix(1 0 0 -1 41 172)" stroke="#D5E7FF"/>
<rect opacity="0.3" x="47.6172" y="162" width="62.9787" height="3" rx="1.5" fill="#629FF0"/>
<rect opacity="0.3" x="140" y="162" width="46" height="3" rx="1.5" fill="#629FF0"/>
<rect opacity="0.3" x="219" y="162" width="46" height="3" rx="1.5" fill="#629FF0"/>
<rect opacity="0.3" x="296" y="162" width="46" height="3" rx="1.5" fill="#629FF0"/>
<rect x="405.236" y="159.5" width="28.9449" height="8" rx="4" fill="#DDEBFF" stroke="#A0C6F8"/>
<rect x="410.698" y="162.5" width="17.4421" height="2" rx="1" fill="#A0C6F8"/>
<rect x="370.5" y="159.5" width="28.9449" height="8" rx="4" fill="#FFE8EA" stroke="#FFDADD"/>
<rect opacity="0.5" x="376.541" y="162.5" width="17.4421" height="2" rx="1" fill="#E88C94"/>
<rect width="400" height="17" transform="matrix(1 0 0 -1 41 189)" stroke="#D5E7FF"/>
<rect opacity="0.3" x="47.6172" y="179" width="62.9787" height="3" rx="1.5" fill="#629FF0"/>
<rect opacity="0.3" x="140" y="179" width="46" height="3" rx="1.5" fill="#629FF0"/>
<rect opacity="0.3" x="219" y="179" width="46" height="3" rx="1.5" fill="#629FF0"/>
<rect opacity="0.3" x="296" y="179" width="46" height="3" rx="1.5" fill="#629FF0"/>
<rect x="405.236" y="176.5" width="28.9449" height="8" rx="4" fill="#DDEBFF" stroke="#A0C6F8"/>
<rect x="410.698" y="179.5" width="17.4421" height="2" rx="1" fill="#A0C6F8"/>
<rect x="370.5" y="176.5" width="28.9449" height="8" rx="4" fill="#FFE8EA" stroke="#FFDADD"/>
<rect opacity="0.5" x="376.541" y="179.5" width="17.4421" height="2" rx="1" fill="#E88C94"/>
<rect width="400" height="17" transform="matrix(1 0 0 -1 41 206)" stroke="#D5E7FF"/>
<rect opacity="0.3" x="47.6172" y="196" width="62.9787" height="3" rx="1.5" fill="#629FF0"/>
<rect opacity="0.3" x="140" y="196" width="46" height="3" rx="1.5" fill="#629FF0"/>
<rect opacity="0.3" x="219" y="196" width="46" height="3" rx="1.5" fill="#629FF0"/>
<rect opacity="0.3" x="296" y="196" width="46" height="3" rx="1.5" fill="#629FF0"/>
<rect x="405.236" y="193.5" width="28.9449" height="8" rx="4" fill="#DDEBFF" stroke="#A0C6F8"/>
<rect x="410.698" y="196.5" width="17.4421" height="2" rx="1" fill="#A0C6F8"/>
<rect x="370.5" y="193.5" width="28.9449" height="8" rx="4" fill="#FFE8EA" stroke="#FFDADD"/>
<rect opacity="0.5" x="376.541" y="196.5" width="17.4421" height="2" rx="1" fill="#E88C94"/>
<rect width="400" height="17" transform="matrix(1 0 0 -1 41 223)" stroke="#D5E7FF"/>
<rect opacity="0.3" x="47.6172" y="213" width="62.9787" height="3" rx="1.5" fill="#629FF0"/>
<rect opacity="0.3" x="140" y="213" width="46" height="3" rx="1.5" fill="#629FF0"/>
<rect opacity="0.3" x="219" y="213" width="46" height="3" rx="1.5" fill="#629FF0"/>
<rect opacity="0.3" x="296" y="213" width="46" height="3" rx="1.5" fill="#629FF0"/>
<rect x="405.236" y="210.5" width="28.9449" height="8" rx="4" fill="#DDEBFF" stroke="#A0C6F8"/>
<rect x="410.698" y="213.5" width="17.4421" height="2" rx="1" fill="#A0C6F8"/>
<rect x="370.5" y="210.5" width="28.9449" height="8" rx="4" fill="#FFE8EA" stroke="#FFDADD"/>
<rect opacity="0.5" x="376.541" y="213.5" width="17.4421" height="2" rx="1" fill="#E88C94"/>
<rect width="400" height="17" transform="matrix(1 0 0 -1 41 240)" stroke="#D5E7FF"/>
<rect opacity="0.3" x="47.6172" y="229" width="62.9787" height="3" rx="1.5" fill="#629FF0"/>
<rect opacity="0.3" x="140" y="229" width="46" height="3" rx="1.5" fill="#629FF0"/>
<rect opacity="0.3" x="219" y="229" width="46" height="3" rx="1.5" fill="#629FF0"/>
<rect opacity="0.3" x="296" y="229" width="46" height="3" rx="1.5" fill="#629FF0"/>
<rect x="405.236" y="226.5" width="28.9449" height="8" rx="4" fill="#DDEBFF" stroke="#A0C6F8"/>
<rect x="410.698" y="229.5" width="17.4421" height="2" rx="1" fill="#A0C6F8"/>
<rect x="370.5" y="226.5" width="28.9449" height="8" rx="4" fill="#FFE8EA" stroke="#FFDADD"/>
<rect opacity="0.5" x="376.541" y="229.5" width="17.4421" height="2" rx="1" fill="#E88C94"/>
<rect width="400" height="17" transform="matrix(1 0 0 -1 41 257)" stroke="#D5E7FF"/>
<rect opacity="0.3" x="47.6172" y="247" width="62.9787" height="3" rx="1.5" fill="#629FF0"/>
<rect opacity="0.3" x="140" y="247" width="46" height="3" rx="1.5" fill="#629FF0"/>
<rect opacity="0.3" x="219" y="247" width="46" height="3" rx="1.5" fill="#629FF0"/>
<rect opacity="0.3" x="296" y="247" width="46" height="3" rx="1.5" fill="#629FF0"/>
<rect x="405.236" y="244.5" width="28.9449" height="8" rx="4" fill="#DDEBFF" stroke="#A0C6F8"/>
<rect x="410.698" y="247.5" width="17.4421" height="2" rx="1" fill="#A0C6F8"/>
<rect x="370.5" y="244.5" width="28.9449" height="8" rx="4" fill="#FFE8EA" stroke="#FFDADD"/>
<rect opacity="0.5" x="376.541" y="247.5" width="17.4421" height="2" rx="1" fill="#E88C94"/>
<rect x="41" y="44" width="44" height="10" fill="#E1EDFD" stroke="#D5E7FF" stroke-width="1.04367"/>
<rect opacity="0.3" x="44.2534" y="48" width="23.746" height="2" rx="1" fill="#629FF0"/>
<rect x="92" y="44" width="44" height="10" fill="#E1EDFD" stroke="#D5E7FF" stroke-width="1.04367"/>
<rect opacity="0.3" x="95.2534" y="48" width="23.746" height="2" rx="1" fill="#629FF0"/>
<path d="M455 22V4.21456C455 1.85441 453.169 0 450.839 0H4.16057C1.83065 0 0 1.85441 0 4.21456V22H455Z" fill="#DDEBFF"/>
<path d="M413.566 10.8114C413.566 13.3894 411.487 15.4685 408.909 15.4685C406.331 15.4685 404.252 13.3894 404.252 10.8114C404.252 8.23335 406.331 6.1543 408.909 6.1543C411.487 6.1543 413.566 8.23335 413.566 10.8114Z" fill="#70B44A"/>
<path d="M429.367 10.8114C429.367 13.3894 427.288 15.4685 424.71 15.4685C422.132 15.4685 420.053 13.3894 420.053 10.8114C420.053 8.23335 422.132 6.1543 424.71 6.1543C427.288 6.1543 429.367 8.23335 429.367 10.8114Z" fill="#DDAB54"/>
<path d="M445.25 10.8114C445.25 13.3894 443.171 15.4685 440.593 15.4685C438.015 15.4685 435.936 13.3894 435.936 10.8114C435.936 8.23335 438.015 6.1543 440.593 6.1543C443.171 6.1543 445.25 8.23335 445.25 10.8114Z" fill="#D6655D"/>
</svg>
