<svg width="695" height="522" viewBox="0 0 695 522" fill="none" xmlns="http://www.w3.org/2000/svg">
<path d="M216.726 164.555C246.07 79.709 364.225 50.8213 429.406 112.557L528.743 206.644C593.924 268.379 557.245 374.437 462.721 397.547L318.664 432.767C224.14 455.878 142.663 378.708 172.007 293.862L216.726 164.555Z" fill="#F1F5FF"/>
<g filter="url(#filter0_d_18_62)">
<path d="M120 138H147V397H124.16C121.862 397 120 395.138 120 392.84V138Z" fill="#1A2334"/>
<path fill-rule="evenodd" clip-rule="evenodd" d="M131.975 150.804L128.921 155.033H131.845L133.42 152.878L131.975 150.804ZM134.51 151.388L132.839 149.607L135.688 145.66H138.696L134.51 151.388Z" fill="#1A73E8"/>
<path d="M127 142.564L135.689 155.034H138.697L127 142.564Z" fill="#1A73E8"/>
<rect x="120.002" y="162.473" width="27" height="21.8569" fill="#29354A"/>
<rect opacity="0.3" x="129.564" y="169.303" width="8.19634" height="8.19634" rx="4.09817" fill="white"/>
<rect opacity="0.15" x="129" y="191.16" width="8.19634" height="8.19634" rx="4.09817" fill="white"/>
<rect opacity="0.15" x="129" y="213.016" width="8.19634" height="8.19634" rx="4.09817" fill="white"/>
<rect opacity="0.15" x="129" y="234.873" width="8.19634" height="8.19634" rx="4.09817" fill="white"/>
<rect opacity="0.15" x="129" y="256.73" width="8.19634" height="8.19634" rx="4.09817" fill="white"/>
<rect opacity="0.15" x="129" y="278.588" width="8.19634" height="8.19634" rx="4.09817" fill="white"/>
<rect opacity="0.15" x="129" y="300.443" width="8.19634" height="8.19634" rx="4.09817" fill="white"/>
<rect opacity="0.15" x="129" y="322.301" width="8.19634" height="8.19634" rx="4.09817" fill="white"/>
<path d="M147 138H575V392.84C575 395.138 573.138 397 570.84 397H147V138Z" fill="white"/>
<rect x="147" y="138" width="428" height="12" fill="#F6F6F6"/>
<rect x="544" y="141" width="6" height="6" rx="2" fill="#CCCCCC"/>
<rect x="554" y="141" width="6" height="6" rx="2" fill="#CCCCCC"/>
<rect x="162.522" y="266.522" width="124.588" height="50.9563" rx="3.47817" fill="white" stroke="#D5E7FF" stroke-width="1.04367"/>
<path d="M166 266.522H283.631C285.552 266.522 287.11 268.079 287.11 270V279.478H162.522V270C162.522 268.079 164.079 266.522 166 266.522Z" fill="#00A5FF" stroke="#00A5FF" stroke-width="1.04367"/>
<rect opacity="0.403" x="262.188" y="271.291" width="21.0238" height="4.85257" rx="2.42629" fill="white"/>
<rect opacity="0.403" x="167.025" y="271" width="44.1514" height="4" rx="2" fill="white"/>
<rect opacity="0.2" x="271.502" y="286.664" width="11.7104" height="2.99995" rx="1.49998" fill="#629FF0"/>
<rect opacity="0.2" x="167.313" y="286.664" width="44.1514" height="2.99995" rx="1.49998" fill="#629FF0"/>
<rect opacity="0.2" x="271.502" y="296.664" width="11.7104" height="3" rx="1.5" fill="#629FF0"/>
<rect opacity="0.2" x="167.313" y="296.664" width="44.1514" height="3" rx="1.5" fill="#629FF0"/>
<rect opacity="0.2" x="271.502" y="306.664" width="11.7104" height="3" rx="1.5" fill="#629FF0"/>
<rect opacity="0.2" x="167.313" y="306.664" width="44.1514" height="3" rx="1.5" fill="#629FF0"/>
<rect x="162.522" y="326.522" width="124.588" height="50.9563" rx="3.47817" fill="white" stroke="#D5E7FF" stroke-width="1.04367"/>
<path d="M166 326.522H283.631C285.552 326.522 287.11 328.079 287.11 330V339.478H162.522V330C162.522 328.079 164.079 326.522 166 326.522Z" fill="#CF3737" stroke="#CF3737" stroke-width="1.04367"/>
<rect opacity="0.403" x="262.188" y="331.291" width="21.0238" height="4.85257" rx="2.42629" fill="white"/>
<rect opacity="0.403" x="167.025" y="331" width="44.1514" height="4" rx="2" fill="white"/>
<rect opacity="0.2" x="271.502" y="346.664" width="11.7104" height="2.99995" rx="1.49998" fill="#629FF0"/>
<rect opacity="0.2" x="167.313" y="346.664" width="44.1514" height="2.99995" rx="1.49998" fill="#629FF0"/>
<rect opacity="0.2" x="271.502" y="356.664" width="11.7104" height="3" rx="1.5" fill="#629FF0"/>
<rect opacity="0.2" x="167.313" y="356.664" width="44.1514" height="3" rx="1.5" fill="#629FF0"/>
<rect opacity="0.2" x="271.502" y="366.664" width="11.7104" height="3" rx="1.5" fill="#629FF0"/>
<rect opacity="0.2" x="167.313" y="366.664" width="44.1514" height="3" rx="1.5" fill="#629FF0"/>
<rect x="298.203" y="266.522" width="124.588" height="50.9563" rx="3.47817" fill="white" stroke="#D5E7FF" stroke-width="1.04367"/>
<path d="M301.682 266.522H419.313C421.234 266.522 422.791 268.079 422.791 270V279.478H298.203V270C298.203 268.079 299.761 266.522 301.682 266.522Z" fill="#4BCB9B" stroke="#4BCB9B" stroke-width="1.04367"/>
<rect opacity="0.403" x="397.87" y="271.291" width="21.0238" height="4.85257" rx="2.42629" fill="white"/>
<rect opacity="0.403" x="302.707" y="271" width="44.1514" height="4" rx="2" fill="white"/>
<rect opacity="0.2" x="407.182" y="286.664" width="11.7104" height="2.99995" rx="1.49998" fill="#629FF0"/>
<rect opacity="0.2" x="302.994" y="286.664" width="44.1514" height="2.99995" rx="1.49998" fill="#629FF0"/>
<rect opacity="0.2" x="407.182" y="296.664" width="11.7104" height="3" rx="1.5" fill="#629FF0"/>
<rect opacity="0.2" x="302.994" y="296.664" width="44.1514" height="3" rx="1.5" fill="#629FF0"/>
<rect opacity="0.2" x="407.182" y="306.664" width="11.7104" height="3" rx="1.5" fill="#629FF0"/>
<rect opacity="0.2" x="302.994" y="306.664" width="44.1514" height="3" rx="1.5" fill="#629FF0"/>
<rect x="298.203" y="326.522" width="124.588" height="50.9563" rx="3.47817" fill="white" stroke="#D5E7FF" stroke-width="1.04367"/>
<path d="M301.682 326.522H419.313C421.234 326.522 422.791 328.079 422.791 330V339.478H298.203V330C298.203 328.079 299.761 326.522 301.682 326.522Z" fill="#FFBE07" stroke="#FFBE07" stroke-width="1.04367"/>
<rect opacity="0.403" x="397.87" y="331.291" width="21.0238" height="4.85257" rx="2.42629" fill="white"/>
<rect opacity="0.403" x="302.707" y="331" width="44.1514" height="4" rx="2" fill="white"/>
<rect opacity="0.2" x="407.182" y="346.664" width="11.7104" height="2.99995" rx="1.49998" fill="#629FF0"/>
<rect opacity="0.2" x="302.994" y="346.664" width="44.1514" height="2.99995" rx="1.49998" fill="#629FF0"/>
<rect opacity="0.2" x="407.182" y="356.664" width="11.7104" height="3" rx="1.5" fill="#629FF0"/>
<rect opacity="0.2" x="302.994" y="356.664" width="44.1514" height="3" rx="1.5" fill="#629FF0"/>
<rect opacity="0.2" x="407.182" y="366.664" width="11.7104" height="3" rx="1.5" fill="#629FF0"/>
<rect opacity="0.2" x="302.994" y="366.664" width="44.1514" height="3" rx="1.5" fill="#629FF0"/>
<rect x="434.891" y="266.522" width="124.588" height="50.9563" rx="3.47817" fill="white" stroke="#D5E7FF" stroke-width="1.04367"/>
<path d="M438.369 266.522H556C557.921 266.522 559.479 268.079 559.479 270V279.478H434.891V270C434.891 268.079 436.448 266.522 438.369 266.522Z" fill="#FF7963" stroke="#FF7963" stroke-width="1.04367"/>
<rect opacity="0.403" x="534.557" y="271.291" width="21.0238" height="4.85257" rx="2.42629" fill="white"/>
<rect opacity="0.403" x="439.395" y="271" width="44.1514" height="4" rx="2" fill="white"/>
<rect opacity="0.2" x="543.87" y="286.664" width="11.7104" height="2.99995" rx="1.49998" fill="#629FF0"/>
<rect opacity="0.2" x="439.682" y="286.664" width="44.1514" height="2.99995" rx="1.49998" fill="#629FF0"/>
<rect opacity="0.2" x="543.87" y="296.664" width="11.7104" height="3" rx="1.5" fill="#629FF0"/>
<rect opacity="0.2" x="439.682" y="296.664" width="44.1514" height="3" rx="1.5" fill="#629FF0"/>
<rect opacity="0.2" x="543.87" y="306.664" width="11.7104" height="3" rx="1.5" fill="#629FF0"/>
<rect opacity="0.2" x="439.682" y="306.664" width="44.1514" height="3" rx="1.5" fill="#629FF0"/>
<rect x="434.891" y="326.522" width="124.588" height="50.9563" rx="3.47817" fill="white" stroke="#D5E7FF" stroke-width="1.04367"/>
<path d="M438.369 326.522H556C557.921 326.522 559.479 328.079 559.479 330V339.478H434.891V330C434.891 328.079 436.448 326.522 438.369 326.522Z" fill="#B060B9" stroke="#B060B9" stroke-width="1.04367"/>
<rect opacity="0.403" x="534.557" y="331.291" width="21.0238" height="4.85257" rx="2.42629" fill="white"/>
<rect opacity="0.403" x="439.395" y="331" width="44.1514" height="4" rx="2" fill="white"/>
<rect opacity="0.2" x="543.87" y="346.664" width="11.7104" height="2.99995" rx="1.49998" fill="#629FF0"/>
<rect opacity="0.2" x="439.682" y="346.664" width="44.1514" height="2.99995" rx="1.49998" fill="#629FF0"/>
<rect opacity="0.2" x="543.87" y="356.664" width="11.7104" height="3" rx="1.5" fill="#629FF0"/>
<rect opacity="0.2" x="439.682" y="356.664" width="44.1514" height="3" rx="1.5" fill="#629FF0"/>
<rect opacity="0.2" x="543.87" y="366.664" width="11.7104" height="3" rx="1.5" fill="#629FF0"/>
<rect opacity="0.2" x="439.682" y="366.664" width="44.1514" height="3" rx="1.5" fill="#629FF0"/>
<rect x="162.522" y="165.522" width="70.5963" height="36.9563" rx="2.47817" fill="#F7FAFF" stroke="#DEECFF" stroke-width="1.04367"/>
<rect x="191.851" y="172" width="11.94" height="12" rx="5.97" fill="#349C7C"/>
<rect opacity="0.3" x="189.86" y="188" width="15.92" height="3" rx="1.5" fill="#0A58BE"/>
<rect opacity="0.3" x="177.92" y="193" width="39.8" height="3" rx="1.5" fill="#629FF0"/>
<rect x="244.112" y="165.522" width="70.5963" height="36.9563" rx="2.47817" fill="#F7FAFF" stroke="#DEECFF" stroke-width="1.04367"/>
<rect x="273.44" y="172" width="11.94" height="12" rx="5.97" fill="#A37CFC"/>
<rect opacity="0.3" x="271.45" y="188" width="15.92" height="3" rx="1.5" fill="#0A58BE"/>
<rect opacity="0.3" x="259.51" y="193" width="39.8" height="3" rx="1.5" fill="#629FF0"/>
<rect x="325.702" y="165.522" width="70.5963" height="36.9563" rx="2.47817" fill="#F7FAFF" stroke="#DEECFF" stroke-width="1.04367"/>
<rect x="355.029" y="172" width="11.94" height="12" rx="5.97" fill="#4BCB9B"/>
<rect opacity="0.3" x="353.04" y="188" width="15.92" height="3" rx="1.5" fill="#0A58BE"/>
<rect opacity="0.3" x="341.1" y="193" width="39.8" height="3" rx="1.5" fill="#629FF0"/>
<rect x="407.291" y="165.522" width="70.5963" height="36.9563" rx="2.47817" fill="#F7FAFF" stroke="#DEECFF" stroke-width="1.04367"/>
<rect x="436.62" y="172" width="11.94" height="12" rx="5.97" fill="#FF9B63"/>
<rect opacity="0.3" x="434.63" y="188" width="15.92" height="3" rx="1.5" fill="#0A58BE"/>
<rect opacity="0.3" x="422.69" y="193" width="39.8" height="3" rx="1.5" fill="#629FF0"/>
<rect x="488.882" y="165.522" width="70.5963" height="36.9563" rx="2.47817" fill="#F7FAFF" stroke="#DEECFF" stroke-width="1.04367"/>
<rect x="518.21" y="172" width="11.94" height="12" rx="5.97" fill="#00A5FF"/>
<rect opacity="0.3" x="516.221" y="188" width="15.92" height="3" rx="1.5" fill="#0A58BE"/>
<rect opacity="0.3" x="504.28" y="193" width="39.8" height="3" rx="1.5" fill="#629FF0"/>
<rect x="162.522" y="217.522" width="90.6302" height="12.9563" rx="2.47817" fill="white" stroke="#D4E7FF" stroke-width="1.04367"/>
<rect opacity="0.2" x="165.473" y="223" width="34.7171" height="3" rx="1.5" fill="#629FF0"/>
<rect x="264.63" y="217.522" width="90.6302" height="12.9563" rx="2.47817" fill="white" stroke="#D4E7FF" stroke-width="1.04367"/>
<rect opacity="0.2" x="267.582" y="223" width="34.7171" height="3" rx="1.5" fill="#629FF0"/>
<rect x="366.74" y="217.522" width="90.6302" height="12.9563" rx="2.47817" fill="white" stroke="#D4E7FF" stroke-width="1.04367"/>
<rect opacity="0.2" x="369.691" y="223" width="34.7171" height="3" rx="1.5" fill="#629FF0"/>
<rect x="468.848" y="217.522" width="90.6302" height="12.9563" rx="2.47817" fill="white" stroke="#D4E7FF" stroke-width="1.04367"/>
<rect opacity="0.2" x="471.8" y="223" width="34.7171" height="3" rx="1.5" fill="#629FF0"/>
<rect x="162" y="246" width="114.425" height="12" rx="1" fill="#E0ECFC"/>
<rect opacity="0.5" x="195.22" y="250.801" width="19.686" height="2.4" rx="1.2" fill="#629FF0"/>
<rect opacity="0.5" x="224.749" y="250.801" width="19.686" height="2.4" rx="1.2" fill="#629FF0"/>
<rect opacity="0.5" x="253.048" y="250.801" width="19.686" height="2.4" rx="1.2" fill="#629FF0"/>
<path d="M162 247C162 246.448 162.448 246 163 246H190.299V258H163C162.448 258 162 257.552 162 257V247Z" fill="#1A73E8"/>
<rect x="166.922" y="250.801" width="18.4556" height="2.4" rx="1.2" fill="white" fill-opacity="0.5"/>
<line x1="220.077" y1="246" x2="220.077" y2="258" stroke="#BFCFE4" stroke-width="0.5"/>
<line x1="248.376" y1="246" x2="248.376" y2="258" stroke="#BFCFE4" stroke-width="0.5"/>
<path d="M575 138V120.215C575 117.854 573.169 116 570.839 116H124.161C121.831 116 120 117.854 120 120.215V138H575Z" fill="#DDEBFF"/>
<path d="M533.566 126.811C533.566 129.389 531.487 131.468 528.909 131.468C526.331 131.468 524.252 129.389 524.252 126.811C524.252 124.233 526.331 122.154 528.909 122.154C531.487 122.154 533.566 124.233 533.566 126.811Z" fill="#70B44A"/>
<path d="M549.367 126.811C549.367 129.389 547.288 131.468 544.71 131.468C542.132 131.468 540.053 129.389 540.053 126.811C540.053 124.233 542.132 122.154 544.71 122.154C547.288 122.154 549.367 124.233 549.367 126.811Z" fill="#DDAB54"/>
<path d="M565.25 126.811C565.25 129.389 563.171 131.468 560.593 131.468C558.015 131.468 555.936 129.389 555.936 126.811C555.936 124.233 558.015 122.154 560.593 122.154C563.171 122.154 565.25 124.233 565.25 126.811Z" fill="#D6655D"/>
</g>
<defs>
<filter id="filter0_d_18_62" x="0" y="0.384548" width="695" height="521" filterUnits="userSpaceOnUse" color-interpolation-filters="sRGB">
<feFlood flood-opacity="0" result="BackgroundImageFix"/>
<feColorMatrix in="SourceAlpha" type="matrix" values="0 0 0 0 0 0 0 0 0 0 0 0 0 0 0 0 0 0 127 0" result="hardAlpha"/>
<feOffset dy="4.38455"/>
<feGaussianBlur stdDeviation="60"/>
<feComposite in2="hardAlpha" operator="out"/>
<feColorMatrix type="matrix" values="0 0 0 0 0 0 0 0 0 0 0 0 0 0 0 0 0 0 0.15 0"/>
<feBlend mode="normal" in2="BackgroundImageFix" result="effect1_dropShadow_18_62"/>
<feBlend mode="normal" in="SourceGraphic" in2="effect1_dropShadow_18_62" result="shape"/>
</filter>
</defs>
</svg>
