<svg width="695" height="522" viewBox="0 0 695 522" fill="none" xmlns="http://www.w3.org/2000/svg">
<path d="M213.726 166.555C243.07 81.709 361.225 52.8213 426.406 114.557L525.743 208.644C590.924 270.379 554.245 376.437 459.721 399.547L315.664 434.767C221.14 457.878 139.663 380.708 169.007 295.862L213.726 166.555Z" fill="white"/>
<g filter="url(#filter0_d_26_55)">
<path d="M574.897 137.892V392.38C574.897 394.966 573.066 396.999 570.737 396.999H124.16C121.831 396.999 120 394.966 120 392.38V137.892C120 135.306 121.831 133.273 124.16 133.273H570.737C573.066 133.273 574.897 135.398 574.897 137.892Z" fill="white"/>
<g clip-path="url(#clip0_26_55)">
<rect x="120" y="138.141" width="454.897" height="259.119" fill="white"/>
<rect x="120" y="137.88" width="454.897" height="24.589" fill="#F6F6F6"/>
<g clip-path="url(#clip1_26_55)">
<path d="M539.195 146.095C538.822 146.095 538.52 146.397 538.52 146.77C538.52 146.799 538.526 146.827 538.53 146.855C537.363 147.153 536.493 148.213 536.493 149.472V152.511C536.493 152.702 536.347 152.849 536.156 152.849H535.818V153.524H538.245C538.207 153.631 538.182 153.743 538.182 153.862C538.182 154.417 538.64 154.875 539.195 154.875C539.75 154.875 540.208 154.417 540.208 153.862C540.208 153.743 540.183 153.631 540.145 153.524H542.572V152.849H542.234C542.043 152.849 541.897 152.702 541.897 152.511V149.567C541.897 148.298 541.048 147.166 539.86 146.855C539.864 146.827 539.87 146.799 539.87 146.77C539.87 146.397 539.568 146.095 539.195 146.095ZM539.047 147.446C539.096 147.442 539.145 147.446 539.195 147.446C539.216 147.446 539.237 147.446 539.258 147.446C540.361 147.478 541.221 148.445 541.221 149.567V152.511C541.221 152.63 541.246 152.742 541.285 152.849H537.106C537.144 152.742 537.169 152.63 537.169 152.511V149.472C537.169 148.399 537.995 147.522 539.047 147.446ZM539.195 153.524C539.385 153.524 539.533 153.672 539.533 153.862C539.533 154.052 539.385 154.199 539.195 154.199C539.005 154.199 538.857 154.052 538.857 153.862C538.857 153.672 539.005 153.524 539.195 153.524Z" fill="#666666"/>
<circle cx="542.437" cy="146.885" r="1.08063" fill="#FF6877"/>
</g>
<path fill-rule="evenodd" clip-rule="evenodd" d="M555.262 150.81C555.983 150.378 556.487 149.585 556.487 148.649C556.487 147.28 555.371 146.163 554.002 146.163C552.633 146.163 551.516 147.28 551.516 148.649C551.516 149.549 552.021 150.378 552.741 150.81C551.156 151.35 550.003 152.827 550.003 154.592H550.796C550.796 152.827 552.237 151.386 554.002 151.386C555.767 151.386 557.208 152.827 557.208 154.592H558C558 152.827 556.847 151.35 555.262 150.81ZM554.002 146.92C554.974 146.92 555.767 147.712 555.767 148.685C555.767 149.657 554.974 150.45 554.002 150.45C553.029 150.45 552.237 149.657 552.237 148.685C552.237 147.712 553.029 146.92 554.002 146.92Z" fill="#666766"/>
<rect x="120" y="138.14" width="27.6393" height="259.119" fill="#1A2334"/>
<path fill-rule="evenodd" clip-rule="evenodd" d="M133.355 150.803L130.302 155.033H133.226L134.801 152.878L133.355 150.803ZM135.89 151.387L134.219 149.606L137.069 145.659H140.077L135.89 151.387Z" fill="#1A73E8"/>
<path d="M128.381 142.564L137.07 155.034H140.078L128.381 142.564Z" fill="#1A73E8"/>
<rect x="120.002" y="162.472" width="27.3211" height="21.8569" fill="#29354A"/>
<rect opacity="0.3" x="129.564" y="169.302" width="8.19634" height="8.19634" rx="4.09817" fill="white"/>
<rect opacity="0.15" x="129.564" y="191.159" width="8.19634" height="8.19634" rx="4.09817" fill="white"/>
<rect opacity="0.15" x="129.564" y="213.014" width="8.19634" height="8.19634" rx="4.09817" fill="white"/>
<rect opacity="0.15" x="129.564" y="234.873" width="8.19634" height="8.19634" rx="4.09817" fill="white"/>
<rect opacity="0.15" x="129.564" y="256.73" width="8.19634" height="8.19634" rx="4.09817" fill="white"/>
<rect opacity="0.15" x="129.564" y="278.587" width="8.19634" height="8.19634" rx="4.09817" fill="white"/>
<rect opacity="0.15" x="129.564" y="300.442" width="8.19634" height="8.19634" rx="4.09817" fill="white"/>
<rect opacity="0.15" x="129.564" y="322.3" width="8.19634" height="8.19634" rx="4.09817" fill="white"/>
<rect x="161.507" y="177.306" width="151.325" height="14.8056" rx="2.60917" fill="white" stroke="#D4E7FF" stroke-width="1.04367"/>
<rect opacity="0.2" x="165.381" y="182.759" width="43.9295" height="3.79126" rx="1.89563" fill="#629FF0"/>
<rect x="318.198" y="177.306" width="44.3428" height="14.8056" rx="4.69651" fill="#F7FAFF" stroke="#DEECFF" stroke-width="1.04367"/>
<rect opacity="0.3" x="323.623" y="182.282" width="33.5589" height="4.85257" rx="2.42629" fill="#0A58BE"/>
<rect opacity="0.3" x="162.25" y="203.634" width="74.1004" height="5.21834" rx="2.60917" fill="#0A58BE"/>
<rect x="469.486" y="218.009" width="92.611" height="34.0675" rx="4.69651" fill="#F7FAFF" stroke="#DEECFF" stroke-width="1.04367"/>
<rect x="474.229" y="224.132" width="20.569" height="20.569" rx="10.2845" fill="white" stroke="#DCE8F0" stroke-width="1.04367"/>
<path d="M486.201 237.957C486.242 237.984 486.263 238.019 486.29 238.05C486.411 238.191 486.548 238.312 486.69 238.433C486.731 238.467 486.748 238.502 486.748 238.557C486.745 238.743 486.741 238.93 486.748 239.119C486.758 239.361 486.593 239.582 486.29 239.578C485.864 239.575 485.437 239.578 485.011 239.578C484.777 239.578 484.539 239.575 484.305 239.575C483.91 239.575 483.514 239.578 483.115 239.578C482.578 239.578 482.041 239.582 481.505 239.578C481.04 239.571 480.576 239.585 480.111 239.578C479.819 239.575 479.523 239.578 479.23 239.578C479.182 239.578 479.131 239.578 479.083 239.568C478.883 239.53 478.749 239.361 478.749 239.144C478.749 238.46 478.749 237.774 478.749 237.091C478.749 235.99 478.749 234.889 478.749 233.785C478.752 232.409 478.752 231.035 478.752 229.662C478.752 229.496 478.811 229.365 478.955 229.279C479.014 229.241 479.079 229.22 479.151 229.22C480.982 229.22 482.816 229.22 484.646 229.22C485.21 229.22 485.771 229.22 486.335 229.22C486.497 229.22 486.621 229.293 486.7 229.434C486.731 229.493 486.748 229.555 486.748 229.621C486.748 230.19 486.748 230.759 486.748 231.329C486.748 231.888 486.748 232.443 486.751 233.002C486.751 233.05 486.738 233.078 486.696 233.106C486.548 233.206 486.401 233.306 486.253 233.406C486.239 233.413 486.225 233.433 486.211 233.423C486.198 233.416 486.204 233.395 486.204 233.378C486.204 232.447 486.204 231.515 486.204 230.583C486.204 230.331 486.204 230.08 486.204 229.828C486.204 229.766 486.204 229.766 486.139 229.766C484.55 229.766 482.957 229.766 481.367 229.766C480.703 229.766 480.039 229.766 479.375 229.766C479.306 229.766 479.306 229.766 479.306 229.838C479.306 232.505 479.306 235.172 479.306 237.839C479.306 238.209 479.306 238.574 479.306 238.943C479.306 239.023 479.306 239.023 479.385 239.023C481.178 239.023 482.974 239.023 484.766 239.023C485.214 239.023 485.661 239.023 486.108 239.023C486.222 239.023 486.204 239.037 486.204 238.923C486.204 238.623 486.204 238.319 486.204 238.019C486.201 238.002 486.201 237.984 486.201 237.957Z" fill="#046AEC"/>
<path d="M484.942 234.593C485.014 234.596 485.09 234.624 485.159 234.676C485.279 234.765 485.376 234.876 485.486 234.976C485.713 235.183 485.93 235.404 486.164 235.607C486.26 235.693 486.36 235.776 486.48 235.835C486.556 235.869 486.631 235.88 486.711 235.856C486.814 235.821 486.845 235.728 486.779 235.642C486.662 235.493 486.525 235.366 486.387 235.235C486.318 235.169 486.25 235.103 486.181 235.038C486.157 235.017 486.15 235.003 486.184 234.983C486.449 234.817 486.711 234.648 486.972 234.482C486.996 234.465 487.017 234.472 487.037 234.486C487.158 234.545 487.278 234.6 487.395 234.662C487.464 234.696 487.54 234.703 487.605 234.752C487.65 234.783 487.688 234.817 487.719 234.858C488.08 235.373 488.445 235.89 488.806 236.404C489.023 236.711 489.239 237.015 489.456 237.322C489.491 237.37 489.511 237.422 489.518 237.481C489.521 237.515 489.539 237.536 489.566 237.557C489.745 237.677 489.921 237.802 490.096 237.922C490.144 237.957 490.148 237.96 490.103 238.002C489.852 238.247 489.601 238.495 489.353 238.74C489.143 238.951 488.93 239.158 488.72 239.368C488.641 239.447 488.562 239.523 488.482 239.603C488.458 239.627 488.445 239.623 488.424 239.596C488.297 239.42 488.169 239.247 488.039 239.071C488.025 239.051 488.004 239.033 487.984 239.02C487.571 238.744 487.175 238.443 486.8 238.116C486.549 237.895 486.353 237.626 486.17 237.346C485.974 237.043 485.806 236.725 485.616 236.415C485.489 236.204 485.331 236.011 485.162 235.831C484.97 235.624 484.78 235.417 484.591 235.21C484.515 235.128 484.509 235.024 484.533 234.921C484.577 234.738 484.749 234.596 484.942 234.593Z" fill="#046AEC"/>
<path d="M490.248 231.933C490.248 232.051 490.213 232.154 490.148 232.251C490.131 232.279 490.131 232.296 490.148 232.323C490.182 232.368 490.21 232.417 490.241 232.465C490.299 232.558 490.285 232.634 490.193 232.696C490.031 232.803 489.869 232.906 489.707 233.013C489.298 233.283 488.889 233.552 488.479 233.821C488.441 233.845 488.421 233.848 488.397 233.804C488.373 233.755 488.342 233.71 488.307 233.669C488.283 233.638 488.29 233.621 488.321 233.6C488.541 233.459 488.758 233.314 488.975 233.172C489.284 232.969 489.594 232.765 489.907 232.561C489.931 232.544 489.965 232.534 489.935 232.489C489.907 232.448 489.886 232.465 489.859 232.482C489.212 232.893 488.565 233.307 487.918 233.717C487.894 233.731 487.874 233.752 487.85 233.714C487.832 233.69 487.812 233.71 487.798 233.721C487.65 233.814 487.505 233.907 487.358 234C486.848 234.321 486.339 234.645 485.833 234.966C485.802 234.987 485.785 234.984 485.761 234.959C485.613 234.818 485.465 234.68 485.317 234.538C485.297 234.518 485.252 234.507 485.255 234.48C485.255 234.452 485.3 234.442 485.324 234.425C485.778 234.114 486.229 233.807 486.683 233.496C486.907 233.345 487.134 233.189 487.358 233.038C487.382 233.02 487.402 233.01 487.378 232.975C487.361 232.951 487.389 232.944 487.402 232.934C487.536 232.841 487.671 232.751 487.805 232.658C488.352 232.285 488.899 231.916 489.446 231.544C489.628 231.419 489.814 231.423 490.007 231.513C490.014 231.516 490.021 231.519 490.027 231.523C490.131 231.595 490.248 231.806 490.248 231.933Z" fill="#046AEC"/>
<path d="M482.926 236.046C482.926 236.836 482.293 237.471 481.502 237.468C480.734 237.464 480.088 236.843 480.091 236.043C480.094 235.235 480.734 234.625 481.512 234.625C482.293 234.625 482.926 235.266 482.926 236.046ZM480.442 236.046C480.425 236.605 480.886 237.126 481.508 237.123C482.111 237.119 482.572 236.64 482.582 236.06C482.592 235.477 482.128 234.973 481.519 234.973C480.896 234.97 480.428 235.484 480.442 236.046Z" fill="#046AEC"/>
<path d="M482.926 232.751C482.923 233.541 482.307 234.148 481.55 234.169C480.727 234.19 480.088 233.531 480.091 232.747C480.094 231.94 480.731 231.329 481.512 231.329C482.307 231.326 482.929 231.978 482.926 232.751ZM481.502 233.824C482.104 233.824 482.578 233.344 482.578 232.737C482.578 232.182 482.135 231.671 481.508 231.674C480.91 231.674 480.435 232.147 480.438 232.758C480.438 233.382 480.951 233.827 481.502 233.824Z" fill="#046AEC"/>
<path d="M484.471 235.815H484.468C484.406 235.774 484.361 235.815 484.313 235.843C484.179 235.919 484.048 235.995 483.914 236.074C483.849 236.112 483.776 236.102 483.708 236.112C483.615 236.126 483.522 236.129 483.429 236.14C483.415 236.14 483.401 236.147 483.395 236.136C483.384 236.126 483.398 236.112 483.405 236.102C483.467 235.984 483.532 235.867 483.594 235.75C483.611 235.715 483.635 235.691 483.666 235.667C483.804 235.567 483.942 235.463 484.076 235.36C484.1 235.343 484.117 235.322 484.11 235.287C484.107 235.26 484.12 235.239 484.145 235.225C484.193 235.194 484.241 235.16 484.289 235.125C484.313 235.108 484.327 235.105 484.334 235.139C484.354 235.236 484.406 235.312 484.475 235.384C484.551 235.463 484.623 235.546 484.698 235.626C484.726 235.653 484.729 235.67 484.692 235.691C484.633 235.726 484.575 235.764 484.52 235.798C484.499 235.808 484.489 235.815 484.471 235.815Z" fill="#046AEC"/>
<path d="M482.217 232.392C482.217 232.426 482.199 232.461 482.169 232.495C482.003 232.661 481.835 232.83 481.67 232.995C481.591 233.075 481.508 233.158 481.429 233.237C481.357 233.309 481.264 233.309 481.191 233.237C481.078 233.127 480.964 233.013 480.854 232.899C480.785 232.826 480.785 232.726 480.851 232.661C480.913 232.599 481.016 232.599 481.085 232.668C481.15 232.733 481.215 232.795 481.277 232.864C481.302 232.892 481.315 232.888 481.339 232.864C481.535 232.668 481.732 232.471 481.928 232.274C481.996 232.205 482.072 232.198 482.148 232.247C482.196 232.274 482.217 232.319 482.217 232.392Z" fill="#046AEC"/>
<rect opacity="0.3" x="501.448" y="227.824" width="22.3145" height="5.33064" rx="2.66532" fill="#0A58BE"/>
<rect opacity="0.3" x="501.448" y="235.866" width="51.9523" height="4.85257" rx="2.42629" fill="#629FF0"/>
<rect x="264.887" y="218.009" width="92.611" height="34.0675" rx="4.69651" fill="#F7FAFF" stroke="#DEECFF" stroke-width="1.04367"/>
<rect x="269.629" y="224.132" width="20.569" height="20.569" rx="10.2845" fill="white" stroke="#DCE8F0" stroke-width="1.04367"/>
<path d="M279.915 238.352C278.618 236.806 277.357 235.283 276.52 233.452C275.642 231.534 276.944 229.017 279.252 228.622C281.327 228.267 283.17 229.569 283.553 231.638C283.693 232.382 283.507 233.074 283.181 233.743C282.507 235.138 281.571 236.358 280.6 237.55C280.391 237.811 280.165 238.061 279.915 238.352ZM279.903 233.795C280.949 233.795 281.775 232.964 281.775 231.912C281.769 230.924 280.914 230.075 279.938 230.075C278.903 230.081 278.055 230.929 278.06 231.964C278.066 232.946 278.915 233.789 279.903 233.795Z" fill="#1BD888"/>
<path d="M278.45 237.038C277.7 237.189 277.299 237.3 276.665 237.527C276.433 237.602 276.206 237.736 276.003 237.881C275.625 238.154 275.619 238.491 275.979 238.788C276.41 239.142 276.933 239.282 277.467 239.392C279.275 239.764 281.077 239.764 282.861 239.259C283.198 239.166 283.53 239.003 283.82 238.805C284.233 238.526 284.216 238.166 283.809 237.864C283.315 237.498 282.733 237.352 282.146 237.224C281.891 237.172 281.635 237.131 281.339 237.079C281.42 237.038 281.472 236.986 281.513 236.992C282.379 237.062 283.257 237.108 284.035 237.55C284.675 237.916 284.774 238.55 284.291 239.113C283.832 239.573 283.204 239.788 282.856 239.886C280.292 240.642 276.642 240.195 275.724 239.276C274.968 238.672 275.108 237.864 275.991 237.451C276.718 237.12 277.496 237.05 278.275 236.992C278.333 236.986 278.392 237.021 278.45 237.038Z" fill="#1BD888"/>
<rect opacity="0.3" x="297.568" y="227.824" width="22.3145" height="5.33064" rx="2.66532" fill="#0A58BE"/>
<rect opacity="0.3" x="297.568" y="237.667" width="51.9523" height="4.85257" rx="2.42629" fill="#629FF0"/>
<rect x="367.186" y="218.009" width="92.611" height="34.0675" rx="4.69651" fill="#F7FAFF" stroke="#DEECFF" stroke-width="1.04367"/>
<rect x="371.928" y="224.132" width="20.569" height="20.569" rx="10.2845" fill="white" stroke="#DCE8F0" stroke-width="1.04367"/>
<path d="M382.197 238.604C381.347 238.604 380.502 238.604 379.652 238.604C378.993 238.604 378.652 238.266 378.656 237.613C378.656 237.234 378.634 236.846 378.697 236.476C378.893 235.353 379.902 234.609 381.025 234.838C381.829 235.002 382.588 234.993 383.393 234.842C384.706 234.6 385.756 235.55 385.775 236.892C385.779 237.166 385.779 237.44 385.775 237.713C385.765 238.229 385.393 238.599 384.879 238.599C383.984 238.608 383.088 238.604 382.197 238.604ZM382.202 238.024C383.056 238.024 383.916 238.024 384.77 238.024C385.084 238.024 385.193 237.914 385.197 237.599C385.202 237.385 385.202 237.175 385.197 236.96C385.161 235.81 384.352 235.194 383.238 235.454C382.929 235.527 382.611 235.609 382.302 235.595C381.852 235.577 381.406 235.481 380.961 235.408C380.384 235.312 379.556 235.563 379.343 236.339C379.238 236.727 379.243 237.147 379.229 237.554C379.216 237.933 379.32 238.019 379.702 238.019C380.538 238.024 381.37 238.024 382.202 238.024Z" fill="#FC8019"/>
<path d="M382.197 230.231C383.397 230.25 384.265 231.163 384.288 232.299C384.306 233.45 383.342 234.431 382.22 234.408C381.001 234.385 380.156 233.468 380.138 232.331C380.124 231.185 381.083 230.222 382.197 230.231ZM382.22 233.824C383.01 233.833 383.715 233.153 383.706 232.331C383.697 231.468 383.056 230.838 382.21 230.825C381.41 230.811 380.715 231.509 380.724 232.322C380.729 233.185 381.397 233.81 382.22 233.824Z" fill="#FC8019"/>
<path d="M387.856 232.3C387.875 233.117 387.225 233.802 386.425 233.811C385.602 233.82 384.925 233.172 384.902 232.355C384.879 231.538 385.566 230.825 386.379 230.825C387.184 230.825 387.838 231.474 387.856 232.3ZM387.27 232.346C387.284 231.853 386.902 231.433 386.429 231.419C385.906 231.405 385.488 231.793 385.479 232.304C385.47 232.788 385.866 233.204 386.361 233.222C386.843 233.245 387.261 232.839 387.27 232.346Z" fill="#FC8019"/>
<path d="M376.57 232.317C376.565 231.509 377.224 230.838 378.029 230.829C378.833 230.82 379.52 231.5 379.524 232.308C379.529 233.125 378.851 233.815 378.047 233.81C377.229 233.81 376.579 233.153 376.57 232.317ZM377.156 232.317C377.156 232.81 377.556 233.221 378.042 233.226C378.529 233.23 378.947 232.806 378.947 232.308C378.947 231.824 378.529 231.414 378.047 231.418C377.547 231.427 377.156 231.824 377.156 232.317Z" fill="#FC8019"/>
<path d="M385.22 234.614C385.502 234.541 385.729 234.458 385.961 234.431C386.225 234.399 386.489 234.413 386.757 234.426C387.543 234.463 388.125 235.056 388.157 235.846C388.166 236.047 388.057 236.188 387.888 236.198C387.707 236.207 387.602 236.102 387.575 235.887C387.507 235.289 387.198 235.006 386.602 235.011C386.339 235.011 386.075 235.038 385.811 235.043C385.752 235.043 385.679 235.02 385.634 234.983C385.511 234.883 385.398 234.773 385.22 234.614Z" fill="#FC8019"/>
<path d="M379.161 234.654C379.011 234.79 378.892 234.9 378.77 235C378.733 235.028 378.679 235.046 378.633 235.042C378.361 235.032 378.092 235.01 377.82 235.005C377.247 235 376.92 235.293 376.851 235.863C376.851 235.877 376.851 235.895 376.847 235.909C376.824 236.096 376.72 236.206 376.533 236.192C376.338 236.178 376.265 236.037 376.27 235.859C376.274 235.183 376.765 234.562 377.433 234.462C377.929 234.384 378.442 234.343 378.933 234.535C379.001 234.567 379.07 234.608 379.161 234.654Z" fill="#FC8019"/>
<rect opacity="0.3" x="399.868" y="227.824" width="22.3145" height="5.33064" rx="2.66532" fill="#0A58BE"/>
<rect opacity="0.3" x="399.868" y="237.667" width="51.9523" height="4.85257" rx="2.42629" fill="#629FF0"/>
<rect x="162.587" y="218.009" width="92.611" height="34.0675" rx="4.69651" fill="#F7FAFF" stroke="#DEECFF" stroke-width="1.04367"/>
<rect x="167.329" y="224.132" width="20.569" height="20.569" rx="10.2845" fill="white" stroke="#DCE8F0" stroke-width="1.04367"/>
<path d="M178.12 227.658C178.557 227.658 178.934 227.736 179.25 227.891C179.566 228.046 179.805 228.269 179.969 228.559C180.136 228.847 180.219 229.189 180.219 229.584C180.219 229.86 180.167 230.113 180.062 230.341C179.961 230.567 179.822 230.746 179.647 230.879C179.475 231.008 179.291 231.073 179.093 231.073C178.91 231.073 178.764 231.03 178.657 230.942C178.553 230.855 178.499 230.712 178.496 230.515C178.293 230.887 177.996 231.073 177.603 231.073C177.428 231.073 177.273 231.031 177.138 230.946C177.002 230.862 176.897 230.743 176.82 230.591C176.744 230.436 176.706 230.258 176.706 230.058C176.706 229.792 176.763 229.554 176.875 229.342C176.988 229.131 177.143 228.966 177.341 228.847C177.538 228.726 177.759 228.665 178.001 228.665C178.207 228.665 178.385 228.705 178.534 228.784C178.684 228.863 178.798 228.974 178.877 229.118C178.956 229.259 178.996 229.423 178.996 229.609C178.996 229.668 178.991 229.732 178.983 229.799L178.903 230.312C178.897 230.362 178.894 230.398 178.894 230.417C178.894 230.502 178.914 230.563 178.953 230.599C178.993 230.633 179.049 230.65 179.123 230.65C179.227 230.65 179.324 230.609 179.415 230.527C179.508 230.446 179.583 230.326 179.639 230.168C179.695 230.007 179.724 229.818 179.724 229.601C179.724 229.29 179.66 229.019 179.533 228.788C179.406 228.557 179.217 228.377 178.966 228.25C178.715 228.121 178.41 228.056 178.052 228.056C177.634 228.056 177.275 228.145 176.973 228.322C176.674 228.497 176.447 228.737 176.291 229.042C176.136 229.344 176.059 229.684 176.059 230.062C176.059 230.604 176.214 231.017 176.524 231.302C176.834 231.59 177.603 232.031 178.903 231.597C178.361 232.235 176.515 232.391 175.843 231.179C175.671 230.872 175.585 230.499 175.585 230.062C175.585 229.596 175.693 229.182 175.91 228.818C176.128 228.451 176.428 228.166 176.812 227.963C177.198 227.76 177.634 227.658 178.12 227.658ZM177.764 230.65C177.9 230.65 178.025 230.613 178.141 230.54C178.257 230.467 178.348 230.359 178.416 230.218C178.486 230.075 178.522 229.907 178.522 229.715C178.522 229.52 178.468 229.368 178.361 229.258C178.254 229.148 178.107 229.093 177.921 229.093C177.783 229.093 177.657 229.129 177.544 229.203C177.431 229.276 177.341 229.382 177.273 229.52C177.208 229.656 177.176 229.815 177.176 229.998C177.176 230.199 177.229 230.358 177.337 230.477C177.447 230.592 177.589 230.65 177.764 230.65Z" fill="#A411E9"/>
<path fill-rule="evenodd" clip-rule="evenodd" d="M182.519 230.394H181.12V231.061H182.519C182.59 231.061 182.648 231.119 182.648 231.19V236.881C182.648 236.921 182.629 236.957 182.6 236.981C182.578 236.999 182.549 237.01 182.519 237.01H181.57C181.396 237.01 181.253 237.143 181.238 237.314C181.237 237.322 181.237 238.99 181.237 238.99L179.354 237.107C179.295 237.048 179.218 237.016 179.141 237.011C179.134 237.01 178.508 237.01 178.508 237.01C178.323 237.01 178.174 237.159 178.174 237.343C178.174 237.527 178.323 237.677 178.508 237.677H178.98L181.334 240.031C181.398 240.095 181.483 240.129 181.57 240.129C181.589 240.129 181.609 240.127 181.628 240.124C181.651 240.12 181.675 240.113 181.698 240.103C181.822 240.052 181.904 239.93 181.904 239.795V237.677H182.519C182.958 237.677 183.315 237.32 183.315 236.881V231.19C183.315 230.751 182.958 230.394 182.519 230.394ZM173.033 231.061H174.484V230.394H173.033C172.594 230.394 172.237 230.751 172.237 231.19V233.373C172.237 233.557 172.387 233.707 172.571 233.707C172.755 233.707 172.904 233.557 172.904 233.373V231.19C172.904 231.148 172.924 231.111 172.955 231.088C172.977 231.071 173.004 231.061 173.033 231.061ZM174.741 232.6H180.812C180.996 232.6 181.146 232.749 181.146 232.933C181.146 233.117 180.996 233.267 180.812 233.267H174.741C174.557 233.267 174.408 233.117 174.408 232.933C174.408 232.749 174.557 232.6 174.741 232.6ZM178.508 234.805H180.812C180.996 234.805 181.146 234.955 181.146 235.139C181.146 235.323 180.996 235.473 180.812 235.473H178.508C178.324 235.473 178.175 235.323 178.175 235.139C178.175 234.955 178.324 234.805 178.508 234.805Z" fill="#A411E9"/>
<path d="M172.374 236.454C172.516 236.931 172.763 237.352 173.065 237.742C173.595 238.43 174.223 239.017 174.936 239.508C175.346 239.791 175.784 240.021 176.272 240.14C176.65 240.234 177.027 240.249 177.398 240.111C177.509 240.071 177.606 240.013 177.686 239.925C177.824 239.772 177.967 239.626 178.108 239.476C178.224 239.353 178.223 239.213 178.101 239.096C177.726 238.74 177.35 238.387 176.972 238.035C176.848 237.919 176.709 237.925 176.591 238.048C176.437 238.209 176.284 238.371 176.134 238.536C176.049 238.629 175.95 238.655 175.832 238.619C175.649 238.561 175.491 238.453 175.352 238.326C175.023 238.026 174.695 237.724 174.381 237.408C174.221 237.247 174.093 237.053 173.954 236.872C173.93 236.84 173.916 236.8 173.903 236.762C173.868 236.66 173.897 236.575 173.971 236.499C174.124 236.34 174.276 236.179 174.426 236.017C174.517 235.919 174.533 235.815 174.476 235.711C174.461 235.684 174.439 235.658 174.416 235.636C174.055 235.296 173.693 234.955 173.331 234.613C173.248 234.535 173.153 234.502 173.043 234.547C173.012 234.561 172.981 234.579 172.959 234.603C172.794 234.777 172.629 234.953 172.468 235.13C172.364 235.245 172.323 235.391 172.296 235.54C172.242 235.852 172.285 236.154 172.374 236.454Z" fill="#A411E9"/>
<rect x="163.133" y="281.464" width="124.485" height="97.9972" rx="5.74017" fill="white" stroke="#D5E7FF" stroke-width="1.04367"/>
<rect opacity="0.3" x="262.682" y="286.291" width="20.9181" height="4.85257" rx="2.42629" fill="#629FF0"/>
<rect opacity="0.3" x="168.283" y="286.291" width="43.9295" height="4.85257" rx="2.42629" fill="#629FF0"/>
<rect opacity="0.2" x="271.949" y="303.664" width="11.6516" height="3.79126" rx="1.89563" fill="#629FF0"/>
<rect opacity="0.2" x="168.284" y="303.664" width="43.9295" height="3.79126" rx="1.89563" fill="#629FF0"/>
<rect opacity="0.2" x="271.949" y="316.362" width="11.6516" height="3.79126" rx="1.89563" fill="#629FF0"/>
<rect opacity="0.2" x="168.284" y="316.362" width="43.9295" height="3.79126" rx="1.89563" fill="#629FF0"/>
<rect opacity="0.2" x="271.949" y="329.063" width="11.6516" height="3.79126" rx="1.89563" fill="#629FF0"/>
<rect opacity="0.2" x="168.284" y="329.063" width="43.9295" height="3.79126" rx="1.89563" fill="#629FF0"/>
<rect opacity="0.2" x="271.949" y="341.761" width="11.6516" height="3.79126" rx="1.89563" fill="#629FF0"/>
<rect opacity="0.2" x="168.284" y="341.761" width="43.9295" height="3.79126" rx="1.89563" fill="#629FF0"/>
<rect opacity="0.2" x="271.95" y="354.464" width="11.6516" height="3.79126" rx="1.89563" fill="#629FF0"/>
<rect opacity="0.2" x="168.283" y="354.465" width="43.9295" height="3.79126" rx="1.89563" fill="#629FF0"/>
<rect opacity="0.2" x="271.95" y="367.163" width="11.6516" height="3.79126" rx="1.89563" fill="#629FF0"/>
<rect opacity="0.2" x="168.283" y="367.163" width="43.9295" height="3.79126" rx="1.89563" fill="#629FF0"/>
<line x1="162.185" y1="296.99" x2="288.14" y2="296.99" stroke="#D5E7FF" stroke-width="1.04367"/>
<rect x="299.023" y="281.467" width="124.485" height="97.9972" rx="5.74017" fill="white" stroke="#D5E7FF" stroke-width="1.04367"/>
<rect opacity="0.3" x="398.573" y="286.294" width="20.9181" height="4.85257" rx="2.42629" fill="#629FF0"/>
<rect opacity="0.3" x="304.174" y="286.294" width="43.9295" height="4.85257" rx="2.42629" fill="#629FF0"/>
<rect opacity="0.2" x="407.839" y="303.667" width="11.6516" height="3.79126" rx="1.89563" fill="#629FF0"/>
<rect opacity="0.2" x="304.174" y="303.667" width="43.9295" height="3.79126" rx="1.89563" fill="#629FF0"/>
<rect opacity="0.2" x="407.839" y="316.364" width="11.6516" height="3.79126" rx="1.89563" fill="#629FF0"/>
<rect opacity="0.2" x="304.174" y="316.364" width="43.9295" height="3.79126" rx="1.89563" fill="#629FF0"/>
<rect opacity="0.2" x="407.84" y="329.066" width="11.6516" height="3.79126" rx="1.89563" fill="#629FF0"/>
<rect opacity="0.2" x="304.174" y="329.066" width="43.9295" height="3.79126" rx="1.89563" fill="#629FF0"/>
<rect opacity="0.2" x="407.839" y="341.764" width="11.6516" height="3.79126" rx="1.89563" fill="#629FF0"/>
<rect opacity="0.2" x="304.174" y="341.764" width="43.9295" height="3.79126" rx="1.89563" fill="#629FF0"/>
<rect opacity="0.2" x="407.839" y="354.467" width="11.6516" height="3.79126" rx="1.89563" fill="#629FF0"/>
<rect opacity="0.2" x="304.174" y="354.467" width="43.9295" height="3.79126" rx="1.89563" fill="#629FF0"/>
<rect opacity="0.2" x="407.839" y="367.166" width="11.6516" height="3.79126" rx="1.89563" fill="#629FF0"/>
<rect opacity="0.2" x="304.174" y="367.166" width="43.9295" height="3.79126" rx="1.89563" fill="#629FF0"/>
<line x1="298.075" y1="296.992" x2="424.03" y2="296.992" stroke="#D5E7FF" stroke-width="1.04367"/>
<rect x="434.927" y="281.464" width="126.781" height="97.9972" rx="5.74017" fill="white" stroke="#D5E7FF" stroke-width="1.04367"/>
<rect opacity="0.3" x="536.306" y="286.291" width="21.3007" height="4.85257" rx="2.42629" fill="#629FF0"/>
<rect opacity="0.3" x="440.181" y="286.291" width="44.7329" height="4.85257" rx="2.42629" fill="#629FF0"/>
<rect opacity="0.2" x="545.742" y="303.664" width="11.8647" height="3.79126" rx="1.89563" fill="#629FF0"/>
<rect opacity="0.2" x="440.181" y="303.664" width="44.7329" height="3.79126" rx="1.89563" fill="#629FF0"/>
<rect opacity="0.2" x="545.743" y="316.362" width="11.8647" height="3.79126" rx="1.89563" fill="#629FF0"/>
<rect opacity="0.2" x="440.181" y="316.362" width="44.7329" height="3.79126" rx="1.89563" fill="#629FF0"/>
<rect opacity="0.2" x="545.743" y="329.063" width="11.8647" height="3.79126" rx="1.89563" fill="#629FF0"/>
<rect opacity="0.2" x="440.181" y="329.063" width="44.7329" height="3.79126" rx="1.89563" fill="#629FF0"/>
<rect opacity="0.2" x="545.743" y="341.761" width="11.8647" height="3.79126" rx="1.89563" fill="#629FF0"/>
<rect opacity="0.2" x="440.181" y="341.761" width="44.7329" height="3.79126" rx="1.89563" fill="#629FF0"/>
<rect opacity="0.2" x="545.743" y="354.464" width="11.8647" height="3.79126" rx="1.89563" fill="#629FF0"/>
<rect opacity="0.2" x="440.181" y="354.465" width="44.7329" height="3.79126" rx="1.89563" fill="#629FF0"/>
<rect opacity="0.2" x="545.743" y="367.163" width="11.8647" height="3.79126" rx="1.89563" fill="#629FF0"/>
<rect opacity="0.2" x="440.181" y="367.163" width="44.7329" height="3.79126" rx="1.89563" fill="#629FF0"/>
<line x1="433.97" y1="296.99" x2="562.229" y2="296.99" stroke="#D5E7FF" stroke-width="1.04367"/>
<path fill-rule="evenodd" clip-rule="evenodd" d="M557.079 265.536L559.721 268.178C559.883 268.34 559.883 268.602 559.721 268.764L557.079 271.406C556.917 271.568 556.654 271.568 556.492 271.406C556.33 271.244 556.33 270.981 556.492 270.819L558.425 268.886L553.68 268.886C553.451 268.886 553.265 268.7 553.265 268.471C553.265 268.242 553.451 268.056 553.68 268.056L558.425 268.056L556.492 266.123C556.33 265.961 556.33 265.698 556.492 265.536C556.654 265.374 556.917 265.374 557.079 265.536Z" fill="#1A73E8"/>
<circle cx="556.872" cy="268.47" r="5.22506" stroke="#1A73E8" stroke-width="1.04367"/>
<path fill-rule="evenodd" clip-rule="evenodd" d="M541.102 265.536L538.46 268.178C538.298 268.34 538.298 268.602 538.46 268.764L541.102 271.406C541.264 271.568 541.527 271.568 541.689 271.406C541.851 271.244 541.851 270.981 541.689 270.819L539.756 268.886L544.501 268.886C544.73 268.886 544.916 268.7 544.916 268.471C544.916 268.242 544.73 268.056 544.501 268.056L539.756 268.056L541.689 266.123C541.851 265.961 541.851 265.698 541.689 265.536C541.527 265.374 541.264 265.374 541.102 265.536Z" fill="#1A73E8"/>
<circle r="5.22506" transform="matrix(-1 0 0 1 541.307 268.47)" stroke="#1A73E8" stroke-width="1.04367"/>
<rect opacity="0.3" x="194.909" y="227.822" width="22.3145" height="5.33064" rx="2.66532" fill="#0A58BE"/>
<rect opacity="0.3" x="194.909" y="237.666" width="51.9523" height="4.85257" rx="2.42629" fill="#629FF0"/>
</g>
<path d="M574.731 137.705V120.158C574.731 117.83 572.901 116 570.573 116H124.158C121.83 116 120 117.83 120 120.158V137.705H574.731Z" fill="#DDEBFF"/>
<path d="M533.566 126.811C533.566 129.389 531.487 131.468 528.909 131.468C526.331 131.468 524.252 129.389 524.252 126.811C524.252 124.233 526.331 122.154 528.909 122.154C531.487 122.154 533.566 124.233 533.566 126.811Z" fill="#70B44A"/>
<path d="M549.367 126.811C549.367 129.389 547.288 131.468 544.71 131.468C542.132 131.468 540.053 129.389 540.053 126.811C540.053 124.233 542.132 122.154 544.71 122.154C547.288 122.154 549.367 124.233 549.367 126.811Z" fill="#DDAB54"/>
<path d="M565.25 126.811C565.25 129.389 563.171 131.468 560.593 131.468C558.015 131.468 555.936 129.389 555.936 126.811C555.936 124.233 558.015 122.154 560.593 122.154C563.171 122.154 565.25 124.233 565.25 126.811Z" fill="#D6655D"/>
</g>
<defs>
<filter id="filter0_d_26_55" x="0" y="0.384548" width="694.897" height="521" filterUnits="userSpaceOnUse" color-interpolation-filters="sRGB">
<feFlood flood-opacity="0" result="BackgroundImageFix"/>
<feColorMatrix in="SourceAlpha" type="matrix" values="0 0 0 0 0 0 0 0 0 0 0 0 0 0 0 0 0 0 127 0" result="hardAlpha"/>
<feOffset dy="4.38455"/>
<feGaussianBlur stdDeviation="60"/>
<feComposite in2="hardAlpha" operator="out"/>
<feColorMatrix type="matrix" values="0 0 0 0 0 0 0 0 0 0 0 0 0 0 0 0 0 0 0.15 0"/>
<feBlend mode="normal" in2="BackgroundImageFix" result="effect1_dropShadow_26_55"/>
<feBlend mode="normal" in="SourceGraphic" in2="effect1_dropShadow_26_55" result="shape"/>
</filter>
<clipPath id="clip0_26_55">
<path d="M120 137.881H574.897V392.01C574.897 394.765 572.663 396.999 569.907 396.999H124.158C121.862 396.999 120 395.138 120 392.841V137.881Z" fill="white"/>
</clipPath>
<clipPath id="clip1_26_55">
<rect width="10.8063" height="10.8063" fill="white" transform="translate(533.792 145.082)"/>
</clipPath>
</defs>
</svg>
