<svg width="201" height="416" viewBox="0 0 201 416" fill="none" xmlns="http://www.w3.org/2000/svg">
<path d="M98.9043 402.996C96.52 398.063 88.9044 392.04 86.1707 395.504C82.6867 399.913 96.9927 402.996 96.9927 402.996" stroke="#F7AD2B" stroke-width="0.75" stroke-linecap="round" stroke-linejoin="round"/>
<path d="M97.7227 402.439C93.6117 399.489 85.6468 388.287 89.1616 387.095C93.1081 385.759 97.7227 401.02 97.7227 401.02" stroke="#F7AD2B" stroke-width="0.75" stroke-linecap="round" stroke-linejoin="round"/>
<path d="M83.9716 415.81H121.926L121.299 394.865L119.552 336.819L91.1451 335.441C91.1451 335.441 101.607 394.824 101.207 397.003C95.5883 402.738 89.4886 407.982 82.9747 412.676C82.6762 412.888 82.4527 413.189 82.3366 413.536C82.2205 413.883 82.2177 414.258 82.3286 414.607C82.4396 414.956 82.6585 415.26 82.9538 415.477C83.2491 415.693 83.6055 415.81 83.9716 415.81Z" fill="#EEA383"/>
<path d="M83.9716 415.812H121.926L121.566 403.839L121.299 394.867C117.065 395.761 117.095 397.241 114.567 398.187C112.406 399.062 110.067 399.412 107.744 399.206C105.422 399.001 103.181 398.246 101.207 397.005C95.5883 402.741 89.4886 407.984 82.9747 412.678C82.6762 412.89 82.4527 413.191 82.3366 413.538C82.2205 413.885 82.2177 414.26 82.3286 414.609C82.4396 414.958 82.6585 415.262 82.9538 415.479C83.2491 415.695 83.6055 415.812 83.9716 415.812Z" fill="#1A73E8"/>
<path d="M102.193 415.81H121.926L121.566 403.837C120.004 403.275 118.355 402.99 116.695 402.994C113.128 402.986 109.682 404.286 107.01 406.648C104.337 409.01 102.623 412.27 102.193 415.81Z" fill="#1B2153"/>
<path d="M138.045 402.996C135.661 398.063 128.045 392.04 125.311 395.504C121.827 399.913 136.133 402.996 136.133 402.996" stroke="#F7AD2B" stroke-width="0.75" stroke-linecap="round" stroke-linejoin="round"/>
<path d="M136.863 402.439C132.752 399.489 124.787 388.287 128.302 387.095C132.249 385.759 136.863 401.02 136.863 401.02" stroke="#F7AD2B" stroke-width="0.75" stroke-linecap="round" stroke-linejoin="round"/>
<path d="M123.112 415.81H161.066L160.439 394.865L158.692 336.819L130.286 335.441C130.286 335.441 140.748 394.824 140.347 397.003C134.729 402.738 128.629 407.982 122.115 412.676C121.817 412.888 121.593 413.189 121.477 413.536C121.361 413.883 121.358 414.258 121.469 414.607C121.58 414.956 121.799 415.26 122.094 415.477C122.39 415.693 122.746 415.81 123.112 415.81Z" fill="#EEA383"/>
<path d="M123.112 415.812H161.066L160.707 403.839L160.439 394.867C156.205 395.761 156.236 397.241 153.708 398.187C151.546 399.062 149.208 399.412 146.885 399.206C144.562 399.001 142.321 398.246 140.347 397.005C134.729 402.741 128.629 407.984 122.115 412.678C121.817 412.89 121.593 413.191 121.477 413.538C121.361 413.885 121.358 414.26 121.469 414.609C121.58 414.958 121.799 415.262 122.094 415.479C122.39 415.695 122.746 415.812 123.112 415.812Z" fill="#1A73E8"/>
<path d="M141.334 415.81H161.066L160.707 403.837C159.144 403.275 157.496 402.99 155.835 402.994C152.269 402.986 148.823 404.286 146.15 406.648C143.478 409.01 141.764 412.27 141.334 415.81Z" fill="#1B2153"/>
<path d="M198.792 113.742C201.439 117.857 195.984 120.962 191.058 124.171C186.132 127.38 184.84 112.779 184.84 112.779C184.84 112.779 197.332 111.471 198.792 113.742Z" fill="#1B2153"/>
<path d="M51.4227 95.9073C49.754 97.1588 52.225 101.323 56.9664 105.952L60.8574 100.929C60.8574 100.929 55.3137 94.4712 51.4227 95.9073Z" fill="#1B2153"/>
<path d="M59.2851 97.158C48.1817 108.911 35.2972 124.379 42.1406 136.124C48.9839 147.869 65.3182 141.636 75.2021 132.626C75.2021 132.626 83.2489 117.143 59.2851 97.158Z" fill="#EEA383"/>
<path d="M191.154 113.412C195.422 122.887 207.769 144.051 194.684 152.78C181.599 161.508 165.682 130.886 165.682 130.886C165.682 130.886 170.544 112.578 191.154 113.412Z" fill="#EEA383"/>
<path d="M51.422 95.9071C60.3774 102.539 67.3941 111.448 71.7435 121.708C73.3025 125.206 74.4624 128.869 75.2013 132.627C77.7686 130.766 83.8337 126.209 83.8337 126.209C84.283 129.041 84.8687 132.298 85.4383 135.587C87.1952 145.03 89.217 154.657 89.217 154.657H149.235L150.246 150.646L158.092 119.55L165.681 130.87C165.834 130.685 165.986 130.509 166.155 130.341C174.98 120.802 198.791 113.726 198.791 113.726C192.321 102.812 184.599 92.6907 175.782 83.5682C173.201 80.9329 170.488 78.4293 167.655 76.0669C163.687 72.9238 159.336 70.2981 154.706 68.2528C149.442 65.8614 143.986 63.9157 138.396 62.4364C138.396 62.4364 138.268 49.6643 136.872 34.5655C136.254 27.7543 122.431 26.4225 119.222 38.0073C116.013 49.592 113.606 57.0371 113.606 57.0371C110.154 56.5274 106.663 56.3421 103.176 56.4836C98.756 56.6601 93.7257 57.4703 89.7866 59.7408C87.6686 60.9682 83.4406 64.6346 78.5548 69.1835C66.8818 80.0382 51.422 95.9071 51.422 95.9071Z" fill="#A7CAF0"/>
<path d="M71.7447 121.708C73.3037 125.206 74.4636 128.869 75.2025 132.626C77.7698 130.765 83.8349 126.208 83.8349 126.208C82.0389 117.417 81.1518 108.465 81.1875 99.4927C81.2086 95.5426 82.1538 91.6522 83.9473 88.1326C78.3795 91.2695 73.7584 94.6871 76.4621 102.132C79.0213 109.032 78.6282 120.552 71.7447 121.708Z" fill="#7CAFE8"/>
<path d="M129.966 153.02L150.248 150.614L158.094 119.55C155.937 116.011 154.059 112.309 152.478 108.478C144.375 118.106 161.447 129.337 134.884 135.194C121.631 138.13 129.966 153.02 129.966 153.02Z" fill="#7CAFE8"/>
<path d="M78.5316 69.1991C85.5675 69.8409 92.4028 75.2001 96.695 89.5206C104.429 115.33 132.701 112.297 142.424 94.4385C150.038 80.4469 159.416 78.8745 175.799 83.5838C173.218 80.9485 170.505 78.445 167.672 76.0826C163.704 72.9395 159.353 70.3137 154.723 68.2685C149.459 65.877 144.003 63.9314 138.413 62.452C138.413 62.452 138.285 49.6799 136.889 34.5812C136.271 27.7699 122.448 26.4381 119.239 38.0229C116.03 49.6077 113.623 57.0527 113.623 57.0527C110.171 56.5431 106.68 56.3577 103.193 56.4992C98.7729 56.6757 93.7426 57.486 89.8035 59.7564C87.6534 60.9839 83.4255 64.6502 78.5316 69.1991Z" fill="#7CAFE8"/>
<path d="M103.161 56.4987C103.033 65.1552 110.534 70.9395 119.142 72.2954C127.751 73.6512 142.031 72.6404 154.707 68.284C149.443 65.8926 143.987 63.9469 138.397 62.4676C138.397 62.4676 138.269 49.6954 136.873 34.5967C136.255 27.7854 122.432 26.4537 119.223 38.0384C118.493 40.6458 117.803 43.0446 117.185 45.1947C115.861 49.7275 114.826 53.1693 114.216 55.1428C113.831 56.3944 113.615 57.0683 113.615 57.0683C110.156 56.5517 106.656 56.361 103.161 56.4987Z" fill="#EEA383"/>
<path d="M114.2 55.1289C121.806 55.7387 126.234 51.2299 126.178 45.2049C126.178 45.2049 120.851 45.2049 117.169 45.2049C115.845 49.7537 114.81 53.1554 114.2 55.1289Z" fill="#B46A56"/>
<path fill-rule="evenodd" clip-rule="evenodd" d="M92.9787 341.41C88.7418 341.354 83.8662 339.119 82.8417 330.922H82.6218C82.6218 330.922 82.6202 330.206 82.6173 328.899C81.7003 319.529 82.0761 307.335 82.5499 299.685C82.4899 274.582 82.4077 242.801 82.3665 238.407C82.2042 221.061 82.6821 188.195 87.6921 162.296C88.2056 159.673 88.7591 157.121 89.3689 154.666L150.197 151.361C152.01 154.922 153.643 158.572 155.091 162.296C158.411 170.608 161.093 179.161 163.114 187.88C165.932 200.118 166.102 218.43 165.715 232.074C168.309 258.713 166.098 329.819 165.523 331.768C164.896 333.823 151.032 341.428 143.056 341.644C135.081 341.86 119.287 336.996 112.791 337.446C107.157 337.836 103.526 339.074 97.8662 340.4C97.2732 340.769 92.9356 341.536 92.9787 341.41Z" fill="#1A73E8"/>
<g opacity="0.2">
<mask id="mask0_1_2110" style="mask-type:alpha" maskUnits="userSpaceOnUse" x="82" y="151" width="85" height="191">
<path fill-rule="evenodd" clip-rule="evenodd" d="M92.9777 341.406C88.7408 341.35 83.8653 339.115 82.8408 330.919H82.6208C82.6208 330.919 82.6192 330.202 82.6163 328.895C81.6993 319.525 82.0751 307.331 82.549 299.681C82.4889 274.578 82.4067 242.798 82.3656 238.403C82.2032 221.058 82.6812 188.191 87.6911 162.292C88.2046 159.669 88.7582 157.117 89.3679 154.663L150.196 151.357C152.009 154.918 153.642 158.568 155.09 162.292C158.41 170.604 161.092 179.157 163.113 187.877C165.931 200.114 166.101 218.426 165.714 232.07C168.308 258.709 166.097 329.815 165.522 331.764C164.895 333.819 151.031 341.424 143.055 341.64C135.08 341.856 119.286 336.992 112.79 337.442C107.156 337.832 103.525 339.07 97.8652 340.396C97.2723 340.765 92.9346 341.532 92.9777 341.406Z" fill="#FED81D"/>
</mask>
<g mask="url(#mask0_1_2110)">
<path d="M144.743 199.71C141.897 196.603 142.108 191.777 145.216 188.93C148.323 186.084 153.149 186.296 155.995 189.403C158.841 192.51 158.63 197.336 155.523 200.182C152.415 203.029 147.589 202.817 144.743 199.71Z" stroke="white" stroke-miterlimit="10"/>
<path d="M151.096 308.034C148.25 304.927 148.462 300.101 151.569 297.255C154.676 294.409 159.502 294.62 162.348 297.727C165.195 300.834 164.983 305.661 161.876 308.507C158.769 311.353 153.943 311.141 151.096 308.034Z" stroke="white" stroke-miterlimit="10"/>
<path d="M137.339 251.711C134.359 248.732 134.359 243.901 137.339 240.921C140.318 237.942 145.149 237.942 148.129 240.921C151.108 243.901 151.108 248.732 148.129 251.711C145.149 254.691 140.318 254.691 137.339 251.711Z" stroke="white" stroke-miterlimit="10"/>
<path d="M105.874 201.395C102.894 198.415 102.894 193.584 105.874 190.605C108.853 187.625 113.684 187.625 116.664 190.605C119.643 193.584 119.643 198.415 116.664 201.395C113.684 204.374 108.853 204.374 105.874 201.395Z" stroke="white" stroke-miterlimit="10"/>
<path d="M112.227 309.723C109.248 306.743 109.248 301.912 112.227 298.933C115.207 295.953 120.038 295.953 123.017 298.933C125.997 301.913 125.997 306.743 123.017 309.723C120.038 312.702 115.207 312.702 112.227 309.723Z" stroke="white" stroke-miterlimit="10"/>
<path d="M103.143 255.938C99.0413 254.974 96.4978 250.867 97.4622 246.765C98.4265 242.663 102.534 240.119 106.635 241.084C110.737 242.048 113.281 246.155 112.316 250.257C111.352 254.359 107.245 256.902 103.143 255.938Z" stroke="white" stroke-miterlimit="10"/>
<path d="M113.516 173.374C109.416 172.402 106.881 168.29 107.853 164.19C108.825 160.09 112.937 157.554 117.037 158.527C121.137 159.499 123.673 163.611 122.701 167.711C121.728 171.811 117.616 174.346 113.516 173.374Z" stroke="white" stroke-miterlimit="10"/>
<path d="M119.87 281.698C115.77 280.726 113.234 276.614 114.207 272.514C115.179 268.414 119.291 265.879 123.391 266.851C127.491 267.823 130.026 271.935 129.054 276.035C128.082 280.135 123.97 282.67 119.87 281.698Z" stroke="white" stroke-miterlimit="10"/>
<path d="M126.201 225.343C123.631 225.343 121.548 223.26 121.548 220.69C121.548 218.12 123.631 216.037 126.201 216.037C128.771 216.037 130.854 218.12 130.854 220.69C130.854 223.26 128.771 225.343 126.201 225.343Z" stroke="white" stroke-miterlimit="10"/>
<path d="M132.555 333.671C129.985 333.671 127.902 331.588 127.902 329.018C127.902 326.448 129.985 324.365 132.555 324.365C135.125 324.365 137.208 326.448 137.208 329.018C137.208 331.588 135.125 333.671 132.555 333.671Z" stroke="white" stroke-miterlimit="10"/>
<path d="M82.9191 213.656C80.3492 213.656 78.2659 211.572 78.2659 209.003C78.2659 206.433 80.3492 204.349 82.9191 204.349C85.489 204.349 87.5723 206.433 87.5723 209.003C87.5723 211.572 85.489 213.656 82.9191 213.656Z" stroke="white" stroke-miterlimit="10"/>
<path d="M89.2726 321.982C86.7028 321.982 84.6194 319.899 84.6194 317.329C84.6194 314.759 86.7028 312.676 89.2726 312.676C91.8425 312.676 93.9258 314.759 93.9258 317.329C93.9258 319.899 91.8425 321.982 89.2726 321.982Z" stroke="white" stroke-miterlimit="10"/>
<path d="M81.7474 176.126C81.7474 177.046 82.0203 177.946 82.5316 178.711C83.0429 179.476 83.7696 180.072 84.6198 180.425C85.4701 180.777 86.4057 180.869 87.3083 180.689C88.211 180.51 89.0401 180.067 89.6908 179.416C90.3416 178.765 90.7848 177.936 90.9643 177.033C91.1438 176.131 91.0517 175.195 90.6995 174.345C90.3473 173.495 89.7509 172.768 88.9857 172.257C88.2205 171.745 87.3208 171.472 86.4005 171.472C85.1664 171.472 83.9829 171.963 83.1102 172.835C82.2376 173.708 81.7474 174.891 81.7474 176.126V176.126Z" stroke="white" stroke-miterlimit="10"/>
<path d="M88.1009 284.45C88.1009 285.37 88.3738 286.27 88.8851 287.035C89.3964 287.8 90.1231 288.397 90.9734 288.749C91.8236 289.101 92.7592 289.193 93.6618 289.014C94.5645 288.834 95.3936 288.391 96.0443 287.74C96.6951 287.089 97.1383 286.26 97.3178 285.358C97.4974 284.455 97.4052 283.519 97.053 282.669C96.7008 281.819 96.1044 281.092 95.3392 280.581C94.574 280.07 93.6744 279.797 92.7541 279.797C91.52 279.797 90.3364 280.287 89.4638 281.16C88.5911 282.032 88.1009 283.216 88.1009 284.45V284.45Z" stroke="white" stroke-miterlimit="10"/>
<path d="M159.006 223.13C159.006 224.05 159.279 224.949 159.79 225.715C160.302 226.48 161.028 227.076 161.879 227.428C162.729 227.781 163.664 227.873 164.567 227.693C165.47 227.514 166.299 227.071 166.95 226.42C167.6 225.769 168.044 224.94 168.223 224.037C168.403 223.135 168.31 222.199 167.958 221.349C167.606 220.499 167.01 219.772 166.244 219.261C165.479 218.749 164.58 218.476 163.659 218.476C162.426 218.478 161.244 218.969 160.371 219.842C159.499 220.714 159.008 221.896 159.006 223.13V223.13Z" stroke="white" stroke-miterlimit="10"/>
<path d="M142.736 176.124C140.166 176.124 138.082 174.041 138.082 171.471C138.082 168.901 140.166 166.818 142.736 166.818C145.305 166.818 147.389 168.901 147.389 171.471C147.389 174.041 145.305 176.124 142.736 176.124Z" stroke="white" stroke-miterlimit="10"/>
<path d="M149.09 284.452C146.52 284.452 144.437 282.369 144.437 279.799C144.437 277.229 146.52 275.146 149.09 275.146C151.66 275.146 153.743 277.229 153.743 279.799C153.743 282.369 151.66 284.452 149.09 284.452Z" stroke="white" stroke-miterlimit="10"/>
</g>
</g>
<path d="M139.752 62.8072C139.752 62.8072 129.708 80.1523 117.465 87.5733C117.465 87.5733 110.662 77.6251 111.777 56.8142" stroke="#1B2153" stroke-miterlimit="10"/>
<path d="M120.788 88.0999C120.788 88.7964 120.582 89.4774 120.195 90.0566C119.808 90.6357 119.257 91.0872 118.614 91.3537C117.97 91.6203 117.262 91.6901 116.579 91.5542C115.896 91.4183 115.268 91.0828 114.776 90.5903C114.283 90.0977 113.948 89.4702 113.812 88.787C113.676 88.1038 113.746 87.3956 114.012 86.7521C114.279 86.1085 114.73 85.5585 115.309 85.1715C115.889 84.7845 116.57 84.5779 117.266 84.5779C118.2 84.5779 119.096 84.949 119.757 85.6095C120.417 86.27 120.788 87.1658 120.788 88.0999Z" fill="white"/>
<path d="M83.8346 126.218C82.038 117.424 81.1509 108.469 81.1871 99.4939C81.2083 95.5438 82.1534 91.6534 83.9469 88.1338C85.4391 84.9247 87.0517 81.9804 87.3887 78.0252" stroke="#7CAFE8" stroke-width="0.75" stroke-linecap="round" stroke-linejoin="round"/>
<path d="M151.449 106.017C151.449 106.017 151.826 106.996 152.468 108.496C154.05 112.327 155.927 116.029 158.084 119.568" stroke="#7CAFE8" stroke-width="0.75" stroke-linecap="round" stroke-linejoin="round"/>
<path d="M87.6054 162.296H154.996C153.548 158.572 151.915 154.922 150.102 151.361L89.21 154.666C88.6403 157.121 88.0868 159.665 87.6054 162.296Z" fill="#1B2153"/>
<path d="M114.377 162.293V180.641" stroke="#83ADDF" stroke-width="0.75" stroke-linecap="round" stroke-linejoin="round"/>
<path d="M112.965 181.878C111.055 180.827 109.956 180.33 109.756 179.174C109.555 178.019 108.601 165.279 108.601 165.279" stroke="#83ADDF" stroke-width="0.75" stroke-linecap="round" stroke-linejoin="round"/>
<path d="M115.283 250.384C115.283 250.384 114.802 199.223 114.401 196.896C114.403 196.872 114.403 196.848 114.401 196.824C113.992 196.062 113.165 194.931 108.624 192.275" stroke="#83ADDF" stroke-width="0.75" stroke-linecap="round" stroke-linejoin="round"/>
<path d="M11.2764 46.4833C9.11024 40.4422 6.25417 34.3129 4.9224 35.1232C2.66802 36.4951 7.13667 48.2403 7.13667 48.2403L11.2764 46.4833Z" fill="#EEA383" stroke="#B46A56" stroke-width="0.75" stroke-miterlimit="10"/>
<path d="M14.0684 47.865C14.0684 47.4879 12.7366 30.2151 10.2175 30.6082C6.7998 31.1216 9.5195 48.2581 9.5195 48.2581L14.0684 47.865Z" fill="#EEA383" stroke="#B46A56" stroke-width="0.75" stroke-miterlimit="10"/>
<path d="M18.1925 50.3027C18.2887 32.9977 17.9518 28.5451 15.8498 28.5371C12.9456 28.5371 12.5685 48.4735 12.5685 48.4735L18.1925 50.3027Z" fill="#EEA383" stroke="#B46A56" stroke-width="0.75" stroke-miterlimit="10"/>
<path d="M8.49369 49.2518C8.99912 57.427 12 63.5 12 63.5C12 63.5 16.5565 65.7786 17.0298 55.9588C17.5032 46.139 8.49369 49.2518 8.49369 49.2518Z" fill="#B46A56"/>
<path d="M50.3235 100.108C59.9909 114.445 71.8003 134.373 62.2613 140.767C52.7223 147.161 40.0143 144.554 32.4168 126.968C24.8193 109.382 15.4488 78.7676 13.5715 75.751C11.6942 72.7345 7.32986 69.1885 4.51389 63.364C1.69792 57.5395 0.350113 57.2186 1.30481 55.5579C2.25951 53.8972 4.63425 54.5149 5.88579 56.3602C7.13733 58.2054 10.4667 61.7755 12.3441 60.7325C14.2214 59.6896 15.0156 57.5876 15.0477 55.0123C15.0798 52.4371 13.5475 49.6692 10.6031 50.5678C7.65879 51.4663 6.30295 55.3252 3.80789 53.9694C1.31283 52.6136 6.61586 47.4148 8.49317 45.7461C10.3705 44.0774 11.8226 45.2247 14.9113 46.2676C18.0001 47.3106 18.9708 47.4149 20.5272 51.0812C22.0836 54.7476 28.0204 66.7496 28.9591 68.9317C29.8977 71.1139 41.2659 86.6539 50.3235 100.108Z" fill="#EEA383"/>
<path d="M4.51402 63.3874C1.70607 57.5549 0.350236 57.242 1.30494 55.5813C2.25964 53.9206 4.63438 54.5384 5.88592 56.3836C7.13746 58.2288 10.4669 61.7989 12.3442 60.756C14.2215 59.713 15.0157 57.6111 15.0478 55.0358C15.0799 52.4605 13.5476 49.6927 10.6032 50.5912C7.65891 51.4898 6.30308 55.3487 3.80802 53.9928C1.31296 52.637 6.61598 47.4383 8.49329 45.7696C10.3706 44.1008 11.8227 45.2481 14.9115 46.291C18.0002 47.334 18.9709 47.4383 20.5273 51.1047" stroke="#B46A56" stroke-width="0.75" stroke-linecap="round" stroke-linejoin="round"/>
<path d="M52.7146 103.709C54.3753 106.26 56.044 108.924 57.6084 111.611" stroke="#B46A56" stroke-width="0.75" stroke-linecap="round" stroke-linejoin="round"/>
<path d="M141.881 34.815C145.475 34.47 147.737 35.9462 149.414 39.0029C151.091 42.0595 153.209 45.1081 153.209 45.1081C153.209 45.1081 148.844 46.8892 144.584 42.0515C140.621 37.5427 141.881 34.815 141.881 34.815Z" fill="#1A73E8"/>
<path d="M139.256 36.2109C143.316 37.294 145.217 38.9306 145.947 43.8486C146.677 48.7665 146.421 51.0209 146.942 52.8741C146.942 52.8741 141.743 51.6707 139.256 47.0015C136.89 42.5328 137.491 39.6687 139.256 36.2109Z" fill="#1A73E8"/>
<path d="M134.137 9.96003C134.137 9.96003 138.052 18.4641 138.149 25.5963C138.209 27.2095 137.97 28.8199 137.443 30.3457L141.783 30.8512C145.498 34.4213 152.213 33.1938 149.806 28.6369C153.817 31.14 159.072 27.7143 156.465 24.096C159.585 24.8341 161.174 19.7878 157.155 18.4801C160.5 18.1191 161.166 12.1502 156.633 11.8053C157.028 11.3949 157.3 10.8812 157.416 10.3233C157.532 9.76544 157.488 9.18608 157.29 8.652C157.091 8.11792 156.745 7.65084 156.293 7.30457C155.84 6.9583 155.299 6.74693 154.732 6.6948C154.259 6.68083 153.789 6.77472 153.358 6.96933C152.928 7.16394 152.547 7.45416 152.245 7.81797C154.186 0.822178 145.979 -1.40813 143.46 2.26627C143.019 -0.694111 137.467 -0.998972 136.64 2.81983C132.453 0.509296 129.725 6.12518 134.137 9.96003Z" fill="#604730"/>
<path d="M137.411 30.3443L141.751 30.8497C145.465 34.4198 152.18 33.1923 149.773 28.6354C153.785 31.1385 159.04 27.7128 156.432 24.0946C159.553 24.8327 161.142 19.7864 157.122 18.4787C160.468 18.1177 161.134 12.1488 156.601 11.8038C156.996 11.3935 157.268 10.8798 157.384 10.3219C157.5 9.764 157.456 9.18464 157.257 8.65056C157.059 8.11648 156.713 7.6494 156.261 7.30313C155.808 6.95686 155.267 6.74549 154.699 6.69336C154.988 9.16435 153.897 12.6623 151.49 12.9029C154.78 14.1144 154.756 18.0134 151.49 19.3853C153.536 21.6557 150.471 24.8487 147.912 23.0516C148.009 25.5547 144.246 29.6303 138.165 25.5547C138.215 27.1843 137.959 28.8089 137.411 30.3443Z" fill="#473526"/>
<path d="M113.432 49.2332C125.088 50.8377 135.261 37.7126 135.261 37.7126C140.58 39.5738 144.704 35.4422 143.043 31.2944C142.743 30.5239 142.235 29.8518 141.575 29.3529C141.041 28.9532 140.424 28.679 139.77 28.5507C139.268 28.4557 138.754 28.4367 138.246 28.4945C137.271 28.6059 136.341 28.9623 135.541 29.5304C134.741 30.0986 134.099 30.86 133.673 31.7437C133.304 32.3855 130.825 32.2732 131.932 29.4492C132.903 26.9942 133.962 27.1788 133.962 27.1788C132.357 26.6733 133.633 23.0792 135.566 23.5926C133.962 22.9027 133.4 19.8621 135.197 18.779C133.264 18.6747 131.146 17.9045 131.932 14.9602C131.576 15.3901 131.103 15.7074 130.571 15.8737C130.038 16.0399 129.469 16.0479 128.932 15.8966C128.395 15.7454 127.913 15.4414 127.546 15.0217C127.178 14.6019 126.94 14.0845 126.861 13.5322C126.505 13.8805 126.054 14.1177 125.565 14.215C125.076 14.3123 124.569 14.2655 124.106 14.0803C123.643 13.8951 123.244 13.5795 122.957 13.1717C122.67 12.7639 122.507 12.2816 122.489 11.7832C122.248 12.8663 120.981 13.1872 119.978 12.5855C117.715 15.0568 115.7 17.7438 113.961 20.6082L113.897 20.7125C112.918 22.2368 111.995 23.7771 111.161 25.3095C104.831 36.9183 103.17 47.8132 113.432 49.2332Z" fill="#EEA383"/>
<path d="M127.519 27.3291C127.944 28.7652 130.552 29.2545 133.336 28.4282C136.119 27.6019 138.045 25.7647 137.62 24.3286C137.194 22.8925 134.587 22.4112 131.803 23.2375C129.019 24.0639 127.094 25.9011 127.519 27.3291Z" fill="#B46A56"/>
<path d="M111.112 25.3626C112.26 26.1649 113.391 26.4216 114.129 25.9082C115.244 25.154 115.084 22.9558 113.848 20.7656C112.869 22.2899 111.947 23.8303 111.112 25.3626Z" fill="#B46A56"/>
<path d="M138.237 28.541C138.745 28.4833 139.259 28.5022 139.762 28.5972C140.416 28.7256 141.033 28.9998 141.567 29.3995C145.273 18.5046 135.502 12.9609 135.502 12.9609C139.224 18.3763 138.646 25.6849 138.237 28.541Z" fill="white"/>
<path d="M119.183 20.4931C119.185 20.7053 119.124 20.9133 119.007 21.0908C118.891 21.2683 118.724 21.4073 118.529 21.4903C118.334 21.5734 118.118 21.5967 117.909 21.5574C117.701 21.5182 117.508 21.418 117.357 21.2696C117.205 21.1212 117.1 20.9311 117.057 20.7234C117.013 20.5158 117.031 20.2997 117.11 20.1026C117.188 19.9054 117.324 19.736 117.499 19.6156C117.673 19.4952 117.88 19.4292 118.092 19.4261C118.234 19.4228 118.376 19.4481 118.508 19.5003C118.64 19.5524 118.761 19.6305 118.862 19.7299C118.964 19.8293 119.045 19.9481 119.1 20.0791C119.155 20.2102 119.183 20.3509 119.183 20.4931Z" fill="black"/>
<path d="M126.179 22.7647C126.179 22.9773 126.116 23.1852 125.997 23.3619C125.879 23.5387 125.711 23.6765 125.515 23.7579C125.319 23.8393 125.102 23.8606 124.894 23.8191C124.685 23.7776 124.494 23.6752 124.343 23.5249C124.193 23.3745 124.091 23.183 124.049 22.9744C124.008 22.7659 124.029 22.5497 124.11 22.3533C124.192 22.1568 124.33 21.989 124.506 21.8708C124.683 21.7527 124.891 21.6897 125.104 21.6897C125.245 21.6897 125.385 21.7174 125.515 21.7715C125.645 21.8255 125.764 21.9047 125.864 22.0045C125.964 22.1043 126.043 22.2229 126.097 22.3533C126.151 22.4837 126.179 22.6235 126.179 22.7647Z" fill="black"/>
<path d="M119.023 11.5643C119.221 11.9929 119.535 12.3571 119.93 12.6153C120.932 13.2491 122.2 12.9282 122.441 11.813C122.459 12.3114 122.621 12.7937 122.908 13.2015C123.196 13.6093 123.595 13.9249 124.058 14.1101C124.521 14.2954 125.028 14.3421 125.517 14.2448C126.006 14.1475 126.456 13.9103 126.813 13.562C126.892 14.1143 127.13 14.6318 127.497 15.0515C127.865 15.4713 128.346 15.7752 128.883 15.9265C129.42 16.0777 129.99 16.0697 130.522 15.9035C131.055 15.7373 131.528 15.4199 131.883 14.99C131.081 17.9344 133.215 18.7045 135.149 18.8088C133.352 19.8758 133.953 22.9165 135.518 23.6224C133.624 23.109 132.309 26.7032 133.913 27.2086C133.913 27.2086 132.854 27.0241 131.883 29.479C130.776 32.303 133.255 32.4153 133.624 31.7735C134.155 30.6495 135.037 29.7286 136.137 29.1497C137.236 28.5709 138.495 28.3654 139.722 28.5644C140.251 26.3525 140.357 24.0606 140.035 21.8093C139.534 18.422 137.929 15.2946 135.47 12.9122C137.202 10.1684 133.937 6.58225 131.21 8.6521C131.563 6.15704 127.262 4.57657 125.634 7.56101C124.695 4.88143 120.708 6.51806 121.157 8.49967C119.857 7.79367 118.092 9.63889 119.023 11.5643Z" fill="#604730"/>
<path d="M123.01 19.4258C120.37 25.0818 116.367 21.985 115.356 26.2531" stroke="#B46A56" stroke-width="0.75" stroke-linecap="round" stroke-linejoin="round"/>
<path d="M125.24 28.8945C120.667 30.1862 117.474 29.3438 116.72 28.8945C116.72 28.8945 116.271 32.954 120.362 32.6251C121.465 32.5993 122.532 32.2243 123.408 31.5539C124.285 30.8836 124.926 29.9525 125.24 28.8945Z" fill="white" stroke="#B46A56" stroke-width="0.75" stroke-linecap="round" stroke-linejoin="round"/>
<path d="M140.644 33.5371C140.075 30.657 135.582 30.6891 134.748 34.8127" stroke="#B46A56" stroke-width="0.75" stroke-linecap="round" stroke-linejoin="round"/>
<path d="M137.025 36.2093C139.536 35.5595 138.349 31.7567 135.605 32.8478" stroke="#B46A56" stroke-width="0.75" stroke-linecap="round" stroke-linejoin="round"/>
<path d="M129.934 20.2145C130.135 21.5543 125.121 18.6581 126.156 17.0054C127.191 15.3527 129.75 18.9148 129.934 20.2145Z" fill="black"/>
<path d="M117.17 15.2929C116.127 16.1594 121.799 17.3708 122.104 15.4694C122.409 13.5681 118.181 14.4506 117.17 15.2929Z" fill="black"/>
<path d="M166.083 131.689C170.166 130.877 174.29 130.288 178.438 129.924" stroke="#B46A56" stroke-width="0.75" stroke-linecap="round" stroke-linejoin="round"/>
<path d="M178.438 129.923C193.167 128.623 203.998 140.93 197.427 150.365C189.116 162.295 135.909 159.246 130.446 159.11C126.98 159.029 127.237 161.581 121.934 162.078C118.725 162.391 113.815 162.407 112.78 161.886C112.002 161.363 111.374 160.647 110.959 159.808C110.959 159.808 107.926 161.019 106.715 157.553C106.715 157.553 103.626 158.251 103.12 153.911C103.12 153.911 101.251 156.238 99.5262 155.387C97.5526 154.416 97.2719 152.98 98.6598 151.143C100.048 149.306 105.76 142.816 107.661 142.134C116 138.5 123.843 143.979 126.282 143.433C138.533 140.698 155.3 131.961 178.438 129.923Z" fill="#EEA383"/>
<path d="M131.5 141.999C128.5 141.999 124.797 139.592 122.5 138C116 133 117.041 129.933 113.5 129.001C112.017 128.909 109.414 131.527 111.033 135.533C111.684 136.957 112 139 115 141C120.613 145.997 126.098 147.328 131.5 141.999Z" fill="#EEA383"/>
<path d="M113.5 129C112.016 128.909 109.413 131.527 111.033 135.532C111.683 136.956 112 139 115 141" stroke="#B46A56" stroke-width="0.75"/>
<path d="M116.108 162.285C114.984 162.326 113.861 162.191 112.779 161.884C112.001 161.362 111.373 160.645 110.958 159.806C110.958 159.806 107.925 161.017 106.714 157.552C106.714 157.552 103.625 158.25 103.12 153.909C103.12 153.909 101.25 156.236 99.5255 155.385C97.5519 154.415 97.2711 152.979 98.659 151.141C100.047 149.304 105.759 142.814 107.66 142.132C108.607 141.588 111.4 140.599 115 140.999" stroke="#B46A56" stroke-width="0.75" stroke-linecap="round" stroke-linejoin="round"/>
<path d="M102.728 154.344L107.076 149.578" stroke="#B46A56" stroke-width="0.75" stroke-linecap="round" stroke-linejoin="round"/>
<path d="M106.715 157.554L111.271 154.666" stroke="#B46A56" stroke-width="0.75" stroke-linecap="round" stroke-linejoin="round"/>
<path d="M110.958 159.806L114.071 158.852" stroke="#B46A56" stroke-width="0.75" stroke-linecap="round" stroke-linejoin="round"/>
</svg>
