<svg width="47" height="47" viewBox="0 0 47 47" fill="none" xmlns="http://www.w3.org/2000/svg">
<path d="M46.9 26.3C46.9 27.3 47 28.3 46.9 29.3C46.7 31.2 45 32.6 43 32.7C42.1 32.7 41.2 32.7 40.3 32.7C39.9 32.7 39.7 32.8 39.6 33.2C37.6 38.3 34.2 42.1 29.3 44.6C27.2 45.7 24.9 46.3 22.5 46.1C20.3 45.9 18.3 45.1 16.5 44C12.2 41.5 9.2 37.8 7.4 33.2C7.3 32.8 7.1 32.7 6.7 32.7C5.8 32.7 4.9 32.7 4 32.7C1.8 32.6 0.1 30.9 0 28.7C0 27.1 0 25.5 0 23.9C0 22.5 0.7 21.3 1.9 20.5C2.2 20.3 2.2 20.2 2.2 19.9C2.2 17.2 2.6 14.5 3.5 12C5.3 6.99999 8.8 3.49999 13.8 1.59999C17.6 0.19999 21.5 -0.10001 25.5 -1.02688e-05C28 0.0999897 30.5 0.49999 32.9 1.39999C38.6 3.49999 42.3 7.39999 44 13.3C44.6 15.5 44.9 17.7 44.9 19.9C44.9 20.2 45 20.4 45.3 20.6C46.4 21.4 47.1 22.5 47.1 23.9C47 24.7 47 25.5 46.9 26.3C47 26.3 46.9 26.3 46.9 26.3ZM12.2 36C12.2 36 12.2 36.1 12.3 36.1C14.2 38.7 16.5 40.7 19.4 42.1C21.7 43.2 24 43.6 26.4 42.7C31.2 40.9 34.6 37.5 36.7 32.9C38.1 29.9 38.3 26.7 38.2 23.5C38.2 22.5 37.7 21.9 36.9 21.5C34.7 20.2 32.3 19.5 29.8 19.1C29.4 19 29.1 19 28.6 19C29.2 19.8 29.6 20.5 29.9 21.5C29.6 21.3 29.4 21.1 29.1 21C27.7 20.5 26.4 19.9 25 19.5C21.8 18.5 19.2 16.8 17.3 13.9C17.2 13.8 17.1 13.6 16.9 13.4C16.9 13.7 16.8 13.8 16.8 14C16.8 15.1 16.6 16.2 16.2 17.2C14.9 20.5 12.7 22.8 9.2 23.6C9 23.6 8.9 23.7 8.9 24C8.8 25.8 8.9 27.6 9.2 29.4C9.5 30.9 10.1 32.2 11.4 33.1C13.8 34.7 16.4 35.2 19.1 35.4C19.2 35.4 19.4 35.3 19.5 35.2C21.1 33.4 24.4 33.2 26.2 34.8C26.9 35.4 27.2 36.2 27 37.1C26.8 37.8 26.4 38.3 25.8 38.7C24.7 39.4 23.5 39.6 22.3 39.4C21.1 39.2 20.1 38.8 19.3 37.8C19.2 37.7 19 37.7 18.9 37.6C18 37.5 17.1 37.5 16.2 37.3C14.9 36.8 13.5 36.4 12.2 36ZM4.7 19.8C5.1 19.8 5.5 19.8 5.9 19.8C6.2 19.8 6.4 19.7 6.4 19.4C6.7 17.4 7.2 15.5 8.1 13.7C9.9 9.79999 12.8 6.99999 16.9 5.59999C20.3 4.49999 23.8 4.29999 27.3 4.89999C33.3 5.89999 37.3 9.19999 39.4 14.9C39.9 16.4 40.2 17.9 40.6 19.4C40.6 19.5 40.8 19.8 40.9 19.8C41.3 19.8 41.8 19.8 42.3 19.8C42.3 19.5 42.3 19.3 42.3 19C42.1 17.7 42.1 16.4 41.8 15.1C40.5 9.19999 37.1 5.19999 31.3 3.49999C26.8 2.19999 22.3 2.09999 17.7 2.99999C15 3.49999 12.4 4.59999 10.3 6.39999C6.1 9.99999 4.9 14.7 4.7 19.8Z" fill="#FF50A3"/>
<path d="M17.4 27.8004C16.1 27.8004 15 26.6004 15 25.3004C15 24.0004 16.1 22.9004 17.4 22.9004C18.7 22.9004 19.8 24.0004 19.8 25.3004C19.8 26.7004 18.7 27.8004 17.4 27.8004Z" fill="#FF50A3"/>
<path d="M29.6002 27.8004C28.3002 27.8004 27.2002 26.7004 27.2002 25.3004C27.2002 24.0004 28.3002 22.9004 29.6002 22.9004C30.9002 22.9004 32.0002 24.0004 32.0002 25.3004C32.0002 26.7004 30.9002 27.8004 29.6002 27.8004Z" fill="#FF50A3"/>
</svg>
