<svg width="48" height="46" viewBox="0 0 48 46" fill="none" xmlns="http://www.w3.org/2000/svg">
<path d="M48.0004 6.80094C48.0004 6.80094 47.9004 6.90094 48.0004 6.80094C47.7004 7.20094 47.4004 7.30094 47.1004 7.20094C46.8004 7.10094 46.7004 6.80094 46.7004 6.50094C46.7004 5.60094 46.7004 4.70094 46.7004 3.80094C46.7004 3.50094 46.6004 3.40094 46.3004 3.20094C43.2004 1.70094 39.9004 1.20094 36.5004 1.40094C32.8004 1.70094 29.5004 3.00094 26.4004 5.00094C26.1004 5.20094 26.0004 5.50094 26.0004 5.80094C26.0004 17.1009 26.0004 28.4009 26.0004 39.7009C26.0004 39.9009 26.0004 40.0009 26.0004 40.3009C26.2004 40.2009 26.3004 40.2009 26.4004 40.1009C28.1004 39.1009 29.8004 38.2009 31.7004 37.7009C32.0004 37.6009 32.1004 37.5009 32.1004 37.1009C32.1004 36.5009 32.1004 35.8009 32.1004 35.2009C32.1004 34.2009 32.8004 33.4009 33.8004 33.4009C36.2004 33.4009 38.7004 33.4009 41.1004 33.4009C41.6004 33.4009 42.0004 33.6009 42.2004 34.1009C42.4004 34.6009 42.2004 35.0009 41.9004 35.4009C41.5004 35.8009 41.0004 36.3009 40.5004 36.8009C41.2004 36.9009 41.8004 37.0009 42.3004 37.2009C43.5004 37.5009 44.7004 37.9009 45.8004 38.3009C46.4004 38.5009 46.5004 38.5009 46.5004 37.8009C46.5004 28.6009 46.5004 19.5009 46.5004 10.3009C46.5004 10.1009 46.5004 10.0009 46.5004 9.80094C46.6004 9.60094 46.7004 9.30094 46.9004 9.20094C47.1004 9.10094 47.4004 9.30094 47.6004 9.30094C47.7004 9.30094 47.7004 9.40094 47.8004 9.50094C47.8004 19.1009 47.8004 28.8009 47.8004 38.4009C47.2004 39.7009 46.5004 39.9009 45.1004 39.4009C44.2004 39.1009 43.3004 38.8009 42.4004 38.5009C42.0004 38.4009 41.6004 38.3009 41.2004 38.3009C42.0004 39.2009 42.9004 40.1009 43.7004 40.9009C44.3004 41.5009 44.3004 42.3009 43.7004 42.9009C43.0004 43.6009 42.3004 44.4009 41.5004 45.1009C40.9004 45.7009 40.1004 45.7009 39.5004 45.1009C38.7004 44.4009 38.0004 43.6009 37.2004 42.8009C36.7004 42.3009 36.3004 41.8009 35.8004 41.3009C35.6004 41.5009 35.5004 41.6009 35.4004 41.7009C34.9004 42.2009 34.4004 42.7009 33.9004 43.2009C33.6004 43.5009 33.1004 43.7009 32.7004 43.5009C32.2004 43.3009 32.0004 42.9009 32.0004 42.4009C32.0004 42.0009 32.0004 41.7009 32.0004 41.3009C32.0004 40.5009 32.0004 39.7009 32.0004 38.8009C31.1004 39.1009 30.4004 39.5009 29.6004 39.8009C29.3004 39.9009 29.2004 40.0009 29.2004 40.3009C29.2004 41.3009 29.2004 42.3009 29.2004 43.3009C29.2004 44.7009 28.5004 45.4009 27.1004 45.4009C19.1004 45.4009 11.2004 45.4009 3.20039 45.4009C2.10039 45.4009 1.30039 45.0009 0.900391 43.9009C0.900391 40.8009 0.900391 37.7009 0.900391 34.6009C1.10039 34.3009 1.40039 34.0009 1.80039 34.2009C2.20039 34.3009 2.30039 34.7009 2.30039 35.1009C2.30039 37.8009 2.30039 40.5009 2.30039 43.2009C2.30039 44.0009 2.40039 44.1009 3.20039 44.1009C11.1004 44.1009 19.1004 44.1009 27.0004 44.1009C27.1004 44.1009 27.3004 44.1009 27.4004 44.1009C27.6004 44.0009 27.9004 43.8009 27.9004 43.7009C27.9004 42.7009 27.9004 41.8009 27.9004 40.7009C27.2004 41.2009 26.6004 41.6009 25.9004 42.0009C25.7004 42.1009 25.4004 42.3009 25.1004 42.3009C18.6004 42.3009 12.2004 42.3009 5.70039 42.3009C4.70039 42.3009 4.30039 41.8009 4.30039 40.9009C4.30039 29.2009 4.30039 17.5009 4.30039 5.80094C4.30039 4.80094 4.80039 4.40094 5.70039 4.30094C6.60039 4.30094 7.50039 4.30094 8.40039 4.30094C9.10039 4.30094 9.60039 4.50094 10.0004 5.00094C10.5004 5.60094 11.1004 6.20094 11.7004 6.80094C11.8004 6.90094 12.1004 7.00094 12.3004 7.00094C14.2004 7.00094 16.0004 7.00094 17.9004 7.00094C18.1004 7.00094 18.4004 6.90094 18.6004 6.70094C19.2004 6.10094 19.7004 5.50094 20.2004 5.00094C20.7004 4.50094 21.2004 4.20094 21.9004 4.20094C22.8004 4.20094 23.7004 4.20094 24.7004 4.20094C25.0004 4.20094 25.2004 4.10094 25.5004 4.00094C26.2004 3.60094 26.9004 3.20094 27.5004 2.80094C27.6004 2.70094 27.7004 2.70094 27.8004 2.60094V2.50094C27.6004 2.50094 27.3004 2.40094 27.1004 2.40094C19.2004 2.40094 11.2004 2.40094 3.30039 2.40094C2.50039 2.40094 2.40039 2.50094 2.40039 3.30094C2.40039 12.7009 2.40039 22.2009 2.40039 31.6009C2.40039 32.0009 2.40039 32.3009 1.90039 32.5009C1.50039 32.6009 1.20039 32.3009 1.00039 32.0009C1.00039 22.1009 1.00039 12.2009 1.00039 2.30094C1.40039 1.30094 2.30039 1.00094 3.40039 1.00094C11.2004 1.00094 19.0004 1.00094 26.7004 1.00094C27.6004 1.00094 28.5004 1.10094 29.0004 2.00094C31.1004 1.10094 33.2004 0.500944 35.4004 0.200944C39.3004 -0.299056 43.0004 0.300944 46.5004 1.90094C47.1004 2.20094 47.6004 2.60094 47.9004 3.30094C48.0004 4.40094 48.0004 5.60094 48.0004 6.80094ZM24.6004 5.60094C23.6004 5.60094 22.7004 5.60094 21.8004 5.60094C21.6004 5.60094 21.4004 5.80094 21.3004 5.90094C20.7004 6.50094 20.1004 7.10094 19.6004 7.70094C19.2004 8.10094 18.7004 8.30094 18.1004 8.30094C16.2004 8.30094 14.2004 8.30094 12.3004 8.30094C11.7004 8.30094 11.2004 8.10094 10.8004 7.60094C10.2004 7.20094 9.60039 6.60094 9.10039 6.00094C8.90039 5.80094 8.80039 5.70094 8.60039 5.70094C7.60039 5.70094 6.70039 5.70094 5.70039 5.70094C5.70039 17.5009 5.70039 29.2009 5.70039 40.9009C12.0004 40.9009 18.3004 40.9009 24.6004 40.9009C24.6004 29.1009 24.6004 17.4009 24.6004 5.60094ZM33.4004 41.9009C33.9004 41.4009 34.3004 41.0009 34.7004 40.6009C35.6004 39.7009 36.0004 39.7009 36.9004 40.6009C38.1004 41.8009 39.3004 43.0009 40.5004 44.2009C41.3004 43.4009 42.0004 42.7009 42.8004 41.9009C42.7004 41.8009 42.6004 41.7009 42.4004 41.6009C41.2004 40.4009 40.0004 39.2009 38.9004 38.1009C38.4004 37.6009 38.4004 37.0009 38.9004 36.5009C39.3004 36.1009 39.8004 35.6009 40.2004 35.2009C40.3004 35.1009 40.3004 35.0009 40.4004 34.9009C38.1004 34.9009 36.0004 34.9009 33.8004 34.9009C33.5004 34.9009 33.3004 35.1009 33.3004 35.4009C33.4004 37.4009 33.4004 39.6009 33.4004 41.9009Z" fill="#27AE60"/>
<path d="M38.1003 17.6016C39.9003 17.6016 41.7003 17.8016 43.4003 18.3016C43.5003 18.3016 43.6003 18.4016 43.7003 18.4016C44.1003 18.5016 44.3003 18.9016 44.2003 19.2016C44.1003 19.6016 43.8003 19.8016 43.3003 19.7016C42.4003 19.5016 41.5003 19.3016 40.6003 19.2016C36.9003 18.7016 33.4003 19.3016 29.9003 20.7016C29.7003 20.8016 29.5003 20.9016 29.4003 20.9016C29.0003 21.1016 28.6003 20.9016 28.5003 20.6016C28.3003 20.2016 28.5003 19.8016 28.9003 19.7016C29.8003 19.3016 30.6003 19.0016 31.5003 18.7016C33.6003 18.0016 35.9003 17.6016 38.1003 17.6016Z" fill="#27AE60"/>
<path d="M44.2005 14.0017C44.2005 14.5017 43.8005 14.8017 43.3005 14.7017C42.5005 14.5017 41.7005 14.3017 40.9005 14.2017C37.1005 13.6017 33.5005 14.2017 30.0005 15.6017C29.8005 15.7017 29.6005 15.8017 29.5005 15.8017C29.0005 16.0017 28.6005 15.9017 28.5005 15.5017C28.3005 15.1017 28.5005 14.7017 29.0005 14.5017C30.4005 14.0017 31.8005 13.4017 33.3005 13.1017C36.7005 12.2017 40.1005 12.3017 43.5005 13.2017C44.0005 13.4017 44.2005 13.6017 44.2005 14.0017Z" fill="#27AE60"/>
<path d="M38.1009 7.40039C39.9009 7.40039 41.8009 7.60039 43.5009 8.20039C43.7009 8.30039 44.0009 8.50039 44.1009 8.80039C44.2009 8.90039 44.1009 9.30039 43.9009 9.40039C43.7009 9.50039 43.3009 9.60039 43.1009 9.50039C41.3009 9.10039 39.6009 8.80039 37.7009 8.80039C35.0009 8.90039 32.4009 9.40039 29.9009 10.5004C29.7009 10.6004 29.6009 10.6004 29.4009 10.7004C28.9009 10.9004 28.5009 10.8004 28.4009 10.4004C28.2009 10.0004 28.4009 9.60039 28.9009 9.40039C30.2009 8.90039 31.5009 8.40039 32.8009 8.00039C34.5009 7.60039 36.3009 7.50039 38.1009 7.40039Z" fill="#27AE60"/>
<path d="M36.3 22.8008C36.7 22.8008 37 23.0008 37 23.4008C37 23.8008 36.8 24.1008 36.4 24.2008C34 24.4008 31.7 25.1008 29.5 26.1008C29.1 26.3008 28.7 26.2008 28.6 25.8008C28.4 25.5008 28.5 25.0008 28.9 24.9008C31.2 23.7008 33.7 23.0008 36.3 22.8008Z" fill="#27AE60"/>
<path d="M15.9 4.7C15.9 5.1 15.6 5.4 15.2 5.4C14.8 5.4 14.5 5.1 14.5 4.7C14.5 4.3 14.8 4 15.2 4C15.6 4 15.9 4.3 15.9 4.7Z" fill="#27AE60"/>
<path d="M7.2002 23.3004C7.2002 18.9004 10.8002 15.4004 15.1002 15.4004C19.5002 15.4004 23.1002 19.0004 23.1002 23.4004C23.1002 27.8004 19.5002 31.3004 15.1002 31.3004C10.8002 31.2004 7.2002 27.6004 7.2002 23.3004ZM8.6002 23.3004C8.6002 26.9004 11.5002 29.9004 15.2002 29.9004C18.8002 29.9004 21.8002 26.9004 21.8002 23.3004C21.8002 19.7004 18.8002 16.8004 15.2002 16.8004C11.5002 16.7004 8.6002 19.6004 8.6002 23.3004Z" fill="#27AE60"/>
<path d="M15.8004 26.3009C15.9004 26.3009 15.9004 26.3009 15.8004 26.3009C16.5004 26.4009 16.8004 26.7009 16.8004 27.1009C16.8004 27.6009 16.5004 27.8009 15.8004 27.8009C15.3004 27.8009 14.8004 27.8009 14.2004 27.8009C13.7004 27.8009 13.4004 27.6009 13.4004 27.2009C13.4004 26.8009 13.7004 26.5009 14.2004 26.5009C14.3004 26.5009 14.3004 26.5009 14.4004 26.5009C14.4004 25.4009 14.4004 24.2009 14.4004 23.1009C14.3004 23.1009 14.2004 23.1009 14.1004 23.1009C13.7004 23.0009 13.4004 22.7009 13.5004 22.3009C13.6004 21.9009 13.8004 21.7009 14.2004 21.7009C15.6004 21.7009 15.7004 21.7009 15.7004 23.1009C15.8004 24.1009 15.8004 25.2009 15.8004 26.3009Z" fill="#27AE60"/>
<path d="M15.1008 18.8008C15.6008 18.8008 15.9008 19.1008 15.9008 19.5008C15.9008 19.9008 15.6008 20.2008 15.1008 20.2008C14.6008 20.2008 14.3008 19.9008 14.3008 19.5008C14.3008 19.1008 14.6008 18.8008 15.1008 18.8008Z" fill="#27AE60"/>
</svg>
