<svg width="478" height="423" viewBox="0 0 478 423" fill="none" xmlns="http://www.w3.org/2000/svg">
<path fill-rule="evenodd" clip-rule="evenodd" d="M443.308 69.0491C473.711 126.486 463.646 199.505 442.148 261.83C428.317 301.927 392.998 316.221 356.469 331.005C341.727 336.971 326.789 343.017 312.986 350.871C300.256 358.114 295 375.389 279.5 386.5C251.081 406.873 215 409.633 193.5 406C188.306 405.122 162.793 402.356 157.5 401.5C101.863 392.509 56.5502 385.512 25.4086 334.433C-10.1236 276.153 -7.04342 213.454 26.2606 153.492C44.5603 120.544 78.9331 115.077 114.507 109.418C137.15 105.817 160.278 102.138 180.059 91.2469C196.638 82.1191 211.954 68.6745 227.611 54.9297C254.12 31.6583 281.611 7.52652 317.872 2.02958C375.548 -6.71401 413.256 12.2777 443.308 69.0491Z" fill="white" fill-opacity="0.4"/>
<path d="M400.074 413.089L390.44 412.944L390.404 390.576L400.025 390.72L400.074 413.089Z" fill="#FFB573"/>
<path d="M448.988 413.124H439.342L436.483 390.793H446.129L448.988 413.124Z" fill="#FFB573"/>
<path d="M438.335 412.009H450.096C450.284 412.009 450.467 412.073 450.611 412.194C450.757 412.315 450.854 412.483 450.888 412.668L452.425 421.247C452.459 421.459 452.445 421.675 452.386 421.881C452.327 422.089 452.224 422.279 452.082 422.442C451.942 422.604 451.767 422.734 451.571 422.822C451.375 422.911 451.163 422.955 450.948 422.952C447.164 422.891 444.413 422.663 439.644 422.663C436.712 422.663 427.872 422.975 423.823 422.975C419.775 422.975 419.414 418.976 421.084 418.603C428.58 416.982 434.298 414.748 436.7 412.596C437.152 412.204 437.736 411.994 438.335 412.009Z" fill="#263238"/>
<path d="M389.97 411.875L400.493 412.043C400.682 412.041 400.864 412.109 401.006 412.233C401.147 412.358 401.238 412.529 401.262 412.716L402.584 421.306C402.614 421.518 402.596 421.736 402.534 421.941C402.471 422.147 402.365 422.337 402.224 422.497C402.081 422.659 401.904 422.787 401.708 422.873C401.511 422.96 401.297 423.002 401.082 422.999C397.286 422.879 391.821 422.566 387.051 422.494C381.477 422.41 380.852 422.639 374.318 422.494C370.366 422.434 369.513 418.422 371.218 418.085C378.87 416.548 380.829 416.464 387.605 412.548C388.319 412.117 389.136 411.885 389.97 411.875Z" fill="#263238"/>
<path d="M394.248 126.13C391.659 133.085 388.712 139.901 385.418 146.551C383.773 149.866 382.043 153.17 380.145 156.414C378.262 159.727 376.201 162.935 373.97 166.024L372.157 168.426C371.041 169.849 369.646 171.03 368.06 171.899C366.405 172.793 364.559 173.279 362.679 173.316C361.138 173.364 359.601 173.161 358.125 172.715C355.827 172.018 353.651 170.968 351.675 169.604C349.989 168.44 348.384 167.164 346.87 165.784C341.309 160.579 336.463 154.661 332.454 148.185L338.172 143.728C340.635 146.131 343.229 148.534 345.848 150.791C348.376 153.031 351.036 155.116 353.813 157.038C355.08 157.932 356.408 158.735 357.79 159.442C358.862 160.007 360.01 160.412 361.2 160.642C361.455 160.715 361.726 160.715 361.981 160.642C362.066 160.581 361.897 160.57 361.752 160.642C361.61 160.714 361.573 160.642 361.657 160.546L362.919 158.54C366.422 152.647 369.571 146.549 372.348 140.281C375.244 133.95 378.031 127.355 380.613 120.988L394.248 126.13Z" fill="#FFB573"/>
<path d="M397.851 119.834C401.035 128.483 384.337 153.745 384.337 153.745L365.117 143.102C368.079 135.225 371.881 127.689 376.457 120.626C383.412 110.524 394.38 110.356 397.851 119.834Z" fill="#407BFF"/>
<path opacity="0.5" d="M397.851 119.834C401.035 128.483 384.337 153.745 384.337 153.745L365.117 143.102C368.079 135.225 371.881 127.689 376.457 120.626C383.412 110.524 394.38 110.356 397.851 119.834Z" fill="white"/>
<path opacity="0.2" d="M387.196 129.312C383.519 131.174 375.182 140.328 372.673 147.272L384.336 153.745C388.321 147.607 391.847 141.184 394.884 134.526C392.265 131.979 389.142 128.375 387.196 129.312Z" fill="#407BFF"/>
<path d="M338.799 143.884L332.936 138.574L327.397 148.052C327.397 148.052 333.032 154.66 339.267 151.452L340.108 149.049C340.423 148.155 340.467 147.188 340.235 146.268C340.002 145.349 339.501 144.52 338.799 143.884Z" fill="#FFB573"/>
<path d="M323.468 134.584L321.847 143.798L327.396 148.05L332.934 138.572L323.468 134.584Z" fill="#FFB573"/>
<path opacity="0.2" d="M390.404 390.576L390.428 402.109L400.05 402.265L400.038 390.734L390.404 390.576Z" fill="black"/>
<path opacity="0.2" d="M446.129 390.807H436.484L437.972 402.314H447.607L446.129 390.807Z" fill="black"/>
<path d="M440.498 113.117C432.52 150.356 437.146 189.002 436.725 196.919L385.154 196.462C374.835 142.14 386.475 113.117 386.475 113.117C386.475 113.117 389.731 112.264 394.187 111.507C395.582 111.267 397.094 111.039 398.668 110.859C399.533 110.751 400.422 110.666 401.324 110.582C408.629 110.233 415.949 110.301 423.247 110.787C424.628 110.859 426.033 110.979 427.391 111.111C428.749 111.243 429.902 111.387 431.067 111.543C436.377 112.24 440.498 113.117 440.498 113.117Z" fill="#407BFF"/>
<path opacity="0.5" d="M440.498 113.117C432.52 150.356 437.146 189.002 436.725 196.919L385.154 196.462C374.835 142.14 386.475 113.117 386.475 113.117C386.475 113.117 389.731 112.264 394.187 111.507C395.582 111.267 397.094 111.039 398.668 110.859C399.533 110.751 400.422 110.666 401.324 110.582C408.629 110.233 415.949 110.301 423.247 110.787C424.628 110.859 426.033 110.979 427.391 111.111C428.749 111.243 429.902 111.387 431.067 111.543C436.377 112.24 440.498 113.117 440.498 113.117Z" fill="white"/>
<path opacity="0.2" d="M430.575 129.574C429.878 133.178 431.993 149.24 435.946 152.976C436.102 147.774 436.426 142.344 436.954 136.77L430.575 129.574Z" fill="black"/>
<path d="M421.289 86.0781C419.848 93.1176 418.346 106.031 423.247 110.788C419.379 114.561 414.321 118.921 405.949 119.137C397.575 119.354 399.077 113.612 401.323 110.584C409.203 108.782 409.06 102.944 407.738 97.4543L421.289 86.0781Z" fill="#FFB573"/>
<path d="M421.817 108.086C421.817 108.086 419.27 114.765 405.612 119.138C407.815 120.172 409.606 121.92 410.693 124.099C410.693 124.099 426.658 120.039 425.445 109.936C424.324 109.159 423.105 108.537 421.817 108.086Z" fill="white"/>
<path d="M400.398 123.569C401.6 121.565 403.433 120.018 405.611 119.173C404.074 117.767 401.588 113.382 402.681 109.971C401.598 109.942 400.517 110.071 399.473 110.355C399.473 110.355 393.767 115.809 400.398 123.569Z" fill="white"/>
<path d="M405.227 126.908C405.119 127.869 404.627 128.59 404.11 128.53C403.594 128.47 403.27 127.665 403.365 126.704C403.461 125.743 403.978 125.034 404.483 125.082C404.987 125.131 405.336 125.971 405.227 126.908Z" fill="white"/>
<path d="M404.279 136.783C404.279 137.744 403.822 138.513 403.305 138.501C402.79 138.489 402.38 137.708 402.405 136.747C402.429 135.786 402.862 135.017 403.377 135.029C403.894 135.041 404.279 135.834 404.279 136.783Z" fill="white"/>
<path opacity="0.2" d="M415.763 90.7129L407.738 97.44C408.067 98.7199 408.279 100.026 408.374 101.344C411.39 100.936 415.583 97.6682 415.895 94.5209C416.081 93.2541 416.037 91.9638 415.763 90.7129Z" fill="black"/>
<path d="M407.041 70.0167C405.452 71.6583 404.274 73.6521 403.602 75.8358C402.929 78.0195 402.782 80.3311 403.174 82.5822C400.951 84.5042 396.927 84.1557 396.927 84.1557L395.653 82.8825C395.046 82.269 394.579 81.5317 394.282 80.7212C393.986 79.9106 393.868 79.0457 393.936 78.1854C394.164 75.3744 394.8 71.1099 396.579 68.407C399.473 64.0944 407.041 70.0167 407.041 70.0167Z" fill="#263238"/>
<path d="M422.226 75.5182C421.553 85.1284 421.649 90.6904 416.785 95.5435C409.457 102.859 397.708 98.3785 395.509 88.8164C393.539 80.2152 394.969 65.992 404.351 62.3882C406.411 61.5591 408.65 61.2699 410.853 61.5479C413.058 61.826 415.153 62.662 416.944 63.9769C418.733 65.2919 420.159 67.0421 421.084 69.0619C422.007 71.0816 422.402 73.3039 422.226 75.5182Z" fill="#FFB573"/>
<path d="M414.25 69.6797C415.845 73.2506 416.004 77.2985 414.695 80.9837C414.553 81.3561 414.488 81.7533 414.505 82.1513C414.521 82.5494 414.618 82.94 414.79 83.2994C414.961 83.6588 415.204 83.9797 415.504 84.2424C415.803 84.5051 416.154 84.7042 416.532 84.8278C417.361 85.075 418.224 85.1925 419.09 85.1762L423.692 84.2992C423.692 84.2992 425.626 77.4519 424.364 72.4426C423.103 67.4333 414.25 69.6797 414.25 69.6797Z" fill="#263238"/>
<path d="M414.213 70.9405C407.157 71.579 400.046 71.211 393.095 69.8473C393.095 69.8473 395.352 62.6397 400.423 60.2371C405.492 57.8346 416.207 57.9907 419.51 59.3842C422.814 60.7777 427.126 65.0303 425.517 75.4093C422.093 79.1212 414.213 70.9405 414.213 70.9405Z" fill="#263238"/>
<path d="M426.947 73.8719C426.947 73.8719 400.051 69.9677 388.903 68.0097C388.733 67.9788 388.582 67.8897 388.471 67.758C388.362 67.6264 388.302 67.4604 388.302 67.2888C388.302 67.1174 388.362 66.9514 388.471 66.8198C388.582 66.6881 388.733 66.599 388.903 66.5681C393.565 66.124 398.267 66.3343 402.874 67.1928L426.947 73.8719Z" fill="white"/>
<path d="M393.286 66.582C393.766 64.1795 397.922 51.7703 415.366 55.5422C431.522 59.0259 426.945 73.8738 426.945 73.8738L393.286 66.582Z" fill="white"/>
<path d="M404.219 55.9133L410.058 54.1833L417.097 54.76V55.9734L412.628 57.0064L404.219 55.9133Z" fill="white"/>
<path opacity="0.2" d="M405.095 67.8311C405.035 67.8327 404.976 67.8224 404.921 67.8008C404.865 67.7791 404.815 67.7467 404.773 67.7052C404.73 67.6638 404.696 67.6142 404.673 67.5595C404.65 67.5048 404.639 67.446 404.639 67.3866C404.639 67.2905 404.77 57.6322 416.206 55.0614C416.267 55.0427 416.33 55.0368 416.393 55.044C416.457 55.0512 416.517 55.0714 416.572 55.1033C416.626 55.1353 416.673 55.1783 416.712 55.2296C416.748 55.2807 416.775 55.3391 416.788 55.401C416.801 55.463 416.801 55.5269 416.788 55.5889C416.776 55.6509 416.751 55.7096 416.714 55.7613C416.678 55.813 416.631 55.8565 416.576 55.889C416.522 55.9216 416.461 55.9425 416.399 55.9504C405.695 58.3529 405.587 67.0142 405.587 67.3866C405.587 67.4492 405.575 67.5112 405.549 67.5685C405.524 67.6258 405.487 67.6772 405.44 67.7192C405.394 67.7611 405.34 67.7928 405.279 67.8121C405.22 67.8314 405.157 67.8379 405.095 67.8311Z" fill="black"/>
<path d="M426.31 85.2009C425.085 87.2743 423.091 88.7805 420.761 89.3935C417.673 90.1743 416.208 87.3873 417.156 84.5162C417.985 81.9215 420.605 78.3898 423.68 78.8943C426.755 79.3988 427.775 82.6422 426.31 85.2009Z" fill="#FFB573"/>
<path d="M387.46 399.865L403.786 400.117C403.786 400.117 408.207 335.525 407.714 305.481C407.57 296.339 408.568 283.472 410.117 269.659C412.027 252.252 413.036 245.297 415.547 223.289C417.336 207.6 419.151 196.861 419.151 196.861L385.25 196.561C385.25 196.561 380.915 275.245 381.803 304.676C382.655 335.152 387.46 399.865 387.46 399.865Z" fill="#263238"/>
<path opacity="0.2" d="M408.532 218.098C403.461 233.594 405.648 268.984 409.096 278.762C409.384 275.783 409.708 272.755 410.044 269.632C411.954 252.213 412.976 245.258 415.487 223.264C415.487 222.819 415.583 222.398 415.631 221.978C413.511 220.277 411.107 218.964 408.532 218.098Z" fill="black"/>
<path d="M403.449 196.631C403.449 196.631 414.958 277.609 419.065 305.563C423.558 336.171 433.481 400.08 433.481 400.08H451.128C451.128 400.08 447.813 339.847 444.005 309.924C439.68 275.832 436.689 196.931 436.689 196.931L403.449 196.631Z" fill="#263238"/>
<path d="M431.391 400.463H452.185V394.252L428.94 393.855L431.391 400.463Z" fill="#407BFF"/>
<path d="M384.975 400.176L404.388 400.477L405.277 394.194L383.617 393.521L384.975 400.176Z" fill="#407BFF"/>
<path d="M407.713 78.0033C407.713 78.7843 407.292 79.4088 406.775 79.4088C406.26 79.4088 405.862 78.7722 405.875 77.9914C405.887 77.2105 406.295 76.5859 406.812 76.5978C407.329 76.6099 407.725 77.2346 407.713 78.0033Z" fill="#263238"/>
<path d="M398.921 77.9215C398.921 78.7023 398.5 79.327 397.996 79.3149C397.491 79.303 397.083 78.6783 397.083 77.9094C397.083 77.1407 397.503 76.5039 398.02 76.5039C398.537 76.5039 398.933 77.1526 398.921 77.9215Z" fill="#263238"/>
<path d="M401.456 78.7498C400.504 81.1162 399.232 83.3396 397.671 85.3568C398.2 85.7415 398.805 86.0064 399.445 86.1329C400.088 86.2596 400.749 86.2447 401.383 86.0895L401.456 78.7498Z" fill="#ED893E"/>
<path d="M404.915 88.409C405.782 88.3136 406.622 88.0418 407.38 87.61C408.138 87.1782 408.8 86.5956 409.324 85.8983C409.346 85.8494 409.35 85.794 409.336 85.7423C409.321 85.6905 409.289 85.6456 409.244 85.6156C409.2 85.5854 409.146 85.5718 409.093 85.5774C409.038 85.583 408.99 85.6073 408.951 85.646C408.356 86.4121 407.591 87.0284 406.714 87.4456C405.838 87.8628 404.876 88.0693 403.906 88.0487C403.846 88.0487 403.788 88.0727 403.746 88.1155C403.703 88.1582 403.678 88.2164 403.678 88.2769C403.678 88.3375 403.703 88.3955 403.746 88.4383C403.788 88.481 403.846 88.5052 403.906 88.5052C404.245 88.4918 404.58 88.4597 404.915 88.409Z" fill="#263238"/>
<path d="M410.453 75.1936C410.531 75.1815 410.605 75.153 410.67 75.1095C410.767 75.0377 410.832 74.9303 410.849 74.811C410.867 74.6917 410.838 74.5702 410.765 74.4729C410.344 73.88 409.789 73.3964 409.142 73.0621C408.497 72.7277 407.78 72.5524 407.054 72.5508C406.994 72.5539 406.936 72.5687 406.882 72.5948C406.829 72.6207 406.78 72.6573 406.742 72.702C406.702 72.7469 406.673 72.7991 406.654 72.8556C406.636 72.9123 406.629 72.972 406.633 73.0313C406.636 73.0914 406.651 73.1502 406.677 73.2043C406.702 73.2585 406.739 73.3071 406.783 73.3473C406.829 73.3874 406.88 73.4185 406.936 73.4385C406.994 73.4584 407.054 73.4671 407.113 73.4638C407.689 73.4706 408.253 73.6146 408.761 73.8843C409.269 74.1539 409.705 74.5411 410.033 75.0135C410.078 75.0808 410.142 75.1338 410.216 75.1658C410.291 75.1977 410.374 75.2075 410.453 75.1936Z" fill="#263238"/>
<path d="M395.162 74.8704C395.237 74.8623 395.309 74.8363 395.371 74.7944C395.434 74.7526 395.486 74.6964 395.522 74.6302C395.761 74.1077 396.12 73.6497 396.572 73.2944C397.023 72.9392 397.553 72.6971 398.117 72.5879C398.238 72.5737 398.348 72.5118 398.424 72.4161C398.499 72.3204 398.534 72.1986 398.519 72.0775C398.505 71.9565 398.443 71.846 398.347 71.7705C398.251 71.6951 398.129 71.6608 398.008 71.675C397.294 71.8018 396.62 72.0996 396.044 72.543C395.469 72.9865 395.01 73.5624 394.705 74.2217C394.677 74.275 394.659 74.3336 394.654 74.3939C394.649 74.4541 394.657 74.5148 394.676 74.5721C394.695 74.6293 394.726 74.6822 394.765 74.7273C394.805 74.7725 394.855 74.8089 394.91 74.8345C394.988 74.8695 395.076 74.8821 395.162 74.8704Z" fill="#263238"/>
<path d="M435.08 413.703C435.935 413.679 436.785 413.561 437.615 413.354C437.66 413.34 437.699 413.315 437.73 413.283C437.763 413.249 437.785 413.208 437.795 413.162C437.801 413.119 437.795 413.075 437.779 413.034C437.761 412.994 437.735 412.959 437.699 412.934C437.362 412.717 434.324 410.807 433.242 411.348C433.122 411.411 433.019 411.503 432.946 411.617C432.872 411.731 432.829 411.862 432.822 411.997C432.785 412.217 432.804 412.442 432.878 412.651C432.952 412.862 433.077 413.049 433.242 413.198C433.779 413.57 434.429 413.748 435.08 413.703ZM436.966 413.03C435.308 413.354 434.059 413.295 433.542 412.85C433.432 412.748 433.348 412.62 433.302 412.476C433.255 412.333 433.248 412.18 433.278 412.033C433.274 411.977 433.287 411.921 433.315 411.871C433.343 411.822 433.385 411.782 433.435 411.757C433.999 411.469 435.729 412.298 436.966 413.078V413.03Z" fill="#407BFF"/>
<path d="M437.553 413.356C437.595 413.368 437.641 413.368 437.685 413.356C437.719 413.334 437.746 413.303 437.765 413.268C437.784 413.231 437.793 413.191 437.793 413.151C437.793 413.031 437.672 410.244 436.591 409.331C436.461 409.216 436.308 409.131 436.142 409.082C435.977 409.032 435.802 409.019 435.631 409.043C435.459 409.046 435.294 409.104 435.158 409.21C435.024 409.318 434.928 409.465 434.886 409.632C434.634 410.713 436.472 412.827 437.444 413.368L437.553 413.356ZM435.775 409.476C435.869 409.474 435.965 409.49 436.054 409.526C436.142 409.561 436.223 409.612 436.291 409.68C436.936 410.554 437.289 411.608 437.301 412.695C436.339 411.938 435.186 410.293 435.331 409.716C435.331 409.655 435.33 409.511 435.678 409.476H435.775Z" fill="#407BFF"/>
<path d="M388.938 413.148C388.978 413.132 389.013 413.107 389.041 413.073C389.068 413.039 389.087 413 389.094 412.955C389.104 412.911 389.099 412.864 389.079 412.823C389.06 412.782 389.026 412.748 388.985 412.727C388.565 412.487 384.829 410.47 383.616 411.094C383.502 411.156 383.405 411.243 383.332 411.35C383.259 411.456 383.212 411.578 383.196 411.707C383.159 411.907 383.173 412.113 383.234 412.307C383.295 412.502 383.401 412.679 383.544 412.824C384.541 413.773 387.328 413.437 388.901 413.148H388.938ZM383.893 411.467C384.636 411.226 386.679 412.056 388.169 412.813C386.006 413.137 384.433 413.016 383.881 412.487C383.781 412.394 383.707 412.276 383.666 412.145C383.626 412.014 383.622 411.876 383.653 411.743C383.653 411.692 383.667 411.642 383.695 411.599C383.722 411.556 383.762 411.524 383.809 411.502L383.893 411.467Z" fill="#407BFF"/>
<path d="M388.938 413.15C388.971 413.126 388.997 413.095 389.017 413.06C389.034 413.025 389.046 412.985 389.047 412.945C389.047 412.838 388.962 410.231 387.846 409.209C387.685 409.062 387.495 408.948 387.288 408.878C387.081 408.807 386.862 408.782 386.644 408.801C386.02 408.801 385.815 409.162 385.755 409.426C385.503 410.506 387.665 412.633 388.794 413.173C388.844 413.179 388.894 413.171 388.938 413.15ZM386.404 409.258H386.632C386.797 409.244 386.964 409.264 387.121 409.318C387.279 409.371 387.423 409.458 387.545 409.57C388.21 410.428 388.584 411.475 388.614 412.561C387.473 411.829 386.02 410.159 386.211 409.51C386.188 409.474 386.26 409.318 386.404 409.258Z" fill="#407BFF"/>
<path d="M426.85 108.301C426.243 108.223 425.627 108.291 425.051 108.5C424.477 108.709 423.96 109.053 423.546 109.503C420.231 113.107 412.326 124.122 410.693 149.829C409.39 169.245 411.178 188.744 415.99 207.599L436.532 201.761C437.192 201.577 437.763 201.163 438.143 200.595C438.525 200.026 438.69 199.342 438.61 198.661C438.058 193.856 436.87 182.288 436.532 169.351C436.304 160.245 436.989 152.04 436.953 148.315C434.694 143.895 430.634 136.676 432.148 128.807C433.781 120.026 438.61 118.825 441.902 117.215C442.329 116.992 442.685 116.656 442.931 116.242C443.177 115.829 443.304 115.355 443.296 114.874C443.289 114.393 443.147 113.924 442.888 113.518C442.631 113.113 442.264 112.787 441.829 112.578C437.074 110.424 432.026 108.983 426.85 108.301Z" fill="#407BFF"/>
<path d="M397.936 207.561L383.857 203.14C383.329 202.974 382.86 202.659 382.507 202.233C382.154 201.806 381.93 201.288 381.863 200.738C380.662 191.44 375.64 148.759 382.127 117.069C382.342 115.999 382.832 115.004 383.548 114.18C384.264 113.357 385.181 112.734 386.212 112.372C390.265 110.996 394.459 110.081 398.717 109.645C398.842 109.632 398.967 109.649 399.083 109.696C399.198 109.744 399.301 109.819 399.381 109.915C399.46 110.012 399.515 110.126 399.54 110.249C399.565 110.371 399.557 110.498 399.522 110.618C396.855 120.408 392.411 174.021 397.936 207.561Z" fill="#407BFF"/>
<path d="M379.473 174.887C379.724 179.38 380.048 183.524 380.374 187.164C385.478 187.742 390.705 188.138 395.894 188.366C395.653 184.39 395.485 180.316 395.401 176.221C390.02 175.956 384.662 175.524 379.473 174.887Z" fill="white"/>
<path d="M395.535 153.698C389.83 153.458 384.219 153.013 378.885 152.328C378.885 156.485 378.885 160.569 379.017 164.498C384.314 165.146 389.83 165.567 395.318 165.796C395.331 161.699 395.415 157.639 395.535 153.698Z" fill="white"/>
<path d="M436.712 175.441C429.205 176.173 420.279 176.642 410.885 176.642C411.221 181.051 411.677 185.111 412.194 188.726C421.383 188.726 430.069 188.186 437.516 187.454C437.241 183.79 436.952 179.705 436.712 175.441Z" fill="white"/>
<path d="M436.845 152.4C428.857 153.229 419.775 153.794 410.477 153.914C410.309 158.107 410.285 162.155 410.369 166.011C419.559 165.89 428.496 165.349 436.497 164.545C436.509 159.859 436.714 155.62 436.845 152.4Z" fill="white"/>
<path d="M474.554 214.865L419.979 223.97C419.628 224.035 419.267 224.026 418.921 223.941C418.575 223.857 418.25 223.701 417.969 223.481C417.687 223.262 417.455 222.985 417.288 222.67C417.122 222.355 417.023 222.007 417 221.652L414.393 187.824C414.349 187.065 414.583 186.317 415.053 185.719C415.521 185.122 416.193 184.717 416.941 184.58L471.55 175.474C471.902 175.408 472.263 175.415 472.61 175.499C472.958 175.583 473.283 175.739 473.566 175.959C473.847 176.178 474.08 176.455 474.245 176.772C474.411 177.088 474.508 177.436 474.529 177.794L477.137 211.621C477.18 212.385 476.94 213.137 476.464 213.735C475.987 214.335 475.308 214.735 474.554 214.865Z" fill="#407BFF"/>
<path opacity="0.4" d="M474.554 214.865L421.241 223.754C420.89 223.822 420.528 223.813 420.181 223.729C419.833 223.646 419.507 223.489 419.226 223.269C418.943 223.05 418.712 222.773 418.546 222.456C418.379 222.14 418.282 221.792 418.262 221.436L415.655 187.607C415.609 186.849 415.845 186.101 416.313 185.503C416.783 184.905 417.455 184.5 418.201 184.365L471.514 175.474C471.865 175.408 472.227 175.415 472.573 175.499C472.921 175.583 473.248 175.739 473.529 175.959C473.812 176.178 474.043 176.455 474.209 176.772C474.376 177.088 474.473 177.436 474.494 177.794L477.1 211.621C477.144 212.379 476.91 213.129 476.442 213.725C475.972 214.323 475.301 214.728 474.554 214.865Z" fill="black"/>
<path d="M442.721 119.244C445.759 126.163 448.451 133.047 450.89 140.158C452.09 143.69 453.292 147.27 454.361 150.874C454.902 152.688 455.419 154.477 455.911 156.352L456.283 157.721L456.667 159.308C456.944 160.388 457.1 161.469 457.292 162.539C458.224 170.668 457.501 178.901 455.167 186.745C454.129 190.479 452.861 194.146 451.37 197.723C450.613 199.502 449.821 201.243 448.967 202.973C448.114 204.704 447.273 206.36 446.241 208.128L439.694 205.016C440.739 201.76 441.797 198.252 442.577 194.828C443.358 191.406 444.115 187.921 444.631 184.497C445.138 181.129 445.41 177.729 445.447 174.323C445.516 171.127 445.215 167.934 444.547 164.809C444.343 164.088 444.21 163.331 443.958 162.646L443.609 161.565L443.165 160.363C442.577 158.682 441.964 157.013 441.303 155.33C440.102 151.955 438.697 148.591 437.376 145.216L429.254 125.034L442.721 119.244Z" fill="#FFB573"/>
<path d="M440.485 113.116C449.148 116.36 454.733 141.214 454.733 141.214L435.573 154.428C435.573 154.428 429.686 139.712 426.442 128.24C422.947 115.759 430.01 109.272 440.485 113.116Z" fill="#407BFF"/>
<path opacity="0.5" d="M440.485 113.116C449.148 116.36 454.733 141.214 454.733 141.214L435.573 154.428C435.573 154.428 429.686 139.712 426.442 128.24C422.947 115.759 430.01 109.272 440.485 113.116Z" fill="white"/>
<path d="M438.911 206.529L437.241 213.916L448.786 213.58C448.786 213.58 449.71 204.655 445.182 203.25L441.578 203.935C440.93 204.061 440.334 204.375 439.86 204.836C439.387 205.297 439.057 205.884 438.911 206.529Z" fill="#FFB573"/>
<path d="M440.858 223.144L447.8 221.726C448.208 221.643 448.572 221.414 448.824 221.082C449.075 220.751 449.199 220.34 449.17 219.925L448.785 213.582L437.241 213.918L438.827 221.786C438.917 222.235 439.181 222.63 439.562 222.885C439.942 223.14 440.409 223.232 440.858 223.144Z" fill="#FFB573"/>
<path d="M339.985 61.1016H132.608C132.023 61.103 131.444 61.2214 130.905 61.45C130.367 61.6785 129.879 62.0125 129.472 62.4323C129.064 62.8521 128.745 63.3491 128.533 63.8943C128.32 64.4395 128.219 65.0216 128.235 65.6064L136.644 351.211C136.678 352.35 137.155 353.433 137.974 354.227C138.793 355.02 139.888 355.464 141.029 355.464H348.345C348.933 355.464 349.513 355.346 350.055 355.117C350.596 354.889 351.085 354.553 351.494 354.132C351.903 353.711 352.223 353.212 352.435 352.665C352.647 352.118 352.749 351.533 352.731 350.947L344.322 65.3542C344.29 64.2215 343.821 63.1453 343.011 62.352C342.203 61.5588 341.118 61.1105 339.985 61.1016Z" fill="#407BFF"/>
<path opacity="0.2" d="M339.985 61.1016H132.608C132.023 61.103 131.444 61.2214 130.905 61.45C130.367 61.6785 129.879 62.0125 129.472 62.4323C129.064 62.8521 128.745 63.3491 128.533 63.8943C128.32 64.4395 128.219 65.0216 128.235 65.6064L136.644 351.211C136.678 352.35 137.155 353.433 137.974 354.227C138.793 355.02 139.888 355.464 141.029 355.464H348.345C348.933 355.464 349.513 355.346 350.055 355.117C350.596 354.889 351.085 354.553 351.494 354.132C351.903 353.711 352.223 353.212 352.435 352.665C352.647 352.118 352.749 351.533 352.731 350.947L344.322 65.3542C344.29 64.2215 343.821 63.1453 343.011 62.352C342.203 61.5588 341.118 61.1105 339.985 61.1016Z" fill="black"/>
<path d="M178.149 56.9336H158.688V58.135H178.149V56.9336Z" fill="#407BFF"/>
<path d="M151.744 56.9336H146.807V58.135H151.744V56.9336Z" fill="#407BFF"/>
<path d="M341.98 61.1016H134.615C134.029 61.1014 133.449 61.2186 132.909 61.4465C132.369 61.6743 131.88 62.008 131.471 62.428C131.062 62.848 130.742 63.3456 130.529 63.8915C130.316 64.4374 130.214 65.0206 130.23 65.6064L138.639 351.211C138.676 352.35 139.154 353.43 139.972 354.224C140.79 355.016 141.884 355.461 143.024 355.464H350.353C350.939 355.462 351.519 355.343 352.058 355.115C352.597 354.885 353.085 354.549 353.493 354.129C353.901 353.708 354.22 353.209 354.431 352.663C354.643 352.116 354.743 351.533 354.725 350.947L346.317 65.3542C346.283 64.2226 345.811 63.148 345.004 62.3554C344.196 61.5628 343.112 61.1135 341.98 61.1016Z" fill="#263238"/>
<path opacity="0.2" d="M139.119 76.6087L146.903 342.609C146.944 343.753 147.425 344.84 148.247 345.638C149.067 346.438 150.166 346.888 151.312 346.897H339.096C339.654 346.899 340.205 346.788 340.719 346.572C341.232 346.355 341.695 346.037 342.083 345.637C342.47 345.236 342.772 344.76 342.971 344.24C343.17 343.721 343.262 343.165 343.24 342.609L335.457 76.6087C335.416 75.4645 334.934 74.3803 334.113 73.5831C333.291 72.786 332.192 72.3377 331.048 72.3321H143.264C142.707 72.3284 142.156 72.4377 141.642 72.653C141.129 72.8683 140.665 73.1854 140.278 73.5849C139.89 73.9846 139.588 74.4586 139.389 74.9783C139.19 75.4979 139.098 76.0526 139.119 76.6087Z" fill="black"/>
<path d="M140.416 75.3119L148.201 341.312C148.241 342.456 148.722 343.54 149.544 344.337C150.366 345.134 151.464 345.583 152.609 345.589H340.393C340.95 345.592 341.501 345.483 342.015 345.268C342.527 345.053 342.992 344.735 343.38 344.335C343.767 343.936 344.069 343.462 344.268 342.942C344.466 342.422 344.559 341.867 344.537 341.312L336.753 75.3119C336.713 74.1676 336.231 73.0834 335.41 72.2863C334.588 71.4891 333.489 71.0408 332.345 71.0352H144.56C144.004 71.0316 143.453 71.1407 142.939 71.3561C142.426 71.5714 141.962 71.8885 141.575 72.288C141.187 72.6877 140.885 73.1618 140.686 73.6815C140.487 74.201 140.395 74.7558 140.416 75.3119Z" fill="white"/>
<path d="M224.888 124.185C225.035 123.931 225.334 123.829 225.558 123.958L243.059 134.063C243.283 134.192 243.344 134.502 243.197 134.757L220.916 173.348C220.705 173.715 220.222 173.728 220.069 173.373L215.339 162.377C215.262 162.2 215.089 162.098 214.897 162.122L203.01 163.523C202.625 163.568 202.396 163.143 202.606 162.777L224.888 124.185Z" fill="#40596B"/>
<path d="M257.316 124.186C257.17 123.931 256.87 123.829 256.648 123.958L239.145 134.063C238.923 134.192 238.861 134.502 239.007 134.757L261.307 173.38C261.518 173.747 262.001 173.76 262.154 173.405L266.881 162.405C266.958 162.227 267.132 162.126 267.323 162.148L279.213 163.555C279.598 163.601 279.827 163.175 279.617 162.81L257.316 124.186Z" fill="#40596B"/>
<path d="M241.088 152.937C258.474 152.937 272.568 138.843 272.568 121.457C272.568 104.071 258.474 89.9766 241.088 89.9766C223.702 89.9766 209.607 104.071 209.607 121.457C209.607 138.843 223.702 152.937 241.088 152.937Z" fill="#FFD15C"/>
<path d="M241.089 144.076C253.581 144.076 263.708 133.949 263.708 121.457C263.708 108.965 253.581 98.8379 241.089 98.8379C228.597 98.8379 218.47 108.965 218.47 121.457C218.47 133.949 228.597 144.076 241.089 144.076Z" fill="#F8B64C"/>
<path d="M239.685 105.662C240.249 104.482 241.928 104.482 242.492 105.662L246.12 113.267C246.347 113.742 246.798 114.07 247.321 114.139L255.674 115.24C256.971 115.411 257.489 117.009 256.541 117.909L250.429 123.71C250.048 124.073 249.876 124.603 249.971 125.121L251.506 133.406C251.744 134.692 250.385 135.679 249.235 135.056L241.831 131.036C241.368 130.785 240.81 130.785 240.346 131.036L232.942 135.056C231.791 135.679 230.432 134.692 230.671 133.406L232.205 125.121C232.301 124.603 232.129 124.073 231.747 123.71L225.636 117.909C224.687 117.009 225.206 115.411 226.503 115.24L234.856 114.139C235.379 114.07 235.829 113.742 236.056 113.267L239.685 105.662Z" fill="white"/>
<path d="M200.046 225.725H163.96L162.902 189.639H198.988L200.046 225.725Z" fill="#F5F5F5"/>
<path d="M252.989 203.971H215.498L215.305 197.232H252.785L252.989 203.971Z" fill="#E0E0E0"/>
<path d="M288.486 203.971H260.917L260.712 197.232H288.293L288.486 203.971Z" fill="#E0E0E0"/>
<path d="M305.194 218.135H215.902L215.711 211.395H305.001L305.194 218.135Z" fill="#E0E0E0"/>
<path d="M201.946 290.473H165.86L164.803 254.375H200.89L201.946 290.473Z" fill="#F5F5F5"/>
<path d="M319.647 276.133H217.611L217.803 282.872H319.84L319.647 276.133Z" fill="#E0E0E0"/>
<path d="M297.04 261.98H217.189L217.394 268.709H297.231L297.04 261.98Z" fill="#E0E0E0"/>
<path d="M171.241 205.041L170.597 204.684C170.313 205.195 170.232 205.794 170.368 206.364C170.505 206.932 170.849 207.429 171.335 207.755H171.337C173.898 209.471 178.264 212.904 180.522 216.605C180.716 216.933 180.99 217.208 181.317 217.406C181.645 217.605 182.018 217.719 182.401 217.739C182.785 217.758 183.167 217.681 183.514 217.516C183.602 217.474 183.688 217.426 183.77 217.373L183.913 217.518L184.414 216.786C188.605 210.679 195.097 204.307 204.289 197.339L204.296 197.333C204.776 196.961 205.089 196.412 205.164 195.809C205.24 195.21 205.077 194.605 204.71 194.125C204.53 193.882 204.307 193.675 204.049 193.519C203.788 193.36 203.498 193.256 203.196 193.21C202.894 193.164 202.587 193.178 202.291 193.251C201.996 193.325 201.719 193.456 201.475 193.637C194.67 198.579 188.49 204.332 183.075 210.767L183.072 210.77C182.994 210.863 182.897 210.938 182.788 210.989C182.678 211.041 182.558 211.067 182.438 211.067C182.317 211.067 182.196 211.041 182.087 210.989C181.977 210.938 181.879 210.863 181.803 210.77L181.791 210.757L181.779 210.743C179.432 208.177 176.783 205.9 173.892 203.966C173.636 203.787 173.347 203.663 173.041 203.6C172.733 203.536 172.415 203.536 172.105 203.601C171.798 203.666 171.506 203.794 171.248 203.975C170.992 204.158 170.774 204.39 170.612 204.66L171.241 205.041Z" fill="#407BFF" stroke="#407BFF"/>
<path d="M185.645 281.237L186.252 281.654C190.441 275.547 196.945 269.174 206.127 262.207C206.368 262.025 206.571 261.795 206.723 261.533C206.876 261.271 206.973 260.979 207.012 260.679C207.05 260.377 207.028 260.07 206.945 259.779C206.864 259.492 206.727 259.222 206.543 258.988C206.365 258.746 206.141 258.543 205.885 258.387C205.624 258.228 205.336 258.124 205.034 258.078C204.732 258.031 204.424 258.045 204.128 258.119C203.834 258.193 203.557 258.324 203.312 258.503C196.507 263.443 190.332 269.196 184.925 275.635L184.922 275.638C184.844 275.731 184.747 275.806 184.638 275.857C184.527 275.909 184.408 275.935 184.287 275.935C184.166 275.935 184.046 275.909 183.937 275.857C183.826 275.806 183.729 275.731 183.652 275.638L183.641 275.623L183.627 275.61C181.271 273.049 178.62 270.775 175.731 268.834C175.476 268.655 175.186 268.529 174.88 268.466C174.569 268.403 174.249 268.404 173.94 268.47C173.631 268.537 173.339 268.668 173.083 268.855C172.827 269.04 172.613 269.277 172.454 269.551L173.09 269.921L172.444 269.571C172.166 270.083 172.089 270.681 172.227 271.248C172.367 271.815 172.712 272.308 173.196 272.635C175.74 274.346 180.053 277.781 182.373 281.489C182.568 281.816 182.839 282.09 183.166 282.285C183.495 282.484 183.867 282.599 184.25 282.618C184.635 282.637 185.016 282.561 185.364 282.396C185.71 282.231 186.01 281.984 186.238 281.674L185.645 281.237Z" fill="#407BFF" stroke="#407BFF"/>
<path d="M269.026 329.433C264.999 329.47 261.08 328.112 257.939 325.59C255.441 323.859 253.133 322.238 248.413 322.238C244.995 322.175 241.675 323.367 239.078 325.59C236.05 328.123 232.214 329.486 228.268 329.433C224.234 329.472 220.312 328.114 217.168 325.59C214.669 323.859 212.363 322.238 207.641 322.238C204.228 322.172 200.91 323.366 198.32 325.59C195.29 328.12 191.455 329.483 187.507 329.433C183.48 329.47 179.562 328.112 176.42 325.59C173.922 323.859 171.614 322.238 166.894 322.238L166.811 319.536C170.843 319.496 174.764 320.855 177.91 323.379C180.589 325.587 183.964 326.774 187.435 326.731C190.849 326.796 194.168 325.603 196.757 323.379C199.803 320.833 203.661 319.469 207.63 319.536C211.659 319.499 215.576 320.856 218.717 323.379C221.216 325.11 223.523 326.731 228.244 326.731C231.656 326.796 234.975 325.603 237.566 323.379C240.611 320.837 244.47 319.474 248.437 319.536C252.469 319.496 256.391 320.855 259.536 323.379C262.036 325.11 264.342 326.731 269.063 326.731L269.026 329.433Z" fill="#E0E0E0"/>
<path d="M286.899 69.3667H286.671C283.896 60.5613 277.241 54.7231 269.974 54.7231H255.174C254.028 54.6801 252.923 54.2826 252.013 53.5854C251.103 52.8883 250.432 51.9259 250.093 50.831C248.111 45.2209 243.245 41.2207 237.659 41.2207C232.073 41.2207 227.424 45.2209 225.731 50.831C225.448 51.9199 224.819 52.8878 223.94 53.5896C223.061 54.2913 221.977 54.689 220.853 54.7231H206.065C198.797 54.7231 192.443 60.5613 190.137 69.3667H189.92C189.497 69.3953 189.085 69.5083 188.707 69.6987C188.33 69.8892 187.994 70.1534 187.718 70.4759C187.445 70.7983 187.237 71.1724 187.11 71.576C186.982 71.9798 186.938 72.4048 186.976 72.8263C186.956 73.6919 187.268 74.5325 187.849 75.1742C188.431 75.8158 189.237 76.2096 190.1 76.2741H287.104C287.526 76.2468 287.939 76.1355 288.317 75.9464C288.696 75.7573 289.033 75.4945 289.308 75.1731C289.584 74.8518 289.791 74.4786 289.921 74.0757C290.049 73.6726 290.096 73.2478 290.059 72.8263C290.083 71.9529 289.766 71.1043 289.177 70.4592C288.588 69.814 287.771 69.4223 286.899 69.3667Z" fill="#263238"/>
<path d="M94.0466 195.922C94.0466 195.922 90.6349 270.677 89.9862 300.949C89.3015 332.446 89.0011 405.989 89.0011 405.989H81.0607C81.0607 405.989 68.3752 344.868 72.1352 300.949C66.4531 267.229 62.6211 195.922 62.6211 195.922H94.0466Z" fill="#FF8B7B"/>
<path d="M83.5358 195.922C83.5358 195.922 64.6036 274.208 56.8673 303.483C48.6986 334.225 37.7189 403.707 37.6469 405.989H30.7754C30.7754 405.989 28.6131 325.719 39.4968 298.426C39.4968 264.227 53.7199 195.922 53.7199 195.922H83.5358Z" fill="#FF8B7B"/>
<path d="M30.6075 401.824C29.298 403.313 28.2049 411.025 30.223 414.461C32.2411 417.897 30.223 422.979 36.8301 422.979C43.4372 422.979 44.0377 421.537 42.416 418.461C40.7943 415.386 38.8121 409.608 38.8843 405.992C38.9563 401.331 40.7463 398.929 30.6075 401.824Z" fill="#263238"/>
<path d="M29.7908 409.859C29.6466 413.824 29.7307 420.297 29.7307 420.297H30.7758C30.7758 420.297 31.5566 413.211 32.2174 410.579L29.7908 409.859Z" fill="#263238"/>
<path d="M100.811 148.1C101.664 154.202 102.421 160.305 103.117 166.419C103.814 172.534 104.499 178.66 105.16 184.835C105.316 186.361 105.436 187.97 105.7 189.243C105.808 189.904 105.94 190.589 106.097 191.322C106.253 192.054 106.373 192.751 106.553 193.46C107.202 196.319 108.031 199.191 108.956 202.061C109.881 204.932 110.77 207.803 111.827 210.651C112.884 213.497 113.941 216.381 115.046 219.155L110.613 221.557C107.149 216.203 104.12 210.579 101.556 204.739C100.263 201.797 99.1246 198.79 98.144 195.73C97.8798 194.973 97.6636 194.169 97.4354 193.388C97.2071 192.606 96.9788 191.814 96.7867 190.985C96.4102 189.419 96.1135 187.836 95.8976 186.24C94.9367 180.114 94.0316 173.979 93.1828 167.836C92.2939 161.698 91.477 155.56 90.7803 149.397L100.811 148.1Z" fill="#FF8B7B"/>
<path d="M99.0698 139.186C101.592 143.907 102.902 162.539 105.016 175.332C105.085 175.784 104.994 176.246 104.759 176.638C104.525 177.03 104.161 177.329 103.731 177.482C100.912 178.604 98.304 180.196 96.0186 182.191C95.7609 182.412 95.4501 182.561 95.1173 182.624C94.7843 182.688 94.4406 182.663 94.1203 182.552C93.7999 182.442 93.5139 182.249 93.2906 181.994C93.0674 181.739 92.9145 181.43 92.8472 181.099L86.8408 153.336L89.4476 148.076C90.091 145.86 91.3257 143.862 93.0188 142.296C94.7119 140.73 96.7995 139.655 99.0578 139.186H99.0698Z" fill="#263238"/>
<path d="M114.852 218.146L123.598 223.059L114.143 226.663C114.143 226.663 109.338 222.519 110.191 218.482L114.852 218.146Z" fill="#FF8B7B"/>
<path d="M126.807 230.771L118.734 233.306L114.145 226.602L123.599 223.059L126.807 230.771Z" fill="#FF8B7B"/>
<path d="M110.997 228.634L203.568 217.715L203.676 218.591L111.262 230.736L110.997 228.634Z" fill="#263238"/>
<path d="M99.9576 142.644C100.114 149.852 99.6693 170.178 94.6118 201.291H52.4589C53.1437 184.834 55.1978 169.216 47.3535 135.581C52.7405 134.484 58.2011 133.785 63.6909 133.491C69.7898 133.058 75.9116 133.058 82.0105 133.491C85.9507 133.851 90.1551 134.488 93.3745 135.04C95.1819 135.351 96.8258 136.278 98.0262 137.665C99.2264 139.051 99.909 140.811 99.9576 142.644Z" fill="#263238"/>
<path opacity="0.2" d="M78.3343 201.436C78.2961 201.428 78.2621 201.405 78.238 201.376C78.214 201.345 78.2013 201.307 78.2022 201.267C82.0463 165.505 78.6706 151.247 78.6346 151.102C78.6271 151.064 78.6338 151.024 78.6539 150.991C78.6739 150.958 78.7055 150.933 78.7427 150.921C78.7617 150.914 78.782 150.911 78.8023 150.912C78.8225 150.914 78.8422 150.921 78.8596 150.932C78.877 150.942 78.8918 150.957 78.9027 150.973C78.9138 150.991 78.9207 151.01 78.9229 151.03C78.9229 151.175 82.3465 165.446 78.5025 201.304C78.5011 201.325 78.4955 201.344 78.4861 201.361C78.4767 201.379 78.4636 201.395 78.4477 201.407C78.4319 201.42 78.4137 201.429 78.3941 201.433C78.3745 201.438 78.3542 201.439 78.3343 201.436Z" fill="white"/>
<path d="M82.011 133.457H63.6914C63.6914 133.457 69.9861 144.028 78.3351 149.602C81.4436 144.83 82.7472 139.105 82.011 133.457Z" fill="#E0E0E0"/>
<path d="M71.6207 107.422C75.7411 114.377 74.0952 122.966 67.9447 126.642C61.7941 130.318 53.5294 127.579 49.3609 120.636C45.1925 113.692 46.8862 105.019 53.0368 101.416C59.1874 97.8116 67.5002 100.454 71.6207 107.422Z" fill="#263238"/>
<path d="M45.7438 115.029C45.5189 111.181 46.7063 107.384 49.0833 104.35C50.1592 102.922 51.5362 101.748 53.1163 100.911C54.6965 100.075 56.4414 99.5958 58.2273 99.5086C60.0132 99.4216 61.7965 99.7283 63.4506 100.407C65.1048 101.086 66.5894 102.12 67.7992 103.437C70.4687 106.236 72.0236 109.914 72.1719 113.78H71.5712C71.43 110.059 69.9348 106.518 67.3668 103.821C66.217 102.564 64.8041 101.577 63.2286 100.929C61.6533 100.28 59.9545 99.9876 58.2531 100.071C56.5518 100.155 54.8897 100.613 53.3857 101.413C51.8817 102.213 50.5726 103.334 49.5518 104.698C47.2459 107.617 46.0879 111.279 46.2963 114.993L45.7438 115.029Z" fill="#263238"/>
<path d="M92.9759 118.468C96.2434 111.721 93.6937 103.734 87.2807 100.628C80.8677 97.5222 73.0199 100.474 69.7524 107.222C66.4847 113.969 69.0346 121.957 75.4476 125.062C81.8606 128.168 89.7082 125.216 92.9759 118.468Z" fill="#263238"/>
<path d="M65.5162 112.842C66.7174 118.728 67.8226 129.527 63.7021 133.456C63.7021 133.456 66.8856 139.69 76.3037 141.865C82.1538 138.261 82.0217 133.456 82.0217 133.456C75.4507 131.882 75.6189 127.017 76.7601 122.44L65.5162 112.842Z" fill="#FF8B7B"/>
<path d="M72.4477 140.651L64.2429 130.98L61.4079 132.482L60.9395 146.465L67.0178 138.488L72.4477 140.651Z" fill="white"/>
<path d="M78.0107 140.65L80.6776 131.953L84.0291 133.455L87.705 145.227L82.2271 138.488L78.0107 140.65Z" fill="white"/>
<path opacity="0.2" d="M70.0935 116.758L76.7486 122.428C76.4626 123.494 76.2737 124.583 76.184 125.683C73.6732 125.323 70.1776 122.56 69.9614 119.929C69.8037 118.873 69.8485 117.797 70.0935 116.758Z" fill="black"/>
<path d="M59.2958 102.03C61.6022 111.64 62.383 115.712 68.1492 119.821C76.8344 125.995 88.0905 121.022 88.691 110.979C89.2317 101.91 85.3636 87.7704 75.2006 85.596C72.9623 85.1061 70.6358 85.1965 68.4421 85.8585C66.2485 86.5206 64.2605 87.7324 62.667 89.379C61.0734 91.0254 59.9271 93.052 59.3371 95.2661C58.747 97.4802 58.7328 99.8085 59.2958 102.03Z" fill="#FF8B7B"/>
<path d="M61.4811 106.45C67.4875 102.846 66.6946 92.0349 66.6946 92.0349C77.0857 91.9028 81.11 92.0349 84.2695 92.4793C87.4288 92.9238 85.4707 88.6953 80.8457 85.2717C76.2208 81.8479 63.6795 82.8691 59.7753 89.4161C54.9702 91.3382 50.3813 102.246 61.4811 106.45Z" fill="#263238"/>
<path d="M53.3232 97.141C53.3232 97.141 87.1393 89.9333 94.2509 87.879C94.2509 83.6385 76.8563 88.8883 76.8563 88.8883L53.3232 97.141Z" fill="white"/>
<path d="M86.4194 87.6258C85.7707 85.2233 80.7855 73.1504 63.5951 78.0996C47.7621 82.7246 53.3241 97.14 53.3241 97.14L86.4194 87.6258Z" fill="white"/>
<path d="M74.7917 77.7146L68.7734 76.2129L61.866 77.4383L61.9501 78.6515L66.4788 79.3843L74.7917 77.7146Z" fill="white"/>
<path opacity="0.4" d="M74.6954 89.8245C74.544 89.8249 74.3981 89.7682 74.2867 89.6659C74.1754 89.5634 74.1068 89.4226 74.0947 89.2718C74.0947 88.8994 73.3379 80.3703 62.6105 78.7246C62.4541 78.698 62.314 78.6118 62.2199 78.484C62.1258 78.3563 62.085 78.1971 62.1059 78.0398C62.1352 77.8849 62.2221 77.7466 62.3491 77.6531C62.4762 77.5595 62.6339 77.5173 62.7906 77.5353C74.4911 79.3373 75.284 89.0917 75.296 89.1877C75.3008 89.2666 75.2901 89.3457 75.2643 89.4205C75.2385 89.4952 75.1983 89.5641 75.1459 89.6233C75.0935 89.6825 75.0298 89.7307 74.9587 89.7651C74.8876 89.7998 74.8103 89.8198 74.7313 89.8245H74.6954Z" fill="black"/>
<path opacity="0.2" d="M90.2141 291.916L70.1286 287.015C69.5761 282.75 69.0716 278.21 68.5791 273.537L90.6827 277.404C90.5024 282.594 90.3463 287.508 90.2141 291.916Z" fill="black"/>
<path opacity="0.2" d="M41.6357 268.84L64.6281 272.853C63.583 277.046 62.5618 281.094 61.6009 284.937L40.4824 279.736C40.8067 276.24 41.1911 272.527 41.6357 268.84Z" fill="black"/>
<path d="M76.2432 102.138C76.3754 102.931 76.9159 103.496 77.4444 103.4C77.9731 103.304 78.2734 102.595 78.1292 101.802C77.9851 101.009 77.4565 100.457 76.928 100.601C76.3994 100.745 76.099 101.346 76.2432 102.138Z" fill="#263238"/>
<path d="M85.1572 100.566C85.2892 101.346 85.8299 101.911 86.3584 101.827C86.8869 101.743 87.1872 101.022 87.043 100.229C86.899 99.4364 86.3703 98.8718 85.8418 99.028C85.3133 99.1841 85.013 99.7727 85.1572 100.566Z" fill="#263238"/>
<path d="M85.6143 99.0508L87.4162 98.1738C87.4162 98.1738 86.7076 99.8195 85.6143 99.0508Z" fill="#263238"/>
<path d="M83.0439 102.33C84.0627 104.007 85.3079 105.535 86.744 106.871C86.3928 107.228 85.9679 107.505 85.499 107.681C85.0303 107.857 84.5285 107.929 84.029 107.892L83.0439 102.33Z" fill="#FF5652"/>
<path d="M79.3078 111.555C79.7589 111.555 80.2092 111.515 80.6532 111.435C80.6833 111.43 80.7123 111.42 80.7383 111.404C80.7644 111.388 80.7871 111.368 80.8051 111.343C80.8229 111.318 80.8357 111.29 80.8426 111.261C80.8495 111.231 80.8506 111.2 80.8454 111.17C80.8336 111.109 80.7981 111.054 80.7464 111.018C80.6949 110.982 80.6311 110.968 80.5691 110.978C79.5919 111.171 78.5831 111.132 77.6235 110.865C76.6639 110.598 75.7802 110.11 75.0431 109.441C75.0018 109.396 74.9443 109.37 74.8835 109.367C74.8227 109.365 74.7635 109.387 74.7189 109.429C74.6742 109.47 74.6479 109.527 74.6457 109.588C74.6435 109.649 74.6654 109.708 74.7068 109.753C75.9448 110.934 77.5972 111.581 79.3078 111.555Z" fill="#263238"/>
<path d="M57.9609 107.496C58.3312 108.372 58.8711 109.165 59.5494 109.831C60.2277 110.497 61.0311 111.022 61.9132 111.376C64.3157 112.313 65.7091 110.283 65.2887 107.929C64.9043 105.814 63.2346 102.763 60.7719 102.823C60.2283 102.837 59.697 102.987 59.227 103.261C58.7571 103.534 58.3638 103.922 58.0834 104.388C57.8031 104.854 57.645 105.383 57.6236 105.926C57.6021 106.47 57.7182 107.01 57.9609 107.496Z" fill="#FF8B7B"/>
<path d="M72.3155 98.548C72.3789 98.5417 72.4405 98.5224 72.4963 98.4913C72.552 98.4604 72.6009 98.4183 72.6399 98.3677C72.9966 97.8975 73.4583 97.5168 73.988 97.2562C74.5175 96.9955 75.1007 96.8619 75.6911 96.8662C75.7527 96.8728 75.815 96.8673 75.8743 96.8496C75.9338 96.8321 75.989 96.8029 76.037 96.7637C76.0852 96.7247 76.1249 96.6764 76.1542 96.6218C76.1836 96.5673 76.2017 96.5073 76.2077 96.4458C76.2177 96.3202 76.178 96.1956 76.0971 96.099C76.0163 96.0024 75.9007 95.9414 75.7752 95.9292C75.029 95.9108 74.2891 96.07 73.6166 96.3938C72.944 96.7175 72.358 97.1964 71.9071 97.7912C71.8316 97.8894 71.7969 98.0128 71.8105 98.1359C71.8239 98.2591 71.8843 98.3723 71.9791 98.4518C72.0762 98.523 72.1954 98.5571 72.3155 98.548Z" fill="#263238"/>
<path d="M86.8154 95.6281C86.9302 95.5901 87.0254 95.5079 87.0797 95.3998C87.1083 95.344 87.1254 95.2831 87.1299 95.2206C87.1345 95.158 87.1264 95.0951 87.1062 95.0358C87.086 94.9765 87.0542 94.9217 87.0126 94.8748C86.9709 94.828 86.9201 94.7902 86.8635 94.7632C86.2005 94.4208 85.4652 94.2422 84.7192 94.2422C83.9731 94.2422 83.2378 94.4208 82.5749 94.7632C82.4679 94.8282 82.3905 94.9323 82.3591 95.0533C82.3277 95.1745 82.3448 95.3032 82.4067 95.4119C82.4378 95.4661 82.4793 95.5135 82.5289 95.5514C82.5785 95.5892 82.6352 95.6169 82.6956 95.6325C82.7561 95.6481 82.819 95.6517 82.8809 95.6427C82.9426 95.6336 83.0019 95.6123 83.0554 95.5801C83.5808 95.3084 84.1637 95.1666 84.7553 95.1666C85.3467 95.1666 85.9297 95.3084 86.455 95.5801C86.5077 95.6146 86.5674 95.6368 86.6298 95.645C86.6921 95.6534 86.7556 95.6475 86.8154 95.6281Z" fill="#263238"/>
<path d="M76.7002 100.623L78.5021 99.7461C78.5021 99.7461 77.7933 101.392 76.7002 100.623Z" fill="#263238"/>
<path d="M94.6114 201.291L92.8816 284.937L38.9562 277.248C36.7939 233.51 44.3618 210.553 52.4585 201.291H94.6114Z" fill="#263238"/>
<path opacity="0.2" d="M80.4599 250.23L67.6182 234.782V222.59L80.4599 250.23Z" fill="black"/>
<path d="M52.6392 146.393C51.0295 151.198 49.4799 156.22 48.0143 161.132C46.5487 166.047 45.2514 171.055 44.2063 175.993C43.7137 178.395 43.2331 180.918 43.005 183.309V183.766V183.981C43.005 184.053 43.005 183.981 43.005 183.981C42.9782 184.15 43.0078 184.324 43.0891 184.474C43.4417 185.222 43.9304 185.898 44.5305 186.468C46.1555 188.085 47.9567 189.516 49.9003 190.733C51.9664 192.054 54.237 193.328 56.4233 194.469L54.8857 199.274C52.1389 198.749 49.4422 197.989 46.8251 197.003C44.0284 195.987 41.3879 194.584 38.9807 192.834C37.5267 191.75 36.2779 190.416 35.2927 188.895C34.6767 187.913 34.2339 186.832 33.9834 185.699C33.8482 185.072 33.7797 184.431 33.7791 183.789V183.068V182.527C33.8632 181.111 33.9834 179.692 34.1515 178.323C34.3197 176.953 34.5238 175.584 34.7281 174.227C35.6355 168.896 36.8143 163.617 38.2598 158.407C38.9406 155.812 39.6895 153.236 40.5062 150.682C41.3112 148.123 42.116 145.612 43.065 143.018L52.6392 146.393Z" fill="#FF8B7B"/>
<path d="M83.8491 179.632L77.3622 174.84L62.5023 197.076L45.5762 217.785L52.0752 222.591L66.9229 200.342L83.8491 179.632Z" fill="#FAFAFA"/>
<path d="M77.3486 174.84C78.8123 177.221 81.1416 178.943 83.8476 179.645C82.3839 177.262 80.0548 175.541 77.3486 174.84Z" fill="#E6E6E6"/>
<path d="M45.5762 217.787C47.0398 220.168 49.3692 221.891 52.0752 222.592C50.6115 220.211 48.2823 218.488 45.5762 217.787Z" fill="#E6E6E6"/>
<path d="M55.3172 194.109L66.0207 194.818L59.0173 202.085C59.0173 202.085 52.8667 200.429 51.9297 196.416L55.3172 194.109Z" fill="#FF8B7B"/>
<path d="M69.4934 200.451L66.4782 204.704C66.214 205.072 65.823 205.331 65.38 205.431C64.9369 205.531 64.4727 205.464 64.0757 205.244L57.5166 201.568L66.0458 194.828L69.3013 198.047C69.6129 198.361 69.8033 198.773 69.8385 199.214C69.8737 199.654 69.7514 200.093 69.4934 200.451Z" fill="#FF8B7B"/>
<path d="M56.0387 144.446C55.2819 139.797 51.8101 137.059 47.3534 135.545C40.7944 140.29 37.5871 155.967 33.9592 174.25C33.8648 174.779 33.9508 175.325 34.2035 175.8C34.456 176.275 34.8607 176.651 35.3526 176.869C38.2237 178.07 40.6743 179.272 42.32 180.041C42.6065 180.185 42.9199 180.269 43.2402 180.287C43.5606 180.303 43.8812 180.254 44.1815 180.141C44.4819 180.028 44.7555 179.854 44.9851 179.63C45.2147 179.406 45.3954 179.137 45.5154 178.839L57.24 149.744L56.0387 144.446Z" fill="#263238"/>
<path d="M104.102 421.018C102.883 420.131 101.528 419.45 100.089 419C100.089 419 92.9778 414.976 89.2779 402.903L81.061 400.848C80.8566 400.798 80.6437 400.791 80.4365 400.828C80.2291 400.866 80.0321 400.947 79.8585 401.066C79.6847 401.186 79.5383 401.34 79.4288 401.52C79.3192 401.7 79.2492 401.901 79.2232 402.11C79.1391 402.758 79.0909 403.504 79.0068 404.104C78.9288 405.412 78.9288 406.724 79.0068 408.032C79.079 412.105 79.5355 421.246 79.5355 421.246H80.4964C80.4964 418.464 80.6649 415.684 81.001 412.921C81.4696 410.231 83.4036 413.415 84.4367 416.453C85.4697 419.492 89.7824 422.748 95.9931 422.893C103.261 423.109 106.216 422.784 104.102 421.018Z" fill="#263238"/>
</svg>
