<svg width="47" height="41" viewBox="0 0 47 41" fill="none" xmlns="http://www.w3.org/2000/svg">
<path d="M0.0122002 24.4891C0.244004 23.1132 0.62221 21.7728 1.29322 20.5274C2.84265 17.6925 5.19729 15.6761 8.12533 14.2528C10.1872 13.2446 12.3832 12.6633 14.689 12.4854C15.1282 12.4498 15.2136 12.2482 15.2624 11.9161C15.6529 8.80842 17.1413 6.24638 19.4715 4.14693C21.936 1.92887 24.864 0.624125 28.1947 0.185257C33.3797 -0.502699 38.0646 0.719016 42.1151 3.95715C44.6893 6.00916 46.3608 8.61864 46.8244 11.8805C46.8366 11.9398 46.861 11.9991 46.8732 12.0466C46.8732 12.9362 46.8732 13.8258 46.8732 14.7154C46.6658 16.0082 46.3364 17.2655 45.7629 18.4517C45.2383 19.5429 44.5795 20.563 43.7499 21.4644C43.3961 21.844 43.2497 22.2473 43.2253 22.7455C43.1277 24.3467 43.6279 25.7226 44.7503 26.8851C45.0675 27.2053 45.1773 27.573 44.9943 27.9882C44.8113 28.4152 44.4575 28.5456 43.9939 28.5456C41.5417 28.5338 39.4066 27.7272 37.5522 26.1852C37.235 25.9243 36.9666 25.8531 36.564 25.9717C35.1366 26.4225 33.6603 26.6241 32.1719 26.7309C31.7571 26.7546 31.6595 26.9562 31.6229 27.2765C31.4643 28.7591 31.0129 30.1469 30.2809 31.4517C28.1581 35.2591 24.8152 37.5484 20.5939 38.6752C17.1657 39.5766 13.7496 39.375 10.358 38.4498C9.93096 38.3312 9.63816 38.3905 9.29655 38.6752C7.44212 40.2053 5.29489 41 2.84265 41C2.40344 41 2.06183 40.8577 1.89103 40.4425C1.73243 40.0511 1.80563 39.6953 2.11063 39.375C3.28185 38.1652 3.78206 36.7181 3.64786 35.0575C3.62346 34.6779 3.51366 34.3458 3.24525 34.0493C1.48842 32.104 0.390406 29.8741 0.0488008 27.2883C0.0488008 27.2409 0.0244004 27.2053 0 27.1579C0.0122002 26.2683 0.0122002 25.3787 0.0122002 24.4891ZM16.2629 37.3349C16.7875 37.24 17.4585 37.2874 18.1295 37.2044C21.57 36.7418 24.559 35.3896 26.9014 32.8631C29.3537 30.2062 30.2931 27.0986 29.5123 23.5995C28.7925 20.3969 26.7794 18.084 23.949 16.4115C20.5939 14.4307 16.9461 13.9088 13.1274 14.5967C9.44295 15.261 6.3319 16.9334 4.03827 19.8632C2.37904 21.9863 1.64703 24.3823 1.97643 27.0392C2.25704 29.281 3.23305 31.2381 4.79468 32.8987C5.07528 33.1953 5.31929 33.5037 5.41689 33.9069C5.77069 35.4252 5.64869 36.9079 5.06308 38.3549C5.01428 38.4735 4.86788 38.604 4.97768 38.7226C5.09968 38.8531 5.27049 38.7226 5.40469 38.6752C6.66131 38.2482 7.75933 37.5839 8.67434 36.635C9.06475 36.2318 9.49175 36.1369 10.0408 36.3385C12.005 37.0502 14.0546 37.2756 16.2629 37.3349ZM26.9136 16.0675C26.9624 16.1624 26.9746 16.198 26.999 16.2099C27.0356 16.2573 27.0844 16.2929 27.1332 16.3285C29.6099 18.4754 31.1959 21.1086 31.6107 24.3467C31.6595 24.7144 31.8181 24.8568 32.2085 24.8212C33.7336 24.6788 35.2342 24.4772 36.6738 23.9316C37.357 23.6706 37.845 23.7893 38.3452 24.2993C39.248 25.2363 40.3583 25.865 41.6271 26.2564C41.7247 26.2801 41.8467 26.375 41.9199 26.2564C41.9565 26.209 41.9077 26.0903 41.8711 26.0073C41.5783 25.3549 41.3709 24.667 41.3099 23.9553C41.2001 22.5675 41.1391 21.1798 42.3591 20.1241C42.4689 20.0292 42.5543 19.8987 42.6519 19.7801C44.4331 17.5383 45.2505 15 44.9089 12.1652C44.6039 9.87594 43.5059 7.93069 41.8589 6.28197C38.821 3.25733 35.0268 1.91701 30.7445 1.8577C28.6461 1.83398 26.5842 2.2254 24.6566 3.07942C20.6915 4.84675 17.9831 7.62229 17.1901 11.9279C17.1291 12.2719 17.1535 12.438 17.5805 12.4736C19.6423 12.6633 21.631 13.1378 23.5098 14.0155C23.827 14.1579 24.132 14.229 24.4736 14.229C29.0365 14.2172 33.5871 14.229 38.15 14.229C38.3452 14.229 38.5526 14.2172 38.7478 14.2409C39.2236 14.2765 39.553 14.6323 39.5774 15.0949C39.6018 15.7117 39.2114 16.0675 38.5038 16.0675C34.8316 16.0675 31.1593 16.0675 27.487 16.0675C27.304 16.0675 27.1454 16.0675 26.9136 16.0675Z" fill="#0B5BC5"/>
<path d="M15.8109 30.3015C13.3221 30.3015 10.8455 30.3015 8.35662 30.3015C7.67341 30.3015 7.283 29.9457 7.2952 29.3526C7.3074 28.8545 7.66121 28.4868 8.18581 28.463C8.66162 28.4512 9.12523 28.4512 9.60104 28.4512C14.1517 28.4512 18.7146 28.4512 23.2653 28.4512C23.9729 28.4512 24.3633 28.7714 24.3755 29.3526C24.3877 29.9101 24.0095 30.2778 23.3995 30.2897C22.1184 30.3015 20.8374 30.2897 19.5564 30.2897C18.312 30.3015 17.0676 30.3015 15.8109 30.3015Z" fill="#0B5BC5"/>
<path d="M17.6662 24.9635C15.7629 24.9635 13.8597 24.9635 11.9565 24.9635C11.2123 24.9635 10.7609 24.3349 11.0293 23.6943C11.2123 23.2555 11.5905 23.125 12.0663 23.125C14.7137 23.1369 17.3612 23.125 20.0208 23.125C21.131 23.125 22.2412 23.125 23.3515 23.125C24.0103 23.125 24.3885 23.469 24.3885 24.0502C24.3885 24.6195 23.9981 24.9635 23.3393 24.9635C21.4482 24.9635 19.5572 24.9635 17.6662 24.9635Z" fill="#0B5BC5"/>
<path d="M9.18791 24.0502C9.18791 24.5839 8.7853 24.9635 8.23629 24.9635C7.68728 24.9635 7.29688 24.5721 7.29688 24.0383C7.29688 23.5046 7.69948 23.125 8.24849 23.125C8.8097 23.125 9.20011 23.5046 9.18791 24.0502Z" fill="#0B5BC5"/>
<path d="M32.8546 10.7291C30.9514 10.7291 29.0481 10.741 27.1449 10.7291C26.3641 10.7291 25.9005 10.0293 26.2543 9.37694C26.4373 9.04482 26.7179 8.89062 27.1083 8.89062C30.9514 8.89062 34.7822 8.89062 38.6253 8.89062C39.1987 8.89062 39.5769 9.27019 39.5769 9.81581C39.5769 10.3496 39.1987 10.7291 38.6253 10.7291C36.6977 10.7291 34.77 10.7291 32.8546 10.7291Z" fill="#0B5BC5"/>
<path d="M23.4487 10.7291C22.8997 10.7291 22.4971 10.3496 22.4971 9.81581C22.4971 9.27019 22.8753 8.89062 23.4365 8.89062C23.9855 8.89062 24.3881 9.27019 24.3881 9.80395C24.3881 10.3377 23.9977 10.7173 23.4487 10.7291Z" fill="#0B5BC5"/>
</svg>
