<svg width="47" height="43" viewBox="0 0 47 43" fill="none" xmlns="http://www.w3.org/2000/svg">
<path d="M46.9878 31.9586C46.5965 33.1202 45.8507 33.8905 44.6158 34.135C44.3835 34.1839 44.1267 34.1839 43.8822 34.1839C39.4927 34.1839 35.1155 34.1839 30.7261 34.1839C30.1025 34.1839 30.1025 34.1839 30.2003 34.7953C30.3593 35.7123 30.5304 36.6293 30.6649 37.5463C30.7138 37.9131 30.885 37.9987 31.2029 37.9987C31.5942 37.9865 31.9977 37.962 32.3889 38.0598C33.4649 38.3288 34.1618 39.2581 34.064 40.3218C33.9662 41.3855 33.0736 42.2292 31.9732 42.2536C31.313 42.2781 30.6649 42.2536 30.0047 42.2536C25.0895 42.2536 20.1621 42.2536 15.2469 42.2536C14.1831 42.2536 13.3762 41.7279 13.0583 40.8231C12.5814 39.4659 13.5351 38.0721 14.9901 37.9865C15.2958 37.9742 15.6015 37.9742 15.9071 37.9865C16.1761 37.9987 16.2862 37.8764 16.3228 37.6197C16.4818 36.6293 16.653 35.6389 16.8364 34.6485C16.9097 34.294 16.7752 34.1839 16.4329 34.1961C15.2591 34.2084 14.0853 34.1961 12.8993 34.1961C12.7159 34.1961 12.5325 34.2084 12.3613 34.1228C12.0679 33.9883 11.9089 33.7682 11.9089 33.4381C11.9212 33.1202 12.0801 32.8879 12.3736 32.7656C12.6303 32.6556 12.9116 32.68 13.1928 32.68C23.4144 32.68 33.6361 32.6678 43.8577 32.6922C45.1171 32.6922 45.5939 31.8364 45.5572 30.9071C45.545 30.6381 45.4716 30.5036 45.1904 30.5281C45.0682 30.5403 44.9459 30.5281 44.8236 30.5281C30.5916 30.5281 16.3717 30.5281 2.1397 30.5281C1.36941 30.5281 1.30827 30.6137 1.44277 31.384C1.58949 32.2521 2.10302 32.6922 2.98335 32.6922C4.98855 32.6922 6.98153 32.6922 8.98673 32.6922C9.18236 32.6922 9.39022 32.6922 9.57362 32.7411C9.97711 32.8267 10.2461 33.1813 10.185 33.5359C10.1238 33.9272 9.87929 34.1595 9.47581 34.1961C9.36577 34.2084 9.26795 34.2084 9.15791 34.2084C7.09157 34.2084 5.03746 34.2084 2.97112 34.2084C1.23491 34.1839 0 32.9368 0 31.1761C0 21.7981 0 12.4079 0 3.02991C0 1.30592 1.24714 0.022102 2.9589 0.022102C12.5692 0.00987518 22.1795 0.022102 31.7898 0.022102C31.9243 0.022102 32.071 0.022102 32.1933 0.0587826C32.5601 0.156597 32.7802 0.401134 32.7802 0.780167C32.7802 1.17143 32.5601 1.41596 32.1933 1.50155C31.9854 1.55046 31.7654 1.53823 31.5575 1.53823C22.1184 1.53823 12.667 1.53823 3.22789 1.53823C1.98075 1.53823 1.44277 2.07621 1.44277 3.31112C1.44277 11.6865 1.44277 20.0619 1.43054 28.4373C1.43054 28.8652 1.54058 29.0242 1.99298 29.012C16.3473 28.9997 30.6894 28.9997 45.0437 29.012C45.4594 29.012 45.5939 28.8897 45.5939 28.4617C45.5817 20.0741 45.5817 11.6865 45.5939 3.28667C45.5939 2.18625 45.0193 1.48932 43.8332 1.51378C41.1556 1.56268 38.4901 1.526 35.8124 1.526C35.6779 1.526 35.5312 1.526 35.3967 1.526C34.8954 1.50155 34.5775 1.20811 34.5653 0.792393C34.5531 0.352227 34.8832 0.022102 35.409 0.022102C38.3556 0.00987518 41.3145 -0.0268054 44.2612 0.0343289C45.6673 0.0587826 46.5476 0.926889 47 2.23516C46.9878 12.1511 46.9878 22.0549 46.9878 31.9586ZM23.5245 40.7375C26.1655 40.7375 28.8065 40.7375 31.4475 40.7375C31.5819 40.7375 31.7164 40.7375 31.8632 40.7375C32.3278 40.7253 32.5601 40.5297 32.5601 40.1384C32.5723 39.7227 32.3278 39.527 31.8387 39.5026C31.7042 39.5026 31.5697 39.5026 31.423 39.5026C30.1514 39.5026 28.892 39.5026 27.6204 39.5026C27.0458 39.5026 26.7034 39.2092 26.6912 38.769C26.679 38.3044 27.0336 38.0109 27.6327 37.9987C28.0239 37.9865 28.4274 37.9865 28.8187 37.9987C29.1244 38.0109 29.2222 37.9253 29.161 37.6074C28.9654 36.6048 28.7942 35.6022 28.6353 34.5874C28.5864 34.2817 28.4519 34.1839 28.1584 34.1961C25.0406 34.2084 21.9227 34.2084 18.8049 34.1961C18.5359 34.1961 18.4014 34.2695 18.3525 34.5629C18.1935 35.5533 18.0224 36.5437 17.8267 37.5341C17.7534 37.9009 17.8512 38.0109 18.2302 37.9987C20.0887 37.9865 21.9594 37.9865 23.8179 37.9865C24.5637 37.9865 24.9672 38.2677 24.955 38.7568C24.9428 39.2336 24.5515 39.4904 23.8301 39.4904C21.0302 39.4904 18.2425 39.4904 15.4425 39.4904C15.2713 39.4904 15.1002 39.4781 14.9412 39.5026C14.6111 39.5515 14.4399 39.7594 14.4277 40.1017C14.4277 40.4441 14.5989 40.6519 14.929 40.7131C15.0757 40.7375 15.2347 40.7253 15.3814 40.7253C18.1202 40.7375 20.8223 40.7375 23.5245 40.7375Z" fill="#1A73E8"/>
<path d="M33.379 24.0962C33.6846 23.5215 33.9536 22.9958 34.2226 22.47C34.9562 21.0273 35.6898 19.5845 36.4112 18.1417C36.5946 17.7872 36.7903 17.457 37.2427 17.457C37.6828 17.457 37.8662 17.7872 38.0374 18.1173C38.5876 19.1932 39.1378 20.257 39.6758 21.3452C39.8225 21.6508 40.0059 21.7731 40.3483 21.7487C40.9474 21.7242 41.5343 21.7364 42.1334 21.7487C42.6102 21.7487 42.9281 22.0299 42.9526 22.4334C42.977 22.8246 42.6836 23.1547 42.2068 23.2036C41.3142 23.277 40.4094 23.2526 39.5046 23.2159C39.0889 23.2037 38.8321 22.9958 38.661 22.629C38.2819 21.8587 37.8907 21.1006 37.4994 20.3426C37.4261 20.2081 37.4016 20.0491 37.206 19.9391C36.9248 20.4648 36.6558 20.9784 36.3868 21.5041C35.7021 22.8368 35.0296 24.1696 34.3571 25.5145C34.2838 25.649 34.2226 25.7835 34.1493 25.918C33.9903 26.2359 33.7825 26.4804 33.3912 26.4804C32.9877 26.4804 32.7921 26.2237 32.6331 25.918C31.8751 24.4386 31.1292 22.9469 30.3589 21.4674C30.2611 21.284 30.2489 20.9784 30.0166 20.9784C29.8454 20.9784 29.7965 21.284 29.7109 21.4552C29.5153 21.8342 29.3074 22.2133 29.1363 22.6045C28.9651 22.9958 28.6839 23.2159 28.2559 23.2159C27.4 23.2159 26.5442 23.2403 25.6883 23.2159C25.1014 23.1914 24.8446 22.9102 24.8569 22.4578C24.8691 21.981 25.1625 21.7609 25.7861 21.7609C26.3485 21.7609 26.9232 21.7487 27.4856 21.7609C27.8158 21.7731 27.9869 21.6508 28.1214 21.3574C28.4882 20.5871 28.8917 19.829 29.2708 19.071C29.4297 18.7408 29.6376 18.4596 30.0533 18.4596C30.469 18.4596 30.6646 18.7408 30.8358 19.071C31.6061 20.5993 32.3886 22.1155 33.1589 23.6438C33.1956 23.7661 33.2689 23.9006 33.379 24.0962Z" fill="#1A73E8"/>
<path d="M42.9657 10.2688C42.9657 11.6749 42.9657 13.081 42.9657 14.4871C42.9657 15.2207 42.7334 15.5019 41.9998 15.5264C40.9483 15.5508 39.8968 15.5508 38.8453 15.5264C38.1361 15.5019 37.8916 15.2207 37.8916 14.5238C37.8916 11.6627 37.8916 8.81384 37.8916 5.95276C37.8916 5.2436 38.1606 4.97461 38.8575 4.97461C39.909 4.97461 40.9605 4.97461 42.0243 4.97461C42.6968 4.97461 42.978 5.25583 42.978 5.91608C42.978 7.37107 42.9657 8.81384 42.9657 10.2688ZM41.4618 10.2933C41.4618 9.19287 41.4496 8.09246 41.4741 6.99204C41.4863 6.58855 41.3396 6.44183 40.9483 6.47851C40.5693 6.50297 40.1902 6.49074 39.799 6.47851C39.5422 6.47851 39.4077 6.5641 39.4077 6.84532C39.4077 9.11951 39.4077 11.3937 39.4077 13.6801C39.4077 13.9613 39.53 14.0592 39.799 14.0469C40.2147 14.0347 40.6304 14.0225 41.0339 14.0469C41.3763 14.0714 41.4863 13.9247 41.4741 13.5945C41.4496 12.4941 41.4618 11.3937 41.4618 10.2933Z" fill="#1A73E8"/>
<path d="M29.8575 11.1477C29.8575 12.297 29.8575 13.4341 29.8575 14.5834C29.8575 15.207 29.6496 15.476 29.026 15.5004C27.9134 15.5371 26.8008 15.5371 25.6881 15.5127C25.0401 15.5004 24.82 15.2314 24.7956 14.5345C24.7711 13.6786 24.7833 12.8228 24.7833 11.9669C24.7833 10.6219 24.7833 9.27697 24.7833 7.93202C24.7833 7.01501 25.0156 6.79492 25.9082 6.79492C26.9353 6.79492 27.9501 6.79492 28.9771 6.79492C29.5885 6.79492 29.8452 7.05169 29.8452 7.66303C29.8697 8.82458 29.8575 9.98613 29.8575 11.1477ZM26.2872 11.1844C26.2872 12.0036 26.2872 12.835 26.2872 13.6542C26.2872 13.9232 26.3728 14.0454 26.654 14.0332C27.0942 14.021 27.5344 14.021 27.9868 14.0332C28.2313 14.0332 28.3658 13.9599 28.3658 13.6909C28.3658 12.0158 28.3658 10.3285 28.3658 8.6534C28.3658 8.37218 28.2191 8.27437 27.9623 8.2866C27.5833 8.2866 27.192 8.31105 26.813 8.2866C26.4217 8.26214 26.2628 8.39664 26.275 8.80012C26.3117 9.59487 26.2872 10.3896 26.2872 11.1844Z" fill="#1A73E8"/>
<path d="M36.4593 12.1255C36.4593 12.9325 36.4715 13.7395 36.4593 14.5465C36.4471 15.1823 36.2148 15.4757 35.6034 15.4879C34.4785 15.5246 33.3414 15.5124 32.2166 15.4879C31.6175 15.4635 31.3851 15.17 31.3851 14.5587C31.3729 12.9203 31.3729 11.2941 31.3851 9.65572C31.3851 9.01992 31.6664 8.72648 32.3022 8.71425C33.3903 8.70202 34.4663 8.70202 35.5545 8.71425C36.1536 8.72648 36.4471 9.03215 36.4593 9.63126C36.4593 10.4749 36.4471 11.3063 36.4593 12.1255ZM34.9432 12.1622C34.9432 11.6487 34.9432 11.1229 34.9432 10.6094C34.9432 10.3649 34.8453 10.2426 34.5886 10.2548C34.1484 10.2671 33.7082 10.2671 33.2559 10.2548C32.9869 10.2426 32.8646 10.3526 32.8646 10.6216C32.8768 11.6487 32.8768 12.6635 32.8646 13.6906C32.8646 13.9351 32.9624 14.0574 33.2192 14.0452C33.6593 14.0329 34.0995 14.0329 34.5519 14.0452C34.8698 14.0574 34.9432 13.9107 34.9432 13.6294C34.9309 13.1404 34.9432 12.6513 34.9432 12.1622Z" fill="#1A73E8"/>
<path d="M12.5942 20.0122C15.0518 20.0122 17.5094 20.0122 19.9792 20.0122C20.1504 20.0122 20.3216 20 20.4805 20.0245C20.8595 20.0856 21.0919 20.3301 21.1163 20.7092C21.1408 21.0637 20.9451 21.3083 20.615 21.4428C20.4194 21.5161 20.2237 21.5161 20.0281 21.5161C15.0762 21.5161 10.1244 21.5161 5.1725 21.5161C4.45112 21.5161 4.07208 21.2594 4.05986 20.7703C4.04763 20.2568 4.42666 20 5.18473 20C7.65455 20 10.1244 20.0122 12.5942 20.0122Z" fill="#1A73E8"/>
<path d="M12.5932 4.97376C15.063 4.97376 17.5451 4.97376 20.0149 4.97376C20.1616 4.97376 20.3206 4.96153 20.4673 4.98599C20.8463 5.04712 21.0786 5.29166 21.1031 5.65846C21.1275 6.01304 20.9319 6.25758 20.6018 6.4043C20.4184 6.47766 20.2105 6.47766 20.0149 6.47766C15.063 6.47766 10.1111 6.47766 5.1715 6.47766C4.97587 6.47766 4.78024 6.47766 4.58461 6.41653C4.23003 6.28203 4.02218 6.0375 4.05886 5.65846C4.09554 5.27943 4.34007 5.05935 4.70688 4.99821C4.8536 4.97376 5.01255 4.98599 5.15927 4.98599C7.64132 4.97376 10.1234 4.97376 12.5932 4.97376Z" fill="#1A73E8"/>
<path d="M12.6418 12.7633C15.0994 12.7633 17.557 12.7633 20.0146 12.7633C20.1858 12.7633 20.3569 12.7511 20.5159 12.7878C20.8705 12.8611 21.0906 13.0935 21.115 13.448C21.1395 13.8026 20.9561 14.0716 20.6137 14.1816C20.3936 14.2428 20.1613 14.255 19.9412 14.255C15.0505 14.255 10.172 14.255 5.28124 14.255C5.04893 14.255 4.81662 14.2428 4.59653 14.1816C4.22973 14.0838 4.0341 13.8026 4.07078 13.4236C4.10746 13.0568 4.33977 12.8122 4.7188 12.7633C4.91443 12.7389 5.11006 12.7511 5.31792 12.7511C7.75106 12.7633 10.1964 12.7633 12.6418 12.7633Z" fill="#1A73E8"/>
<path d="M9.63446 8.62899C11.175 8.62899 12.7156 8.62899 14.2684 8.62899C14.8431 8.62899 15.161 8.8613 15.1854 9.30147C15.2221 9.75386 14.9165 10.084 14.3296 10.1084C13.6571 10.1451 12.9846 10.1207 12.3121 10.1207C9.98904 10.1207 7.66594 10.1207 5.34284 10.1207C5.14721 10.1207 4.93935 10.1207 4.74372 10.084C4.30355 10.0106 4.02234 9.69272 4.03456 9.31369C4.05902 8.91021 4.37691 8.62899 4.85376 8.61676C6.34544 8.60454 7.84934 8.61676 9.34101 8.61676C9.45106 8.62899 9.53664 8.62899 9.63446 8.62899Z" fill="#1A73E8"/>
<path d="M15.552 17.8602C13.9625 17.8602 12.373 17.8602 10.7835 17.8602C10.3066 17.8602 10.001 17.5668 10.001 17.1511C10.001 16.7231 10.2944 16.4419 10.7713 16.4297C10.9058 16.4297 11.0403 16.4297 11.187 16.4297C13.9869 16.4297 16.7747 16.4297 19.5746 16.4297C19.7702 16.4297 19.9659 16.4297 20.1737 16.4297C20.7851 16.4297 21.1396 16.6987 21.1274 17.1633C21.1152 17.6157 20.7728 17.8725 20.1859 17.8725C18.6454 17.8602 17.1048 17.8602 15.552 17.8602Z" fill="#1A73E8"/>
<path d="M8.42487 25.1122C7.26332 25.1122 6.10177 25.1122 4.95245 25.1122C4.40224 25.1122 4.07211 24.8432 4.05989 24.4153C4.04766 23.9629 4.39001 23.6816 4.96467 23.6816C7.32445 23.6816 9.69646 23.6816 12.0562 23.6816C12.4353 23.6816 12.7043 23.8161 12.8388 24.1829C12.9488 24.5008 12.8388 24.7454 12.6065 24.9655C12.4353 25.1244 12.2152 25.1244 12.0073 25.1244C10.7969 25.1122 9.61088 25.1122 8.42487 25.1122Z" fill="#1A73E8"/>
<path d="M18.9764 8.63043C19.4288 8.63043 19.8934 8.61821 20.3458 8.63043C20.786 8.64266 21.0917 8.93611 21.1161 9.31514C21.1406 9.66972 20.8716 10.0365 20.4681 10.0732C19.4777 10.1588 18.4873 10.171 17.5092 10.0732C17.0813 10.0243 16.8612 9.7064 16.8856 9.31514C16.9101 8.93611 17.2035 8.65489 17.6192 8.64266C18.0716 8.63043 18.524 8.64266 18.9764 8.63043Z" fill="#1A73E8"/>
<path d="M6.18593 17.8616C5.73353 17.8616 5.26891 17.8738 4.81652 17.8616C4.36413 17.8494 4.034 17.5315 4.04623 17.128C4.05845 16.7367 4.36413 16.431 4.80429 16.431C5.72131 16.4188 6.63832 16.4188 7.54311 16.431C8.00773 16.431 8.3134 16.7489 8.30117 17.1647C8.28894 17.5681 7.9955 17.8494 7.55533 17.8616C7.10294 17.8738 6.65055 17.8616 6.18593 17.8616Z" fill="#1A73E8"/>
</svg>
