<svg width="48" height="53" viewBox="0 0 48 53" fill="none" xmlns="http://www.w3.org/2000/svg">
<path d="M27.4153 52.1299C27.021 51.8933 26.7844 51.5779 26.9421 51.1047C27.0998 50.6315 27.4942 50.5527 27.9673 50.5527C28.3617 50.5527 28.756 50.5527 29.2292 50.5527C28.6771 49.212 28.8348 48.029 29.9389 47.0038C29.308 46.3729 28.9137 45.5842 28.9137 44.6379C28.9137 43.6915 29.308 42.9817 29.9389 42.2719C28.6771 40.9313 28.3617 39.0385 29.9389 37.4613C28.756 36.1994 28.5982 34.8587 29.3869 33.3603C28.8348 32.966 28.2039 32.7294 27.7307 32.2562C26.3112 30.9944 25.838 29.4171 26.1535 27.6033C26.3112 26.6569 26.5478 25.7105 26.7055 24.7642C26.9421 23.3446 26.3112 21.8462 25.1282 21.1364C24.5762 20.821 24.2607 20.8998 24.0241 21.5307C23.551 22.9503 23.0778 24.3698 22.6046 25.7894C22.4469 26.1837 22.2891 26.4992 21.816 26.4992C21.2639 26.4992 20.8696 26.026 21.1062 25.4739C21.6582 23.8178 22.1314 22.1617 22.7623 20.5844C23.1566 19.5591 24.4973 19.086 25.5226 19.5591C27.4153 20.4266 28.5982 22.7137 28.2828 24.843C28.1251 25.9471 27.8885 27.0512 27.6519 28.1553C27.3364 30.048 28.8348 31.7831 30.7276 31.8619C33.1724 31.8619 35.5383 31.8619 37.9831 31.8619C39.6392 31.8619 40.5067 32.8083 40.5067 34.3856C40.5067 35.1742 40.5067 35.9628 40.5067 36.7515C42.2417 37.619 42.3206 39.1963 41.8474 41.2467C41.6897 41.8776 41.3742 42.1931 40.4278 42.7451C40.4278 43.6126 40.5067 44.4013 40.5067 45.2688C40.5067 46.0574 40.1124 46.7672 39.4815 47.1615C39.2449 47.3192 39.2449 47.477 39.2449 47.7136C39.3237 48.5022 39.4026 49.3697 39.2449 50.1583C39.166 51.1047 38.4562 51.5779 37.5887 51.8933C34.1187 52.1299 30.8064 52.1299 27.4153 52.1299ZM35.696 41.5622C36.9578 41.5622 38.1408 41.5622 39.4026 41.5622C40.0335 41.5622 40.4278 41.1679 40.4278 40.5369C40.4278 40.1426 40.4278 39.8272 40.4278 39.4328C40.4278 38.6442 40.0335 38.2499 39.2449 38.2499C36.879 38.2499 34.4342 38.2499 32.0683 38.2499C31.043 38.2499 30.3333 38.9597 30.3333 39.906C30.3333 40.8524 31.043 41.4833 32.0683 41.4833C33.3301 41.5622 34.513 41.5622 35.696 41.5622ZM35.0651 36.7515C36.0115 36.7515 36.9578 36.7515 37.9831 36.7515C38.6928 36.7515 38.9294 36.5149 38.9294 35.7262C38.9294 35.2531 38.9294 34.8587 38.9294 34.3856C38.9294 33.7546 38.614 33.4392 37.9831 33.4392C36.0115 33.4392 34.0399 33.4392 32.0683 33.4392C31.1219 33.4392 30.3333 34.149 30.3333 35.0953C30.3333 36.0417 31.043 36.6726 32.0683 36.6726C33.0935 36.7515 34.1187 36.7515 35.0651 36.7515ZM34.9074 46.294C35.8537 46.294 36.879 46.294 37.8253 46.294C38.614 46.294 38.9294 45.8997 38.9294 45.1899C38.9294 44.8745 38.9294 44.559 38.9294 44.2435C38.9294 43.4549 38.5351 43.0606 37.7465 43.0606C35.8537 43.0606 33.961 43.0606 32.0683 43.0606C31.043 43.0606 30.3333 43.7704 30.3333 44.7167C30.3333 45.6631 31.043 46.294 32.0683 46.3729C33.0146 46.294 33.961 46.294 34.9074 46.294ZM34.4342 50.5527C35.3017 50.5527 36.1692 50.5527 37.0367 50.5527C37.5099 50.5527 37.7465 50.3161 37.7465 49.8429C37.7465 49.4486 37.7465 49.0542 37.7465 48.6599C37.7465 48.1079 37.5099 47.8713 36.9578 47.8713C35.3017 47.8713 33.5667 47.8713 31.9105 47.8713C31.043 47.8713 30.4121 48.5022 30.4121 49.212C30.4121 50.0006 31.043 50.5527 31.9105 50.5527C32.6992 50.5527 33.5667 50.5527 34.4342 50.5527Z" fill="#A37CFC"/>
<path d="M24.8916 0C25.3648 0.236592 25.6802 0.709775 25.9168 1.18296C26.4689 2.44478 27.0998 3.62774 27.7307 4.8107C27.8096 4.96843 28.0462 5.12615 28.2039 5.20502C29.7023 5.44161 31.2007 5.6782 32.6991 5.91479C33.2512 5.99366 33.6455 6.30911 33.8032 6.7823C33.9609 7.33434 33.8821 7.80753 33.4089 8.28071C32.3837 9.30594 31.2796 10.3312 30.2543 11.3564C30.0177 11.593 29.9389 11.7507 30.0177 12.0662C30.2543 13.4857 30.4909 14.8264 30.7275 16.246C30.8853 17.2712 30.5698 17.9021 29.7023 18.0598C29.3868 18.1387 28.9925 18.0598 28.6771 17.9021C27.4152 17.2712 26.1534 16.5614 24.8916 15.9305C24.5761 15.7728 24.4184 15.7728 24.103 15.9305C22.8411 16.6403 21.5793 17.2712 20.3175 17.9021C19.7654 18.2176 19.2134 18.2964 18.6613 17.9021C18.1093 17.5078 18.0304 16.9557 18.1093 16.4037C18.3459 14.9841 18.5825 13.5646 18.8191 12.0662C18.8191 11.9085 18.7402 11.593 18.6613 11.4353C17.6361 10.41 16.6109 9.3848 15.5857 8.43844C15.1125 8.04412 14.8759 7.57093 15.1125 6.86116C15.3491 6.23025 15.7434 5.99366 16.3743 5.91479C17.7938 5.75707 19.2923 5.52047 20.7118 5.28388C20.8695 5.28388 21.1061 5.04729 21.185 4.88956C21.8948 3.62774 22.4468 2.36592 23.0777 1.10409C23.3143 0.630911 23.6298 0.236592 24.103 0C24.3395 0 24.655 0 24.8916 0ZM31.9893 7.33434C30.7275 7.17662 29.308 6.94002 27.8884 6.7823C27.1786 6.70343 26.7055 6.38798 26.39 5.75707C25.838 4.65297 25.2859 3.54888 24.7339 2.44478C24.655 2.28705 24.5761 2.12933 24.4184 1.89273C23.7875 3.23342 23.0777 4.49524 22.5257 5.75707C22.2102 6.46684 21.737 6.7823 20.9484 6.86116C19.6077 6.86116 18.267 7.09775 16.7686 7.33434C16.9263 7.49207 17.0052 7.6498 17.1629 7.72866C18.1093 8.59617 18.9768 9.54253 19.9232 10.41C20.3964 10.8832 20.5541 11.3564 20.4752 11.9873C20.2386 13.4069 20.002 14.8264 19.6866 16.3248C21.0273 15.6151 22.3679 14.9841 23.6298 14.2744C24.1818 13.9589 24.7339 13.9589 25.2859 14.2744C26.0746 14.6687 26.8632 15.1419 27.6518 15.5362C28.125 15.7728 28.5982 16.0094 29.2291 16.3248C28.9925 14.9053 28.7559 13.4857 28.5193 12.145C28.3616 11.3564 28.5982 10.8044 29.1502 10.2523C30.0966 9.30594 31.043 8.28071 31.9893 7.33434Z" fill="#A37CFC"/>
<path d="M11.8007 52.129C10.8543 51.8136 10.1446 51.2615 9.90797 50.2363C9.8291 50.0786 9.8291 49.842 9.8291 49.6054C9.8291 48.1858 9.8291 46.7663 9.8291 45.3467C9.8291 44.7158 10.1446 44.4004 10.6177 44.4004C11.0909 44.4004 11.3275 44.7158 11.3275 45.3467C11.3275 46.6874 11.3275 48.107 11.3275 49.4476C11.3275 50.2363 11.643 50.5517 12.5105 50.5517C13.0625 50.5517 13.6146 50.5517 14.1666 50.5517C14.9553 50.5517 15.2707 50.2363 15.2707 49.3688C15.2707 44.4004 15.2707 39.5108 15.2707 34.5424C15.2707 34.5424 15.2707 34.5424 15.2707 34.4635C15.2707 33.7537 14.9553 33.3594 14.2455 33.3594C13.6146 33.3594 12.9837 33.3594 12.3527 33.3594C11.643 33.3594 11.3275 33.7537 11.3275 34.3846C11.3275 36.5928 11.3275 38.7222 11.3275 40.9303C11.3275 41.0881 11.3275 41.1669 11.3275 41.3247C11.3275 41.8767 11.0121 42.1922 10.5389 42.1922C10.0657 42.1922 9.8291 41.8767 9.8291 41.3247C9.8291 41.0881 9.8291 40.8515 9.8291 40.6937C9.8291 38.6433 9.8291 36.514 9.8291 34.4635C9.8291 32.8862 10.8543 31.861 12.4316 31.861C12.9048 31.861 13.378 31.861 13.8512 31.861C15.1918 31.7821 16.1382 32.2553 16.6903 33.596C17.6366 32.8862 18.4253 32.0187 18.9773 30.9935C19.2928 30.3626 19.6082 29.7317 19.8448 29.1008C20.0814 28.5487 20.4757 28.3121 20.8701 28.4698C21.3432 28.6276 21.4221 29.1008 21.2644 29.6528C20.3969 31.9399 19.135 33.9115 17.0057 35.2521C16.848 35.331 16.7691 35.5676 16.7691 35.7253C16.7691 39.8262 16.7691 44.006 16.7691 48.107C16.7691 48.8167 17.1634 49.2899 17.7944 49.6842C18.8985 50.3151 20.0814 50.4729 21.3432 50.5517C22.2107 50.6306 22.9994 50.5517 23.8669 50.5517C24.3401 50.5517 24.7344 50.6306 24.8921 51.1038C25.0498 51.577 24.8132 51.8924 24.4189 52.129C23.236 52.129 21.9741 52.129 20.7912 52.129C20.7123 52.129 20.6335 52.0502 20.6335 52.0502C19.2139 51.9713 17.8732 51.577 16.6903 50.7095C16.3748 51.4192 15.665 51.8136 15.0341 52.129C13.8512 52.129 12.8259 52.129 11.8007 52.129Z" fill="#A37CFC"/>
<path d="M41.6104 5.91406C42.1625 5.91406 42.4779 6.15065 42.7145 6.62384C43.1089 7.41248 43.4243 8.20112 43.8975 8.91089C43.9764 9.06862 44.2129 9.22635 44.3707 9.22635C45.2382 9.38407 46.1057 9.46294 46.8943 9.62067C47.4464 9.69953 47.7618 9.93612 47.9196 10.4093C48.0773 10.8825 47.9196 11.2768 47.5252 11.6711C46.8943 12.302 46.2634 12.8541 45.7114 13.485C45.5536 13.6427 45.5536 13.8793 45.5536 14.037C45.6325 14.8257 45.7902 15.6932 45.948 16.4818C46.0268 16.955 45.948 17.4282 45.5536 17.7436C45.0805 18.0591 44.6861 18.0591 44.2129 17.8225C43.5032 17.4282 42.7934 17.1127 42.0836 16.6396C41.847 16.4818 41.6104 16.4818 41.3738 16.6396C40.6641 17.0339 39.8754 17.4282 39.1657 17.8225C38.6925 18.0591 38.2193 18.0591 37.825 17.7436C37.4307 17.4282 37.2729 17.0339 37.4307 16.5607C37.5884 15.7721 37.6672 14.9834 37.825 14.1948C37.9038 13.8793 37.825 13.6427 37.5884 13.4061C36.9575 12.8541 36.4054 12.302 35.8534 11.75C35.4591 11.3557 35.3013 10.9614 35.5379 10.4882C35.6956 10.015 36.09 9.77839 36.642 9.69953C37.4307 9.62067 38.2982 9.46294 39.0868 9.30521C39.2445 9.30521 39.4811 9.06862 39.56 8.91089C39.9543 8.12225 40.3486 7.33361 40.7429 6.62384C40.7429 6.15065 41.1373 5.91406 41.6104 5.91406ZM38.9291 16.2452C39.6388 15.8509 40.2698 15.6143 40.8218 15.22C41.3738 14.9045 41.847 14.9045 42.3991 15.22C43.03 15.5355 43.582 15.8509 44.2918 16.2452C44.1341 15.4566 44.0552 14.8257 43.8975 14.1159C43.8186 13.5639 43.8975 13.0907 44.3707 12.6175C44.9227 12.1443 45.3959 11.5923 45.8691 11.0402C45.1593 10.9614 44.5284 10.8036 43.8975 10.7248C43.1877 10.6459 42.7145 10.3304 42.4779 9.69953C42.2414 9.06862 41.9259 8.51657 41.5316 7.8068C41.2161 8.51657 40.8218 9.14748 40.5852 9.77839C40.3486 10.4093 39.8754 10.6459 39.2445 10.7248C38.6136 10.8036 37.9038 10.8825 37.2729 11.0402C37.825 11.5923 38.2982 12.1443 38.8502 12.6964C39.1657 13.0118 39.3234 13.4061 39.2445 13.9582C39.1657 14.668 39.0079 15.3777 38.9291 16.2452Z" fill="#A37CFC"/>
<path d="M2.9676 16.7973C3.12533 15.9298 3.28305 15.0623 3.44078 14.1159C3.44078 13.9582 3.36192 13.7216 3.28305 13.5639C2.73101 12.933 2.10009 12.3809 1.46918 11.8289C1.07486 11.4345 0.838272 11.0402 1.07486 10.4882C1.23259 9.93612 1.62691 9.77839 2.17896 9.69953C2.9676 9.62067 3.8351 9.46294 4.62374 9.30521C4.78147 9.30521 5.01806 9.14748 5.09692 8.91089C5.49124 8.20112 5.8067 7.49134 6.12215 6.78157C6.43761 6.30838 6.75307 5.91406 7.38398 5.91406C8.01489 5.91406 8.33034 6.30838 8.56694 6.86043C8.88239 7.5702 9.19785 8.27998 9.59217 8.98975C9.67103 9.14748 9.90762 9.30521 10.1442 9.38407C11.0117 9.5418 11.8004 9.62067 12.6679 9.77839C13.141 9.85726 13.5354 10.0938 13.6931 10.567C13.8508 11.0402 13.6931 11.5134 13.3776 11.8289C12.8256 12.3809 12.2735 12.933 11.6426 13.485C11.3272 13.7216 11.2483 14.037 11.3272 14.3525C11.4849 14.9834 11.5638 15.6932 11.7215 16.3241C11.7215 16.403 11.7215 16.5607 11.8004 16.6396C11.8792 17.1916 11.7215 17.5859 11.3272 17.9014C10.9329 18.2168 10.4597 18.138 10.0653 17.9014C9.35557 17.5071 8.6458 17.1916 8.01489 16.7973C7.69943 16.6396 7.38398 16.5607 7.06852 16.7973C6.35875 17.1916 5.64897 17.5859 4.86033 17.9802C3.8351 18.3746 2.9676 17.7436 2.9676 16.7973ZM10.0653 16.2452C9.90762 15.4566 9.82876 14.7468 9.67103 14.1159C9.5133 13.485 9.67103 13.0907 10.1442 12.6964C10.6174 12.2232 11.1694 11.6711 11.6426 11.1191C10.9329 11.0402 10.3019 10.8825 9.67103 10.8036C8.96126 10.7248 8.48807 10.4093 8.17262 9.77839C8.01489 9.14748 7.69943 8.59544 7.30511 7.88566C6.98966 8.59544 6.59534 9.14748 6.35875 9.77839C6.12215 10.4093 5.64897 10.6459 5.01806 10.7248C4.38715 10.8036 3.67737 10.8825 3.04646 11.0402C3.59851 11.5923 3.99283 12.0654 4.54488 12.5386C5.01806 12.933 5.17579 13.4061 5.01806 14.037C4.86033 14.7468 4.78147 15.3777 4.62374 16.1664C5.33352 15.7721 5.96443 15.5355 6.51647 15.1411C7.06852 14.8257 7.62057 14.8257 8.17262 15.1411C8.72466 15.6143 9.35557 15.8509 10.0653 16.2452Z" fill="#A37CFC"/>
</svg>
