<svg width="151" height="49" viewBox="0 0 151 49" fill="none" xmlns="http://www.w3.org/2000/svg">
<path d="M13.2844 39.3201C10.9903 39.3201 8.92296 38.8533 7.08235 37.9196C5.26841 36.9593 3.84127 35.6389 2.80093 33.9583C1.78726 32.2778 1.28042 30.3705 1.28042 28.2364C1.28042 26.1024 1.78726 24.1951 2.80093 22.5145C3.84127 20.834 5.26841 19.5269 7.08235 18.5932C8.92296 17.6329 10.9903 17.1528 13.2844 17.1528C15.5518 17.1528 17.5258 17.6329 19.2064 18.5932C20.9136 19.5269 22.154 20.874 22.9276 22.6346L18.086 25.2354C16.9656 23.2614 15.3518 22.2745 13.2444 22.2745C11.6172 22.2745 10.2701 22.808 9.20305 23.875C8.13603 24.942 7.60252 26.3958 7.60252 28.2364C7.60252 30.077 8.13603 31.5309 9.20305 32.5979C10.2701 33.6649 11.6172 34.1984 13.2444 34.1984C15.3784 34.1984 16.9923 33.2114 18.086 31.2374L22.9276 33.8783C22.154 35.5855 20.9136 36.9193 19.2064 37.8796C17.5258 38.8399 15.5518 39.3201 13.2844 39.3201Z" fill="#22283D"/>
<path d="M66.5699 17.953H72.0917V22.7546H66.7299V39H60.4879V22.7546H57.1668V17.953H60.4879V16.9927C60.4879 14.5386 61.2081 12.5912 62.6486 11.1508C64.1157 9.71029 66.1698 8.99005 68.8106 8.99005C69.7443 8.99005 70.6246 9.09675 71.4515 9.31015C72.3051 9.49688 73.012 9.77698 73.5722 10.1504L71.9317 14.6719C71.2114 14.1651 70.3711 13.9117 69.4108 13.9117C67.5169 13.9117 66.5699 14.952 66.5699 17.0327V17.953ZM78.4138 17.4729H84.6559V39H78.4138V17.4729ZM81.5349 14.4719C80.3878 14.4719 79.4542 14.1384 78.7339 13.4715C78.0137 12.8046 77.6536 11.9777 77.6536 10.9907C77.6536 10.0037 78.0137 9.17678 78.7339 8.50989C79.4542 7.843 80.3878 7.50956 81.5349 7.50956C82.6819 7.50956 83.6155 7.82966 84.3358 8.46988C85.056 9.11009 85.4161 9.91035 85.4161 10.8707C85.4161 11.911 85.056 12.778 84.3358 13.4715C83.6155 14.1384 82.6819 14.4719 81.5349 14.4719ZM96.4029 20.3138C97.1498 19.2735 98.1502 18.4865 99.4039 17.953C100.684 17.4195 102.151 17.1528 103.805 17.1528V22.9147C103.112 22.8613 102.645 22.8346 102.405 22.8346C100.618 22.8346 99.2172 23.3415 98.2035 24.3551C97.1898 25.3421 96.683 26.836 96.683 28.8366V39H90.4409V17.4729H96.4029V20.3138ZM114.837 39.3201C113.05 39.3201 111.303 39.1067 109.596 38.6799C107.888 38.2264 106.528 37.6662 105.514 36.9993L107.595 32.5179C108.555 33.1314 109.716 33.6382 111.076 34.0384C112.437 34.4118 113.77 34.5985 115.078 34.5985C117.718 34.5985 119.039 33.945 119.039 32.6379C119.039 32.0244 118.679 31.5842 117.958 31.3175C117.238 31.0507 116.131 30.824 114.637 30.6372C112.877 30.3705 111.423 30.0637 110.276 29.7169C109.129 29.3701 108.129 28.7566 107.275 27.8763C106.448 26.996 106.035 25.7423 106.035 24.1151C106.035 22.7546 106.421 21.5542 107.195 20.5139C107.995 19.4468 109.142 18.6199 110.636 18.033C112.157 17.4462 113.944 17.1528 115.998 17.1528C117.518 17.1528 119.026 17.3261 120.519 17.6729C122.04 17.993 123.294 18.4465 124.281 19.0334L122.2 23.4749C120.306 22.4078 118.239 21.8743 115.998 21.8743C114.664 21.8743 113.664 22.061 112.997 22.4345C112.33 22.808 111.997 23.2881 111.997 23.875C111.997 24.5419 112.357 25.0087 113.077 25.2754C113.797 25.5422 114.944 25.7956 116.518 26.0357C118.279 26.3291 119.719 26.6492 120.839 26.996C121.96 27.3161 122.933 27.9163 123.76 28.7966C124.587 29.6769 125.001 30.904 125.001 32.4778C125.001 33.8116 124.601 34.9987 123.8 36.039C123 37.0794 121.826 37.893 120.279 38.4798C118.759 39.04 116.945 39.3201 114.837 39.3201ZM142.737 37.9597C142.123 38.4131 141.363 38.7599 140.456 39C139.576 39.2134 138.642 39.3201 137.655 39.3201C135.094 39.3201 133.107 38.6666 131.693 37.3595C130.306 36.0524 129.612 34.1317 129.612 31.5975V22.7546H126.291V17.953H129.612V12.7113H135.854V17.953H141.216V22.7546H135.854V31.5175C135.854 32.4245 136.081 33.1314 136.535 33.6382C137.015 34.1184 137.682 34.3585 138.535 34.3585C139.522 34.3585 140.363 34.0917 141.056 33.5582L142.737 37.9597Z" fill="#22283D"/>
<path d="M143.223 14.851V10.8678H141.8V10.0568H145.61V10.8678H144.191V14.851H143.223Z" fill="black"/>
<path d="M146.225 14.851V10.0568H147.673L148.543 13.327L149.403 10.0568H150.855V14.851H149.956V11.0771L149.004 14.851H148.072L147.124 11.0771V14.851H146.225Z" fill="black"/>
<path fill-rule="evenodd" clip-rule="evenodd" d="M30.6868 28.8185L20.0273 43.5822H30.2361L35.7335 36.0609L30.6868 28.8185ZM39.5377 30.8562L33.705 24.6381L43.6533 10.8594H54.1538L39.5377 30.8562Z" fill="#1A73E8"/>
<path d="M13.3193 0.0488281L43.6539 43.5819H54.1543L13.3193 0.0488281Z" fill="#1A73E8"/>
</svg>
