<svg width="512" height="419" viewBox="0 0 512 419" fill="none" xmlns="http://www.w3.org/2000/svg">
<path d="M63.7459 333.448L457.588 320.414C466.443 320.13 474.905 316.127 481.388 309.154C487.871 302.181 491.93 292.718 492.806 282.536L511.817 65.5899C512.323 59.7828 511.779 53.9176 510.22 48.3658C508.661 42.814 506.121 37.6967 502.76 33.3381C499.399 28.9795 495.291 25.4746 490.697 23.0455C486.102 20.6163 481.12 19.3158 476.068 19.2265L37.6917 12.2282C32.4787 12.1468 27.311 13.3557 22.5363 15.7737C17.7615 18.1916 13.4905 21.7625 10.0103 26.2462C6.53022 30.7298 3.92177 36.0223 2.36042 41.7675C0.799062 47.5127 0.321004 53.5775 0.958435 59.5539L26.4824 296.533C27.62 306.929 32.0644 316.466 38.9514 323.289C45.8384 330.112 54.6759 333.733 63.7459 333.448V333.448Z" fill="#FAF5F4"/>
<path d="M85.1627 313.457V336.261C85.1627 339.057 86.5426 341.739 88.9986 343.716C91.4546 345.693 94.7856 346.804 98.2589 346.804H461.111C464.584 346.804 467.915 345.693 470.371 343.716C472.827 341.739 474.207 339.057 474.207 336.261V170.605C474.207 167.809 472.827 165.127 470.371 163.15C467.915 161.173 464.584 160.062 461.111 160.062H98.3463C94.873 160.062 91.5419 161.173 89.0859 163.15C86.6298 165.127 85.2501 167.809 85.2501 170.605V282.636" stroke="#F1E3D9" stroke-width="1.8" stroke-linecap="round" stroke-linejoin="round"/>
<path d="M404.985 160.188H422.724C423.649 160.191 424.542 159.854 425.234 159.242C425.927 158.63 426.371 157.785 426.482 156.868L427.88 144.284C427.938 143.756 427.884 143.222 427.721 142.716C427.559 142.21 427.291 141.745 426.937 141.349C426.583 140.953 426.149 140.637 425.664 140.42C425.179 140.203 424.654 140.09 424.123 140.09H403.587C403.057 140.092 402.532 140.205 402.048 140.422C401.564 140.64 401.13 140.956 400.776 141.352C400.422 141.747 400.155 142.212 399.992 142.718C399.829 143.223 399.774 143.756 399.83 144.284L401.228 156.868C401.326 157.791 401.766 158.643 402.462 159.258C403.157 159.872 404.058 160.204 404.985 160.188V160.188Z" stroke="#F1E3D9" stroke-width="1.8" stroke-linecap="round" stroke-linejoin="round"/>
<path d="M415.909 140.178C415.909 140.178 422.9 139.479 424.298 130.042C424.298 130.042 418.006 131.877 415.996 136.333C415.996 136.333 415.123 126.371 410.404 125.41C410.404 125.41 408.307 132.838 411.627 136.508C411.627 136.508 409.093 132.314 402.627 132.401C403.238 134.241 404.29 135.904 405.691 137.245C407.092 138.585 408.8 139.562 410.666 140.091" fill="#F1E3D9"/>
<path d="M100.889 203.618H179.71C180.681 203.611 181.611 203.222 182.297 202.535C182.984 201.848 183.373 200.919 183.38 199.947V176.004C183.373 175.033 182.984 174.103 182.297 173.417C181.611 172.73 180.681 172.341 179.71 172.334H100.889C99.9181 172.341 98.9886 172.73 98.3018 173.417C97.615 174.103 97.2261 175.033 97.2192 176.004V199.947C97.2261 200.919 97.615 201.848 98.3018 202.535C98.9886 203.222 99.9181 203.611 100.889 203.618V203.618Z" stroke="#F1E3D9" stroke-width="1.8" stroke-linecap="round" stroke-linejoin="round"/>
<path d="M131.299 180.811H149.475C149.819 180.802 150.148 180.661 150.392 180.417C150.635 180.173 150.776 179.845 150.785 179.5C150.776 179.155 150.635 178.827 150.392 178.583C150.148 178.339 149.819 178.198 149.475 178.189H131.299C130.954 178.198 130.625 178.339 130.382 178.583C130.138 178.827 129.997 179.155 129.988 179.5V179.5C129.984 179.673 130.016 179.845 130.08 180.006C130.145 180.167 130.241 180.313 130.364 180.435C130.486 180.557 130.632 180.654 130.793 180.718C130.953 180.783 131.125 180.815 131.299 180.811V180.811Z" fill="#F1E3D9"/>
<path d="M100.889 243.727H179.71C180.681 243.72 181.611 243.331 182.297 242.644C182.984 241.958 183.373 241.028 183.38 240.057V216.113C183.373 215.142 182.984 214.213 182.297 213.526C181.611 212.839 180.681 212.45 179.71 212.443H100.889C99.9181 212.45 98.9886 212.839 98.3018 213.526C97.615 214.213 97.2261 215.142 97.2192 216.113V240.057C97.2261 241.028 97.615 241.958 98.3018 242.644C98.9886 243.331 99.9181 243.72 100.889 243.727V243.727Z" stroke="#F1E3D9" stroke-width="1.8" stroke-linecap="round" stroke-linejoin="round"/>
<path d="M131.299 220.834H149.475C149.819 220.826 150.148 220.685 150.392 220.441C150.635 220.197 150.776 219.869 150.785 219.524V219.524C150.776 219.179 150.635 218.851 150.392 218.607C150.148 218.363 149.819 218.222 149.475 218.213H131.299C130.954 218.222 130.625 218.363 130.382 218.607C130.138 218.851 129.997 219.179 129.988 219.524V219.524C129.984 219.697 130.016 219.869 130.08 220.029C130.145 220.19 130.241 220.336 130.364 220.458C130.486 220.581 130.632 220.677 130.793 220.742C130.953 220.807 131.125 220.838 131.299 220.834Z" fill="#F1E3D9"/>
<path d="M201.382 203.618H280.202C281.173 203.611 282.103 203.222 282.79 202.535C283.476 201.848 283.865 200.919 283.872 199.947V176.004C283.865 175.033 283.476 174.103 282.79 173.417C282.103 172.73 281.173 172.341 280.202 172.334H201.382C200.41 172.341 199.481 172.73 198.794 173.417C198.107 174.103 197.718 175.033 197.711 176.004V199.947C197.718 200.919 198.107 201.848 198.794 202.535C199.481 203.222 200.41 203.611 201.382 203.618V203.618Z" stroke="#F1E3D9" stroke-width="1.8" stroke-linecap="round" stroke-linejoin="round"/>
<path d="M231.703 180.811H249.879C250.224 180.802 250.552 180.661 250.796 180.417C251.04 180.173 251.181 179.845 251.189 179.5V179.5C251.181 179.155 251.04 178.827 250.796 178.583C250.552 178.339 250.224 178.198 249.879 178.189H231.703C231.358 178.198 231.03 178.339 230.786 178.583C230.542 178.827 230.401 179.155 230.392 179.5V179.5C230.401 179.845 230.542 180.173 230.786 180.417C231.03 180.661 231.358 180.802 231.703 180.811Z" fill="#F1E3D9"/>
<path d="M201.382 243.727H280.202C281.173 243.72 282.103 243.331 282.79 242.644C283.476 241.958 283.865 241.028 283.872 240.057V216.113C283.865 215.142 283.476 214.213 282.79 213.526C282.103 212.839 281.173 212.45 280.202 212.443H201.382C200.41 212.45 199.481 212.839 198.794 213.526C198.107 214.213 197.718 215.142 197.711 216.113V240.057C197.718 241.028 198.107 241.958 198.794 242.644C199.481 243.331 200.41 243.72 201.382 243.727V243.727Z" stroke="#F1E3D9" stroke-width="1.8" stroke-linecap="round" stroke-linejoin="round"/>
<path d="M231.703 220.834H249.879C250.224 220.826 250.552 220.685 250.796 220.441C251.04 220.197 251.181 219.868 251.19 219.524V219.524C251.181 219.179 251.04 218.851 250.796 218.607C250.552 218.363 250.224 218.222 249.879 218.213H231.703C231.358 218.222 231.03 218.363 230.786 218.607C230.542 218.851 230.401 219.179 230.392 219.524V219.524C230.401 219.868 230.542 220.197 230.786 220.441C231.03 220.685 231.358 220.826 231.703 220.834Z" fill="#F1E3D9"/>
<path d="M100.889 282.875H179.71C180.681 282.868 181.611 282.48 182.297 281.793C182.984 281.106 183.373 280.176 183.38 279.205V255.262C183.373 254.291 182.984 253.361 182.297 252.674C181.611 251.988 180.681 251.599 179.71 251.592H100.889C99.9181 251.599 98.9886 251.988 98.3018 252.674C97.615 253.361 97.2261 254.291 97.2192 255.262V279.205C97.2261 280.176 97.615 281.106 98.3018 281.793C98.9886 282.48 99.9181 282.868 100.889 282.875V282.875Z" stroke="#F1E3D9" stroke-width="1.8" stroke-linecap="round" stroke-linejoin="round"/>
<path d="M131.299 260.069H149.475C149.819 260.06 150.148 259.919 150.392 259.675C150.635 259.431 150.776 259.103 150.785 258.758V258.758C150.776 258.413 150.635 258.085 150.392 257.841C150.148 257.597 149.819 257.456 149.475 257.447H131.299C130.954 257.456 130.625 257.597 130.382 257.841C130.138 258.085 129.997 258.413 129.988 258.758V258.758C129.984 258.931 130.016 259.103 130.08 259.264C130.145 259.424 130.241 259.57 130.364 259.693C130.486 259.815 130.632 259.912 130.793 259.976C130.953 260.041 131.125 260.072 131.299 260.069V260.069Z" fill="#F1E3D9"/>
<path d="M201.382 282.875H280.202C281.173 282.868 282.103 282.48 282.79 281.793C283.476 281.106 283.865 280.176 283.872 279.205V255.262C283.865 254.291 283.476 253.361 282.79 252.674C282.103 251.988 281.173 251.599 280.202 251.592H201.382C200.41 251.599 199.481 251.988 198.794 252.674C198.107 253.361 197.718 254.291 197.711 255.262V279.205C197.718 280.176 198.107 281.106 198.794 281.793C199.481 282.48 200.41 282.868 201.382 282.875V282.875Z" stroke="#F1E3D9" stroke-width="1.8" stroke-linecap="round" stroke-linejoin="round"/>
<path d="M231.703 260.069H249.879C250.224 260.06 250.552 259.919 250.796 259.675C251.04 259.431 251.181 259.103 251.19 258.758V258.758C251.181 258.413 251.04 258.085 250.796 257.841C250.552 257.597 250.224 257.456 249.879 257.447H231.703C231.358 257.456 231.03 257.597 230.786 257.841C230.542 258.085 230.401 258.413 230.392 258.758V258.758C230.401 259.103 230.542 259.431 230.786 259.675C231.03 259.919 231.358 260.06 231.703 260.069Z" fill="#F1E3D9"/>
<path d="M462.484 308.48L33.4751 314.568" stroke="#F1E3D9" stroke-width="1.8" stroke-linecap="round" stroke-linejoin="round"/>
<path d="M242.907 33.6284L47.3866 13.4021C46.5401 13.3171 45.6853 13.4191 44.8826 13.7009C44.08 13.9827 43.349 14.4375 42.7416 15.0331C42.1341 15.6286 41.6649 16.3504 41.3672 17.1473C41.0696 17.9443 40.9507 18.7969 41.019 19.6448L57.7494 209.922C57.9407 212.174 58.9968 214.264 60.6962 215.754C62.3956 217.244 64.6061 218.017 66.8637 217.912L256.766 207.674C258.303 207.584 259.742 206.891 260.771 205.745C261.8 204.6 262.335 203.094 262.26 201.557L250.773 41.8688C250.627 39.794 249.762 37.8354 248.325 36.3309C246.889 34.8264 244.973 33.8706 242.907 33.6284Z" fill="#1B2153"/>
<path d="M52.2048 11.5307L52.2026 11.5305C51.4181 11.4458 50.6245 11.5381 49.8803 11.8005C49.136 12.0628 48.4601 12.4887 47.9021 13.0467C47.3441 13.6047 46.9182 14.2806 46.6559 15.0249C46.3935 15.7691 46.3012 16.5627 46.386 17.3472L46.3869 17.3573L63.2422 209.757L63.2426 209.763C63.4023 211.915 64.4081 213.915 66.0398 215.326C67.6715 216.738 69.796 217.444 71.9479 217.292L71.9563 217.292L264.106 206.929L264.109 206.929C264.816 206.894 265.51 206.718 266.148 206.411C266.787 206.103 267.357 205.671 267.825 205.139C268.293 204.607 268.65 203.986 268.873 203.314C269.097 202.642 269.184 201.931 269.128 201.225L269.128 201.221L257.517 39.6694C257.308 37.7283 256.45 35.9147 255.08 34.5235C253.709 33.1313 251.907 32.2441 249.968 32.0062C249.967 32.006 249.965 32.0058 249.964 32.0057L52.2048 11.5307Z" fill="#F8FBFF" stroke="#1B2153"/>
<path d="M183.763 86.0137L185.04 100.588" stroke="#569FFF"/>
<path d="M225.664 90.3516L226.95 102.045" stroke="#569FFF"/>
<line y1="-0.5" x2="12.4755" y2="-0.5" transform="matrix(0.0988017 0.93005 -0.92079 0.135432 181.959 74.4844)" stroke="#569FFF"/>
<path d="M138.205 81.8633L139.434 98.4121" stroke="#569FFF"/>
<line y1="-0.5" x2="88.6145" y2="-0.5" transform="matrix(-1.00141 -0.0973074 0.0611737 -0.871632 226.333 90.4434)" stroke="#569FFF"/>
<path d="M141.287 115.095L144.368 144.103" stroke="#569FFF"/>
<path d="M189.355 130.32L190.588 144.824" stroke="#569FFF"/>
<path d="M91.3613 128.869L92.5951 143.378" stroke="#569FFF"/>
<path d="M189.354 131.043L90.7458 128.867" stroke="#569FFF"/>
<path d="M121.944 98.7024C121.926 97.4543 122.845 96.6373 124.187 96.7089L152.888 98.2409C154.82 98.344 156.755 100.197 156.819 102.006L157.234 113.753C157.278 114.994 156.404 115.83 155.092 115.803L126.159 115.204C124.182 115.163 122.154 113.241 122.127 111.382L121.944 98.7024Z" fill="#FFD200"/>
<path d="M170.103 101.664C170.034 100.382 170.936 99.5187 172.292 99.5689L196.61 100.47C198.55 100.542 200.52 102.403 200.59 104.23L200.986 114.512C201.034 115.762 200.152 116.604 198.829 116.569L174.684 115.944C172.754 115.894 170.77 114.054 170.671 112.223L170.103 101.664Z" fill="#FFD200"/>
<path d="M169.059 98.1954L199.928 100.239C201.515 100.344 203.091 101.852 203.169 103.339L203.843 116.194C203.899 117.251 203.161 117.967 202.047 117.938L171.264 117.141C169.655 117.1 168.002 115.567 167.92 114.04L167.161 99.9376C167.102 98.8432 167.892 98.1181 169.059 98.1954Z" fill="white" stroke="#63737A"/>
<path d="M173 107.559C173 106.708 173.707 106.028 174.558 106.061L197.06 106.944C197.864 106.975 198.5 107.636 198.5 108.441V108.441C198.5 109.292 197.793 109.972 196.942 109.939L174.44 109.056C173.636 109.025 173 108.364 173 107.559V107.559Z" fill="#B0C9EC"/>
<path d="M212.86 102.987C212.811 101.716 213.723 100.87 215.077 100.932L235.467 101.863C237.399 101.952 239.348 103.801 239.421 105.616L239.808 115.165C239.859 116.411 238.985 117.253 237.67 117.227L217.284 116.826C215.333 116.787 213.322 114.913 213.251 113.065L212.86 102.987Z" fill="#FFD200"/>
<path d="M72.824 144.702C72.6876 143.395 73.5426 142.473 74.892 142.473L108.361 142.474C110.327 142.474 112.387 144.373 112.452 146.245L112.926 159.833C112.968 161.021 112.166 161.844 110.931 161.881L78.5041 162.833C76.6007 162.889 74.5349 161.108 74.3405 159.244L72.824 144.702Z" fill="#FFD200"/>
<path d="M128.492 145.554C128.405 144.27 129.286 143.391 130.632 143.42L157.998 144.014C159.866 144.055 161.811 145.786 162.011 147.586L163.228 158.571C163.372 159.866 162.545 160.791 161.219 160.817L133.462 161.366C131.523 161.404 129.446 159.557 129.318 157.681L128.492 145.554Z" fill="#FFD200"/>
<path d="M176.14 145.997C176.06 144.718 176.943 143.846 178.286 143.878L201.664 144.425C203.625 144.471 205.635 146.364 205.687 148.213L205.941 157.367C205.974 158.544 205.177 159.358 203.952 159.397L180.973 160.131C179.021 160.193 176.911 158.326 176.793 156.433L176.14 145.997Z" fill="#FFD200"/>
<path d="M166.387 58.319C166.328 56.9515 167.378 56.086 168.864 56.2762L193.133 59.3825C194.973 59.618 196.714 61.3496 196.823 63.0523L197.564 74.6065C197.652 75.9742 196.64 76.865 195.171 76.7139L170.679 74.1946C168.793 74.0005 166.978 72.2058 166.904 70.4601L166.387 58.319Z" fill="#FFD200"/>
<path d="M232.735 127.329C232.735 127.329 228.89 125.931 227.929 125.407C226.968 124.882 224.871 121.212 223.123 118.94C221.375 116.668 216.394 115.357 214.996 115.62C214.616 115.671 214.25 115.798 213.92 115.993C213.59 116.188 213.302 116.447 213.074 116.756C213.074 116.756 208.705 115.183 205.734 113.959C202.762 112.736 197.257 110.027 196.471 112.212C196.034 113.522 199.442 115.445 201.801 116.756C204.685 118.416 206.607 119.639 206.607 119.639C206.15 119.909 205.756 120.276 205.454 120.714C205.152 121.151 204.95 121.649 204.86 122.173C204.51 124.008 203.549 126.018 205.297 128.815C205.821 129.601 203.811 131.786 205.384 133.795C208.093 137.029 214.647 138.689 218.142 139.738C221.637 140.786 229.852 141.311 229.852 141.311C229.852 141.311 232.473 140.699 233.609 135.019C234.745 129.339 232.735 127.329 232.735 127.329Z" fill="#F4CBC2"/>
<path d="M213.074 116.754C213.074 116.754 212.462 118.327 211.763 120.686C211.064 123.046 210.54 124.881 212.375 124.968C214.21 125.055 215.87 122.259 216.569 120.861" stroke="#D2A89F" stroke-linecap="round" stroke-linejoin="round"/>
<path d="M215.346 122.871C215.346 122.871 213.336 126.891 217.968 130.386" stroke="#D2A89F" stroke-linecap="round" stroke-linejoin="round"/>
<path d="M206.52 119.639L211.413 121.911" stroke="#D2A89F" stroke-linecap="round" stroke-linejoin="round"/>
<path d="M213.86 124.445C213.86 124.445 214.734 125.843 213.86 126.629C212.986 127.416 208.18 125.668 204.684 123.658" stroke="#D2A89F" stroke-linecap="round" stroke-linejoin="round"/>
<path d="M213.073 126.803C213.482 127.019 213.792 127.385 213.939 127.825C214.085 128.264 214.057 128.743 213.859 129.162C213.16 130.735 209.403 130.123 205.296 128.813" stroke="#D2A89F" stroke-linecap="round" stroke-linejoin="round"/>
<path d="M212.287 130.125C212.287 130.125 214.472 130.387 213.336 132.572C212.637 133.883 208.442 133.446 207.568 133.795" stroke="#D2A89F" stroke-linecap="round" stroke-linejoin="round"/>
<path d="M317.41 80.2305C317.41 80.2305 310.245 80.58 298.71 103.649C287.175 126.719 283.068 135.02 283.068 135.02C283.068 135.02 275.466 133.185 263.057 131.175C250.649 129.166 233.172 126.631 233.172 126.631C233.172 126.631 228.453 126.719 226.443 133.447C225.931 135.151 225.855 136.955 226.221 138.696C226.588 140.436 227.385 142.057 228.541 143.409C228.975 143.957 229.549 144.38 230.201 144.633C235.531 146.905 266.64 160.012 277.214 162.284C288.836 164.731 294.516 164.381 304.827 150.225C315.138 136.069 323.265 125.059 327.023 119.379C330.78 113.436 333.489 81.1043 317.41 80.2305Z" fill="#FFD200"/>
<path d="M395.183 180.285C396.678 187.179 397.498 194.203 397.63 201.257C397.892 213.228 388.542 250.716 385.134 263.387C381.726 276.058 382.425 278.067 382.949 280.514C383.473 282.961 388.716 302.36 390.464 322.459C392.212 342.557 398.504 358.723 397.804 364.927C396.843 373.316 393.26 375.763 391.775 376.724C390.289 377.685 378.056 381.618 369.754 379.695C369.754 379.695 360.928 374.103 359.268 366.238C357.608 358.373 358.569 348.849 352.889 323.158C347.209 297.467 344.587 286.893 343.801 276.669C343.364 270.552 343.277 253.076 343.189 239.706C343.102 230.618 343.102 223.365 343.015 222.666C342.752 220.918 338.471 222.928 336.199 217.335C335.237 214.801 334.713 209.995 334.626 204.84C334.451 198.286 334.888 191.12 335.762 187.188C337.16 179.935 393.785 172.595 395.183 180.285Z" fill="#1B2153"/>
<path d="M275.291 366.5C276.776 370.17 279.485 374.365 281.932 375.326C284.379 376.287 295.389 377.773 300.982 377.249C300.982 377.249 310.332 374.54 311.293 367.461C312.254 360.383 310.594 352.519 313.74 336.615C316.886 320.711 319.594 292.573 320.381 284.272C321.167 275.97 338.295 251.241 346.334 236.298C354.373 221.355 363.024 194.004 355.859 187.625C348.693 181.246 323.09 178.362 315.487 183.518C315.487 183.518 306.662 205.014 297.836 230.705C289.709 254.299 288.049 262.251 286.913 269.067C286.839 269.686 286.722 270.299 286.563 270.902C286.214 272.999 285.777 278.417 285.165 285.408C283.767 303.147 282.107 330.673 281.408 336.964C280.446 345.703 273.805 362.83 275.291 366.5Z" fill="#1B2153"/>
<path d="M393.173 221.615C390.081 218.768 387.614 215.309 385.93 211.458C384.245 207.607 383.379 203.448 383.386 199.245C386.672 199.06 389.942 198.651 393.173 198.021" stroke="#63737A" stroke-width="1.8" stroke-linecap="round" stroke-linejoin="round"/>
<path d="M345.723 48.2467C345.723 48.2467 348.519 62.3155 350.092 66.1604C351.665 70.0053 343.101 76.0348 334.538 76.3843C325.974 76.7339 326.848 71.753 326.848 71.753L324.314 57.7715C324.314 57.8589 342.665 45.0134 345.723 48.2467Z" fill="#F4CBC2"/>
<path d="M341.878 52.4414C343.102 63.1023 335.412 68.2579 326.848 72.2776V71.7533L325.45 64.3256C331.829 62.2284 337.422 57.6845 341.878 52.4414Z" fill="#D2A89F"/>
<path d="M382.424 76.472C380.501 70.7921 373.161 67.3841 367.219 67.9084C361.102 68.4327 349.393 68.6075 338.12 72.1028C318.895 78.045 314.264 81.5403 313.128 82.5889C306.749 88.7058 307.361 97.7938 311.031 122.873C313.39 139.389 315.4 143.583 314.876 151.71C314.352 159.837 312.866 174.255 311.905 177.226C310.944 180.197 313.39 185.353 315.488 187.188C317.585 189.023 334.537 192.868 350.266 192.518C365.996 192.169 390.725 187.887 394.658 185.265C398.59 182.644 401.386 178.1 400.512 174.167C399.426 168.156 398.026 162.206 396.318 156.341C393.871 148.04 393.696 137.204 389.851 119.815C386.88 106.969 386.443 88.3563 382.424 76.472Z" fill="#1A73E8"/>
<path d="M351.227 64.0649C351.137 63.8666 351.002 63.6927 350.831 63.5573C350.661 63.422 350.46 63.3291 350.247 63.2864C350.034 63.2437 349.813 63.2524 349.604 63.3118C349.394 63.3712 349.202 63.4796 349.043 63.6279C347.382 65.3756 343.8 67.9972 337.333 69.2205C327.459 71.0556 326.498 69.5701 326.498 69.5701C326.498 69.5701 324.925 70.0944 324.75 71.4051C324.698 73.5243 324.933 75.6407 325.449 77.6968C325.973 79.3571 333.314 79.5319 339.168 78.3085C344.342 77.3602 349.117 74.8967 352.888 71.2304C353.186 70.9428 353.388 70.5702 353.466 70.1636C353.544 69.7569 353.495 69.336 353.325 68.9584C352.8 67.6476 351.926 65.7252 351.227 64.0649Z" fill="#FFD200"/>
<path d="M308.148 31.6425C308.063 35.388 308.655 39.1181 309.896 42.6529C311.643 47.1969 314.527 59.8676 320.207 63.9747C325.887 68.0817 338.296 67.2952 343.713 56.7218C349.131 46.1483 347.384 35.0505 344.587 26.1373C341.791 17.2241 330.256 13.9909 320.207 17.6611C310.158 21.3312 308.148 27.7102 308.148 31.6425Z" fill="#F4CBC2"/>
<path d="M344.848 37.7611C344.252 38.5427 343.754 39.3936 343.363 40.2953C342.576 42.1303 340.916 41.0817 340.304 37.7611C339.693 34.4405 338.294 32.0812 337.246 32.2559C335.899 32.5779 334.483 32.4335 333.229 31.8462C331.975 31.2588 330.957 30.2634 330.342 29.0227C328.158 25.003 327.197 25.6147 327.197 25.6147C327.197 25.6147 325.449 21.4203 320.905 27.4498C316.361 33.4793 313.477 38.198 308.06 37.2368C302.642 36.2756 297.836 27.4498 301.943 18.9735C306.05 10.4973 318.983 8.48743 328.595 11.0216C338.207 13.5557 343.188 11.4585 348.955 16.352C354.723 21.2455 353.324 26.4012 353.674 32.1685C354.024 37.9359 356.995 40.9943 353.062 46.15C349.13 51.3057 350.179 56.1118 347.994 58.9955C347.994 58.9955 345.635 51.3931 345.897 45.8879C346.159 40.3827 344.848 37.7611 344.848 37.7611Z" fill="#1B2153"/>
<path d="M343.975 39.3345C343.975 39.3345 344.762 34.7031 348.519 34.6157C352.277 34.5283 354.549 46.0631 345.199 47.636" fill="#D2A89F"/>
<path d="M349.131 38.196C348.695 38.0845 348.236 38.1085 347.815 38.2646C347.393 38.4207 347.029 38.7016 346.771 39.0699C346.523 39.5245 346.403 40.0378 346.422 40.5554C346.422 40.8175 346.509 40.9923 346.509 41.2545C346.509 41.5166 346.597 41.604 346.597 41.7788C346.665 42.0648 346.694 42.3587 346.684 42.6526C346.703 42.7611 346.697 42.8725 346.666 42.9784C346.636 43.0843 346.582 43.182 346.509 43.2643C346.039 43.7745 345.476 44.1898 344.849 44.4877C345.264 44.6371 345.707 44.6912 346.146 44.6458C346.585 44.6004 347.008 44.4567 347.383 44.2255C347.803 43.9049 348.084 43.436 348.17 42.9148C348.231 42.4474 348.201 41.9727 348.082 41.5166C347.995 41.3418 347.995 41.0797 347.907 40.9049C347.82 40.7301 347.82 40.6428 347.82 40.468C347.732 40.2432 347.732 39.9937 347.82 39.7689C347.915 39.4288 348.08 39.1127 348.306 38.8415C348.532 38.5704 348.813 38.3503 349.131 38.196V38.196Z" fill="#1B2153"/>
<path d="M321.123 43C321.063 43.9863 320.857 44.9582 320.511 45.8837C320.36 46.2886 320.155 46.6708 319.899 47.0197C319.533 47.4519 319.264 47.9588 319.113 48.5052C318.973 49.0898 318.963 49.698 319.084 50.2869C319.205 50.8757 319.453 51.4309 319.812 51.9132C320.131 52.3776 320.549 52.7656 321.035 53.0492C321.497 53.3643 322.05 53.5179 322.608 53.4861C321.835 52.9173 321.255 52.124 320.948 51.2141C320.608 50.4766 320.516 49.6489 320.686 48.8547C320.84 48.4513 321.046 48.0694 321.298 47.7187C321.564 47.1984 321.741 46.6372 321.822 46.0584C321.861 44.9953 321.62 43.9405 321.123 43V43Z" fill="#1B2153"/>
<path d="M323.5 57.5C324.499 58.5008 325.5 59.4992 329.5 58.9992C331.135 58.416 333.5 56.5001 333.5 52.9992" stroke="#1B2153" stroke-width="1.8" stroke-linecap="round" stroke-linejoin="round"/>
<path d="M329.382 44.2273C329.548 44.1873 329.705 44.1149 329.844 44.0141C329.982 43.9134 330.1 43.7863 330.189 43.6402C330.278 43.4941 330.338 43.3318 330.364 43.1627C330.391 42.9935 330.384 42.8208 330.343 42.6544L329.994 41.3436C329.954 41.1771 329.881 41.0202 329.78 40.8817C329.68 40.7432 329.553 40.626 329.407 40.5367C329.26 40.4474 329.098 40.3879 328.929 40.3614C328.76 40.3349 328.587 40.342 328.421 40.3824C328.254 40.4224 328.097 40.4948 327.959 40.5956C327.82 40.6963 327.703 40.8234 327.614 40.9695C327.525 41.1156 327.465 41.2779 327.438 41.447C327.412 41.6162 327.419 41.7889 327.46 41.9553L327.809 43.2661C327.849 43.4326 327.921 43.5895 328.022 43.728C328.123 43.8664 328.25 43.9837 328.396 44.073C328.542 44.1622 328.705 44.2218 328.874 44.2483C329.043 44.2748 329.216 44.2677 329.382 44.2273V44.2273Z" fill="#1B2153"/>
<path d="M315.487 47.8093C315.654 47.7693 315.811 47.6969 315.949 47.5962C316.088 47.4954 316.205 47.3684 316.294 47.2223C316.384 47.0762 316.443 46.9139 316.47 46.7447C316.496 46.5755 316.489 46.4028 316.449 46.2364L316.099 44.9256C316.059 44.7592 315.987 44.6022 315.886 44.4637C315.785 44.3253 315.658 44.2081 315.512 44.1188C315.366 44.0295 315.204 43.9699 315.035 43.9434C314.865 43.9169 314.693 43.9241 314.526 43.9644V43.9644C314.36 44.0044 314.203 44.0769 314.064 44.1776C313.926 44.2783 313.809 44.4054 313.719 44.5515C313.63 44.6976 313.57 44.8599 313.544 45.029C313.517 45.1982 313.525 45.3709 313.565 45.5373L313.915 46.8481C313.955 47.0146 314.027 47.1716 314.128 47.31C314.228 47.4485 314.355 47.5657 314.502 47.655C314.648 47.7443 314.81 47.8039 314.979 47.8303C315.148 47.8568 315.321 47.8497 315.487 47.8093V47.8093Z" fill="#1B2153"/>
<path d="M325.886 38.198C326.847 38.3728 327.284 37.062 328.683 37.1494C330.867 37.2368 332.09 37.6737 332.265 36.7125C332.353 36.0134 330.692 34.7026 328.595 34.6152C325.537 34.6152 324.139 37.9358 325.886 38.198Z" fill="#1B2153"/>
<path d="M315.488 40.8211C314.877 41.3454 314.003 40.3842 313.129 40.9959C311.818 41.7823 311.381 42.4814 310.944 41.8697C310.507 41.258 310.944 39.7725 312.168 38.9861C314.178 37.5879 316.799 39.8599 315.488 40.8211Z" fill="#1B2153"/>
<path d="M425.593 186.927C426.181 188.167 426.565 189.495 426.729 190.859C426.729 192.344 425.505 206.064 425.855 208.773C426.204 211.481 427.078 216.812 427.602 217.598C428.127 218.385 431.272 215.938 431.36 207.724C431.447 199.51 434.244 188.237 431.884 186.927C429.525 185.616 426.292 185.878 425.593 186.927Z" fill="#F4CBC2"/>
<path d="M482.828 227.473L461.856 194.441C461.624 194.076 461.321 193.762 460.965 193.515C460.61 193.269 460.209 193.095 459.786 193.006C459.363 192.916 458.926 192.912 458.501 192.994C458.076 193.075 457.672 193.241 457.312 193.48L407.94 224.851C407.575 225.083 407.26 225.386 407.013 225.741C406.767 226.097 406.594 226.498 406.504 226.921C406.415 227.344 406.411 227.781 406.492 228.206C406.573 228.631 406.739 229.035 406.979 229.395L427.951 262.426C428.183 262.791 428.486 263.106 428.841 263.353C429.196 263.599 429.598 263.772 430.021 263.862C430.444 263.951 430.881 263.955 431.306 263.874C431.73 263.793 432.135 263.627 432.495 263.388L481.867 232.017C482.587 231.534 483.091 230.789 483.271 229.94C483.45 229.091 483.291 228.206 482.828 227.473V227.473Z" fill="#1B2153"/>
<path d="M424.893 252.727L414.407 236.299C414.298 236.122 414.147 235.976 413.969 235.871C413.79 235.766 413.588 235.707 413.381 235.698C413.174 235.69 412.968 235.732 412.781 235.821C412.595 235.911 412.433 236.045 412.309 236.211L410.649 238.396C410.486 238.606 410.39 238.86 410.374 239.125C410.359 239.39 410.424 239.654 410.562 239.881L419.999 254.737C420.125 254.96 420.324 255.134 420.562 255.23C420.801 255.325 421.064 255.336 421.31 255.261L424.019 254.737C424.223 254.683 424.411 254.583 424.571 254.446C424.731 254.308 424.858 254.136 424.942 253.943C425.026 253.75 425.065 253.54 425.056 253.329C425.048 253.119 424.992 252.913 424.893 252.727V252.727Z" fill="#1A73E8"/>
<path d="M427.951 186.051C427.951 186.051 428.476 201.256 428.563 204.489C428.65 207.722 428.476 214.101 429.262 217.16C430.049 220.218 431.359 227.908 433.719 228.432C436.078 228.957 433.544 218.995 433.544 217.073C433.736 214.866 434.086 212.675 434.593 210.519C434.593 210.519 435.466 215.325 436.078 217.422C436.69 219.519 440.709 226.073 442.282 225.811C443.855 225.549 441.933 220.655 440.709 217.684C439.573 214.975 439.137 209.295 439.137 209.295C439.818 211.032 440.606 212.724 441.496 214.364C442.545 216.111 446.127 221.529 447.613 221.267C449.098 221.005 446.652 215.5 445.166 212.965C444.325 211.643 443.787 210.151 443.593 208.596C443.593 208.596 445.953 210.956 447.438 212.092C448.924 213.228 454.167 215.762 454.604 214.451C455.04 213.14 452.681 211.742 450.496 209.732C448.312 207.722 445.953 203.703 445.428 203.004C444.904 202.305 446.389 196.188 444.03 192.081C441.671 187.974 440.273 186.313 439.661 183.517C439.049 180.721 428.214 184.041 427.951 186.051Z" fill="#F4CBC2"/>
<path d="M373.337 67.9087C373.337 67.9087 383.298 66.9475 395.27 81.9776C407.242 97.0076 419.039 109.591 422.359 115.533C425.68 121.475 433.02 143.758 436.69 161.322C440.36 178.887 440.71 182.032 440.622 183.955C440.535 185.703 431.709 188.149 425.942 188.062C425.435 188.072 424.937 187.927 424.515 187.646C424.094 187.364 423.768 186.961 423.583 186.489C421.311 181.159 413.359 162.983 410.213 156.341C406.543 148.564 402.261 137.03 401.737 136.243C401.212 135.457 377.356 111.164 372.9 104.785C368.443 98.4058 364.161 88.0945 365.123 79.0065C366.171 69.1321 371.239 67.8213 373.337 67.9087Z" fill="#FFD200"/>
<path d="M371.588 375.936C371.937 377.072 372.724 381.616 373.336 385.811C379.868 386.787 386.543 385.972 392.647 383.451C392.211 379.082 391.774 374.538 391.774 374.538C391.774 372.092 370.889 373.839 371.588 375.936Z" fill="#1B2153"/>
<path d="M373.337 385.723C373.861 389.393 374.385 392.626 374.385 392.626C374.385 392.626 376.744 398.131 382.687 398.131C388.629 398.131 393.435 393.15 393.347 391.053C393.26 390.092 392.998 386.771 392.648 383.363C386.546 385.895 379.869 386.711 373.337 385.723Z" fill="#F4C2C9"/>
<path d="M393.259 389.391C392.404 390.34 391.5 391.244 390.551 392.1C389.589 392.973 386.618 390.265 382.424 390.789C378.229 391.313 376.919 392.973 376.919 392.973C375.949 392.778 375.029 392.392 374.21 391.837C374.129 394.022 373.686 396.177 372.899 398.217C371.588 401.625 364.947 411.586 364.947 413.509C364.947 415.431 365.384 416.917 366.782 417.528C368.18 418.14 377.443 418.228 385.22 418.402C392.997 418.577 399.027 419.014 399.901 415.955C400.775 412.897 397.192 403.372 395.706 397.517C394.221 391.663 394.483 389.478 393.259 389.391Z" fill="#1B2153"/>
<path d="M391.948 405.557C391.948 405.557 382.598 400.577 373.685 405.557" stroke="white" stroke-width="1.8" stroke-linecap="round" stroke-linejoin="round"/>
<path d="M390.2 400.664C385.345 399.284 380.201 399.284 375.345 400.664" stroke="white" stroke-width="1.8" stroke-linecap="round" stroke-linejoin="round"/>
<path d="M280.883 381.964C290.845 385.372 301.157 383.275 301.069 383.362C301.419 378.469 301.856 373.313 301.856 373.313C300.545 370.255 281.757 368.857 281.582 370.167C281.582 370.867 281.233 376.634 280.883 381.964Z" fill="#1B2153"/>
<path d="M280.358 391.226C280.358 391.226 281.669 395.333 287.349 397.43C293.029 399.527 300.282 393.847 300.369 392.187C300.457 391.488 300.719 387.468 301.068 383.361C301.068 383.274 290.844 385.371 280.883 381.963C280.62 386.769 280.358 391.226 280.358 391.226Z" fill="#F4C2C9"/>
<path d="M300.544 390.966C301.156 390.966 301.593 391.84 301.942 397.345C302.292 402.85 304.04 414.996 301.942 416.831C299.845 418.666 257.988 418.142 253.182 417.793C248.376 417.443 245.754 414.297 247.24 412.2C248.725 410.103 259.037 406.258 268.125 400.141C277.213 394.024 279.397 392.713 280.446 391.228C280.446 391.228 279.921 386.247 282.63 387.033C285.339 387.82 287.174 394.286 290.67 395.16C294.165 396.034 294.602 390.616 300.544 390.966Z" fill="#1B2153"/>
<path d="M266.115 400.314C266.115 400.314 268.474 399.615 273.805 405.295" stroke="white" stroke-width="1.8" stroke-linecap="round" stroke-linejoin="round"/>
<path d="M271.883 396.557C271.883 396.557 276.078 396.382 280.884 402.587" stroke="white" stroke-width="1.8" stroke-linecap="round" stroke-linejoin="round"/>
<path d="M389.326 384.587L388.802 381.092" stroke="#63737A" stroke-width="1.8" stroke-linecap="round" stroke-linejoin="round"/>
<path d="M383.297 385.896L382.773 382.4" stroke="#63737A" stroke-width="1.8" stroke-linecap="round" stroke-linejoin="round"/>
<path d="M376.656 386.159L376.045 383.014" stroke="#63737A" stroke-width="1.8" stroke-linecap="round" stroke-linejoin="round"/>
<path d="M297.136 383.799L297.398 380.129" stroke="#63737A" stroke-width="1.8" stroke-linecap="round" stroke-linejoin="round"/>
<path d="M289.884 383.713L290.146 379.693" stroke="#63737A" stroke-width="1.8" stroke-linecap="round" stroke-linejoin="round"/>
<path d="M283.33 382.662L283.592 378.904" stroke="#63737A" stroke-width="1.8" stroke-linecap="round" stroke-linejoin="round"/>
<path d="M351.02 38.7138C350.302 33.1132 347.024 28.5753 343.698 28.5783C340.372 28.5812 338.257 33.1237 338.975 38.7244C339.693 44.325 342.971 48.8629 346.297 48.86C349.623 48.857 351.738 44.3145 351.02 38.7138Z" fill="#AFCCF2"/>
<path d="M352.303 38.1767C351.586 32.5761 348.308 28.0382 344.981 28.0411C341.655 28.0441 339.541 32.5866 340.258 38.1873C340.976 43.7879 344.254 48.3258 347.58 48.3228C350.906 48.3199 353.021 43.7774 352.303 38.1767Z" fill="#1A73E8"/>
<path d="M348.26 30.732L343.475 29.5724C343.475 29.5724 342.237 19.343 337.5 15.4994C333.229 12.0341 326.281 10.2519 316.058 10.2519C320 8.00139 332 6.5 340.533 12.9215C346.113 18.3757 348.26 30.732 348.26 30.732Z" fill="#1A73E8"/>
</svg>
