<svg width="287" height="269" viewBox="0 0 287 269" fill="none" xmlns="http://www.w3.org/2000/svg">
<path d="M168.112 226.795C164.521 224.665 161.255 222.029 158.415 218.968C148.935 209.184 139.829 194.068 133.098 181.284C128.471 172.5 124.975 164.812 123.244 160.698C123.148 160.481 123.053 160.246 122.957 160.002C122.714 159.402 122.444 158.732 122.174 158.011C116.373 142.86 104.424 101.576 129.654 95.079C139.786 92.4699 145.1 96.8184 156.032 113.838C158.163 117.152 160.511 120.944 163.146 125.258C179.349 151.792 200.421 195.547 202.396 207.531C204.37 219.516 184.323 235.814 168.112 226.795Z" fill="#FED81D"/>
<path d="M156.041 113.829C151.414 113.725 145.978 115.699 141.116 121.03C137.038 125.509 133.367 132.336 130.924 142.303C129.579 148.269 126.541 153.72 122.174 158.001C116.373 142.851 104.424 101.566 129.654 95.0695C139.794 92.4778 145.117 96.8524 156.041 113.829Z" fill="#FFE05C"/>
<path d="M158.414 218.978C148.934 209.194 139.828 194.079 133.097 181.294C128.47 172.51 124.974 164.822 123.243 160.708C123.148 160.491 123.052 160.256 122.956 160.012L136.419 148.332C144.368 148.576 151.326 171.188 144.742 176.867C139.115 181.711 139.524 191.556 150.169 193.391C158.005 194.713 158.466 213.125 158.414 218.978Z" fill="#FCC71F"/>
<path d="M95.0747 118.1C79.4201 116.856 77.4894 102.672 78.4808 98.2448C79.4723 93.818 82.3162 73.5801 83.2816 64.0916C85.6385 40.8445 109.938 49.0806 109.781 70.397C109.781 71.8407 109.677 75.1977 109.607 79.2592C109.538 83.3208 109.503 88.2868 109.651 92.557C109.651 92.7744 109.651 92.9918 109.651 93.2093C109.981 101.758 110.755 119.344 95.0747 118.1Z" fill="#FEBD9D"/>
<path d="M109.652 92.5566C94.3448 92.9219 94.0926 82.5724 95.0319 75.2148L109.608 79.2589C109.538 83.3899 109.504 88.2864 109.652 92.5566Z" fill="#F4A789"/>
<path d="M141.117 121.047C140.369 126.961 139.325 133.014 138.36 138.163C137.49 142.937 136.673 146.929 136.281 149.338C136.229 149.669 136.177 149.973 136.142 150.208C135.777 152.817 134.594 165.08 133.098 181.256C130.611 208.217 127.245 245.936 125.271 267.966H24.2812C25.151 261.26 26.1946 253.329 27.2295 245.292C29.8386 224.889 32.4999 203.877 32.6043 201.068C32.813 195.572 30.2039 160.844 27.6035 142.311C27.5252 141.763 27.447 141.224 27.3687 140.702C24.9161 124.117 30.3083 116.272 38.2487 113.333C38.954 113.068 39.6742 112.844 40.4055 112.663C47.9371 110.767 60.1304 106.914 73.9239 102.783C76.7591 101.913 79.6639 101.044 82.6209 100.174C83.7776 99.8435 85.0647 99.513 86.4736 99.1912C87.0303 99.5913 87.6217 99.9914 88.213 100.391L89.2045 101C89.3958 101.122 89.5872 101.235 89.7785 101.339C90.9091 102.009 92.1267 102.653 93.4138 103.253C93.8835 103.479 94.3705 103.696 94.8663 103.905C95.3446 104.114 95.8316 104.314 96.3361 104.505H96.3795C96.7796 104.662 97.1971 104.81 97.6145 104.957H97.6841L98.2929 105.166L99.5539 105.575C100.545 105.888 101.563 106.166 102.615 106.445C103.72 105.201 104.65 104.035 105.442 102.966L106.138 101.983L106.572 101.331C106.833 100.922 107.077 100.539 107.294 100.165C107.512 99.7913 107.773 99.2956 107.973 98.9303C108.369 98.1702 108.718 97.386 109.016 96.5821L109.208 96.0168C110.782 95.8864 112.399 95.7646 114.061 95.6602C116.13 95.5211 118.261 95.408 120.453 95.3037C123.398 95.1645 126.448 95.0659 129.602 95.008C131.887 94.9558 134.223 94.9297 136.612 94.9297C142.891 94.9906 142.796 107.671 141.117 121.047Z" fill="#FED81D"/>
<path d="M138.368 138.184C137.359 143.611 136.455 148.037 136.142 150.255C135.776 152.864 134.594 165.127 133.098 181.303" stroke="#F7AD2B" stroke-width="0.75" stroke-linecap="round" stroke-linejoin="round"/>
<path d="M141.117 121.048C137.038 125.527 133.368 132.355 130.924 142.321C130.017 146.103 128.473 149.703 126.358 152.967C125.16 154.793 123.756 156.477 122.175 157.985C118.745 161.255 114.466 163.497 109.825 164.455C107.761 164.885 105.654 165.069 103.546 165.003C97.6844 164.829 91.3703 162.829 84.9345 158.698C81.6129 156.527 78.5211 154.024 75.707 151.227C70.541 146.131 65.6706 142.356 60.9221 139.878C50.2247 134.32 39.9361 135.233 27.6386 142.339C27.5603 141.791 27.482 141.252 27.4037 140.73C24.9512 124.145 30.3433 116.3 38.2837 113.36C38.9891 113.095 39.7092 112.872 40.4406 112.691C47.9722 110.795 60.1654 106.942 73.9589 102.811C76.7941 101.941 79.6989 101.071 82.6559 100.202C83.8126 99.8712 85.0998 99.5407 86.5087 99.219C87.074 99.619 87.6567 100.019 88.2481 100.419C91.7792 102.667 95.6006 104.423 99.6064 105.637C100.598 105.95 101.615 106.229 102.668 106.507C103.772 105.263 104.703 104.098 105.494 103.028C106.982 101.08 108.186 98.931 109.069 96.6446C109.138 96.4446 109.208 96.2533 109.26 96.0793C110.834 95.9489 112.452 95.8271 114.113 95.7227C116.183 95.5836 118.322 95.4705 120.514 95.3662C123.459 95.227 126.509 95.1284 129.663 95.0705C131.948 95.0183 134.284 94.9922 136.673 94.9922C142.891 94.9922 142.796 107.672 141.117 121.048Z" fill="#FFE05C"/>
<path d="M49.9466 161.133C49.9466 161.133 69.2627 165.046 61.792 180.649C55.5214 193.738 62.5225 199.608 69.4453 195.173C77.003 190.329 91.501 196.112 91.501 207.149C91.501 228.022 45.5024 241.702 39.7972 214.185C34.092 186.667 30.4479 158.184 49.9466 161.133Z" fill="#FCC71F"/>
<path d="M126.359 152.966L127.289 154.027L111.391 180.162L110.687 187.85L84.2392 161.168L84.9784 158.733L87.0831 151.775L67.4278 132.207C67.5844 130.467 72.0112 111.508 74.1158 103.011L78.3861 102.228L88.2746 100.428C91.8057 102.676 95.6271 104.431 99.6329 105.646C100.624 105.959 101.642 106.237 102.694 106.516C103.799 105.272 104.729 104.107 105.521 103.037C107.009 101.089 108.212 98.9396 109.095 96.6532L114.14 95.7314C116.209 95.5922 118.349 95.4792 120.541 95.3748L130.977 131.285L121.332 147.253L126.359 152.966Z" fill="#F7AD2B"/>
<path d="M116.722 101.282C116.174 110.953 114.678 125.112 113.104 138.427C111.939 148.307 110.721 157.717 109.825 164.518C108.956 170.815 108.434 174.833 108.434 174.833C106.616 171.675 104.984 168.414 103.546 165.066C101.807 161.091 99.7368 156.264 97.4582 150.664C92.7792 139.357 86.9609 124.825 79.812 107.787L78.377 102.299L88.2655 100.499C91.7965 102.747 95.6179 104.503 99.6238 105.717C100.615 106.03 101.633 106.309 102.685 106.587C103.79 105.343 104.72 104.178 105.512 103.108C106.999 101.16 108.203 99.011 109.086 96.7246L114.13 95.8027L116.722 101.282Z" fill="white"/>
<path d="M110.33 107.36C110.33 107.36 110.025 108.978 109.512 110.995C108.642 114.37 107.199 118.875 105.546 118.875C103.894 118.875 100.963 116.344 98.7451 114.283C97.2144 112.857 96.0751 111.674 96.0751 111.674L99.6061 105.716C100.598 106.029 101.615 106.308 102.667 106.586C103.772 105.342 104.703 104.177 105.494 103.107L110.33 107.36Z" fill="#1A73E8"/>
<path d="M113.104 138.423C110.851 157.478 108.433 174.803 108.433 174.803C105.824 170.515 102.215 162.236 97.4229 150.634C98.71 144.128 101.337 128.735 103.18 115.698L107.12 114.828C108.807 120.255 111.469 131.405 113.104 138.423Z" fill="#1A73E8"/>
<path d="M102.65 106.533L98.7275 114.282L96.4141 118.874C96.4141 118.874 82.4989 112.255 74.0802 103.045C74.022 102.976 73.9724 102.9 73.9323 102.819C72.906 100.497 76.9328 88.7037 79.4984 92.5565C81.4177 95.1725 83.771 97.4404 86.456 99.2619C90.456 102.099 94.8876 104.272 99.5798 105.698C100.58 106.002 101.632 106.289 102.65 106.533Z" fill="#1B2153"/>
<path d="M112.122 112.701L109.513 110.962L102.668 106.5C103.772 105.256 104.703 104.091 105.495 103.021C107.115 100.919 108.387 98.5699 109.26 96.0636C109.527 95.3262 109.677 94.5514 109.704 93.7676C111.374 93.8074 112.962 94.5043 114.122 95.707C114.901 96.6018 115.419 97.6942 115.618 98.864C116.609 104.065 112.122 112.701 112.122 112.701Z" fill="#1B2153"/>
<path d="M103.303 268.002L110.686 187.885L111.391 180.197L108.434 174.805" stroke="#F7AD2B" stroke-width="0.75" stroke-linecap="round" stroke-linejoin="round"/>
<path d="M254.891 92.8231C252.282 89.3443 249.882 87.9876 247.69 87.8049C247.899 87.3353 248.099 86.8482 248.299 86.3438C250.038 81.9431 248.386 80.2559 246.89 80.6995C245.394 81.143 237.88 89.4748 237.019 91.1359C234.714 95.6236 228.322 113.47 227.748 115.131C229.052 125.733 243.046 129.133 243.046 129.133C244.516 124.715 247.351 121.993 250.473 119.836C253.595 117.679 255.065 114.174 258.3 107.304C260.623 102.468 260.327 100.189 254.891 92.8231Z" fill="#FEBD9D"/>
<path d="M254.891 92.8231C252.282 89.3443 249.881 87.9876 247.69 87.8049C247.898 87.3353 248.098 86.8482 248.298 86.3438C250.038 81.9431 248.385 80.2559 246.889 80.6995C245.394 81.143 237.879 89.4748 237.018 91.1359" stroke="#EF8A66" stroke-width="0.75" stroke-linecap="round" stroke-linejoin="round"/>
<path d="M250.968 137.768C252.551 134.133 244.602 130.193 244.602 130.193L240.254 138.212C240.254 138.212 247.629 142.917 250.968 137.768Z" fill="#FCC71F"/>
<path d="M222.851 120.915C225.939 116.21 228.417 112.357 228.417 112.357C233.74 119.517 240.221 125.737 247.594 130.76L243.655 138.179C238.929 137.508 234.482 135.54 230.809 132.492C227.136 129.444 224.382 125.436 222.851 120.915Z" fill="#1B2153"/>
<path d="M168.121 226.791C176.818 235.488 197.282 237.323 216.294 200.7C235.305 164.077 250.943 137.925 250.943 137.925C250.943 137.925 241.445 140.108 224.408 116.939C224.408 116.939 206.875 140.421 189.168 161.903C168.764 186.646 152.605 211.232 168.121 226.791Z" fill="#FED81D"/>
<path d="M224.409 116.932C224.409 116.932 206.875 140.414 189.168 161.895C182.962 169.244 177.217 176.97 171.966 185.029" stroke="#F7AD2B" stroke-width="0.75" stroke-linecap="round" stroke-linejoin="round"/>
<path d="M244.689 109.712C244.689 109.712 248.507 100.85 243.411 94.3881C243.411 94.3881 247.072 89.2743 247.69 87.8045" stroke="#EF8A66" stroke-width="0.75" stroke-linecap="round" stroke-linejoin="round"/>
<path d="M244.69 94.8763L285.001 2.26172" stroke="#999999" stroke-opacity="0.5" stroke-width="3" stroke-linecap="round" stroke-linejoin="round"/>
<path d="M262.701 98.5633C266.076 100.303 260.162 109 257.109 108.391C253.204 107.556 259.118 96.7543 262.701 98.5633Z" fill="#FEBD9D" stroke="#EF8A66" stroke-width="0.75" stroke-linecap="round" stroke-linejoin="round"/>
<path d="M259.918 91.9707C264.092 94.1536 256.682 105.582 252.908 104.729C249.133 103.877 255.482 89.6486 259.918 91.9707Z" fill="#FEBD9D" stroke="#EF8A66" stroke-width="0.75" stroke-linecap="round" stroke-linejoin="round"/>
<path d="M257.308 87.9183C261.274 90.5709 252.769 102.703 249.072 101.503C245.376 100.303 253.082 85.1265 257.308 87.9183Z" fill="#FEBD9D" stroke="#EF8A66" stroke-width="0.75" stroke-linecap="round" stroke-linejoin="round"/>
<path d="M254.7 79.1781C259.109 80.9958 253.16 94.5371 249.308 94.1283C245.455 93.7195 249.986 77.2387 254.7 79.1781Z" fill="#FEBD9D" stroke="#EF8A66" stroke-width="0.75" stroke-linecap="round" stroke-linejoin="round"/>
<path d="M60.5827 151.129C60.4871 151.938 60.374 152.764 60.2349 153.591C60.1566 154.043 60.087 154.46 60 154.965C59.9131 155.469 59.8261 155.895 59.7217 156.365C59.5652 157.165 59.3913 157.974 59.1912 158.783C58.8868 160.044 58.5737 161.392 58.2606 162.74C58.1476 163.201 58.0432 163.671 57.9389 164.14C57.6142 165.549 57.2837 166.999 56.9474 168.489C56.8343 168.984 56.7213 169.498 56.6082 170.011C56.5386 170.306 56.4777 170.611 56.4082 170.88C56.2516 171.55 56.1038 172.22 55.9559 172.907C55.008 177.186 53.9991 181.717 52.9294 186.344C52.6685 187.483 52.3988 188.631 52.1292 189.779C52.051 190.127 51.964 190.483 51.877 190.831L51.303 193.24C51.303 193.423 51.2161 193.614 51.1639 193.806C50.9551 194.675 50.7464 195.545 50.529 196.415C50.3637 197.102 50.1898 197.78 50.0159 198.467C49.8419 199.154 49.7289 199.615 49.5723 200.207C49.1462 201.85 48.7026 203.503 48.2678 205.129L47.7459 207.034C46.5631 211.252 45.3282 215.348 44.0149 219.21C43.841 219.723 43.6583 220.236 43.4844 220.732C43.0409 221.993 42.6147 223.228 42.1277 224.428C41.945 224.906 41.7624 225.385 41.5711 225.854C40.8985 227.541 40.2114 229.15 39.5099 230.681C39.1359 231.481 38.7619 232.264 38.3793 233.012C38.2836 233.212 38.1792 233.412 38.0749 233.603C37.7096 234.299 37.3443 234.969 36.9703 235.612C36.5964 236.256 36.2572 236.83 35.9006 237.404V237.465C35.5179 238.047 35.144 238.613 34.7526 239.152C33.9709 240.242 33.0981 241.263 32.1435 242.205C32.013 242.344 31.8739 242.474 31.7347 242.596C30.9488 243.348 30.0724 244 29.1256 244.535L28.6212 244.788H28.5603C28.3516 244.886 28.1429 244.973 27.9341 245.049C27.7167 245.136 27.4993 245.205 27.2732 245.275C11.2185 249.936 2.13007 240.848 0.642884 227.281C0.516729 226.029 0.458653 224.772 0.468933 223.515C0.468933 213.261 3.4955 195.293 7.24392 178.934C9.37469 169.637 11.7403 160.861 13.9145 154.313L14.9582 151.147C21.0461 132.622 26.1686 115.228 38.2923 113.324C50.1289 111.471 59.6261 122.76 60.9045 139.841C61.1731 143.605 61.0653 147.387 60.5827 151.129Z" fill="#FED81D"/>
<path d="M27.2295 245.327C27.4537 245.263 27.6743 245.188 27.8905 245.101C28.0992 245.025 28.3079 244.938 28.5166 244.84H28.5775C28.7507 244.766 28.9192 244.682 29.082 244.587C30.0287 244.052 30.9052 243.4 31.6911 242.648C31.8302 242.526 31.9607 242.396 32.0998 242.257C33.0544 241.315 33.9272 240.294 34.7089 239.204C35.1003 238.673 35.483 238.108 35.8569 237.517V237.456C36.2222 236.882 36.5788 236.29 36.9267 235.664C37.3035 235.021 37.6688 234.351 38.0225 233.655C38.1269 233.464 38.2312 233.264 38.3269 233.064C38.7096 232.316 39.0835 231.533 39.4575 230.733C40.1649 229.202 40.8519 227.593 41.5187 225.906C41.71 225.437 41.8927 224.958 42.0753 224.48C42.5363 223.28 42.945 222.045 43.432 220.784C43.606 220.279 43.7886 219.775 43.9626 219.262C45.2758 215.4 46.5108 211.304 47.6936 207.086C47.8675 206.46 48.0415 205.825 48.2154 205.181C48.659 203.555 49.0851 201.902 49.52 200.259C49.6765 199.676 49.8157 199.102 49.9635 198.519C50.1114 197.937 50.3114 197.154 50.4766 196.467C50.694 195.597 50.9028 194.727 51.1115 193.858C51.1637 193.666 51.2072 193.475 51.2507 193.292C51.442 192.484 51.642 191.683 51.8247 190.883C51.9116 190.535 51.9986 190.179 52.0769 189.831C52.3465 188.683 52.6161 187.535 52.877 186.396C53.9467 181.769 54.9556 177.238 55.9036 172.959C56.0601 172.28 56.208 171.602 56.3558 170.932C56.4254 170.628 56.4863 170.324 56.5559 170.063L56.895 168.541C57.2313 167.033 57.5618 165.584 57.8865 164.192C57.9909 163.723 58.0952 163.253 58.2083 162.792C58.5214 161.418 58.8345 160.096 59.1389 158.835C59.3389 158.026 59.5128 157.217 59.6694 156.417C59.7737 155.947 59.8694 155.478 59.9477 155.017C60.026 154.556 60.1129 154.095 60.1825 153.643C60.3217 152.773 60.4347 151.99 60.5304 151.181C60.5304 150.99 60.5826 150.799 60.6 150.607" stroke="#F7AD2B" stroke-width="0.75" stroke-linecap="round" stroke-linejoin="round"/>
<path d="M60.8865 139.92C50.1892 134.363 39.9006 135.276 27.603 142.381C23.1566 145.006 18.9149 147.962 14.9141 151.226C21.002 132.701 26.1245 115.307 38.2482 113.403C50.0848 111.516 59.582 122.804 60.8865 139.92Z" fill="#FFE05C"/>
<path d="M36.9703 235.628C36.6224 236.254 36.2659 236.845 35.9006 237.419V237.48C35.5266 238.072 35.144 238.637 34.7526 239.167C33.9709 240.257 33.0981 241.278 32.1435 242.22C32.013 242.359 31.8739 242.49 31.7347 242.611C30.9488 243.364 30.0724 244.015 29.1256 244.551L28.6212 244.803H28.5603C28.3516 244.902 28.1429 244.989 27.9341 245.064C27.7167 245.151 27.4993 245.221 27.2732 245.29C11.2185 249.952 2.13007 240.863 0.642884 227.296C0.516729 226.045 0.458653 224.788 0.468933 223.53C0.468933 213.276 3.4955 195.308 7.24392 178.949C16.054 184.115 18.4631 195.317 14.0711 207.51C13.0968 210.196 11.8739 212.784 10.4183 215.242C0.74724 231.714 20.5938 243.551 36.9703 235.628Z" fill="#FCC71F"/>
<path d="M104.111 36.1567C108.016 33.7563 112.948 33.3823 112.756 50.2023L104.111 36.1567Z" fill="#BF8228"/>
<path d="M107.938 34.9118C106.782 37.4942 105.269 39.9008 103.441 42.0608L104.503 61.3073L83.6297 62.0031L80.377 62.1161C78.4723 55.3759 78.1853 50.81 76.4285 49.6533C75.9864 49.285 75.6784 48.7808 75.5526 48.2192C75.4268 47.6577 75.4901 47.0703 75.7328 46.5485C76.3851 44.7047 74.2282 45.7396 72.8367 43.4262C72.0626 42.1391 71.8365 36.7904 77.6548 37.4427C75.7502 33.7203 78.6985 30.7373 85.5778 30.9982C84.0036 30.2415 83.5688 27.6498 87.3868 27.4672C92.0037 27.1932 96.6329 27.1932 101.25 27.4672C103.045 27.6163 104.766 28.2539 106.225 29.311C107.119 29.8979 107.78 30.7791 108.093 31.802C108.405 32.8249 108.351 33.925 107.938 34.9118Z" fill="#BF8228"/>
<path d="M107.937 34.911C106.782 37.4933 105.268 39.9 103.441 42.06L104.502 61.3065L83.6291 62.0022C84.3074 50.9048 82.7594 47.1738 82.0202 43.7385C81.2809 40.3032 82.6724 35.772 87.047 36.7809C91.4216 37.7897 98.6402 35.2241 97.4313 32.8324C96.5616 31.093 100.188 27.3098 106.224 29.2927C107.122 29.8804 107.786 30.7646 108.099 31.7914C108.412 32.8181 108.355 33.9221 107.937 34.911Z" fill="#B57724"/>
<path d="M85.5693 31.0078L93.6836 31.4427" stroke="#9B621F" stroke-width="0.75" stroke-linecap="round" stroke-linejoin="round"/>
<path d="M77.6465 37.4434L86.4392 38.3131" stroke="#9B621F" stroke-width="0.75" stroke-linecap="round" stroke-linejoin="round"/>
<path d="M109.182 82.6922C95.9012 85.3013 84.8994 66.4288 84.8994 66.4288C78.7159 67.6811 76.4285 61.7324 78.2636 57.7318C78.4589 57.2998 78.6979 56.8889 78.9768 56.5055C79.48 55.7332 80.2028 55.1292 81.0521 54.7712C81.9015 54.4131 82.8385 54.3175 83.7427 54.4965C85.4727 54.9377 87.0172 55.9186 88.1521 57.2969C89.4045 58.671 90.8569 57.1143 89.8306 54.6878C88.8044 52.2613 87.7695 43.9035 89.0305 42.1902C90.2916 40.4769 101.754 38.12 105.19 37.946C105.413 37.932 105.636 37.932 105.859 37.946C106.018 37.9713 106.169 38.0307 106.303 38.12C107.025 38.6629 107.646 39.3282 108.138 40.0855C108.555 40.6421 109.008 41.3031 109.434 42.0336C110.655 44.0436 111.764 46.1195 112.756 48.252C113.113 49.0087 113.469 49.7827 113.808 50.5654C114.148 51.3481 114.426 52.0004 114.678 52.7223C115.174 53.9312 115.617 55.1313 116.009 56.3054C116.322 57.236 116.6 58.1492 116.835 59.0189C116.835 59.0711 116.835 59.1233 116.878 59.1755C119.166 67.7333 120.427 80.4658 109.182 82.6922Z" fill="#FEBD9D"/>
<path d="M101.111 60.4194C103.842 60.8977 107.956 60.6107 109.626 58.9844C109.626 58.9844 110.252 64.881 106.721 65.368C102.633 65.9333 101.111 60.4194 101.111 60.4194Z" fill="white" stroke="#EF8A66" stroke-width="0.75" stroke-linecap="round" stroke-linejoin="round"/>
<path d="M112.504 75.5625C112.95 76.9822 112.815 78.5207 112.13 79.8414" stroke="#EF8A66" stroke-width="0.75" stroke-linecap="round" stroke-linejoin="round"/>
<path d="M84.9082 66.4304C86.0223 66.1317 87.0659 65.6143 87.9782 64.9084" stroke="#EF8A66" stroke-width="0.75" stroke-linecap="round" stroke-linejoin="round"/>
<path d="M80.7598 59.812C82.734 57.2029 86.5259 58.8466 87.5695 61.4992" stroke="#EF8A66" stroke-width="0.75" stroke-linecap="round" stroke-linejoin="round"/>
<path d="M87.0385 60.4902C82.9422 57.4114 81.5072 64.3603 86.2906 63.3689" stroke="#EF8A66" stroke-width="0.75" stroke-linecap="round" stroke-linejoin="round"/>
<path d="M103.641 45.6445C103.519 47.4622 106.015 50.4018 108.311 51.1063C110.607 51.8107 111.32 52.4456 110.72 54.3328" stroke="#EF8A66" stroke-width="0.75" stroke-linecap="round" stroke-linejoin="round"/>
<path d="M92.5692 45.7222C92.9171 47.1659 100.779 45.4787 99.7181 42.7913C98.6571 40.1039 91.9865 43.3827 92.5692 45.7222Z" fill="#BF8228"/>
<path d="M103.163 41.0698C103.059 42.8092 109.973 42.757 109.947 41.4612C109.921 40.1653 103.372 37.9128 103.163 41.0698Z" fill="#BF8228"/>
<path d="M98.9453 49.6364C98.9453 49.879 99.0172 50.1161 99.152 50.3177C99.2867 50.5194 99.4782 50.6766 99.7023 50.7694C99.9264 50.8622 100.173 50.8865 100.411 50.8392C100.649 50.7918 100.867 50.6751 101.039 50.5036C101.21 50.3321 101.327 50.1135 101.374 49.8757C101.422 49.6378 101.397 49.3912 101.305 49.1672C101.212 48.9431 101.055 48.7516 100.853 48.6168C100.651 48.4821 100.414 48.4102 100.172 48.4102C99.8464 48.4102 99.5344 48.5394 99.3045 48.7693C99.0745 48.9993 98.9453 49.3112 98.9453 49.6364Z" fill="#683F1D"/>
<path d="M108.433 49.0776C109.111 49.0776 109.66 48.5285 109.66 47.8513C109.66 47.174 109.111 46.625 108.433 46.625C107.756 46.625 107.207 47.174 107.207 47.8513C107.207 48.5285 107.756 49.0776 108.433 49.0776Z" fill="#683F1D"/>
<path d="M99.4588 59.1514C98.7022 60.8473 96.2496 61.4126 93.971 60.4038C91.6924 59.3949 90.4922 57.1946 91.2054 55.4986C91.9185 53.8027 94.4146 53.2461 96.6932 54.255C98.9718 55.2638 100.207 57.4555 99.4588 59.1514Z" fill="#F4AF90"/>
<path d="M116.905 59.1426C115.061 59.9602 113.096 59.6819 112.209 58.3599C111.174 56.8205 112.009 54.4462 114.079 53.0547C114.28 52.9201 114.489 52.7981 114.705 52.6895C115.201 53.8983 115.644 55.0985 116.035 56.2726C116.349 57.2032 116.627 58.1164 116.862 58.9861C116.879 59.0383 116.888 59.0905 116.905 59.1426Z" fill="#F4AF90"/>
<path d="M141.09 198.957C150.405 197.757 153.649 195.652 157.258 194.269C160.867 192.886 163.572 193.069 163.99 195.139C163.99 195.139 167.59 193.53 168.799 194.173C170.599 195.139 169.469 198.522 163.998 200.87C158.528 203.218 142.352 209.863 139.351 208.958C136.351 208.054 134.072 202.279 141.09 198.957Z" fill="#FEBD9D" stroke="#EF8A66" stroke-width="0.75" stroke-linecap="round" stroke-linejoin="round"/>
<path d="M117.374 227.265C117.374 227.265 138.734 217.594 143.978 214.655C149.222 211.715 165.399 204.279 166.964 201.67C168.53 199.061 165.982 198.809 162.851 199.931C159.72 201.053 147.37 205.201 146.187 205.149C145.004 205.097 138.36 205.149 138.36 205.149C138.899 199.931 147.544 196.356 148.796 193.843C150.188 191.138 146.248 191.234 143.761 191.973C141.273 192.712 131.211 196.217 128.723 197.6C126.236 198.983 124.018 202.148 118.835 202.922L117.374 227.265Z" fill="#FEBD9D"/>
<path d="M158.702 207.053C162.825 204.861 166.277 202.809 166.965 201.678C168.53 199.069 165.982 198.817 162.851 199.939C159.72 201.06 147.37 205.209 146.187 205.157C145.005 205.105 138.36 205.157 138.36 205.157C138.899 199.939 147.544 196.364 148.796 193.851C150.188 191.146 146.248 191.241 143.761 191.981C142.308 192.416 138.247 193.79 134.638 195.138" stroke="#EF8A66" stroke-width="0.75" stroke-linecap="round" stroke-linejoin="round"/>
<path d="M147.1 201.671C152.753 199.854 162.293 196.001 163.989 195.166" stroke="#EF8A66" stroke-width="0.75" stroke-linecap="round" stroke-linejoin="round"/>
<path d="M138.36 205.148C138.245 205.801 138.245 206.47 138.36 207.123" stroke="#EF8A66" stroke-width="0.75" stroke-linecap="round" stroke-linejoin="round"/>
<path d="M109.294 202.957H118.869V230.405L110.285 232.057L109.294 202.957Z" fill="#1B2153"/>
<path d="M113.104 234.197C113.338 234.423 96.1705 238.485 76.0804 242.511C54.0683 246.921 28.5512 251.295 18.5844 250.539C4.66917 249.486 -1.78401 235.258 0.425035 223.578C1.13101 219.322 3.23666 215.423 6.40858 212.498C8.69805 210.494 11.2639 208.831 14.0272 207.558C17.0877 206.148 20.2967 205.087 23.5939 204.392H23.6809L24.7767 204.166L26.2291 203.897C26.8379 203.792 27.4467 203.697 28.0642 203.61L28.4555 203.557C28.8295 203.497 29.1948 203.453 29.5687 203.41L30.7689 203.27H30.8211L31.9778 203.157C32.3779 203.114 32.7866 203.079 33.1867 203.053L34.3869 202.966C35.1957 202.905 35.9958 202.862 36.796 202.836H37.6657H38.1701L40.4661 202.783H41.5358C42.4577 202.783 43.3709 202.783 44.2667 202.783H45.8409H45.9278L48.9196 202.853C50.659 202.853 52.3462 202.94 53.9291 202.983H55.6685H59.2517C72.5494 202.827 111.364 201.705 111.364 201.705C111.364 201.705 112.617 233.719 113.104 234.197Z" fill="#FED81D"/>
<path d="M111.39 201.67C111.39 201.67 72.5756 202.792 59.2779 202.957C50.4243 203.061 36.3004 201.592 23.6201 204.375" stroke="#F7AD2B" stroke-width="0.75" stroke-linecap="round" stroke-linejoin="round"/>
<path d="M76.0804 242.547C54.0682 246.956 28.5512 251.331 18.5844 250.574C4.66917 249.522 -1.78401 235.294 0.425035 223.614C1.13101 219.357 3.23666 215.458 6.40858 212.534C8.69805 210.53 11.2639 208.866 14.0272 207.594C13.0529 210.279 11.83 212.867 10.3744 215.325C0.729433 231.771 20.5934 243.608 36.9699 235.685C37.6273 235.379 38.2688 235.039 38.8919 234.668C52.4071 226.614 69.9229 237.929 76.0804 242.547Z" fill="#FCC71F"/>
<path d="M111.921 234.598C107.712 235.737 92.9271 239.138 76.081 242.512C54.0688 246.921 28.5517 251.296 18.585 250.539" stroke="#F7AD2B" stroke-width="0.75" stroke-linecap="round" stroke-linejoin="round"/>
</svg>
