<svg width="426" height="318" viewBox="0 0 426 318" fill="none" xmlns="http://www.w3.org/2000/svg">
<g filter="url(#filter0_d_11_55)">
<path opacity="0.6" fill-rule="evenodd" clip-rule="evenodd" d="M240.186 7.87338C286.51 12.7133 335.033 19.3457 368.592 45.0131C400.128 69.1328 404.855 106.123 413.148 140.161C420.407 169.954 428.653 201.1 413.407 228.95C398.818 255.603 365.841 272.106 333.417 285.815C304.649 297.979 272.571 299.003 240.186 302.192C202.239 305.927 164.747 315.321 128.375 306.001C82.2498 294.181 30.0585 278.478 10.6902 243.383C-8.93778 207.819 19.6832 168.674 31.8409 131.086C45.011 90.3692 41.85 40.5235 84.4558 15.327C127.12 -9.90424 187.337 2.35179 240.186 7.87338Z" fill="white"/>
<path d="M148.625 35.6924C149.749 34.8477 150.88 34.0171 152.032 33.2076" stroke="#FEE8E3" stroke-width="3" stroke-linecap="round" stroke-linejoin="round"/>
<path d="M158.847 28.7308C177.607 17.0806 199.235 10.8944 221.306 10.8652C230.547 10.8611 239.756 11.9503 248.741 14.1103" stroke="#FEE8E3" stroke-width="1.5" stroke-linecap="round" stroke-linejoin="round" stroke-dasharray="11.57 11.57"/>
<path d="M252.641 15.1309C253.994 15.5063 255.343 15.9052 256.687 16.3276" stroke="#FEE8E3" stroke-width="3" stroke-linecap="round" stroke-linejoin="round"/>
<path d="M159.402 283.052C158.201 282.348 157.007 281.574 155.833 280.806" stroke="#FEE8E3" stroke-width="3" stroke-linecap="round" stroke-linejoin="round"/>
<path d="M149.012 276.005C124.302 257.457 105.621 229.673 96.9371 197.081" stroke="#FEE8E3" stroke-width="1.5" stroke-linecap="round" stroke-linejoin="round" stroke-dasharray="11.9 11.9"/>
<path d="M95.8832 193.013C95.56 191.648 95.2532 190.275 94.9628 188.895" stroke="#FEE8E3" stroke-width="3" stroke-linecap="round" stroke-linejoin="round"/>
<path d="M349.778 175.844C349.605 177.252 349.413 178.646 349.202 180.026" stroke="#FEE8E3" stroke-width="3" stroke-linecap="round" stroke-linejoin="round"/>
<path d="M347.677 188.515C345.638 198.368 342.645 207.999 338.741 217.27" stroke="#FEE8E3" stroke-width="1.5" stroke-linecap="round" stroke-linejoin="round" stroke-dasharray="12.25 12.25"/>
<path d="M337.012 221.248C336.427 222.529 335.827 223.798 335.214 225.056" stroke="#FEE8E3" stroke-width="3" stroke-linecap="round" stroke-linejoin="round"/>
<path d="M125.56 227.519L86.9605 233.235C86.2708 233.334 85.569 233.173 84.9913 232.782C84.4136 232.392 84.0012 231.801 83.8341 231.123L79.3657 210.231C79.2926 209.904 79.2886 209.565 79.3539 209.237C79.4193 208.908 79.5525 208.597 79.7451 208.323C79.9376 208.049 80.1853 207.819 80.472 207.647C80.7588 207.475 81.0784 207.364 81.4102 207.323L120.009 201.615C120.699 201.516 121.401 201.677 121.979 202.067C122.556 202.457 122.969 203.049 123.136 203.726L127.604 224.57C127.684 224.899 127.693 225.242 127.631 225.576C127.569 225.91 127.437 226.226 127.244 226.505C127.051 226.784 126.801 227.018 126.51 227.193C126.22 227.368 125.896 227.479 125.56 227.519V227.519Z" fill="#F9F9F9" stroke="#FEE8E3" stroke-width="2" stroke-linecap="round" stroke-linejoin="round"/>
<path d="M85.0773 210.73C85.4918 210.653 108.087 218.058 108.087 218.058L118.625 204.74" stroke="#FEE8E3" stroke-width="2" stroke-linecap="round" stroke-linejoin="round"/>
<path d="M90.9089 225.935L103.485 216.558" stroke="#FEE8E3" stroke-width="2" stroke-linecap="round" stroke-linejoin="round"/>
<path d="M114.129 216.558L123.698 219.592" stroke="#FEE8E3" stroke-width="2" stroke-linecap="round" stroke-linejoin="round"/>
<path d="M141.782 259.956L131.735 261.85C131.6 261.875 131.474 261.935 131.37 262.026L125.047 267.559C124.938 267.651 124.807 267.712 124.666 267.734C124.525 267.756 124.381 267.739 124.25 267.685C124.118 267.63 124.004 267.54 123.92 267.425C123.837 267.309 123.786 267.173 123.775 267.031L122.7 250.355C122.69 250.214 122.719 250.073 122.785 249.949C122.851 249.824 122.95 249.721 123.073 249.651C123.179 249.589 123.301 249.556 123.424 249.556C123.547 249.556 123.668 249.589 123.775 249.651L141.986 258.52C142.131 258.59 142.251 258.704 142.327 258.847C142.404 258.99 142.432 259.153 142.41 259.313C142.387 259.473 142.314 259.622 142.201 259.738C142.088 259.853 141.941 259.93 141.782 259.956V259.956Z" fill="white" stroke="#FEE8E3" stroke-width="2" stroke-linecap="round" stroke-linejoin="round"/>
<path d="M141.782 259.956L131.735 261.85C131.6 261.875 131.474 261.935 131.37 262.026L123.072 249.651C123.179 249.589 123.3 249.556 123.424 249.556C123.547 249.556 123.668 249.589 123.775 249.651L141.986 258.52C142.131 258.59 142.251 258.704 142.327 258.847C142.404 258.99 142.432 259.153 142.41 259.313C142.387 259.473 142.314 259.622 142.201 259.738C142.088 259.853 141.941 259.93 141.782 259.956V259.956Z" fill="#FEE8E3" stroke="#FEE8E3" stroke-width="2" stroke-linecap="round" stroke-linejoin="round"/>
<path d="M142.519 160.736C145.737 162.355 149.903 159.328 154.533 155.231L149.517 150.726C149.517 150.726 141.648 158.075 142.519 160.736Z" fill="#A7CAF0"/>
<path d="M185.411 141.357L173.797 165.073H149.369L145.301 153.683L159.128 141.357H185.411Z" fill="#FEBD9D"/>
<path d="M166.484 141.357L155.046 159.265" stroke="#EF8A66" stroke-width="0.75" stroke-linecap="round" stroke-linejoin="round"/>
<path d="M162.128 143.208C153.845 147.945 142.519 160.736 142.519 160.736L139.477 166.789L137.707 170.309H77.6088C76.2037 165.234 74.9953 158.624 74.096 153.267C73.3934 149.121 72.9438 145.728 72.7611 144.397L72.6838 143.799C71.1522 145.158 70.4075 145.207 70.4075 145.207L67.5972 152.647L67.3373 153.351C57.3607 146.664 39.108 145.481 39.108 145.481L41.5599 137.182C40.8233 135.476 40.6176 133.587 40.9698 131.762C41.3702 129.685 46.8643 120.056 52.4006 111.975C54.5835 108.687 57.0045 105.565 59.6441 102.634C59.8619 102.408 60.0867 102.19 60.3115 101.986C66.993 95.8266 78.0655 96.7206 85.3441 97.3823C86.4261 97.4809 87.4518 97.5513 88.4073 97.5935C90.5581 97.7068 92.7132 97.7068 94.864 97.5935C96.6274 97.502 97.597 97.3682 97.597 97.3682C97.8218 96.3405 98.0326 95.2565 98.2433 94.0668C99.5571 86.3729 100.295 76.1027 99.1215 69.3521L117.613 77.6232C117.929 80.9879 119.166 88.3721 120.016 93.2292C120.494 95.9463 120.838 97.8751 120.838 97.8751C122.327 97.6005 123.733 97.3542 125.053 97.1289C143.826 93.9401 148.66 95.1368 153.859 104.309C153.999 104.548 154.133 104.802 154.273 105.069C157.477 111.404 159.662 124.075 160.878 133.029C161.742 138.914 162.128 143.208 162.128 143.208Z" fill="#C3DCF8"/>
<path d="M162.127 143.208C154.006 147.861 142.94 160.264 142.526 160.722C142.673 160.412 145.09 155.4 145.336 153.682C145.582 151.965 144.725 146.883 143.397 142.103L160.961 133.057C161.741 138.914 162.127 143.208 162.127 143.208Z" fill="#C3DCF8"/>
<path d="M99.5852 145.947C99.4518 152.691 83.6861 153.641 74.1171 153.268C73.4145 149.122 72.9648 145.729 72.7822 144.398L72.7049 143.8C76.1823 140.265 79.0566 136.182 81.213 131.714C86.8336 135.557 79.6252 139.506 79.3512 141.358C78.6065 146.433 99.7749 136.317 99.5852 145.947Z" fill="#A7CAF0"/>
<path d="M154.343 105.098C148.863 103.19 142.708 103.254 138.444 110.075C128.84 125.434 110.812 137.415 92.7768 119.282C90.3107 116.736 87.6128 114.427 84.7183 112.384C74.0603 105.077 65.0463 106.555 52.4422 111.968C54.6251 108.681 57.0461 105.559 59.6857 102.627C59.9035 102.402 60.1283 102.184 60.3531 101.98C67.0346 95.8203 78.1071 96.7143 85.3857 97.376C86.4677 97.4745 87.4934 97.5449 88.4489 97.5871C90.5997 97.7005 92.7548 97.7005 94.9056 97.5871C96.669 97.4956 97.6386 97.3619 97.6386 97.3619C97.8634 96.3342 98.0742 95.2501 98.2849 94.0605C99.5987 86.3666 100.336 76.0963 99.1631 69.3457L117.655 77.6168C117.971 80.9816 119.207 88.3657 120.058 93.2228C120.535 95.94 120.88 97.8687 120.88 97.8687C122.369 97.5942 123.774 97.3478 125.095 97.1226C143.868 93.9338 148.701 95.1305 153.9 104.303C154.069 104.577 154.203 104.831 154.343 105.098Z" fill="#D0E5F7"/>
<path d="M125.123 97.1581C125.067 101.917 124.554 110.589 122.488 116.72C119.819 124.675 116.671 121.444 113.215 118.304C110.088 115.446 98.6924 105.936 88.4559 97.6087C90.6067 97.722 92.7618 97.722 94.9126 97.6087C96.676 97.5171 97.6456 97.3834 97.6456 97.3834C97.8704 96.3557 98.0811 95.2716 98.2919 94.082C105.718 93.5963 114.627 93.1176 120.072 93.2443C120.549 95.9615 120.894 97.8902 120.894 97.8902C122.369 97.6016 123.774 97.3834 125.123 97.1581Z" fill="#1A73E8"/>
<path d="M117.844 115.347C117.844 115.347 102.022 104.563 94.9125 97.6014C96.6759 97.5099 97.6455 97.3762 97.6455 97.3762C99.3387 89.5837 100.519 77.1383 99.1701 69.36L111.191 74.7309L117.662 77.6311C117.894 80.1159 118.638 84.8322 119.348 89.0699C120.135 93.758 120.887 97.883 120.887 97.883C121.463 111.553 117.844 115.347 117.844 115.347Z" fill="#FEBD9D"/>
<path d="M142.519 160.737C142.667 160.427 145.084 155.415 145.33 153.697C145.576 151.98 144.718 146.897 143.391 142.118C143.32 141.871 143.25 141.618 143.173 141.372" stroke="#83ADDF" stroke-width="0.75" stroke-linecap="round" stroke-linejoin="round"/>
<path d="M119.341 89.091C106.856 89.8583 108.261 76.4133 108.367 76.0755L111.177 74.7521L117.648 77.6523C117.887 80.1371 118.631 84.8534 119.341 89.091Z" fill="#F4A789"/>
<path d="M39.1495 145.468C38.7982 146.503 38.7982 147.629 46.6318 149.84L47.8403 144.694C47.8403 144.694 40.7162 142.765 39.1495 145.468Z" fill="#A7CAF0"/>
<path d="M43.4425 142.759C41.6018 148.77 35.1803 168.902 35.1803 168.902C33.4379 176.287 55.2948 181.108 63.0723 168.565L67.351 148.369C60.28 143.759 51.8214 141.774 43.4425 142.759V142.759Z" fill="#FEBD9D"/>
<path d="M79.3791 135.113C79.3519 135.153 79.3283 135.196 79.3089 135.24C78.3815 136.725 77.3487 138.239 76.2246 139.801L76.1473 139.907C75.0933 141.285 73.9429 142.585 72.7047 143.8C71.1731 145.158 70.4284 145.207 70.4284 145.207L67.3792 153.338C67.0701 153.134 66.7539 152.929 66.4237 152.732C60.8594 149.354 53.2013 147.495 47.4543 146.51C45.5644 146.186 43.8782 145.961 42.5363 145.806C40.4708 145.559 39.1921 145.475 39.1921 145.475L41.644 137.176C40.9074 135.47 40.7017 133.58 41.0539 131.755C41.4544 129.679 46.9485 120.049 52.4847 111.968C54.6676 108.681 57.0886 105.559 59.7282 102.627C59.946 102.402 60.1708 102.184 60.3957 101.979C69.8663 97.5377 82.1754 98.6287 84.5992 111.433C84.6625 111.75 84.7187 112.067 84.7608 112.383C86.1097 120.908 84.0091 127.673 79.3791 135.113Z" fill="#C3DCF8"/>
<path d="M84.7183 112.383C74.0603 105.077 65.0463 106.555 52.4422 111.968C54.6251 108.681 57.0461 105.559 59.6857 102.627C59.9035 102.402 60.1283 102.184 60.3531 101.979C69.8238 97.5377 82.1328 98.6287 84.5567 111.433C84.6199 111.771 84.6761 112.088 84.7183 112.383Z" fill="#D0E5F7"/>
<path d="M45.4939 138.935C52.091 138.935 58.5406 141.638 59.6296 142.152" stroke="#83ADDF" stroke-width="0.75" stroke-linecap="round" stroke-linejoin="round"/>
<path d="M72.7049 143.8C73.9431 142.586 75.0935 141.285 76.1475 139.908L76.2248 139.802C77.3353 138.339 78.3649 136.817 79.3091 135.241C79.3285 135.196 79.3521 135.154 79.3793 135.114C80.124 133.854 80.7423 132.693 81.213 131.714C81.5994 130.954 81.8805 130.306 82.0772 129.828" stroke="#83ADDF" stroke-width="0.75" stroke-linecap="round" stroke-linejoin="round"/>
<path d="M129.816 137.922C130.069 141.252 128.116 142.103 128.116 142.103C128.383 150.198 126.009 154.07 122.06 155.098C118.112 156.125 107.91 158.294 107.91 158.294C106.853 158.724 105.833 159.242 104.861 159.842C103.723 160.49 102.311 161.32 100.646 162.306C95.5732 165.276 87.585 168.05 78.0932 173.062C61.2737 181.945 49.2879 177.131 48.4869 167.705C47.0396 150.452 68.9107 149.326 76.8989 147.995C82.6881 147.024 91.6529 144.722 97.2102 143.434C99.3179 142.955 100.899 142.617 101.643 142.547C104.313 142.307 109.849 139.379 119.566 136.317C129.283 133.255 137.13 131.481 137.13 133.628C137.13 135.775 129.816 137.922 129.816 137.922Z" fill="#FEBD9D"/>
<path d="M119.58 136.317C129.289 133.24 137.144 131.481 137.144 133.628C137.144 135.775 129.788 137.943 129.788 137.943C130.041 141.272 128.088 142.124 128.088 142.124C128.355 150.219 125.98 154.091 122.032 155.118" stroke="#EF8A66" stroke-width="0.75" stroke-linecap="round" stroke-linejoin="round"/>
<path d="M52.562 156.026C56.7774 151.937 63.5291 150.17 69.2339 149.17" stroke="#EF8A66" stroke-width="0.75" stroke-linecap="round" stroke-linejoin="round"/>
<path d="M104.861 159.843C103.723 160.491 102.311 161.321 100.646 162.307C96.7322 157.935 94.7018 151.164 97.21 143.413C99.3177 142.935 100.898 142.597 101.643 142.526C99.8305 147.489 99.4933 155.584 104.861 159.843Z" fill="#683F1D"/>
<path d="M129.817 137.923L123.81 139.873" stroke="#EF8A66" stroke-width="0.75" stroke-linecap="round" stroke-linejoin="round"/>
<path d="M128.116 142.103L124.42 143.447" stroke="#EF8A66" stroke-width="0.75" stroke-linecap="round" stroke-linejoin="round"/>
<path d="M124.821 147.334L127.969 146.475" stroke="#EF8A66" stroke-width="0.75" stroke-linecap="round" stroke-linejoin="round"/>
<path d="M103.442 152.507C103.442 153.513 103.144 154.497 102.586 155.334C102.027 156.171 101.234 156.823 100.306 157.209C99.3778 157.594 98.3564 157.695 97.3711 157.498C96.3857 157.302 95.4806 156.817 94.7703 156.105C94.0599 155.394 93.5761 154.487 93.3801 153.499C93.1841 152.512 93.2847 151.489 93.6691 150.559C94.0536 149.629 94.7047 148.834 95.54 148.275C96.3753 147.716 97.3574 147.417 98.3621 147.417C99.7093 147.417 101.001 147.953 101.954 148.908C102.906 149.862 103.442 151.157 103.442 152.507V152.507Z" fill="white" stroke="#683F1D" stroke-linecap="round" stroke-linejoin="round"/>
<path d="M173.799 58.3142V163.396H24.2496V58.3142C24.2487 56.9224 24.5215 55.544 25.0524 54.2579C25.5834 52.9717 26.3621 51.803 27.3441 50.8185C28.326 49.8341 29.4919 49.0531 30.7753 48.5202C32.0586 47.9874 33.4341 47.7131 34.8233 47.7131H163.225C164.614 47.7131 165.99 47.9874 167.273 48.5202C168.556 49.0531 169.722 49.8341 170.704 50.8185C171.686 51.803 172.465 52.9717 172.996 54.2579C173.527 55.544 173.8 56.9224 173.799 58.3142Z" stroke="#FEE8E3" stroke-width="2" stroke-linecap="round" stroke-linejoin="round"/>
<path d="M173.799 58.3142V58.7859H24.2496V58.3142C24.2487 56.9224 24.5215 55.544 25.0524 54.2579C25.5834 52.9717 26.3621 51.803 27.3441 50.8185C28.326 49.8341 29.4919 49.0531 30.7753 48.5202C32.0586 47.9874 33.4341 47.7131 34.8233 47.7131H163.225C164.614 47.7131 165.99 47.9874 167.273 48.5202C168.556 49.0531 169.722 49.8341 170.704 50.8185C171.686 51.803 172.465 52.9717 172.996 54.2579C173.527 55.544 173.8 56.9224 173.799 58.3142Z" stroke="#FEE8E3" stroke-width="2" stroke-linecap="round" stroke-linejoin="round"/>
<path d="M153.558 53.2525C153.558 53.634 153.445 54.0069 153.233 54.324C153.022 54.6412 152.721 54.8884 152.369 55.0344C152.017 55.1804 151.63 55.2186 151.257 55.1442C150.884 55.0698 150.541 54.8861 150.271 54.6163C150.002 54.3466 149.819 54.0029 149.744 53.6288C149.67 53.2546 149.708 52.8668 149.854 52.5144C150 52.162 150.246 51.8607 150.563 51.6488C150.88 51.4369 151.252 51.3237 151.633 51.3237C151.885 51.3237 152.136 51.3736 152.369 51.4705C152.603 51.5675 152.815 51.7096 152.994 51.8887C153.172 52.0678 153.314 52.2804 153.411 52.5144C153.508 52.7484 153.558 52.9992 153.558 53.2525V53.2525Z" fill="#FEE8E3"/>
<path d="M157.907 55.1812C158.97 55.1812 159.832 54.3177 159.832 53.2525C159.832 52.1873 158.97 51.3237 157.907 51.3237C156.843 51.3237 155.982 52.1873 155.982 53.2525C155.982 54.3177 156.843 55.1812 157.907 55.1812Z" fill="#FEE8E3"/>
<path d="M166.106 53.2525C166.106 53.6343 165.993 54.0075 165.781 54.3248C165.569 54.6421 165.268 54.8893 164.916 55.0351C164.564 55.1809 164.176 55.2187 163.803 55.1437C163.429 55.0687 163.086 54.8843 162.817 54.6138C162.548 54.3434 162.365 53.9991 162.292 53.6245C162.218 53.2498 162.257 52.8618 162.404 52.5095C162.551 52.1572 162.799 51.8565 163.116 51.6454C163.434 51.4343 163.807 51.3223 164.188 51.3237C164.44 51.3237 164.69 51.3737 164.923 51.4707C165.156 51.5677 165.368 51.7099 165.546 51.8891C165.725 52.0683 165.866 52.281 165.962 52.5149C166.058 52.7489 166.107 52.9995 166.106 53.2525Z" fill="#FEE8E3"/>
<path d="M136.647 59.097C144.02 54.8497 150.063 47.2946 153.109 43.0514C150.344 42.5747 147.22 41.0473 148.599 38.6625C143.446 34.7517 142.673 27.1993 148.155 25.4589C150.949 18.5707 162.191 16.4842 164.883 22.5511C173.489 22.338 178.089 34.8207 172.025 38.4312C175.733 43.7688 165.456 47.4103 163.422 45.4608C160.746 47.3976 158.768 46.1379 157.571 44.7464C155.066 47.3998 147.972 54.1777 136.647 59.097Z" fill="#D9E5F3"/>
<path d="M84.1983 69.7482C73.2799 69.4567 61.8427 64.6184 55.8123 61.6884C58.6425 59.4613 61.236 55.8291 58.2225 53.9789C61.6512 46.4162 57.9111 37.4174 50.6588 38.8011C43.2974 32.7309 29.3301 37.2427 29.9973 45.7361C20.1515 50.7521 22.5825 67.6549 31.6341 68.027C30.7084 76.3178 44.535 74.1516 45.6405 70.7082C49.8447 71.2602 51.3081 68.6301 51.8101 66.3275C56.2591 67.793 68.4082 71.1117 84.1983 69.7482Z" fill="#D9E5F3"/>
<path d="M76.9797 23.8152L74.2521 29.4311L81.9973 31.6415L79.9134 36.1002L89.0022 38.0322L82.4999 35.3477L86.086 30.1161L77.8538 28.4042L81.4641 22.4168L69.7495 20.6792L76.9797 23.8152Z" fill="#1A73E8"/>
<path d="M118.252 16.3756L121.24 19.1335L117.038 22.204L119.364 24.4767L114.308 27.6557L117.591 24.5628L114.181 22.2698L118.779 19.326L115.199 16.5422L121.922 12.7527L118.252 16.3756Z" fill="#1A73E8"/>
<path d="M126.483 26.5946L126.667 28.235L123.908 28.3325L124.054 29.5791L120.9 29.5497L123.294 29.2265L122.817 27.6552L125.676 27.7537L125.261 25.9846L129.206 26.2677L126.483 26.5946Z" fill="#1A73E8"/>
<path d="M87.0895 76.478L88.2002 78.7976L83.6709 79.1454L84.5129 80.9424L79.2912 81.0682L83.1281 80.4985L81.4929 78.2835L86.2219 78.1633L84.7472 75.618L91.4171 75.7384L87.0895 76.478Z" fill="#1A73E8"/>
<path d="M137.51 145.398C139.913 142.843 143.925 142.526 143.925 142.526L148.569 147.334C148.569 147.334 149.889 133.135 143.925 113.658C142.793 123.168 139.302 138.471 137.51 145.398Z" fill="#FEE8E3" stroke="#FEE8E3" stroke-linecap="round" stroke-linejoin="round"/>
<path d="M183.331 110.773C190.041 132.102 189.718 147.335 189.718 147.335H148.568C148.568 147.335 143.025 126.168 143.924 113.659C143.924 113.659 143.144 110.709 145.723 110.449C148.301 110.189 183.331 110.773 183.331 110.773Z" fill="#F9F9F9" stroke="#FEE8E3" stroke-linecap="round" stroke-linejoin="round"/>
<path d="M150.36 110.561C150.356 110.502 150.356 110.444 150.36 110.385C150.42 109.815 150.643 109.275 151.003 108.83C151.362 108.385 151.843 108.054 152.387 107.876C152.931 107.699 153.514 107.684 154.066 107.832C154.619 107.98 155.116 108.285 155.499 108.711C155.882 109.137 156.133 109.664 156.223 110.23C156.312 110.796 156.237 111.375 156.004 111.899C155.772 112.422 155.393 112.867 154.914 113.179C154.435 113.491 153.875 113.658 153.304 113.658" stroke="#FEE8E3" stroke-linecap="round" stroke-linejoin="round"/>
<path d="M171.269 110.561C171.344 109.997 171.58 109.466 171.949 109.033C172.317 108.6 172.802 108.282 173.346 108.118C173.89 107.953 174.469 107.949 175.015 108.106C175.561 108.263 176.051 108.574 176.425 109.002C176.799 109.43 177.043 109.957 177.126 110.52C177.21 111.083 177.129 111.658 176.895 112.176C176.661 112.695 176.283 113.135 175.806 113.444C175.329 113.753 174.774 113.917 174.206 113.918C173.712 113.918 173.227 113.786 172.8 113.538" stroke="#FEE8E3" stroke-linecap="round" stroke-linejoin="round"/>
<path d="M158.755 110.435C158.788 109.663 159.107 108.931 159.65 108.382C160.194 107.834 160.922 107.509 161.692 107.471C162.503 107.555 163.254 107.938 163.8 108.544C164.345 109.151 164.648 109.938 164.648 110.755C164.648 111.572 164.345 112.359 163.8 112.966C163.254 113.572 162.503 113.954 161.692 114.039C161.03 114.028 160.394 113.778 159.901 113.335" stroke="#FEE8E3" stroke-linecap="round" stroke-linejoin="round"/>
<path d="M165.022 110.505C165.097 109.942 165.331 109.412 165.698 108.979C166.065 108.546 166.549 108.228 167.091 108.063C167.634 107.898 168.212 107.893 168.757 108.049C169.302 108.205 169.791 108.515 170.165 108.942C170.539 109.369 170.783 109.894 170.866 110.456C170.95 111.018 170.87 111.592 170.637 112.11C170.403 112.627 170.026 113.067 169.55 113.375C169.074 113.684 168.519 113.848 167.952 113.849" stroke="#FEE8E3" stroke-linecap="round" stroke-linejoin="round"/>
<path d="M181.125 117.629H152.292V120.93H181.125V117.629Z" stroke="#FEE8E3" stroke-linecap="round" stroke-linejoin="round"/>
<path d="M159.437 143.737L159.072 140.956L157.217 126.646L156.908 124.294" stroke="#FEE8E3" stroke-linecap="round" stroke-linejoin="round"/>
<path d="M168.795 143.737L168.409 140.759L166.596 126.829L166.266 124.294" stroke="#FEE8E3" stroke-linecap="round" stroke-linejoin="round"/>
<path d="M175.631 124.288L178.154 143.745" stroke="#FEE8E3" stroke-linecap="round" stroke-linejoin="round"/>
<path d="M181.435 128.181H166.772H157.414H153.311" stroke="#FEE8E3" stroke-linecap="round" stroke-linejoin="round"/>
<path d="M182.861 136.676H167.875H158.517H154.73" stroke="#FEE8E3" stroke-linecap="round" stroke-linejoin="round"/>
<path d="M160.084 124.964C155.433 127.343 153.192 137.261 161.081 137.923C172.709 138.895 173.264 124.549 163.077 125.9" fill="#F9F9F9"/>
<path d="M160.084 124.964C155.433 127.343 153.192 137.261 161.081 137.923C172.709 138.895 173.264 124.549 163.077 125.9" stroke="#FEE8E3" stroke-width="2" stroke-linecap="round" stroke-linejoin="round"/>
<path d="M167.876 136.677H158.517L157.414 128.181H166.772L167.876 136.677Z" fill="#FEE8E3"/>
<path d="M184.688 135.396C184.884 138.627 191.011 135.072 190.589 132.242C190.168 129.412 184.456 131.651 184.688 135.396Z" fill="#FEBD9D" stroke="#EF8A66" stroke-width="0.75" stroke-linecap="round" stroke-linejoin="round"/>
<path d="M183.648 131.046C183.872 134.284 190.772 130.729 190.322 127.892C189.872 125.055 183.388 127.308 183.648 131.046Z" fill="#FEBD9D" stroke="#EF8A66" stroke-width="0.75" stroke-linecap="round" stroke-linejoin="round"/>
<path d="M183.163 127.8C183.402 131.031 190.8 127.476 190.315 124.646C189.831 121.817 182.889 124.055 183.163 127.8Z" fill="#FEBD9D" stroke="#EF8A66" stroke-width="0.75" stroke-linecap="round" stroke-linejoin="round"/>
<path d="M182.123 123.795C182.369 126.73 189.999 123.507 189.5 120.937C189.001 118.368 181.835 120.402 182.123 123.795Z" fill="#FEBD9D" stroke="#EF8A66" stroke-width="0.75" stroke-linecap="round" stroke-linejoin="round"/>
<path d="M160.084 124.964C155.433 127.343 153.192 137.261 161.081 137.923C172.709 138.895 173.264 124.549 163.077 125.9" stroke="#FEE8E3" stroke-width="2" stroke-linecap="round" stroke-linejoin="round"/>
<path d="M132.319 49.6368C131.707 54.7262 124.913 57.7108 124.913 57.7108L106.063 74.1967C104.131 77.287 98.8692 78.8426 95.6654 76.2592C93.7896 74.7528 92.6233 71.8316 93.2556 66.9674C92.7311 66.9676 92.218 66.8134 91.7802 66.524C89.6093 65.1795 88.2674 60.8926 91.5273 55.8032C91.2954 56.0285 86.9536 60.259 82.4852 58.9779C81.7168 58.7722 81.0007 58.4055 80.3842 57.9019C79.7677 57.3983 79.265 56.7693 78.9091 56.0566C77.504 53.1776 77.9958 48.3768 82.0075 41.7951C84.8599 37.0999 88.8294 36.2552 92.2299 37.1351C96.0799 38.1206 99.1994 41.2883 99.1994 43.5901C100.049 42.5456 101.034 41.62 102.129 40.8378C103.633 39.7889 105.494 39.078 107.159 40.0916C107.159 40.0916 113.019 36.931 116.349 38.909C120.494 41.3587 119.581 43.0622 123.614 43.3297C126.614 43.5268 131.342 44.287 132.206 47.694C132.371 48.3279 132.409 48.9881 132.319 49.6368Z" fill="#604730"/>
<path d="M99.1996 43.5905L91.5416 55.7896C90.9946 56.3023 90.4098 56.7729 89.7922 57.1974C88.0709 58.3941 85.3168 59.7597 82.5065 58.9572C81.7381 58.7515 81.0219 58.3848 80.4055 57.8812C79.789 57.3776 79.2863 56.7486 78.9304 56.0359C87.6563 55.8529 90.7266 53.4103 88.935 48.6025C87.2699 44.1255 85.5416 38.5012 92.2512 37.1144C94.876 37.7693 97.157 39.3935 98.6375 41.6618C98.9868 42.2458 99.1804 42.91 99.1996 43.5905V43.5905Z" fill="#473526"/>
<path d="M132.319 49.6374C131.707 54.7268 124.913 57.7115 124.913 57.7115L106.063 74.1974C104.131 77.2876 98.8692 78.8433 95.6655 76.2599C94.5576 73.598 94.2855 70.661 94.8855 67.8403C95.4854 65.0196 96.929 62.4489 99.0237 60.4708C102.888 56.9512 100.057 54.3256 100.429 49.6938C100.801 45.0619 109.26 37.9312 115.316 44.3299C120.066 49.3488 129.002 43.281 132.241 47.6946C132.394 48.3309 132.42 48.991 132.319 49.6374V49.6374Z" fill="#473526"/>
<path d="M120.761 83.32C112.288 82.4471 103.689 73.641 103.689 73.641C100.457 77.3296 94.0847 71.8178 97.2392 67.2283C99.3048 64.2084 102.537 66.0034 103.323 67.6506C104.634 66.8026 105.596 65.5089 106.031 64.0074C106.466 62.5059 106.345 60.8976 105.691 59.478C104.998 57.7352 104.698 55.8601 104.813 53.9874C107.679 49.6231 115.281 48.6235 115.281 48.6235C116.405 49.8105 117.772 50.7397 119.287 51.3472C120.803 51.9548 122.433 52.2263 124.063 52.1432C124.063 52.1432 126.67 57.2466 128.792 62.4345C128.834 62.5472 128.89 62.6739 128.932 62.7865C129.529 64.2647 130.084 65.743 130.52 67.0945C130.562 67.2283 130.597 67.3479 130.639 67.4746C130.988 68.5421 131.247 69.637 131.412 70.7479C132.094 76.33 129.227 84.228 120.761 83.32Z" fill="#FEBD9D"/>
<path d="M93.2551 66.9675C93.7783 63.5032 95.4515 60.3166 98.0044 57.9221" stroke="#604730" stroke-width="0.75" stroke-linecap="round" stroke-linejoin="round"/>
<path d="M107.159 40.085C105.831 41.1479 103.843 44.6042 103.07 46.1598" stroke="#604730" stroke-width="0.75" stroke-linecap="round" stroke-linejoin="round"/>
<path d="M105.979 49.6441C107.545 45.4628 110.559 43.5763 111.971 45.1812C113.384 46.7862 115.281 48.6164 115.281 48.6164" stroke="#604730" stroke-width="0.75" stroke-linecap="round" stroke-linejoin="round"/>
<path d="M124.063 52.1788C125.82 52.1084 127.492 50.3134 127.998 49.2716" stroke="#604730" stroke-width="0.75" stroke-linecap="round" stroke-linejoin="round"/>
<path d="M88.9135 55.0363C82.4358 56.0499 79.2391 46.4414 84.5013 38.846" stroke="#604730" stroke-width="0.75" stroke-linecap="round" stroke-linejoin="round"/>
<path d="M95.4056 46.1608C96.7615 42.6412 92.237 36.9605 89.785 40.8603C86.9747 45.3232 91.0777 51.2432 95.4056 50.7152" stroke="#604730" stroke-width="0.75" stroke-linecap="round" stroke-linejoin="round"/>
<path d="M91.5413 55.7888C93.0921 51.1714 95.7171 46.99 99.1993 43.5898C99.1993 43.5898 101.44 40.7741 99.8158 44.0224C97.65 45.4217 92.6834 54.8917 90.4754 57.8308C90.1347 58.2843 90.4752 57.4247 91.5413 55.7888Z" fill="#FED81D"/>
<path d="M98.0049 70.241C99.3117 67.9251 101.581 68.0518 102.775 70.0016" stroke="#EF8A66" stroke-width="0.75" stroke-linecap="round" stroke-linejoin="round"/>
<path d="M102.297 69.382C99.6065 68.678 99.5995 72.2962 102.459 71.7824" stroke="#EF8A66" stroke-width="0.75" stroke-linecap="round" stroke-linejoin="round"/>
<path opacity="0.2" d="M118.443 59.6917C119.173 58.5861 119.292 57.7375 118.87 57.0879C120.002 58.0239 119.805 59.0622 118.443 59.6917Z" fill="#AFCCF2"/>
<path opacity="0.2" d="M115.569 73.7335C116.639 74.5881 117.557 74.7004 118.176 74.3154C117.315 75.3947 116.274 75.1358 115.569 73.7335Z" fill="#AFCCF2"/>
<path opacity="0.2" d="M121.559 56.3513C121.717 56.9456 122.391 57.7296 122.845 57.8481C121.736 57.651 121.586 56.9299 121.559 56.3513Z" fill="#AFCCF2"/>
<path d="M117.291 72.5866C117.291 72.5866 120.179 71.9343 128.467 68.5138C127.443 66.8344 125.581 65.8604 121.367 67.6294C117.215 69.4736 117.291 72.5866 117.291 72.5866Z" fill="#EF8A66"/>
<path d="M126.536 67.5981C125.94 67.5914 125.731 67.7672 125.267 67.7768C125.686 67.4251 126.035 67.132 126.252 66.8226C125.077 66.5419 123.545 66.6879 121.369 67.6285C120.076 68.2079 119.177 68.8363 118.602 69.5723C118.996 69.6214 119.391 69.6704 119.855 69.6608C119.584 69.7617 119.305 69.9962 119.095 70.172C118.406 70.6246 118.279 71.6182 118.238 72.286C119.585 71.9152 122.628 70.8805 128.196 68.6121C127.703 68.0124 127.131 67.6049 126.536 67.5981Z" fill="white"/>
<path d="M115.504 63.0895C115.856 63.7902 116.197 63.6345 116.607 63.4215C117.017 63.2085 117.418 63.1261 117.066 62.4253C116.714 61.7246 116.075 61.3834 115.604 61.5231C115.194 61.736 115.152 62.3887 115.504 63.0895Z" fill="#080B09"/>
<path d="M123.617 59.0898C123.969 59.7911 124.248 59.5619 124.719 59.422C125.129 59.2089 125.531 59.1264 125.179 58.425C124.827 57.7237 124.188 57.3823 123.778 57.5954C123.376 57.6779 123.265 58.3884 123.617 59.0898Z" fill="#080B09"/>
<path d="M123.651 57.5805L124.987 56.3167C124.987 56.3167 124.882 58.0747 123.651 57.5805Z" fill="#080B09"/>
<path d="M121.672 60.3965C121.672 60.3965 123.652 62.4588 125.559 63.6014C125.083 64.8449 122.933 64.5559 122.933 64.5559" stroke="#EF8A66"/>
<path d="M117.069 59.517C117.007 59.4435 116.876 59.4275 116.675 59.4689C114.859 59.9723 113.605 58.8949 113.605 58.8949C113.351 58.7318 113.15 58.7731 112.941 58.9455C112.863 59.1339 112.846 59.3958 112.969 59.5429C113.031 59.6164 114.6 60.9304 116.888 60.2868C117.089 60.2454 117.237 59.9995 117.184 59.795C117.192 59.6641 117.13 59.5906 117.069 59.517Z" fill="#080B09"/>
<path d="M122.741 56.5244C122.732 56.6578 122.724 56.7913 122.786 56.8661C122.971 57.0907 123.234 57.1232 123.373 57.0061C125.311 55.6328 125.108 53.524 125.178 53.4654C125.195 53.1986 124.94 53.0326 124.677 53.0001C124.414 52.9675 124.266 53.2181 124.25 53.4849C124.242 53.6184 124.346 55.1772 122.888 56.2738C122.818 56.3324 122.749 56.391 122.741 56.5244Z" fill="#080B09"/>
<path d="M115.468 61.6385L116.803 60.3756C116.865 60.4514 116.698 62.1324 115.468 61.6385Z" fill="#080B09"/>
<path d="M103.696 73.6688C104.127 73.111 104.486 72.5008 104.764 71.8527" stroke="#EF8A66" stroke-width="0.75" stroke-linecap="round" stroke-linejoin="round"/>
<path d="M115.864 66.531C115.161 67.8684 113.005 68.1148 110.946 67.0941C108.887 66.0734 107.813 64.1517 108.487 62.8143C109.161 61.4768 111.346 61.2304 113.405 62.2581C115.464 63.2859 116.538 65.2217 115.864 66.531Z" fill="#F4AF90"/>
<path d="M130.639 67.5031C130.199 67.7073 129.709 67.7819 129.228 67.7184C128.747 67.6548 128.293 67.4557 127.92 67.1441C126.902 66.1234 127.288 64.0539 128.792 62.463C128.834 62.5756 128.89 62.7023 128.932 62.815C129.529 64.2932 130.084 65.7715 130.52 67.123C130.562 67.2567 130.597 67.3764 130.639 67.5031Z" fill="#F4AF90"/>
<path d="M380.861 33.8548V138.937H231.34V33.8548C231.34 31.0432 232.455 28.3467 234.439 26.3587C236.423 24.3706 239.115 23.2537 241.921 23.2537H370.323C373.122 23.263 375.804 24.3842 377.779 26.3715C379.755 28.3588 380.863 31.0499 380.861 33.8548V33.8548Z" stroke="#FEE8E3" stroke-width="2" stroke-linecap="round" stroke-linejoin="round"/>
<path d="M380.861 33.8548V34.3264H231.34V33.8548C231.34 31.0432 232.455 28.3467 234.439 26.3587C236.423 24.3706 239.115 23.2537 241.921 23.2537H370.323C373.122 23.263 375.804 24.3842 377.779 26.3715C379.755 28.3588 380.863 31.0499 380.861 33.8548V33.8548Z" stroke="#FEE8E3" stroke-width="2" stroke-linecap="round" stroke-linejoin="round"/>
<path d="M360.648 28.793C360.648 29.1748 360.535 29.548 360.323 29.8653C360.111 30.1826 359.81 30.4299 359.458 30.5756C359.106 30.7214 358.718 30.7592 358.345 30.6842C357.971 30.6092 357.628 30.4248 357.359 30.1544C357.09 29.8839 356.908 29.5396 356.834 29.165C356.761 28.7904 356.8 28.4023 356.947 28.05C357.093 27.6977 357.341 27.397 357.659 27.1859C357.976 26.9748 358.349 26.8629 358.73 26.8643C358.983 26.8643 359.233 26.9142 359.466 27.0112C359.699 27.1082 359.911 27.2504 360.089 27.4296C360.267 27.6088 360.408 27.8215 360.504 28.0555C360.6 28.2894 360.649 28.5401 360.648 28.793V28.793Z" fill="#FEE8E3"/>
<path d="M366.929 28.793C366.929 29.1745 366.816 29.5474 366.605 29.8646C366.393 30.1818 366.093 30.429 365.741 30.575C365.389 30.7209 365.002 30.7591 364.629 30.6847C364.255 30.6103 363.912 30.4266 363.643 30.1568C363.374 29.8871 363.19 29.5434 363.116 29.1693C363.042 28.7952 363.08 28.4073 363.226 28.0549C363.371 27.7025 363.618 27.4012 363.935 27.1893C364.251 26.9774 364.624 26.8643 365.004 26.8643C365.515 26.8643 366.004 27.0675 366.365 27.4292C366.726 27.7909 366.929 28.2815 366.929 28.793V28.793Z" fill="#FEE8E3"/>
<path d="M373.203 28.793C373.203 29.1745 373.09 29.5474 372.879 29.8646C372.667 30.1818 372.367 30.429 372.015 30.575C371.663 30.7209 371.276 30.7591 370.903 30.6847C370.529 30.6103 370.186 30.4266 369.917 30.1568C369.648 29.8871 369.465 29.5434 369.39 29.1693C369.316 28.7952 369.354 28.4073 369.5 28.0549C369.645 27.7025 369.892 27.4012 370.209 27.1893C370.525 26.9774 370.898 26.8643 371.278 26.8643C371.789 26.8643 372.279 27.0675 372.64 27.4292C373.001 27.7909 373.203 28.2815 373.203 28.793V28.793Z" fill="#FEE8E3"/>
<path d="M234.53 79.5394C234.143 75.1469 253.499 66.8195 256.696 73.2463L250.373 79.5394C250.373 79.5394 237.312 84.7273 234.53 79.5394Z" fill="#93BEE5"/>
<path d="M244.001 48.1234C241.19 39.3666 240.979 38.2684 242.862 37.6138C244.745 36.9592 249.516 46.9056 250.057 48.1234C251.947 51.9564 253.403 55.9891 254.399 60.1464C255.235 64.0321 256.331 72.979 256.506 75.133C257.251 84.2277 242.286 86.9941 241.633 79.9197C240.979 72.8452 240.93 70.5575 240.93 70.5575C240.93 70.5575 233.202 71.2614 232.12 65.5033C231.038 59.7452 231.34 51.8471 231.34 51.8471C231.34 51.8471 219.593 49.8973 220.001 46.793C220.408 43.6887 243.396 49.9606 243.396 49.9606L244.001 48.1234Z" fill="#B25E47"/>
<path d="M231.34 51.8467C231.34 51.8467 219.593 49.8968 220.001 46.7925C220.408 43.6882 243.396 49.9602 243.396 49.9602L244.001 48.144C241.19 39.3872 240.979 38.2891 242.862 37.6344C244.745 36.9798 249.516 46.9262 250.057 48.144" stroke="#934735" stroke-width="0.75" stroke-linecap="round" stroke-linejoin="round"/>
<path d="M243.396 49.9391C242.387 53.8197 242.548 57.9129 243.86 61.7017" stroke="#934735" stroke-width="0.75" stroke-linecap="round" stroke-linejoin="round"/>
<path d="M237.895 43.2239C239.736 44.1812 241.19 44.3854 241.738 41.7527C242.286 39.12 239.694 39.0567 238.858 39.1975C237.572 39.4086 237.101 42.8086 237.895 43.2239Z" fill="#683F1D"/>
<path d="M238.24 42.5482C237.951 43.5746 237.717 44.6155 237.537 45.6666C237.839 45.8215 239.645 46.4339 239.884 45.8215C240.159 44.7465 240.354 43.6524 240.467 42.5482H238.24Z" fill="#683F1D"/>
<path d="M236.596 46.5396C235.633 50.8546 230.659 74.5065 230.49 75.2808C230.322 76.0551 230.547 79.631 230.849 79.7648C231.151 79.8985 232.886 77.3433 233.518 76.0481C234.151 74.7528 239.743 48.7991 240.088 47.5884C240.945 44.639 237.228 43.7168 236.596 46.5396Z" fill="#683F1D"/>
<path d="M232.219 59.963C229.809 60.5191 229.127 62.8209 230.905 64.3485C232.816 65.9956 237.523 65.2636 237.741 63.1588C237.959 61.0541 234.228 59.5055 232.219 59.963Z" fill="#B25E47" stroke="#934735" stroke-width="0.75" stroke-linecap="round" stroke-linejoin="round"/>
<path d="M232.001 56.1908C229.528 55.8247 228.923 58.3026 230.687 60.2032C232.45 62.1037 238.275 62.5331 238.605 60.2735C238.935 58.014 233.518 56.416 232.001 56.1908Z" fill="#B25E47" stroke="#934735" stroke-width="0.75" stroke-linecap="round" stroke-linejoin="round"/>
<path d="M229.809 51.9592C232.914 51.2553 239.645 55.7956 239.371 57.2105C239.041 58.9914 235.858 59.2589 231.376 57.3512C227.167 55.5633 228.291 52.3182 229.809 51.9592Z" fill="#B25E47" stroke="#934735" stroke-width="0.75" stroke-linecap="round" stroke-linejoin="round"/>
<path d="M379.295 86.2601C369.656 85.7885 361.674 94.496 359.201 104.506C359.131 104.787 359.068 105.09 359.012 105.421C358.749 106.962 358.563 108.514 358.457 110.074C357.431 123.287 358.4 149.564 358.499 150.198C358.534 150.416 351.677 150.198 342.164 149.747C338.651 149.585 334.801 149.409 330.782 149.205C310.352 148.198 286.085 146.84 286.085 146.84L284.61 130.396C284.61 130.396 281.553 135.577 271.099 145.692C260.645 155.808 243.931 150.169 245.729 137.449C246.853 129.46 251.561 123.617 257.265 113.833C259.029 110.806 260.891 107.406 262.76 103.443C265.261 98.1775 267.678 93.1515 270.01 88.6112C271.029 86.6121 272.033 84.7044 273.01 82.9165C276.677 76.1377 279.966 71.0061 282.614 68.6057C290.574 61.3834 307.633 65.5436 312.178 67.0078C318.95 69.2162 325.977 70.5434 333.087 70.9568C343.169 71.6607 358.478 76.018 366.585 78.8478C371.262 80.4208 375.566 82.9388 379.232 86.246L379.295 86.2601Z" fill="#A7CAF0"/>
<path d="M386.082 101.247C377.257 92.3776 363.859 88.506 350.412 100.543C334.773 114.502 322.773 116.93 305.181 96.5448C292.457 81.7624 288.045 78.0387 273.01 82.945C276.677 76.1662 279.965 71.0346 282.614 68.6342C290.574 61.412 307.633 65.5722 312.178 67.0363C318.951 69.2352 325.978 70.553 333.087 70.9572C343.169 71.6611 358.478 76.0184 366.585 78.8482C371.262 80.4212 375.566 82.9392 379.232 86.2464C382.759 89.034 384.817 94.609 386.082 101.247Z" fill="#C3DCF8"/>
<path d="M269.757 126.615C264.136 132.725 259.085 119.477 257.265 113.832C259.029 110.805 260.891 107.405 262.759 103.442C265.261 98.1767 267.677 93.1507 270.01 88.6104C274.155 94.9457 268.556 100.774 268.162 103.646C267.136 111.326 277.815 117.844 269.757 126.615Z" fill="#93BEE5"/>
<path d="M234.53 79.5378C243.214 81.3751 256.696 73.2448 256.696 73.2448C256.696 73.2448 264.123 106.477 266.062 113.847C268.001 121.217 280.408 150.085 256.226 151.268C240.706 152.028 239.666 122.47 238.746 112.742C237.825 103.014 234.53 79.5378 234.53 79.5378Z" fill="#A7CAF0"/>
<path d="M240.284 83.3382C246.966 83.8098 254.406 79.3047 254.406 79.3047" stroke="#83ADDF" stroke-width="0.75" stroke-linecap="round" stroke-linejoin="round"/>
<path d="M256.697 73.2448C256.697 73.2448 264.123 106.477 266.062 113.847C267.123 117.867 271.296 128.285 270.945 137.119" stroke="#83ADDF" stroke-width="0.75" stroke-linecap="round" stroke-linejoin="round"/>
<path d="M305.181 72.3931C309.509 80.4389 320.989 88.1751 334.843 77.4965C334.843 77.4965 336.333 73.0618 336.178 73.0618C336.024 73.0618 307.141 69.5422 307.141 69.5422L305.181 72.3931Z" fill="#1A73E8"/>
<path d="M316.584 62.4524C313.015 61.6429 307.844 62.551 304.275 68.0416C300.706 73.5322 300.249 78.0584 300.453 78.0092C300.657 77.9599 306.073 74.5318 308.497 74.7852C310.921 75.0386 316.352 76.6435 316.352 76.6435L316.584 62.4524Z" fill="#FED81D"/>
<path d="M332.665 64.0645C332.665 64.0645 340.555 64.1137 341.609 69.6536C342.663 75.1935 339.754 81.8385 336.185 84.9077C332.616 87.9768 334.576 80.4729 321.761 76.9533L332.665 64.0645Z" fill="#FED81D"/>
<path d="M336.516 70.5412C336.516 70.5412 332.132 77.2145 322.366 77.3623C312.6 77.5101 310.724 71.6816 310.724 71.6816C311.785 69.0348 313.057 63.3894 313.872 59.4333C314.392 56.9344 314.729 55.1042 314.729 55.1042C314.729 55.1042 316.345 39.4348 333.108 40.3781L333.396 42.9474L336.516 70.5412Z" fill="#B25E47"/>
<path d="M313.872 59.5886C314.392 57.0967 314.729 55.2595 314.729 55.2595L324.27 50.7755C324.27 50.7755 325.78 61.7004 313.872 59.5886Z" fill="#914839"/>
<path d="M284.609 130.397C283.26 114.967 283.26 102.472 283.26 102.472" stroke="#83ADDF" stroke-width="0.75" stroke-linecap="round" stroke-linejoin="round"/>
<path d="M348.311 167.924C347.492 167.625 346.712 167.231 345.985 166.749C341.067 163.518 340.681 157.225 342.163 149.721C343.316 143.977 345.578 137.529 347.784 131.207C350.306 123.999 352.772 116.967 353.468 111.336C353.566 110.547 353.622 109.794 353.65 109.076C353.785 104.758 354.574 100.486 355.99 96.4055C360.023 85.0441 368.812 77.8922 379.266 86.2619C382.73 89.0354 384.788 94.6104 386.053 101.248C386.503 103.621 386.854 106.134 387.142 108.696C388.097 117.396 388.238 126.752 388.666 133.72C390.781 167.46 382.709 180.933 348.311 167.924Z" fill="#A7CAF0"/>
<path d="M386.081 101.248C378.486 93.6177 367.491 89.6828 356.004 96.3912C360.037 85.0298 368.826 77.878 379.28 86.2476C382.758 89.0352 384.816 94.6102 386.081 101.248Z" fill="#C3DCF8"/>
<path d="M358.498 150.17C358.533 150.388 351.676 150.17 342.164 149.72C338.651 149.558 334.801 149.382 330.782 149.178C323.911 146.08 319.639 141.596 323.3 135.17C333.262 117.705 351.564 141.899 352.519 124.611C353.166 112.757 356.032 110.18 358.456 110.103C357.43 123.287 358.379 149.565 358.498 150.17Z" fill="#93BEE5"/>
<path d="M360.838 99.3552C359.473 102.777 358.669 106.397 358.456 110.076C357.543 123.296 358.4 149.566 358.498 150.2" stroke="#83ADDF" stroke-width="0.75" stroke-linecap="round" stroke-linejoin="round"/>
<path d="M348.311 167.923C347.492 167.625 346.712 167.23 345.985 166.748C353.868 168.444 365.657 169.972 370.849 165.53C379.034 158.547 373.835 149.593 378.36 144.666C382.884 139.738 389.411 138.147 387.17 108.716C388.125 117.417 388.266 126.772 388.695 133.741C390.781 167.459 382.709 180.932 348.311 167.923Z" fill="#93BEE5"/>
<path d="M328.597 108.695C329.847 103.064 322.779 103.31 322.779 103.31C323.405 98.115 316.534 96.6719 314.946 101.747C309.36 100.058 307.597 101.747 306.782 104.69L328.597 108.695Z" fill="#FEE8E3"/>
<path d="M319.069 103.852C319.989 103.852 320.734 103.105 320.734 102.184C320.734 101.262 319.989 100.515 319.069 100.515C318.15 100.515 317.404 101.262 317.404 102.184C317.404 103.105 318.15 103.852 319.069 103.852Z" fill="#F9F9F9" stroke="#FEE8E3" stroke-linecap="round" stroke-linejoin="round"/>
<path d="M296.173 100.509L285.747 157.154L327.142 165.53L338.264 108.808L296.173 100.509Z" fill="#F9F9F9" stroke="#FEE8E3" stroke-linecap="round" stroke-linejoin="round"/>
<path d="M308.924 138.043C306.817 143.554 306.69 149.348 307.66 151.283C307.66 151.283 311.608 152.022 315.557 141.288L308.924 138.043Z" fill="#93BEE5"/>
<path d="M314.285 127.385C304.815 124.126 300.29 122.155 298.583 121.691C296.876 121.226 290.707 120.705 289.724 121.691C288.74 122.676 288.67 123.929 289.021 125.21C289.372 126.491 288.318 127.484 288.171 128.807C288.023 130.131 289.611 130.532 289.288 131.848C288.965 133.165 287.883 134.608 288.627 136.072C289.372 137.536 287.925 139.028 289.288 140.802C290.651 142.576 304.618 143.435 307.681 142.78L313.695 145.476C313.695 145.476 324.276 134.586 314.285 127.385Z" fill="#B25E47"/>
<path d="M298.583 121.69C296.876 121.232 290.707 120.705 289.724 121.69C288.74 122.676 288.67 123.929 289.021 125.21C289.372 126.491 288.318 127.483 288.171 128.807C288.023 130.13 289.611 130.531 289.288 131.848C288.965 133.164 287.883 134.607 288.627 136.071C289.372 137.535 287.925 139.028 289.288 140.802" stroke="#934735" stroke-width="0.75" stroke-linecap="round" stroke-linejoin="round"/>
<path d="M370.856 165.523C368.39 169.986 362.222 172.133 350.482 168.592C347.32 167.635 344.271 166.642 341.348 165.636C336.515 163.974 332.053 162.278 328.056 160.652C321.09 157.878 314.271 154.748 307.625 151.276C309.391 149.325 310.816 147.091 311.84 144.666C312.479 143.231 313.006 141.748 313.414 140.231C314.505 136.039 314.799 131.678 314.278 127.377C315.873 127.856 317.587 128.349 319.393 128.842C323.756 130.038 328.646 131.277 333.599 132.579C348.444 136.5 363.887 140.991 367.646 146.573C367.99 147.087 368.348 147.601 368.629 148.136C368.749 148.347 368.875 148.558 368.987 148.777C369.022 148.831 369.053 148.887 369.079 148.946C369.219 149.199 369.353 149.459 369.479 149.713C369.718 150.17 369.929 150.628 370.133 151.086C372.346 156.168 372.971 161.701 370.856 165.523Z" fill="#A7CAF0"/>
<path d="M314.285 127.385C331.288 132.517 362.116 138.367 367.681 146.581C368.646 148.006 369.478 149.516 370.168 151.093" stroke="#83ADDF" stroke-width="0.75" stroke-linecap="round" stroke-linejoin="round"/>
<path d="M319.393 128.842C320.446 139.52 314.945 149.769 314.945 149.769" stroke="#83ADDF" stroke-width="0.75" stroke-linecap="round" stroke-linejoin="round"/>
<path d="M370.849 165.531C368.383 169.994 362.214 172.141 350.474 168.6C347.313 167.643 344.264 166.65 341.341 165.644C348.233 167.46 364.47 170.972 370.849 165.531Z" fill="#93BEE5"/>
<path d="M333.086 40.5135L333.374 43.0758C327.438 52.3535 319.323 55.2748 314.707 55.2326C307.077 53.3249 304.471 46.4405 304.028 39.0423C303.919 37.2889 303.919 35.5304 304.028 33.777C304.369 28.7658 305.211 23.8017 306.543 18.9593C306.543 18.9593 329.461 8.27378 331.049 29.7224C331.049 29.7224 335.967 28.8213 336.873 34.2979C337.646 38.8452 333.086 40.5135 333.086 40.5135Z" fill="#B25E47"/>
<path d="M307.709 33.8058C308.214 33.8058 308.623 33.3961 308.623 32.8908C308.623 32.3854 308.214 31.9756 307.709 31.9756C307.205 31.9756 306.796 32.3854 306.796 32.8908C306.796 33.3961 307.205 33.8058 307.709 33.8058Z" fill="black"/>
<path d="M314.089 32.6367C314.594 32.6367 315.002 32.227 315.002 31.7216C315.002 31.2162 314.594 30.8065 314.089 30.8065C313.585 30.8065 313.176 31.2162 313.176 31.7216C313.176 32.227 313.585 32.6367 314.089 32.6367Z" fill="black"/>
<path d="M312.712 26.7878C312.811 28.0408 317.082 28.5265 317.328 27.8156C317.672 26.7456 312.466 23.8525 312.712 26.7878Z" fill="black"/>
<path d="M304.555 28.6598C304.555 29.3637 309.199 29.6523 309.031 27.2519C308.918 25.5132 304.654 26.7732 304.555 28.6598Z" fill="black"/>
<path d="M329.862 36.5229C331.773 33.7072 334.78 34.0029 335.11 34.5379" stroke="#934735" stroke-width="0.75" stroke-linecap="round" stroke-linejoin="round"/>
<path d="M330.677 35.5594C333.487 33.8981 335.032 37.6218 331.463 37.6218" stroke="#934735" stroke-width="0.75" stroke-linecap="round" stroke-linejoin="round"/>
<path d="M310.176 30.2307C310.949 31.73 310.878 32.6381 310.373 33.6025C309.867 34.5668 308.314 36.7631 309.122 38.7129" stroke="#934735" stroke-width="0.75" stroke-linecap="round" stroke-linejoin="round"/>
<path d="M309.414 46.565C310.797 44.5631 313.879 44.026 315.021 44.6752C315.021 44.6752 314.865 40.8308 312.356 40.9903C309.46 41.2028 309.414 46.565 309.414 46.565Z" fill="white" stroke="#934735" stroke-width="0.75" stroke-linecap="round" stroke-linejoin="round"/>
<path d="M328.942 38.5411C329.516 38.9893 330.17 39.2969 330.859 39.4433C331.549 39.5897 332.259 39.5715 332.942 39.3901" stroke="#934735" stroke-width="0.75" stroke-linecap="round" stroke-linejoin="round"/>
<path d="M337.773 27.5339C340.4 31.1521 336.445 32.7218 336.445 32.7218C336.046 32.1293 335.517 31.6358 334.899 31.2788C334.511 31.0492 334.077 30.9085 333.628 30.8668C333.179 30.8251 332.727 30.8834 332.303 31.0374C331.879 31.1915 331.495 31.4375 331.177 31.7579C330.86 32.0784 330.617 32.4652 330.466 32.8907C325.077 33.0034 327.403 28.7869 327.403 28.7869C322.569 30.7227 322.414 25.76 324.494 23.5215C320.721 27.7451 315.93 23.5215 316.71 19.6992C315.375 23.8735 310.618 24.0354 311.251 20.5721C310.842 21.2836 310.347 21.9411 309.775 22.529C306.508 25.8233 303.571 22.3037 304.808 19.7133C299.89 24.4014 297.782 19.1572 302.454 16.3415C298.752 13.3005 303.157 8.96435 306.115 11.2169C305.412 5.81781 310.977 5.58552 313.414 8.73206C314.37 2.80502 321.761 6.04307 322.056 8.85172C327.501 5.03645 331.716 7.84512 331.19 14.0467C333.389 11.0972 338.103 12.8289 336.29 20.382C340.815 20.0582 341.581 25.6826 337.773 27.5339Z" fill="#604730"/>
<path d="M334.899 31.2784C334.511 31.0489 334.077 30.9082 333.628 30.8665C333.18 30.8248 332.727 30.8831 332.303 31.0371C331.88 31.1912 331.495 31.4372 331.178 31.7576C330.86 32.078 330.617 32.4649 330.466 32.8904C325.077 33.0031 327.403 28.7866 327.403 28.7866C322.569 30.7223 322.415 25.7597 324.494 23.5212C320.722 27.7447 315.93 23.5212 316.71 19.6989C315.375 23.8732 310.619 24.0351 311.251 20.5718C310.843 21.2833 310.347 21.9407 309.775 22.5287C308.455 18.5233 311.412 13.2369 315.93 15.6302C316.527 12.4062 323.911 10.3156 323.869 18.4459C326.602 14.6236 332.792 15.9329 329.862 23.2255C332.166 21.5009 337.464 24.4856 334.899 31.2784Z" fill="#473526"/>
<path d="M324.972 32.6931C325.625 34.0024 324.396 35.9382 322.232 37.0293C320.068 38.1204 317.777 37.9373 317.124 36.628C316.471 35.3187 317.693 33.3829 319.864 32.2919C322.035 31.2008 324.318 31.3838 324.972 32.6931Z" fill="#A0503D"/>
<path d="M306.894 37.6702C306.557 38.5923 305.426 39.078 304.035 39.078C303.926 37.3246 303.926 35.5661 304.035 33.8127C306.101 34.6926 307.372 36.3609 306.894 37.6702Z" fill="#A0503D"/>
<path d="M337.643 35.5429C337.704 31.3261 335.395 27.6291 332.487 27.2854C329.579 26.9418 327.172 30.0816 327.111 34.2984C327.05 38.5152 329.358 42.2122 332.266 42.5559C335.175 42.8995 337.582 39.7597 337.643 35.5429Z" fill="#AFCCF2"/>
<path d="M338.83 35.2812C338.891 31.0644 336.583 27.3674 333.675 27.0237C330.766 26.68 328.359 29.8198 328.298 34.0367C328.237 38.2535 330.545 41.9505 333.454 42.2942C336.362 42.6378 338.769 39.498 338.83 35.2812Z" fill="#1A73E8"/>
<path d="M333.77 30.2168L330.352 28.8616C330.352 28.8616 329.32 20.7158 327.072 16.8875C321.501 7.40067 311.318 7.80195 306.001 11.4006C306.5 10.4023 307.378 9.45043 308.196 8.87989C308.196 8.87989 321.501 1.90067 329.907 16.2408C333.467 20.8549 333.77 30.2168 333.77 30.2168Z" fill="#1A73E8"/>
<path d="M326.481 184.691V289.773H176.932V184.691C176.927 183.299 177.198 181.919 177.728 180.632C178.257 179.344 179.036 178.175 180.019 177.19C181.002 176.205 182.169 175.425 183.454 174.894C184.739 174.364 186.116 174.093 187.506 174.097H315.908C317.297 174.093 318.675 174.364 319.959 174.894C321.244 175.425 322.412 176.205 323.395 177.19C324.377 178.175 325.156 179.344 325.686 180.632C326.216 181.919 326.486 183.299 326.481 184.691Z" stroke="#FEE8E3" stroke-width="2" stroke-linecap="round" stroke-linejoin="round"/>
<path d="M326.481 184.691V185.17H176.932V184.691C176.927 183.299 177.198 181.919 177.728 180.632C178.257 179.344 179.036 178.175 180.019 177.19C181.002 176.205 182.169 175.425 183.454 174.894C184.739 174.364 186.116 174.093 187.506 174.097H315.908C317.297 174.093 318.675 174.364 319.959 174.894C321.244 175.425 322.412 176.205 323.395 177.19C324.377 178.175 325.156 179.344 325.686 180.632C326.216 181.919 326.486 183.299 326.481 184.691Z" stroke="#FEE8E3" stroke-width="2" stroke-linecap="round" stroke-linejoin="round"/>
<path d="M306.24 179.63C306.24 180.012 306.127 180.385 305.916 180.702C305.704 181.019 305.404 181.266 305.052 181.412C304.7 181.558 304.313 181.596 303.939 181.522C303.566 181.448 303.223 181.264 302.954 180.994C302.685 180.724 302.501 180.381 302.427 180.007C302.353 179.632 302.391 179.245 302.537 178.892C302.682 178.54 302.929 178.239 303.246 178.027C303.562 177.815 303.934 177.702 304.315 177.702C304.826 177.702 305.315 177.905 305.676 178.267C306.037 178.628 306.24 179.119 306.24 179.63V179.63Z" fill="#FEE8E3"/>
<path d="M310.589 181.559C311.652 181.559 312.514 180.696 312.514 179.63C312.514 178.565 311.652 177.702 310.589 177.702C309.526 177.702 308.664 178.565 308.664 179.63C308.664 180.696 309.526 181.559 310.589 181.559Z" fill="#FEE8E3"/>
<path d="M316.87 181.559C317.934 181.559 318.795 180.696 318.795 179.63C318.795 178.565 317.934 177.702 316.87 177.702C315.807 177.702 314.945 178.565 314.945 179.63C314.945 180.696 315.807 181.559 316.87 181.559Z" fill="#FEE8E3"/>
<path d="M185.75 235.457C181.478 222.786 180.474 215.944 181.64 214.965C182.342 214.346 183.516 213.888 183.607 212.635C183.698 211.382 182.265 207.173 187.267 206.187C187.267 206.187 188.961 196.255 190.57 191.602C190.57 191.602 199.506 227.242 200.132 229.917C200.757 232.592 188.651 244.101 185.75 235.457Z" fill="#FEBD9D"/>
<path d="M187.267 206.187C186.94 207.782 186.706 209.394 186.565 211.016" stroke="#EF8A66" stroke-width="0.75" stroke-linecap="round" stroke-linejoin="round"/>
<path d="M181.331 218.71C181.071 216.599 181.197 215.346 181.647 214.965C182.35 214.346 183.523 213.888 183.614 212.635C183.706 211.382 182.272 207.173 187.275 206.187C187.275 206.187 188.968 196.255 190.577 191.602" stroke="#EF8A66" stroke-width="0.75" stroke-linecap="round" stroke-linejoin="round"/>
<path d="M229.2 170.285L190.049 181.348C187.763 181.994 186.433 184.373 187.077 186.663L194.677 213.662C195.322 215.951 197.697 217.284 199.982 216.638L239.134 205.575C241.42 204.929 242.75 202.55 242.105 200.26L234.506 173.261C233.861 170.972 231.486 169.639 229.2 170.285Z" fill="#F9F9F9" stroke="#FEE8E3" stroke-linecap="round" stroke-linejoin="round"/>
<path d="M227.265 174.227L193.767 183.693C192.254 184.12 191.374 185.695 191.8 187.211L198.42 210.726C198.846 212.242 200.418 213.124 201.931 212.696L235.429 203.231C236.942 202.803 237.822 201.228 237.395 199.713L230.776 176.197C230.349 174.682 228.778 173.8 227.265 174.227Z" stroke="#FEE8E3" stroke-linecap="round" stroke-linejoin="round"/>
<path d="M217.555 196.981C217.566 197.18 217.566 197.38 217.555 197.579C217.446 199.093 216.918 200.548 216.03 201.778C215.143 203.009 213.93 203.967 212.529 204.546C211.128 205.125 209.594 205.302 208.099 205.056C206.603 204.81 205.206 204.152 204.063 203.155C202.92 202.158 202.077 200.861 201.628 199.411C201.179 197.961 201.143 196.414 201.522 194.944C201.902 193.474 202.683 192.139 203.777 191.089C204.872 190.039 206.237 189.315 207.719 188.998C208.272 188.872 208.838 188.811 209.405 188.815C210.476 188.814 211.537 189.025 212.527 189.435C213.517 189.844 214.417 190.446 215.175 191.204C215.933 191.962 216.535 192.862 216.945 193.854C217.356 194.845 217.568 195.907 217.569 196.981H217.555Z" stroke="#FEE8E3" stroke-linecap="round" stroke-linejoin="round"/>
<path d="M217.527 197.557C217.43 198.912 216.996 200.221 216.267 201.366C215.537 202.511 214.534 203.455 213.348 204.114C212.163 204.773 210.832 205.126 209.476 205.14C208.12 205.154 206.783 204.829 205.584 204.195C207.164 200.992 209.37 196.452 209.37 196.452L217.527 197.557Z" stroke="#FEE8E3" stroke-linecap="round" stroke-linejoin="round"/>
<path d="M217.555 196.98C217.566 197.18 217.566 197.379 217.555 197.579L209.419 196.495L215.574 191.616C216.862 193.105 217.566 195.011 217.555 196.98V196.98Z" stroke="#FEE8E3" stroke-linecap="round" stroke-linejoin="round"/>
<path d="M215.546 191.617L209.392 196.495C209.392 196.495 208.338 191.969 207.705 188.998C208.259 188.872 208.824 188.811 209.392 188.815C210.558 188.814 211.711 189.063 212.772 189.546C213.834 190.03 214.78 190.736 215.546 191.617V191.617Z" fill="#FEE8E3" stroke="#FEE8E3" stroke-linecap="round" stroke-linejoin="round"/>
<path d="M226.822 193.981C228.361 193.439 226.942 192.651 227.96 192.214C229.45 191.581 229.935 182.359 223.316 184.253C218.3 185.661 221.953 193.861 224.412 193.108C225.08 192.904 225.059 194.608 226.822 193.981Z" fill="#F9F9F9" stroke="#FEE8E3" stroke-linecap="round" stroke-linejoin="round"/>
<path d="M225.016 187.224C224.363 188.399 224.883 189.223 225.951 189.617C227.742 190.286 225.079 192.391 224.496 191.236C223.857 189.969 227.356 190.814 226.604 193.658" stroke="#FEE8E3" stroke-linecap="round" stroke-linejoin="round"/>
<path d="M226.035 195.868C226.485 196.945 227.04 197.135 227.89 196.889C228.74 196.642 228.775 196.051 228.55 195.192L226.035 195.868Z" fill="#F9F9F9" stroke="#FEE8E3" stroke-linecap="round" stroke-linejoin="round"/>
<path d="M225.312 195.185C225.719 194.481 228.122 194.051 228.459 194.129C228.796 194.206 229.098 195.185 228.656 195.438C227.728 195.853 226.738 196.112 225.726 196.205C225.625 196.175 225.531 196.123 225.453 196.052C225.374 195.981 225.313 195.893 225.273 195.795C225.233 195.697 225.216 195.591 225.223 195.485C225.229 195.38 225.26 195.277 225.312 195.185Z" fill="#F9F9F9" stroke="#FEE8E3" stroke-linecap="round" stroke-linejoin="round"/>
<path d="M224.848 193.876C225.283 193.172 227.869 192.735 228.199 192.82C228.635 192.925 228.901 193.876 228.417 194.122C227.421 194.539 226.366 194.798 225.29 194.889C225.187 194.863 225.092 194.813 225.011 194.744C224.93 194.674 224.866 194.588 224.823 194.49C224.781 194.393 224.761 194.287 224.765 194.18C224.769 194.074 224.797 193.97 224.848 193.876Z" fill="#F9F9F9" stroke="#FEE8E3" stroke-linecap="round" stroke-linejoin="round"/>
<path d="M216.607 186.605L218.742 186.746" stroke="#FEE8E3" stroke-linecap="round" stroke-linejoin="round"/>
<path d="M220.808 180.087L221.742 182.149" stroke="#FEE8E3" stroke-linecap="round" stroke-linejoin="round"/>
<path d="M228.107 180.628L227.356 182.148" stroke="#FEE8E3" stroke-linecap="round" stroke-linejoin="round"/>
<path d="M192.164 211.713C189.192 217.041 191.546 223.426 195.136 225.165C198.726 226.903 200.208 215.866 200.637 213.078C201.066 210.291 201.073 206.074 201.382 203.962C201.691 201.851 199.71 200.182 198.41 203.406C197.11 206.63 196.492 208.601 196.492 208.601L192.164 211.713Z" fill="#FEBD9D"/>
<path d="M200.638 213.078C201.073 210.263 201.073 206.074 201.382 203.962C201.691 201.851 199.71 200.182 198.41 203.406C197.111 206.63 196.492 208.601 196.492 208.601L192.165 211.713" stroke="#EF8A66" stroke-width="0.75" stroke-linecap="round" stroke-linejoin="round"/>
<path d="M288.12 190.985L285.731 221.254L259.568 223.725C261.809 216.594 263.613 209.332 264.97 201.981C265.561 198.806 266.095 195.434 266.502 191.992L276.141 191.549L288.12 190.985Z" fill="#FEBD9D"/>
<path d="M278.284 194.399C277.216 198.552 271.364 201.495 265.013 201.966C265.603 198.792 266.137 195.42 266.544 191.978L276.184 191.534C277.694 192.203 278.579 193.132 278.284 194.399Z" fill="#F4A789"/>
<path d="M328.757 223.711V294.139H323.305C323.305 294.139 320.087 281.363 306.233 254.585C306.233 254.585 305.966 255.775 305.425 257.838C304.68 260.696 303.408 265.215 301.603 270.586C298.558 279.823 294.639 288.747 289.898 297.236C279.902 301.527 269.358 304.403 258.57 305.782C258.275 305.782 257.973 305.859 257.671 305.887C246.922 307.218 234.444 307.225 221.784 303.959C213.922 301.963 206.419 298.75 199.547 294.435C199.927 293.815 217.02 260.287 222.346 249.503C222.76 248.665 223.175 247.849 223.596 247.039C228.599 237.459 234.599 230.011 250.8 223.711C254.559 222.261 257.861 220.973 260.755 219.847C271.427 215.701 276.746 213.652 280.006 212.681C282.31 211.996 284.5 211.355 286.575 210.759C306.542 205.015 316.448 203.671 324.844 216.503C326.319 218.809 327.626 221.218 328.757 223.711V223.711Z" fill="#FED81D"/>
<path d="M324.843 216.503C317.93 216.081 309.232 217.988 304.314 228.836C295.23 248.856 277.3 257.239 264.155 244.407C253.828 234.334 236.228 235.643 223.596 247.039C228.598 237.459 234.598 230.011 250.799 223.711C254.558 222.261 257.86 220.973 260.755 219.847C271.427 215.701 276.745 213.652 280.005 212.681C282.31 211.996 284.499 211.355 286.574 210.759C306.541 205.015 316.448 203.671 324.843 216.503Z" fill="#FFE05C"/>
<path d="M328.757 275.105V294.111H323.305C323.305 294.111 320.087 281.335 306.232 254.558C307.026 251.467 307.637 248.49 308.129 245.85C317.08 249.778 317.846 258.091 316.869 262.786C315.963 267.158 320.565 277.871 328.757 275.105Z" fill="#FCC71F"/>
<path d="M254.221 259.392C252.816 266.755 246.697 279.665 235.772 298.108C234.093 300.783 232.187 303.308 230.074 305.654C227.283 305.233 224.516 304.669 221.784 303.964L225.24 294.145C227.2 286.549 230.861 283.164 238.744 281.643C245.741 280.285 239.882 258.843 254.221 259.392Z" fill="#FCC71F"/>
<path d="M230.074 305.648C232.186 303.302 234.093 300.777 235.772 298.102C246.697 279.666 252.809 266.756 254.221 259.386C254.661 257.105 254.65 255.357 254.186 254.142" stroke="#F7AD2B" stroke-width="0.75" stroke-linecap="round" stroke-linejoin="round"/>
<path d="M309.521 236.213C309.521 236.213 309.148 240.26 308.116 245.878C307.638 248.517 307.013 251.509 306.219 254.585" stroke="#F7AD2B" stroke-width="0.75" stroke-linecap="round" stroke-linejoin="round"/>
<path d="M225.233 278.336C225.493 295.265 206.208 312.335 195.634 291.386C191.215 282.637 180.177 241.802 180.95 236.213C181.653 231.236 196.182 220.156 202.147 222.324C202.147 222.324 204.641 228.899 208.069 237.29C212.432 247.968 218.306 261.61 222.437 268.382C224.242 271.389 225.207 274.827 225.233 278.336V278.336Z" fill="#FED81D"/>
<path d="M217.554 259.076C215.264 263.616 212.636 268.847 210.065 273.859C208.315 270.656 207.999 265.939 211.723 261.54C216.458 255.958 201.634 246.215 208.069 237.276C210.894 244.202 214.35 252.347 217.554 259.076Z" fill="#FCC71F"/>
<path d="M217.645 258.899C217.645 258.956 217.582 259.012 217.554 259.075C215.263 263.616 212.636 268.846 210.064 273.858L207.655 278.595" stroke="#F7AD2B" stroke-width="0.75" stroke-linecap="round" stroke-linejoin="round"/>
<path d="M259.892 176.496C256.379 189.202 253.252 196.156 274.885 197.578C274.885 197.578 288.613 182.092 286.744 159.609C286.744 159.609 274.512 149.754 263.917 168.95C263.917 168.95 260.032 170.442 259.59 170.97C259.147 171.498 259.442 174.778 259.892 176.496Z" fill="#FEBD9D"/>
<path d="M263.917 168.95C263.917 168.95 260.032 170.442 259.59 170.97C259.147 171.498 259.442 174.779 259.892 176.496" stroke="#EF8A66" stroke-width="0.75" stroke-linecap="round" stroke-linejoin="round"/>
<path d="M266.875 171.675C267.379 171.675 267.788 171.265 267.788 170.76C267.788 170.255 267.379 169.845 266.875 169.845C266.37 169.845 265.961 170.255 265.961 170.76C265.961 171.265 266.37 171.675 266.875 171.675Z" fill="#5C1A55"/>
<path d="M267.669 163.355C269.482 162.095 272.664 169.429 270.36 169.401C269.433 169.401 265.463 164.889 267.669 163.355Z" fill="#BF8228"/>
<path d="M306.233 225.398C305.165 235.844 300.064 240.004 301.055 243.531C302.046 247.058 304.484 246.29 304.484 246.29C304.484 246.29 302.545 251.922 295.104 249.676C295.104 249.676 288.598 259.63 282.458 252.492C276.908 260.087 265.21 261.643 264.852 251.225C264.852 251.225 269.369 252.358 271.674 249.423C273.978 246.487 274.484 241.595 271.983 239.019C269.482 236.442 265.849 233.866 265.617 229.565C265.386 225.264 268.554 217.718 273.156 212.108C273.156 212.108 254.791 206.92 253.435 222.667L249.767 224.074C249.767 224.074 245.854 222.181 245.945 215.853C246.037 209.524 251.805 204.878 258.086 204.991C264.367 205.104 279.521 202.372 272.137 183.205C272.137 183.205 278.165 185.415 279.739 180.579C281.313 175.743 275.854 173.167 272.713 175.87C272.713 175.87 270.142 171.893 277.765 163.136C276.915 160.362 273.971 159.616 275.236 156.8C276.261 154.534 282.697 154.534 287.531 155.512C288.568 155.719 289.59 156.001 290.587 156.357C293.356 157.343 295.768 159.134 297.514 161.503C298.561 162.904 299.251 164.539 299.523 166.268C300.218 165.982 300.965 165.848 301.715 165.874C303.233 165.93 305.088 166.782 305.748 170.337C306.711 175.483 303.191 178.08 300.83 179.27C300.173 179.597 299.486 179.858 298.779 180.051C299.295 181.662 299.533 183.35 299.481 185.042V185.042C299.451 186.146 299.303 187.243 299.039 188.315C298.034 192.335 295.856 199.332 296.819 204.196C296.924 204.785 297.094 205.361 297.324 205.913C299.299 210.742 307.301 214.952 306.233 225.398Z" fill="#BF8228"/>
<path d="M300.803 179.305C300.146 179.632 299.459 179.893 298.751 180.086C298.751 180.086 295.456 180.889 294.149 175.116C293.102 170.492 295.695 167.373 299.524 166.303C300.218 166.017 300.966 165.883 301.716 165.909C294.789 171.956 298.154 176.869 300.803 179.305Z" fill="#B57724"/>
<path d="M306.233 225.398C305.165 235.844 300.064 240.004 301.055 243.531C302.046 247.058 304.484 246.29 304.484 246.29C304.484 246.29 302.545 251.922 295.104 249.676C295.104 249.676 288.598 259.63 282.458 252.492C276.908 260.087 265.21 261.643 264.852 251.225C264.852 251.225 269.369 252.358 271.674 249.423C273.978 246.487 274.484 241.595 271.983 239.019C269.482 236.442 265.849 233.866 265.617 229.565C265.386 225.264 268.554 217.718 273.156 212.108C273.156 212.108 254.791 206.92 253.435 222.667L249.767 224.074C249.767 224.074 245.854 222.181 245.945 215.853C246.037 209.524 251.805 204.878 258.086 204.991C264.367 205.104 279.521 202.372 272.137 183.205C272.137 183.205 278.165 185.415 279.739 180.579C281.313 175.743 275.854 173.167 272.713 175.87C272.713 175.87 270.142 171.893 277.765 163.136C276.915 160.362 273.971 159.616 275.236 156.8C276.261 154.534 282.697 154.534 287.531 155.512C284.299 157.497 282.135 160.616 283.933 165.494C288.353 177.461 287.109 183.219 283.28 188.329C279.451 193.44 275.123 203.816 278.805 212.108C282.486 220.4 277.076 216.585 278.699 232.993C280.322 249.402 301.041 239.406 300.395 226.038C299.811 213.959 292.498 209.897 296.762 204.217C296.868 204.806 297.038 205.382 297.268 205.934C299.299 210.742 307.301 214.952 306.233 225.398Z" fill="#B57724"/>
<path d="M272.608 178.763C274.618 177.51 276.522 177.622 277.625 178.418" stroke="#EF8A66" stroke-width="0.75" stroke-linecap="round" stroke-linejoin="round"/>
<path d="M272.784 180.727C275.741 182.001 276.296 178.186 273.88 178.137" stroke="#EF8A66" stroke-width="0.75" stroke-linecap="round" stroke-linejoin="round"/>
<path d="M288.044 161.693C291.283 162.706 296.13 167.81 296.13 167.81" stroke="#9B621F" stroke-width="0.75" stroke-linecap="round" stroke-linejoin="round"/>
<path d="M299.524 166.304C295.695 167.367 293.102 170.492 294.149 175.117C295.456 180.889 298.751 180.087 298.751 180.087" stroke="#9B621F" stroke-width="0.75" stroke-linecap="round" stroke-linejoin="round"/>
<path d="M295.308 168.958C298.272 167.768 301.813 167.261 303.162 171.02C304.511 174.779 302.537 177.693 299.523 179.84" stroke="#9B621F" stroke-width="0.75" stroke-linecap="round" stroke-linejoin="round"/>
<path d="M280.393 171.252C286.435 173.068 294.086 172.589 294.086 172.589" stroke="#9B621F" stroke-width="0.75" stroke-linecap="round" stroke-linejoin="round"/>
<path d="M282.057 181.755C287.334 183.057 294.001 179.221 295.055 177.701" stroke="#9B621F" stroke-width="0.75" stroke-linecap="round" stroke-linejoin="round"/>
<path d="M293.974 174.096C294.831 171.731 297.255 170.175 299.053 172.512C300.852 174.849 298.154 177.327 295.969 174.744" stroke="#9B621F" stroke-width="0.75" stroke-linecap="round" stroke-linejoin="round"/>
<path d="M273.163 212.144C278.277 206.097 282.591 201.268 280.399 192.539" stroke="#9B621F" stroke-width="0.75" stroke-linecap="round" stroke-linejoin="round"/>
<path d="M282.5 252.528C285.598 247.783 280.814 240.814 280.083 236.218C279.353 231.621 279.191 225.856 284.952 219.598" stroke="#9B621F" stroke-width="0.75" stroke-linecap="round" stroke-linejoin="round"/>
<path d="M290.277 198.894C294.577 209.855 295.251 211.621 292.919 219.829C290.586 228.037 289.181 232.106 292.919 237.962C297.071 244.452 295.771 246.804 295.097 249.676" stroke="#9B621F" stroke-width="0.75" stroke-linecap="round" stroke-linejoin="round"/>
<path d="M271.21 175.56C271.484 177.053 270.058 178.566 268.034 178.932C266.011 179.298 264.149 178.39 263.875 176.891C263.601 175.391 265.027 173.885 267.051 173.519C269.074 173.153 270.936 174.061 271.21 175.56Z" fill="#F4AF90"/>
<path d="M271.298 180.1C271.237 176.744 273.545 173.802 276.454 173.529C279.362 173.255 281.769 175.754 281.83 179.11C281.891 182.466 279.583 185.408 276.675 185.681C273.766 185.955 271.359 183.456 271.298 180.1Z" fill="#AFCCF2"/>
<path d="M270.111 179.892C270.05 176.536 272.358 173.594 275.266 173.321C278.175 173.047 280.582 175.546 280.643 178.902C280.704 182.257 278.396 185.199 275.487 185.473C272.579 185.746 270.172 183.248 270.111 179.892Z" fill="#1A73E8"/>
<path d="M275.171 175.862L279 175.861C287.716 168.078 289 158.999 289.001 155.999C289.001 155.169 287.576 155.175 287.501 155.497C285.501 163.998 281.501 168 275.171 175.862Z" fill="#1A73E8"/>
<path d="M326.481 202.345V289.773H176.932" stroke="#FEE8E3" stroke-width="2" stroke-linecap="round" stroke-linejoin="round"/>
</g>
<defs>
<filter id="filter0_d_11_55" x="0" y="0" width="426" height="318" filterUnits="userSpaceOnUse" color-interpolation-filters="sRGB">
<feFlood flood-opacity="0" result="BackgroundImageFix"/>
<feColorMatrix in="SourceAlpha" type="matrix" values="0 0 0 0 0 0 0 0 0 0 0 0 0 0 0 0 0 0 127 0" result="hardAlpha"/>
<feOffset dy="4"/>
<feGaussianBlur stdDeviation="2"/>
<feComposite in2="hardAlpha" operator="out"/>
<feColorMatrix type="matrix" values="0 0 0 0 0 0 0 0 0 0 0 0 0 0 0 0 0 0 0.25 0"/>
<feBlend mode="normal" in2="BackgroundImageFix" result="effect1_dropShadow_11_55"/>
<feBlend mode="normal" in="SourceGraphic" in2="effect1_dropShadow_11_55" result="shape"/>
</filter>
</defs>
</svg>
