<svg width="89" height="70" viewBox="0 0 89 70" fill="none" xmlns="http://www.w3.org/2000/svg">
<path d="M40.0989 49C53.2213 46.0184 75.2876 38.7538 86.677 34.8101C87.5257 34.5162 87.5769 33.3462 86.7585 32.9764C64.3162 22.8367 29.3956 10.1478 10.5802 3.62114C9.54756 3.26294 8.71784 4.6602 9.48533 5.43843C25.0851 21.2567 42.9251 51.3885 51.4718 67.4489C51.9183 68.2879 53.1581 68.0912 53.3099 67.153C56.5486 47.1378 56.3916 17.4152 55.8265 2.88295C55.7952 2.07932 54.8809 1.66066 54.2551 2.1658C40.0042 13.6692 15.3496 43.4331 2.43926 59.8728C1.7975 60.69 2.6805 61.8326 3.63803 61.4292C12.4601 57.7119 27.9336 51.7641 40.0989 49Z" stroke="#FF8934" stroke-opacity="0.2" stroke-width="3"/>
</svg>
