<svg width="543" height="91" viewBox="0 0 543 91" fill="none" xmlns="http://www.w3.org/2000/svg">
<path d="M420.933 8.43468C420.933 8.22151 420.729 7.79516 420.524 7.79516C420.524 7.79516 419.708 7.79517 418.891 8.00834L417.869 7.15564L417.461 6.72928C417.052 6.94246 416.236 6.94245 415.623 6.94245C415.01 6.94245 413.172 5.87659 412.968 6.08976V6.51611C412.968 6.94246 412.355 6.94246 411.538 6.72928C410.925 6.51611 408.066 6.94245 407.249 6.94245C406.432 6.94245 403.981 6.08976 403.369 6.08976C402.756 6.08976 401.53 6.72928 401.122 6.72928C400.713 6.72928 399.488 6.08976 399.284 6.08976C399.08 6.08976 398.263 6.08977 398.263 5.66342C398.263 5.23707 396.629 5.87659 396.22 5.87659L395.812 5.66342C394.995 5.23707 394.791 5.45024 394.586 6.08976L394.382 6.51611C393.769 5.87659 393.157 5.45025 392.748 5.66342C392.34 5.87659 390.91 5.87659 390.093 5.87659L389.48 5.45025L389.072 5.23707C388.663 5.23707 387.847 5.45025 387.438 5.45025L387.642 6.08976C387.234 6.30293 387.03 6.72929 386.621 7.15564C386.213 6.94247 386.008 6.72929 386.008 6.30295C386.008 6.08977 384.987 5.66343 384.17 5.45025L383.558 5.87659V6.08976C382.741 6.51611 381.924 6.51611 381.515 6.08976L381.107 5.87659L380.902 5.66342C380.494 5.66342 380.29 5.87659 380.29 6.08976V6.30295V6.51611C380.29 6.72929 380.086 6.72928 379.677 6.72928L379.473 6.94245C379.269 6.72928 379.064 6.30293 378.86 6.08976L378.452 5.66342C378.043 5.87659 377.43 5.87659 377.226 5.87659C377.022 5.87659 375.592 5.87659 374.571 6.72928L373.141 5.87659C372.937 5.66342 372.325 5.87659 372.325 5.87659L371.712 6.72928C370.895 6.30294 370.078 5.87659 369.874 5.66342C369.669 5.45025 368.852 5.02389 368.648 5.23707C368.444 5.66341 367.627 6.30294 367.014 5.87659H366.606L365.789 5.66342C364.768 5.66342 363.951 5.66343 363.747 5.45025C363.542 5.45025 362.725 5.23707 362.113 5.0239C361.5 4.81072 359.253 5.66343 359.049 5.45025L358.845 5.23707C358.436 5.23707 358.232 5.23707 358.436 5.66342V5.87659C358.436 6.08976 358.028 6.30295 357.824 6.30295L357.211 6.72928C357.211 6.30294 357.007 5.87659 356.802 5.66342C356.598 5.45025 355.577 5.02389 354.556 5.23707L353.739 5.45025H353.535C353.33 5.66343 353.33 5.87659 353.33 5.87659C353.33 5.87659 353.739 6.30293 353.943 6.94245C354.147 7.58197 356.394 7.36881 356.598 7.36881V7.58199V7.79516C356.598 8.00833 355.577 8.64786 354.556 9.07421L353.33 8.43468L352.922 8.00834C352.309 7.79517 352.309 7.58198 352.922 7.36881C353.535 7.15563 352.718 5.45024 352.105 5.0239H351.288C349.858 5.0239 348.429 5.45025 346.999 4.81073C346.591 4.59755 345.774 4.81072 345.365 5.23707L344.957 5.45025C344.753 6.08977 344.548 6.30294 344.344 5.87659C344.14 5.45024 343.119 4.59755 342.506 4.81073C341.893 4.81073 339.851 4.59755 339.442 3.95803L338.83 4.38439H338.625C338.421 4.59756 338.217 5.02391 337.808 5.45025L337.196 5.0239H336.991C336.583 5.0239 336.175 5.23707 336.175 5.66342C336.175 5.87659 335.766 6.51612 335.562 6.30295V6.08976C335.562 5.87659 335.562 5.66342 335.562 5.66342C335.358 5.23707 334.949 5.23708 334.541 5.45025C333.519 6.08977 334.336 4.81073 333.724 4.81073H333.315C332.907 4.59755 332.09 4.81072 331.477 5.0239L330.864 4.59756C330.66 4.38439 330.252 4.38439 330.252 4.38439L329.026 5.66342C328.209 4.59755 327.188 4.17121 326.575 4.81073C325.963 5.23707 323.716 4.81072 323.308 5.0239C322.899 5.23707 321.061 4.59756 320.04 4.59756L319.223 4.1712H319.019C318.814 4.38438 317.793 4.59755 317.18 4.81073L315.955 4.59756L314.934 4.38439C314.73 5.02391 314.321 5.23707 313.913 4.81073C313.504 4.59755 311.87 4.81073 311.666 4.81073C311.462 4.81073 310.645 4.38438 309.828 4.1712L309.011 4.38439L308.194 4.59756C307.173 4.59756 306.356 4.59756 306.152 4.59756C305.947 4.81073 305.539 4.81073 305.335 4.59756C305.13 4.38439 303.905 3.74486 303.701 3.95803C303.497 4.17121 302.68 4.81072 302.271 5.0239C301.863 5.23707 300.229 5.02391 299.412 4.59756C298.595 4.38439 296.552 4.59756 296.144 4.59756C295.736 4.59756 294.306 4.17122 294.102 4.38439C293.693 4.59756 292.672 5.0239 292.468 5.0239H292.264L291.651 4.59756C290.834 4.59756 289.813 4.81073 289.608 4.81073C289.404 4.81073 288.383 4.59756 287.77 4.59756C287.158 4.59756 285.728 4.59755 285.728 3.95803L284.503 4.59756L284.298 4.81073C284.094 4.81073 283.481 5.0239 282.869 5.0239C282.256 5.0239 280.418 5.23707 279.805 4.81073C279.192 4.59755 277.354 4.1712 276.946 4.1712L276.741 4.38439C276.333 4.81074 275.925 5.23707 275.108 5.0239H274.495C274.086 4.59755 273.678 4.1712 273.474 4.1712H273.269H272.453C271.636 3.95803 270.41 3.74487 269.797 3.5317L269.389 4.1712C268.98 4.81072 268.164 5.02391 267.347 4.38439L263.67 3.95803H262.649C261.424 3.95803 260.198 4.17121 259.79 3.95803C259.381 3.95803 258.36 4.59755 258.36 4.1712C258.36 3.74486 257.952 3.53168 257.543 4.1712C257.135 4.81072 254.684 4.1712 253.663 4.1712C252.846 4.1712 250.191 3.74487 249.986 3.5317L248.557 4.59756C246.719 4.38439 244.88 4.38439 244.88 4.38439C244.268 3.95804 243.859 3.53169 243.042 3.95803L242.634 4.1712C241.817 3.95803 240.592 3.5317 239.775 3.5317H239.162H238.141C237.119 3.5317 236.098 3.74486 235.894 3.95803C235.69 4.17121 235.077 4.38439 235.077 4.38439C235.077 4.17122 234.26 3.74487 233.852 3.74487C233.239 3.74487 231.605 3.53169 231.197 3.74487V3.95803V4.81073C230.584 4.59755 229.358 4.38438 228.542 4.1712L227.725 4.59756C227.316 4.81073 226.703 4.81073 226.499 4.59756C225.886 4.17121 225.274 4.1712 224.457 4.1712H223.844C223.027 3.95803 222.21 3.74487 222.006 3.5317C221.597 3.5317 220.576 3.95803 219.964 3.95803C219.351 3.95803 217.717 3.74487 217.308 3.74487C217.104 3.74487 216.287 3.31852 216.083 3.5317C215.879 3.74487 214.449 4.59755 213.428 5.23707L213.224 3.5317C213.224 3.5317 212.611 3.31852 212.407 3.5317L210.773 4.1712C209.956 3.95803 208.118 3.74487 206.688 3.5317H205.258H205.054C204.85 3.95804 203.42 4.17121 201.786 3.95803H200.357C199.948 3.95803 199.948 4.59755 200.561 4.81073L200.765 5.0239C201.174 5.0239 201.174 5.23708 200.765 5.45025C200.357 5.66343 199.54 5.66341 199.54 5.23707C199.54 4.81072 199.131 3.5317 198.519 3.5317C197.906 3.5317 195.864 3.95803 195.251 3.95803H194.638C194.025 3.95803 193.208 3.95803 192.596 4.1712L191.575 4.59756C190.553 4.17121 189.532 3.74487 188.919 3.5317C188.511 3.31852 187.694 4.38439 187.694 4.38439C187.694 4.38439 187.081 4.17121 186.877 3.95803L186.469 4.38439C185.856 4.81074 185.447 4.81073 185.243 3.95803V3.74487C184.835 3.53169 184.222 3.53169 184.018 3.95803C183.814 4.38438 182.18 4.17121 181.363 3.95803C180.546 3.95803 178.095 3.74487 177.686 3.74487L177.482 3.31851C177.482 3.31851 176.665 3.10534 176.665 3.31851C176.461 3.53168 176.461 4.38438 175.644 3.95803L175.236 3.74487C175.031 3.10535 174.214 2.89216 173.398 3.31851L172.581 3.74487C172.376 3.74487 170.334 3.5317 170.13 3.5317C169.517 3.10535 168.904 2.46583 168.7 3.74487C168.496 3.74487 168.087 3.95803 167.679 3.95803C167.27 3.95803 166.045 4.1712 166.045 4.1712C165.841 3.95803 165.432 3.53168 165.432 3.31851C165.432 3.31851 164.82 2.89218 164.207 2.679C163.594 2.46583 162.164 3.10535 161.96 2.89217C161.96 2.679 160.939 2.679 160.735 2.89217C160.531 3.10535 159.305 3.74487 158.897 3.5317C158.692 3.31852 157.671 2.89217 157.467 3.10534C157.263 3.31851 156.65 3.53168 156.446 3.31851C156.446 3.10534 155.833 2.67899 155.425 3.10534H155.016H154.199C153.995 3.53169 153.586 3.74486 153.178 3.31851C152.974 2.89216 151.953 2.03947 151.953 2.25265C151.953 2.46582 151.34 2.679 151.136 2.679C150.727 2.46583 149.91 2.25264 149.706 2.46582V2.679C149.502 3.31852 148.889 3.31852 148.685 2.89217C148.481 1.82631 147.664 1.8263 147.051 2.25265L146.438 2.679C145.826 2.46583 144.804 2.25265 143.987 2.03948L143.375 2.679C142.762 3.31852 142.149 3.53169 141.332 2.89217C141.332 2.89217 140.924 2.89217 140.924 3.10534L140.311 3.74487C140.107 3.53169 139.698 3.10535 139.494 2.679H139.29H138.473C137.452 2.89218 136.635 2.89217 136.431 2.89217C136.226 2.89217 135.614 2.679 135.205 2.679C134.797 2.679 133.367 3.53169 132.754 3.10534C132.346 2.89217 130.712 2.46583 130.508 2.89217C130.303 3.31852 128.465 2.46582 127.444 2.46582C126.627 2.46582 124.381 2.89218 124.381 2.679C124.381 2.46583 123.972 1.61313 123.768 2.03948V2.25265V2.46582C123.768 2.67899 123.155 2.89217 122.338 2.89217C121.725 2.89217 120.092 3.53169 120.5 3.74487C120.909 3.95804 125.402 4.17122 126.423 4.38439C127.444 4.59756 127.24 5.0239 126.627 5.0239L126.014 5.23707C125.81 5.02389 125.198 4.59756 124.789 4.38439C124.176 4.17122 123.564 5.66342 123.155 5.66342C122.951 5.66342 122.542 5.23707 122.747 4.81073V4.59756C122.542 3.74487 122.542 3.95804 123.155 3.74487L123.564 2.46582C124.176 2.67899 124.993 2.89217 124.993 2.89217H125.197L126.014 3.31851C125.197 3.10534 123.972 3.31852 123.155 3.74487C122.338 4.17121 120.704 4.38438 120.092 4.1712C119.683 3.95803 117.845 4.38438 117.436 4.1712C117.028 3.95803 117.028 3.10535 117.232 2.89217C117.232 2.89217 118.049 2.46582 118.253 2.46582C118.662 2.46582 119.07 2.25265 118.662 2.03948C118.253 1.82631 116.824 0.973616 116.824 0.973616C116.824 0.760443 115.803 0.973616 115.598 0.973616C115.394 0.973616 114.781 1.82631 114.577 2.03948C114.373 2.46583 112.535 3.10534 112.535 3.31851C112.331 3.53168 112.126 2.67899 112.331 2.46582H112.535L113.148 2.25265C113.76 2.03947 114.169 1.61313 113.964 1.18679V0.973616C114.169 0.760443 114.373 0.334088 113.76 0.547261L112.943 0.76043C111.922 0.973603 110.697 1.18679 110.288 1.18679C109.675 1.39996 107.225 0.760434 107.02 0.547261C106.612 0.334088 105.999 0.334096 105.387 0.120923L104.978 0.334092H104.774L104.569 0.547261C104.161 0.973608 103.753 0.973603 103.548 0.76043C103.344 0.547257 102.323 0.547257 101.914 0.76043C101.506 0.973603 99.8721 0.54727 99.2594 0.973616L98.6467 1.39995C98.6467 1.39995 98.8509 1.82631 98.8509 2.03948V2.25265C98.8509 2.46582 98.6466 2.25266 98.4424 1.82631C98.2382 1.39996 96.8085 0.973616 97.0128 0.973616C97.0128 0.760443 96.8085 0.547261 96.4 0.547261C95.9915 0.547261 94.1535 1.18678 93.3365 1.39995C92.5196 1.61313 90.2729 0.973612 90.2729 1.18679C90.2729 1.39996 89.6602 1.39995 89.8645 1.61312C89.8645 1.8263 90.4771 2.03947 90.6814 2.25265C90.8856 2.46582 90.2729 3.95803 89.0475 4.1712L88.639 3.31851L88.2306 2.679C88.8433 1.61314 88.8433 0.76043 88.0263 0.76043L87.8221 0.973616C87.4136 1.39996 87.2094 2.03948 86.3924 2.03948C86.3924 2.03948 86.3924 2.03947 86.3924 2.25265C86.1882 3.31851 86.1882 3.31852 84.9628 3.5317H84.3501C83.5331 3.74487 82.9204 3.53169 82.9204 3.10534C82.9204 2.67899 82.7162 1.39995 82.3077 1.39995L81.8992 1.82631C81.4907 2.25266 81.4907 2.679 81.8992 2.89217C82.3076 2.89217 82.3076 4.1712 81.8992 4.1712C81.4907 4.1712 80.4695 3.5317 80.2653 3.5317C80.061 3.74487 67.3984 2.03948 67.1942 1.82631H66.9899C66.7857 1.61314 66.5814 1.39996 66.3771 1.18679C66.1729 0.973612 65.1517 1.8263 64.9474 1.61312C64.7432 1.39995 63.9263 0.760443 63.5179 0.973616C63.1094 1.18679 61.8839 1.39996 61.6797 1.18679C61.4755 0.973612 60.8627 0.547257 60.6585 0.76043C60.6585 0.973603 60.0458 1.82631 59.8416 1.82631H59.6374L58.2077 1.18679C56.9823 1.82631 55.7568 2.46582 55.5526 2.46582C55.3483 2.67899 54.7357 2.89218 54.7357 2.679C54.7357 2.679 54.5314 2.03948 54.5314 1.82631C54.5314 1.39996 53.306 1.82631 52.8975 1.82631C52.489 2.03948 51.6721 1.82631 51.6721 2.03948C51.6721 2.25265 50.4466 1.8263 50.2424 1.61312C49.8339 1.39995 48.4043 1.18679 47.9958 0.973616L47.7916 0.76043C47.5874 0.76043 47.3831 0.547261 47.3831 0.547261L46.1577 1.61312C45.9535 0.547257 45.3407 -0.0922502 44.728 0.120923C44.1153 0.334096 43.0941 1.8263 43.0941 1.61312C43.0941 1.39995 42.8899 0.973603 42.6856 0.76043C42.2772 1.18678 41.6645 1.39996 41.256 1.82631C41.0518 2.03948 41.4602 2.25266 41.4602 2.679V2.89217C41.4602 3.10535 41.0518 3.5317 40.8475 3.5317L40.6433 3.31851C39.8264 2.67899 39.4178 2.89217 39.2136 3.74487C38.8051 3.74487 38.3966 3.53168 38.3966 3.31851C38.3966 3.10534 38.3967 2.46582 38.601 2.46582C38.8052 2.46582 38.3966 1.61312 37.9882 1.61312C37.5797 1.61312 36.7627 2.67899 36.5585 3.31851C34.1716 7.4538 8.89398 7.94272 11.8458 14.8299C12.05 15.4694 12.6628 15.8957 13.0712 16.3221L13.4797 16.7485C13.2755 17.1748 12.2543 17.8143 11.6415 18.2406C10.8246 18.4538 9.39496 18.667 8.78223 18.667C8.16949 18.667 6.12708 19.9461 5.71863 20.3724C5.31018 20.7987 3.67627 21.0119 3.47205 21.2251C3.26782 21.4383 3.47205 22.291 3.47205 23.1436L2.85938 23.9963L2.65515 24.2095C2.45093 24.6358 2.85931 25.0622 3.47205 25.2754L3.88049 25.7017C4.49323 26.3412 4.49329 26.3412 4.90173 25.9149L5.10596 25.7017L5.92297 25.9149C6.33142 26.5544 6.73987 26.7676 6.94409 26.3412C7.14832 25.9149 8.98657 25.9149 9.39502 25.9149C9.80347 25.9149 11.2332 26.5544 10.6204 26.7676C10.0077 26.9807 8.78235 27.8334 8.98657 28.2598L8.37378 28.473L7.55676 28.8993C6.94403 28.2598 6.53564 27.8335 6.53564 27.8335C6.53564 27.8335 6.12708 28.2598 5.71863 28.473C5.31018 28.473 5.71869 29.752 6.33142 29.752L6.73987 30.1784L7.14832 30.6047C7.55676 31.2442 7.55688 31.8837 7.35266 32.0969C7.14844 32.0969 6.94403 32.9496 7.55676 33.5891C8.16949 34.2287 9.59924 35.7209 9.39502 35.7209C9.1908 35.7209 8.78235 36.1472 8.98657 36.5736H9.1908H9.59924C10.0077 36.7868 10.6204 37.2131 10.8246 37.8526L10.2119 38.279C10.0077 38.4921 10.8246 41.0502 11.0289 41.0502L11.6415 41.4766C12.2543 41.9029 12.6628 42.3293 12.6628 42.7556C12.6628 42.9688 13.4797 44.0347 13.6839 44.461L13.8881 44.6742L14.5009 45.3137C14.0925 45.9532 13.8881 47.0191 13.8881 47.6586L14.0923 48.2981L14.2967 49.1508C13.4797 49.1508 13.2755 49.5772 13.6839 49.7903C22.4236 54.3514 -15.0645 45.0856 13.2755 67.2705C13.2755 67.2705 13.2755 67.6969 13.0712 67.9101C12.867 67.9101 12.4584 67.9101 12.4584 67.9101C12.2542 67.4837 12.05 67.0574 11.6415 66.8442L11.4373 66.631C11.2331 66.4178 11.0288 66.4178 10.8246 66.631C10.8246 66.8442 10.2119 67.6969 10.0077 67.6969C9.80347 67.6969 8.98645 67.6969 8.78223 67.9101C8.578 68.1232 7.96533 68.3364 7.76111 68.3364C7.76111 68.1232 7.35266 67.91 7.14844 68.1232C6.94421 68.3364 5.71863 68.7627 5.31018 68.1232L4.69751 67.6969C4.28906 68.1232 4.08472 68.5496 4.28894 68.7627C4.49316 68.9759 4.90173 69.6154 4.49329 69.6154C4.08484 69.6154 3.26782 70.0418 3.47205 70.255C3.67627 70.4681 3.67627 71.3209 3.26782 71.534C2.85938 71.7472 2.45087 72.1736 3.47205 72.5999L4.28894 73.0263C4.49316 73.2394 4.90173 73.4526 4.90173 73.6658C4.90173 73.879 4.90173 74.3053 4.90173 74.5185C4.69751 74.7316 4.28906 74.7317 3.88062 74.7317L3.26782 74.5185C3.26782 74.0921 3.0636 73.4526 2.85938 73.2394H2.65515C2.04242 73.0263 0 73.6658 0 74.3053V74.5185C0.408447 74.7316 1.02124 75.158 1.42969 75.3712C1.83813 75.5843 2.85938 76.6502 2.85938 76.6502C2.85938 76.8633 3.26782 76.8633 3.47205 76.2238H3.88062H4.08484C4.69757 76.6502 4.69751 77.0765 4.49329 77.2897C4.28906 77.5029 3.26782 78.9951 3.26782 80.0609V81.1268V82.4059C4.49323 83.0454 5.5144 83.4717 5.5144 83.2585C5.5144 83.0454 5.92297 82.619 6.1272 82.8322C6.33142 83.0454 6.33142 84.1112 6.53564 84.1112C6.73987 84.1112 7.55688 84.5376 7.14844 84.9639H6.94409C6.53564 84.9639 5.92285 84.5376 5.5144 84.5376C5.10596 84.5376 4.49329 84.3244 4.49329 84.9639C4.49329 85.3903 4.69751 85.8166 4.90173 85.8166L5.71863 86.0298C6.53558 86.243 7.35266 85.6034 7.14844 84.5376L8.578 84.7508L9.59924 84.9639C9.1908 85.8166 9.1908 86.4561 9.59924 86.4561C10.0077 86.4561 11.4373 86.4561 11.4373 86.0298C11.4373 85.8166 11.8458 85.3903 12.2542 85.6035C12.6627 86.0298 13.6839 86.8825 13.6839 86.4561C13.6839 86.2429 14.0925 85.3903 14.2967 85.6035C14.5009 85.8166 16.1348 86.4561 17.1559 86.4561L17.973 86.8825L18.7899 87.3089C19.6068 87.3089 20.8323 87.3089 21.6492 87.3089H22.4661H22.6705C22.8747 87.3089 23.8959 87.3089 24.7128 87.0957C25.5298 86.8825 27.9806 87.522 28.1848 87.3089C28.389 87.3089 29.4103 87.0957 29.8187 87.0957C30.2272 87.0957 31.6569 87.0956 32.0653 86.8825C32.4738 86.6693 34.1076 87.7352 34.7203 87.9483L34.9247 86.8825V86.4561C35.5374 86.6693 36.1501 86.8825 36.5586 87.0957C36.9671 87.3089 37.5797 87.7352 37.7839 87.522C37.9882 87.3088 39.622 87.522 40.0305 87.7352C40.439 87.7352 41.8687 87.522 42.073 87.522C42.2772 87.522 43.0941 87.9483 43.2983 88.1615C43.5025 88.3747 44.3195 87.9483 44.5238 87.9483C44.728 87.9483 45.9534 88.1615 46.5661 88.3747C47.3831 88.801 49.834 87.7352 50.6509 87.7352C51.4679 87.7352 53.5102 88.8011 53.7144 88.8011C54.1229 88.8011 55.3483 88.8011 55.7568 89.2274L56.778 88.5879C57.1865 88.3747 58.2077 88.8011 58.8204 88.8011C59.4331 88.8011 60.0458 88.5879 60.6585 88.5879C61.067 88.5879 61.4755 88.8011 62.0882 88.8011L63.1094 89.0142C63.1094 88.3747 63.1094 88.1615 63.1094 88.5879C63.1094 89.0142 64.7433 88.5879 65.356 88.8011H65.9687L68.2154 88.5879C70.6662 88.3747 73.3213 88.3747 74.3424 88.3747C75.1594 88.3747 77.6102 89.0142 77.8145 89.0142C78.0187 89.0142 78.8356 89.2274 79.6526 89.2274L79.8568 89.0142C80.4695 88.3747 81.2865 89.0142 81.8992 88.8011L82.7162 88.3747C83.5331 88.3747 84.5543 88.3747 85.167 88.3747C85.5755 88.3747 87.4136 89.0142 88.639 89.2274L89.6602 88.8011L90.2729 88.5879C91.2941 88.801 92.3154 88.8011 92.7238 88.8011C93.1323 88.5879 93.9492 89.0142 94.1534 88.8011C94.3576 88.5879 95.1746 88.1615 95.5831 88.3747C95.9915 88.5879 97.6255 89.2274 98.0339 89.2274C98.4424 89.2274 99.6679 89.0142 99.8721 88.8011C100.281 88.5879 102.119 89.2274 103.344 89.4406C104.57 89.6537 107.633 89.0142 107.837 89.2274C108.042 89.4406 109.063 88.8011 109.471 88.8011C109.675 88.8011 110.492 89.0142 110.492 88.8011C110.697 88.5879 110.901 88.3747 111.105 88.5879C111.105 88.801 111.922 89.0142 112.331 88.8011C112.943 88.5879 114.577 89.2274 114.986 89.2274L115.19 89.0142C116.211 88.3747 116.824 88.3747 117.845 89.0142C118.662 89.4406 119.479 88.3747 120.092 88.5879C120.909 89.0142 121.725 89.2274 122.338 89.0142C122.951 88.801 123.155 88.801 123.564 89.0142C123.768 89.0142 124.585 88.8011 124.585 88.8011C124.993 89.4406 125.402 88.5879 125.81 88.8011C126.219 89.2274 126.219 89.0142 126.627 88.8011L127.24 88.3747C128.057 88.5879 129.895 88.801 131.325 89.0142C132.754 89.2274 137.452 89.0142 138.064 89.2274H138.677H140.311C141.945 89.2274 143.783 89.4406 144.192 89.6537C144.6 89.8669 146.642 89.4406 147.459 89.2274H148.276C149.093 89.2274 150.114 89.2274 151.136 89.2274H151.748C151.953 88.8011 152.157 88.5879 152.361 88.5879C152.361 88.5879 152.974 88.801 153.178 89.0142C153.382 89.2274 154.403 89.6537 154.608 89.4406C154.812 89.2274 156.854 89.6537 158.284 89.6537C159.714 89.6537 163.798 89.2274 164.207 89.2274C164.615 89.2274 166.249 89.6538 166.658 89.2274C167.066 89.0142 168.7 89.6537 169.313 89.6537C169.721 89.6537 171.559 89.8669 172.172 89.8669C172.785 89.8669 174.623 89.4406 175.031 89.4406C175.44 89.6537 177.074 89.6537 177.482 89.4406C177.891 89.2274 180.137 89.6537 180.954 89.4406L181.771 89.2274L182.384 89.0142C183.609 89.2274 185.652 89.6537 187.081 89.6537C188.511 89.6537 193.413 89.8669 194.434 89.8669L194.842 88.5879C195.659 88.5879 196.068 88.801 196.068 89.0142C196.068 89.2274 196.068 89.6537 196.476 89.6537C196.885 89.6537 198.723 89.8669 199.336 90.0801L200.153 89.6537L200.561 89.4406C200.765 89.2274 201.174 88.8011 201.582 88.8011C201.786 89.0142 201.991 89.4406 201.991 89.4406L204.237 89.0142C206.688 89.4406 208.73 89.4406 208.73 89.2274C208.73 89.0142 209.343 88.1615 209.752 88.3747H210.16C211.181 88.3747 210.773 89.0142 211.181 89.2274C211.59 89.4406 211.998 89.2274 212.407 89.4406C212.815 89.4406 213.428 89.6537 213.836 89.8669H214.041C214.449 89.6537 215.062 89.6537 215.47 89.4406C215.879 89.2274 217.104 89.6537 217.513 89.6537C217.717 89.8669 219.147 89.4406 219.555 89.6537C219.964 89.8669 222.21 89.8669 223.436 90.0801L224.457 89.2274C224.661 89.0142 225.478 89.0142 225.682 89.2274L226.703 89.8669C227.725 89.6537 228.95 89.2274 229.563 89.2274V89.4406C230.175 90.5064 230.992 89.2274 231.605 89.6537L232.218 90.0801C232.83 89.6537 234.26 89.2274 235.281 89.0142L236.098 89.6537L236.711 90.0801C237.12 89.4406 238.141 89.0142 238.753 89.2274L238.958 89.4406C239.366 90.0801 239.775 89.2274 240.183 89.4406H240.387C240.591 89.4406 241.408 89.4406 242.225 89.2274C243.042 89.0142 247.536 89.6537 247.74 89.6537C248.353 89.2274 248.965 88.801 249.578 89.4406C250.395 90.0801 250.395 89.0142 251.212 89.2274L251.825 89.4406C252.642 89.2274 254.275 89.0142 255.705 89.2274H256.931C257.747 89.2274 258.769 89.4406 258.973 89.0142L259.586 88.1615C260.198 88.5879 260.811 88.8011 261.015 88.8011C261.219 88.8011 262.036 88.8011 262.649 88.8011H263.262C263.67 88.8011 264.283 89.0142 264.692 89.2274C264.896 89.0142 265.1 88.5879 265.304 88.3747C265.508 88.1615 266.121 88.8011 266.325 89.2274H266.938H267.551C268.368 89.2274 269.593 89.4406 270.41 89.4406L271.227 89.2274L272.044 89.0142C272.861 89.0142 273.678 88.801 273.882 88.5879C273.882 88.3747 274.086 87.7352 274.086 87.7352C274.086 87.7352 274.291 87.9483 274.291 88.1615C274.291 88.3747 274.903 89.2274 275.312 89.0142L275.516 88.8011C276.333 87.9484 276.333 87.9484 277.354 88.8011H277.558C277.763 88.8011 278.58 89.0142 279.601 89.0142C280.622 89.0142 283.277 88.1615 283.686 88.3747C284.094 88.5879 284.707 88.1615 284.298 87.9483C284.094 87.7352 283.481 86.8825 284.094 87.0957C284.707 87.3089 285.932 88.1615 286.136 88.3747H286.341C286.749 88.3747 287.158 88.1615 287.566 88.1615C287.975 88.1615 288.383 88.3747 288.587 88.3747C288.996 88.3747 289.608 88.3747 290.017 88.3747L291.242 87.7352C292.672 87.9483 294.102 88.3747 294.51 88.3747L294.919 88.1615C295.531 87.9483 296.961 87.7352 297.574 87.9483L298.799 88.3747C299.82 87.9483 300.841 87.7352 301.046 87.9483C301.25 88.1615 303.905 87.9483 305.539 87.9483H306.969H307.99C309.215 87.9483 311.053 88.1615 312.075 88.3747L313.096 88.1615C313.708 87.9483 315.138 87.522 315.547 87.3089C315.751 87.0957 316.364 87.3089 316.364 87.3089C316.568 88.1616 316.976 88.3747 317.793 87.7352C317.793 87.7352 318.814 87.9483 319.836 88.1615L320.653 87.9483C321.674 87.7352 322.491 87.522 323.308 88.1615C323.512 88.3747 324.125 88.1615 324.533 87.9483H324.942C325.35 87.7352 325.963 87.9483 326.167 88.1615C326.575 88.3747 328.414 87.9483 328.822 87.9483C329.23 87.9483 331.477 87.9483 332.498 88.1615L333.315 87.522C333.315 87.522 333.519 87.7352 333.724 87.7352L335.97 88.1615C337.196 87.9483 338.421 87.7352 338.625 87.522C338.83 87.522 340.464 87.7352 341.893 87.7352L343.323 87.9483H343.527C343.731 87.522 344.14 87.3088 344.14 87.522C344.14 87.9483 346.591 88.1615 348.02 88.1615L348.837 87.7352C349.246 87.9483 350.063 87.9483 350.88 87.9483L351.697 87.7352C352.309 87.522 352.718 88.801 353.535 87.9483C353.739 87.7352 354.147 87.9483 354.352 87.9483C354.556 87.9483 354.76 88.1615 354.964 87.9483H355.373C355.781 87.9483 356.598 87.9483 357.211 88.1615L357.619 87.7352C358.232 86.8825 358.641 88.1615 359.458 87.7352C360.275 87.3088 359.866 86.4561 360.275 86.0298C360.479 85.8166 361.092 85.8166 361.5 86.0298L362.113 86.2429C362.725 86.6693 363.134 87.0957 362.93 87.3089C362.725 87.3089 362.93 87.7352 363.542 87.7352L364.155 87.522C364.564 87.522 364.972 87.3089 365.38 87.3089H366.606C367.423 86.4562 368.036 86.0298 368.036 86.4561C368.036 86.6693 368.648 87.9483 369.465 87.9483C370.282 87.9483 371.916 87.0957 371.916 87.0957L372.12 87.3089L372.325 87.522C372.529 87.522 373.346 87.7352 374.163 87.7352C374.98 87.7352 377.226 87.3089 377.43 87.0957C377.635 86.8825 378.452 86.8825 378.452 87.0957C378.452 87.3089 379.677 87.522 379.677 87.3089C379.677 87.3089 379.881 86.6693 380.086 86.0298L381.311 86.6693C381.924 87.0956 382.536 87.0957 383.149 87.3089H383.558C384.17 87.3089 384.579 86.8825 384.579 86.4561V86.0298C384.579 85.6035 384.579 85.1771 385.191 85.1771C386.008 85.1771 385.6 85.8166 385.6 86.0298V86.2429C385.804 86.4561 386.008 86.4561 386.213 86.2429C386.417 86.0298 387.234 85.8166 387.642 86.2429V86.8825C387.847 87.0956 388.051 87.0957 388.255 87.0957H388.459C388.664 86.8825 388.868 86.4561 389.072 86.0298C389.276 85.6035 390.297 85.3903 390.093 85.6035C389.889 85.8166 390.093 86.6693 391.319 87.3089L392.34 86.4561L392.748 86.0298C393.157 86.243 393.769 86.4561 394.178 86.6693C394.586 86.8825 396.425 86.0298 396.629 86.0298H396.833H397.037C397.241 86.0298 397.241 86.2429 397.241 86.4561C397.241 86.4561 397.854 87.0957 399.08 87.3089L399.692 86.8825L400.714 86.4561C401.735 86.6693 402.347 86.6693 402.347 86.4561C402.143 86.2429 402.756 84.9639 403.981 84.3244L405.411 85.1771L406.432 85.6035C407.862 85.1771 408.883 84.7508 408.474 84.7508L408.066 83.8981C407.045 84.1113 406.228 84.3244 406.024 84.3244C405.819 84.3244 405.819 83.4717 406.841 83.6849V83.4717L408.066 82.619C408.475 83.4717 408.679 83.8981 408.883 83.6849C408.883 83.4717 409.291 83.0454 409.496 83.0454C409.7 83.0454 410.517 83.4717 410.517 83.6849C410.517 83.8981 411.334 84.5376 411.742 84.7508C412.151 85.1771 412.968 86.8825 412.968 86.4561C412.968 86.0298 413.58 85.1771 413.785 85.1771C414.193 85.1771 415.214 84.9639 415.419 84.9639C415.623 84.9639 416.236 85.1771 415.827 85.1771C415.623 85.3903 414.806 85.8166 414.602 86.0298V86.2429C414.602 86.2429 414.806 86.4561 415.01 86.4561L415.623 86.2429C416.44 86.0298 416.848 85.6034 416.848 85.1771C416.848 84.7507 417.052 84.1112 417.461 84.3244C417.869 84.5376 418.074 85.6035 418.278 85.8166C418.482 86.0298 419.708 86.0298 419.708 86.0298C419.912 86.0298 420.116 85.1771 419.708 84.5376C419.299 83.8981 419.095 82.4059 419.708 83.0454C420.32 83.6849 421.954 85.1771 422.363 84.9639C422.771 84.7507 423.588 85.6035 423.588 85.8166C423.792 86.0298 425.222 86.243 425.426 85.8166C425.63 85.3903 423.792 84.7507 423.384 84.5376C422.975 84.3244 421.546 83.8981 421.546 83.6849C421.341 83.4717 421.341 82.8322 421.341 82.619C421.546 82.619 421.954 82.619 422.158 82.619L422.567 83.0454C422.975 83.4717 423.384 83.8981 423.384 83.8981C423.588 83.8981 423.792 83.6849 423.997 83.2585C423.997 83.0454 424.609 82.1927 424.813 81.9795C425.018 81.7663 425.63 81.1268 425.835 81.34C426.039 81.34 426.652 81.9795 427.06 82.4059H426.652H425.63C425.222 83.0454 424.813 83.6849 424.813 83.6849C424.813 83.6849 425.222 84.1112 425.63 84.1112H426.039H426.447C426.856 84.1112 427.264 84.3244 427.264 84.5376C427.469 84.5376 428.081 84.3244 428.286 84.5376C428.49 84.7507 429.103 84.7507 429.307 84.5376C429.511 84.1112 430.532 83.4717 431.145 83.8981L431.553 84.1112L431.962 84.3244C432.37 84.1112 432.983 83.6849 433.596 83.2585L434.004 82.8322L434.413 82.4059C435.025 82.619 435.842 83.0454 436.047 83.2585L436.251 83.4717L436.659 83.8981C437.068 84.5376 437.68 84.7507 438.293 84.5376C438.906 84.3244 439.927 83.4717 440.336 83.4717C440.744 83.2585 441.765 83.2585 441.561 83.6849L441.765 83.8981C441.969 84.1113 442.582 84.3244 442.786 84.5376C442.582 84.7507 442.582 85.1771 442.786 85.1771C442.991 85.1771 443.399 84.9639 443.603 84.7508C443.808 84.5376 445.237 83.4717 446.463 83.6849L446.258 84.9639C446.258 85.3903 447.484 85.6034 447.688 85.1771C447.892 84.7507 447.892 84.5376 447.28 84.3244C447.075 84.3244 446.667 83.8981 446.871 83.6849L447.075 83.0454C447.28 83.4717 448.097 83.6849 448.709 83.4717C449.322 83.4717 451.16 84.1113 451.569 83.8981H451.773C451.977 83.8981 452.59 83.6849 452.794 83.8981L453.611 84.3244C454.428 84.1112 455.449 83.6849 455.449 83.6849C455.653 83.6849 456.47 83.6849 457.287 83.8981L457.9 83.4717L458.104 83.2585C458.513 83.0454 458.921 83.2585 458.921 83.6849C458.921 83.8981 459.738 84.9639 460.555 84.9639C461.372 84.9639 463.21 84.7507 463.414 84.9639V85.1771L463.619 85.3903C463.823 85.6035 463.823 85.6035 464.027 85.3903V85.1771L464.231 85.6035C464.436 85.3903 465.252 85.3903 466.069 85.8166L466.682 85.1771C467.091 85.6034 467.703 85.8166 468.112 85.6035C468.52 85.3903 469.541 85.6035 470.154 85.6035C470.767 85.3903 472.401 86.0298 472.809 86.2429C473.218 86.2429 474.647 86.0298 475.26 86.2429L475.873 85.6035L476.486 85.1771C477.302 85.3903 478.528 85.8166 479.345 85.8166L479.958 86.0298L480.57 86.2429C481.183 86.0298 482 85.3903 482.408 85.1771L483.021 85.8166C483.43 86.4562 483.838 85.6035 484.246 85.6035C484.655 85.6035 485.472 86.0298 485.676 86.0298C486.493 85.6035 487.106 85.6035 487.923 85.6035C488.944 85.6035 489.965 85.1771 490.782 86.0298C490.986 86.0298 491.599 85.8166 492.007 85.6035C492.416 85.3903 494.254 85.1771 495.071 85.6035L495.888 85.3903C497.318 85.1771 498.952 84.7508 500.381 84.3244C500.79 84.3244 500.79 83.6849 501.198 83.4717C501.402 83.2585 501.607 83.0454 501.811 83.0454C502.219 83.0454 502.628 83.2585 502.832 83.2585H503.036C503.241 82.8322 503.649 82.4059 504.262 82.1927C504.874 81.9795 506.304 82.1927 506.713 82.4059L507.121 82.1927C507.938 81.7663 508.755 81.5531 510.389 81.5531C510.593 81.5531 510.797 81.1268 510.797 80.9136C510.389 80.4873 509.776 80.2741 511.002 80.0609C511.614 80.0609 511.41 79.4214 511.002 79.2083L510.797 78.9951C510.593 78.7819 510.593 78.3556 510.797 78.1424C511.002 77.9292 510.185 77.5029 509.98 77.716C509.776 77.9292 508.551 77.5028 508.346 77.9292L508.142 78.1424C507.938 78.3556 508.142 78.5687 508.142 78.7819C508.142 78.9951 507.734 78.9951 507.53 79.2083H507.325C507.121 79.2083 506.713 78.7819 506.304 78.3555C505.896 77.9292 505.283 76.437 505.487 76.2238C505.691 75.7975 507.325 76.2238 507.734 76.0107V75.7975L507.938 75.158C508.347 74.5185 508.755 74.3053 508.959 74.7317C509.163 74.9448 509.368 76.2239 509.776 75.7975C510.185 75.3712 512.227 74.7316 512.635 74.5185C513.044 74.3053 512.023 73.2394 511.614 73.6658C511.206 73.879 509.98 74.5185 509.776 74.5185C509.572 74.3053 509.163 73.6658 508.959 73.2394L508.142 73.6658C507.938 73.879 507.325 73.879 507.325 73.6658C507.121 73.2394 507.121 73.0262 507.734 72.8131L508.142 72.5999C508.551 71.9604 508.551 71.3208 508.142 71.1077L507.938 70.8945L507.734 70.6813C507.734 70.255 508.142 70.0418 508.346 69.8286C508.551 69.8286 509.776 69.1891 510.797 68.9759L511.002 69.6154L511.41 70.8945C512.431 70.6813 513.044 70.255 512.635 70.0418C512.227 69.8286 511.819 69.6154 511.819 69.4023C512.023 69.4023 512.636 68.7627 513.044 68.3364L513.452 68.1232L513.861 67.9101C514.269 68.1232 515.086 67.91 515.495 67.6969H515.903C516.516 67.6969 516.924 67.6969 517.537 67.6969C518.558 67.6969 519.375 67.4837 520.396 67.6969C521.213 67.91 521.826 67.2705 522.847 67.4837C523.256 67.4837 523.868 67.2705 524.277 67.0574L524.89 66.631C525.707 66.631 526.932 66.4178 527.953 66.4178C528.566 66.2047 531.63 64.9256 532.651 64.4993L533.672 64.2861H534.285C535.102 64.2861 536.123 64.0729 536.531 63.8598L536.94 63.6466L538.574 62.7939C538.369 61.7281 537.961 60.6622 537.757 60.2358L538.982 60.449C539.595 60.449 540.003 60.2358 539.799 59.8095V59.3831C539.595 58.9568 539.799 58.5304 540.003 58.3173C540.207 58.1041 540.616 57.4646 540.412 57.4646C540.208 57.2514 539.186 56.6119 538.982 56.3987L539.595 56.1855C540.208 55.9724 540.412 55.7592 540.208 55.3329L539.799 54.6933C540.207 54.4802 541.024 52.9879 541.433 51.4957L542.454 50.4299L542.658 50.2167C542.25 49.364 542.046 48.7245 542.454 48.7245C542.658 48.7245 543.271 48.2981 542.863 48.0849C542.454 47.6586 542.863 46.5927 542.658 46.5927C542.454 46.5927 541.637 45.7401 541.841 45.3137L542.046 44.8874C542.25 44.2479 542.658 43.8215 542.454 43.182C542.454 42.7556 541.841 42.1161 541.433 41.6897C541.024 40.8371 540.003 41.0502 539.799 40.8371L539.391 40.1975C538.778 40.1975 538.165 40.4107 537.961 40.4107C537.757 40.4107 536.327 39.1317 535.919 39.1317C535.51 39.1317 534.08 38.7053 533.672 38.7053L533.059 38.4921C532.651 38.4921 531.834 38.9185 531.425 38.7053C530.813 38.4921 530.608 38.4921 529.996 38.7053C529.587 38.9185 528.974 38.7053 528.566 38.7053L527.341 38.0658C527.545 38.7053 526.524 38.4921 525.502 37.6394L523.869 37.8526H523.664C523.256 37.6394 522.847 37.6394 522.643 37.6394C523.02 37.1349 523.777 37.2188 524.276 35.5176C524.583 34.4725 523.791 32.5115 524.073 31.3856C524.383 30.1458 526.517 29.7459 526.728 28.7676C526.977 27.6107 526.115 25.2788 526.115 25.0622V24.849V24.4227C525.911 23.9963 526.115 23.7832 526.319 23.7832C526.524 23.7832 527.341 23.3568 527.341 22.5041H527.545L528.77 23.1436C528.362 21.8646 527.545 20.7987 527.136 21.0119L526.728 21.2251C526.319 21.4383 525.911 21.6514 525.502 21.6514C525.298 21.6514 524.89 21.6514 524.685 21.4383L524.277 21.2251C523.664 21.2251 522.847 20.7987 522.439 20.5856V20.3724V20.1592C522.847 19.9461 523.664 19.5197 524.073 19.5197L524.481 19.7329C524.685 19.946 524.481 20.5856 525.094 20.3724L525.707 20.1592C526.115 19.7329 526.728 19.7329 526.932 20.1592C527.136 20.5856 528.362 20.1592 528.158 19.946C528.158 19.7329 528.157 19.5197 528.362 19.5197C528.566 19.5197 529.383 19.7329 529.383 19.946C529.383 20.1592 529.791 20.7987 529.996 20.7987C530.2 20.5856 529.996 20.3724 530.2 20.1592L530.813 19.5197C531.834 19.5197 532.651 19.5197 532.855 19.5197C533.059 19.5197 533.263 18.667 532.446 17.8143L531.425 18.2407L530.608 18.667C529.791 18.667 528.974 18.2407 528.974 17.8143C528.974 17.388 529.179 16.3221 529.383 16.3221C529.587 16.3221 530.404 16.5353 530.2 16.7485V16.9616V17.1748C530.2 17.388 530.813 17.6011 531.221 17.6011C531.63 17.388 532.447 16.9616 532.038 16.7485V16.5353C532.038 16.3221 532.446 15.8957 532.651 15.6826C532.651 15.6826 533.263 15.8958 533.468 15.8958C533.672 15.8958 534.08 15.6826 534.285 15.4694C534.285 15.4694 534.08 15.043 533.876 15.043C533.672 15.043 532.855 15.2562 532.038 15.4694C531.221 15.6826 528.566 14.8299 528.362 15.043H528.158C527.953 15.043 527.545 14.8299 527.341 14.6167V14.4035V14.1903C527.545 13.9772 527.341 13.9772 527.136 13.764C526.932 13.5508 526.115 13.5508 525.911 13.5508C525.707 13.764 525.094 13.9772 524.89 13.764C524.686 13.5508 523.869 13.5508 523.664 13.9772C523.46 14.4035 522.643 15.4694 522.439 15.4694C522.439 15.4694 522.439 14.8299 522.643 13.9772V13.1245V12.9113C522.03 12.485 521.622 12.485 521.418 12.485V12.6982L521.213 13.1245C521.009 13.764 520.601 13.5508 520.192 12.6982L519.58 12.485L518.967 12.0586C518.763 11.4191 518.354 10.9928 518.15 11.2059C517.946 11.4191 517.333 11.8455 516.72 11.8455L516.312 12.0586L515.903 12.2718C536.123 11.206 514.678 12.2718 514.678 11.8455C514.678 11.4191 514.474 10.9928 514.269 10.9928H514.065C513.452 11.2059 513.044 11.6323 512.431 11.6323C512.227 11.6323 511.819 10.7796 511.614 10.7796H511.002C510.389 10.7796 509.776 10.7796 509.572 10.9928C509.368 10.9928 508.755 10.9928 508.755 10.3533V9.92691L508.551 9.50056C508.347 9.07421 507.121 8.86103 505.896 9.28738L504.466 8.22151C503.649 7.58199 503.036 6.51612 501.607 7.58199C500.994 7.15564 500.177 6.94246 499.973 7.36881L499.564 7.58199L499.36 7.79518C499.156 7.79518 498.543 7.79518 498.135 7.79518C497.726 7.79518 496.501 7.36881 495.888 7.15564C495.48 6.94247 493.437 6.94247 492.825 6.94247C492.212 6.94247 490.782 6.08977 490.374 6.51611C489.965 6.72929 489.148 7.79517 489.352 8.00834C489.352 8.22152 489.148 9.07421 488.74 9.07421H488.331H487.514C486.902 8.22151 486.289 7.36882 485.88 6.94247C485.472 6.51612 484.451 5.45025 484.247 5.66342H484.042L483.021 6.08978C483.225 6.51612 483.634 7.15563 483.838 7.36881L484.042 7.58199L484.247 7.79518C484.042 8.00835 483.838 8.43469 483.634 8.22151C483.43 8.22151 482.613 7.58199 481.796 6.94247L480.775 7.58199L480.57 7.79518C480.366 8.00835 479.753 7.58199 479.549 7.15564C479.345 6.72929 434.004 8.22151 433.596 8.43468H433.187L432.574 8.64787C431.962 9.07422 431.145 9.28739 430.941 9.50056C430.532 9.50056 430.736 10.5664 430.532 10.7796C430.328 10.9928 429.919 10.9928 429.715 11.2059C429.715 11.4191 428.898 11.2059 428.694 10.7796C428.694 10.3532 427.264 10.5664 426.856 10.5664C426.652 10.5664 425.426 10.1401 424.405 10.3533H423.384H422.567C421.546 10.5664 420.729 10.5664 420.524 10.1401C420.32 9.9269 421.137 8.64786 420.933 8.43468ZM11.0289 22.7173C10.8246 22.5041 11.0289 21.6514 11.4373 20.7988H12.867H14.2967C14.9094 21.6514 15.1136 22.7173 14.5009 23.1436H14.2967L13.6839 22.9305C13.0712 22.5041 12.4586 22.2909 12.2543 22.5041C12.0501 22.9305 11.2331 22.9305 11.0289 22.7173ZM16.3391 76.437C16.1348 76.437 15.522 76.0107 15.1136 75.3712C14.7051 74.7317 15.9305 73.2394 15.7263 73.2394V72.8131C16.339 72.5999 16.9517 72.5999 17.1559 72.8131C17.3602 73.0262 16.9517 73.6658 16.7475 73.8789C16.5433 74.0921 16.7474 74.9448 16.5432 75.3712C16.3389 75.5843 16.5433 76.437 16.3391 76.437ZM510.797 19.7329C510.797 20.1592 511.206 20.1592 511.41 19.946C511.819 19.7329 511.614 20.5856 510.593 20.5856H509.776L508.347 20.7987C507.734 19.946 507.734 19.5197 508.142 19.7329C508.551 19.946 509.98 19.5197 509.98 19.3065C509.98 19.0934 510.185 18.4538 510.389 18.4538C510.593 18.4538 510.797 19.3065 510.797 19.7329ZM491.395 9.07421C490.986 8.43469 491.599 8.00834 492.62 8.00834L493.233 7.36881C493.641 7.58198 494.05 8.00834 494.05 8.22151C494.05 8.43469 492.824 9.0742 492.416 9.28738C492.416 9.9269 492.212 10.1401 491.599 9.50056L491.395 9.07421ZM44.1153 10.5664C44.1153 10.1401 44.3195 9.92692 44.5238 10.3533C44.728 10.5664 45.3408 10.9928 45.7492 10.7796C46.1577 10.5664 47.5874 10.3533 47.3831 10.5664C47.1789 10.7796 47.1789 10.9928 47.3831 11.2059C47.5874 11.4191 47.7915 11.8455 46.7704 11.6323L46.3619 11.8455L45.7492 12.0587C44.5238 11.8455 43.9111 10.9928 44.1153 10.5664ZM503.241 9.92691C502.628 10.1401 502.015 10.1401 502.015 9.92691C502.015 9.71374 501.811 9.07421 501.811 8.86104C501.607 8.64787 502.015 8.22151 502.628 8.64785L503.036 8.22151C503.649 7.79517 503.853 8.64787 504.262 8.86104C504.67 9.07421 504.67 9.50056 504.262 9.71373C504.058 10.1401 503.853 10.5664 503.241 9.92691ZM202.399 86.2429C202.808 86.0298 203.012 86.2429 203.012 86.4561C203.012 86.6693 203.216 87.522 203.42 87.522C203.625 87.522 204.237 87.522 204.237 87.7352C204.237 87.9483 204.237 88.5879 204.033 88.5879C204.033 88.5879 202.808 88.3747 201.378 88.1615V87.7352V87.3089C201.378 86.8825 202.195 86.2429 202.399 86.2429ZM93.1323 3.95803C92.7238 4.17121 92.1111 4.17122 91.7026 3.5317L91.4984 3.10534C91.4984 2.89217 91.4984 2.46582 91.7026 2.25265C91.9068 1.8263 92.3154 1.82631 92.9281 2.03948L93.3365 2.25265C93.9492 2.46582 93.3365 3.74486 93.1323 3.95803ZM104.569 3.95803C103.753 3.74486 103.344 3.31851 103.344 3.10534C103.548 2.89217 104.774 2.25264 104.978 2.46582C105.386 2.67899 105.182 4.17121 104.569 3.95803ZM9.59924 70.255C9.39502 69.8286 9.80341 69.6155 10.6204 69.8286L11.2331 70.0418C11.6415 70.255 12.05 70.6813 11.4373 71.1077L11.2331 71.3209C11.0289 71.7472 9.80347 70.8945 9.59924 70.255ZM408.679 8.64787C409.291 8.86104 409.087 9.28739 408.066 9.50056L407.453 9.71373C406.841 9.9269 406.432 9.50055 406.228 9.07421C406.024 8.86103 406.024 8.64786 406.228 8.43468C406.228 8.22151 408.27 8.00834 408.474 8.00834L408.679 8.64787ZM525.094 16.5353C525.094 16.3221 525.502 15.8958 525.911 15.8958C526.319 15.8958 526.932 16.1089 527.341 16.3221C527.749 16.7484 528.362 18.0275 528.362 18.2407H528.158H527.953C527.749 18.2407 526.728 17.8143 525.707 17.1748L525.094 16.5353ZM413.58 9.92691C413.58 10.1401 413.376 10.3533 412.763 10.1401C412.355 9.9269 411.13 9.28738 410.925 9.07421L411.334 8.64787C411.538 8.4347 411.334 7.79517 412.151 8.00834L412.763 8.22151C413.172 8.64786 413.58 9.71374 413.58 9.92691ZM218.942 5.23707C218.33 5.66341 218.534 5.66341 218.942 5.23707C219.351 4.81072 220.576 3.95803 220.78 4.1712C220.985 4.59755 220.78 5.66342 219.964 5.87659L219.759 5.66342L218.942 5.23707ZM373.754 9.07421C373.754 9.28738 373.346 9.28738 372.937 8.86104C372.529 8.43469 372.529 7.15563 372.937 7.36881C373.55 7.58198 374.775 7.79517 374.775 8.00834C374.775 8.22152 374.775 8.43468 374.571 8.43468C374.367 8.22151 373.754 8.86103 373.754 9.07421ZM301.25 6.30295C302.475 6.30295 303.088 6.51612 302.68 7.15564L301.863 6.94245C301.046 6.72928 300.433 6.51612 299.82 6.30295C299.82 6.30295 299.82 5.87659 299.82 5.66342L300.229 5.45025L301.25 6.30295ZM488.74 79.6346C488.536 79.2083 488.331 78.3555 488.535 77.9292L489.352 78.1424C489.557 78.1424 489.965 78.7819 489.965 78.3555C490.169 77.716 490.374 77.5028 490.986 77.9292H491.191C490.986 78.3555 490.374 78.9951 489.965 79.4214L489.557 79.6346H488.74ZM148.072 3.74487C147.868 3.31852 147.868 3.10534 148.481 3.31851C149.093 3.53168 150.319 3.31852 150.523 3.5317V3.74487C150.523 4.17121 150.727 4.59756 150.114 4.59756H149.706C149.297 5.02391 148.276 4.17121 148.072 3.74487ZM54.9399 11.2059C55.5526 10.7796 55.5526 10.5664 54.9399 10.9928C54.3272 11.4191 52.489 11.8455 52.2847 11.8455C52.0805 11.6323 52.2848 10.9928 53.306 10.7796L53.7144 10.9928L54.9399 11.2059ZM134.797 4.59756C134.184 4.81073 133.776 5.0239 133.98 4.81073C133.98 4.59755 133.775 3.95803 133.775 3.95803C133.775 3.74486 133.98 3.31851 134.592 3.31851C135.205 3.10534 135.409 4.38439 134.797 4.59756ZM211.59 4.81073C212.203 4.81073 211.998 5.23707 211.386 5.87659L210.773 6.08976H210.569C209.752 5.45024 210.977 4.81073 211.59 4.81073ZM411.13 80.2741C411.742 80.2741 411.947 80.4873 411.947 80.9136C411.742 81.34 410.925 81.9795 410.313 81.7663C409.7 81.5532 410.517 80.2741 411.13 80.2741ZM233.852 5.66342C233.239 6.30294 232.422 5.87659 232.014 4.81073L233.239 4.38439L233.443 4.1712C234.056 4.59755 234.464 5.0239 234.464 5.0239L233.852 5.66342ZM432.983 20.1592C433.187 20.3724 433.187 20.5856 432.983 20.7988C432.779 21.0119 431.553 21.4383 431.145 21.6514H430.736C430.532 21.6514 430.328 21.4383 430.328 21.4383C430.328 21.2251 430.328 21.0119 430.328 21.0119L430.941 20.5856C431.553 20.1592 432.575 19.9461 432.983 20.1592ZM514.678 20.5856C515.495 19.7329 516.516 19.7329 517.537 20.1592C516.312 21.4383 516.312 21.4383 514.678 20.5856Z" fill="#FED81D"/>
</svg>
