<svg width="858" height="82" viewBox="0 0 858 82" fill="none" xmlns="http://www.w3.org/2000/svg">
<path d="M626.509 7.61197C626.509 7.41775 626.222 7.0293 625.934 7.0293C625.934 7.0293 624.784 7.02931 623.635 7.22353L622.198 6.44662L621.623 6.05816C621.048 6.25239 619.898 6.25239 619.036 6.25239C618.174 6.25239 615.587 5.28126 615.299 5.47549V5.86394C615.299 6.25239 614.437 6.25239 613.287 6.05816C612.425 5.86394 608.401 6.25239 607.251 6.25239C606.101 6.25239 602.652 5.47549 601.79 5.47549C600.928 5.47549 599.203 6.05816 598.628 6.05816C598.053 6.05816 596.329 5.47549 596.041 5.47549C595.754 5.47549 594.604 5.4755 594.604 5.08705C594.604 4.6986 592.305 5.28127 591.73 5.28127L591.155 5.08705C590.005 4.6986 589.718 4.89281 589.431 5.47549L589.143 5.86394C588.281 5.28127 587.419 4.89282 586.844 5.08705C586.269 5.28127 584.257 5.28127 583.107 5.28127L582.245 4.89283L581.67 4.69859C581.095 4.69859 579.945 4.89283 579.37 4.89283L579.658 5.47549C579.083 5.66971 578.796 6.05817 578.221 6.44662C577.646 6.2524 577.358 6.05817 577.358 5.66972C577.358 5.4755 575.921 5.08705 574.772 4.89283L573.909 5.28127V5.47549C572.76 5.86394 571.61 5.86394 571.035 5.47549L570.46 5.28127L570.173 5.08705C569.598 5.08705 569.31 5.28126 569.31 5.47549V5.66972V5.86394C569.31 6.05817 569.023 6.05816 568.448 6.05816L568.161 6.25239C567.873 6.05816 567.586 5.66971 567.298 5.47549L566.724 5.08705C566.149 5.28127 565.286 5.28127 564.999 5.28127C564.712 5.28127 562.7 5.28127 561.262 6.05816L559.25 5.28127C558.963 5.08704 558.101 5.28127 558.101 5.28127L557.238 6.05816C556.089 5.66972 554.939 5.28127 554.651 5.08705C554.364 4.89282 553.214 4.50436 552.927 4.69859C552.639 5.08704 551.49 5.66972 550.627 5.28127H550.053L548.903 5.08705C547.466 5.08705 546.316 5.08705 546.029 4.89283C545.741 4.89283 544.591 4.69859 543.729 4.50437C542.867 4.31014 539.705 5.08705 539.418 4.89283L539.13 4.69859C538.555 4.69859 538.268 4.6986 538.555 5.08705V5.28127C538.555 5.47549 537.981 5.66972 537.693 5.66972L536.831 6.05816C536.831 5.66972 536.543 5.28127 536.256 5.08705C535.969 4.89282 534.531 4.50436 533.094 4.69859L531.945 4.89283H531.657C531.37 5.08705 531.37 5.28127 531.37 5.28127C531.37 5.28127 531.945 5.66971 532.232 6.25239C532.519 6.83506 535.681 6.64084 535.969 6.64084V6.83508V7.0293C535.969 7.22352 534.531 7.8062 533.094 8.19465L531.37 7.61197L530.795 7.22353C529.933 7.02931 529.933 6.83507 530.795 6.64084C531.657 6.44662 530.507 4.89282 529.645 4.50437H528.495C526.483 4.50437 524.471 4.89282 522.459 4.31015C521.884 4.11592 520.735 4.31014 520.16 4.69859L519.585 4.89283C519.298 5.4755 519.01 5.66972 518.723 5.28127C518.435 4.89282 516.998 4.11592 516.136 4.31015C515.274 4.31015 512.399 4.11592 511.824 3.53325L510.962 3.92171H510.675C510.387 4.11593 510.1 4.50438 509.525 4.89283L508.663 4.50437H508.375C507.8 4.50437 507.226 4.6986 507.226 5.08705C507.226 5.28127 506.651 5.86395 506.363 5.66972V5.47549C506.363 5.28126 506.363 5.08705 506.363 5.08705C506.076 4.6986 505.501 4.6986 504.926 4.89283C503.489 5.4755 504.639 4.31015 503.776 4.31015H503.201C502.627 4.11592 501.477 4.31014 500.615 4.50437L499.752 4.11593C499.465 3.9217 498.89 3.92171 498.89 3.92171L497.165 5.08705C496.016 4.11592 494.579 3.72747 493.716 4.31015C492.854 4.6986 489.692 4.31014 489.117 4.50437C488.543 4.69859 485.956 4.11593 484.519 4.11593L483.369 3.72747H483.081C482.794 3.92169 481.357 4.11592 480.495 4.31015L478.77 4.11593L477.333 3.92171C477.045 4.50438 476.47 4.6986 475.896 4.31015C475.321 4.11592 473.021 4.31015 472.734 4.31015C472.446 4.31015 471.297 3.92169 470.147 3.72747L468.997 3.92171L467.848 4.11593C466.41 4.11593 465.261 4.11593 464.973 4.11593C464.686 4.31015 464.111 4.31015 463.824 4.11593C463.536 3.9217 461.811 3.33902 461.524 3.53325C461.237 3.72747 460.087 4.31014 459.512 4.50437C458.937 4.69859 456.638 4.50438 455.488 4.11593C454.338 3.9217 451.464 4.11593 450.889 4.11593C450.314 4.11593 448.302 3.72748 448.015 3.92171C447.44 4.11593 446.003 4.50437 445.715 4.50437H445.428L444.566 4.11593C443.416 4.11593 441.979 4.31015 441.691 4.31015C441.404 4.31015 439.967 4.11593 439.105 4.11593C438.242 4.11593 436.23 4.11592 436.23 3.53325L434.506 4.11593L434.218 4.31015C433.931 4.31015 433.068 4.50437 432.206 4.50437C431.344 4.50437 428.757 4.6986 427.895 4.31015C427.032 4.11592 424.446 3.72747 423.871 3.72747L423.583 3.92171C423.008 4.31016 422.434 4.69859 421.284 4.50437H420.422C419.847 4.11592 419.272 3.72747 418.984 3.72747H418.697H417.547C416.398 3.53324 414.673 3.33903 413.811 3.14481L413.236 3.72747C412.661 4.31014 411.511 4.50438 410.362 3.92171L405.188 3.53325H403.751C402.026 3.53325 400.301 3.72747 399.727 3.53325C399.152 3.53325 397.715 4.11592 397.715 3.72747C397.715 3.33902 397.14 3.1448 396.565 3.72747C395.99 4.31014 392.541 3.72747 391.104 3.72747C389.954 3.72747 386.217 3.33903 385.93 3.14481L383.918 4.11593C381.331 3.9217 378.744 3.92171 378.744 3.92171C377.882 3.53326 377.307 3.1448 376.157 3.53325L375.582 3.72747C374.433 3.53324 372.708 3.14481 371.558 3.14481H370.696H369.259C367.822 3.14481 366.385 3.33902 366.097 3.53325C365.81 3.72747 364.948 3.92171 364.948 3.92171C364.948 3.72748 363.798 3.33903 363.223 3.33903C362.361 3.33903 360.061 3.1448 359.486 3.33903V3.53325V4.31015C358.624 4.11592 356.9 3.92169 355.75 3.72747L354.6 4.11593C354.025 4.31015 353.163 4.31015 352.875 4.11593C352.013 3.72748 351.151 3.72747 350.001 3.72747H349.139C347.989 3.53324 346.839 3.33903 346.552 3.14481C345.977 3.14481 344.54 3.53325 343.678 3.53325C342.815 3.53325 340.516 3.33903 339.941 3.33903C339.654 3.33903 338.504 2.95058 338.217 3.14481C337.929 3.33903 335.917 4.11592 334.48 4.69859L334.193 3.14481C334.193 3.14481 333.33 2.95058 333.043 3.14481L330.743 3.72747C329.594 3.53324 327.007 3.33903 324.995 3.14481H322.983H322.695C322.408 3.53326 320.396 3.72747 318.096 3.53325H316.084C315.51 3.53325 315.51 4.11592 316.372 4.31015L316.659 4.50437C317.234 4.50437 317.234 4.6986 316.659 4.89283C316.084 5.08705 314.935 5.08704 314.935 4.69859C314.935 4.31014 314.36 3.14481 313.497 3.14481C312.635 3.14481 309.761 3.53325 308.899 3.53325H308.036C307.174 3.53325 306.024 3.53324 305.162 3.72747L303.725 4.11593C302.288 3.72748 300.851 3.33903 299.988 3.14481C299.413 2.95058 298.264 3.92171 298.264 3.92171C298.264 3.92171 297.401 3.72747 297.114 3.53325L296.539 3.92171C295.677 4.31016 295.102 4.31015 294.815 3.53325V3.33903C294.24 3.1448 293.377 3.1448 293.09 3.53325C292.803 3.9217 290.503 3.72747 289.353 3.53325C288.204 3.53325 284.755 3.33903 284.18 3.33903L283.892 2.95057C283.892 2.95057 282.742 2.75635 282.742 2.95057C282.455 3.1448 282.455 3.9217 281.305 3.53325L280.731 3.33903C280.443 2.75635 279.293 2.56212 278.144 2.95057L276.994 3.33903C276.707 3.33903 273.832 3.14481 273.545 3.14481C272.683 2.75636 271.82 2.17368 271.533 3.33903C271.245 3.33903 270.67 3.53325 270.096 3.53325C269.521 3.53325 267.796 3.72747 267.796 3.72747C267.509 3.53324 266.934 3.1448 266.934 2.95057C266.934 2.95057 266.072 2.56213 265.209 2.36791C264.347 2.17368 262.335 2.75635 262.048 2.56213C262.048 2.36791 260.61 2.36791 260.323 2.56213C260.036 2.75635 258.311 3.33903 257.736 3.14481C257.449 2.95058 256.011 2.56213 255.724 2.75635C255.437 2.95058 254.574 3.1448 254.287 2.95057C254.287 2.75635 253.425 2.3679 252.85 2.75635H252.275H251.125C250.838 3.1448 250.263 3.33902 249.688 2.95057C249.401 2.56212 247.963 1.78523 247.963 1.97945C247.963 2.17368 247.101 2.36791 246.814 2.36791C246.239 2.17368 245.089 1.97945 244.802 2.17367V2.36791C244.514 2.95058 243.652 2.95058 243.365 2.56213C243.077 1.59101 241.927 1.591 241.065 1.97945L240.203 2.36791C239.341 2.17368 237.903 1.97946 236.754 1.78523L235.891 2.36791C235.029 2.95058 234.167 3.1448 233.017 2.56213C233.017 2.56213 232.442 2.56213 232.442 2.75635L231.58 3.33903C231.292 3.1448 230.718 2.75636 230.43 2.36791H230.143H228.993C227.556 2.56213 226.406 2.56213 226.119 2.56213C225.831 2.56213 224.969 2.36791 224.394 2.36791C223.819 2.36791 221.807 3.1448 220.945 2.75635C220.37 2.56213 218.071 2.17368 217.783 2.56213C217.496 2.95058 214.909 2.17367 213.472 2.17367C212.322 2.17367 209.16 2.56213 209.16 2.36791C209.16 2.17368 208.586 1.39678 208.298 1.78523V1.97945V2.17367C208.298 2.3679 207.436 2.56213 206.286 2.56213C205.424 2.56213 203.124 3.1448 203.699 3.33903C204.274 3.53325 210.598 3.72748 212.035 3.92171C213.472 4.11593 213.184 4.50437 212.322 4.50437L211.46 4.69859C211.172 4.50436 210.31 4.11593 209.735 3.92171C208.873 3.72748 208.011 5.08705 207.436 5.08705C207.148 5.08705 206.574 4.6986 206.861 4.31015V4.11593C206.574 3.33903 206.574 3.53325 207.436 3.33903L208.011 2.17367C208.873 2.3679 210.023 2.56213 210.023 2.56213H210.31L211.46 2.95057C210.31 2.75635 208.586 2.95058 207.436 3.33903C206.286 3.72748 203.987 3.92169 203.124 3.72747C202.549 3.53324 199.963 3.92169 199.388 3.72747C198.813 3.53324 198.813 2.75635 199.1 2.56213C199.1 2.56213 200.25 2.17367 200.538 2.17367C201.112 2.17367 201.687 1.97946 201.112 1.78523C200.538 1.59101 198.526 0.814113 198.526 0.814113C198.526 0.619888 197.088 0.814113 196.801 0.814113C196.513 0.814113 195.651 1.59101 195.364 1.78523C195.076 2.17368 192.489 2.75635 192.489 2.95057C192.202 3.1448 191.915 2.3679 192.202 2.17367H192.489L193.352 1.97945C194.214 1.78523 194.789 1.39678 194.501 1.00833V0.814113C194.789 0.619888 195.076 0.231431 194.214 0.425656L193.064 0.619876C191.627 0.814101 189.903 1.00833 189.328 1.00833C188.465 1.20256 185.016 0.61988 184.729 0.425656C184.154 0.231431 183.292 0.231439 182.429 0.0372143L181.855 0.231435H181.567L181.28 0.425656C180.705 0.814105 180.13 0.814101 179.842 0.619876C179.555 0.425652 178.118 0.425652 177.543 0.619876C176.968 0.814101 174.669 0.425663 173.807 0.814113L172.944 1.20255C172.944 1.20255 173.232 1.59101 173.232 1.78523V1.97945C173.232 2.17368 172.944 1.97946 172.657 1.59101C172.369 1.20256 170.357 0.814113 170.645 0.814113C170.645 0.619888 170.357 0.425656 169.782 0.425656C169.208 0.425656 166.621 1.00833 165.471 1.20255C164.321 1.39678 161.16 0.814109 161.16 1.00833C161.16 1.20256 160.297 1.20255 160.585 1.39677C160.585 1.591 161.447 1.78523 161.734 1.97945C162.022 2.17368 161.16 3.53324 159.435 3.72747L158.86 2.95057L158.285 2.36791C159.148 1.39679 159.148 0.619876 157.998 0.619876L157.71 0.814113C157.136 1.20256 156.848 1.78523 155.698 1.78523C155.698 1.78523 155.698 1.78523 155.698 1.97945C155.411 2.95058 155.411 2.95058 153.686 3.14481H152.824C151.674 3.33903 150.812 3.1448 150.812 2.75635C150.812 2.3679 150.525 1.20255 149.95 1.20255L149.375 1.59101C148.8 1.97946 148.8 2.36791 149.375 2.56213C149.95 2.56213 149.95 3.72747 149.375 3.72747C148.8 3.72747 147.363 3.14481 147.075 3.14481C146.788 3.33903 94.8521 1.78524 94.5647 1.59101H94.2772C93.9898 1.39679 93.7023 1.20256 93.4149 1.00833C93.1275 0.814109 91.6902 1.591 91.4028 1.39677C91.1154 1.20255 89.9658 0.619888 89.3909 0.814113C88.8161 1.00834 87.0915 1.20256 86.8041 1.00833C86.5166 0.814109 85.6543 0.425652 85.3668 0.619876C85.3668 0.814101 84.5046 1.59101 84.2172 1.59101H83.9298L81.9177 1.00833C80.1931 1.59101 78.4685 2.17367 78.1811 2.17367C77.8936 2.3679 77.0314 2.56213 77.0314 2.36791C77.0314 2.36791 76.744 1.78524 76.744 1.59101C76.744 1.20256 75.0194 1.59101 74.4445 1.59101C73.8697 1.78524 72.7199 1.59101 72.7199 1.78523C72.7199 1.97946 70.9953 1.591 70.7079 1.39677C70.133 1.20255 68.1211 1.00834 67.5462 0.814113L67.2588 0.619876C66.9714 0.619876 66.684 0.425656 66.684 0.425656L64.9593 1.39677C64.6719 0.425652 63.8096 -0.15701 62.9473 0.0372143C62.085 0.231439 60.6478 1.591 60.6478 1.39677C60.6478 1.20255 60.3604 0.814101 60.073 0.619876C59.4982 1.00833 58.6358 1.20256 58.061 1.59101C57.7735 1.78524 58.3484 1.97946 58.3484 2.36791V2.56213C58.3484 2.75635 57.7736 3.14481 57.4862 3.14481L57.1988 2.95057C56.049 2.3679 55.4741 2.56213 55.1867 3.33903C54.6118 3.33903 54.0369 3.1448 54.0369 2.95057C54.0369 2.75635 54.0371 2.17367 54.3245 2.17367C54.6119 2.17367 54.0369 1.39677 53.4621 1.39677C52.8872 1.39677 51.7375 2.3679 51.45 2.95057C48.0909 6.71828 12.5169 7.16374 16.671 13.4387C16.9584 14.0214 17.8208 14.4098 18.3956 14.7983L18.9705 15.1867C18.683 15.5752 17.2459 16.1578 16.3836 16.5463C15.2339 16.7405 13.2218 16.9348 12.3595 16.9348C11.4972 16.9348 8.62287 18.1001 8.04801 18.4886C7.47315 18.877 5.17378 19.0712 4.88635 19.2655C4.59891 19.4597 4.88635 20.2366 4.88635 21.0135L4.02409 21.7904L3.73669 21.9846C3.44926 22.373 4.02405 22.7615 4.88635 22.9557L5.46115 23.3442C6.32344 23.9268 6.32349 23.9268 6.89835 23.5384L7.18581 23.3442L8.33562 23.5384C8.91048 24.1211 9.48524 24.3153 9.77267 23.9268C10.0601 23.5384 12.647 23.5384 13.2219 23.5384C13.7967 23.5384 15.8088 24.121 14.9466 24.3153C14.0843 24.5095 12.3597 25.2864 12.6471 25.6748L11.7847 25.8691L10.6349 26.2575C9.77258 25.6749 9.19782 25.2864 9.19782 25.2864C9.19782 25.2864 8.62287 25.6748 8.04801 25.8691C7.47315 25.8691 8.04813 27.0344 8.91042 27.0344L9.48522 27.4229L10.0601 27.8113C10.6349 28.394 10.6351 28.9767 10.3476 29.1709C10.0602 29.1709 9.77258 29.9478 10.6349 30.5305C11.4972 31.1132 13.5093 32.4727 13.2219 32.4727C12.9345 32.4727 12.3597 32.8612 12.6471 33.2496H12.9345H13.5093C14.0842 33.4439 14.9464 33.8323 15.2338 34.415L14.3715 34.8034C14.0841 34.9977 15.2339 37.3284 15.5214 37.3284L16.3836 37.7168C17.2459 38.1053 17.8208 38.4937 17.8208 38.8822C17.8208 39.0764 18.9704 40.0475 19.2579 40.436L19.5453 40.6302L20.4077 41.2129C19.8328 41.7955 19.5453 42.7666 19.5453 43.3493L19.8327 43.932L20.1203 44.7089C18.9706 44.7089 18.683 45.0973 19.2579 45.2916C31.5575 49.4472 -21.2007 41.0051 18.6831 61.218C18.6831 61.218 18.683 61.6064 18.3956 61.8006C18.1082 61.8006 17.5333 61.8006 17.5333 61.8006C17.2458 61.4122 16.9585 61.0238 16.3836 60.8295L16.0962 60.6353C15.8088 60.4411 15.5212 60.4411 15.2338 60.6353C15.2338 60.8295 14.3716 61.6064 14.0841 61.6064C13.7967 61.6064 12.647 61.6064 12.3595 61.8006C12.0721 61.9949 11.2099 62.1891 10.9225 62.1891C10.9225 61.9949 10.3477 61.8006 10.0602 61.9949C9.7728 62.1891 8.04807 62.5775 7.47321 61.9949L6.61095 61.6064C6.03609 61.9949 5.74857 62.3833 6.036 62.5775C6.32343 62.7718 6.89841 63.3544 6.32355 63.3544C5.74869 63.3544 4.59891 63.7429 4.88635 63.9371C5.17378 64.1313 5.17381 64.9083 4.59894 65.1025C4.02408 65.2967 3.44919 65.6852 4.88635 66.0736L6.036 66.4621C6.32343 66.6563 6.89835 66.8505 6.89835 67.0448C6.89835 67.239 6.89835 67.6274 6.89835 67.8216C6.61092 68.0159 6.03616 68.0159 5.4613 68.0159L4.59894 67.8216C4.59894 67.4332 4.31152 66.8505 4.02409 66.6563H3.73669C2.8744 66.4621 2.06232e-05 67.0447 2.06232e-05 67.6274V67.8216C0.574881 68.0159 1.43722 68.4043 2.01208 68.5986C2.58694 68.7928 4.02409 69.7639 4.02409 69.7639C4.02409 69.9581 4.59891 69.9581 4.88635 69.3754H5.4613H5.74875C6.61104 69.7639 6.61098 70.1523 6.32355 70.3465C6.03612 70.5408 4.59894 71.9003 4.59894 72.8715V73.8426V75.0079C6.32353 75.5906 7.76061 75.979 7.76061 75.7848C7.76061 75.5906 8.33559 75.2022 8.62302 75.3964C8.91045 75.5906 8.91039 76.5617 9.19782 76.5617C9.48525 76.5617 10.6351 76.9502 10.0602 77.3386H9.77267C9.19781 77.3386 8.33547 76.9502 7.76061 76.9502C7.18575 76.9502 6.32355 76.7559 6.32355 77.3386C6.32355 77.7271 6.61092 78.1155 6.89835 78.1155L8.04801 78.3097C9.19773 78.504 10.3477 77.9213 10.0602 76.9502L12.0721 77.1444L13.5093 77.3386C12.9345 78.1155 12.9345 78.6982 13.5093 78.6982C14.0842 78.6982 16.0962 78.6982 16.0962 78.3097C16.0962 78.1155 16.671 77.7271 17.2459 77.9213C17.8207 78.3098 19.2579 79.0866 19.2579 78.6982C19.2579 78.5039 19.8328 77.7271 20.1203 77.9213C20.4077 78.1155 22.707 78.6982 24.1442 78.6982L25.294 79.0866L26.4437 79.4751C27.5934 79.4751 29.318 79.4751 30.4677 79.4751H31.6174H31.9049C32.1924 79.4751 33.6295 79.4751 34.7792 79.2809C35.9289 79.0867 39.3781 79.6693 39.6655 79.4751C39.953 79.4751 41.3901 79.2809 41.965 79.2809C42.5398 79.2809 44.5518 79.2808 45.1266 79.0866C45.7015 78.8924 48.0009 79.8635 48.8632 80.0578L49.1507 79.0866V78.6982C50.013 78.8924 50.8753 79.0867 51.4502 79.2809C52.025 79.4751 52.8873 79.8635 53.1747 79.6693C53.4621 79.4751 55.7615 79.6693 56.3363 79.8635C56.9112 79.8635 58.9233 79.6693 59.2108 79.6693C59.4982 79.6693 60.6478 80.0578 60.9353 80.252C61.2227 80.4462 62.3725 80.0578 62.6599 80.0578C62.9473 80.0578 64.6719 80.252 65.5341 80.4462C66.6839 80.8346 70.1332 79.8635 71.2829 79.8635C72.4326 79.8635 75.3068 80.8347 75.5942 80.8347C76.1691 80.8347 77.8936 80.8347 78.4685 81.2231L79.9057 80.6404C80.4805 80.4462 81.9177 80.8347 82.78 80.8347C83.6423 80.8347 84.5046 80.6404 85.3668 80.6404C85.9417 80.6404 86.5166 80.8347 87.3789 80.8347L88.8161 81.0289C88.8161 80.4462 88.8161 80.252 88.8161 80.6404C88.8161 81.0289 91.1155 80.6405 91.9778 80.8347H92.84L96.0019 80.6404C99.4511 80.4462 137.303 80.4462 138.74 80.4462C139.89 80.4462 143.339 81.0289 143.626 81.0289C143.914 81.0289 145.063 81.2231 146.213 81.2231L146.501 81.0289C147.363 80.4462 148.513 81.0289 149.375 80.8347L150.525 80.4462C151.674 80.4462 153.111 80.4462 153.974 80.4462C154.549 80.4462 157.136 81.0289 158.86 81.2231L160.297 80.8347L161.16 80.6404C162.597 80.8346 164.034 80.8347 164.609 80.8347C165.184 80.6405 166.333 81.0289 166.621 80.8347C166.908 80.6405 168.058 80.252 168.633 80.4462C169.208 80.6404 171.507 81.2231 172.082 81.2231C172.657 81.2231 174.381 81.0289 174.669 80.8347C175.244 80.6405 177.831 81.2231 179.555 81.4173C181.28 81.6116 185.591 81.0289 185.879 81.2231C186.166 81.4173 187.603 80.8347 188.178 80.8347C188.465 80.8347 189.615 81.0289 189.615 80.8347C189.903 80.6405 190.19 80.4462 190.477 80.6404C190.477 80.8346 191.627 81.0289 192.202 80.8347C193.064 80.6405 195.364 81.2231 195.939 81.2231L196.226 81.0289C197.663 80.4462 198.525 80.4462 199.963 81.0289C201.112 81.4173 202.262 80.4462 203.124 80.6404C204.274 81.0289 205.424 81.2231 206.286 81.0289C207.148 80.8346 207.436 80.8346 208.011 81.0289C208.298 81.0289 209.448 80.8347 209.448 80.8347C210.023 81.4174 210.598 80.6405 211.172 80.8347C211.747 81.2231 211.747 81.0289 212.322 80.8347L213.184 80.4462C214.334 80.6404 216.921 80.8346 218.933 81.0289C220.945 81.2231 227.556 81.0289 228.418 81.2231H229.281H231.58C233.879 81.2231 236.466 81.4173 237.041 81.6116C237.616 81.8058 240.49 81.4173 241.64 81.2231H242.79C243.939 81.2231 245.377 81.2231 246.814 81.2231H247.676C247.964 80.8347 248.251 80.6404 248.538 80.6404C248.538 80.6404 249.401 80.8346 249.688 81.0289C249.975 81.2231 251.413 81.6116 251.7 81.4173C251.988 81.2231 254.862 81.6116 256.874 81.6116C258.886 81.6116 264.634 81.2231 265.209 81.2231C265.784 81.2231 268.084 81.6116 268.658 81.2231C269.233 81.0289 271.533 81.6116 272.395 81.6116C272.97 81.6116 275.557 81.8058 276.419 81.8058C277.281 81.8058 279.868 81.4173 280.443 81.4173C281.018 81.6116 283.317 81.6116 283.892 81.4173C284.467 81.2231 287.629 81.6116 288.779 81.4173L289.928 81.2231L290.791 81.0289C292.515 81.2231 295.389 81.6116 297.401 81.6116C299.413 81.6116 306.312 81.8058 307.749 81.8058L308.324 80.6404C309.473 80.6404 310.048 80.8346 310.048 81.0289C310.048 81.2231 310.048 81.6116 310.623 81.6116C311.198 81.6116 313.785 81.8058 314.647 82L315.797 81.6116L316.372 81.4173C316.659 81.2231 317.234 80.8347 317.809 80.8347C318.096 81.0289 318.384 81.4173 318.384 81.4173L321.546 81.0289C324.995 81.4173 327.869 81.4173 327.869 81.2231C327.869 81.0289 328.731 80.252 329.306 80.4462H329.881C331.318 80.4462 330.743 81.0289 331.318 81.2231C331.893 81.4173 332.468 81.2231 333.043 81.4173C333.618 81.4173 334.48 81.6116 335.055 81.8058H335.342C335.917 81.6116 336.779 81.6116 337.354 81.4173C337.929 81.2231 339.654 81.6116 340.229 81.6116C340.516 81.8058 342.528 81.4173 343.103 81.6116C343.678 81.8058 346.839 81.8058 348.564 82L350.001 81.2231C350.289 81.0289 351.438 81.0289 351.726 81.2231L353.163 81.8058C354.6 81.6116 356.325 81.2231 357.187 81.2231V81.4173C358.049 82.3885 359.199 81.2231 360.061 81.6116L360.924 82C361.786 81.6116 363.798 81.2231 365.235 81.0289L366.385 81.6116L367.247 82C367.822 81.4173 369.259 81.0289 370.121 81.2231L370.409 81.4173C370.984 82 371.558 81.2231 372.133 81.4173H372.421C372.708 81.4173 373.858 81.4173 375.008 81.2231C376.157 81.0289 382.481 81.6116 382.768 81.6116C383.63 81.2231 384.493 80.8347 385.355 81.4173C386.505 82 386.505 81.0289 387.655 81.2231L388.517 81.4173C389.667 81.2231 391.966 81.0289 393.978 81.2231H395.703C396.852 81.2231 398.289 81.4173 398.577 81.0289L399.439 80.252C400.301 80.6404 401.164 80.8347 401.451 80.8347C401.739 80.8347 402.888 80.8347 403.751 80.8347H404.613C405.188 80.8347 406.05 81.0289 406.625 81.2231C406.912 81.0289 407.2 80.6404 407.487 80.4462C407.775 80.252 408.637 80.8347 408.924 81.2231H409.787H410.649C411.799 81.2231 413.523 81.4173 414.673 81.4173L415.823 81.2231L416.972 81.0289C418.122 81.0289 419.272 80.8346 419.559 80.6404C419.559 80.4462 419.847 79.8635 419.847 79.8635C419.847 79.8635 420.134 80.0578 420.134 80.252C420.134 80.4462 420.996 81.2231 421.571 81.0289L421.859 80.8347C423.008 80.0578 423.008 80.0578 424.446 80.8347H424.733C425.02 80.8347 426.17 81.0289 427.607 81.0289C429.045 81.0289 432.781 80.252 433.356 80.4462C433.931 80.6404 434.793 80.252 434.218 80.0578C433.931 79.8635 433.069 79.0867 433.931 79.2809C434.793 79.4751 436.518 80.252 436.805 80.4462H437.093C437.667 80.4462 438.242 80.252 438.817 80.252C439.392 80.252 439.967 80.4462 440.254 80.4462C440.829 80.4462 441.691 80.4462 442.266 80.4462L443.991 79.8635C446.003 80.0577 448.015 80.4462 448.59 80.4462L449.165 80.252C450.027 80.0578 452.039 79.8635 452.901 80.0578L454.626 80.4462C456.063 80.0578 457.5 79.8635 457.787 80.0578C458.075 80.252 461.812 80.0578 464.111 80.0578H466.123H467.56C469.285 80.0578 471.872 80.252 473.309 80.4462L474.746 80.252C475.608 80.0578 477.62 79.6693 478.195 79.4751C478.482 79.2809 479.345 79.4751 479.345 79.4751C479.632 80.252 480.207 80.4462 481.357 79.8635C481.357 79.8635 482.794 80.0578 484.231 80.252L485.381 80.0578C486.818 79.8635 487.968 79.6693 489.117 80.252C489.405 80.4462 490.267 80.252 490.842 80.0578H491.417C491.992 79.8635 492.854 80.0578 493.141 80.252C493.716 80.4462 496.303 80.0578 496.878 80.0578C497.453 80.0578 500.615 80.0578 502.052 80.252L503.201 79.6693C503.201 79.6693 503.489 79.8635 503.776 79.8635L506.938 80.252C508.663 80.0578 510.387 79.8635 510.675 79.6693C510.962 79.6693 513.262 79.8635 515.274 79.8635L517.286 80.0578H517.573C517.86 79.6693 518.435 79.4751 518.435 79.6693C518.435 80.0577 521.884 80.252 523.896 80.252L525.046 79.8635C525.621 80.0577 526.771 80.0578 527.92 80.0578L529.07 79.8635C529.932 79.6693 530.507 80.8346 531.657 80.0578C531.945 79.8635 532.519 80.0578 532.807 80.0578C533.094 80.0578 533.382 80.252 533.669 80.0578H534.244C534.819 80.0578 535.969 80.0578 536.831 80.252L537.406 79.8635C538.268 79.0866 538.843 80.252 539.993 79.8635C541.142 79.4751 540.567 78.6982 541.142 78.3097C541.43 78.1155 542.292 78.1155 542.867 78.3097L543.729 78.5039C544.591 78.8924 545.166 79.2809 544.879 79.4751C544.591 79.4751 544.879 79.8635 545.741 79.8635L546.603 79.6693C547.178 79.6693 547.753 79.4751 548.328 79.4751H550.053C551.202 78.6982 552.065 78.3097 552.065 78.6982C552.065 78.8924 552.927 80.0578 554.077 80.0578C555.226 80.0578 557.526 79.2809 557.526 79.2809L557.813 79.4751L558.101 79.6693C558.388 79.6693 559.538 79.8635 560.687 79.8635C561.837 79.8635 564.999 79.4751 565.286 79.2809C565.574 79.0867 566.724 79.0867 566.724 79.2809C566.724 79.4751 568.448 79.6693 568.448 79.4751C568.448 79.4751 568.736 78.8924 569.023 78.3097L570.748 78.8924C571.61 79.2808 572.472 79.2809 573.334 79.4751H573.909C574.772 79.4751 575.346 79.0866 575.346 78.6982V78.3097C575.346 77.9213 575.346 77.5328 576.209 77.5328C577.358 77.5328 576.784 78.1155 576.784 78.3097V78.5039C577.071 78.6982 577.358 78.6982 577.646 78.5039C577.933 78.3097 579.083 78.1155 579.658 78.5039V79.0866C579.945 79.2808 580.233 79.2809 580.52 79.2809H580.808C581.095 79.0867 581.382 78.6982 581.67 78.3097C581.957 77.9213 583.394 77.7271 583.107 77.9213C582.82 78.1155 583.107 78.8924 584.832 79.4751L586.269 78.6982L586.844 78.3097C587.419 78.504 588.281 78.6982 588.856 78.8924C589.431 79.0866 592.017 78.3097 592.305 78.3097H592.592H592.88C593.167 78.3097 593.167 78.5039 593.167 78.6982C593.167 78.6982 594.029 79.2809 595.754 79.4751L596.616 79.0866L598.053 78.6982C599.491 78.8924 600.353 78.8924 600.353 78.6982C600.065 78.5039 600.928 77.3386 602.652 76.7559L604.664 77.5328L606.101 77.9213C608.113 77.5329 609.551 77.1444 608.976 77.1444L608.401 76.3675C606.964 76.5617 605.814 76.7559 605.527 76.7559C605.239 76.7559 605.239 75.979 606.676 76.1733V75.979L608.401 75.2022C608.976 75.9791 609.263 76.3675 609.551 76.1733C609.551 75.979 610.126 75.5906 610.413 75.5906C610.7 75.5906 611.85 75.979 611.85 76.1733C611.85 76.3675 613 76.9502 613.575 77.1444C614.149 77.5328 615.299 79.0866 615.299 78.6982C615.299 78.3097 616.162 77.5328 616.449 77.5328C617.024 77.5328 618.461 77.3386 618.748 77.3386C619.036 77.3386 619.898 77.5328 619.323 77.5328C619.036 77.7271 617.886 78.1155 617.599 78.3097V78.5039C617.599 78.5039 617.886 78.6982 618.174 78.6982L619.036 78.5039C620.186 78.3097 620.76 77.9213 620.76 77.5328C620.76 77.1444 621.048 76.5617 621.623 76.7559C622.198 76.9502 622.485 77.9213 622.772 78.1155C623.06 78.3098 624.784 78.3097 624.784 78.3097C625.072 78.3097 625.359 77.5328 624.784 76.9502C624.21 76.3675 623.922 75.0079 624.784 75.5906C625.647 76.1733 627.946 77.5328 628.521 77.3386C629.096 77.1444 630.246 77.9213 630.246 78.1155C630.533 78.3098 632.545 78.504 632.832 78.1155C633.12 77.7271 630.533 77.1444 629.958 76.9502C629.383 76.7559 627.371 76.3675 627.371 76.1733C627.084 75.979 627.084 75.3964 627.084 75.2022C627.371 75.2022 627.946 75.2022 628.234 75.2022L628.808 75.5906C629.383 75.9791 629.958 76.3675 629.958 76.3675C630.246 76.3675 630.533 76.1733 630.82 75.7848C630.82 75.5906 631.683 74.8137 631.97 74.6195C632.258 74.4252 633.12 73.8426 633.407 74.0368C633.695 74.0368 634.557 74.6195 635.132 75.0079H634.557H633.12C632.545 75.5906 631.97 76.1733 631.97 76.1733C631.97 76.1733 632.545 76.5617 633.12 76.5617H633.695H634.27C634.844 76.5617 635.419 76.7559 635.419 76.9502C635.707 76.9502 636.569 76.7559 636.856 76.9502C637.144 77.1444 638.006 77.1444 638.294 76.9502C638.581 76.5617 640.018 75.9791 640.881 76.3675L641.455 76.5617L642.03 76.7559C642.605 76.5617 643.467 76.1733 644.33 75.7848L644.905 75.3964L645.479 75.0079C646.342 75.2022 647.491 75.5906 647.779 75.7848L648.066 75.979L648.641 76.3675C649.216 76.9502 650.078 77.1444 650.941 76.9502C651.803 76.7559 653.24 75.979 653.815 75.979C654.39 75.7848 655.827 75.7848 655.54 76.1733L655.827 76.3675C656.114 76.5617 656.977 76.7559 657.264 76.9502C656.977 77.1444 656.977 77.5328 657.264 77.5328C657.551 77.5328 658.126 77.3386 658.414 77.1444C658.701 76.9502 660.713 75.979 662.438 76.1733L662.15 77.3386C662.15 77.7271 663.875 77.9213 664.162 77.5328C664.45 77.1444 664.45 76.9502 663.588 76.7559C663.3 76.7559 662.725 76.3675 663.013 76.1733L663.3 75.5906C663.588 75.9791 664.737 76.1733 665.6 75.979C666.462 75.979 669.049 76.5617 669.624 76.3675H669.911C670.198 76.3675 671.061 76.1733 671.348 76.3675L672.498 76.7559C673.648 76.5617 675.085 76.1733 675.085 76.1733C675.372 76.1733 736.224 76.1733 737.373 76.3675L738.236 75.979L738.523 75.7848C739.098 75.5906 739.673 75.7848 739.673 76.1733C739.673 76.3675 740.823 77.3386 741.972 77.3386C743.122 77.3386 745.709 77.1444 745.996 77.3386V77.5328L746.284 77.7271C746.571 77.9213 746.571 77.9213 746.859 77.7271V77.5328L747.146 77.9213C747.433 77.7271 748.583 77.7271 749.733 78.1155L750.595 77.5328C751.17 77.9213 782.946 77.9213 752.607 77.9213C753.182 77.7271 754.619 77.9213 755.481 77.9213C756.344 77.7271 758.643 78.3097 759.218 78.5039C759.793 78.5039 761.805 78.3097 762.667 78.5039L763.53 77.9213L764.392 77.5328C765.542 77.7271 767.266 78.1155 768.416 78.1155L769.278 78.3097L770.14 78.5039C771.003 78.3097 772.152 77.7271 772.727 77.5328L773.59 78.1155C774.164 78.6982 774.739 77.9213 775.314 77.9213C775.889 77.9213 777.039 78.3097 777.326 78.3097C778.476 77.9213 779.338 77.9213 780.488 77.9213C781.925 77.9213 783.362 77.5328 784.512 78.3097C784.799 78.3097 785.662 78.1155 786.236 77.9213C786.811 77.7271 789.398 77.5329 790.548 77.9213L791.698 77.7271C793.71 77.5329 796.009 77.1444 798.021 76.7559C798.596 76.7559 798.596 76.1733 799.171 75.979C799.458 75.7848 799.746 75.5906 800.033 75.5906C800.608 75.5906 801.183 75.7848 801.47 75.7848H801.758C802.045 75.3964 802.62 75.0079 803.482 74.8137C804.345 74.6195 806.357 74.8137 806.931 75.0079L807.506 74.8137C808.656 74.4253 809.806 74.231 812.105 74.231C812.393 74.231 812.68 73.8426 812.68 73.6484C812.105 73.2599 811.243 73.0657 812.967 72.8715C813.83 72.8715 813.542 72.2888 812.967 72.0946L812.68 71.9003C812.393 71.7061 812.393 71.3177 812.68 71.1234C812.968 70.9292 811.818 70.5408 811.53 70.735C811.243 70.9292 809.518 70.5407 809.231 70.9292L808.943 71.1234C808.656 71.3177 808.943 71.5119 808.943 71.7061C808.943 71.9003 808.369 71.9003 808.081 72.0946H807.794C807.506 72.0946 806.931 71.7061 806.357 71.3176C805.782 70.9292 804.919 69.5696 805.207 69.3754C805.494 68.987 807.794 69.3754 808.369 69.1812V68.987L808.656 68.4043C809.231 67.8216 809.806 67.6274 810.093 68.0159C810.381 68.2101 810.668 69.3754 811.243 68.987C811.818 68.5985 814.692 68.0159 815.267 67.8216C815.842 67.6274 814.405 66.6563 813.83 67.0448C813.255 67.239 811.53 67.8216 811.243 67.8216C810.956 67.6274 810.381 67.0448 810.093 66.6563L808.943 67.0448C808.656 67.239 807.794 67.239 807.794 67.0448C807.506 66.6563 807.506 66.4621 808.369 66.2678L808.943 66.0736C809.518 65.4909 809.518 64.9082 808.943 64.714L808.656 64.5198L808.369 64.3256C808.369 63.9371 808.943 63.7429 809.231 63.5487C809.518 63.5487 811.243 62.966 812.68 62.7718L812.967 63.3544L813.542 64.5198C814.98 64.3256 815.842 63.9371 815.267 63.7429C814.692 63.5487 814.117 63.3544 814.117 63.1602C814.405 63.1602 815.267 62.5775 815.842 62.1891L816.417 61.9949L816.991 61.8006C817.566 61.9949 818.716 61.8006 819.291 61.6064H819.866C820.728 61.6064 821.303 61.6064 822.165 61.6064C823.602 61.6064 824.752 61.4122 826.189 61.6064C827.339 61.8006 828.201 61.218 829.638 61.4122C830.213 61.4122 831.076 61.218 831.65 61.0237L832.513 60.6353C833.662 60.6353 835.387 60.4411 836.824 60.4411C837.687 60.2468 841.998 59.0815 843.435 58.6931L844.872 58.4988H845.735C846.884 58.4988 848.321 58.3046 848.896 58.1104L849.471 57.9162L851.771 57.1393C851.483 56.1682 850.908 55.197 850.621 54.8086L852.345 55.0028C853.208 55.0028 853.783 54.8086 853.495 54.4201V54.0317C853.208 53.6432 853.495 53.2548 853.783 53.0606C854.07 52.8663 854.645 52.2837 854.357 52.2837C854.07 52.0894 852.633 51.5068 852.345 51.3125L853.208 51.1183C854.07 50.9241 854.357 50.7299 854.07 50.3414L853.495 49.7587C854.07 49.5645 855.22 48.2049 855.795 46.8454L857.232 45.8742L857.519 45.68C856.944 44.9031 856.657 44.3204 857.232 44.3204C857.519 44.3204 858.381 43.932 857.807 43.7378C857.232 43.3493 857.807 42.3782 857.519 42.3782C857.232 42.3782 856.082 41.6013 856.369 41.2129L856.657 40.8244C856.944 40.2417 857.519 39.8533 857.232 39.2706C857.232 38.8822 856.369 38.2995 855.795 37.911C855.22 37.1341 853.783 37.3284 853.495 37.1341L852.92 36.5515C852.058 36.5515 851.196 36.7457 850.908 36.7457C850.621 36.7457 848.609 35.5803 848.034 35.5803C847.459 35.5803 845.447 35.1919 844.872 35.1919L844.01 34.9977C843.435 34.9977 842.285 35.3861 841.711 35.1919C840.848 34.9977 840.561 34.9977 839.699 35.1919C839.124 35.3861 838.261 35.1919 837.686 35.1919L835.962 34.6092C836.249 35.1919 834.812 34.9977 833.375 34.2208L831.076 34.415H830.788C830.213 34.2208 829.638 34.2208 829.351 34.2208C829.881 33.7611 830.946 33.8375 831.649 32.2875C832.08 31.3353 830.967 29.5486 831.363 28.5228C831.8 27.3933 834.803 27.0289 835.1 26.1375C835.451 25.0834 834.237 22.9588 834.237 22.7615V22.5673V22.1788C833.95 21.7904 834.237 21.5961 834.525 21.5961C834.812 21.5961 835.962 21.2077 835.962 20.4308H836.249L837.974 21.0135C837.399 19.8481 836.249 18.877 835.675 19.0712L835.1 19.2655C834.525 19.4597 833.95 19.6539 833.375 19.6539C833.088 19.6539 832.513 19.6539 832.225 19.4597L831.651 19.2655C830.788 19.2655 829.639 18.877 829.064 18.6828V18.4886V18.2943C829.639 18.1001 830.788 17.7117 831.363 17.7117L831.938 17.9059C832.225 18.1001 831.938 18.6828 832.8 18.4886L833.662 18.2943C834.237 17.9059 835.1 17.9059 835.387 18.2943C835.675 18.6828 837.399 18.2943 837.112 18.1001C837.112 17.9059 837.112 17.7117 837.399 17.7117C837.686 17.7117 838.836 17.9059 838.836 18.1001C838.836 18.2943 839.411 18.877 839.699 18.877C839.986 18.6828 839.699 18.4886 839.986 18.2943L840.848 17.7117C842.285 17.7117 843.435 17.7117 843.723 17.7117C844.01 17.7117 844.297 16.9347 843.148 16.1579L841.711 16.5463L840.561 16.9348C839.411 16.9348 838.261 16.5463 838.261 16.1579C838.261 15.7694 838.549 14.7983 838.836 14.7983C839.124 14.7983 840.273 14.9925 839.986 15.1867V15.381V15.5752C839.986 15.7694 840.848 15.9636 841.423 15.9636C841.998 15.7694 843.148 15.381 842.573 15.1867V14.9925C842.573 14.7983 843.148 14.4098 843.435 14.2156C843.435 14.2156 844.297 14.4098 844.585 14.4098C844.872 14.4098 845.447 14.2156 845.735 14.0214C845.735 14.0214 845.447 13.6329 845.16 13.6329C844.872 13.6329 843.723 13.8272 842.573 14.0214C841.423 14.2156 837.686 13.4387 837.399 13.6329H837.112C836.824 13.6329 836.249 13.4387 835.962 13.2445V13.0502V12.856C836.249 12.6618 835.962 12.6618 835.675 12.4676C835.387 12.2734 834.237 12.2733 833.95 12.2733C833.663 12.4676 832.8 12.6618 832.513 12.4676C832.225 12.2734 831.076 12.2733 830.788 12.6618C830.501 13.0502 829.351 14.0214 829.064 14.0214C829.064 14.0214 829.064 13.4387 829.351 12.6618V11.8849V11.6907C828.489 11.3022 827.914 11.3023 827.627 11.3023V11.4965L827.339 11.8849C827.052 12.4676 826.477 12.2734 825.902 11.4965L825.04 11.3023L824.177 10.9138C823.89 10.3311 823.315 9.94268 823.028 10.1369C822.74 10.3311 821.878 10.7196 821.016 10.7196L820.441 10.9138L819.866 11.108C848.321 10.1369 818.141 11.108 818.141 10.7196C818.141 10.3311 817.854 9.94267 817.566 9.94267H817.279C816.417 10.1369 815.842 10.5253 814.98 10.5253C814.692 10.5253 814.117 9.74845 813.83 9.74845H812.968C812.105 9.74845 811.243 9.74844 810.956 9.94267C810.668 9.94267 809.806 9.94269 809.806 9.36001V8.97156L809.518 8.58311C809.231 8.19466 807.506 8.00042 805.782 8.38887L803.77 7.41775C802.62 6.83508 801.758 5.86395 799.746 6.83508C798.883 6.44663 797.734 6.25239 797.446 6.64084L796.871 6.83508L796.584 7.02931C796.297 7.02931 795.434 7.02931 794.859 7.02931C794.285 7.02931 792.56 6.64085 791.698 6.44662C791.123 6.2524 788.249 6.2524 787.386 6.2524C786.524 6.2524 784.512 5.47549 783.937 5.86394C783.362 6.05817 782.213 7.02931 782.5 7.22353C782.5 7.41776 782.213 8.19465 781.638 8.19465H781.063H779.913C779.051 7.41775 778.189 6.64085 777.614 6.2524C777.039 5.86395 775.602 4.89282 775.314 5.08705H775.027L773.59 5.4755C773.877 5.86395 774.452 6.44662 774.739 6.64084L775.027 6.83508L775.314 7.02931C775.027 7.22354 774.739 7.61198 774.452 7.41775C774.164 7.41775 773.015 6.83507 771.865 6.2524L770.428 6.83508L770.14 7.02931C769.853 7.22354 768.991 6.83507 768.703 6.44662C768.416 6.05817 644.905 7.41775 644.33 7.61197H643.755L642.893 7.80621C642.03 8.19466 640.881 8.38888 640.593 8.58311C640.018 8.58311 640.306 9.55422 640.018 9.74845C639.731 9.94267 639.156 9.94268 638.869 10.1369C638.869 10.3311 637.719 10.1369 637.431 9.74845C637.431 9.36 635.419 9.55423 634.845 9.55423C634.557 9.55423 632.833 9.16579 631.395 9.36001H629.958H628.808C627.371 9.55424 626.222 9.55423 625.934 9.16578C625.647 8.97155 626.796 7.8062 626.509 7.61197ZM15.5214 20.625C15.2339 20.4308 15.5213 19.6539 16.0962 18.877H18.1082H20.1203C20.9826 19.6539 21.27 20.625 20.4077 21.0135H20.1203L19.2579 20.8193C18.3956 20.4308 17.5334 20.2366 17.246 20.4308C16.9586 20.8192 15.8088 20.8193 15.5214 20.625ZM22.9945 69.5697C22.7071 69.5697 21.8448 69.1812 21.2699 68.5986C20.6951 68.0159 22.4196 66.6563 22.1321 66.6563V66.2678C22.9944 66.0736 23.8568 66.0736 24.1442 66.2678C24.4316 66.4621 23.8568 67.0447 23.5693 67.239C23.2819 67.4332 23.5692 68.2101 23.2818 68.5986C22.9944 68.7928 23.282 69.5697 22.9945 69.5697ZM812.68 17.9059C812.68 18.2943 813.255 18.2943 813.542 18.1001C814.117 17.9059 813.83 18.6828 812.393 18.6828H811.243L809.231 18.877C808.369 18.1001 808.369 17.7117 808.943 17.9059C809.518 18.1001 811.53 17.7117 811.53 17.5174C811.53 17.3232 811.818 16.7405 812.105 16.7405C812.393 16.7405 812.68 17.5174 812.68 17.9059ZM785.374 8.19465C784.799 7.61198 785.662 7.22353 787.099 7.22353L787.961 6.64084C788.536 6.83507 789.111 7.22353 789.111 7.41775C789.111 7.61198 787.386 8.19465 786.811 8.38887C786.811 8.97154 786.524 9.16578 785.662 8.58311L785.374 8.19465ZM62.0851 9.55423C62.0851 9.16578 62.3725 8.97156 62.6599 9.36001C62.9473 9.55424 63.8096 9.94267 64.3845 9.74845C64.9594 9.55422 66.9714 9.36 66.684 9.55423C66.3965 9.74845 66.3965 9.94268 66.684 10.1369C66.9714 10.3311 67.2587 10.7196 65.8215 10.5253L65.2467 10.7196L64.3845 10.9138C62.6599 10.7196 61.7977 9.94268 62.0851 9.55423ZM802.045 8.97156C801.183 9.16578 800.321 9.16578 800.321 8.97156C800.321 8.77733 800.033 8.19465 800.033 8.00043C799.746 7.80621 800.321 7.41774 801.183 7.80619L801.758 7.41775C802.62 7.0293 802.907 7.80621 803.482 8.00043C804.057 8.19465 804.057 8.5831 803.482 8.77733C803.195 9.16578 802.908 9.55423 802.045 8.97156ZM318.959 78.5039C319.534 78.3097 319.821 78.5039 319.821 78.6982C319.821 78.8924 320.108 79.6693 320.396 79.6693C320.683 79.6693 321.546 79.6693 321.546 79.8635C321.546 80.0577 321.546 80.6404 321.258 80.6404C321.258 80.6404 319.534 80.4462 317.522 80.252V79.8635V79.4751C317.522 79.0867 318.671 78.5039 318.959 78.5039ZM165.184 3.53325C164.609 3.72747 163.746 3.72748 163.172 3.14481L162.884 2.75635C162.884 2.56213 162.884 2.17368 163.172 1.97945C163.459 1.591 164.034 1.59101 164.896 1.78523L165.471 1.97945C166.333 2.17368 165.471 3.33902 165.184 3.53325ZM181.28 3.53325C180.13 3.33902 179.555 2.95058 179.555 2.75635C179.843 2.56213 181.567 1.97945 181.855 2.17367C182.429 2.3679 182.142 3.72747 181.28 3.53325ZM13.5093 63.9371C13.2219 63.5487 13.7967 63.3545 14.9464 63.5487L15.8088 63.7429C16.3836 63.9371 16.9585 64.3256 16.0962 64.714L15.8088 64.9083C15.5213 65.2967 13.7968 64.5198 13.5093 63.9371ZM609.263 7.80621C610.126 8.00043 609.838 8.38888 608.401 8.58311L607.539 8.77733C606.676 8.97155 606.101 8.5831 605.814 8.19465C605.527 8.00043 605.527 7.8062 605.814 7.61197C605.814 7.41775 608.688 7.22353 608.976 7.22353L609.263 7.80621ZM832.8 14.9925C832.8 14.7983 833.375 14.4098 833.95 14.4098C834.525 14.4098 835.387 14.6041 835.962 14.7983C836.537 15.1867 837.399 16.3521 837.399 16.5463H837.112H836.824C836.537 16.5463 835.1 16.1579 833.662 15.5752L832.8 14.9925ZM616.161 8.97156C616.161 9.16578 615.874 9.36 615.012 9.16578C614.437 8.97155 612.712 8.38888 612.425 8.19465L613 7.80621C613.287 7.61199 613 7.02931 614.15 7.22353L615.012 7.41775C615.587 7.8062 616.161 8.77733 616.161 8.97156ZM342.241 4.69859C341.378 5.08704 341.666 5.08704 342.241 4.69859C342.815 4.31014 344.54 3.53324 344.827 3.72747C345.115 4.11592 344.827 5.08704 343.678 5.28127L343.39 5.08705L342.241 4.69859ZM560.113 8.19465C560.113 8.38888 559.538 8.38888 558.963 8.00043C558.388 7.61198 558.388 6.44662 558.963 6.64084C559.825 6.83507 561.55 7.02931 561.55 7.22353C561.55 7.41776 561.55 7.61197 561.262 7.61197C560.975 7.41775 560.113 8.00043 560.113 8.19465ZM458.075 5.66972C459.799 5.66972 460.662 5.86395 460.087 6.44662L458.937 6.25239C457.787 6.05816 456.925 5.86395 456.063 5.66972C456.063 5.66972 456.063 5.28127 456.063 5.08705L456.638 4.89283L458.075 5.66972ZM781.638 72.483C781.35 72.0946 781.063 71.3176 781.35 70.9292L782.5 71.1234C782.787 71.1234 783.362 71.7061 783.362 71.3176C783.65 70.735 783.937 70.5407 784.799 70.9292H785.087C784.799 71.3176 783.937 71.9003 783.362 72.2888L782.787 72.483H781.638ZM242.502 3.33903C242.215 2.95058 242.215 2.75635 243.077 2.95057C243.939 3.1448 245.664 2.95058 245.951 3.14481V3.33903C245.951 3.72748 246.239 4.11593 245.377 4.11593H244.802C244.227 4.50438 242.79 3.72748 242.502 3.33903ZM77.3188 10.1369C78.1811 9.74846 78.1811 9.55422 77.3188 9.94267C76.4565 10.3311 73.8696 10.7196 73.5821 10.7196C73.2947 10.5253 73.5822 9.94267 75.0194 9.74845L75.5942 9.94267L77.3188 10.1369ZM223.819 4.11593C222.957 4.31015 222.382 4.50437 222.67 4.31015C222.67 4.11592 222.382 3.53325 222.382 3.53325C222.382 3.33902 222.67 2.95057 223.532 2.95057C224.394 2.75635 224.682 3.9217 223.819 4.11593ZM331.893 4.31015C332.755 4.31015 332.468 4.69859 331.606 5.28127L330.743 5.47549H330.456C329.306 4.89281 331.031 4.31015 331.893 4.31015ZM612.712 73.0657C613.575 73.0657 613.862 73.2599 613.862 73.6484C613.575 74.0368 612.425 74.6195 611.563 74.4252C610.7 74.231 611.85 73.0657 612.712 73.0657ZM363.223 5.08705C362.361 5.66972 361.211 5.28127 360.636 4.31015L362.361 3.92171L362.648 3.72747C363.51 4.11592 364.085 4.50437 364.085 4.50437L363.223 5.08705ZM643.467 18.2943C643.755 18.4886 643.755 18.6828 643.467 18.877C643.18 19.0712 641.455 19.4597 640.881 19.6539H640.306C640.018 19.6539 639.731 19.4597 639.731 19.4597C639.731 19.2655 639.731 19.0712 639.731 19.0712L640.593 18.6828C641.455 18.2943 642.893 18.1001 643.467 18.2943ZM818.141 18.6828C819.291 17.9059 820.728 17.9059 822.165 18.2943C820.441 19.4597 820.441 19.4597 818.141 18.6828Z" fill="#FED81D"/>
</svg>
