<svg width="48" height="48" viewBox="0 0 48 48" fill="none" xmlns="http://www.w3.org/2000/svg">
<path d="M34.1511 36.7188C34.435 37.1469 34.6027 37.6721 34.6027 38.2384C34.6027 39.7727 33.3597 41.0158 31.8254 41.0158C31.106 41.0158 30.4514 40.7422 29.9586 40.295L29.9615 40.2964C29.4231 39.8036 29.0863 39.099 29.0863 38.3149C29.0863 37.9781 29.1481 37.6574 29.2613 37.3602L29.2554 37.3793C29.2937 37.2984 29.3172 37.2028 29.3172 37.1013C29.3172 36.9145 29.2393 36.7453 29.1142 36.6262C28.314 35.6847 27.5137 34.6961 26.7605 33.7076C26.6649 33.5796 26.5149 33.4972 26.3442 33.4972C26.2913 33.4972 26.2398 33.5046 26.1927 33.5193L26.1971 33.5178C26.0147 33.534 25.8029 33.5428 25.5881 33.5428C25.2218 33.5428 24.8614 33.5164 24.5084 33.4664L24.5481 33.4708C24.3127 33.4708 24.1715 33.4708 23.9832 33.6591C23.0417 34.6947 22.0846 35.7303 21.1117 36.7659C20.9999 36.8527 20.9293 36.9866 20.9293 37.1381C20.9293 37.2072 20.944 37.2749 20.972 37.3337L20.9705 37.3308C21.0691 37.6015 21.1264 37.9133 21.1264 38.2399C21.1264 39.7477 19.904 40.9702 18.3962 40.9702C18.0711 40.9702 17.7577 40.9128 17.4679 40.8084L17.4871 40.8142C16.5088 40.4803 15.7983 39.6109 15.6997 38.565L15.6983 38.5547C15.688 38.465 15.6821 38.3605 15.6821 38.2561C15.6821 36.7483 16.9045 35.5258 18.4123 35.5258C18.686 35.5258 18.9522 35.5655 19.2008 35.642L19.1817 35.6376C19.2523 35.6715 19.3362 35.692 19.4244 35.692C19.6157 35.692 19.7848 35.5964 19.8878 35.4508L19.8893 35.4493C20.7837 34.4137 21.7251 33.3781 22.6666 32.3895C22.7814 32.2939 22.8534 32.1512 22.8534 31.9909C22.8534 31.9129 22.8358 31.8408 22.8064 31.7746L22.8078 31.7776C22.699 31.4966 22.6357 31.173 22.6357 30.8332C22.6357 29.9211 23.0917 29.115 23.7876 28.6295L23.7964 28.6237C24.2348 28.3221 24.7761 28.1412 25.3601 28.1412C26.8944 28.1412 28.1374 29.3842 28.1374 30.9185C28.1374 31.2436 28.0815 31.554 27.98 31.8438L27.9859 31.8247C27.9712 31.8776 27.9639 31.9379 27.9639 32.0012C27.9639 32.1453 28.008 32.2807 28.0815 32.3925L28.0801 32.3895C28.8803 33.4252 29.6806 34.4137 30.4808 35.4493C30.5661 35.5817 30.7118 35.6685 30.878 35.6685C30.9383 35.6685 30.9957 35.6567 31.0487 35.6362L31.0457 35.6376C31.4694 35.5435 31.9401 35.5905 32.3638 35.5435C32.5226 35.5405 32.6697 35.4876 32.7904 35.4008L32.7874 35.4023C34.8587 33.2055 36.9142 31.0087 38.9541 28.812C38.9717 28.7855 38.9879 28.7531 38.9997 28.7208L39.0011 28.7178C38.3421 27.588 38.3892 26.4583 39.2365 25.4227C39.7411 24.7989 40.506 24.4047 41.3636 24.4047C42.8715 24.4047 44.0939 25.6271 44.0939 27.135C44.0939 27.5027 44.0218 27.8528 43.8894 28.172L43.8968 28.1544C43.4952 29.2253 42.4802 29.9726 41.2901 29.9726C41.1474 29.9726 41.0062 29.9623 40.8679 29.9402L40.8826 29.9417C40.8399 29.9329 40.7914 29.927 40.7414 29.927C40.6016 29.927 40.4722 29.9667 40.3619 30.0373L40.3648 30.0359C38.2936 32.2483 36.2223 34.4608 34.1511 36.7203V36.7188ZM41.3063 26.3156C40.812 26.3156 40.4119 26.7157 40.4119 27.21C40.4119 27.7043 40.812 28.1044 41.3063 28.1044C41.8005 28.1044 42.2007 27.7043 42.2007 27.21C42.1757 26.726 41.7902 26.3406 41.3092 26.3156H41.3063ZM26.2898 30.9288C26.2898 30.436 25.8882 30.0359 25.3954 30.0359C24.9026 30.0359 24.501 30.436 24.501 30.9303C24.501 31.4084 24.8747 31.7982 25.3454 31.8232H25.3483H25.3498C25.8529 31.8232 26.2648 31.4275 26.2898 30.9317V30.9288ZM18.4285 37.3308C17.9357 37.3308 17.5356 37.7324 17.5356 38.2252C17.5356 38.718 17.9357 39.1196 18.43 39.1196C18.9081 39.1196 19.2979 38.7459 19.3229 38.2752V38.2723V38.2708C19.3229 37.7677 18.9272 37.3558 18.4315 37.3308H18.4285ZM32.7389 38.2723C32.7389 37.7795 32.3373 37.3793 31.8445 37.3793C31.3517 37.3793 30.9501 37.7795 30.9501 38.2737C30.9501 38.7518 31.3237 39.1417 31.7945 39.1667H31.7974H31.7989C32.302 39.1667 32.7139 38.771 32.7389 38.2752V38.2723ZM34.5748 16.5714C32.3623 16.5714 30.1028 16.5714 27.8903 16.5714C27.6505 16.5655 27.4255 16.514 27.2195 16.4257L27.2313 16.4301C26.9238 16.2977 26.7135 15.9991 26.7135 15.649C26.7135 15.6417 26.7135 15.6358 26.7135 15.6284V15.6299C26.7135 15.6196 26.7135 15.6078 26.7135 15.5961C26.7135 15.2121 26.9694 14.887 27.3195 14.784L27.3254 14.7826C27.4666 14.7502 27.6285 14.7311 27.7962 14.7311C27.8462 14.7311 27.8947 14.7326 27.9447 14.7355H27.9374H41.4004C42.0595 14.7355 42.5302 15.1121 42.4831 15.677C42.436 16.2418 42.0595 16.5714 41.4475 16.5714H34.5748ZM34.5748 20.2431H27.9845C27.9138 20.249 27.8315 20.2519 27.7491 20.2519C27.6667 20.2519 27.5843 20.249 27.5034 20.2431H27.5137C27.0062 20.2431 26.5958 19.8327 26.5958 19.3252C26.5958 18.8177 27.0062 18.4072 27.5137 18.4072C27.5843 18.4013 27.6667 18.3984 27.7491 18.3984C27.8315 18.3984 27.9138 18.4013 27.9948 18.4072H27.9845H41.3063C42.0594 18.4072 42.4831 18.7838 42.4831 19.3487C42.4831 19.9136 42.0594 20.2431 41.3063 20.2431H34.5748ZM29.3496 7.34494C27.7962 7.34494 26.2427 7.34494 24.6893 7.34494C24.6569 7.34789 24.6202 7.34936 24.5819 7.34936C24.3421 7.34936 24.1185 7.27728 23.9317 7.15371L23.9361 7.15665C23.7317 6.95217 23.6051 6.66973 23.6051 6.35787C23.6051 6.34022 23.6051 6.32404 23.6066 6.30638V6.30933C23.7125 6.0107 23.9111 5.76798 24.1656 5.60617L24.1715 5.60322C24.3157 5.53556 24.4834 5.49731 24.6614 5.49731C24.7217 5.49731 24.7805 5.50172 24.8379 5.51055L24.832 5.50908H33.9172C34.0113 5.50908 34.1055 5.50908 34.1996 5.50908C34.7189 5.50908 35.1411 5.93127 35.1411 6.45055C35.1146 6.94923 34.7042 7.34494 34.2011 7.34494H34.1996C33.4935 7.39202 32.7404 7.34494 32.0343 7.34494H29.3496ZM29.3496 11.0167C27.7962 11.0167 26.2427 11.0167 24.6893 11.0167C24.6569 11.0196 24.6202 11.0211 24.5819 11.0211C24.3421 11.0211 24.1185 10.949 23.9317 10.8254L23.9361 10.8284C23.7317 10.6239 23.6051 10.3415 23.6051 10.0296C23.6051 10.012 23.6051 9.99577 23.6066 9.97812V9.98106C23.7125 9.68244 23.9111 9.43972 24.1656 9.2779L24.1715 9.27496C24.3157 9.20729 24.4834 9.16904 24.6614 9.16904C24.7217 9.16904 24.7805 9.17346 24.8379 9.18228L24.832 9.18081C27.8447 9.18081 30.8731 9.18081 33.9172 9.18081C34.0113 9.18081 34.1055 9.18081 34.1996 9.18081C34.7189 9.18081 35.1411 9.603 35.1411 10.1223C35.1146 10.621 34.7042 11.0167 34.2011 11.0167H34.1996C33.4935 11.0638 32.7404 11.0167 32.0343 11.0167H29.3496ZM22.9947 15.5828C23.0197 15.1091 23.411 14.7355 23.8876 14.7355C24.3819 14.7355 24.782 15.1356 24.782 15.6299C24.782 16.1242 24.3819 16.5243 23.8891 16.5243C23.3904 16.4978 22.9947 16.0874 22.9947 15.5843V15.5828ZM23.9361 18.4072C24.4098 18.4322 24.7835 18.8235 24.7835 19.3002C24.7835 19.7944 24.3833 20.1946 23.8891 20.1946C23.3948 20.1946 22.9947 19.7944 22.9947 19.3016C23.0211 18.8029 23.4316 18.4072 23.9347 18.4072H23.9361ZM11.9324 14.6884H19.2758C18.8228 10.8387 15.788 7.82009 11.9692 7.39496L11.9324 7.39202V14.6884ZM10.0494 16.5714V7.43909C5.9202 7.95102 2.75597 11.4389 2.75597 15.6652C2.75597 20.2402 6.46596 23.9501 11.0409 23.9501C15.2967 23.9501 18.8036 20.7403 19.2729 16.6096L19.2758 16.5714H10.0494ZM10.7555 22.079C7.40007 21.9039 4.73306 19.1869 4.63597 15.827V15.8182C4.63597 15.2533 4.87134 14.8767 5.34208 14.7355C5.95403 14.5943 6.42477 15.065 6.47184 15.7711C6.50715 16.8538 6.91022 17.835 7.56042 18.6029L7.55453 18.5955C8.35184 19.5296 9.49632 20.146 10.7864 20.2416L10.8026 20.2431C11.1204 20.2637 11.4102 20.3667 11.6558 20.53L11.6499 20.5255C11.8426 20.6726 11.9662 20.9036 11.9662 21.1625C11.9662 21.2905 11.9368 21.4111 11.8824 21.5185L11.8838 21.5141C11.6955 21.8907 11.366 22.079 10.7541 22.079H10.7555ZM47.5671 9.32203C44.6171 6.34071 41.6672 3.37508 38.7172 0.425133C38.4613 0.161815 38.1023 0 37.7066 0C37.6816 0 37.6551 0 37.6301 0.00147105H37.6331C30.0699 0.00147105 22.4911 0.00147105 14.8965 0.00147105C13.1548 0.00147105 11.978 1.17831 11.978 2.9671C11.978 3.76736 11.978 4.61468 11.978 5.50908H11.9309V14.6884H12.0251V7.48617C15.179 7.53324 18.9449 10.6872 19.2273 14.6884H21.1102C20.7028 10.6548 17.9813 7.34936 14.3081 6.09455L14.2375 6.07396C13.9904 6.0313 13.8035 5.81947 13.8035 5.56351C13.8035 5.5282 13.8065 5.49289 13.8138 5.45906V5.462C13.8138 4.61468 13.8138 3.76736 13.8138 2.9671C13.8138 2.21393 14.1434 1.83734 14.8965 1.83734H36.7387C36.7857 1.83734 36.8799 1.83734 36.974 1.88441V2.77881C36.974 5.13249 36.974 7.48617 36.974 9.83984C36.974 10.7342 37.3036 11.0167 38.1979 11.0167H46.1534V43.9211C46.1534 44.9567 45.8709 45.2392 44.8824 45.2392H15.1319C14.0963 45.2392 13.8138 44.9567 13.8138 43.9682C13.8138 37.9114 13.8138 31.8703 13.8138 25.8449C13.808 25.814 13.8035 25.7801 13.8035 25.7433C13.8035 25.4874 13.9904 25.2741 14.2346 25.2329H14.2375C17.9946 23.9516 20.7219 20.6241 21.1073 16.6126L21.1102 16.5714H19.2273C18.9919 19.9607 15.9322 23.8207 11.1307 23.9148C11.1159 23.9148 11.0998 23.9148 11.0836 23.9148C6.50862 23.9148 2.79863 20.2049 2.79863 15.6299C2.79863 10.8755 6.61159 7.72153 10.048 7.48617V5.60322C5.39504 6.0769 1.70417 9.65449 1.0628 14.2118L1.05691 14.2648C1.01572 14.6325 0.992188 15.0591 0.992188 15.4916C0.992188 16.7861 1.20549 18.0321 1.59973 19.1942L1.57619 19.1133C3.02223 23.0204 6.71457 25.7551 11.0468 25.7551C11.1424 25.7551 11.238 25.7536 11.3337 25.7507H11.3189C11.5072 25.7507 11.6955 25.7507 11.978 25.7507V43.5916C11.978 45.6628 12.4016 46.3218 14.2846 47.075H45.7297C46.1343 46.9264 46.4755 46.769 46.8021 46.5852L46.7653 46.6043C47.5082 46.1085 47.9922 45.273 47.9922 44.3256C47.9922 44.283 47.9907 44.2403 47.9892 44.1977V44.2035C47.9892 32.9059 47.9892 21.6082 47.9892 10.3106C47.9892 9.92222 47.8274 9.57064 47.5656 9.32203H47.5671ZM38.8584 9.13374V3.24955C40.8355 5.22663 42.7656 7.20372 44.7426 9.13374H38.8584Z" fill="#FF8934"/>
</svg>
