<svg width="44" height="42" viewBox="0 0 44 42" fill="none" xmlns="http://www.w3.org/2000/svg">
<path d="M44.0001 9.93143C43.8744 10.4343 43.8744 10.9371 43.7486 11.3143C42.7429 15.3371 39.0972 17.9771 34.9486 18.1029C31.3029 18.1029 27.6572 18.1029 24.0115 18.1029C23.8858 18.1029 23.6344 18.1029 23.5086 18.1029C23.5086 18.9829 23.5086 19.8629 23.5086 20.8686C24.1372 20.9943 24.7658 20.9943 25.3944 21.12C27.0286 21.3714 28.7886 21.4971 30.4229 21.7486C32.4344 22 33.8172 23.6343 33.8172 25.6457C33.8172 28.9143 33.8172 32.1829 33.8172 35.5771C33.8172 36.96 33.8172 38.4686 33.8172 39.8514C33.8172 40.7314 33.3144 41.36 32.4344 41.36C27.4058 41.36 22.2515 41.36 17.2229 41.36C16.3429 41.36 15.8401 40.8571 15.8401 39.8514C15.8401 38.4686 15.8401 37.2114 15.8401 35.8286C15.8401 35.5771 15.7144 35.3257 15.5886 35.3257C13.8286 33.8171 12.0686 32.4343 10.3086 30.9257C8.92578 29.7943 8.54864 28.16 9.17721 26.5257C9.80578 25.0171 11.5658 24.0114 13.3258 24.2629C14.0801 24.3886 14.8344 24.64 15.4629 25.1429C15.5886 25.2686 15.5886 25.2686 15.7144 25.3943C15.7144 23.0057 15.7144 20.6171 15.7144 18.1029C15.5886 18.1029 15.4629 18.1029 15.2115 18.1029C13.2001 18.1029 11.1886 18.1029 9.30293 18.1029C4.77721 18.1029 1.00578 15.0857 0.251498 10.56C-0.754216 5.65714 2.76578 0.88 7.54293 0.125714C8.04578 0 8.67435 0 9.17721 0C17.7258 0 26.1486 0 34.6972 0C39.4744 0 43.1201 3.14286 43.8744 7.92C43.8744 8.04571 43.8744 8.04571 44.0001 8.17143C44.0001 8.8 44.0001 9.30286 44.0001 9.93143ZM23.3829 15.4629C23.5086 15.4629 23.5086 15.4629 23.6344 15.4629C27.5315 15.4629 31.4286 15.4629 35.3258 15.4629C38.5944 15.4629 41.3601 12.5714 41.4858 9.30286C41.6115 5.53143 38.7201 2.51429 34.9486 2.51429C26.4001 2.51429 17.7258 2.51429 9.17721 2.51429C8.67435 2.51429 8.1715 2.51429 7.66864 2.64C4.52578 3.39429 2.38864 6.41143 2.64007 9.55429C3.01721 12.9486 5.65721 15.4629 9.0515 15.4629C11.0629 15.4629 13.2001 15.4629 15.2115 15.4629C15.3372 15.4629 15.4629 15.4629 15.5886 15.4629C15.5886 15.3371 15.5886 15.0857 15.5886 14.96C15.5886 13.8286 15.5886 12.6971 15.5886 11.44C15.7144 9.05143 17.9772 7.29143 20.2401 7.79428C22.0001 8.17143 23.2572 9.68 23.2572 11.5657C23.3829 12.9486 23.3829 14.2057 23.3829 15.4629ZM31.0515 33.5657C31.0515 33.44 31.0515 33.44 31.0515 33.3143C31.0515 30.6743 31.0515 28.16 31.0515 25.52C31.0515 24.7657 30.5486 24.2629 29.7944 24.2629C27.2801 23.8857 24.6401 23.6343 22.1258 23.2571C21.1201 23.1314 20.7429 22.6286 20.7429 21.7486C20.7429 19.4857 20.7429 17.2229 20.7429 14.96C20.7429 13.8286 20.7429 12.8229 20.7429 11.6914C20.7429 10.8114 19.9886 10.1829 19.1086 10.4343C18.4801 10.56 18.2286 11.0629 18.2286 11.8171C18.2286 17.0971 18.2286 22.5029 18.2286 27.7829C18.2286 28.4114 18.1029 28.9143 17.4744 29.2914C16.8458 29.5429 16.3429 29.4171 15.8401 28.9143C15.0858 28.2857 14.3315 27.6571 13.5772 27.0286C12.9486 26.5257 11.9429 26.6514 11.4401 27.28C10.9372 27.7829 11.1886 28.4114 11.9429 29.04C13.7029 30.4229 15.3372 31.9314 17.0972 33.3143C17.3486 33.44 17.6001 33.5657 17.8515 33.5657C22.1258 33.5657 26.4001 33.5657 30.5486 33.5657C30.6744 33.5657 30.9258 33.5657 31.0515 33.5657ZM31.0515 38.72C31.0515 37.84 31.0515 37.0857 31.0515 36.2057C26.7772 36.2057 22.5029 36.2057 18.2286 36.2057C18.2286 37.0857 18.2286 37.84 18.2286 38.72C22.5029 38.72 26.7772 38.72 31.0515 38.72Z" fill="#27AE60"/>
<path d="M29.6689 9.80534C30.046 9.4282 30.4232 9.05106 30.6746 8.67391C31.6803 7.6682 32.8117 6.53677 33.8175 5.53106C34.3203 5.0282 35.2003 4.90248 35.7032 5.53106C36.206 6.03391 36.206 6.7882 35.7032 7.41677C34.0689 9.05106 32.3089 10.8111 30.6746 12.4453C30.046 13.0739 29.2917 13.0739 28.7889 12.4453C27.9089 11.5653 27.1546 10.8111 26.2746 9.93106C25.7717 9.30248 25.7717 8.5482 26.2746 8.04534C26.7775 7.54248 27.5317 7.54248 28.1603 8.04534C28.6632 8.67391 29.166 9.17677 29.6689 9.80534Z" fill="#27AE60"/>
</svg>
