<svg width="47" height="38" viewBox="0 0 47 38" fill="none" xmlns="http://www.w3.org/2000/svg">
<path d="M0 10.7C0.8 9.4 1.5 8.1 2.3 6.8C3.3 5 4.4 3.2 5.4 1.4C5.9 0.4 6.6 0 7.7 0C18.1 0 28.5 0 39 0C40.1 0 40.8 0.4 41.3 1.4C43 4.3 44.6 7.3 46.3 10.2C46.7 10.9 46.6 11.5 46.5 12.2C46.2 13.8 45.3 15.1 44 16.1C43.9 16.2 43.7 16.4 43.7 16.6C43.7 23.2 43.7 29.7 43.7 36.3C43.7 36.4 43.7 36.4 43.7 36.6C43.9 36.6 44.2 36.6 44.4 36.6C44.8 36.6 45.1 36.9 45.1 37.3C45.1 37.7 44.8 38 44.4 38C44.3 38 44.1 38 44 38C30.2 38 16.3 38 2.5 38C2.3 38 2.2 38 2 38C1.6 37.9 1.3 37.6 1.4 37.3C1.4 36.9 1.7 36.7 2.1 36.7C2.3 36.7 2.6 36.7 2.9 36.7C2.9 36.5 2.9 36.4 2.9 36.2C2.9 29.7 2.9 23.3 2.9 16.8C2.9 16.5 2.8 16.3 2.6 16.1C1.2 15.1 0.4 13.7 0.1 12C0.1 11.9 0 11.8 0 11.7C0 11.3 0 11 0 10.7ZM1.9 10.2C2.5 10.2 3 10.2 3.6 10.2C4.1 10.2 4.5 10.6 4.3 11.1C4.2 11.4 3.9 11.6 3.6 11.6C2.9 11.6 2.2 11.6 1.6 11.6C1.6 13.8 4 15.9 6.5 15.9C9 15.9 11.4 13.7 11.3 11.6C10.6 11.6 9.9 11.6 9.2 11.6C8.3 11.6 7.5 11.6 6.6 11.6C6.2 11.6 5.9 11.3 5.9 10.9C5.9 10.5 6.1 10.3 6.5 10.2C6.7 10.2 6.8 10.2 7 10.2C11.6 10.2 16.2 10.2 20.8 10.2C27.1 10.2 33.5 10.2 39.8 10.2C40.5 10.2 40.8 10.4 40.8 10.9C40.8 11.4 40.5 11.6 39.8 11.6C38.6 11.6 37.5 11.6 36.3 11.6C36 11.6 35.7 11.6 35.5 11.6C35.5 13.9 38 15.9 40.4 15.9C42.9 15.9 45.3 13.7 45.2 11.6C45 11.6 44.9 11.6 44.7 11.6C44.1 11.6 43.6 11.6 43 11.6C42.8 11.6 42.5 11.3 42.4 11.1C42.3 10.9 42.5 10.6 42.6 10.4C42.7 10.3 43 10.3 43.2 10.2C43.7 10.2 44.2 10.2 44.7 10.2C44.6 10 44.5 9.9 44.5 9.8C43 7.2 41.5 4.6 40.1 2C39.8 1.5 39.5 1.4 39 1.4C28.6 1.4 18.1 1.4 7.7 1.4C7.1 1.4 6.8 1.6 6.6 2C5.1 4.6 3.6 7.2 2.1 9.8C2.1 9.9 2 10 1.9 10.2ZM4.3 36.5C12.8 36.5 21.4 36.5 29.9 36.5C29.9 36.3 29.9 36.1 29.9 35.9C29.9 30.6 29.9 25.3 29.9 20C29.9 19.2 30.1 19 30.9 19C33.6 19 36.3 19 39 19C39.9 19 40 19.2 40 20.1C40 25.4 40 30.7 40 36C40 36.2 40 36.4 40 36.5C40.8 36.5 41.5 36.5 42.3 36.5C42.3 30 42.3 23.5 42.3 16.9C40.8 17.3 39.3 17.3 37.9 16.8C36.4 16.2 35.4 15.2 34.6 13.8C33.3 16 31.5 17.2 29 17.2C26.5 17.2 24.6 16 23.3 13.8C22 16 20.2 17.2 17.6 17.2C15.1 17.2 13.2 16 12 13.8C10.2 16.7 7.6 17.7 4.3 16.9C4.3 23.5 4.3 30 4.3 36.5ZM31.3 32.8C33.8 32.8 36.2 32.8 38.6 32.8C38.6 28.6 38.6 24.5 38.6 20.4C36.1 20.4 33.7 20.4 31.3 20.4C31.3 24.6 31.3 28.7 31.3 32.8ZM24.1 11.6C24.4 14.1 26.7 16 29.4 15.9C31.7 15.8 33.9 13.7 33.9 11.6C30.6 11.6 27.4 11.6 24.1 11.6ZM22.5 11.6C19.2 11.6 16 11.6 12.7 11.6C12.8 13.9 15.1 15.9 17.6 15.9C20.2 15.9 22.4 13.9 22.5 11.6ZM38.7 36.5C38.7 35.7 38.7 35 38.7 34.3C36.2 34.3 33.8 34.3 31.4 34.3C31.4 35.1 31.4 35.8 31.4 36.5C33.8 36.5 36.2 36.5 38.7 36.5Z" fill="#FF50A3"/>
<path d="M17.0996 19C20.2996 19 23.3996 19 26.5996 19C27.4996 19 27.6996 19.2 27.6996 20.1C27.6996 24.5 27.6996 28.9 27.6996 33.3C27.6996 34.1 27.4996 34.3 26.6996 34.3C20.2996 34.3 13.9996 34.3 7.59961 34.3C6.79961 34.3 6.59961 34.1 6.59961 33.3C6.59961 28.9 6.59961 24.4 6.59961 20C6.59961 19.3 6.79961 19 7.49961 19C10.6996 19 13.8996 19 17.0996 19ZM7.99961 20.4C7.99961 24.6 7.99961 28.7 7.99961 32.9C14.0996 32.9 20.1996 32.9 26.2996 32.9C26.2996 32.7 26.2996 32.5 26.2996 32.4C26.2996 28.6 26.2996 24.8 26.2996 21C26.2996 20.5 26.1996 20.4 25.6996 20.4C19.9996 20.4 14.1996 20.4 8.49961 20.4C8.29961 20.4 8.19961 20.4 7.99961 20.4Z" fill="#FF50A3"/>
<path d="M0 10.7C0.8 9.4 1.5 8.1 2.3 6.8C3.3 5 4.4 3.2 5.4 1.4C5.9 0.4 6.6 0 7.7 0C18.1 0 28.5 0 39 0C40.1 0 40.8 0.4 41.3 1.4C43 4.3 44.6 7.3 46.3 10.2C46.7 10.9 46.6 11.5 46.5 12.2C46.2 13.8 45.3 15.1 44 16.1C43.9 16.2 43.7 16.4 43.7 16.6C43.7 23.2 43.7 29.7 43.7 36.3C43.7 36.4 43.7 36.4 43.7 36.6C43.9 36.6 44.2 36.6 44.4 36.6C44.8 36.6 45.1 36.9 45.1 37.3C45.1 37.7 44.8 38 44.4 38C44.3 38 44.1 38 44 38C30.2 38 16.3 38 2.5 38C2.3 38 2.2 38 2 38C1.6 37.9 1.3 37.6 1.4 37.3C1.4 36.9 1.7 36.7 2.1 36.7C2.3 36.7 2.6 36.7 2.9 36.7C2.9 36.5 2.9 36.4 2.9 36.2C2.9 29.7 2.9 23.3 2.9 16.8C2.9 16.5 2.8 16.3 2.6 16.1C1.2 15.1 0.4 13.7 0.1 12C0.1 11.9 0 11.8 0 11.7C0 11.3 0 11 0 10.7ZM1.9 10.2C2.5 10.2 3 10.2 3.6 10.2C4.1 10.2 4.5 10.6 4.3 11.1C4.2 11.4 3.9 11.6 3.6 11.6C2.9 11.6 2.2 11.6 1.6 11.6C1.6 13.8 4 15.9 6.5 15.9C9 15.9 11.4 13.7 11.3 11.6C10.6 11.6 9.9 11.6 9.2 11.6C8.3 11.6 7.5 11.6 6.6 11.6C6.2 11.6 5.9 11.3 5.9 10.9C5.9 10.5 6.1 10.3 6.5 10.2C6.7 10.2 6.8 10.2 7 10.2C11.6 10.2 16.2 10.2 20.8 10.2C27.1 10.2 33.5 10.2 39.8 10.2C40.5 10.2 40.8 10.4 40.8 10.9C40.8 11.4 40.5 11.6 39.8 11.6C38.6 11.6 37.5 11.6 36.3 11.6C36 11.6 35.7 11.6 35.5 11.6C35.5 13.9 38 15.9 40.4 15.9C42.9 15.9 45.3 13.7 45.2 11.6C45 11.6 44.9 11.6 44.7 11.6C44.1 11.6 43.6 11.6 43 11.6C42.8 11.6 42.5 11.3 42.4 11.1C42.3 10.9 42.5 10.6 42.6 10.4C42.7 10.3 43 10.3 43.2 10.2C43.7 10.2 44.2 10.2 44.7 10.2C44.6 10 44.5 9.9 44.5 9.8C43 7.2 41.5 4.6 40.1 2C39.8 1.5 39.5 1.4 39 1.4C28.6 1.4 18.1 1.4 7.7 1.4C7.1 1.4 6.8 1.6 6.6 2C5.1 4.6 3.6 7.2 2.1 9.8C2.1 9.9 2 10 1.9 10.2ZM4.3 36.5C12.8 36.5 21.4 36.5 29.9 36.5C29.9 36.3 29.9 36.1 29.9 35.9C29.9 30.6 29.9 25.3 29.9 20C29.9 19.2 30.1 19 30.9 19C33.6 19 36.3 19 39 19C39.9 19 40 19.2 40 20.1C40 25.4 40 30.7 40 36C40 36.2 40 36.4 40 36.5C40.8 36.5 41.5 36.5 42.3 36.5C42.3 30 42.3 23.5 42.3 16.9C40.8 17.3 39.3 17.3 37.9 16.8C36.4 16.2 35.4 15.2 34.6 13.8C33.3 16 31.5 17.2 29 17.2C26.5 17.2 24.6 16 23.3 13.8C22 16 20.2 17.2 17.6 17.2C15.1 17.2 13.2 16 12 13.8C10.2 16.7 7.6 17.7 4.3 16.9C4.3 23.5 4.3 30 4.3 36.5ZM31.3 32.8C33.8 32.8 36.2 32.8 38.6 32.8C38.6 28.6 38.6 24.5 38.6 20.4C36.1 20.4 33.7 20.4 31.3 20.4C31.3 24.6 31.3 28.7 31.3 32.8ZM24.1 11.6C24.4 14.1 26.7 16 29.4 15.9C31.7 15.8 33.9 13.7 33.9 11.6C30.6 11.6 27.4 11.6 24.1 11.6ZM22.5 11.6C19.2 11.6 16 11.6 12.7 11.6C12.8 13.9 15.1 15.9 17.6 15.9C20.2 15.9 22.4 13.9 22.5 11.6ZM38.7 36.5C38.7 35.7 38.7 35 38.7 34.3C36.2 34.3 33.8 34.3 31.4 34.3C31.4 35.1 31.4 35.8 31.4 36.5C33.8 36.5 36.2 36.5 38.7 36.5Z" fill="#FF50A3"/>
<path d="M17.0996 19C20.2996 19 23.3996 19 26.5996 19C27.4996 19 27.6996 19.2 27.6996 20.1C27.6996 24.5 27.6996 28.9 27.6996 33.3C27.6996 34.1 27.4996 34.3 26.6996 34.3C20.2996 34.3 13.9996 34.3 7.59961 34.3C6.79961 34.3 6.59961 34.1 6.59961 33.3C6.59961 28.9 6.59961 24.4 6.59961 20C6.59961 19.3 6.79961 19 7.49961 19C10.6996 19 13.8996 19 17.0996 19ZM7.99961 20.4C7.99961 24.6 7.99961 28.7 7.99961 32.9C14.0996 32.9 20.1996 32.9 26.2996 32.9C26.2996 32.7 26.2996 32.5 26.2996 32.4C26.2996 28.6 26.2996 24.8 26.2996 21C26.2996 20.5 26.1996 20.4 25.6996 20.4C19.9996 20.4 14.1996 20.4 8.49961 20.4C8.29961 20.4 8.19961 20.4 7.99961 20.4Z" fill="#FF50A3"/>
</svg>
