<svg width="45" height="46" viewBox="0 0 45 46" fill="none" xmlns="http://www.w3.org/2000/svg">
<path d="M21.1363 45.0983C20.3334 44.9913 19.5305 44.9377 18.7276 44.8307C18.5135 44.8307 18.3529 44.7771 18.1388 44.7236C17.7106 44.563 17.4429 44.1884 17.55 43.7601C17.6035 43.3319 17.9782 43.0643 18.4064 43.0643C18.6741 43.0643 18.9417 43.1178 19.1558 43.1178C29.4331 44.6166 39.1216 38.1933 41.7979 28.1301C43.3502 22.1885 41.9585 15.337 38.2116 10.6801C37.944 10.7337 37.6228 10.8407 37.3016 10.8942C35.5887 11.2154 33.8223 10.0378 33.5012 8.2714C33.18 6.50499 34.3576 4.79211 36.124 4.47095C37.944 4.14978 39.6568 5.38091 39.9245 7.14732C40.0315 7.84318 39.9245 8.53903 39.6033 9.12784C39.4427 9.39547 39.4962 9.50253 39.6568 9.71664C41.3697 12.0183 42.6544 14.5341 43.3502 17.3175C43.6714 18.6557 43.832 20.0474 44.0461 21.4392C44.0996 21.5997 44.0996 21.7603 44.0996 21.9209C44.0996 22.6703 44.0996 23.4732 44.0996 24.2226C44.0996 24.3832 44.0461 24.5438 44.0461 24.7043C43.939 25.5073 43.8855 26.3102 43.7249 27.1131C42.8685 31.5023 40.888 35.3028 37.7298 38.4609C34.4111 41.7796 30.4501 43.8672 25.8467 44.6701C24.9903 44.8307 24.1874 44.8842 23.3309 44.9913C22.6351 45.0983 21.8857 45.0983 21.1363 45.0983ZM36.7128 9.23489C37.5693 9.23489 38.2651 8.53903 38.2651 7.6826C38.2651 6.82616 37.5693 6.1303 36.7128 6.1303C35.8564 6.1303 35.1605 6.82616 35.1605 7.6826C35.1605 8.53903 35.8564 9.23489 36.7128 9.23489Z" fill="#A37CFC"/>
<path d="M21.2431 33.0543C20.4402 33.0543 19.6372 33.1614 18.8879 33.0543C14.6592 32.5191 11.8222 28.451 12.6787 24.2758C12.8393 23.4194 13.2139 22.8841 14.1239 22.8306C14.231 22.8306 14.338 22.7771 14.3916 22.7771C14.3916 22.7771 14.3916 22.7771 14.3916 22.7235C14.0704 22.2418 13.6957 21.76 13.3745 21.2248C12.3575 19.4584 12.2505 17.5849 12.7857 15.6579C12.8928 15.2832 13.1069 15.0691 13.5351 14.962C14.8198 14.5873 16.1044 14.5873 17.3891 14.9085C17.5497 14.962 17.7638 15.0156 17.9779 15.0691C17.9244 14.7479 17.8708 14.5338 17.8708 14.2662C17.4426 11.2151 18.8343 8.37816 21.5107 6.82586C21.9389 6.55823 22.3136 6.61175 22.7418 6.82586C25.4717 8.37816 26.917 11.4828 26.3282 14.6409C26.3282 14.7479 26.2747 14.9085 26.2747 15.0156C27.024 14.9085 27.7734 14.7479 28.5228 14.7479C29.2187 14.7479 29.9681 14.9085 30.6639 15.0156C31.0921 15.0691 31.3062 15.3903 31.4133 15.765C32.0021 18.1737 31.6274 20.4218 30.0216 22.4024C29.9145 22.5094 29.861 22.6165 29.7004 22.7771C29.9681 22.8306 30.2357 22.8841 30.5033 22.9376C31.0386 23.0447 31.3062 23.3659 31.4668 23.8476C32.6444 28.0763 29.7004 32.5191 25.3647 33.0543C24.6153 33.1614 23.8124 33.0543 22.956 33.0543C22.956 33.322 22.956 33.5361 22.956 33.8037C22.956 35.3025 22.956 36.8013 22.956 38.3C22.956 38.4071 22.956 38.5677 22.956 38.6747C22.9024 39.1565 22.5277 39.5312 22.046 39.4776C21.5642 39.4241 21.2431 39.1029 21.2431 38.5677C21.2431 37.6577 21.2431 36.7477 21.2431 35.8378C21.2431 34.9278 21.2431 34.0178 21.2431 33.0543ZM24.6688 13.4633C24.6153 11.2686 23.8659 9.76988 22.3671 8.6458C22.153 8.48522 21.9925 8.48522 21.7783 8.6458C18.7273 10.8404 18.7273 15.5508 21.7783 17.799C22.046 17.9596 22.2066 17.9596 22.4207 17.799C23.9194 16.6214 24.6688 15.0691 24.6688 13.4633ZM29.9681 17.7455C29.9681 17.4778 29.9145 17.2102 29.9145 16.9426C29.9145 16.6214 29.7539 16.5143 29.4328 16.4608C25.7394 15.9255 22.4742 19.2442 23.063 22.9376C23.1165 23.2053 23.1701 23.3123 23.4912 23.3659C26.8099 23.8476 29.9681 21.1712 29.9681 17.7455ZM14.231 25.7211C14.231 29.1468 17.3891 31.8767 20.7613 31.3415C21.029 31.2879 21.136 31.1809 21.1895 30.9132C21.7248 27.4875 19.0484 24.3829 15.5692 24.4364C14.1239 24.4364 14.2845 24.3294 14.231 25.7211ZM14.231 17.7455C14.231 21.2248 17.3356 23.9011 20.7613 23.3123C21.029 23.2588 21.136 23.2053 21.1895 22.9376C21.7248 19.5119 19.102 16.4073 15.6227 16.4073C14.1239 16.4073 14.2845 16.3002 14.231 17.7455ZM28.6299 24.3829C25.1506 24.3829 22.4742 27.4339 23.0095 30.9132C23.063 31.1809 23.1165 31.2879 23.3842 31.3415C26.7564 31.9303 29.9681 29.2004 29.9145 25.7211C29.9145 24.3294 30.0216 24.4899 28.6299 24.3829Z" fill="#A37CFC"/>
<path d="M5.98763 35.4097C7.8611 34.6068 9.68103 35.4632 10.3769 36.962C10.9122 38.1931 10.8051 39.3707 10.0022 40.3877C9.14576 41.4583 7.96815 41.833 6.68349 41.5118C5.3453 41.1906 4.54239 40.2807 4.27475 38.9425C4.11417 38.2466 4.22123 37.5508 4.59592 36.9084C4.70297 36.6408 4.70297 36.5337 4.54239 36.3196C3.2042 34.5532 2.18718 32.6798 1.4378 30.6457C0.367247 27.7017 -0.0609731 24.6506 0.153137 21.4925C0.420774 17.3174 1.81249 13.4634 4.32828 10.0912C7.75404 5.32721 12.4645 2.3832 18.299 1.31265C21.0289 0.830904 23.7588 0.884432 26.4887 1.41971C27.1845 1.52676 27.5057 2.06204 27.2916 2.59731C27.131 3.02553 26.7563 3.18611 26.3281 3.13259C25.7393 3.07906 25.097 2.91848 24.5082 2.86495C19.423 2.27615 14.7661 3.40022 10.591 6.29071C5.72 9.66294 2.82951 14.3198 1.97307 20.1543C1.17016 25.7212 2.56187 30.7528 5.88058 35.3026C5.93411 35.3561 5.93411 35.3561 5.98763 35.4097ZM7.43288 36.8549C6.57644 36.8549 5.88058 37.5508 5.88058 38.4072C5.88058 39.2636 6.57644 39.9595 7.43288 39.9595C8.28932 39.9595 8.98517 39.2636 8.98517 38.4607C8.98517 37.5508 8.34284 36.8549 7.43288 36.8549Z" fill="#A37CFC"/>
<path d="M30.0215 4.25719C29.5398 4.25719 29.1116 3.82897 29.1116 3.40075C29.1116 2.919 29.4863 2.54431 29.968 2.54431C30.4498 2.54431 30.8245 2.919 30.8245 3.40075C30.878 3.82897 30.5033 4.25719 30.0215 4.25719Z" fill="#A37CFC"/>
<path d="M14.2313 43.5457C13.7496 43.5457 13.3749 43.171 13.3749 42.7428C13.3749 42.2611 13.7496 41.8328 14.2313 41.8864C14.7131 41.8864 15.0878 42.2611 15.0878 42.7428C15.0342 43.171 14.7131 43.5457 14.2313 43.5457Z" fill="#A37CFC"/>
</svg>
