<svg width="46" height="44" viewBox="0 0 46 44" fill="none" xmlns="http://www.w3.org/2000/svg">
<path d="M1.00022 25.9599C1.17622 25.6079 1.52822 25.5199 1.88022 25.5199C4.25622 25.5199 6.63222 25.5199 9.00822 25.5199C9.88822 25.5199 9.97622 25.6959 10.0642 26.4879C10.0642 26.5759 10.0642 26.6639 10.0642 26.7519C10.5922 26.7519 11.1202 26.7519 11.6482 26.7519C12.4402 26.7519 12.6162 26.9279 12.6162 27.7199C12.6162 27.8079 12.6162 27.8959 12.6162 27.9839C13.4082 27.8959 14.2882 27.8079 15.0802 27.8079C16.0482 27.8959 16.8402 27.5439 17.6322 27.0159C20.0962 25.3439 22.4722 23.7599 24.9362 22.1759C25.2002 21.9999 25.2882 21.8239 25.2882 21.4719C25.2882 18.6559 25.2882 15.8399 25.2882 13.0239C25.2882 12.8479 25.2882 12.6719 25.2882 12.4959C24.2322 12.3199 23.3522 11.9679 22.6482 11.2639C21.6802 10.2959 21.0642 9.15192 21.0642 7.83192C21.0642 6.51192 20.9762 5.19192 21.1522 3.95992C21.5922 1.49592 23.9682 -0.176079 26.4322 0.0879209C28.9842 0.351921 30.9202 2.46392 30.9202 5.01592C30.9202 6.07192 31.0082 7.12792 30.9202 8.18392C30.7442 10.2959 29.1602 12.0559 27.0482 12.4959C26.9602 12.4959 26.8722 12.5839 26.6962 12.5839C26.6962 14.5199 26.6962 16.5439 26.6962 18.4799C27.3122 18.2159 27.3122 18.2159 27.2242 17.5999C26.9602 16.3679 27.4882 14.8719 28.7202 14.2559C30.5682 13.2879 32.5042 12.5839 34.7042 12.6719C36.0242 12.7599 36.6402 13.7279 36.2002 14.9599C35.8482 16.0159 35.1442 16.8959 34.3522 17.6879C33.7362 18.3039 33.1202 18.9199 32.5042 19.4479C31.1842 20.4159 29.6002 20.4159 28.3682 19.3599C28.2802 19.2719 28.1922 19.2719 28.1922 19.1839C27.7522 19.4479 27.4002 19.7119 26.9602 19.9759C26.8722 20.0639 26.7842 20.1519 26.7842 20.2399C26.7842 20.3279 26.7842 20.3279 26.7842 20.4159C26.7842 20.9439 26.6082 21.4719 26.8722 21.9119C27.0482 22.2639 27.6642 22.5279 28.1042 22.7919C31.3602 24.9919 34.7042 27.1039 37.9602 29.3039C38.2242 29.4799 38.4002 29.4799 38.6642 29.3919C39.5442 28.9519 40.4242 28.5119 41.3922 28.2479C42.6242 27.8959 43.5922 28.4239 44.3842 29.3039C45.1762 30.2719 45.2642 31.4159 44.7362 32.5599C44.3842 33.2639 43.9442 33.8799 43.2402 34.4079C39.8962 37.0479 36.4642 39.5999 32.7682 41.7119C31.8002 42.2399 30.8322 42.6799 29.8642 43.1199C28.5442 43.7359 27.1362 43.7359 25.7282 43.5599C21.4162 43.0319 17.1922 42.1519 12.8802 41.2719C12.7922 41.2719 12.7042 41.2719 12.7042 41.2719L12.6162 41.3599C12.5282 42.3279 12.4402 42.3279 11.4722 42.3279C11.0322 42.3279 10.5042 42.3279 9.97622 42.3279C9.97622 42.5919 9.97622 42.6799 9.97622 42.8559C9.97622 43.3839 9.71222 43.6479 9.18422 43.6479C7.95222 43.6479 6.80822 43.6479 5.57622 43.6479C4.34422 43.6479 3.11222 43.6479 1.88022 43.6479C1.44022 43.6479 1.17622 43.5599 0.912219 43.2079C0.912219 43.0319 0.912219 42.9439 0.912219 42.7679C1.08822 42.4159 1.44022 42.3279 1.79222 42.3279C2.76022 42.3279 3.72822 42.3279 4.69622 42.3279C5.13622 42.3279 5.57622 42.3279 6.01622 42.3279C6.10422 41.7999 5.92822 41.0959 6.63222 41.0959C7.51222 41.0079 7.24822 41.8879 7.33622 42.3279C7.77622 42.3279 8.21622 42.3279 8.56822 42.3279C8.56822 37.1359 8.56822 32.0319 8.56822 26.8399C6.36822 26.8399 4.25622 26.8399 2.14422 26.8399C2.14422 27.0159 2.14422 27.1919 2.14422 27.3679C2.14422 30.9759 2.14422 34.4959 2.14422 38.1039C2.14422 38.8079 2.14422 39.5999 2.14422 40.3039C2.14422 40.6559 2.05622 40.8319 1.70422 41.0079C1.35222 41.0959 1.08822 41.0079 0.912219 40.7439L0.824219 40.6559C1.00022 35.8159 1.00022 30.8879 1.00022 25.9599ZM12.7042 29.3039C12.7042 29.3919 12.7042 29.4799 12.7042 29.4799C12.7042 32.8239 12.7042 36.2559 12.7042 39.5999C12.7042 39.8639 12.7922 39.9519 13.0562 39.9519C17.3682 40.8319 21.5922 41.7119 25.9042 42.2399C26.8722 42.3279 27.8402 42.5039 28.8082 42.0639C29.8642 41.6239 30.9202 41.1839 31.8882 40.5679C35.6722 38.3679 39.1922 35.8159 42.6242 33.0879C43.0642 32.7359 43.3282 32.2959 43.5922 31.8559C43.8562 31.4159 43.8562 30.9759 43.6802 30.5359C43.3282 29.5679 42.0962 29.0399 41.1282 29.5679C40.4242 29.8319 39.8082 30.1839 39.1042 30.5359C37.4322 31.3279 35.7602 32.0319 34.1762 32.8239C33.7362 32.9999 33.3842 32.9119 33.2082 32.5599C33.0322 32.2079 33.2082 31.8559 33.6482 31.6799C33.9122 31.5039 34.2642 31.4159 34.5282 31.3279C35.3202 30.9759 36.1122 30.6239 36.9042 30.2719C36.8162 30.1839 36.7282 30.1839 36.7282 30.0959C33.2962 27.8079 29.8642 25.6079 26.4322 23.3199C26.1682 23.1439 26.0802 23.2319 25.9042 23.3199C23.6162 24.8159 21.3282 26.3119 19.0402 27.8959C18.9522 27.9839 18.8642 28.0719 18.6882 28.1599C19.2162 28.2479 19.7442 28.3359 20.2722 28.5119C23.7042 29.6559 27.1362 30.7999 30.5682 31.9439C31.1842 32.1199 31.7122 32.5599 32.0642 33.1759C32.5922 34.1439 32.5042 35.1999 31.8882 36.0799C31.2722 37.0479 30.3042 37.4879 29.1602 37.3119C27.1362 37.0479 25.2002 36.6959 23.1762 36.4319C22.2082 36.2559 21.1522 36.1679 20.1842 35.9919C19.5682 35.9039 19.3042 35.5519 19.3922 35.1119C19.4802 34.7599 19.7442 34.5839 20.2722 34.6719C23.2642 35.1119 26.1682 35.4639 29.1602 35.9039C30.1282 36.0799 30.8322 35.5519 31.0962 34.6719C31.2722 33.8799 30.8322 33.2639 29.8642 32.9119C28.2802 32.3839 26.6962 31.8559 25.0242 31.3279C22.7362 30.5359 20.4482 29.6559 17.9842 29.3039C16.1362 29.0399 14.3762 29.0399 12.7042 29.3039ZM22.3842 5.01592C22.3842 7.03992 24.0562 8.71192 25.9922 8.71192C27.9282 8.71192 29.6882 7.03992 29.6882 5.10392C29.6882 3.07992 28.0162 1.40792 25.9922 1.40792C24.0562 1.31992 22.3842 2.99192 22.3842 5.01592ZM29.2482 18.4799C29.9522 19.0079 30.8322 19.0959 31.5362 18.5679C32.8562 17.5999 33.9122 16.3679 34.7042 14.9599C35.1442 14.0799 35.0562 13.9039 34.0882 13.9919C32.4162 14.0799 30.9202 14.6079 29.4242 15.3119C28.8082 15.5759 28.2802 16.5439 28.5442 17.3359C28.9842 17.0719 29.4242 16.8079 29.8642 16.4559C30.3042 16.1919 30.6562 16.1919 30.9202 16.5439C31.1842 16.8959 31.0082 17.2479 30.5682 17.5119C30.2162 17.8639 29.7762 18.1279 29.2482 18.4799ZM11.3842 41.0079C11.3842 36.6959 11.3842 32.3839 11.3842 28.1599C10.9442 28.1599 10.5922 28.1599 10.1522 28.1599C10.1522 32.4719 10.1522 36.7839 10.1522 41.0079C10.5042 41.0079 10.9442 41.0079 11.3842 41.0079ZM29.5122 8.53592C27.2242 10.3839 24.8482 10.3839 22.5602 8.62392C22.7362 9.94392 24.3202 11.1759 25.9042 11.2639C27.5762 11.3519 29.2482 10.1199 29.5122 8.53592Z" fill="#16B9FF"/>
<path d="M25.3762 4.92789C25.3762 4.39989 25.3762 3.87189 25.3762 3.34389C25.3762 2.90389 25.6402 2.63989 25.9922 2.63989C26.3442 2.63989 26.6962 2.90389 26.6962 3.43189C26.6962 4.48789 26.6962 5.54389 26.6962 6.68789C26.6962 7.12789 26.4322 7.39189 26.0802 7.39189C25.7282 7.39189 25.4642 7.12789 25.4642 6.59989C25.3762 6.07189 25.3762 5.54389 25.3762 4.92789Z" fill="#16B9FF"/>
</svg>
