<svg width="45" height="46" viewBox="0 0 45 46" fill="none" xmlns="http://www.w3.org/2000/svg">
<path d="M6.92353 21.3168C7.82941 21.1227 8.60588 21.1874 9.31765 21.705C9.64118 21.9638 9.96471 22.2874 10.2235 22.6109C11.1941 23.8403 12.1 25.0697 13.0059 26.2991C13.2 26.558 13.4588 26.8168 13.7176 27.0109C15.4647 28.3697 16.2412 30.1168 15.7882 32.3815C15.4 34.3227 15.3353 36.2638 15.7235 38.205C15.7235 38.3344 15.7882 38.4638 15.8529 38.658C16.8235 38.658 17.5353 39.0462 17.7941 40.0168C17.8588 40.2109 17.8588 40.405 17.8588 40.5991C17.8588 41.505 17.8588 42.3462 17.8588 43.2521C17.8588 44.2874 17.0824 45.1285 16.0471 45.1285C12.7471 45.1285 9.38235 45.1285 6.08235 45.1285C5.04706 45.1285 4.27059 44.3521 4.27059 43.3168C4.27059 42.4756 4.27059 41.6991 4.27059 40.858C4.27059 39.758 4.65882 39.1756 5.75882 38.7874C5.75882 37.8168 5.5 36.9756 5.11176 36.0697C4.65882 35.0344 3.94706 34.1932 3.17059 33.3521C2.45882 32.6403 1.74706 31.9285 1.03529 31.1521C0.323529 30.3109 0 29.405 0 28.305C0.0647059 25.7168 0.0647059 23.1285 0 20.5403C0 19.3109 0.323529 18.2109 0.970588 17.1756C1.87647 15.6874 2.78235 14.1991 3.75294 12.7109C4.33529 11.805 5.24118 11.3521 6.34118 11.5462C7.37647 11.7403 8.21765 12.258 8.41177 13.2932C8.54118 13.8756 8.47647 14.5227 8.28235 15.105C8.02353 16.0756 7.63529 17.0462 7.24706 17.9521C6.79412 19.0521 6.92353 20.1521 6.92353 21.3168ZM13.9765 38.5932C13.6529 36.9109 13.6529 35.2932 13.7824 33.6756C13.8471 32.8344 13.9765 31.9932 13.9765 31.1521C14.0412 30.1815 13.6529 29.3403 12.8765 28.6932C12.2941 28.1756 11.6471 27.5932 11.1941 27.0109C10.3529 26.0403 9.64118 24.9403 8.86471 23.905C8.73529 23.7109 8.60588 23.5168 8.41177 23.3227C8.02353 22.9344 7.50588 22.8697 7.11765 23.1932C6.66471 23.4521 6.53529 23.9697 6.72941 24.4227C6.79412 24.6815 6.92353 24.8756 7.11765 25.0697C7.50588 25.5874 7.95882 26.105 8.34706 26.6874C9.05882 27.658 9.70588 28.5638 10.3529 29.5344C10.7412 30.1168 10.4824 30.8285 9.83529 30.958C9.38235 31.0874 9.05882 30.8285 8.8 30.505C7.95882 29.3403 7.11765 28.1756 6.27647 27.0109C5.88824 26.4932 5.5 25.9109 5.17647 25.3285C4.85294 24.7462 4.72353 24.1638 4.85294 23.5168C4.91765 22.9991 4.98235 22.4815 4.98235 21.9638C4.98235 21.3815 4.98235 20.7991 4.98235 20.1521C4.98235 19.2462 5.11176 18.405 5.37059 17.6285C5.75882 16.5285 6.14706 15.4932 6.53529 14.3932C6.66471 13.9403 6.53529 13.6168 6.14706 13.4227C5.75882 13.2285 5.43529 13.358 5.17647 13.7462C4.27059 15.1697 3.36471 16.658 2.45882 18.0815C2.00588 18.858 1.74706 19.6344 1.81176 20.5403C1.81176 23.1285 1.81176 25.7168 1.81176 28.305C1.81176 28.9521 2.00588 29.4697 2.39412 29.858C3.10588 30.5697 3.81765 31.2168 4.46471 31.9285C5.88824 33.4168 7.05294 35.0344 7.44118 37.1697C7.50588 37.6227 7.57059 38.0756 7.63529 38.5285C9.77059 38.5932 11.8412 38.5932 13.9765 38.5932ZM6.21177 43.1874C9.51177 43.1874 12.8118 43.1874 16.1118 43.1874C16.1118 42.2815 16.1118 41.4403 16.1118 40.5344C12.8118 40.5344 9.51177 40.5344 6.21177 40.5344C6.21177 41.3756 6.21177 42.2815 6.21177 43.1874Z" fill="#FF8934"/>
<path d="M38.2411 38.658C39.3411 38.9815 39.7941 39.758 39.7293 40.858C39.6646 41.6344 39.7293 42.3462 39.7293 43.1227C39.7293 44.2874 38.9529 45.0638 37.7882 45.0638C34.5529 45.0638 31.3176 45.0638 28.0823 45.0638C26.9176 45.0638 26.1411 44.2874 26.1411 43.1874C26.1411 42.3462 26.1411 41.505 26.1411 40.6638C26.1411 39.4344 26.7882 38.7874 28.0176 38.658C28.0823 38.658 28.147 38.658 28.2117 38.658C28.5352 37.2344 28.5999 35.8756 28.4705 34.4521C28.4058 33.5462 28.2764 32.6403 28.2117 31.7991C28.0176 30.0521 28.5352 28.5638 29.9588 27.4638C31.0588 26.6227 31.8999 25.5227 32.6764 24.4227C33.1941 23.7109 33.647 22.9991 34.2293 22.3521C34.9411 21.5109 35.847 21.1227 36.947 21.3815C37.0117 21.3815 37.0764 21.3815 37.2705 21.3815C37.2058 20.5403 37.2705 19.6344 37.0117 18.858C36.6882 17.5638 36.1705 16.3344 35.7823 15.105C35.3293 13.7462 35.9117 12.4521 37.1411 11.9344C38.3705 11.3521 39.7293 11.805 40.5058 12.9697C41.4117 14.458 42.3176 15.8815 43.2235 17.305C43.8058 18.2109 44.1293 19.1815 44.1293 20.2168C44.1293 23.1285 44.1293 26.0403 44.1293 29.0168C44.1293 29.9874 43.7411 30.8285 42.9646 31.4756C41.9941 32.3815 41.0235 33.3521 40.1176 34.3874C39.147 35.4227 38.6293 36.7168 38.4352 38.1403C38.2411 38.205 38.2411 38.3991 38.2411 38.658ZM36.3646 38.5933C36.3646 38.3991 36.4293 38.2697 36.4293 38.0756C36.5588 36.1991 37.3352 34.5168 38.5646 33.0933C39.4058 32.1227 40.3764 31.1521 41.347 30.2462C41.9293 29.7285 42.2529 29.0815 42.2529 28.305C42.2529 25.6521 42.2529 23.0638 42.2529 20.4109C42.2529 19.4403 41.9941 18.6638 41.4764 17.8227C40.6352 16.4638 39.7941 15.105 38.9529 13.7462C38.6293 13.2933 38.3058 13.1638 37.9176 13.358C37.5293 13.5521 37.3999 13.8756 37.5941 14.3933C37.8529 15.2344 38.1117 16.0756 38.4999 16.8521C39.0176 18.0168 39.147 19.2462 39.147 20.5403C39.0823 21.5756 39.0823 22.6109 39.3411 23.6462C39.5352 24.5521 39.0176 25.3285 38.4999 26.105C37.4646 27.5933 36.3646 29.0168 35.2646 30.505C34.9411 30.8933 34.4882 31.0227 34.0999 30.8285C33.7117 30.6344 33.5176 30.1815 33.7117 29.7285C33.8411 29.405 33.9705 29.0815 34.1646 28.758C34.9411 27.7874 35.7176 26.8168 36.4293 25.8462C36.7529 25.3933 37.0764 24.8756 37.3352 24.2933C37.5941 23.7756 37.3999 23.3874 36.947 23.0638C36.4941 22.805 36.0411 22.8697 35.6529 23.258C35.3941 23.5168 35.1999 23.7756 35.0058 24.0991C33.8411 25.8462 32.6117 27.5285 30.9941 28.8874C30.2176 29.5344 29.9588 30.4403 30.0882 31.4109C30.2176 32.7697 30.4117 34.1285 30.4764 35.4874C30.5411 36.5227 30.347 37.4933 30.2823 38.5285C32.2235 38.5933 34.2941 38.5933 36.3646 38.5933ZM37.8529 43.1874C37.8529 42.2815 37.8529 41.4403 37.8529 40.5344C34.5529 40.5344 31.2529 40.5344 27.9529 40.5344C27.9529 41.4403 27.9529 42.2815 27.9529 43.1874C31.2529 43.1874 34.5529 43.1874 37.8529 43.1874Z" fill="#FF8934"/>
<path d="M35.9765 5.20503C35.5236 12.5815 33.453 19.2462 28.8589 24.9403C27.2412 26.9462 25.3001 28.6286 22.9059 29.6639C22.453 29.858 22.0001 29.858 21.5471 29.6639C18.8942 28.4344 16.7589 26.558 15.0118 24.2933C11.7765 20.1521 9.90005 15.4286 8.92946 10.2521C8.41182 7.53444 8.2177 4.75209 8.54123 1.96974C8.60593 1.5168 8.73534 1.19327 9.12358 1.06386C9.57652 0.869738 9.90005 1.06386 10.2236 1.32268C11.9706 2.94033 14.0412 3.7168 16.4353 3.52268C18.3118 3.39327 19.8648 2.6815 21.2883 1.45209C22.0001 0.805032 22.3883 0.805032 23.1001 1.45209C26.0765 4.23444 30.6706 4.23444 33.7118 1.5168C33.9059 1.32268 34.1648 1.12856 34.4236 1.06386C35.2001 0.869738 35.7177 1.19327 35.7824 1.96974C35.8471 3.06974 35.9118 4.16974 35.9765 5.20503ZM10.1589 3.7815C10.1589 4.16974 10.1589 4.49327 10.1589 4.8168C10.2883 10.3815 11.7765 15.6227 14.5589 20.4109C16.1118 23.0639 17.9883 25.458 20.5765 27.0756C22.453 28.2403 21.8706 28.2403 23.6824 27.0756C26.1412 25.5227 27.8883 23.3227 29.3765 20.8639C32.0295 16.4639 33.5177 11.7403 33.9059 6.62856C33.9706 5.65797 33.9059 4.62268 33.9059 3.58739C32.0942 4.8168 30.0883 5.46386 27.8883 5.39915C25.6883 5.33444 23.7471 4.55797 22.0648 3.19915C18.3118 6.04621 14.3648 6.24033 10.1589 3.7815Z" fill="#FF8934"/>
<path d="M21.0295 15.6874C21.806 14.9109 22.5177 14.1991 23.2295 13.4227C23.6825 12.9697 24.1354 12.5168 24.5883 12.0639C25.0413 11.6756 25.5589 11.6756 25.9472 11.9991C26.3354 12.3874 26.2707 12.905 25.8824 13.2933C24.5236 14.7168 23.1001 16.0756 21.6766 17.4344C21.2236 17.8874 20.706 17.8874 20.3177 17.4344C19.6707 16.7874 19.0236 16.1403 18.3766 15.4933C17.9883 15.0403 17.9236 14.5227 18.3119 14.1344C18.7001 13.7462 19.2177 13.8109 19.6707 14.1991C20.1236 14.7815 20.5119 15.1697 21.0295 15.6874Z" fill="#FF8934"/>
</svg>
