<svg width="44" height="45" viewBox="0 0 44 45" fill="none" xmlns="http://www.w3.org/2000/svg">
<path d="M5.31967 44C5.27459 43.9549 5.18443 43.9549 5.13934 43.9098C3.92213 43.5492 3.20082 42.6025 3.20082 41.3402C3.20082 38.8156 3.20082 36.291 3.20082 33.7664C3.20082 28.041 3.20082 22.3156 3.20082 16.5902C3.20082 16.2746 3.11066 16.1393 2.84016 15.959C0.991803 14.9672 0.045082 13.3893 0 11.3156C0 7.88935 0 4.46311 0 1.03689C0 0.405738 0.360656 0 0.901639 0C1.39754 0 1.7582 0.405738 1.7582 1.03689C1.7582 3.87705 1.7582 6.7623 1.7582 9.60246C1.7582 9.73771 1.7582 9.91803 1.7582 10.0984C2.2541 10.0984 2.75 10.0984 3.29098 10.0984C3.29098 9.96311 3.29098 9.82787 3.29098 9.64754C3.29098 6.80738 3.29098 3.96721 3.29098 1.12705C3.29098 0.991803 3.29098 0.856557 3.29098 0.67623C3.33607 0.315574 3.69672 0.045082 4.10246 0C4.5082 0 4.91393 0.315574 4.95902 0.721312C4.95902 0.856557 4.95902 0.991803 4.95902 1.17213C4.95902 4.0123 4.95902 6.80738 4.95902 9.64754C4.95902 9.78279 4.95902 9.96312 4.95902 10.1434C5.45492 10.1434 5.95082 10.1434 6.4918 10.1434C6.4918 10.0082 6.4918 9.87295 6.4918 9.69262C6.4918 6.85246 6.4918 4.0123 6.4918 1.17213C6.4918 1.03689 6.4918 0.901639 6.4918 0.721312C6.53689 0.315574 6.89754 0 7.30328 0C7.70902 0 8.11475 0.315574 8.15984 0.721312C8.15984 0.856557 8.15984 0.991803 8.15984 1.17213C8.15984 4.0123 8.15984 6.80738 8.15984 9.64754C8.15984 9.78279 8.15984 9.96312 8.15984 10.1434C8.65574 10.1434 9.15164 10.1434 9.69262 10.1434C9.69262 10.0082 9.69262 9.82787 9.69262 9.69262C9.69262 6.85246 9.69262 4.05738 9.69262 1.21721C9.69262 1.08197 9.69262 0.946721 9.69262 0.766394C9.73771 0.315574 10.0984 0 10.5041 0C10.9549 0 11.3156 0.315574 11.3607 0.766394C11.3607 0.901639 11.3607 1.03689 11.3607 1.17213C11.3607 4.46312 11.3607 7.79918 11.3607 11.0902C11.3607 13.3443 10.4139 15.0123 8.43033 16.0492C8.15984 16.1844 8.20492 16.4098 8.20492 16.6352C8.20492 24.8402 8.20492 33.0451 8.20492 41.2951C8.20492 42.6475 7.48361 43.5943 6.22131 43.9549C6.17623 43.9549 6.13115 44 6.08607 44.0451C5.90574 44 5.63525 44 5.31967 44ZM9.73771 11.9016C7.07787 11.9016 4.41803 11.9016 1.80328 11.9016C1.80328 12.9836 2.79508 14.2008 4.01229 14.6967C4.82377 15.0123 4.91393 15.1025 4.91393 16.0041C4.91393 24.3443 4.91393 32.7295 4.91393 41.0697C4.91393 41.2049 4.91393 41.3852 4.91393 41.5205C4.95902 41.9713 5.31967 42.2869 5.77049 42.2869C6.17623 42.2869 6.58197 41.9713 6.62705 41.5205C6.62705 41.3852 6.62705 41.2049 6.62705 41.0697C6.62705 32.7295 6.62705 24.3893 6.62705 16.0943C6.62705 15.1025 6.67213 15.0574 7.57377 14.6967C8.79098 14.1107 9.51229 13.209 9.73771 11.9016Z" fill="#FF50A3"/>
<path d="M40.98 44.0008C40.5292 43.7754 40.0333 43.5951 39.6726 43.2795C39.0415 42.7836 38.8161 42.0623 38.8161 41.2508C38.8161 37.2385 38.8161 33.2262 38.8161 29.1688C38.8161 28.8532 38.7259 28.6278 38.5005 28.4024C38.0497 27.9516 37.5988 27.5008 37.148 27.05C36.3365 26.1934 35.9308 25.2016 35.9308 24.0295C35.9308 20.1524 35.8406 16.2303 35.9759 12.3532C36.1111 7.30407 38.3202 3.29177 42.3775 0.361447C43.0988 -0.179537 43.5046 -0.0893726 43.9554 0.631939C43.9554 14.3819 43.9554 28.1319 43.9554 41.8819C43.6398 43.009 42.9185 43.7303 41.7915 44.0459C41.5661 44.0008 41.2505 44.0008 40.98 44.0008ZM42.2874 2.61555C42.0169 2.84096 41.8365 3.02128 41.6562 3.15653C39.0415 5.81637 37.689 9.01718 37.6439 12.759C37.5988 16.4557 37.6439 20.1524 37.6439 23.8942C37.6439 24.7057 37.9144 25.3819 38.5005 25.968C39.0415 26.509 39.5824 27.05 40.1234 27.591C40.439 27.9065 40.5743 28.2221 40.5743 28.6729C40.5743 32.7754 40.5743 36.9229 40.5743 41.0254C40.5743 41.1606 40.5743 41.341 40.5743 41.4762C40.6193 41.927 41.0251 42.2426 41.4308 42.2426C41.8365 42.2426 42.1972 41.927 42.2423 41.5213C42.2874 41.341 42.2423 41.1606 42.2423 41.0254C42.2423 28.4024 42.2423 15.8246 42.2423 3.20161C42.2874 3.02128 42.2874 2.88604 42.2874 2.61555Z" fill="#FF50A3"/>
<path d="M21.9997 9.7832C28.7169 9.7832 34.2169 15.2832 34.1718 22.0004C34.1718 28.7176 28.6718 34.1725 21.9546 34.1725C15.2374 34.1725 9.73742 28.6725 9.7825 21.9553C9.82758 15.2832 15.2825 9.7832 21.9997 9.7832ZM32.4587 22.0004C32.4587 16.2299 27.7702 11.4963 21.9997 11.5414C16.2292 11.5414 11.5407 16.2299 11.5407 22.0004C11.4956 27.7709 16.2292 32.4594 21.9997 32.4594C27.7702 32.5045 32.4587 27.7709 32.4587 22.0004Z" fill="#FF50A3"/>
<path d="M22.2254 38.4091C18.8442 38.364 15.9139 37.5526 13.2541 35.8845C12.8934 35.6591 12.668 35.3886 12.7582 34.9378C12.8483 34.5321 13.0737 34.2616 13.4795 34.2616C13.75 34.2616 14.0205 34.3518 14.2459 34.487C16.7705 36.0198 19.4754 36.7862 22.4057 36.696C26.7336 36.5157 30.3401 34.8026 33.1803 31.5567C33.3155 31.4214 33.4057 31.2862 33.541 31.1509C33.9016 30.7452 34.3975 30.7001 34.7582 31.0157C35.1188 31.3313 35.209 31.8722 34.8483 32.2329C34.0819 33.0444 33.3606 33.9009 32.5041 34.6222C29.4836 37.1468 25.9221 38.364 22.2254 38.4091Z" fill="#FF50A3"/>
<path d="M21.4593 5.58984C26.5536 5.68001 30.4757 7.30296 33.7216 10.5489C33.8569 10.6841 34.0372 10.9095 34.0823 11.0898C34.2175 11.4505 34.0372 11.8562 33.7216 12.0366C33.361 12.2169 33.0003 12.1718 32.6847 11.9013C32.2339 11.4956 31.7831 11.0448 31.3323 10.639C28.2216 8.11443 24.6151 7.03247 20.6479 7.34804C18.8446 7.48329 17.1315 7.97919 15.5085 8.79066C15.1479 8.97099 14.8323 9.01607 14.4716 8.79066C13.8856 8.43001 13.9757 7.61853 14.652 7.25788C15.9142 6.62673 17.2216 6.13083 18.6192 5.90542C19.7011 5.77017 20.8282 5.63493 21.4593 5.58984Z" fill="#FF50A3"/>
<path d="M11.9016 32.9991C11.9016 33.495 11.5409 33.8557 11.0901 33.8557C10.5942 33.8557 10.1885 33.45 10.1885 32.9991C10.1885 32.5483 10.5491 32.1426 11 32.1426C11.4508 32.1426 11.8565 32.5483 11.9016 32.9991Z" fill="#FF50A3"/>
<path d="M14.1107 21.7297C14.3812 18.574 15.8689 16.2297 18.7541 14.8322C19.2951 14.5617 19.791 14.742 20.0164 15.1928C20.2419 15.6436 20.0615 16.1395 19.5205 16.365C17.1763 17.492 15.9591 19.3854 15.8238 22.0002C15.7787 22.5412 15.4181 22.9018 14.9222 22.9018C14.3812 22.8117 14.0656 22.4059 14.1107 21.7297Z" fill="#FF50A3"/>
<path d="M21.9552 15.8244C21.4593 15.8244 21.0986 15.4638 21.0986 14.9679C21.0986 14.5171 21.4593 14.1113 21.9552 14.1113C22.4511 14.1113 22.8568 14.472 22.8568 14.9679C22.8568 15.4187 22.4511 15.8244 21.9552 15.8244Z" fill="#FF50A3"/>
</svg>
