<svg width="44" height="43" viewBox="0 0 44 43" fill="none" xmlns="http://www.w3.org/2000/svg">
<path d="M0 36.5155C0.0807339 36.2733 0.161468 35.9503 0.242202 35.7081C0.888073 33.609 2.74495 32.0751 4.92477 31.9136C5.0055 31.9136 5.08624 31.9136 5.16697 31.9136C5.16697 31.7522 5.16697 31.51 5.16697 31.3485C5.16697 24.1632 5.16697 17.0586 5.16697 9.87325C5.16697 8.25858 5.81284 7.3705 7.34679 6.80537C8.15413 6.56316 8.96147 6.24023 9.84954 5.99803C9.84954 4.70628 9.84954 3.41454 9.84954 2.1228C9.84954 1.15399 10.4954 0.34665 11.3835 0.185182C12.3523 -0.0570196 13.3211 0.427384 13.7248 1.31546C13.8862 1.63839 13.8862 2.04206 13.8862 2.365C13.8862 3.0916 13.8862 3.81821 13.8862 4.62555C14.7743 4.30261 15.5817 4.06041 16.4697 3.73748C19.1339 2.8494 21.7982 1.96133 24.5431 0.992522C25.0275 0.831054 25.2697 0.831054 25.5927 1.15399C27.5303 3.01087 29.4679 4.86775 31.4055 6.80537C32.0514 7.3705 32.2936 8.09711 32.2936 8.90445C32.2936 11.4072 32.2936 13.9907 32.2936 16.4934C32.2936 16.8164 32.2128 17.1393 31.8092 17.3008C31.4055 17.4622 31.0018 17.1393 31.0018 16.6549C31.0018 16.0898 31.0018 15.5246 31.0018 14.9595C31.0018 12.9411 31.0018 11.0035 31.0018 8.98518C31.0018 8.42004 30.8404 8.01637 30.4367 7.6127C28.9028 6.07876 27.2881 4.62555 25.6734 3.01087C25.6734 8.42004 25.6734 13.6678 25.6734 19.0769C25.8349 19.0769 26.0771 19.0769 26.2385 19.0769C29.7101 19.0769 33.1009 19.0769 36.5725 19.0769C38.1872 19.0769 38.9945 19.8843 38.9945 21.4989C38.9945 24.7283 38.9945 28.0384 38.9945 31.2678C38.9945 31.4292 38.9945 31.5907 38.9945 31.7522C39.5596 31.8329 40.1248 31.7522 40.6092 31.9136C42.5468 32.3173 43.9193 33.932 44 35.9503C44 37.4035 44 38.9375 44 40.3907C44 41.2788 43.3541 41.9246 42.5468 42.0054C42.3853 42.0054 42.1431 42.0054 41.9817 42.0054C28.6605 42.0054 15.3394 42.0054 2.09908 42.0054C1.13028 42.0054 0.40367 41.6824 0.0807339 40.7136C0 39.3411 0 37.9687 0 36.5155ZM24.3817 11.8916C24.2202 11.9723 24.0587 11.9723 23.978 12.0531C20.6679 13.1833 17.2771 14.3136 13.967 15.4439C12.9174 15.7668 11.9486 16.1705 10.8991 16.4934C10.6569 16.5742 10.3339 16.4934 10.0917 16.332C9.93027 16.2512 9.93027 15.8476 10.011 15.6861C10.0917 15.5246 10.3339 15.3632 10.5761 15.2824C12.0294 14.798 13.4826 14.3136 14.9358 13.8292C18.0037 12.7797 20.9908 11.8109 24.0587 10.7613C24.2202 10.6806 24.4624 10.5999 24.4624 10.5191C24.4624 9.46959 24.4624 8.50078 24.4624 7.3705C24.3009 7.45124 24.1394 7.45124 24.0587 7.45124C21.3945 8.33931 18.811 9.22738 16.1468 10.1155C14.4514 10.6806 12.756 11.2457 11.0605 11.8109C10.5761 11.9723 10.1725 11.8109 10.0917 11.4879C9.93027 11.0843 10.1725 10.7613 10.6569 10.5999C10.9798 10.5191 11.3835 10.3577 11.7064 10.2769C15.8239 8.90445 20.022 7.45124 24.1394 6.07876C24.3817 5.99803 24.5431 5.83656 24.5431 5.59436C24.5431 5.02922 24.5431 4.46408 24.5431 3.89894C24.5431 3.41454 24.5431 3.01087 24.5431 2.52647C24.3009 2.6072 24.1394 2.6072 24.0587 2.68793C18.6495 4.46408 13.2404 6.32096 7.91193 8.09711C6.78165 8.25858 6.45872 8.74298 6.45872 9.71179C6.45872 19.8843 6.45872 30.0567 6.45872 40.2292C6.45872 40.3907 6.45872 40.5522 6.45872 40.7136C7.58899 40.7136 8.71927 40.7136 9.84954 40.7136C9.84954 39.1797 9.84954 37.6457 9.84954 36.1118C9.84954 35.0622 10.2532 34.5778 11.222 34.3356C13.0789 33.8512 14.9358 33.2861 16.7927 32.8017C18.0037 32.4788 18.811 33.0439 18.811 34.3356C18.811 36.2733 18.811 38.2916 18.811 40.2292C18.811 40.3907 18.811 40.5522 18.811 40.7136C20.6679 40.7136 22.5248 40.7136 24.3817 40.7136C24.3817 35.7081 24.3817 30.7833 24.3817 25.8586C24.2202 25.8586 24.1394 25.9393 24.0587 25.9393C22.2826 26.5852 20.4257 27.1503 18.6495 27.7962C17.8422 28.0384 16.9541 28.3613 16.1468 28.6035C15.7431 28.765 15.4202 28.5228 15.3394 28.1999C15.2587 27.8769 15.4202 27.554 15.7431 27.3925C15.8239 27.3925 15.9046 27.3118 16.0661 27.3118C18.7303 26.4237 21.4752 25.4549 24.1394 24.5668C24.4624 24.4861 24.5431 24.3246 24.5431 24.0017C24.5431 23.4366 24.5431 22.9522 24.5431 22.387C24.5431 21.9833 24.5431 21.5797 24.5431 21.0953C24.3817 21.176 24.2202 21.176 24.1394 21.2567C20.9101 22.387 17.6 23.4366 14.3706 24.5668C13.2404 24.9705 12.1908 25.3742 11.0605 25.6971C10.8183 25.7778 10.4954 25.6971 10.2532 25.5356C10.0917 25.4549 10.0917 25.0512 10.1725 24.8898C10.2532 24.7283 10.4954 24.4861 10.7376 24.4861C13.1596 23.6788 15.6624 22.7907 18.1651 21.9833C20.1835 21.3375 22.2018 20.6109 24.2202 19.8843C24.3817 19.8035 24.5431 19.7228 24.5431 19.5613C24.5431 18.5118 24.5431 17.543 24.5431 16.4934C24.3817 16.5742 24.2202 16.5742 24.0587 16.6549C20.1835 17.9466 16.389 19.2384 12.5138 20.5301C11.9486 20.6916 11.4642 20.9338 10.8991 21.0953C10.6569 21.176 10.3339 21.0145 10.1725 20.8531C10.011 20.6916 10.011 20.3687 10.1725 20.1265C10.2532 19.965 10.4954 19.8035 10.7376 19.8035C12.6752 19.1577 14.6128 18.5118 16.5505 17.8659C19.0532 16.9778 21.6367 16.1705 24.1394 15.2824C24.3009 15.2017 24.4624 15.0402 24.4624 14.9595C24.3817 13.9907 24.3817 12.9411 24.3817 11.8916ZM25.6734 20.3687C25.6734 25.8586 25.6734 31.2678 25.6734 36.6769C28.822 36.6769 31.9706 36.6769 35.1193 36.6769C35.1193 36.5962 35.1193 36.5962 35.1193 36.5962C35.1193 36.4347 35.1193 36.1925 35.1193 36.0311C35.2 34.4164 35.9266 33.2054 37.2991 32.398C37.622 32.2366 37.622 32.0751 37.622 31.7522C37.622 28.3613 37.622 24.9705 37.622 21.4989C37.622 20.6109 37.3798 20.3687 36.4917 20.3687C33.0202 20.3687 29.5486 20.3687 26.0771 20.3687C25.9963 20.3687 25.8349 20.3687 25.6734 20.3687ZM25.6734 40.7136C28.822 40.7136 31.9706 40.7136 35.1193 40.7136C35.1193 39.8256 35.1193 38.9375 35.1193 38.0494C31.9706 38.0494 28.822 38.0494 25.6734 38.0494C25.6734 38.9375 25.6734 39.8256 25.6734 40.7136ZM36.4917 36.6769C38.5908 36.6769 40.6092 36.6769 42.7083 36.6769C42.8697 34.4164 41.6587 33.1246 39.5596 33.1246C38.0257 33.1246 36.1688 34.2549 36.4917 36.6769ZM36.4917 40.7944C37.0569 40.7944 37.7028 40.7944 38.2679 40.7944C39.5596 40.7944 40.8514 40.7944 42.1431 40.7944C42.3853 40.7944 42.7083 40.7944 42.7083 40.3907C42.7083 39.5833 42.7083 38.8567 42.7083 38.0494C40.6092 38.0494 38.5101 38.0494 36.4917 38.0494C36.4917 38.9375 36.4917 39.8256 36.4917 40.7944ZM17.5193 33.932C16.7119 34.1742 16.0661 34.3356 15.3394 34.4971C15.0972 34.5778 15.0165 34.6586 15.0165 34.9815C15.0165 36.7577 15.0165 38.5338 15.0165 40.3907C15.0165 40.4714 15.0165 40.6329 15.0165 40.7136C15.8239 40.7136 16.7119 40.7136 17.5193 40.7136C17.5193 38.4531 17.5193 36.2733 17.5193 33.932ZM13.644 34.9815C12.9174 35.143 12.2716 35.3852 11.6257 35.5466C11.3028 35.6274 11.1413 35.7889 11.1413 36.1118C11.1413 37.565 11.1413 38.9375 11.1413 40.3907C11.1413 40.4714 11.1413 40.6329 11.1413 40.7136C11.9486 40.7136 12.756 40.7136 13.5633 40.7136C13.644 38.776 13.644 36.9191 13.644 34.9815ZM5.16697 40.7944C5.16697 39.9063 5.16697 39.0182 5.16697 38.1301C3.87523 38.1301 2.58349 38.1301 1.29174 38.1301C1.29174 38.6953 1.29174 39.2604 1.29174 39.8256C1.29174 40.7944 1.21101 40.7944 2.34128 40.7944C3.22936 40.7136 4.19816 40.7944 5.16697 40.7944ZM1.37248 36.7577C2.66422 36.7577 3.87523 36.7577 5.16697 36.7577C5.16697 36.1118 5.16697 35.5466 5.16697 34.9815C5.16697 34.4164 5.16697 33.7705 5.16697 33.2054C3.22936 33.1246 1.45321 34.82 1.37248 36.7577ZM11.1413 5.43289C11.545 5.27142 11.8679 5.19069 12.2716 5.10995C12.5945 5.02922 12.756 4.86775 12.6752 4.54482C12.6752 3.81821 12.6752 3.0916 12.6752 2.28426C12.6752 2.1228 12.6752 1.96133 12.5945 1.79986C12.433 1.39619 12.1908 1.23472 11.7872 1.31546C11.3835 1.31546 11.1413 1.55766 11.1413 1.96133C11.1413 3.0916 11.1413 4.22188 11.1413 5.43289Z" fill="#27AE60"/>
<path d="M13.5632 29.1691C13.4825 29.2499 13.321 29.4921 13.0788 29.5728C12.2715 29.8957 11.5449 30.1379 10.7376 30.3801C10.3339 30.5416 10.0109 30.2994 9.93022 29.9765C9.76875 29.6535 10.0109 29.2499 10.4146 29.1691C11.1412 28.9269 11.9486 28.604 12.7559 28.3618C13.1596 28.2811 13.5632 28.5233 13.5632 29.1691Z" fill="#27AE60"/>
<path d="M31.6477 30.6225C31.0018 30.6225 30.2752 30.6225 29.6293 30.6225C27.5302 30.7032 27.3688 30.461 27.4495 28.3619C27.4495 28.2004 27.4495 28.1197 27.4495 27.9582C27.4495 27.3124 27.9339 26.9087 28.4991 26.9087C30.5981 26.9087 32.6972 26.9087 34.7963 26.9087C35.3614 26.9087 35.8458 27.3124 35.8458 27.8775C35.9266 28.4426 35.9266 29.0885 35.8458 29.6536C35.7651 30.2995 35.3614 30.6225 34.7156 30.6225C33.666 30.6225 32.6972 30.6225 31.6477 30.6225ZM34.5541 29.3307C34.5541 28.927 34.5541 28.6041 34.5541 28.2004C32.6165 28.2004 30.5981 28.2004 28.7413 28.2004C28.7413 28.6041 28.7413 28.927 28.7413 29.3307C30.6789 29.3307 32.6165 29.3307 34.5541 29.3307Z" fill="#27AE60"/>
<path d="M31.648 25.6964C30.6792 25.6964 29.7104 25.6964 28.6609 25.6964C27.7728 25.6964 27.3691 25.2928 27.3691 24.4047C27.3691 24.001 27.3691 23.5166 27.3691 23.1129C27.3691 22.4671 27.7728 21.9827 28.4994 21.9827C30.5985 21.9827 32.6976 21.9827 34.7967 21.9827C35.4425 21.9827 35.8462 22.3863 35.9269 23.0322C35.9269 23.5973 35.9269 24.0817 35.9269 24.6469C35.9269 25.2928 35.4425 25.6964 34.7967 25.6964C33.7471 25.6964 32.6976 25.6964 31.648 25.6964ZM28.7416 24.4047C30.76 24.4047 32.6976 24.4047 34.6352 24.4047C34.6352 24.001 34.6352 23.6781 34.6352 23.3551C32.6976 23.3551 30.6792 23.3551 28.7416 23.3551C28.7416 23.6781 28.7416 24.001 28.7416 24.4047Z" fill="#27AE60"/>
<path d="M29.549 31.8333C29.8719 31.8333 30.2756 31.8333 30.5985 31.8333C31.2444 31.8333 31.648 32.2369 31.648 32.8828C31.648 33.4479 31.648 34.0131 31.648 34.5782C31.648 35.1433 31.1636 35.547 30.5985 35.547C29.8719 35.547 29.1453 35.547 28.4187 35.547C27.8535 35.547 27.4499 35.0626 27.3691 34.4975C27.3691 33.9323 27.3691 33.3672 27.3691 32.8021C27.3691 32.2369 27.7728 31.8333 28.3379 31.8333C28.7416 31.8333 29.1453 31.8333 29.549 31.8333ZM28.7416 33.125C28.7416 33.5287 28.7416 33.8516 28.7416 34.1745C29.3068 34.1745 29.7912 34.1745 30.3563 34.1745C30.3563 33.7709 30.3563 33.4479 30.3563 33.125C29.7912 33.125 29.226 33.125 28.7416 33.125Z" fill="#27AE60"/>
</svg>
