<svg width="44" height="50" viewBox="0 0 44 50" fill="none" xmlns="http://www.w3.org/2000/svg">
<path d="M18.8202 49.1163C18.1222 48.885 17.8895 48.3966 17.9154 47.7027C17.9671 46.7517 17.9154 45.8264 17.9412 44.8755C17.9412 44.567 17.8637 44.4385 17.5793 44.3357C16.5969 43.9502 15.6146 43.5647 14.658 43.1277C14.3995 42.9992 14.2444 42.9992 14.0376 43.2305C13.3396 43.9502 12.6157 44.6699 11.8919 45.3638C11.2714 45.9806 10.7544 45.9806 10.134 45.3895C8.78966 44.053 7.44536 42.7165 6.10106 41.38C5.50646 40.7889 5.50646 40.2491 6.12691 39.6323C6.92832 38.8355 7.70388 38.0388 8.45358 37.3191C7.98825 36.1111 7.52291 34.9545 7.05758 33.8237C7.00588 33.7209 6.79906 33.6437 6.64395 33.618C5.63572 33.5923 4.6275 33.618 3.59342 33.618C2.71445 33.618 2.32667 33.2325 2.32667 32.3587C2.32667 31.7932 2.32667 31.2021 2.32667 30.5595C1.91304 30.5595 1.52526 30.5595 1.16334 30.5595C0.387779 30.5338 0 30.174 0 29.4029C0 27.7323 0 26.036 0 24.3654C0 23.8256 0.258519 23.4658 0.749706 23.2602C1.21504 23.0803 1.65452 22.849 2.11986 22.6948C2.48179 22.5662 2.55934 22.3863 2.55934 22.0265C2.53349 19.8418 2.74031 17.6829 3.3866 15.601C4.65335 11.5144 7.00588 8.1989 10.4442 5.62871C11.866 4.57493 13.4172 3.72677 15.0975 3.13563C15.4336 3.00712 15.5629 2.82721 15.537 2.46738C15.5112 2.05615 15.5112 1.64492 15.537 1.23369C15.537 0.385528 15.9248 0 16.7262 0C18.5358 0 20.3196 0 22.1293 0C23.7838 0 25.4642 0 27.1445 0C28.0494 0 28.4371 0.385528 28.463 1.25939C28.463 1.77343 28.3079 2.44168 28.5405 2.8015C28.7732 3.16133 29.4454 3.23844 29.9365 3.46975C35.6498 6.14275 39.2949 10.5378 40.8719 16.6291C41.3372 18.3768 41.4407 20.2017 41.389 22.0008C41.389 22.3349 41.4665 22.5148 41.8026 22.6433C42.2938 22.8233 42.7591 23.0289 43.2244 23.2345C43.7415 23.4401 44 23.8256 44 24.3911C44 26.036 44 27.6809 44 29.3258C44 30.1483 43.6122 30.5338 42.785 30.5338C42.423 30.5338 42.087 30.5338 41.6475 30.5338C41.6475 31.0993 41.6475 31.6133 41.6475 32.1273C41.6475 33.2325 41.3114 33.5666 40.2256 33.5666C39.1398 33.5666 38.0799 33.5666 37.0975 33.5666C36.5805 34.7489 36.0635 35.8541 35.5981 36.985C35.5464 37.1135 35.6498 37.3448 35.7532 37.4476C36.4512 38.1673 37.1492 38.8612 37.8731 39.5552C38.5452 40.2234 38.5452 40.7118 37.8731 41.3543C36.5546 42.6651 35.2362 43.9759 33.9177 45.2867C33.2714 45.9292 32.7803 45.9292 32.134 45.2867C31.436 44.5927 30.7121 43.8988 30.0141 43.1791C29.8073 42.9735 29.6522 42.9478 29.3678 43.0763C28.4113 43.5133 27.4289 43.8988 26.4465 44.2843C26.188 44.3871 26.0588 44.4899 26.0846 44.7727C26.1105 45.7236 26.0846 46.7003 26.0846 47.6513C26.0846 48.5508 25.9295 48.7565 25.1281 49.0906C23.0082 49.1163 20.9142 49.1163 18.8202 49.1163ZM41.9835 28.5034C41.9835 27.7837 41.9835 27.1155 41.9835 26.4472C41.9835 25.9332 42.1387 25.3163 41.8801 24.9565C41.6475 24.5967 41.027 24.4425 40.5358 24.2883C39.631 24.0055 39.3208 23.4401 39.3725 22.5148C39.4501 20.69 39.3725 18.8652 38.933 17.0917C37.8989 12.8766 35.5981 9.50969 32.0823 6.99091C30.9965 6.19415 29.8073 5.57731 28.4888 5.06327C28.4888 5.29459 28.4888 5.4745 28.4888 5.68011C28.4888 10.3065 28.4888 14.9071 28.4888 19.5334C28.4888 20.6386 28.1528 20.9727 27.0411 20.9727C23.6804 20.9727 20.3196 20.9727 16.9589 20.9727C15.8472 20.9727 15.537 20.6643 15.537 19.5334C15.537 14.9071 15.537 10.3065 15.537 5.68011C15.537 5.5002 15.537 5.32029 15.537 5.06327C15.3302 5.14037 15.2009 5.19178 15.0717 5.24318C12.4348 6.37406 10.2115 8.04469 8.42773 10.2807C6.33372 12.8766 5.06698 15.8324 4.75676 19.1479C4.6275 20.3816 4.65335 21.6153 4.6275 22.8233C4.6275 23.4915 4.36898 23.9541 3.72268 24.1855C3.2832 24.3397 2.84371 24.571 2.40423 24.7509C2.14571 24.8537 2.0423 24.9822 2.0423 25.2649C2.06816 26.0103 2.0423 26.7556 2.0423 27.5267C2.0423 27.8608 2.0423 28.195 2.0423 28.5291C15.3561 28.5034 28.6181 28.5034 41.9835 28.5034ZM35.8566 40.429C35.1845 39.7608 34.4606 39.0411 33.7368 38.3215C33.0646 37.6532 33.0129 37.3191 33.5041 36.5224C34.2021 35.3658 34.745 34.1321 35.0811 32.847C35.3913 31.6904 35.5464 31.5619 36.7356 31.5619C37.6663 31.5619 38.6228 31.5619 39.5535 31.5619C39.5535 31.2021 39.5535 30.8937 39.5535 30.5595C36.4512 30.5595 33.3749 30.5595 30.2985 30.5595C30.2726 30.7137 30.2209 30.8679 30.1951 30.9965C29.5229 34.9288 26.0329 37.8589 22.0259 37.8846C17.9154 37.9103 14.3995 35.0059 13.7015 31.0222C13.624 30.6366 13.4947 30.5338 13.1328 30.5338C10.3666 30.5595 7.60047 30.5338 4.83431 30.5338C4.6792 30.5338 4.52409 30.5595 4.34313 30.5595C4.34313 30.8937 4.34313 31.2021 4.34313 31.5619C5.3255 31.5619 6.30787 31.5619 7.26439 31.5619C8.35018 31.5619 8.50529 31.7418 8.86721 32.7699C9.25499 33.8751 9.64277 35.0059 10.2115 36.034C11.0129 37.5247 11.0646 37.499 9.84959 38.707C9.25499 39.2982 8.68625 39.8636 8.14336 40.3776C9.12573 41.3543 10.0823 42.3053 11.0388 43.2563C11.7626 42.5366 12.5123 41.7655 13.2879 41.0202C13.7274 40.5833 14.141 40.4804 14.6322 40.7632C16.0541 41.637 17.5793 42.2539 19.1821 42.6394C19.6475 42.7422 19.8801 43.0763 19.9318 43.539C19.9577 43.796 19.9577 44.053 19.9577 44.31C19.9577 45.2096 19.9577 46.1092 19.9577 47.0344C21.3537 47.0344 22.6721 47.0344 24.0165 47.0344C24.0165 45.9292 24.0165 44.8755 24.0165 43.796C24.0165 43.102 24.2491 42.7936 24.9213 42.6137C26.4465 42.2539 27.8684 41.6627 29.2127 40.8403C29.7814 40.4804 30.1951 40.5576 30.6863 41.0459C31.3584 41.7141 32.0306 42.3824 32.7027 43.0506C32.8061 43.1534 32.9095 43.2305 33.0129 43.3077C33.9694 42.331 34.9001 41.4057 35.8566 40.429ZM26.369 2.05615C23.4219 2.05615 20.5006 2.05615 17.5793 2.05615C17.5793 7.68486 17.5793 13.2879 17.5793 18.8909C20.5264 18.8909 23.4477 18.8909 26.369 18.8909C26.369 13.2622 26.369 7.65916 26.369 2.05615ZM28.1786 30.5595C24.0165 30.5595 19.8801 30.5595 15.7438 30.5595C16.235 33.6437 19.1046 35.9826 22.2068 35.8284C25.2573 35.6742 28.0752 33.2325 28.1786 30.5595Z" fill="#1A73E8"/>
</svg>
